<?xml version="1.0" encoding="utf-8"?>
<!-- Generator: Adobe Illustrator 16.0.0, SVG Export Plug-In . SVG Version: 6.00 Build 0)  -->
<!DOCTYPE svg PUBLIC "-//W3C//DTD SVG 1.1//EN" "http://www.w3.org/Graphics/SVG/1.1/DTD/svg11.dtd">
<svg version="1.1" id="Layer_1" xmlns="http://www.w3.org/2000/svg" xmlns:xlink="http://www.w3.org/1999/xlink" x="0px" y="0px"
	 width="95px" height="95px" viewBox="0 0 95 95" enable-background="new 0 0 95 95" xml:space="preserve">
<path fill="#010101" d="M69.558,27.331C55.336,13.043,47.727,0.392,47.727,0.392s-7.759,13.921-21.752,27.033
	C15.603,37.142,6.552,42.744,6.574,55.273c0.022,12.839,9.795,23.216,21.83,23.188c7.543-0.011,14.16-4.115,18.059-10.339
	c-0.832,4.531-2.008,10.394-3.073,13.699c-3.389,10.482-9.029,13.112-9.029,13.112l25.296-0.05c0,0-5.545-3.161-8.097-13.173
	c-0.639-2.54-1.902-8.913-2.835-13.76C52.63,74.247,59.318,78.4,66.928,78.384c12.03-0.021,21.77-10.443,21.748-23.283
	C88.653,42.71,80.045,37.857,69.558,27.331z"/>
</svg>
