<?xml version="1.0" encoding="utf-8"?>
<!-- Generator: Adobe Illustrator 16.0.0, SVG Export Plug-In . SVG Version: 6.00 Build 0)  -->
<!DOCTYPE svg PUBLIC "-//W3C//DTD SVG 1.1//EN" "http://www.w3.org/Graphics/SVG/1.1/DTD/svg11.dtd">
<svg version="1.1" id="Layer_1" xmlns="http://www.w3.org/2000/svg" xmlns:xlink="http://www.w3.org/1999/xlink" x="0px" y="0px"
	 width="95px" height="95px" viewBox="0 0 95 95" enable-background="new 0 0 95 95" xml:space="preserve">
<g>
	<path d="M40.977,92.851c0,0,2.461,1.431,2.995,1.697s0.957,0.537,1.645,0.537c0.683,0,1.644-0.46,1.644-0.46l3.474-1.835
		L40.977,92.851z"/>
	<path d="M33.525,71.344c0,0-0.329,1.512,0.271,2.551c0.605,1.042,0.372,0.569,0.372,0.569s-0.237,0.905,0.906,1.645
		c-0.604,0.434-1.176,1.272-1.176,1.81c0,0.539,0.938,1.276,0.938,1.276c-0.266,0.233-0.904,1.039-0.904,1.78
		c0,0.739,0.873,1.373,0.873,1.373s-0.737,0.706-0.737,1.711c0,1.008,0.871,1.475,0.871,1.475s-0.702,0.806-0.367,1.813
		c0.335,1.006,1.141,1.375,2.083,2.313c0.936,0.939,3.217,2.616,4.324,3.19c1.007,0.364,6.947,1.443,9.999-0.204
		c3.054-1.643,5.063-3.388,5.232-3.892c0.168-0.5,0.102-0.636,0.102-0.636s1.376-1.209,1.243-2.282
		c-0.139-1.07-0.506-1.578-0.506-1.578s0.673-1.139,0.639-1.845c-0.035-0.7-0.604-1.372-0.604-1.372s0.638-0.941,0.604-1.848
		c-0.035-0.907-0.669-1.411-0.669-1.411s0.938-0.469,0.736-1.91c-0.2-1.442-0.403-1.776-0.2-2.347c0.2-0.57,0.266-0.908,0.133-1.477
		c-0.372,0.233-2.649,1.845-12.042,1.845C35.644,73.895,33.525,71.344,33.525,71.344z"/>
	<path d="M34.826,72.121c0,0,0.243,0.562-0.079,0.681c-0.318,0.121-0.806-0.561-0.806-0.561s0.242,0.728,0.527,1.202
		c0.279,0.484,0.804,1.207,0.881,1.409c-0.199,0.24-0.24,0.483-0.08,0.686c0-0.242,0.284-0.602,0.563-0.602
		c0.282,0,0.323-0.483,0.323-0.728c0-0.237,0.479-0.841,1.165-0.6c-0.079-0.166-0.159-0.605,0.163-0.605
		C36.836,72.802,34.826,72.121,34.826,72.121z"/>
	<path d="M37.038,89.2c0,0,2.49,2.087,9.045,1.766c6.55-0.32,9.678-2.892,9.678-2.892s-4.376,2.084-9.518,2.282
		C41.737,90.526,38.885,90.044,37.038,89.2z"/>
	<path d="M35.514,86.144c0,0,0.839,0.968,4.942,1.69c-1.652,0.04-2.897,0.121-2.897,0.121s2.133,1.364,8.804,0.8
		c6.668-0.559,8.039-2.01,8.039-2.01s-1.851,0.443-2.534,0.443c1.004-0.197,3.614-1.366,4.139-1.889
		c-1.041,0.522-3.574,1.57-6.672,2.052c1.97-0.323,5.869-2.093,6.792-2.854c-2.051,0.921-5.345,2.289-10.367,2.289
		c-5.023,0-7.675-0.439-8.923-0.883c0.647,0.519,1.891,1.243,5.464,1.524C39.247,87.27,37.198,87.147,35.514,86.144z"/>
	<path d="M35.586,82.972c0,0,1.313,1.052,4.313,1.429c-1.537,0.11-2.286,0.186-2.286,0.186s1.649,1.199,9.001,0.749
		c2.734-0.11,6.259-1.163,7.348-1.688c-1.502,0.598-3.263,0.864-3.488,0.864c1.277-0.45,3.225-1.124,3.675-1.503
		c-0.973,0.639-3.376,0.977-3.376,0.977s4.727-1.76,5.477-2.772c-2.698,1.35-6.674,2.36-10.648,2.36
		c-3.979,0-6.525-0.334-8.248-0.75c1.084,0.416,2.283,1.014,3.598,1.162C39.3,83.911,37.198,83.836,35.586,82.972z"/>
	<path d="M37.574,81.212c0,0,2.549,0.862,8.588,0.561c6.038-0.3,8.062-1.647,8.062-1.647s-2.399,0.561-3.373,0.448
		c1.685-0.265,4.572-1.35,5.287-2.063c-0.788,0.675-3.488,1.576-7.35,1.915c2.886-0.491,6.303-1.578,7.534-2.627
		c-2.849,1.089-5.661,2.251-10.61,2.251c-4.951,0-8.174-0.564-8.626-0.677c0.526,0.266,2.138,0.901,4.313,1.163
		c-2.736-0.188-4.839-0.486-5.925-1.085c1.053,0.708,3.11,1.388,4.834,1.651C38.475,81.061,38.288,81.473,37.574,81.212z"/>
	<path d="M37.646,77.835c0,0,2.664,1.012,8.628,0.604c5.959-0.416,8.434-1.391,8.434-1.391s-3.521,0.864-7.086,0.637
		c1.652,0,5.962-0.712,8.028-2.286c-2.066,1.087-5.889,1.462-8.438,1.501c-2.552,0.036-7.613-0.112-10.236-1.201
		c1.312,0.635,2.248,1.313,4.949,1.499c-2.664-0.112-3.411,0.077-5.74-0.712c2.665,0.901,2.813,1.164,5.064,1.427
		C38.811,77.685,39.042,78.098,37.646,77.835z"/>
	<path d="M37.913,89.231c0,0,2.026,1.314,8.474,1.015c6.449-0.298,8.585-2.098,8.853-2.285c-0.863,0.523-3.006,0.938-3.305,0.971
		c1.201-0.112,2.587-1.12,2.929-1.536c-0.676,0.488-1.728,0.716-1.8,0.791c0.449-0.226,1.233-0.902,1.233-0.902
		s-5.411,1.471-7.935,1.471c-2.527,0-5.591,0.504-8.804-0.8c2.266,0.977,2.828,1.276,3.729,1.276
		c-1.202-0.073-3.227-0.373-4.951-1.271c1.651,0.823,1.613,1.05,3.001,1.388C38.025,89.123,37.913,89.231,37.913,89.231z"/>
	<path d="M38.664,86.35c0,0,4.159,0.747,8.023,0.485c3.863-0.263,6.299-0.785,8.922-2.097c-1.726,0.747-3.599,0.933-3.972,0.933
		c1.012,0.077,2.623-0.971,2.623-0.971s-1.689,0.41-2.173,0.446c0.938-0.261,2.587-1.274,2.398-1.5
		c-0.226-0.186-1.351,0.448-2.735,0.827c-1.39,0.375-5.286,1.05-8.441,1.012c-3.151-0.04-4.385-0.414-4.385-0.414
		s2.174,0.864,3.598,0.899c-1.5-0.035-1.876,0.114-3.111-0.223c1.088,0.485,1.876,0.712,2.253,0.675
		C41.178,86.499,39.042,86.35,38.664,86.35z"/>
	<path d="M39.3,82.861c0,0,2.738,0.748,7.087,0.412c4.348-0.341,7.126-0.899,8.288-1.688c0.261-0.149-0.564-0.373-1.201,0.035
		c0.264-0.035,0.41-0.635,0.039-0.333c-0.412,0.148-1.425,0.333-1.578,0.333c-0.149,0,2.214-0.519,2.625-1.387
		c-0.372,0.224-5.101,1.653-7.984,1.653c-2.889,0-6.789,0.261-9.19-0.377c2.326,0.601,5.064,0.975,6.189,0.939
		c-1.24,0.073-3.939,0-4.65-0.149c0.9,0.149,1.422,0.487,1.422,0.487L39.3,82.861z"/>
	<path d="M38.74,79.301c0,0,2.211,0.524,7.121,0.524c4.912,0,8.924-1.466,9.301-1.841c-0.751,0.375-1.912,0.265-1.912,0.265
		s1.386-0.749,1.535-0.937c-0.264,0.221-4.911,1.424-8.774,1.424c-3.858,0-7.16-0.416-7.16-0.416s1.309,0.752,3.639,0.864
		C40.684,79.146,39.042,79.334,38.74,79.301z"/>
	<path d="M38.099,73.701c0,0,3.488,0.564,3.677,0.373c0.187-0.186,0.11-0.41,0.11-0.41s7.947,0.335,11.774-0.45
		c-2.999,0.636-4.049,0.785-4.049,0.785c1.161-0.11,2.664,0.038,3.564-0.11c-1.202,0.337-2.403,0.64-1.989,0.939
		c0.417,0.3,1.839,0.41,2.364,0.26c-1.239,0.64-3.716,1.425-7.838,1.127c-4.126-0.302-6.973-0.563-7.8-0.86
		c1.086,0.108,1.65-0.075,1.65-0.341C39.563,74.751,37.086,74.601,38.099,73.701z"/>
	<path d="M75.467,28.576C75.467,12.792,62.673,0,46.895,0C31.114,0,18.321,12.792,18.321,28.576c0,2.875,0.426,5.65,1.219,8.271
		c0.146,0.682,1.037,4.222,4.662,10.047c4.051,6.516,6.278,12.083,6.677,14.23c0.395,2.143-0.162,5.243,0.477,6.512
		c0.637,1.272,2.141,2.542,2.141,3.021c0,0.48,0,0.48,0,0.48s0.006,0,0.011,0.007c0.077,0.824,2.037,1.63,4.948,2.148
		c0.561,0.103,1.192,0.2,1.892,0.281c1.843,0.223,3.923,0.333,6.074,0.29c1.403,0.033,2.721,0,3.945-0.092
		c1.067-0.064,1.995-0.178,2.803-0.325c3.06-0.493,5.023-1.368,5.152-2.255c0.024-0.044,0.055-0.154,0.055-0.456
		c0-0.476,1.75-1.589,2.388-2.861c0.634-1.271,1.214-4.59,1.51-6.751c0.394-2.944,3.177-7.714,7.229-14.23
		c2.253-3.626,3.45-6.364,4.072-8.083C74.797,35.634,75.467,32.183,75.467,28.576z"/>
	<path d="M33.532,70.844c0,0-0.463-2.077,11.983-2.077c12.446,0,12.807,1.416,12.874,2.077c0,0.428-0.331,3.006-12.412,3.006
		C34.653,73.85,33.302,71.438,33.532,70.844z"/>
	<path d="M29.087,35.845c0,0-0.674,3.132,2.026,9.512c2.699,6.385,3.807,7.119,4.17,8.959c0.371,1.841,0.556,2.576,0.556,2.576
		s0.55-0.921,1.835-0.554c1.293,0.368,2.641,0.368,3.438-0.614c0.796-0.979,3.681-2.516,5.83-1.287
		c2.147,1.227,4.233,0.798,6.071-0.063c1.844-0.856,3.927-0.675,3.927-0.675s2.581-10.368,4.235-12.885
		c-0.918,0.554-6.687-1.102-7.606-1.838c-0.921-0.737-2.699-0.246-4.662,0.242c-1.965,0.495-8.039,0.063-10.433-0.796
		c-2.393-0.859-4.234-1.964-5.889-1.838C30.928,36.708,29.087,35.845,29.087,35.845z"/>
	<g>
		<path d="M46.895,0C31.114,0,18.321,12.792,18.321,28.576c0,2.875,0.426,5.65,1.219,8.271c0.146,0.682,1.037,4.222,4.662,10.047
			c4.051,6.516,6.278,12.083,6.677,14.23c0.395,2.143-0.162,5.243,0.477,6.512c0.637,1.272,2.141,2.542,2.141,3.021
			c0,0.48,0,0.48,0,0.48s0.006,0,0.011,0.007c0.039,0.416,0.555,0.824,1.428,1.195c0.041-0.434,0.123-1.771-0.385-2.687
			c-0.613-1.107,0.429-8.22,0.612-8.833c-0.677,0.245-2.208-0.063-2.945-3.008c-0.735-2.942-5.586-11.967-8.405-17.729
			c-2.825-5.771-4.603-20.128,2.638-29.028C33.69,2.16,42.587,0.444,48.109,0.444s16.2,3.989,22.273,15.219
			c6.072,11.225,2.147,19.08-0.676,23.006c-2.821,3.93-9.326,12.576-10.244,15.156c-0.922,2.574-1.044,3.987-1.044,3.987
			s1.84,0.428,1.84,2.824c0,2.393-0.796,6.195-1.596,7.117c-0.797,0.919-2.205,2.453-2.147,4.726c0,0.043-0.002,0.083-0.002,0.126
			c1.085-0.427,1.734-0.916,1.808-1.413c0.024-0.044,0.055-0.154,0.055-0.456c0-0.476,1.75-1.589,2.388-2.861
			c0.634-1.271,1.214-4.59,1.51-6.751c0.394-2.944,3.177-7.714,7.229-14.23c2.253-3.626,3.45-6.364,4.072-8.083
			c1.222-3.177,1.892-6.628,1.892-10.235C75.467,12.792,62.673,0,46.895,0z"/>
		<path d="M50.366,73.772c-1.225,0.092-2.542,0.125-3.945,0.092c-2.151,0.043-4.231-0.067-6.074-0.29
			c-0.699-0.081-1.331-0.179-1.892-0.281c-1.45-0.26-2.661-0.587-3.52-0.953c-0.011,0.087-0.014,0.14-0.014,0.14
			c0.363,2.698,5.455,3.559,10.855,3.559c5.291,0,10.577-1.412,10.737-3.433c-0.863,0.334-1.996,0.627-3.345,0.842
			C52.361,73.595,51.434,73.708,50.366,73.772z"/>
	</g>
	<path d="M36.353,29.967l2.093,0.163c0,0,3.248,0.662,5.455,1.158c2.205,0.496,4.349,1.155,5.015,1.32
		c0.66,0.167,5.61-0.089,5.61-0.089l0.996,0.202l-0.219-1.6l-0.109,1.214c0,0-0.661-0.167-2.698,0
		c-2.041,0.163-3.474-0.056-3.474-0.056s-3.138-0.992-4.957-1.434c-1.817-0.442-5.565-1.103-5.565-1.103L36.353,29.967z"/>
	<path d="M42.05,73.649l0.43-8.088l0.162-6.139v-3.53c0,0,0.295-1.916,0.2-2.775c-0.099-0.856-0.627-1.785-0.825-2.639
		c-0.201-0.86-1.982-7.991-1.982-7.991l-2.245-9.016l-0.264-0.688c0,0-0.167,0.031-0.299-0.133c-0.13-0.167-0.689-2.541-0.689-2.541
		s-0.2-0.431,0.095-0.496c0.297-0.067,0.498,0,0.63,0.691c0.134,0.693,1.62,6.241,1.62,6.241l2.802,11.389
		c0,0,0.367,1.548,0.66,2.639c0.298,1.09,0.729,1.881,0.86,2.411c0.13,0.529-0.099,1.982-0.168,3.006
		c-0.064,1.021-0.294,8.447-0.361,9.833c-0.063,1.387-0.492,7.86-0.492,7.86L42.05,73.649z M48.153,73.782l0.464-9.87
		c0,0,0.428-8.981,0.428-10.83c0-1.848,0.53-3.565,0.53-3.565l1.386-4.619l3.468-11.126c0,0,0.131,0.3,0.362-0.558
		c0.229-0.859,0.69-2.013,0.329-2.147c-0.363-0.134-0.595,1.452-0.595,1.452l-0.988,3.135c0,0-3.763,12.049-4.262,13.735
		c-0.491,1.683-0.528,3.729-0.528,3.729l-0.392,7.79l-0.068,4.29l-0.295,8.585H48.153z M45.875,40.435
		c0.022-0.02,0.523-0.475,1.083-1.589l2.756-5.508l0.009-0.024l0.003-0.027c0.014-0.107,0.119-1.088-0.212-1.455
		c-0.088-0.096-0.198-0.148-0.328-0.148c-0.15,0-0.277,0.09-0.339,0.254c-0.153,0.391,0.072,1.209,0.424,1.527
		c0.185,0.166,0.397,0.204,0.592,0.108c0.709-0.356,0.746-0.685,0.746-0.745h-0.306v-0.013c0,0.002-0.041,0.212-0.577,0.478
		c-0.058,0.029-0.136,0.048-0.252-0.051c-0.271-0.255-0.438-0.94-0.34-1.198c0.022-0.055,0.04-0.055,0.052-0.055
		c0.042,0,0.073,0.014,0.101,0.047c0.179,0.198,0.179,0.851,0.135,1.213l0.016-0.052l-2.755,5.507
		c-0.528,1.059-1.007,1.493-1.012,1.495L45.875,40.435z M48.631,40.517c0.055-0.017,1.308-0.461,2.421-1.404
		c1.091-0.926,5.797-5.522,5.848-5.568l0.006-0.009l0.007-0.009c0.006-0.006,0.57-0.787-0.413-1.588
		c-0.393-0.323-0.838-0.285-1.186,0.099c-0.349,0.388-0.532,1.099-0.23,1.396c0.237,0.235,0.556,0.358,0.9,0.337
		c0.654-0.028,1.395-0.535,2.189-1.51l-0.236-0.191c-0.928,1.123-1.58,1.381-1.969,1.398c-0.325,0.015-0.541-0.13-0.667-0.254
		c-0.139-0.136-0.044-0.652,0.242-0.971c0.236-0.26,0.495-0.285,0.765-0.066c0.748,0.606,0.373,1.145,0.354,1.166l0.019-0.019
		c-0.046,0.048-4.746,4.636-5.83,5.558c-1.064,0.904-2.307,1.346-2.317,1.347L48.631,40.517z"/>
	<path d="M46.217,58.336c0,0-0.559,1.124,0.222,1.518c0.791,0.392,2.026-0.225,2.136-0.616c0,0.335-0.729,1.064-1.231,1.064
		c0.616,0.391,1.96-0.448,1.96-0.448s-0.507,0.956-1.96,0.897c-1.462-0.059-2.14-1.514-2.14-1.514
		C45.992,59.739,46.217,58.336,46.217,58.336z M40.83,73.725c0,0-0.169-3.426,0.223-3.595c0.393-0.169,0.616,1.233,0.616,1.233
		l0.111-4.658c0,0,0.337,0.953-0.5,0.953c-0.846,0,0.22-4.269,0.727-4.436c-0.45-0.732-0.056-3.088,0.227-3.483
		c-1.35,0.675-1.686,3.767-1.686,3.767v10.16L40.83,73.725z M46.667,60.922c0,0,0.845,0.561,1.853,0.39
		c1.01-0.169,1.518-0.675,1.518-0.675s0.281,0.787,0.281,2.753s-0.447,2.134-0.789,2.134c-0.335,0-0.393-1.288-0.393-1.288v4.043
		c0,0,0.058-1.067,0.617-1.067c0.564,0,0.396,2.529,0.396,2.529l0.057,3.984l0.45-0.059V63.337c0,0,0.221-1.913-0.564-3.314
		c-0.338-0.618-0.504-0.563-0.504-0.563S50.149,60.974,46.667,60.922z M43.691,60.584c0,0-0.223-0.282,0.057-0.896
		c0.281-0.619,1.12,0.447,1.911,0.784c-0.564-0.337-1.296-1.74-1.461-1.964c-0.393,0.505-1.798,1.121-1.798,1.121
		C42.625,59.572,43.691,60.584,43.691,60.584z M42.849,59.181c0,0,0-3.09,0.394-3.09c0.395,0,0.505,1.014,0.562,1.179
		c-0.057-0.221,0.224-2.524,0.224-2.524s-0.169,0.334-0.786,0.055c-0.617-0.279,0.113-1.572,0.448-1.572
		c-1.405,0-1.458,1.74-1.458,1.74v4.323C42.683,59.46,42.849,59.181,42.849,59.181z M45.49,53.788
		c0.392-0.281,2.809,0.114,2.809,0.62c0,0.502-0.845,0.729-1.463,0.671c0.338,0.283,1.63,0.112,1.63,0.112l-0.115,2.415
		c0,0-0.391,0.618-0.787,0.506c-0.391-0.114,0.565-1.63,0.565-1.63s0,0.675-1.177,1.124c-1.184,0.448,0.952,1.743,0.222,2.081
		c0.673,0.109,1.513-1.125,1.683-0.956c0.172,0.17-0.17,1.179-0.391,1.349c0.332-0.112,0.897-0.955,0.897-0.955s0-3.874,0-5.002
		c0-1.12-1.741-1.12-1.741-1.12C45.992,53.003,46.498,53.45,45.49,53.788z M45.374,57.328c0.342-0.224,0.619,0.67,0.844,1.008
		c-0.055-0.561,0.394-2.414,0.394-2.414s0,0.729-0.673,0.896c-0.675,0.173-0.954-2.915-0.843-1.681
		c0.11,1.233-0.732,2.694-0.732,2.694S45.042,57.549,45.374,57.328z M44.645,53.564l-0.221-6.063l-0.116,3.875l-0.279-10.387v11.902
		C44.028,54.239,44.645,53.564,44.645,53.564z M47.564,52.777V40.989L47.23,48.79l-0.278-2.08l0.11,4.945l0.168-1.235L47.564,52.777
		z M44.925,41.211v11.679c0,0-0.058,0.616,0.396,0.447c0.446-0.165,0.279-0.504,0.279-0.504l0.897-0.11l-1.177-0.228l-0.059-11.341
		L44.925,41.211z M43.691,40.255c0-0.337,1.011-0.451,1.741,0.225c0.73,0.676,0.673-0.505,1.969-0.451
		c1.285,0.056,0.612,0.9,0.612,0.9s0.901-0.17,0.901-0.674c0-0.675-1.742-0.617-2.698-0.617c-0.955,0-3.033-0.167-3.033,0.617
		c0,0.787,0.844,0.734,0.844,0.734C43.748,40.929,43.691,40.592,43.691,40.255z"/>
	<g>
		<path d="M22.771,31.686c-0.18-2.862,3.08-10.185,9.548-15.644c-1.765-0.198-3.047-0.259-3.047-0.259
			c0.186-1.596,6.502-13.56,21.477-11.166c14.973,2.391,17.487,15.522,17.734,16.931c-0.327-0.187-0.974-0.4-1.75-0.596
			c3.004,6.328,3.423,13.249,2.74,15.035c0,0,6.041-7.476,0.31-19.663C64.046,4.138,51.756,1.167,48.066,1.167
			c-3.684,0-15.77,1.229-23.343,13.824C22.977,18.273,21.646,25.846,22.771,31.686z"/>
		<path d="M49.913,9.463c-7.303,0-13.194,2.857-17.594,6.579c2.196,0.246,5.144,0.702,7.32,1.522
			c1.962-0.493,13.192-3.5,22.154,2.574c0.887,0,3.23,0.38,4.939,0.813C63.883,14.939,58.701,9.463,49.913,9.463z"/>
		<path d="M50.748,4.617c-14.974-2.394-21.291,9.57-21.477,11.166c0,0,1.283,0.062,3.047,0.259c4.4-3.722,10.292-6.579,17.594-6.579
			c8.788,0,13.97,5.477,16.819,11.489c0.776,0.196,1.423,0.409,1.75,0.596C68.235,20.139,65.721,7.007,50.748,4.617z"/>
	</g>
</g>
</svg>
