<?xml version="1.0" encoding="utf-8"?>
<!-- Generator: Adobe Illustrator 16.0.0, SVG Export Plug-In . SVG Version: 6.00 Build 0)  -->
<!DOCTYPE svg PUBLIC "-//W3C//DTD SVG 1.1//EN" "http://www.w3.org/Graphics/SVG/1.1/DTD/svg11.dtd">
<svg version="1.1" id="Layer_1" xmlns="http://www.w3.org/2000/svg" xmlns:xlink="http://www.w3.org/1999/xlink" x="0px" y="0px"
	 width="95px" height="95px" viewBox="0 0 95 95" enable-background="new 0 0 95 95" xml:space="preserve">
<path d="M1.101,37.742c-2.004,12.743,0.32,24.954,2.148,28.064c4.822,8.206,16.466,13.889,31.501,14.175
	c4.963,0.094,15.741-0.767,24.623-3.761c13.342-4.499,19.87-17.012,19.87-17.012s10.393,3.57,15.513-2.944
	c0,0-3.811-0.695-6.981-3.569c-2.912-2.638-9.463,2.018-9.463,2.018s1.655-6.301-1.551-8.224c-3.103-1.862-3.103-2.018-5.12-4.342
	c0,0-2.672,4.175-0.929,8.532c0.929,2.325,2.326,3.412,4.498,4.652c0,0-2.189,2.824-8.862,3.752c0,0,11.355-40.793-29.737-44.106
	C9.979,12.828,1.994,32.072,1.101,37.742z"/>
<path d="M3.232,65.774c0.006,0.01,0.012,0.021,0.017,0.032c4.822,8.206,16.466,13.889,31.501,14.175
	c4.963,0.094,15.741-0.767,24.623-3.761c6.824-2.303,11.86-6.699,15.158-10.446H3.232z"/>
<path d="M3.039,65.411c0.071,0.142,0.142,0.279,0.21,0.396c1.664,2.83,4.141,5.363,7.289,7.476
	c17.863,3.131,28.592-5.438,28.592-5.438C23.278,71.672,9.063,68.344,3.039,65.411z"/>
<path d="M4.375,67.504c1.735,2.359,4.066,4.472,6.9,6.258c19.993,3.673,27.856-5.918,27.856-5.918
	C26.16,71.733,12.263,70.003,4.375,67.504z"/>
<path d="M3.443,66.12c1.51,2.458,3.636,4.688,6.292,6.602c19.723,4.785,29.396-4.878,29.396-4.878
	C24.178,72.329,10.436,69.164,3.443,66.12z"/>
<g>
	<ellipse cx="11.15" cy="56.322" rx="0.786" ry="2.701"/>
	<ellipse cx="11.15" cy="56.873" rx="0.786" ry="2.701"/>
	<ellipse cx="11.15" cy="56.643" rx="0.786" ry="2.703"/>
</g>
<g>
	<ellipse cx="22.248" cy="56.322" rx="0.786" ry="2.701"/>
	<ellipse cx="22.248" cy="56.873" rx="0.786" ry="2.701"/>
	<ellipse cx="22.248" cy="56.643" rx="0.786" ry="2.703"/>
</g>
<path d="M94.756,56.265c0,0-3.811-0.695-6.981-3.569c-2.912-2.638-9.463,2.018-9.463,2.018s1.655-6.301-1.551-8.224
	c-3.103-1.862-3.103-2.018-5.12-4.342c0,0-2.672,4.175-0.929,8.532c0.929,2.325,2.326,3.412,4.498,4.652
	c0,0-1.435,1.848-5.512,3.049l4.127,8.179c3.623-3.918,5.418-7.351,5.418-7.351S89.636,62.779,94.756,56.265z"/>
<path d="M40.232,69.23c0,2.053-1.667,3.717-3.719,3.717c-2.055,0-3.721-1.664-3.721-3.717c0-2.056,1.667-3.722,3.721-3.722
	C38.566,65.509,40.232,67.175,40.232,69.23z"/>
<ellipse cx="34.813" cy="17.076" rx="1.347" ry="0.622"/>
<path d="M33.593,17.335c0.212,0.214,0.677,0.363,1.221,0.363c0.543,0,1.007-0.148,1.22-0.363c-0.213-0.211-0.677-0.36-1.22-0.36
	C34.27,16.975,33.805,17.124,33.593,17.335z"/>
<path d="M30.607,72.496c0.115-0.036,0.232-0.073,0.345-0.108v-2.787c-0.116,0.014-0.23,0.027-0.345,0.043V72.496z"/>
<path d="M27.06,73.409c0.117-0.024,0.232-0.047,0.346-0.069v-3.389c-0.115,0.007-0.23,0.017-0.346,0.023V73.409z"/>
<path d="M23.514,73.907c0.116-0.01,0.232-0.019,0.346-0.03v-3.806c-0.115,0-0.229,0-0.346-0.001V73.907z"/>
<path d="M19.969,74.047c0.116,0.001,0.229-0.002,0.345-0.002v-4.08c-0.116-0.008-0.23-0.015-0.345-0.024V74.047z"/>
<path d="M16.422,73.86c0.115,0.011,0.231,0.022,0.345,0.032V69.63c-0.115-0.016-0.231-0.031-0.345-0.046V73.86z"/>
<path d="M12.876,73.375c0.113,0.02,0.231,0.044,0.346,0.063v-4.375c-0.115-0.021-0.233-0.043-0.346-0.066V73.375z"/>
<path d="M9.33,72.417c0.117,0.086,0.228,0.174,0.346,0.261v-4.427c-0.117-0.028-0.231-0.062-0.346-0.094V72.417z"/>
<path d="M5.784,69.211c0.114,0.128,0.226,0.254,0.346,0.382v-2.426c-0.117-0.041-0.232-0.083-0.346-0.123V69.211z"/>
</svg>
