<?xml version="1.0" encoding="utf-8"?>
<!-- Generator: Adobe Illustrator 16.0.0, SVG Export Plug-In . SVG Version: 6.00 Build 0)  -->
<!DOCTYPE svg PUBLIC "-//W3C//DTD SVG 1.1//EN" "http://www.w3.org/Graphics/SVG/1.1/DTD/svg11.dtd">
<svg version="1.1" id="Layer_1" xmlns="http://www.w3.org/2000/svg" xmlns:xlink="http://www.w3.org/1999/xlink" x="0px" y="0px"
	 width="95px" height="95px" viewBox="0 0 95 95" enable-background="new 0 0 95 95" xml:space="preserve">
<path d="M51.617,7.016v16.072c0,16.332,14.568,22.147,13.884,33.522l-2.275,38.584c-10.158,0-20.289,0-30.437,0L30.491,56.61
	C29.811,45.24,44.38,39.42,44.38,23.088V7.016c-0.787-0.018-1.432-0.738-1.432-1.625V1.771c0-0.884,0.651-1.608,1.432-1.625h0.026
	h7.181h0.024c0.787,0.017,1.432,0.735,1.432,1.625v3.621c0,0.88-0.649,1.606-1.432,1.625H51.617z"/>
</svg>
