<?xml version="1.0" encoding="utf-8"?>
<!-- Generator: Adobe Illustrator 16.0.0, SVG Export Plug-In . SVG Version: 6.00 Build 0)  -->
<!DOCTYPE svg PUBLIC "-//W3C//DTD SVG 1.1//EN" "http://www.w3.org/Graphics/SVG/1.1/DTD/svg11.dtd">
<svg version="1.1" id="Layer_1" xmlns="http://www.w3.org/2000/svg" xmlns:xlink="http://www.w3.org/1999/xlink" x="0px" y="0px"
	 width="95px" height="95px" viewBox="0 0 95 95" enable-background="new 0 0 95 95" xml:space="preserve">
<path d="M94.65,46.333c-0.422-2.378-1.795-4.47-3.213-6.078c2.576,2.305,3.74,4.679,3.74,4.679
	c-0.783-4.389-4.799-7.808-6.359-8.989c-8.432-9.738-24.244-0.584-24.244-0.584s-17.74,19.042-0.879,31.309
	c13.346,9.709,27.069-6.432,28.27-19.692c0.541,0.795,0.8,1.318,0.8,1.318c-0.146-0.804-0.401-1.581-0.729-2.317
	c0-0.008,0-0.013,0-0.021c0.894,1.188,1.315,2.048,1.315,2.048c-0.222-1.24-0.701-2.4-1.311-3.458c0-0.039,0-0.076,0-0.114
	c1.257,1.516,1.841,2.711,1.841,2.711c-0.298-1.691-1.08-3.236-2.015-4.566c-0.004-0.004-0.006-0.008-0.006-0.012
	C93.776,44.545,94.65,46.333,94.65,46.333z"/>
<path d="M2.87,16.393c1.791-1.615,4.16-2.426,6.266-2.828c-3.452,0.241-5.821,1.403-5.821,1.403
	c3.306-2.986,8.579-3.224,10.539-3.201c12.626-2.524,19.506,14.4,19.506,14.4S35.7,52.086,14.861,51.443
	C-1.634,50.932-2.58,29.766,4.601,18.55c-0.915,0.3-1.441,0.557-1.441,0.557c0.609-0.552,1.287-1.006,1.994-1.386
	c0.007-0.006,0.009-0.01,0.011-0.017c-1.435,0.387-2.293,0.811-2.293,0.811c0.933-0.844,2.026-1.467,3.157-1.928
	c0.024-0.03,0.046-0.061,0.068-0.09c-1.921,0.428-3.113,1.011-3.113,1.011c1.271-1.148,2.84-1.891,4.391-2.37
	c0.004-0.002,0.004-0.004,0.008-0.007C4.658,15.519,2.87,16.393,2.87,16.393z"/>
<path d="M54.295,26.189c1.913-1.686,4.208-3.127,4.208-3.127c-1.619-0.129-4.274,0.957-5.722,1.878
	c1.004-1.512,3.511-2.758,3.511-2.758c-2.871-0.154-4.864,1.144-6.109,2.408c-16.054-5.072-33.67,2.549-40.649,18.221
	C2.028,59.667,9.674,79.444,26.605,86.98c8.844,3.939,18.462,3.756,26.71,0.296c-0.513,1.331-1.276,2.347-1.276,2.347
	c1.164-0.601,2.033-1.635,2.662-2.669c-0.374,1.856-1.615,3.505-1.615,3.505c2.075-1.068,3.215-3.516,3.715-4.885
	c6.022-3.394,11.039-8.668,14.062-15.458C78.291,53.437,70.87,33.897,54.295,26.189z"/>
</svg>
