<?xml version="1.0" encoding="utf-8"?>
<!-- Generator: Adobe Illustrator 16.0.0, SVG Export Plug-In . SVG Version: 6.00 Build 0)  -->
<!DOCTYPE svg PUBLIC "-//W3C//DTD SVG 1.1//EN" "http://www.w3.org/Graphics/SVG/1.1/DTD/svg11.dtd">
<svg version="1.1" id="Layer_1" xmlns="http://www.w3.org/2000/svg" xmlns:xlink="http://www.w3.org/1999/xlink" x="0px" y="0px"
	 width="95px" height="95px" viewBox="0 0 95 95" enable-background="new 0 0 95 95" xml:space="preserve">
<g>
	<g>
		<path d="M47.466,89.545l-1.151-11.992L31.89,74.876l-1.463,14.558c-0.002,0.018-0.004,0.035-0.005,0.054l-0.006,0.058h0.002
			c-0.001,0.026-0.002,0.053-0.002,0.079c0,2.04,3.817,3.693,8.526,3.693s8.525-1.653,8.525-3.693
			C47.466,89.598,47.466,89.571,47.466,89.545L47.466,89.545z"/>
		<path d="M50.028,89.545l1.151-11.992l14.426-2.677l1.463,14.558c0.002,0.018,0.005,0.035,0.006,0.054l0.005,0.058h-0.002
			c0.001,0.026,0.002,0.053,0.002,0.079c0,2.04-3.816,3.693-8.525,3.693s-8.525-1.653-8.525-3.693c0-0.026,0-0.053,0.002-0.079
			H50.028z"/>
		<ellipse cx="48.803" cy="60.475" rx="19.598" ry="21.625"/>
		<g>
			<path d="M35.143,42.654c-3.697-0.74-6.462,3.531-7.793,7.597c-1.447,4.424-4.322,13.528-4.874,17.728
				c-0.529,4.026,2.648,7.608,6.693,7.957c2.432,0.21,6.214-0.232,6.178-2.5c-0.008-0.451-1-0.429-1.384-0.899
				c-1.313-1.611-0.769-2.87,0.229-3.855c0.683-0.676,1.915,0.501,2.96-0.173c1.198-0.774-2.802-2.338-2.364-4.355
				c1.018-3.347,2.676-7.07,3.089-11.706C38.286,47.87,38.524,43.331,35.143,42.654z"/>
			<path d="M62.464,42.654c3.697-0.74,6.462,3.531,7.792,7.597c1.447,4.424,4.322,13.528,4.874,17.728
				c0.529,4.026-2.648,7.608-6.693,7.957c-2.432,0.21-6.213-0.232-6.178-2.5c0.008-0.451,0.998-0.429,1.383-0.899
				c1.314-1.611,0.77-2.87-0.228-3.855c-0.684-0.676-1.915,0.501-2.961-0.173c-1.197-0.774,2.803-2.338,2.364-4.355
				c-1.018-3.347-2.675-7.07-3.089-11.706C59.319,47.87,59.082,43.331,62.464,42.654z"/>
		</g>
	</g>
	<g>
		<path d="M71.065,17.638C67.923,8.36,59.142,1.683,48.803,1.683c-10.34,0-19.12,6.677-22.263,15.956
			c-4.584,1.158-7.977,5.31-7.977,10.253c0,5.84,4.734,10.574,10.575,10.574c0.092,0,0.184,0,0.275-0.003
			c4.235,6.171,11.339,10.219,19.389,10.219c8.051,0,15.155-4.048,19.39-10.219c0.092,0.003,0.183,0.003,0.274,0.003
			c5.841,0,10.575-4.734,10.575-10.574C79.042,22.948,75.649,18.796,71.065,17.638z"/>
		<g>
			<g>
				<circle cx="48.802" cy="25.182" r="19.087"/>
				<circle cx="48.803" cy="25.182" r="8.153"/>
			</g>
			<g>
				<g>
					<circle cx="33.876" cy="10.255" r="1.006"/>
					<circle cx="63.73" cy="40.109" r="1.007"/>
				</g>
				<g>
					<circle cx="33.876" cy="40.109" r="1.006"/>
					<circle cx="63.73" cy="10.255" r="1.007"/>
				</g>
			</g>
		</g>
	</g>
</g>
</svg>
