<?xml version="1.0" encoding="utf-8"?>
<!-- Generator: Adobe Illustrator 16.0.0, SVG Export Plug-In . SVG Version: 6.00 Build 0)  -->
<!DOCTYPE svg PUBLIC "-//W3C//DTD SVG 1.1//EN" "http://www.w3.org/Graphics/SVG/1.1/DTD/svg11.dtd">
<svg version="1.1" id="Layer_1" xmlns="http://www.w3.org/2000/svg" xmlns:xlink="http://www.w3.org/1999/xlink" x="0px" y="0px"
	 width="95px" height="95px" viewBox="0 0 95 95" enable-background="new 0 0 95 95" xml:space="preserve">
<path d="M87.849,51.414c-2.082-0.353-27.525-0.405-27.525-0.405c12.373-1.039,30.996-1.018,30.996-1.018s-1.422-3.472-0.887-9.745
	c0.533-6.273,4.481-18.692,4.481-18.692l0,0l-1.696-3.222l-5.7,3.769c-2.669,0.056-6.063,0.011-10.192-0.26
	c-11.77-0.773-39.33-0.394-50.122,0.45c-10.792,0.844-24.031-2.353-24.031-2.353s-0.159,3.666,0.171,8.14
	c0.208,2.815-0.404,7.775-0.886,11.066l-2.22,0.079l1.786,2.696c-0.056,0.333-0.089,0.524-0.089,0.524l0.52,0.125l0,0l0,0
	l12.982,3.085l-7.572-0.803l-6.498-1.381l1.669,2.824l0.027,0.398l0.282,0.123l0.649,1.096l0.659-0.521l3.043,1.338L2.459,48.5
	c0,0,0,0,0.934,2.663c0.571,1.629,0.354,5.577,0.1,8.399l-2.095-0.005l1.797,2.221l0.076-0.038
	c-0.068,0.593-0.115,0.955-0.115,0.955l4.155,0.968l-5.544,0.808l0.547,2.813l-0.957,0.58l1.697,3.222
	c9.584-3.257,33.81,0.679,47.14,1.781C63.524,73.968,92.2,72.063,92.2,72.063s0.42-3.654-0.172-8.139
	C91.437,59.438,87.849,51.414,87.849,51.414z"/>
<path d="M0.238,39.222l6.174,2.803l-5.046,1.443l2.771,2.657l0.73,11.398l-3.015,1.968l2.907,0.751l-3.4,7.621
	c0,0,2.333,0.626,4.618,0.375c2.285-0.251,23.588,0.497,37.339,1.969c13.752,1.47,37.537,1.452,42.652,0.45
	c5.115-1.003,5.115-1.003,5.115-1.003s0.24-13.631-3.715-19.224L71.84,49.584l15.033,0.126l3.805-0.285c0,0-2.872-9.118-0.051-17.74
	c2.822-8.621,2.591-13.353,2.591-13.353L0.238,39.222z"/>
<path d="M13.739,42.43L0.238,39.222c0,0,1.74-9.893,1.41-14.367c-0.331-4.474-0.172-8.139-0.172-8.139s13.239,3.196,24.032,2.352
	c10.792-0.843,38.351-1.222,50.122-0.45c11.771,0.772,17.589-0.287,17.589-0.287s-3.949,12.421-4.483,18.694
	C88.201,43.297,89.65,47,89.65,47s-18.649-0.25-31.024,0.787c0,0,25.444,0.053,27.526,0.405c0,0,3.586,8.026,4.18,12.511
	c0.592,4.485,0.172,8.14,0.172,8.14s-28.676,1.904-42.007,0.802c-13.331-1.103-37.556-5.038-47.14-1.781L0.07,61.25l5.543-0.809
	l-4.155-0.968c0,0,1.171-8.867,0.238-11.531c-0.935-2.665-0.935-2.665-0.935-2.665l5.237,0.228l-4.633-2.038l-0.16-2.367
	L13.739,42.43z"/>
<path d="M89.328,60.212c0.314,2.38,0.335,4.515,0.291,5.974c-2.11,0.044-4.457-0.092-6.479-0.403
	c-2.637-0.406-5.424-0.225-8.127-0.301c-6.192-0.174-12.32,0.826-18.506,0.734c-3.359-0.048-6.878,0.306-10.204,0.603
	c-2.211,0.196-4.909-0.26-6.929,0.643c0.168,0.25,0.378,0.456,0.613,0.635c-13.092-1.438-30.029-3.461-37.605-0.887l-1.258-6.463
	l5.417-0.79l-4.061-0.945c0,0,0.055-0.416,0.131-1.092c2.952-0.625,5.929-1.102,8.948-1.335c4.905-0.377,9.78-0.591,14.69-0.7
	c5.444-0.121,10.979-0.189,16.392,0.454c6.167,0.732,12.428,0.641,18.622,1.106c5.368,0.405,10.683,0.989,16.078,1.223
	c3.938,0.17,7.759,0.006,11.642-0.248C89.136,59.056,89.255,59.662,89.328,60.212z M4.802,23.213
	c3.451,0.44,6.729,1.336,10.254,1.482c10.729,0.449,21.418,1.186,32.156,1.65c6,0.26,11.984,0.428,17.984,0.538
	c5.922,0.107,11.873-0.536,17.788-0.268c2.296,0.104,4.608,0.027,6.915-0.021c1.119-4.23,2.248-7.784,2.248-7.784
	s-5.684,1.037-17.186,0.28c-11.503-0.754-38.436-0.383-48.981,0.44c-10.545,0.825-23.483-2.3-23.483-2.3s-0.106,2.451,0.04,5.769
	C3.294,23.062,4.053,23.119,4.802,23.213z M2.233,41.058l0.156,2.314l0.743,0.327c4.328,0.696,8.575,1.871,13.06,2.066
	c5.792,0.25,11.509,1.011,17.326,1.263c2.504,0.108,5.19-0.048,7.668,0.319c1.094,0.162,2.632,0.856,3.72,0.674
	c-0.495,0.52-1.318,0.115-1.955,0.172c-1.508,0.136-3.033,0.286-4.566,0.342c-2.752,0.1-5.527,0.095-8.286,0.326
	c-3.359,0.28-6.663,0.178-10.011,0.347c-5.056,0.258-10.292-0.389-15.354-0.608c-0.611-0.027-1.222-0.053-1.833-0.08
	c0.168,1.006,0.191,2.401,0.143,3.848c0.68,0.034,1.356,0.063,2.021,0.093c3.934,0.169,7.77,0.592,11.71,0.763
	c10.022,0.435,20.059,0.432,30.046,0.028c5.529-0.223,11.189-0.99,16.706-0.828c4.736,0.142,9.661,0.068,14.362-0.339
	c2.919-0.252,5.815-0.644,8.71-0.844c-0.749-1.896-1.354-3.25-1.354-3.25c-2.036-0.346-26.898-0.398-26.898-0.398
	c12.092-1.014,30.291-0.993,30.291-0.993s-0.881-2.161-0.976-6.139c-2.242,0.191-4.475,0.386-6.733,0.485
	c-7.281,0.317-14.536,0.365-21.765-0.693c-3.438-0.504-6.946-0.499-10.395-1.021c-3.076-0.466-6.172-0.667-9.242-1.169
	c-5.082-0.835-10.188-1.228-15.307-1.684c-3.781-0.336-7.654-0.543-11.428-1.008c-1.419-0.173-2.92-0.267-4.336-0.506
	c-1.081-0.183-2.278-0.137-3.374-0.34c-1.005-0.186-1.99-0.428-2.995-0.588c-0.382,2.921-0.798,5.288-0.798,5.288l13.193,3.135
	L2.233,41.058z M3.692,30.926c6.082,2.329,13.219,3.016,19.657,3.625c8.709,0.828,17.598,0.728,26.34,1.13
	c10.486,0.479,21.021,0.043,31.514,0.347c2.217,0.063,4.441,0.055,6.667,0.085c0.275-2.196,0.87-4.938,1.532-7.592
	c-2.473,0.22-4.961,0.363-7.493,0.542c-11.366,0.799-22.629,0.882-34.005,0.389c-4.892-0.212-9.941-0.818-14.83-0.585
	c-4.152,0.198-8.205-0.608-12.333-0.855c-5.053-0.299-10.009-1.196-15.054-1.415c-1.032-0.045-2.01-0.156-2.984-0.29
	c0.007,1.213-0.083,2.654-0.221,4.129C3.048,30.68,3.5,30.851,3.692,30.926z"/>
<path d="M0.372,38.429c0.399-2.428,1.409-10.168,1.134-13.879c-0.331-4.474-0.174-8.211-0.174-8.211s13.274,3.376,24.067,2.532
	c10.792-0.843,38.329-1.252,50.1-0.479c4.084,0.268,7.578,0.543,10.234,0.492c-3.346,0.334-7.08,0.973-11.196,0.738
	c-9.551-0.546-39.257-0.085-49.52,0.652c-10.263,0.735-22.404-2.589-22.404-2.589s0.831,2.047,0.792,8.996
	C3.37,32.746,0.852,37.232,0.372,38.429z M73.467,68.497c-13.262,0.344-33.012-0.906-47.76-2.595
	c-14.748-1.689-23.473-0.099-23.473-0.099l-0.729-4.359l2.427-1.121L0,60.803l1.357,7.061c9.345-1.818,16.52-0.037,42.191,1.785
	c25.671,1.824,46.977-0.699,46.977-0.699c0.003-0.02-0.007-0.243-0.004-0.27C89.044,68.545,84.179,68.221,73.467,68.497z
	 M4.757,60.242l1.096-0.247l-4.002-0.504c0,0,1.15-5.328,1.394-7.941c0.245-2.612-0.923-5.941-0.923-5.941l1.059-0.216l-2.66-0.227
	c0,0-0.083,0.023,0.852,2.687c0.934,2.664-0.174,11.706-0.174,11.706L4.757,60.242z M1.004,40.886l0.361,2.582L2.12,43.8
	l-0.074-2.405l3.763,0.037L1.004,40.886z M79.557,49.045c3.301-0.055,5.953,0.62,7.32,0.795c-0.106-0.247-0.852-2.228-0.852-2.228
	c-1.3-0.219-11.804,0.004-19.438-0.043C70.745,47.836,76.177,49.1,79.557,49.045z"/>
</svg>
