<?xml version="1.0" encoding="utf-8"?>
<!-- Generator: Adobe Illustrator 16.0.0, SVG Export Plug-In . SVG Version: 6.00 Build 0)  -->
<!DOCTYPE svg PUBLIC "-//W3C//DTD SVG 1.1//EN" "http://www.w3.org/Graphics/SVG/1.1/DTD/svg11.dtd">
<svg version="1.1" id="Layer_1" xmlns="http://www.w3.org/2000/svg" xmlns:xlink="http://www.w3.org/1999/xlink" x="0px" y="0px"
	 width="95px" height="95px" viewBox="0 0 95 95" enable-background="new 0 0 95 95" xml:space="preserve">
<path d="M74.581,59.599c11.273-0.147,20.307-9.412,20.157-20.696c-0.143-11.281-9.409-20.312-20.696-20.162
	c-11.277,0.148-20.306,9.416-20.159,20.695C54.032,50.72,63.299,59.744,74.581,59.599z"/>
<path fill="none" stroke="#000000" stroke-miterlimit="10" d="M39.64,36.015c0,0,7.463-5.896,15.554-0.203"/>
<path d="M20.946,60.303C9.665,60.446,0.4,51.42,0.259,40.141C0.106,28.859,9.131,19.589,20.413,19.445
	c11.286-0.148,20.55,8.878,20.698,20.162C41.256,50.887,32.233,60.155,20.946,60.303z"/>
</svg>
