<?xml version="1.0" encoding="utf-8"?>
<!-- Generator: Adobe Illustrator 16.0.0, SVG Export Plug-In . SVG Version: 6.00 Build 0)  -->
<!DOCTYPE svg PUBLIC "-//W3C//DTD SVG 1.1//EN" "http://www.w3.org/Graphics/SVG/1.1/DTD/svg11.dtd">
<svg version="1.1" id="Layer_1" xmlns="http://www.w3.org/2000/svg" xmlns:xlink="http://www.w3.org/1999/xlink" x="0px" y="0px"
	 width="95px" height="95px" viewBox="0 0 95 95" enable-background="new 0 0 95 95" xml:space="preserve">
<g>
	<path d="M4.035,72.211c-0.794,0.518-1.456,0.654-1.839,0.19c-0.958-1.213-1.581-4.132-1.831-6.216
		c-0.249-2.555-0.278-7.965,2.186-11.871c0.134-0.207,0.278-0.415,0.402-0.624c0.125-0.199,0.249-0.408,0.364-0.598
		C4.582,51,4.582,49.531,4.362,48.145c-0.259-1.649,0.287-4.032,1.332-6.333C6.68,39.7,8.175,37.589,9.775,36.62
		c0.402-0.245,0.163-0.117,0.546-0.281c0.584-0.236,1.418-0.589,2.002-1.151c1.035-0.96,1.418-2.972,1.582-4.023
		c0.747-4.683,5.145-8.489,8.662-8.725c1.102-0.045,2.894-0.145,4.063-0.915c0.872-0.581,1.361-1.595,1.668-2.51
		c0.411-1.187,1.1-2.255,2.079-3.125c2.529-2.183,6.104-2.175,8.643-1.404c1.294,0.443,3.153,1.115,4.609,0.887
		c0.929-0.117,1.639-0.606,2.232-1.268c2.672-2.9,7.205-1.477,10.186,0.834c0.909,0.724,3.191,2.591,4.39,2.555
		c0.391,0.009,0.669-0.183,0.88-0.417c0.451-0.436,1.035-0.717,1.727-0.815c2.099-0.246,4.473,1.34,6.132,2.962
		c0.556,0.534,1.073,1.097,1.533,1.704c0.642,0.86,2.251,2.936,3.297,3.343c0.353,0.145,0.688,0.091,0.948,0.01
		c0.334-0.108,0.69-0.146,1.102-0.108c2.817,0.379,5.96,3.94,7.34,6.278c0.537,0.924,1.591,2.673,2.626,3.371
		c0.393,0.263,0.795,0.408,1.17,0.498c0.249,0.055,0.507,0.127,0.764,0.236c2.627,1.051,4.898,3.77,6.441,5.01
		c0.201,0.109,0.402,0.228,0.604,0.336c-0.096,0.145-0.191,0.29-0.298,0.417c-0.096,0.172-0.162,0.354-0.229,0.525
		c-0.105,0.271-0.211,0.552-0.336,0.843c-0.344,0.788-0.948,1.875-2.539,2.156c-0.364,0.036-0.728,0.01-1.111-0.063
		c-0.075-0.019-0.183-0.027-0.249-0.019c-0.689,0.127-1.121,2.048-1.236,2.519c-0.096,0.461-0.258,0.906-0.449,1.323
		c-0.748,1.513-2.482,3.426-5.29,2.79c-0.336-0.09-0.709-0.153-1.016-0.035c-0.843,0.354-1.533,2.192-1.841,2.926
		c-1.081,2.33-3.661,5.065-7.167,4.341c-0.623-0.137-1.216-0.137-1.792,0.1c-1.158,0.48-2.137,1.921-2.769,2.917
		c-1.773,2.8-5.261,5.699-8.999,4.142c-0.795-0.344-1.6-0.489-2.452-0.218c-1.398,0.453-2.703,2.03-3.593,3.145
		c-2.464,3.018-6.688,5.056-10.207,3.115c-2.308-1.085-4.177-0.09-6.093,1.958c-2.828,3.199-6.957,5.191-9.333,3.65
		c-0.728-0.388-1.955-0.813-3.143,0.072c-0.498,0.374-0.977,0.971-1.37,1.613c-0.364,0.573-0.795,1.135-1.245,1.604
		c-2.54,2.757-5.299,2.52-6.765,1.604c-0.805-0.478-2.665-1.387-4.073-0.315c-2.54,1.975-4.58,0.145-5.749-1.341
		C4.783,78.563,3.901,77.031,3.49,75.3C3.298,74.486,3.566,73.363,4.035,72.211z"/>
	<path d="M94.54,39.873c-0.47,0.734-2.127,3.207-3.861,2.8c-2.217-0.518-2.77,1.067-3.201,3.098
		c-0.373,1.756-1.813,3.916-3.881,3.353c-3.03-0.823-4.287,0.972-4.6,3.489c-0.531,4.297-2.692,5.782-5.348,3.598
		c-2.913-2.4-5.134,0.825-6.17,3.623c-1.387,3.744-4.114,5.897-6.956,3.553c-3.329-2.747-6.056,0.219-7.84,3.361
		c-2.652,4.679-5.66,5.021-8.173,2.655c-2.654-2.502-6.141-1.005-7.76,2.365c-1.821,3.787-4.914,5.455-7.215,2.771
		c-1.918-2.232-5.553-1.216-6.555,2.676c-1.125,4.363-3.923,3.883-5.855,1.656c-1.852-2.134-3.89-1.323-5.145-0.234
		c-3.718,3.314-7.599-0.429-6.459-5.664c0.45-2.067,7.407-12.296,11.758-12.758c3.498-0.208,7.073-0.096,10.502,1.096
		c3.485,1.212,6.784,3.553,9.85,7.041c-1.753-3.025-3.939-5.502-6.63-7.258c-2.627-1.714-5.744-2.723-9.218-2.953
		c-2.545-0.17-1.246-2.266-0.651-2.989c3.823-4.351,7.556-7.291,12.247-8.88c1.406-0.477,2.759-0.534,3.861-0.1
		c2.998,1.351,6.021,3.229,8.939,5.753c2.936,2.54,5.74,5.619,8.414,9.233c-1.744-3.271-3.903-6.196-6.516-8.77
		c-2.619-2.581-5.663-4.799-9.151-6.461c-1.188-0.566-1.052-1.692-0.518-1.949c4.285-2.054,7.781-3.418,12.563-3.343
		c1.629,0.025,3.535,0.021,4.331,0.39c5.586,2.584,9.975,8.063,14.938,14.715c-3.142-5.727-6.599-10.658-12.781-14.334
		c-1.56-0.928-0.911-1.44-0.164-1.668c4.054-1.096,6.602-1.01,10.819-0.806c0.47,0.023,1.86,0.133,2.329,0.372
		c3.201,1.627,7.07,5.236,10.443,9.595c-2.099-3.634-5.228-6.575-9.419-9.533c-0.677-0.476-0.506-0.779-0.02-0.743
		c4.43,0.334,8.778,0.472,13.156,1.042c-4.406-0.689-8.832-1.202-13.252-1.449c-1.053-0.059-0.66-0.725-0.489-0.942
		c2.482-3.108,3.911-6.542,3.737-10.438c-0.651,4.611-1.957,7.618-4.531,9.857c-0.3,0.261-1.734,0.87-2.137,0.934
		c-4.381,0.815-6.813,0.655-10.82,0.19c-1.463-0.169-0.851-0.996-0.668-1.386c1.444-3,2.443-5.594,3.104-8.246
		c0.66-2.656,1.006-5.4,1.12-8.661c-0.469,3.542-1.219,6.763-2.232,9.586c-1.016,2.832-2.318,5.312-3.938,7.321
		c-0.871,1.08-1.381,1.686-2.837,2.183c-4.859,1.804-8.961,2.684-13.75,3.625c-0.472,0.092-1.208-0.427-0.67-1.323
		c2.318-3.77,3.957-7.243,5.002-10.801c1.034-3.518,1.504-7.167,1.418-11.226c-0.164,3.859-1.149,8.091-2.578,12.004
		c-1.446,3.961-3.386,7.683-5.386,10.42c-0.693,0.951-1.953,2.154-2.941,2.955c-4.819,3.895-7.853,6.143-12.648,8.78
		c-0.954,0.524-1.715,0.226-1.044-1.306c2.156-4.983,3.753-9.306,4.762-13.455c0.993-4.087,1.427-8.164,1.37-12.64
		c-0.69,5.427-1.881,10.479-3.412,15.268c-1.565,4.897-3.486,9.559-5.404,14.134C13.84,61.103,5.259,69.538,4.074,69.637
		c-2.793,0.237-4.048-9.573-0.297-15.113c1.605-2.371,4.049-6.041,2.625-8.617c-1.652-2.987,1.038-7.853,4.092-8.326
		c2.255-0.351,6.889-3.317,5.414-7.567c-1.409-4.06,2.764-6.659,6.583-6.378c3.092,0.227,7.689-0.145,7.646-4.93
		c-0.043-5.037,4.882-4.928,8.576-3.134c3.121,1.515,7.166,3.347,8.653-0.752c1.311-3.611,5.255-1.645,8.002,0.942
		c2.753,2.596,6.821,5.578,7.406,2.21c0.642-3.69,4.013-1.326,6.881,3.299c1.846,2.977,4.964,6.302,6.429,4.195
		c1.257-1.808,4.369,1.672,6.009,4.838c1.321,2.552,3.088,4.695,5.7,5.136C89.521,35.733,92.996,38.713,94.54,39.873z"/>
	<path d="M22.759,29.226c-0.259-1.06-1.632-6.468-3.584-1.504c-2.629,6.688,0.268,5.983-8.24,12.929
		c-1.739,1.42-1.551,7.068-1.888,9.486C8.416,54.678,2.283,69.752,8.31,63.73c4.297-4.295,6.544-13.374,8.519-18.829
		c1.936-5.166,3.132-8.591,4.877-13.265C21.848,31.256,22.808,29.424,22.759,29.226z"/>
	<path d="M9.334,68.904c4.14-6.533,15.878-5.99,19.548-4.812c1.246-0.056,8.256,8.761,1.773,7.874
		c-3.428-0.469-4.917-0.808-8.241,3.188c-1.447,1.85-12.033,0.052-12.917-0.962C8.484,73.033,7.801,71.449,9.334,68.904z"/>
	<path d="M42.968,52.829c2.243,1.613,12.226,8.915,7.906,12.522c-1.248,1.042-2.524-0.538-4.323,1.332
		c-0.378,0.394-1.868,0.173-2.336-0.252c-0.489-0.056-9.587-6.921-11.941-7.875c-0.683-0.278-7.598-2.502-7.799-2.818
		C22.376,52.485,37.092,48.605,42.968,52.829z"/>
	<path d="M49.484,42.446c7.296-0.664,10.806,5.739,15.418,10.266c3.445,3.384-1.303,4.204-2.598,6.215
		c-3.209,2.764-5.39-1.589-8.067-5c-0.083-0.104-0.164-0.21-0.249-0.309c-6.219-7.693-9.889-6.425-12.256-8.491
		C41.924,42.21,47.313,42.644,49.484,42.446z"/>
	<path d="M61.758,40.67c-2.49-0.462-0.679-0.136-1.015-0.109c-0.861,1.802,4.127,5.005,7.053,8.317
		c0.083,0.094,0.19,0.21,0.277,0.309c2.281,2.601,5.364,6.539,7.849,2.246c1.118-1.933,1.859-1.849,1.121-4.032
		c-1.591-2.192-6.301-6.617-9.323-7.24C66.123,39.833,62.907,39.991,61.758,40.67z"/>
	<path d="M74.358,36.873c-0.188-0.372-0.373-0.707-0.554-1.077c0.612-0.183,2.878-11.98,6.267-5.11
		c3.33,6.75,13.828,8.187,9.534,9.985c-6.41,2.683-2.635,1.908-4.783,5.544c-1.407,2.382-5.261-2.374-8.221-4.965
		c-0.077-0.064-0.518-0.698-0.47-0.743c0.192-1.188,4.461,0.5,7.388-0.109C91.795,38.677,74.688,37.516,74.358,36.873z"/>
	<path d="M59.938,33.792c-0.068,0.119-0.134,0.223-0.192,0.336c-0.41,0.793,0.298,1.368,0.584,1.803
		c0.154,0.019,0.317,0.046,0.481,0.055c5.423,0.888,8.392-1.662,9.188-6.07c0.928-5.142,2.885-3.535-3.068-6.597
		c-3.314-1.705-3.93-4.049-3.688,1.269C63.298,25.765,61.203,33.811,59.938,33.792z"/>
	<path d="M51.918,34.762c3.641-3.32,3.754-6.498,4.342-11.67c0.207-1.832-5.999-11.205-9.018-1.187
		c-0.314,1.045-2.002,3.919-3.603,7.204c-1.61,3.302-3.124,7.076-3.095,9.604C40.678,42.836,48.306,38.057,51.918,34.762z"/>
	<path d="M28.863,44.875c6.851-5.355,6.232-9.375,9.055-15.584c2.313-5.09-0.105-14.987-4.666-10.657
		c-1.199,1.196-2.93,5.322-4.552,9.605c-1.667,4.396-3.292,8.98-4.313,10.819C21.624,44.033,24.149,50.7,28.863,44.875z"/>
</g>
</svg>
