<?xml version="1.0" encoding="utf-8"?>
<!-- Generator: Adobe Illustrator 16.0.0, SVG Export Plug-In . SVG Version: 6.00 Build 0)  -->
<!DOCTYPE svg PUBLIC "-//W3C//DTD SVG 1.1//EN" "http://www.w3.org/Graphics/SVG/1.1/DTD/svg11.dtd">
<svg version="1.1" id="Layer_1" xmlns="http://www.w3.org/2000/svg" xmlns:xlink="http://www.w3.org/1999/xlink" x="0px" y="0px"
	 width="95px" height="95px" viewBox="0 0 95 95" enable-background="new 0 0 95 95" xml:space="preserve">
<g>
	<g>
		<path d="M13.373,40.801l5.584-2.441c-7.521,3.295-9.952,14.513-5.409,25.246c4.59,10.85,14.568,17.087,22.285,13.942
			c0.077-0.038,0.163-0.073,0.245-0.108l-5.582,2.444c-0.083,0.034-0.167,0.069-0.249,0.104
			c-7.715,3.152-17.691-3.087-22.279-13.936C3.425,55.316,5.854,44.096,13.373,40.801z"/>
	</g>
	<g>
		<path d="M19.203,38.252c7.716-3.151,17.687,3.087,22.281,13.937c4.591,10.85,2.058,22.201-5.651,25.359
			c-7.717,3.145-17.695-3.093-22.285-13.942C8.957,52.76,11.487,41.409,19.203,38.252z"/>
	</g>
	<g>
		<path d="M21.089,40.214c6.78-2.815,15.586,2.637,19.676,12.168c4.093,9.53,1.916,19.535-4.866,22.342
			c-6.772,2.814-15.584-2.632-19.672-12.168C12.138,53.025,14.313,43.023,21.089,40.214z"/>
	</g>
	<g>
		<path d="M21.177,40.175c-6.79,2.775-9.018,12.762-4.979,22.319c4.046,9.551,12.827,15.048,19.616,12.267
			c6.792-2.771,9.021-12.764,4.978-22.317C36.75,42.892,27.968,37.396,21.177,40.175z"/>
		<path d="M43.298,61.29c-0.062-1.196-0.161-1.857-0.328-2.959c-0.001-0.009-0.212-1.374-0.697-3.022
			c-0.273-0.916-0.706-2.135-1.082-3.018c-0.624-1.48-1.226-2.544-1.424-2.895c-0.642-1.141-1.124-1.822-1.683-2.608
			c-0.032-0.047-0.813-1.152-1.986-2.397c-0.678-0.722-1.424-1.421-2.165-2.026c-2.291-1.868-4.204-2.655-4.835-2.909
			c-0.598-0.243-1.424-0.521-2.055-0.667c-0.449-0.1-1.054-0.214-1.509-0.281c-0.292-0.043-0.683-0.082-0.975-0.084
			c-0.479-0.008-1.106,0-1.579,0.021c-0.276,0.018-0.639,0.067-0.908,0.114c-0.483,0.082-1.118,0.249-1.587,0.38
			c-0.254,0.067-0.586,0.21-0.837,0.304c-0.095,0.041-0.219,0.09-0.32,0.134C12.24,42.535,9.96,53.156,14.26,63.318
			c4.354,10.297,13.827,16.217,21.147,13.226c0.438-0.195,1.031-0.453,1.433-0.71c0.231-0.151,0.542-0.333,0.76-0.494
			c0.376-0.28,0.886-0.664,1.225-1c0.307-0.301,0.71-0.728,0.999-1.066c0.188-0.213,0.424-0.523,0.588-0.761
			c0.535-0.742,0.943-1.497,1.244-2.122c0.175-0.377,0.399-0.883,0.532-1.271c0.226-0.667,0.486-1.564,0.658-2.245
			c0.108-0.428,0.199-1.006,0.262-1.442c0.058-0.379,0.104-0.896,0.143-1.274C43.251,64.146,43.375,62.9,43.298,61.29z
			 M35.814,74.761c-6.789,2.781-15.569-2.716-19.616-12.267c-4.039-9.557-1.811-19.544,4.979-22.319
			c6.791-2.78,15.573,2.716,19.615,12.268C44.835,61.997,42.606,71.989,35.814,74.761z"/>
	</g>
	<path d="M45.618,50.197c-2.517-5.95-7.988-9.37-12.217-7.645c-4.228,1.728-5.617,7.956-3.097,13.905
		c2.514,5.947,7.985,9.367,12.215,7.643C46.746,62.365,48.135,56.145,45.618,50.197z"/>
	<g>
		<path d="M45.618,50.197c-2.517-5.95-7.988-9.37-12.217-7.645c-4.228,1.728-5.617,7.956-3.097,13.905
			c2.514,5.947,7.985,9.367,12.215,7.643C46.746,62.365,48.135,56.145,45.618,50.197z"/>
		<path d="M79.212,36.088C69.898,14.083,49.659,1.422,34.011,7.818c-15.645,6.397-20.782,29.419-11.466,51.434
			c9.308,22.011,29.545,34.664,45.198,28.271C83.391,81.126,88.523,58.101,79.212,36.088z M30.303,56.457
			c-2.52-5.949-1.13-12.177,3.097-13.905c4.229-1.725,9.7,1.695,12.217,7.645c2.517,5.947,1.128,12.168-3.099,13.902
			C38.288,65.824,32.817,62.404,30.303,56.457z"/>
	</g>
	<g>
		<polygon points="44.83,62.77 76.063,82.538 76.063,82.535 		"/>
		<path d="M46.075,50.721c-0.073-0.188-0.149-0.377-0.228-0.567c-0.251-0.596-0.538-1.167-0.844-1.713
			c-0.232-0.415-0.483-0.81-0.744-1.19c-0.212-0.313-0.438-0.614-0.664-0.901c-0.203-0.254-0.41-0.494-0.62-0.725
			c-0.19-0.21-0.389-0.412-0.589-0.611c-0.183-0.175-0.373-0.351-0.564-0.517c-0.183-0.158-0.366-0.31-0.552-0.451
			c-0.179-0.14-0.356-0.266-0.541-0.395c-0.176-0.123-0.35-0.236-0.529-0.339c-0.177-0.111-0.354-0.216-0.531-0.307
			c-0.173-0.094-0.347-0.178-0.521-0.257c-0.173-0.082-0.345-0.155-0.516-0.225c-0.171-0.062-0.343-0.123-0.515-0.179
			c-0.171-0.055-0.34-0.108-0.513-0.146c-0.167-0.041-0.34-0.082-0.508-0.11c-0.171-0.033-0.339-0.056-0.506-0.076
			c-0.168-0.015-0.331-0.029-0.499-0.035c-0.164-0.006-0.329-0.012-0.485,0c-0.161,0-0.318,0.018-0.479,0.029
			c-0.158,0.021-0.312,0.044-0.462,0.076c-0.152,0.026-0.304,0.062-0.455,0.099c-0.143,0.044-0.284,0.079-0.428,0.132
			c-0.101,0.035-0.2,0.073-0.298,0.114c-0.037,0.014-0.079,0.032-0.12,0.053c-0.131,0.055-0.268,0.117-0.391,0.184
			c-0.125,0.07-0.248,0.134-0.37,0.208c-0.117,0.076-0.234,0.155-0.348,0.233c-0.111,0.076-0.216,0.161-0.32,0.246
			c-0.106,0.088-0.209,0.178-0.307,0.266c-0.097,0.096-0.198,0.195-0.29,0.289c-0.089,0.1-0.184,0.205-0.271,0.307
			c-0.087,0.108-0.174,0.213-0.255,0.328c-0.083,0.117-0.164,0.23-0.243,0.348c-0.077,0.117-0.153,0.243-0.227,0.368
			c-0.073,0.129-0.144,0.258-0.21,0.392c-0.068,0.134-0.135,0.278-0.199,0.421c-0.06,0.146-0.123,0.292-0.183,0.447
			c-0.059,0.155-0.113,0.319-0.165,0.479c-0.051,0.172-0.103,0.345-0.149,0.52c-0.048,0.185-0.087,0.375-0.126,0.568
			c-0.045,0.201-0.078,0.403-0.108,0.617c-0.031,0.225-0.06,0.452-0.079,0.687c-0.02,0.26-0.035,0.521-0.042,0.792
			c-0.008,0.304-0.001,0.617,0.013,0.938c0.018,0.412,0.055,0.837,0.115,1.264c0.18,1.345,0.557,2.73,1.137,4.104
			c0.203,0.471,0.421,0.933,0.653,1.374c0.214,0.397,0.438,0.778,0.676,1.146c0.178,0.274,0.365,0.546,0.554,0.801
			c0.167,0.23,0.342,0.45,0.517,0.664c0.157,0.189,0.312,0.373,0.474,0.549c0.15,0.167,0.302,0.327,0.456,0.478
			c0.147,0.148,0.296,0.291,0.448,0.429c0.139,0.129,0.287,0.258,0.432,0.383c0.136,0.112,0.276,0.223,0.417,0.325
			c0.137,0.11,0.275,0.216,0.418,0.308c0.133,0.093,0.269,0.188,0.407,0.271c0.131,0.088,0.265,0.17,0.4,0.243
			c0.132,0.078,0.267,0.152,0.396,0.226c0.132,0.067,0.262,0.128,0.393,0.189c0.127,0.062,0.259,0.116,0.391,0.169
			c0.127,0.06,0.256,0.109,0.382,0.152c0.129,0.047,0.251,0.085,0.383,0.13c0.126,0.037,0.253,0.075,0.377,0.107
			c0.128,0.032,0.251,0.063,0.377,0.094c0.127,0.02,0.254,0.041,0.375,0.062c0.125,0.018,0.251,0.038,0.373,0.05
			c0.127,0.011,0.248,0.021,0.374,0.025c0.122,0.01,0.247,0.015,0.371,0.015c0.123,0,0.249-0.009,0.368-0.017
			c0.125-0.006,0.25-0.018,0.373-0.033c0.126-0.015,0.249-0.04,0.375-0.058c0.123-0.024,0.249-0.044,0.371-0.079
			c0.13-0.03,0.251-0.067,0.376-0.105c0.127-0.044,0.251-0.085,0.372-0.135c0.028-0.009,0.053-0.018,0.075-0.028
			c0.104-0.042,0.209-0.088,0.311-0.138c0.124-0.06,0.25-0.123,0.367-0.193c0.13-0.067,0.254-0.149,0.375-0.228
			c0.122-0.079,0.244-0.167,0.361-0.258c0.12-0.097,0.238-0.195,0.355-0.295c0.121-0.113,0.237-0.223,0.354-0.339
			c0.114-0.135,0.23-0.258,0.34-0.396c0.113-0.137,0.226-0.286,0.331-0.436c0.111-0.157,0.219-0.327,0.32-0.5
			c0.105-0.176,0.203-0.368,0.298-0.562c0.104-0.207,0.199-0.426,0.283-0.648c0.096-0.245,0.183-0.497,0.257-0.751
			c0.085-0.293,0.161-0.588,0.224-0.895c0.07-0.348,0.125-0.714,0.165-1.082c0.049-0.459,0.073-0.927,0.07-1.403
			c-0.008-0.807-0.079-1.628-0.231-2.471C46.712,52.665,46.445,51.697,46.075,50.721z"/>
		<path d="M33.487,42.427c0.098-0.041,0.197-0.079,0.298-0.114l1.418-35.441C34.834,7,34.472,7.137,34.108,7.283
			c-0.149,0.064-0.298,0.126-0.446,0.19l-0.295,35.006C33.408,42.458,33.45,42.441,33.487,42.427z"/>
		<path d="M33.367,42.479l0.295-35.006c-0.494,0.216-0.982,0.447-1.456,0.695l0.77,34.495
			C33.099,42.596,33.235,42.535,33.367,42.479z"/>
		<path d="M32.976,42.664l-0.77-34.495c-0.462,0.243-0.914,0.5-1.356,0.772l1.757,33.93C32.728,42.798,32.851,42.734,32.976,42.664z
			"/>
		<path d="M32.606,42.871L30.85,8.941l0,0c-0.436,0.272-0.868,0.556-1.285,0.854l2.694,33.31
			C32.373,43.026,32.489,42.947,32.606,42.871z"/>
		<path d="M32.259,43.104l-2.694-33.31c-0.404,0.292-0.805,0.599-1.194,0.917l3.568,32.638
			C32.042,43.266,32.147,43.181,32.259,43.104z"/>
		<path d="M31.938,43.351l-3.568-32.638c-0.387,0.316-0.766,0.649-1.133,0.994l4.395,31.91
			C31.729,43.529,31.832,43.438,31.938,43.351z"/>
		<path d="M31.632,43.617l-4.395-31.91c-0.365,0.342-0.717,0.693-1.064,1.062l5.169,31.138
			C31.434,43.812,31.535,43.713,31.632,43.617z"/>
		<path d="M31.342,43.906l-5.169-31.138c-0.345,0.368-0.68,0.742-1.007,1.131l5.905,30.314
			C31.158,44.111,31.253,44.005,31.342,43.906z"/>
		<path d="M31.072,44.213l-5.905-30.314c-0.325,0.392-0.639,0.796-0.946,1.208l6.596,29.434
			C30.898,44.426,30.984,44.321,31.072,44.213z"/>
		<path d="M30.816,44.541L24.22,15.106c-0.308,0.421-0.604,0.848-0.894,1.29l7.247,28.492
			C30.652,44.771,30.733,44.657,30.816,44.541z"/>
		<path d="M30.573,44.888l-7.247-28.492c-0.287,0.444-0.569,0.897-0.837,1.362l7.858,27.498
			C30.42,45.131,30.496,45.005,30.573,44.888z"/>
		<path d="M30.347,45.256l-7.858-27.498c-0.271,0.474-0.532,0.953-0.778,1.45l8.426,26.44
			C30.203,45.514,30.273,45.385,30.347,45.256z"/>
		<path d="M30.136,45.648l-8.426-26.44c-0.258,0.509-0.502,1.024-0.735,1.559l8.962,25.303
			C30.001,45.926,30.068,45.783,30.136,45.648z"/>
		<path d="M29.938,46.069l-8.962-25.303c-0.237,0.538-0.458,1.087-0.672,1.651l9.452,24.099
			C29.815,46.362,29.877,46.215,29.938,46.069z"/>
		<path d="M29.755,46.517l-9.452-24.099c-0.217,0.582-0.421,1.175-0.611,1.778l9.898,22.8
			C29.642,46.835,29.696,46.671,29.755,46.517z"/>
		<path d="M29.59,46.996l-9.898-22.8c-0.203,0.634-0.387,1.271-0.555,1.933L29.44,47.516C29.487,47.341,29.539,47.168,29.59,46.996z
			"/>
		<path d="M29.44,47.516L19.137,26.128c-0.178,0.684-0.337,1.38-0.479,2.084l10.656,19.871
			C29.353,47.891,29.392,47.701,29.44,47.516z"/>
		<path d="M29.314,48.084L18.658,28.213c-0.152,0.749-0.282,1.508-0.391,2.277l10.939,18.211
			C29.237,48.487,29.27,48.285,29.314,48.084z"/>
		<path d="M29.207,48.701L18.267,30.49c-0.122,0.842-0.22,1.692-0.292,2.555l11.153,16.342
			C29.146,49.153,29.176,48.926,29.207,48.701z"/>
		<path d="M29.127,49.388L17.975,33.045c-0.081,0.967-0.133,1.941-0.154,2.935l11.265,14.2
			C29.093,49.908,29.107,49.647,29.127,49.388z"/>
		<path d="M29.085,50.18l-11.265-14.2c-0.026,1.134-0.013,2.29,0.041,3.461l11.237,11.677C29.084,50.797,29.078,50.483,29.085,50.18
			z"/>
		<path d="M29.099,51.118L17.862,39.441c0.073,1.538,0.214,3.1,0.43,4.678l10.922,8.262C29.154,51.955,29.116,51.53,29.099,51.118z"
			/>
		<path d="M30.351,56.486c-0.58-1.374-0.958-2.76-1.137-4.104L18.292,44.12c0.672,4.976,2.063,10.116,4.215,15.197
			c0.742,1.754,1.552,3.446,2.42,5.078l6.078-6.534C30.772,57.419,30.554,56.957,30.351,56.486z"/>
		<path d="M31.004,57.86l-6.078,6.534c0.782,1.462,1.613,2.874,2.488,4.232l4.266-9.62C31.443,58.639,31.218,58.258,31.004,57.86z"
			/>
		<path d="M31.68,59.007l-4.266,9.62c0.661,1.029,1.348,2.021,2.056,2.986l2.764-11.806C32.045,59.553,31.858,59.281,31.68,59.007z"
			/>
		<path d="M32.234,59.808L29.47,71.613c0.618,0.844,1.26,1.66,1.914,2.455l1.368-13.597C32.576,60.258,32.4,60.038,32.234,59.808z"
			/>
		<path d="M32.751,60.472l-1.368,13.597c0.571,0.692,1.157,1.368,1.754,2.022l0.088-15.07
			C33.063,60.845,32.908,60.661,32.751,60.472z"/>
		<path d="M33.225,61.021l-0.088,15.07c0.553,0.608,1.116,1.202,1.688,1.767l-1.144-16.359
			C33.527,61.348,33.375,61.188,33.225,61.021z"/>
		<path d="M33.681,61.498l1.144,16.359c0.54,0.541,1.088,1.072,1.645,1.575l-2.341-17.506
			C33.978,61.789,33.829,61.646,33.681,61.498z"/>
		<path d="M34.129,61.927l2.341,17.506c0.529,0.485,1.069,0.954,1.611,1.409l-3.52-18.532
			C34.416,62.185,34.269,62.056,34.129,61.927z"/>
		<path d="M34.561,62.31l3.52,18.532c0.511,0.424,1.024,0.837,1.546,1.234l-4.65-19.441C34.837,62.532,34.697,62.422,34.561,62.31z"
			/>
		<path d="M34.978,62.635l4.65,19.441c0.507,0.389,1.019,0.76,1.535,1.122l-5.766-20.256C35.252,62.851,35.115,62.745,34.978,62.635
			z"/>
		<path d="M35.396,62.942l5.766,20.256c0.497,0.354,1.003,0.685,1.511,1.015l-6.87-21C35.665,63.131,35.529,63.035,35.396,62.942z"
			/>
		<path d="M35.803,63.213l6.87,21c0.491,0.31,0.983,0.608,1.479,0.898l-7.949-21.655C36.068,63.383,35.935,63.301,35.803,63.213z"/>
		<path d="M36.204,63.456l7.949,21.655c0.49,0.283,0.985,0.549,1.479,0.809L36.6,63.682C36.47,63.608,36.335,63.534,36.204,63.456z"
			/>
		<path d="M36.6,63.682l9.032,22.238c0.477,0.251,0.961,0.488,1.444,0.717L36.993,63.871C36.862,63.81,36.732,63.749,36.6,63.682z"
			/>
		<path d="M36.993,63.871l10.083,22.766c0.476,0.222,0.959,0.438,1.441,0.634L37.384,64.04
			C37.252,63.987,37.12,63.933,36.993,63.871z"/>
		<path d="M37.384,64.04l11.134,23.23c0.471,0.199,0.949,0.38,1.421,0.556L37.766,64.192C37.64,64.149,37.511,64.1,37.384,64.04z"/>
		<path d="M37.766,64.192l12.172,23.634c0.474,0.17,0.941,0.325,1.414,0.474L38.149,64.322
			C38.018,64.277,37.895,64.239,37.766,64.192z"/>
		<path d="M38.149,64.322L51.353,88.3c0.47,0.146,0.934,0.28,1.402,0.4L38.527,64.43C38.402,64.397,38.275,64.359,38.149,64.322z"/>
		<path d="M38.527,64.43L52.755,88.7c0.465,0.12,0.933,0.231,1.396,0.325L38.904,64.523C38.778,64.493,38.655,64.462,38.527,64.43z"
			/>
		<path d="M38.904,64.523l15.248,24.502c0.463,0.093,0.924,0.185,1.387,0.251L39.279,64.585
			C39.158,64.564,39.031,64.543,38.904,64.523z"/>
		<path d="M39.279,64.585l16.259,24.691c0.464,0.073,0.92,0.135,1.383,0.182L39.652,64.635
			C39.531,64.623,39.404,64.603,39.279,64.585z"/>
		<path d="M39.652,64.635l17.269,24.823c0.458,0.05,0.918,0.078,1.374,0.103l-18.269-24.9C39.9,64.655,39.779,64.646,39.652,64.635z
			"/>
		<path d="M40.026,64.66l18.269,24.9c0.461,0.022,0.92,0.031,1.38,0.031L40.397,64.675C40.273,64.675,40.148,64.67,40.026,64.66z"/>
		<path d="M40.397,64.675l19.277,24.917c0.453-0.006,0.909-0.014,1.37-0.044l-20.279-24.89
			C40.646,64.666,40.521,64.675,40.397,64.675z"/>
		<path d="M40.766,64.658l20.279,24.89c0.457-0.029,0.916-0.069,1.372-0.125L41.139,64.625
			C41.016,64.641,40.891,64.652,40.766,64.658z"/>
		<path d="M41.139,64.625l21.278,24.798c0.461-0.06,0.921-0.129,1.38-0.211L41.513,64.567C41.388,64.585,41.265,64.61,41.139,64.625
			z"/>
		<path d="M41.513,64.567l22.284,24.645c0.458-0.087,0.924-0.187,1.379-0.298L41.884,64.488
			C41.762,64.523,41.636,64.543,41.513,64.567z"/>
		<path d="M41.884,64.488l23.292,24.426c0.469-0.117,0.927-0.249,1.39-0.397L42.26,64.383
			C42.135,64.421,42.015,64.458,41.884,64.488z"/>
		<path d="M42.26,64.383l24.305,24.134c0.465-0.146,0.932-0.313,1.388-0.495L42.632,64.248
			C42.512,64.298,42.387,64.339,42.26,64.383z"/>
		<path d="M42.707,64.22c-0.021,0.011-0.046,0.02-0.075,0.028l25.321,23.773c0.095-0.031,0.182-0.072,0.275-0.107
			c0.383-0.155,0.763-0.318,1.134-0.5L43.018,64.082C42.917,64.132,42.811,64.178,42.707,64.22z"/>
		<path d="M43.018,64.082l26.345,23.332c0.469-0.225,0.924-0.462,1.375-0.713L43.384,63.889
			C43.267,63.959,43.142,64.022,43.018,64.082z"/>
		<path d="M43.384,63.889l27.353,22.813c0.465-0.261,0.921-0.541,1.367-0.839L43.76,63.661
			C43.639,63.739,43.514,63.821,43.384,63.889z"/>
		<path d="M43.76,63.661l28.345,22.201c0.463-0.305,0.906-0.626,1.342-0.963L44.121,63.403
			C44.004,63.494,43.881,63.582,43.76,63.661z"/>
		<path d="M44.121,63.403l29.326,21.496c0.453-0.351,0.893-0.716,1.316-1.096L44.476,63.108
			C44.359,63.208,44.241,63.307,44.121,63.403z"/>
		<path d="M44.476,63.108l30.287,20.695c0.446-0.404,0.877-0.827,1.301-1.266L44.83,62.77
			C44.713,62.886,44.597,62.995,44.476,63.108z"/>
		<path d="M44.83,62.77l31.234,19.766v0.003c0.436-0.456,0.862-0.937,1.266-1.436L45.17,62.374
			C45.06,62.512,44.943,62.635,44.83,62.77z"/>
		<path d="M45.17,62.374l32.159,18.729c0.427-0.523,0.837-1.067,1.228-1.622L45.5,61.938C45.396,62.088,45.283,62.237,45.17,62.374z
			"/>
		<path d="M45.5,61.938L78.557,79.48c0.41-0.591,0.804-1.209,1.174-1.843l-33.91-16.199C45.72,61.611,45.612,61.781,45.5,61.938z"/>
		<path d="M45.821,61.438l33.91,16.199c0.394-0.672,0.762-1.367,1.112-2.084L46.119,60.877
			C46.024,61.07,45.926,61.263,45.821,61.438z"/>
		<path d="M46.119,60.877l34.724,14.677c0.375-0.775,0.726-1.573,1.044-2.397L46.401,60.229
			C46.318,60.451,46.223,60.67,46.119,60.877z"/>
		<path d="M46.401,60.229l35.485,12.928c0.357-0.903,0.673-1.833,0.953-2.795L46.658,59.478
			C46.584,59.731,46.498,59.983,46.401,60.229z"/>
		<path d="M46.658,59.478L82.84,70.361c0.318-1.064,0.594-2.166,0.819-3.292l-36.777-8.486
			C46.819,58.89,46.743,59.185,46.658,59.478z"/>
		<path d="M46.882,58.583l36.777,8.486c0.263-1.301,0.468-2.64,0.613-4.005l-37.225-5.563
			C47.008,57.869,46.952,58.235,46.882,58.583z"/>
		<path d="M47.118,56.098c0.002,0.477-0.021,0.944-0.07,1.403l37.225,5.563c0.179-1.696,0.266-3.432,0.255-5.204L47.118,56.098z"/>
		<path d="M47.118,56.098l37.41,1.763c-0.015-2.962-0.295-6.028-0.854-9.134l-36.788,4.9C47.039,54.47,47.11,55.291,47.118,56.098z"
			/>
		<path d="M46.886,53.627l36.788-4.9c-0.635-3.543-1.632-7.148-2.997-10.744L46.075,50.721
			C46.445,51.697,46.712,52.665,46.886,53.627z"/>
		<path d="M45.847,50.153c0.079,0.19,0.155,0.38,0.228,0.567l34.602-12.738c-0.269-0.701-0.546-1.403-0.848-2.099
			c-0.933-2.213-1.979-4.327-3.12-6.347L45.003,48.44C45.309,48.986,45.596,49.558,45.847,50.153z"/>
		<path d="M45.003,48.44l31.706-18.903c-0.861-1.529-1.783-3.003-2.75-4.409L44.26,47.25C44.52,47.63,44.771,48.025,45.003,48.44z"
			/>
		<path d="M44.26,47.25l29.699-22.122c-0.789-1.146-1.611-2.263-2.459-3.324L43.596,46.35C43.821,46.636,44.048,46.938,44.26,47.25z
			"/>
		<path d="M43.596,46.35L71.5,21.804c-0.748-0.93-1.509-1.827-2.289-2.678L42.976,45.625C43.187,45.856,43.393,46.096,43.596,46.35z
			"/>
		<path d="M42.976,45.625l26.235-26.499c-0.707-0.784-1.436-1.535-2.17-2.251L42.387,45.014
			C42.587,45.213,42.786,45.415,42.976,45.625z"/>
		<path d="M42.387,45.014l24.654-28.138c-0.692-0.672-1.395-1.315-2.101-1.933L41.823,44.497
			C42.015,44.663,42.204,44.838,42.387,45.014z"/>
		<path d="M41.823,44.497L64.94,14.943c-0.671-0.579-1.349-1.134-2.033-1.667l-21.636,30.77
			C41.458,44.187,41.64,44.339,41.823,44.497z"/>
		<path d="M41.271,44.046l21.636-30.77c-0.657-0.508-1.321-0.994-1.993-1.456L40.731,43.651
			C40.916,43.78,41.092,43.906,41.271,44.046z"/>
		<path d="M40.731,43.651l20.183-31.831c-0.652-0.447-1.313-0.874-1.973-1.277L40.202,43.313
			C40.381,43.415,40.555,43.529,40.731,43.651z"/>
		<path d="M40.202,43.313l18.739-32.769c-0.649-0.392-1.299-0.766-1.956-1.114L39.671,43.005
			C39.848,43.096,40.025,43.201,40.202,43.313z"/>
		<path d="M39.671,43.005L56.985,9.429c-0.638-0.339-1.274-0.658-1.918-0.953L39.151,42.748
			C39.325,42.828,39.499,42.912,39.671,43.005z"/>
		<path d="M39.151,42.748L55.067,8.477c-0.641-0.293-1.278-0.564-1.915-0.813l-14.518,34.86
			C38.806,42.593,38.978,42.667,39.151,42.748z"/>
		<path d="M38.635,42.523l14.518-34.86c-0.641-0.248-1.274-0.479-1.903-0.678L38.12,42.345C38.292,42.4,38.463,42.462,38.635,42.523
			z"/>
		<path d="M38.12,42.345L51.249,6.985c-0.634-0.205-1.263-0.377-1.896-0.541L37.607,42.198C37.78,42.237,37.949,42.29,38.12,42.345z
			"/>
		<path d="M37.607,42.198L49.354,6.444c-0.628-0.158-1.261-0.295-1.894-0.406l-10.361,36.05
			C37.267,42.117,37.44,42.158,37.607,42.198z"/>
		<path d="M37.099,42.088l10.361-36.05c-0.623-0.114-1.246-0.208-1.87-0.275l-8.997,36.249
			C36.759,42.032,36.927,42.055,37.099,42.088z"/>
		<path d="M36.593,42.012L45.59,5.763c-0.613-0.067-1.224-0.114-1.834-0.137l-7.661,36.351
			C36.262,41.982,36.425,41.997,36.593,42.012z"/>
		<path d="M36.094,41.977l7.661-36.351C43.15,5.603,42.548,5.6,41.944,5.62l-6.335,36.357C35.766,41.965,35.931,41.97,36.094,41.977
			z"/>
		<path d="M35.609,41.977L41.944,5.62c-0.59,0.024-1.179,0.067-1.763,0.132l-5.052,36.254
			C35.291,41.994,35.448,41.977,35.609,41.977z"/>
		<path d="M35.129,42.005l5.052-36.254c-0.575,0.059-1.147,0.144-1.718,0.254l-3.796,36.076
			C34.818,42.049,34.972,42.026,35.129,42.005z"/>
		<path d="M34.667,42.082l3.796-36.076c-0.555,0.102-1.11,0.228-1.664,0.374l-2.586,35.801
			C34.363,42.143,34.516,42.108,34.667,42.082z"/>
		<path d="M34.213,42.181L36.799,6.38c-0.536,0.144-1.067,0.304-1.596,0.492l-1.418,35.441C33.929,42.26,34.07,42.225,34.213,42.181
			z"/>
	</g>
	<path d="M78.253,79.796c7.832-10.178,9.074-27.464,2.012-44.167C72.99,18.442,59.063,6.947,45.852,5.766
		c-3.723-0.336-7.395,0.149-10.842,1.559c-0.188,0.21-0.375,0.347-0.556,0.415c0.315-0.12,0.733-0.283,1.049-0.389
		c0.323-0.114,0.755-0.263,1.084-0.347c0.573-0.149,1.336-0.336,1.912-0.453c0.373-0.079,0.875-0.149,1.246-0.199
		c0.537-0.079,1.523-0.167,2.412-0.184c0.45-0.009,1.049,0,1.5,0.018c0.355,0.012,0.827,0.053,1.185,0.079
		c13.193,1.178,27.103,12.658,34.371,29.825c7.061,16.686,5.818,33.948-2.008,44.114c-0.322,0.409-0.761,0.938-1.1,1.333
		c-0.228,0.257-0.547,0.594-0.789,0.842c-0.393,0.4-1.044,1.029-1.915,1.74c-0.886,0.719-1.76,1.279-1.766,1.282
		c-0.492,0.305-1.152,0.693-1.654,0.974c-0.287,0.158-0.682,0.339-0.977,0.479c-0.249,0.123-0.594,0.272-0.854,0.369
		c-0.495,0.195-1.161,0.438-1.667,0.604c-0.009,0.003-1.125,0.348-1.953,0.509c-0.503,0.097-1.185,0.204-1.695,0.277
		c-0.29,0.044-0.682,0.079-0.969,0.103c-0.294,0.021-0.684,0.047-0.976,0.053c-0.518,0.009-1.198,0.007-1.711-0.006
		c3.302,0.135,6.537-0.386,9.599-1.64C72.57,85.572,75.747,83.043,78.253,79.796z"/>
	<g>
		<path d="M82.422,34.723c-9.75-23.04-30.93-36.287-47.307-29.591c-2.922,1.193-5.491,2.935-7.686,5.127
			c-10.134,10.122-12.337,29.773-4.326,48.709c8.226,19.436,24.594,31.906,39.346,31.311c2.733-0.114,5.408-0.679,7.97-1.72
			C86.796,81.868,92.175,57.761,82.422,34.723z M57.8,88.659c-0.558-0.037-1.295-0.163-1.848-0.248
			c-0.804-0.132-1.858-0.393-2.651-0.596c-0.64-0.17-1.492-0.428-2.111-0.668c-0.787-0.306-1.86-0.684-2.62-1.055
			c-1.367-0.663-3.14-1.629-4.449-2.394c-0.807-0.475-1.821-1.209-2.582-1.755c-0.682-0.5-1.561-1.207-2.219-1.733
			c-0.751-0.605-1.696-1.474-2.393-2.135c-0.69-0.661-1.575-1.561-2.225-2.259c-2.014-2.161-3.552-4.222-4.118-5.006
			c-0.57-0.786-2.07-2.861-3.685-5.724c-1.049-1.859-2.283-4.427-3.14-6.379c-0.62-1.412-1.306-3.354-1.808-4.813
			c-0.337-0.988-0.708-2.331-0.992-3.337c-0.278-0.991-0.579-2.342-0.787-3.359c-0.199-0.968-0.409-2.274-0.566-3.251
			c-0.005-0.032-0.454-2.847-0.529-6.423c-0.021-0.977,0-2.274,0.041-3.245c0.041-0.862,0.153-2.011,0.224-2.871
			c0.08-0.944,0.297-2.198,0.465-3.131c0.137-0.774,0.373-1.804,0.564-2.569c0.234-0.9,0.604-2.088,0.905-2.977
			c0.223-0.664,0.577-1.541,0.858-2.19c0.485-1.113,1.298-2.806,2.448-4.528c0.513-0.78,1.286-1.763,1.877-2.485
			c0.334-0.409,0.842-0.912,1.2-1.298c2.102-2.096,4.559-3.759,7.349-4.908c15.667-6.403,35.93,6.273,45.255,28.305
			c9.323,22.038,4.178,45.093-11.486,51.493c-2.447,1.002-5.012,1.534-7.619,1.643C60.151,88.785,58.807,88.727,57.8,88.659z"/>
	</g>
	<g>
		<path d="M34.238,3.661c0.307,0.397,0.644,0.921,0.877,1.471C18.73,11.823,13.353,35.931,23.104,58.969
			c9.75,23.033,30.935,36.283,47.315,29.591c16.377-6.691,21.756-30.799,12.003-53.836c-9.75-23.04-30.93-36.287-47.307-29.591
			C34.881,4.582,34.545,4.059,34.238,3.661c16.995-6.949,38.967,6.794,49.085,30.696c10.115,23.909,4.537,48.914-12.458,55.86
			c-16.994,6.94-38.971-6.804-49.086-30.705C11.667,35.612,17.245,10.604,34.238,3.661z"/>
	</g>
	<g>
		<path d="M33.878,3.176l0.359,0.485c-16.993,6.943-22.571,31.951-12.458,55.852c10.115,23.901,32.092,37.646,49.086,30.705
			c16.995-6.946,22.573-31.951,12.458-55.86C73.205,10.456,51.232-3.288,34.238,3.661L33.878,3.176
			c17.205-7.025,39.458,6.891,49.696,31.089c10.238,24.195,4.59,49.516-12.612,56.55c-17.204,7.027-39.453-6.892-49.694-31.089
			C11.027,35.527,16.675,10.207,33.878,3.176z"/>
	</g>
	<g>
		<path d="M18.344,60.992c0.449,1.104,1.098,2.563,1.652,3.621c0.55,1.036,1.254,2.433,1.826,3.45
			c0.573,1.014,1.348,2.351,2.004,3.31c0.633,0.927,1.455,2.176,2.114,3.078c0.668,0.915,1.596,2.11,2.315,2.979
			c0.68,0.822,1.611,1.886,2.339,2.664c0.76,0.81,1.807,1.854,2.608,2.625c0.721,0.69,1.722,1.579,2.491,2.207
			c0.842,0.699,2.013,1.57,2.882,2.234c0.908,0.701,2.191,1.54,3.187,2.107c1.486,0.852,3.497,1.959,5.075,2.625
			c1.003,0.425,2.362,0.933,3.391,1.284c0.731,0.248,1.723,0.521,2.472,0.706c1.064,0.261,2.511,0.513,3.596,0.671
			c0.696,0.103,1.632,0.146,2.33,0.204c1.11,0.1,2.61,0.07,3.719-0.056c2.438-0.271,3.175-0.351,5.856-1.143
			c0.797-0.237,1.83-0.655,2.599-0.979c0.587-0.248,1.348-0.646,1.918-0.933c1.008-0.506,2.247-1.383,3.181-2.026
			c0.473-0.333,1.055-0.847,1.505-1.207c0.918-0.739,2.003-1.893,2.786-2.771c0.754-0.852,1.705-2.046,2.315-3.012
			c0.559-0.889,1.29-2.081,1.792-2.999c0.348-0.632,0.758-1.5,1.05-2.151c0.421-0.941,0.944-2.217,1.258-3.193
			c0.49-1.555,1.049-3.647,1.42-5.225c0.255-1.072,0.456-2.531,0.603-3.621c0.12-0.903,0.208-2.111,0.289-3.018
			c0.103-1.102,0.117-2.581,0.117-3.683c0.003-0.998-0.044-2.325-0.105-3.319c-0.067-1.116-0.205-2.604-0.342-3.717
			c-0.132-1.063-0.377-2.476-0.544-3.528c-0.05-0.304-0.514-3.098-1.807-7.387c-0.27-0.883-0.657-2.052-0.971-2.918
			c-0.406-1.12-0.971-2.613-1.441-3.709c-0.938-2.172-2.321-5.008-3.481-7.069c-1.629-2.882-2.949-4.745-4.116-6.381
			c-0.667-0.933-1.608-2.129-2.339-3.008c-0.67-0.813-1.6-1.866-2.318-2.64c-1.6-1.716-3.315-3.345-5.093-4.827
			c-1.754-1.465-3.587-2.797-5.447-3.955c-0.955-0.6-2.271-1.333-3.263-1.859c-0.719-0.377-1.689-0.842-2.437-1.152
			c-1.054-0.441-2.471-0.971-3.548-1.336c-0.684-0.23-1.613-0.482-2.313-0.655c-1.124-0.272-2.643-0.523-3.786-0.692
			c-0.638-0.094-1.494-0.161-2.143-0.185c-0.953-0.035-3.179-0.126-5.873,0.322c-0.63,0.102-1.463,0.251-2.07,0.424
			c-1.105,0.307-2.558,0.786-3.631,1.178c0.63-0.254,1.405,0.114,1.915,0.851c17.205-7.025,39.458,6.891,49.696,31.089
			c10.238,24.195,4.59,49.516-12.612,56.55c-17.204,7.027-39.453-6.892-49.694-31.089c-10.241-24.199-4.593-49.519,12.61-56.55
			c-0.51-0.737-1.285-1.105-1.915-0.851c-0.653,0.275-1.527,0.646-2.14,0.994c-1.097,0.617-2.55,1.462-3.554,2.219
			c-0.883,0.669-2.008,1.631-2.804,2.403c-0.742,0.72-1.692,1.734-2.314,2.559c-0.843,1.128-1.914,2.663-2.64,3.865
			c-0.552,0.915-1.189,2.192-1.627,3.166c-0.412,0.912-0.931,2.14-1.233,3.096c-0.523,1.62-1.124,3.815-1.51,5.472
			c-0.244,1.038-0.449,2.459-0.589,3.52c-0.134,1.021-0.291,2.392-0.326,3.427c-0.062,2.008-0.059,4.686,0.007,6.695
			c0.038,1.108,0.211,2.575,0.342,3.677c0.466,3.886,1.332,7.25,1.343,7.283c0.538,1.992,1.326,4.629,1.978,6.587
			C17.276,58.416,17.893,59.886,18.344,60.992z"/>
	</g>
	<g>
		<path d="M45.961,61.583c0.205-0.384,0.472-0.89,0.632-1.294c0.093-0.224,0.221-0.543,0.301-0.773
			c0.114-0.349,0.253-0.816,0.354-1.167c0.084-0.307,0.332-1.383,0.396-2.625c0.045-0.825,0-1.465-0.019-1.704
			c-0.042-0.629-0.115-1.032-0.213-1.597c-0.026-0.134-0.1-0.567-0.39-1.512c-0.111-0.357-0.29-0.813-0.428-1.158
			c-0.029-0.07-0.288-0.696-0.701-1.418c-0.337-0.591-0.659-1.055-0.869-1.339c-0.936-1.26-1.772-1.974-2.221-2.354
			c-0.19-0.161-1.2-1-2.529-1.669c-0.384-0.193-0.905-0.43-1.307-0.576c-0.479-0.178-1.13-0.375-1.621-0.506
			c-1.436-0.351-2.871-0.29-4.189,0.246c-4.41,1.804-5.859,8.294-3.233,14.501c2.625,6.206,8.333,9.772,12.742,7.969
			C44.082,64.026,45.195,62.962,45.961,61.583z"/>
		<path d="M33.402,42.282c1.283-0.522,2.68-0.584,4.077-0.246c0.479,0.126,1.109,0.317,1.578,0.488
			c0.392,0.143,0.896,0.371,1.272,0.559c1.284,0.646,2.265,1.455,2.463,1.621c0.446,0.374,1.259,1.069,2.167,2.287
			c0.208,0.277,0.521,0.728,0.85,1.299c0.399,0.695,0.654,1.3,0.687,1.377c0.143,0.333,0.313,0.776,0.422,1.124
			c0.286,0.908,0.361,1.331,0.389,1.47c0.11,0.547,0.159,0.944,0.219,1.554c0.025,0.26,0.083,0.898,0.048,1.716
			c-0.053,1.236-0.282,2.314-0.374,2.651c-0.098,0.359-0.236,0.826-0.358,1.178c-0.081,0.234-0.215,0.551-0.312,0.777
			c-0.172,0.403-0.446,0.903-0.664,1.28c-0.766,1.322-1.852,2.344-3.234,2.892c-4.293,1.703-9.83-1.779-12.385-7.816
			C27.673,50.41,29.086,44.05,33.402,42.282z"/>
		<path d="M33.647,42.426c1.248-0.508,2.606-0.571,3.966-0.247c0.467,0.122,1.078,0.306,1.535,0.472
			c0.382,0.139,0.872,0.358,1.238,0.541c1.239,0.622,2.191,1.402,2.398,1.574c0.443,0.368,1.232,1.045,2.112,2.219
			c0.205,0.272,0.511,0.708,0.829,1.26c0.387,0.669,0.637,1.252,0.674,1.335c0.145,0.322,0.309,0.753,0.417,1.092
			c0.279,0.873,0.356,1.284,0.387,1.427c0.114,0.529,0.153,0.921,0.224,1.51c0.034,0.28,0.103,0.92,0.078,1.729
			c-0.039,1.23-0.253,2.31-0.351,2.679c-0.097,0.365-0.237,0.832-0.362,1.187c-0.085,0.239-0.221,0.554-0.323,0.781
			c-0.182,0.406-0.468,0.896-0.697,1.269c-0.773,1.261-1.824,2.242-3.171,2.759c-4.179,1.602-9.543-1.797-12.029-7.665
			C28.048,50.39,29.426,44.159,33.647,42.426z"/>
		<path d="M33.894,42.57c1.212-0.495,2.532-0.558,3.853-0.247c0.455,0.117,1.046,0.293,1.492,0.455
			c0.372,0.134,0.846,0.347,1.203,0.524c1.195,0.598,2.117,1.348,2.333,1.525c0.44,0.362,1.204,1.023,2.058,2.153
			c0.202,0.267,0.5,0.688,0.81,1.22c0.374,0.645,0.619,1.206,0.66,1.295c0.145,0.312,0.303,0.729,0.41,1.059
			c0.271,0.836,0.352,1.238,0.386,1.385c0.118,0.512,0.15,0.896,0.23,1.466c0.042,0.301,0.123,0.94,0.106,1.739
			c-0.025,1.227-0.226,2.306-0.328,2.706c-0.095,0.372-0.236,0.84-0.366,1.197c-0.087,0.242-0.226,0.556-0.333,0.785
			c-0.191,0.408-0.49,0.886-0.729,1.255c-0.779,1.199-1.796,2.143-3.109,2.626c-4.063,1.501-9.255-1.813-11.672-7.513
			C28.424,50.368,29.766,44.269,33.894,42.57z"/>
		<path d="M34.139,42.714c1.178-0.481,2.458-0.545,3.742-0.247c0.443,0.111,1.015,0.281,1.449,0.438
			c0.362,0.13,0.821,0.333,1.169,0.506c1.152,0.572,2.043,1.294,2.268,1.478c0.437,0.356,1.176,1,2.004,2.086
			c0.199,0.261,0.489,0.668,0.789,1.18c0.362,0.618,0.602,1.158,0.647,1.253c0.145,0.302,0.298,0.705,0.405,1.025
			c0.266,0.801,0.347,1.191,0.384,1.343c0.121,0.494,0.147,0.873,0.235,1.423c0.051,0.321,0.143,0.96,0.136,1.751
			c-0.011,1.221-0.197,2.302-0.305,2.732c-0.095,0.379-0.237,0.847-0.37,1.207c-0.091,0.247-0.232,0.559-0.345,0.789
			c-0.201,0.41-0.511,0.878-0.762,1.242c-0.783,1.139-1.768,2.043-3.046,2.493c-3.949,1.401-8.968-1.831-11.315-7.36
			C28.799,50.347,30.106,44.377,34.139,42.714z"/>
		<path d="M34.385,42.858c1.142-0.468,2.384-0.533,3.629-0.248c0.431,0.107,0.983,0.27,1.406,0.42
			c0.352,0.126,0.796,0.321,1.134,0.489c1.107,0.548,1.969,1.241,2.203,1.43c0.434,0.351,1.15,0.976,1.95,2.019
			c0.196,0.255,0.478,0.649,0.769,1.141c0.349,0.592,0.583,1.111,0.633,1.212c0.145,0.291,0.294,0.682,0.398,0.992
			c0.258,0.766,0.343,1.146,0.383,1.3c0.124,0.478,0.148,0.849,0.241,1.379c0.06,0.343,0.164,0.981,0.165,1.764
			c0.002,1.215-0.169,2.296-0.283,2.759c-0.095,0.387-0.237,0.854-0.374,1.218c-0.095,0.251-0.237,0.561-0.355,0.793
			c-0.209,0.412-0.533,0.868-0.795,1.229c-0.786,1.078-1.74,1.943-2.983,2.36c-3.834,1.3-8.682-1.848-10.959-7.208
			C29.175,50.325,30.446,44.486,34.385,42.858z"/>
		<path d="M34.631,43.003c1.106-0.455,2.31-0.521,3.517-0.249c0.419,0.102,0.952,0.257,1.363,0.403
			c0.343,0.121,0.77,0.309,1.1,0.472c1.063,0.524,1.895,1.188,2.137,1.382c0.431,0.346,1.125,0.953,1.896,1.952
			c0.193,0.25,0.467,0.629,0.749,1.102c0.336,0.565,0.566,1.063,0.62,1.17c0.142,0.283,0.289,0.658,0.393,0.96
			c0.252,0.729,0.337,1.099,0.381,1.257c0.126,0.461,0.15,0.826,0.247,1.336c0.069,0.363,0.183,1.001,0.194,1.775
			c0.017,1.209-0.142,2.293-0.261,2.786c-0.095,0.393-0.237,0.859-0.378,1.227c-0.098,0.256-0.243,0.563-0.367,0.797
			c-0.219,0.414-0.552,0.86-0.827,1.216c-0.786,1.019-1.713,1.841-2.92,2.228c-3.723,1.191-8.395-1.864-10.603-7.057
			C29.55,50.305,30.786,44.596,34.631,43.003z"/>
		<path d="M34.876,43.146c1.071-0.442,2.236-0.508,3.405-0.249c0.407,0.097,0.92,0.245,1.32,0.387
			c0.332,0.117,0.745,0.297,1.065,0.454c1.018,0.5,1.821,1.135,2.072,1.334c0.427,0.34,1.097,0.93,1.842,1.885
			c0.191,0.245,0.456,0.609,0.729,1.063c0.323,0.539,0.548,1.015,0.607,1.129c0.141,0.272,0.283,0.634,0.386,0.926
			c0.244,0.693,0.333,1.052,0.38,1.216c0.127,0.443,0.15,0.801,0.251,1.292c0.079,0.383,0.204,1.021,0.224,1.787
			c0.031,1.203-0.114,2.287-0.237,2.813c-0.094,0.4-0.237,0.866-0.382,1.237c-0.101,0.259-0.248,0.565-0.377,0.801
			c-0.228,0.416-0.573,0.851-0.86,1.202c-0.784,0.96-1.685,1.741-2.858,2.096c-3.606,1.091-8.107-1.882-10.245-6.904
			C29.926,50.283,31.123,44.698,34.876,43.146z"/>
		<path d="M35.122,43.291c1.036-0.428,2.162-0.495,3.293-0.25c0.395,0.092,0.888,0.233,1.277,0.37
			c0.322,0.113,0.72,0.284,1.031,0.437c0.973,0.476,1.747,1.081,2.007,1.286c0.424,0.334,1.072,0.904,1.788,1.817
			c0.187,0.238,0.445,0.589,0.709,1.023c0.312,0.513,0.529,0.968,0.593,1.088c0.139,0.263,0.279,0.609,0.381,0.893
			c0.237,0.657,0.327,1.006,0.377,1.173c0.129,0.427,0.153,0.776,0.257,1.249c0.089,0.404,0.224,1.041,0.252,1.799
			c0.045,1.198-0.087,2.282-0.215,2.839c-0.094,0.407-0.238,0.874-0.386,1.247c-0.104,0.264-0.254,0.568-0.388,0.805
			c-0.238,0.418-0.592,0.843-0.892,1.19c-0.779,0.902-1.658,1.64-2.795,1.962c-3.492,0.989-7.821-1.898-9.89-6.753
			C30.301,50.262,31.467,44.814,35.122,43.291z"/>
		<path d="M35.368,43.436c1-0.414,2.088-0.483,3.181-0.251c0.383,0.088,0.856,0.221,1.233,0.353c0.313,0.108,0.694,0.272,0.997,0.42
			c0.929,0.453,1.673,1.028,1.941,1.238c0.42,0.329,1.045,0.881,1.734,1.75c0.184,0.232,0.436,0.569,0.689,0.983
			c0.299,0.487,0.512,0.921,0.58,1.047c0.137,0.254,0.274,0.586,0.375,0.859c0.23,0.622,0.322,0.96,0.376,1.131
			c0.13,0.41,0.158,0.752,0.263,1.205c0.099,0.426,0.244,1.063,0.281,1.812c0.06,1.192-0.06,2.277-0.192,2.865
			c-0.093,0.414-0.237,0.881-0.39,1.258c-0.108,0.267-0.259,0.57-0.399,0.809c-0.246,0.42-0.612,0.834-0.925,1.177
			c-0.773,0.846-1.631,1.54-2.733,1.829c-3.378,0.887-7.534-1.915-9.533-6.601C30.677,50.241,31.806,44.923,35.368,43.436z"/>
		<path d="M35.613,43.58c0.966-0.401,2.015-0.47,3.069-0.251c0.37,0.083,0.825,0.209,1.19,0.335c0.303,0.104,0.668,0.26,0.962,0.402
			c0.885,0.428,1.599,0.975,1.876,1.19c0.417,0.324,1.018,0.858,1.68,1.684c0.182,0.227,0.425,0.549,0.669,0.943
			c0.286,0.461,0.494,0.874,0.566,1.005c0.136,0.245,0.27,0.563,0.37,0.827c0.222,0.586,0.316,0.912,0.375,1.089
			c0.129,0.394,0.161,0.728,0.268,1.161c0.11,0.445,0.265,1.083,0.311,1.823c0.074,1.187-0.033,2.272-0.17,2.893
			c-0.093,0.421-0.237,0.887-0.394,1.268c-0.111,0.271-0.265,0.572-0.41,0.813c-0.255,0.422-0.63,0.826-0.957,1.163
			c-0.767,0.791-1.603,1.439-2.67,1.696c-3.263,0.786-7.247-1.932-9.176-6.448C31.052,50.22,32.146,45.032,35.613,43.58z"/>
		<path d="M35.859,43.724c0.931-0.388,1.94-0.458,2.957-0.251c0.358,0.077,0.793,0.197,1.147,0.318
			c0.293,0.1,0.643,0.248,0.927,0.385c0.84,0.404,1.525,0.921,1.811,1.142c0.413,0.319,0.992,0.834,1.625,1.617
			c0.179,0.221,0.413,0.529,0.649,0.904c0.272,0.436,0.475,0.826,0.553,0.964c0.133,0.236,0.264,0.538,0.364,0.793
			c0.215,0.551,0.311,0.867,0.373,1.047c0.129,0.378,0.166,0.703,0.274,1.117c0.121,0.467,0.286,1.104,0.34,1.835
			c0.089,1.184-0.006,2.269-0.147,2.92c-0.093,0.428-0.237,0.894-0.398,1.277c-0.114,0.274-0.27,0.575-0.421,0.817
			c-0.264,0.423-0.647,0.816-0.989,1.149c-0.757,0.737-1.575,1.339-2.608,1.563c-3.147,0.685-6.959-1.948-8.819-6.296
			C31.427,50.198,32.486,45.142,35.859,43.724z"/>
		<path d="M36.104,43.868c0.895-0.375,1.867-0.445,2.846-0.251c0.346,0.073,0.761,0.186,1.104,0.302
			c0.283,0.096,0.619,0.235,0.894,0.367c0.795,0.381,1.45,0.868,1.746,1.094c0.41,0.314,0.966,0.81,1.571,1.55
			c0.176,0.215,0.403,0.509,0.629,0.864c0.26,0.409,0.457,0.78,0.54,0.923c0.13,0.227,0.258,0.514,0.357,0.76
			c0.207,0.516,0.306,0.82,0.372,1.004c0.129,0.361,0.171,0.678,0.28,1.074c0.133,0.486,0.306,1.124,0.369,1.847
			c0.104,1.178,0.021,2.264-0.125,2.946c-0.093,0.435-0.238,0.9-0.402,1.287c-0.118,0.279-0.276,0.578-0.432,0.821
			c-0.274,0.426-0.665,0.811-1.022,1.138c-0.746,0.684-1.546,1.238-2.545,1.431c-3.033,0.584-6.673-1.966-8.463-6.145
			C31.803,50.178,32.823,45.244,36.104,43.868z"/>
		<path d="M36.351,44.012c0.86-0.361,1.793-0.432,2.733-0.252c0.334,0.068,0.73,0.174,1.061,0.285
			c0.274,0.091,0.593,0.224,0.859,0.35c0.75,0.355,1.376,0.815,1.681,1.046c0.406,0.309,0.94,0.786,1.517,1.483
			c0.173,0.209,0.392,0.488,0.609,0.825c0.248,0.383,0.438,0.731,0.526,0.881c0.128,0.219,0.254,0.491,0.352,0.728
			c0.199,0.48,0.3,0.773,0.37,0.961c0.128,0.345,0.176,0.653,0.285,1.031c0.146,0.507,0.327,1.145,0.399,1.858
			c0.118,1.172,0.048,2.259-0.102,2.973c-0.093,0.442-0.238,0.908-0.406,1.298c-0.121,0.282-0.282,0.58-0.443,0.824
			c-0.283,0.428-0.683,0.805-1.055,1.125c-0.734,0.632-1.519,1.139-2.482,1.298c-2.918,0.482-6.386-1.982-8.107-5.992
			C32.178,50.156,33.167,45.36,36.351,44.012z"/>
		<path d="M36.597,44.156c0.824-0.347,1.719-0.42,2.621-0.252c0.322,0.062,0.698,0.161,1.018,0.267
			c0.264,0.087,0.567,0.212,0.824,0.333c0.706,0.333,1.302,0.761,1.615,0.998c0.402,0.304,0.915,0.761,1.463,1.416
			c0.171,0.204,0.381,0.469,0.589,0.785c0.235,0.357,0.42,0.686,0.513,0.841c0.125,0.209,0.248,0.467,0.345,0.693
			c0.19,0.444,0.294,0.728,0.369,0.919c0.128,0.329,0.181,0.628,0.29,0.987c0.159,0.526,0.348,1.165,0.429,1.871
			c0.133,1.166,0.075,2.254-0.079,2.999c-0.093,0.45-0.24,0.914-0.411,1.308c-0.125,0.286-0.286,0.584-0.453,0.829
			c-0.291,0.431-0.699,0.798-1.088,1.111c-0.722,0.582-1.491,1.039-2.42,1.165c-2.803,0.382-6.099-1.999-7.75-5.84
			C32.554,50.135,33.506,45.469,36.597,44.156z"/>
		<path d="M36.842,44.301c0.79-0.334,1.646-0.407,2.509-0.254c0.311,0.059,0.667,0.15,0.976,0.251
			c0.254,0.082,0.542,0.199,0.789,0.314c0.662,0.309,1.228,0.71,1.55,0.951c0.398,0.298,0.89,0.737,1.41,1.349
			c0.168,0.198,0.37,0.45,0.569,0.746c0.222,0.331,0.402,0.639,0.5,0.799c0.123,0.201,0.243,0.443,0.339,0.661
			c0.182,0.409,0.288,0.682,0.367,0.876c0.127,0.313,0.188,0.604,0.296,0.944c0.174,0.546,0.368,1.186,0.457,1.883
			c0.148,1.161,0.101,2.25-0.058,3.026c-0.093,0.456-0.239,0.92-0.414,1.317c-0.129,0.29-0.292,0.586-0.465,0.833
			c-0.301,0.431-0.714,0.792-1.12,1.098c-0.708,0.532-1.463,0.938-2.357,1.032c-2.688,0.282-5.811-2.016-7.393-5.688
			C32.929,50.113,33.847,45.578,36.842,44.301z"/>
		<path d="M37.088,44.445c0.754-0.32,1.571-0.394,2.397-0.253c0.298,0.053,0.635,0.137,0.932,0.233
			c0.244,0.078,0.517,0.188,0.755,0.298c0.616,0.285,1.153,0.656,1.484,0.903c0.395,0.293,0.863,0.712,1.355,1.282
			c0.166,0.192,0.359,0.429,0.549,0.706c0.209,0.305,0.382,0.591,0.486,0.758c0.12,0.192,0.237,0.42,0.333,0.627
			c0.174,0.375,0.281,0.636,0.365,0.835c0.125,0.297,0.193,0.577,0.301,0.9c0.188,0.563,0.389,1.205,0.486,1.895
			c0.163,1.155,0.128,2.244-0.034,3.053c-0.093,0.462-0.239,0.927-0.418,1.328c-0.131,0.293-0.297,0.588-0.475,0.836
			c-0.31,0.435-0.73,0.789-1.153,1.085c-0.694,0.485-1.435,0.84-2.295,0.9c-2.571,0.183-5.525-2.034-7.037-5.536
			C33.305,50.092,34.187,45.688,37.088,44.445z"/>
		<path d="M37.334,44.589c0.719-0.307,1.497-0.382,2.285-0.254c0.286,0.048,0.604,0.125,0.889,0.216
			c0.234,0.074,0.491,0.176,0.72,0.281c0.572,0.262,1.08,0.603,1.42,0.854c0.391,0.289,0.838,0.688,1.301,1.215
			c0.163,0.186,0.348,0.41,0.529,0.667c0.197,0.279,0.363,0.544,0.473,0.717c0.117,0.183,0.231,0.396,0.328,0.594
			c0.164,0.338,0.274,0.59,0.363,0.792c0.124,0.281,0.199,0.552,0.306,0.856c0.205,0.584,0.411,1.227,0.516,1.906
			c0.178,1.15,0.155,2.241-0.011,3.08c-0.093,0.469-0.24,0.934-0.423,1.338c-0.135,0.297-0.303,0.591-0.486,0.841
			c-0.319,0.436-0.745,0.786-1.186,1.071c-0.679,0.439-1.406,0.74-2.231,0.768c-2.457,0.082-5.238-2.051-6.681-5.385
			C33.68,50.071,34.526,45.796,37.334,44.589z"/>
		<path d="M37.579,44.733c0.684-0.293,1.424-0.37,2.173-0.255c0.274,0.043,0.572,0.114,0.845,0.199
			c0.225,0.069,0.466,0.163,0.687,0.263c0.527,0.238,1.004,0.551,1.354,0.807c0.387,0.284,0.813,0.662,1.247,1.148
			c0.161,0.18,0.337,0.39,0.509,0.627c0.184,0.253,0.344,0.499,0.459,0.675c0.114,0.175,0.226,0.372,0.322,0.561
			c0.155,0.305,0.268,0.545,0.362,0.751c0.122,0.266,0.206,0.525,0.312,0.813c0.223,0.602,0.431,1.246,0.545,1.918
			c0.194,1.145,0.182,2.235,0.011,3.106c-0.094,0.477-0.24,0.941-0.427,1.349c-0.139,0.301-0.309,0.593-0.498,0.844
			c-0.329,0.438-0.757,0.785-1.217,1.059c-0.665,0.396-1.38,0.641-2.169,0.635c-2.342-0.017-4.951-2.067-6.324-5.232
			C34.056,50.05,34.867,45.905,37.579,44.733z"/>
		<path d="M37.825,44.878c0.648-0.28,1.349-0.357,2.061-0.255c0.262,0.038,0.541,0.102,0.803,0.182
			c0.215,0.066,0.44,0.151,0.651,0.246c0.483,0.215,0.93,0.498,1.289,0.759c0.383,0.279,0.789,0.638,1.193,1.082
			c0.158,0.173,0.326,0.37,0.489,0.587c0.171,0.228,0.324,0.452,0.446,0.635c0.111,0.166,0.22,0.349,0.316,0.527
			c0.146,0.27,0.26,0.499,0.36,0.707c0.121,0.251,0.212,0.501,0.318,0.771c0.242,0.618,0.452,1.267,0.574,1.93
			c0.209,1.138,0.207,2.23,0.034,3.134c-0.094,0.482-0.24,0.947-0.43,1.357c-0.142,0.306-0.314,0.596-0.509,0.849
			c-0.337,0.439-0.771,0.785-1.25,1.046c-0.649,0.354-1.351,0.542-2.107,0.502c-2.226-0.11-4.664-2.085-5.967-5.081
			C34.431,50.029,35.207,46.015,37.825,44.878z"/>
		<path d="M38.07,45.021c0.614-0.266,1.276-0.344,1.949-0.256c0.25,0.034,0.509,0.09,0.759,0.166
			c0.205,0.061,0.415,0.139,0.618,0.228c0.437,0.192,0.855,0.445,1.224,0.711c0.379,0.274,0.765,0.61,1.139,1.014
			c0.156,0.167,0.314,0.351,0.469,0.549c0.158,0.202,0.305,0.405,0.433,0.592c0.108,0.158,0.213,0.326,0.31,0.494
			c0.135,0.235,0.253,0.454,0.359,0.666c0.118,0.235,0.219,0.475,0.323,0.727c0.262,0.634,0.474,1.286,0.603,1.941
			c0.226,1.133,0.234,2.226,0.057,3.16c-0.094,0.49-0.24,0.954-0.435,1.368c-0.146,0.309-0.32,0.598-0.519,0.852
			c-0.348,0.441-0.785,0.788-1.283,1.033c-0.635,0.312-1.324,0.442-2.044,0.369c-2.112-0.21-4.377-2.102-5.611-4.929
			C34.807,50.008,35.546,46.124,38.07,45.021z"/>
		<path d="M43.98,58.101c-2.431,1.066-5.671-0.969-7.236-4.54c-1.563-3.574-0.858-7.328,1.572-8.395
			c2.434-1.064,5.671,0.964,7.237,4.54C47.118,53.276,46.413,57.036,43.98,58.101z"/>
	</g>
</g>
</svg>
