<?xml version="1.0" encoding="utf-8"?>
<!-- Generator: Adobe Illustrator 16.0.0, SVG Export Plug-In . SVG Version: 6.00 Build 0)  -->
<!DOCTYPE svg PUBLIC "-//W3C//DTD SVG 1.1//EN" "http://www.w3.org/Graphics/SVG/1.1/DTD/svg11.dtd">
<svg version="1.1" id="Layer_1" xmlns="http://www.w3.org/2000/svg" xmlns:xlink="http://www.w3.org/1999/xlink" x="0px" y="0px"
	 width="95px" height="95px" viewBox="0 0 95 95" enable-background="new 0 0 95 95" xml:space="preserve">
<polygon points="8.236,31.307 68.673,26.298 66.468,91.453 22.354,94.189 "/>
<polygon points="68.673,26.298 78.832,29.396 90.343,32.39 85.599,79.364 65.941,91.916 "/>
<polygon points="77.925,29.39 74.824,85.979 78.944,83.503 82.501,30.149 "/>
<path d="M62.901,25.789c0,0,8.19,0.838,15.347-2.725c7.158-3.561,9.922-9.25,9.922-9.25s4.059,3.55,6.02,9.326
	c1.028,3.024,0.594,3.418,0.594,3.418s-6.743,2.545-18.891,1.797C63.75,27.607,62.901,25.789,62.901,25.789z"/>
<g id="XMLID_1_">
	<g>
		<path d="M59.3,25.01c2.4-1.22,4.48-2.7,6.55-4.09c-0.239,0.65-0.979,1.47-2.689,2.42C62.14,23.9,60.79,24.47,59.3,25.01z"/>
		<path d="M43.93,22.57c-0.32-0.1-0.75-0.27-1.3-0.56c-1.49-0.81-4.12-2.91-5.93-6.61c-1.19-2.43-0.5-4.51,0.11-5.64
			c1.49,1.12,2.96,2.6,4.32,4.51C42.9,16.78,43.65,19.89,43.93,22.57z"/>
		<path d="M80.1,19.21c-1.55,2.46-5.689,5.86-10.83,6.72c-5.479,0.93-18.13,2.17-21.45,2.48c1.96-0.27,4.67-0.81,7.84-1.86
			c1.3-0.43,2.51-0.96,3.64-1.54c1.49-0.54,2.84-1.11,3.86-1.67c1.71-0.95,2.45-1.77,2.689-2.42c1.86-1.24,3.71-2.41,5.78-3.26
			C78.77,14.73,80.02,18.94,80.1,19.21z"/>
		<path d="M70.98,16.46c2.479-0.54,10.06-1.04,9.75,1.23c-0.061,0.43-0.28,0.95-0.631,1.52c-0.08-0.27-1.33-4.48-8.47-1.55
			c-2.07,0.85-3.92,2.02-5.78,3.26c0.44-1.14-0.609-1.8-0.609-1.8S68.51,17,70.98,16.46z"/>
		<path d="M47.78,28.42c-0.49,0.04-0.77,0.07-0.77,0.07S54,26.92,59.3,25.01c-1.13,0.58-2.34,1.11-3.64,1.54
			c-3.17,1.05-5.88,1.59-7.84,1.86C47.81,28.41,47.8,28.41,47.78,28.42z"/>
		<path d="M45.59,28.64c0,0,3.88-1.91,5.94-4.2c1.47-1.62,3.939-5.15,3.63-9.81c1.25-1.47,2.62-2.89,4.1-4.16
			c7.391-6.36,11.62-5.78,14-5.3s6.101,4.3,7.471,7.76c1.319,3.33-0.49,6.08-0.631,6.28c0.351-0.57,0.57-1.09,0.631-1.52
			c0.31-2.27-7.271-1.77-9.75-1.23c-2.471,0.54-5.74,2.66-5.74,2.66s1.05,0.66,0.609,1.8c-2.069,1.39-4.149,2.87-6.55,4.09
			c-5.3,1.91-12.29,3.48-12.29,3.48s0.28-0.03,0.77-0.07c-0.96,0.13-1.73,0.2-2.29,0.23L45.59,28.64z"/>
		<path d="M44.79,28.68l0.7-0.03C45.19,28.67,44.96,28.68,44.79,28.68z"/>
		<path d="M44.73,26.77c-0.19,0.66-0.32,1.1-0.4,1.38c-0.11-0.03-0.23-0.06-0.35-0.1c0.09-0.98,0.21-3.06-0.05-5.48
			c0.55,0.16,0.79,0.11,0.79,0.11S45.3,24.81,44.73,26.77z"/>
		<path d="M44.53,28.67l0.5-0.33c0.46,0.12,0.72,0.19,0.72,0.19S45.32,28.58,44.53,28.67z"/>
		<path d="M44.53,28.67c0.79-0.09,1.22-0.14,1.22-0.14s-0.26-0.07-0.72-0.19l2.05-1.33c0,0,3.07-6.52,8.08-12.38
			c0.31,4.66-2.16,8.19-3.63,9.81c-2.061,2.29-5.94,4.2-5.94,4.2l-0.1,0.01l-0.7,0.03l-0.3,0.01l0.02-0.02
			C44.51,28.67,44.52,28.67,44.53,28.67z"/>
		<path d="M45.03,28.34l-0.5,0.33c-0.01,0-0.02,0-0.02,0c-0.07,0.01-0.13,0.02-0.2,0.03c-0.04,0-0.09,0.01-0.14,0.01
			c0.01-0.05,0.05-0.18,0.16-0.56C44.6,28.22,44.83,28.29,45.03,28.34z"/>
		<path d="M44.31,28.7c0.07-0.01,0.13-0.02,0.2-0.03l-0.02,0.02L44.31,28.7z"/>
		<path d="M44.16,28.73l0.03,0.03c0,0-0.04-0.01-0.13-0.04c0.03,0,0.06,0,0.09-0.01c0.01,0,0.02,0,0.02,0
			C44.16,28.73,44.16,28.73,44.16,28.73z"/>
		<path d="M44.15,28.71c-0.03,0.01-0.06,0.01-0.09,0.01c-0.01,0-0.03,0-0.04-0.01H44.15z"/>
		<path d="M22.89,11.24c-0.02-0.12-0.03-0.35,0.01-0.68c0.03-0.15,0.06-0.3,0.1-0.47c0.02-0.05,0.03-0.1,0.05-0.14
			c0.27-0.72,0.93-1.61,2.46-2.42c2.34-1.22,6.91-1.06,11.3,2.23c-0.61,1.13-1.3,3.21-0.11,5.64c1.81,3.7,4.44,5.8,5.93,6.61
			c0.55,0.29,0.98,0.46,1.3,0.56c0.26,2.42,0.14,4.5,0.05,5.48c-1.72-0.47-4.52-1.27-7.74-2.28c-3.66-1.7-7.69-4.09-10.05-7.1
			c-2.75-3.5-3.52-5.95-3.33-7.78C22.86,11.05,22.88,11.17,22.89,11.24z"/>
		<path d="M44.33,28.15c-0.11,0.38-0.15,0.51-0.16,0.56c0,0-0.01,0-0.02,0h-0.13c-0.03-0.01-0.07-0.02-0.11-0.03v-0.03
			c0,0,0.03-0.22,0.07-0.6C44.1,28.09,44.22,28.12,44.33,28.15z"/>
		<path d="M44.02,28.71l-0.11,0.01v-0.04C43.95,28.69,43.99,28.7,44.02,28.71z"/>
		<path d="M43.98,28.05c-0.04,0.38-0.07,0.6-0.07,0.6v0.03c-0.93-0.28-4.12-1.27-7.67-2.91C39.46,26.78,42.26,27.58,43.98,28.05z"/>
		<path d="M36.24,25.77c3.55,1.64,6.74,2.63,7.67,2.91v0.04l0.11-0.01c0.01,0.01,0.03,0.01,0.04,0.01
			c-2.86,0.32-9.1,0.99-16.86,1.66c-10.74,0.93-27.17-1.56-27.17-1.56s2.89-2.37,4.57-4.79c3.25-4.68,2.31-10.17,2.31-10.17
			s3.94,0.67,12.85,5.45C24.25,21.73,30.83,24.05,36.24,25.77z"/>
		<path d="M36.81,9.76c-4.39-3.29-8.96-3.45-11.3-2.23c-1.53,0.81-2.19,1.7-2.46,2.42c0.01-0.04,0.02-0.07,0.03-0.11
			c0.02-0.05,0.03-0.1,0.05-0.15c0.13-0.34,0.32-0.72,0.59-1.14c0.05-0.07,0.11-0.15,0.16-0.23c0.01-0.02,0.02-0.04,0.04-0.06
			c0.27-0.35,0.57-0.67,0.87-0.97c1.99-1.98,9.79,0.39,10.35,0.69s2.28,0.85,2.28,0.85S37.12,9.17,36.81,9.76z"/>
		<path d="M44.73,26.77c0.57-1.96-0.01-4.09-0.01-4.09s-0.24,0.05-0.79-0.11c-0.28-2.68-1.03-5.79-2.8-8.3
			c-1.36-1.91-2.83-3.39-4.32-4.51c0.31-0.59,0.61-0.93,0.61-0.93s-1.72-0.55-2.28-0.85s-8.36-2.67-10.35-0.69
			c-0.3,0.3-0.6,0.62-0.87,0.97c0.79-1.1,2.16-2.44,4.52-3.9C34.81,0.43,41.26,0,41.26,0s7.45,0.82,11.91,8.45
			c1.29,2.21,1.87,4.29,1.99,6.18c-5.01,5.86-8.08,12.38-8.08,12.38l-2.05,1.33c-0.2-0.05-0.43-0.12-0.7-0.19
			C44.41,27.87,44.54,27.43,44.73,26.77z"/>
		<path d="M23.88,8.32c-0.05,0.08-0.11,0.16-0.16,0.23C23.77,8.48,23.82,8.4,23.88,8.32z"/>
		<path d="M23.13,9.69c-0.02,0.05-0.03,0.1-0.05,0.15C23.09,9.79,23.11,9.74,23.13,9.69z"/>
		<path d="M23.08,9.84c-0.01,0.04-0.02,0.07-0.03,0.11c-0.01,0.01-0.02,0.02-0.02,0.03C23.05,9.94,23.06,9.89,23.08,9.84z"/>
		<path d="M23,10.09c-0.04,0.17-0.07,0.32-0.1,0.47c-0.01,0.06-0.02,0.11-0.03,0.17C22.88,10.55,22.91,10.33,23,10.09z"/>
		<path d="M22.87,10.73c0.01-0.06,0.02-0.11,0.03-0.17c-0.04,0.33-0.03,0.56-0.01,0.68c-0.01-0.07-0.03-0.19-0.03-0.35
			C22.86,10.84,22.86,10.79,22.87,10.73z"/>
	</g>
	<g>
	</g>
</g>
<polygon points="44.424,28.569 46.962,92.464 42.186,92.669 37.533,29.53 "/>
</svg>
