<?xml version="1.0" encoding="utf-8"?>
<!-- Generator: Adobe Illustrator 16.0.0, SVG Export Plug-In . SVG Version: 6.00 Build 0)  -->
<!DOCTYPE svg PUBLIC "-//W3C//DTD SVG 1.1//EN" "http://www.w3.org/Graphics/SVG/1.1/DTD/svg11.dtd">
<svg version="1.1" id="Layer_1" xmlns="http://www.w3.org/2000/svg" xmlns:xlink="http://www.w3.org/1999/xlink" x="0px" y="0px"
	 width="95px" height="95px" viewBox="0 0 95 95" enable-background="new 0 0 95 95" xml:space="preserve">
<g>
	<g>
		<path d="M46.633,71.833c0,0-8.791-36.974,24.978-49.474C71.611,22.359,83.775,53.178,46.633,71.833z"/>
		<path d="M46.571,71.802c0,0-6.631-27.89,18.839-37.32C65.41,34.481,74.59,57.729,46.571,71.802z"/>
		<path d="M46.583,71.768c0,0-5.1-21.447,14.491-28.7C61.074,43.067,68.131,60.947,46.583,71.768z"/>
		<path d="M46.547,71.751c0,0-3.846-16.179,10.93-21.65C57.478,50.101,62.802,63.588,46.547,71.751z"/>
	</g>
	<g>
		<path d="M46.524,71.79c0,0-36.638,11.842-46.281-22.116C0.244,49.674,31.143,34.8,46.524,71.79z"/>
		<path d="M46.489,71.854c0,0-27.634,8.937-34.911-16.682C11.579,55.172,34.888,43.953,46.489,71.854z"/>
		<path d="M46.506,71.774c0,0-21.254,6.874-26.849-12.828C19.658,58.946,37.583,50.318,46.506,71.774z"/>
		<path d="M46.484,71.815c0,0-16.032,5.183-20.252-9.679C26.232,62.137,39.754,55.628,46.484,71.815z"/>
	</g>
	<g>
		<path d="M46.587,71.833c0,0-32.125-17.77-15.064-50.622C31.523,21.211,61.975,32.488,46.587,71.833z"/>
		<path d="M46.518,71.857c0,0-24.229-13.402-11.364-38.186C35.153,33.672,58.126,42.178,46.518,71.857z"/>
		<path d="M46.541,71.803c0,0-18.635-10.308-8.74-29.366C37.801,42.437,55.466,48.977,46.541,71.803z"/>
		<path d="M46.501,71.816c0,0-14.057-7.775-6.592-22.152C39.91,49.664,53.235,54.6,46.501,71.816z"/>
	</g>
	<g>
		<path d="M46.758,72.155c0,0,15.689-36.201,48.031-25.06C94.789,47.096,85.271,80.349,46.758,72.155z"/>
		<path d="M46.732,72.093c0,0,11.835-27.31,36.23-18.906C82.962,53.187,75.783,78.273,46.732,72.093z"/>
		<path d="M46.759,72.073c0,0,9.103-21.001,27.864-14.54C74.623,57.533,69.103,76.824,46.759,72.073z"/>
		<path d="M46.744,72.032c0,0,6.867-15.839,21.016-10.964C67.76,61.068,63.597,75.621,46.744,72.032z"/>
	</g>
</g>
</svg>
