<?xml version="1.0" encoding="utf-8"?>
<!-- Generator: Adobe Illustrator 14.0.0, SVG Export Plug-In . SVG Version: 6.00 Build 43363)  -->
<!DOCTYPE svg PUBLIC "-//W3C//DTD SVG 1.1//EN" "http://www.w3.org/Graphics/SVG/1.1/DTD/svg11.dtd">
<svg version="1.1" id="Layer_1" xmlns="http://www.w3.org/2000/svg" xmlns:xlink="http://www.w3.org/1999/xlink" x="0px" y="0px"
	 width="200px" height="200px" viewBox="0 0 200 200" enable-background="new 0 0 200 200" xml:space="preserve">
<g>
	<g>
		<path fill="#6BC7B6" d="M18.206,36.695c0,0-1.484,63.353,17.854,88.678c16.946,22.191,38.256,31.586,67.685,28.645
			c29.431-2.944,52.385-16.48,65.331-28.059c12.949-11.572,17.462-24.914,18.836-30.211c1.373-5.297,1.373-10.594,1.373-10.594
			s-7.848,18.442-28.448,12.753c-20.6-5.691-36.687-31.98-43.555-41.593C110.417,46.7,94.917,26.1,78.633,20.608
			c-16.284-5.495-33.941-6.476-43.75-0.787C25.072,25.511,18.206,36.695,18.206,36.695z"/>
		<path fill="#CD1D41" d="M87.598,63.91c0,0,10.255-4.163,13.933-10.646c3.679-6.482,9.289-18.869,12.87-26.125
			c3.58-7.258,10.835-15.386,15.577-15.192c4.742,0.193,8.033,3.579,8.517,9.289c0.482,5.708-0.676,9.966-0.676,9.966
			s5.223-7.453,9.19-6.387c3.969,1.064,5.033,5.419,4.549,11.227c-0.483,5.804-1.549,7.836-1.549,7.836s5.901-5.902,9.388-4.257
			c3.484,1.646,4.065,9.678,2.419,15.677c-1.646,6-4.163,10.644-4.163,10.644s6.1-3.677,8.905-0.678
			c2.806,3.001,1.158,9.387-0.873,13.743c-2.03,4.354-5.998,7.354-5.998,7.354s3.387,2.612,2.032,7.741
			c-1.355,5.129-15.675,11.13-15.675,11.13l-0.873,0.58c0,0-0.293,3.773-3.29,5.418c-2.999,1.646-7.935,2.709-9.58,2.611
			c-1.644-0.097-2.611-1.354-2.515-2.319c0.096-0.971,0.191-1.358,0.191-1.358s-2.419,1.55-5.03,0.486
			c-2.612-1.064-1.936-3.388-1.936-3.388s-2.32,0.774-3.774-1.163c-1.452-1.933-1.162-4.062-1.162-4.062s-3.677,2.226-5.32,0.193
			c-1.645-2.033-0.097-3.677-0.097-3.677s-3.193,1.064-4.741-1.065c-1.551-2.129-0.388-3.967-0.388-3.967s-3.29,0.872-4.549-0.871
			c-1.258-1.742-0.097-4.162-0.097-4.162s-2.517,1.162-3.969-0.677c-1.45-1.838-0.288-3.483-0.288-3.483s-3.195,0.095-3.872-2.325
			c-0.678-2.418,0.772-3.677,0.772-3.677s-2.997-0.097-3.676-2.226c-0.675-2.127,0.679-3.869,0.679-3.869s-3.289-0.388-4.162-2.517
			C87.499,67.586,87.598,63.91,87.598,63.91z"/>
		<path fill="#75263B" d="M190.885,84.047c0.315-0.814-0.986-1.179-1.298-0.374c-4.905,12.656-17.38,16.235-29.132,13.561
			c2.603-3.319,3.129-7.341,0.106-10.663c4.405-4.262,7.627-10.964,8.084-17.01c0.489-6.501-4.883-6.571-9.457-4.973
			c2.819-6.001,4.332-13.66,3.57-20.07c-0.271-2.289-1.118-4.793-3.508-5.566c-2.684-0.869-5.723,1.179-8.047,3.11
			c1.607-5.218,2.303-12.311-1.245-16.417c-3.754-4.346-8.189-0.189-10.989,3.481c0.551-5.953,0.403-13.869-5.075-16.982
			c-5.9-3.355-12.688,4.05-15.839,8.015c-5.027,6.328-7.952,14.016-11.248,21.333c-2.955-3.647-6.101-7.131-9.602-10.308
			c-9.439-8.566-21.188-13.334-33.738-14.98c-16.789-2.2-37.95,1.636-44.04,19.753c-0.28,0.827,1.021,1.195,1.296,0.372
			c4.697-13.969,19.036-18.909,32.596-19.305c13.374-0.391,27.081,3.305,37.994,11.112c5.758,4.119,10.605,9.08,14.992,14.469
			c-0.021,0.044-0.04,0.092-0.06,0.136c-3.657,7.939-8.274,16.648-17.013,19.759c-0.814,0.288-0.49,1.601,0.335,1.308
			c8.92-3.175,13.845-11.307,17.792-19.882c12.446,15.732,21.365,34.749,37.551,47.173c3.92,3.009,8.504,5.324,13.263,6.719
			c-3.735,3.553-9.763,6.255-13.124,6.996c-0.317,0.068-0.469,0.35-0.508,0.648c-1.3,10.02-16.647,6.487-21.343,1.341
			c-0.59-0.646-1.562,0.291-0.978,0.932c5.209,5.714,19.624,8.878,23.244-0.176c0.638-1.599,0.293-1.464,2.124-2.009
			c1.376-0.409,2.701-0.997,3.996-1.604c2.853-1.339,5.482-3.205,7.716-5.417c0.106-0.104,0.201-0.212,0.301-0.318
			c11.353,2.867,23.404,0.405,29.593-10.579c-4.995,33.454-38.523,55.595-69.25,62.899c-15.146,3.597-31.269,4.178-46.448,0.5
			c-15.954-3.865-28.857-13.166-37.74-26.935C18.953,98.049,20.483,64.951,18.95,35.25c-0.044-0.865-1.396-0.887-1.35-0.013
			c1.679,32.55,0.276,68.367,21.26,95.573c18.527,24.018,51.852,27.352,79.625,21.432c32.893-7.009,68.878-31.319,72.427-67.474
			c0.021-0.199-0.042-0.346-0.14-0.455C190.807,84.222,190.85,84.137,190.885,84.047z M122.378,63.345
			c-4.734-6.893-9.32-13.967-14.506-20.545c2.055-4.572,3.878-9.217,5.906-13.253c3.21-6.388,8.467-15.108,16.024-16.694
			c9.097-1.912,8.154,13.897,7.54,18.783c-0.088,0.705,0.916,0.872,1.251,0.36c2.716-4.151,8.745-10.815,11.599-3.042
			c1.755,4.78,0.733,10.534-1.119,15.106c-0.27,0.665,0.653,1.082,1.115,0.675c1.984-1.75,6.042-5.689,9.11-4.333
			c2.315,1.023,2.271,4.998,2.269,7.056c-0.011,5.942-1.485,12.784-4.319,18.043c-0.331,0.615,0.288,1.225,0.903,0.945
			c2.232-1.02,6.16-2.861,8.284-0.666c1.541,1.597,0.821,4.837,0.386,6.699c-1.153,4.914-3.903,10.178-7.663,13.595
			c-0.264,0.239-0.281,0.704-0.021,0.955c3.519,3.393,2.613,6.875-0.065,9.863c-2.471-0.672-4.898-1.608-7.198-2.804
			C139.229,87.522,130.226,74.779,122.378,63.345z"/>
		<path fill="#CD1D41" d="M123.431,106.891c0,0-0.841,1.682,0.602,3.126c1.443,1.442,5.411-0.18,5.411-0.18s-0.542,2.043,1.26,3.304
			c1.803,1.263,4.63,0,4.63,0s0.601-0.541,0.419-1.921c-0.181-1.383-2.104-1.321-4.987-3.848
			C127.881,104.845,123.431,106.891,123.431,106.891z"/>
		<path fill="#4D2E57" d="M112.506,171.919c-1.911-0.414-2.558-2.32-3.113-3.988c-0.011-0.025-0.027-0.039-0.038-0.061
			c0.031-0.545-0.247-1.078-0.956-1.228c-4.653-0.985-12.555-6.379-11.847-11.848c0.223-1.722-2.481-1.735-2.701-0.028
			c-0.732,5.676,5.575,11.252,11.022,13.556c-1.214,0.97-2.313,2.065-3.35,3.244c-1.145,1.298,0.715,3.257,1.866,1.951
			c0.684-0.773,1.385-1.521,2.134-2.217c-0.131,0.692-0.208,1.394-0.142,2.128c0.16,1.713,2.865,1.766,2.702,0.028
			c-0.053-0.581,0.006-1.129,0.104-1.667c0.804,1.309,1.902,2.362,3.574,2.725C113.456,174.883,114.21,172.287,112.506,171.919z"/>
		<path fill="#23204B" d="M134.554,112.234c-1.212,0.886-5.511,1.593-3.416-2.08c0.337-0.592-0.298-1.259-0.902-0.942
			c-2.202,1.151-7.724,2.161-6.368-2.247c0.157-0.51-0.328-0.941-0.815-0.841c-2.423,0.502-5.196-0.935-3.937-3.91
			c0.253-0.597-0.507-0.996-0.974-0.778c-1.523,0.707-7.002,1.939-4.714-2.512c0.266-0.52-0.138-1.149-0.744-1.007
			c-3.031,0.709-5.582-0.499-4.151-4.127c0.202-0.511-0.36-0.926-0.816-0.84c-2.191,0.419-6.466,0.246-4.224-3.961
			c0.275-0.519-0.144-1.148-0.743-1.006c-2.675,0.633-4.663-1.262-3.72-3.912c0.182-0.511-0.347-0.934-0.816-0.84
			c-3.286-0.076-4.083-1.566-2.389-4.474c0.358-0.439,0.184-1.147-0.462-1.163c-3.351-0.082-3.764-3.022-2.021-5.235
			c0.339-0.429-0.11-1.007-0.571-1.028c-2.829-0.129-4.656-1.479-3.893-4.541c0.213-0.84-1.085-1.216-1.297-0.371
			c-0.887,3.557,0.857,5.61,4.025,6.129c-1.489,2.711-0.394,5.615,2.628,6.256c-1.384,2.748,0.06,5.839,3.251,5.832
			c-0.545,2.925,1.499,4.931,4.366,4.819c-1.071,3.347,1.664,5.162,5.079,4.938c-0.825,3.385,1.553,5.303,4.871,5.02
			c-1.023,3.467,2.434,4.555,5.646,3.689c-0.512,2.921,1.933,4.64,4.897,4.46c-0.596,3.967,3.735,4.493,7.073,3.435
			c-0.482,2.938,2.961,4.487,5.791,2.417C135.904,112.909,135.258,111.723,134.554,112.234z"/>
		<path fill="#23204B" d="M142.778,125.887c-0.85-2.11-4.727-1.648-4.268,0.885c0.037,0.204,0.254,0.448,0.469,0.479
			c0.405,0.063,0.729,0.074,1.122-0.052c0.588-0.188,0.585-0.899,0.235-1.201c0.709-0.083,1.813,0.396,1.17,1.715
			c-0.82,1.687-3.423,2.621-5.109,2.967c-0.218,0.042-0.354,0.161-0.43,0.31c-0.621,0.131-1.221,0.322-1.748,0.546
			c-0.29,0.124-0.549,0.266-0.785,0.422c0.379-1.811,0.591-4.039-0.137-5.508c0.125-0.104,0.198-0.269,0.173-0.491
			c-0.253-2.273,0.793-5.115,2.115-6.921c0.862-1.185,2.226-1.197,3.009,0.122c0.373,0.629-0.198,1.47-0.601,1.915
			c-0.351,0.392-1.153,1.09-1.258,0.271c-0.109-0.862-1.417-0.521-1.307,0.334c0.285,2.251,2.656,1.306,3.669,0.181
			c1.501-1.666,1.053-4.121-1.134-4.929c-3.713-1.372-5.804,5.094-5.868,8.276c-0.268-0.133-0.565-0.237-0.914-0.288
			c-1.879-0.284-3.94,0.881-3.803,2.94c0.085,1.264,1.516,2.8,2.61,1.444c0.541-0.67-0.388-1.651-0.933-0.978
			c-0.059,0.045-0.067,0.065-0.089,0.092c-0.119-0.125-0.183-0.36-0.219-0.493c-0.248-0.858,0.471-1.378,1.192-1.594
			c1.262-0.378,2.054,0.236,2.34,1.423c0.442,1.828-0.108,4.017-0.644,5.773c-0.014,0.042-0.009,0.074-0.014,0.111
			c-0.355,1.109-0.516,2.258-0.675,3.41c-1.348-0.73-3.144-0.602-3.966,0.837c-0.961,1.675,0.409,3.179,2.113,2.324
			c0.777-0.395,0.122-1.573-0.655-1.183c-0.526,0.264-0.447,0.011-0.322-0.396c0.204-0.675,0.91-0.781,1.496-0.636
			c1.88,0.46,1.943,2.02,0.831,3.271c-0.884,0.999-2.172,1.643-3.459,1.926c-1.82,0.401-3.694-1.061-5.276-1.765
			c-0.076-0.033-0.149-0.042-0.224-0.051c-1.556-1.277-4.556-0.786-7.009-0.278c1.29-1.363,2.242-3.112,2.563-4.873
			c0.131-0.106,0.223-0.271,0.22-0.496c-0.043-2.553,1.373-6.78,4.388-7.11c1.171-0.128,2.391,0.605,3.043,1.535
			c0.288,0.411,0.393,0.887,0.281,1.374c-0.104,0.289-0.276,0.527-0.517,0.716c-0.152,0.147-1.983,0.534-1.375-0.178
			c0.561-0.659-0.369-1.641-0.935-0.979c-1.638,1.924,0.321,3.302,2.34,2.677c2.037-0.636,2.354-3.17,1.108-4.655
			c-0.837-0.998-1.963-1.605-3.149-1.75c1.628-1.56,2.899-3.678,3.018-5.857c0.095-1.768-1.198-3.037-2.869-3.252
			c-1.494-0.193-3.057,0.844-3.261,2.361c-0.323,2.385,2.254,3.335,3.736,1.553c0.549-0.662-0.378-1.646-0.935-0.977
			c-0.587,0.705-1.533,0.9-1.479-0.366c0.016-0.36,0.263-0.705,0.546-0.906c0.592-0.423,1.435-0.421,2.067-0.093
			c0.977,0.507,0.916,1.723,0.691,2.634c-0.49,1.986-2.14,3.95-3.822,5.04c-0.14,0.09-0.214,0.209-0.261,0.335
			c-0.067,0.034-0.138,0.055-0.205,0.094c-1.544,0.903-2.61,2.551-3.206,4.336c-0.455-0.814-1.138-1.553-2.119-2.15
			c-3.743-2.272-9.921,3.288-6.296,6.698c2.031,1.914,6.634-0.534,3.757-2.82c-0.683-0.542-1.376,0.617-0.704,1.152
			c1.064,0.847-1.103,1.043-1.594,0.943c-1.866-0.389-0.943-2.998-0.14-3.891c1.201-1.33,3.528-1.654,4.913-0.477
			c1.523,1.295,1.742,3.295,1.3,5.117c-0.806,3.337-4.435,6.125-7.883,5.388c-3.238-0.693-4.123-4.901-3.917-7.65
			c0.012-0.156-0.033-0.276-0.1-0.38c-0.118-1.476-0.734-2.908-1.833-3.9c-0.448-0.406-0.909-0.708-1.374-0.938
			c1.814-0.721,3.344-1.755,4.364-3.591c0.138-0.033,0.277-0.104,0.385-0.24c1.295-1.646,3.12-2.845,5.106-3.485
			c1.133-0.367,2.318-0.342,3.386,0.192c1.148,0.668,1.36,1.652,0.64,2.956c-0.33,0.411-2.363,0.332-1.704-0.154
			c0.7-0.519-0.244-1.487-0.934-0.977c-1.452,1.071-0.381,2.613,1.143,2.798c2.251,0.271,3.664-1.612,3.21-3.74
			c-0.519-2.444-3.575-2.858-5.559-2.514c-1.747,0.303-3.419,1.28-4.799,2.496c0.166-1.476-0.208-2.964-1.7-3.661
			c-2.491-1.164-5.358,0.626-6.396,2.907c-0.941,2.072,1.747,4.791,3.087,2.427c0.43-0.756-0.724-1.461-1.154-0.703
			c-0.227,0.438-0.506,0.324-0.84-0.337c-0.156-0.426,0.188-0.97,0.383-1.315c0.457-0.801,1.285-1.474,2.144-1.79
			c1.622-0.594,3.156,0.149,3.19,1.889c0.08,3.872-3.629,5.48-6.744,6.336c-1.84,0.176-3.655,1.225-5.184,2.482
			c-0.048-0.447-0.187-0.871-0.433-1.266c0.078-0.166,0.09-0.362-0.016-0.574c-0.769-1.487-1.665-2.895-2.135-4.517
			c-0.274-0.942-0.249-1.896,0.461-2.628c0.465-0.48,1.174-0.6,1.761-0.303c0.299,0.149,1.118,1.004,0.332,1.072
			c-0.857,0.074-0.882,1.426-0.013,1.352c3.347-0.291,0.905-4.894-1.851-3.794c-3.548,1.413-2.031,5.08-0.611,7.818
			c-0.006-0.002-0.009-0.005-0.015-0.007c-2.3-0.913-4.993-0.632-5.392,2.228c-0.366,2.616,2.303,2.534,3.672,1.177
			c0.621-0.612-0.313-1.588-0.932-0.975c-1.462,1.445-1.835-0.232-0.862-1.237c1.38-1.418,4.494,0.437,4.614,2.112
			c0.235,3.239-4.412,6.932-7.384,6.93c-0.082,0-0.148,0.021-0.214,0.044c-0.183-0.104-0.346-0.22-0.55-0.309
			c-2.438-1.039-5.334-0.972-7.772,0.082c0.488-0.853,0.876-1.74,1.104-2.658c0.321-1.288,0.26-2.465-0.085-3.48
			c0.026-0.105,0.032-0.221-0.02-0.358c-0.846-2.251,1.787-3.081,3.474-2.199c0.946,0.497,1.39,1.635,0.837,2.584
			c-0.196,0.337-1.402,1.162-1.4,0.418c0.003-0.87-1.348-0.888-1.349-0.016c-0.005,1.478,1.362,2.019,2.606,1.398
			c1.647-0.821,2.173-2.669,1.305-4.275c-1.308-2.418-4.949-2.248-6.401-0.473c-0.021-0.094-0.056-0.183-0.125-0.269
			c-1.531-1.922-1.349-4.471-0.581-6.668c0.393-1.123,1.189-2.462,2.253-3.237c0.114-0.023,0.224-0.069,0.326-0.176
			c0.014-0.014,0.027-0.029,0.042-0.043c0.586-0.337,1.233-0.517,1.942-0.391c2.311,0.411,3.618,3.207,2.046,4.984
			c-0.503,0.57-1.169,0.97-1.845,1.296c-0.336,0.165-0.698,0.259-1.062,0.331c-0.501,0.099-0.262,0.057-0.154-0.194
			c0.346-0.799-0.957-1.16-1.296-0.373c-1.202,2.771,2.848,1.657,3.951,0.995c2.871-1.72,3.225-4.633,0.971-7.012
			c-0.943-0.996-1.988-1.399-3.02-1.379c1.217-1.539,2.104-3.196,2.401-4.979c0.053-0.042,0.108-0.086,0.15-0.155
			c2.042-3.212,6.676-4.189,8.916-0.638c0.109,0.172,0.198,0.358,0.263,0.549c-0.013,0.126,0.02,0.254,0.086,0.377
			c0.25,1.283-0.361,2.722-1.651,3.17c-0.457,0.158-0.945,0.228-1.427,0.259c-0.209,0.01-0.417,0.006-0.624-0.013
			c-0.905-0.053-0.23-1.094,0.031-0.826c0.607,0.627,1.582-0.308,0.977-0.933c-1.729-1.787-3.897,1.113-2.465,2.583
			c1.306,1.335,4.606,0.392,5.579-0.921c0.463-0.627,0.737-1.271,0.862-1.913c1.56,1.385,3.643,2.43,5.584,2.667
			c2.37,0.292,4.977-1.065,5.033-3.765c0.036-1.786-1.571-2.292-3.065-1.79c-1.238,0.416-1.818,1.835-0.259,2.27
			c0.656,0.184,1.019-0.563,0.748-1.014c0.019-0.007,0.028-0.01,0.049-0.015c0.31-0.105,0.635-0.127,0.951-0.053
			c0.649,0.152-0.106,1.6-0.214,1.812c-0.475,0.929-1.434,1.243-2.402,1.276c-2.342,0.08-5.095-1.673-6.551-3.471
			c-0.424-1.338-1.475-2.526-2.887-3.286c-2.653-1.429-5.671-0.362-7.634,1.654c-0.097-0.764-0.3-1.548-0.661-2.356
			c-0.169-0.379-0.369-0.723-0.586-1.037c-0.998-3.066-1.851-6.29,0.564-8.903c0.804-0.869,2.187-1.827,3.375-1.161
			c0.712,0.399,1.016,1.502,1.026,2.244c-0.042,0.456-0.186,0.874-0.43,1.259c-0.588,1.065-2.384-0.204-1.442-0.237
			c0.865-0.032,0.885-1.384,0.014-1.352c-2.576,0.093-2.202,3.83,0.466,3.751c1.296-0.036,2.127-1.34,2.552-2.396
			c0.538-1.333-0.054-2.784-0.846-3.86c-1.719-2.334-4.856-0.21-6.164,1.363c-1.859,2.234-1.695,4.932-1.034,7.546
			c-1.75-0.912-3.913-0.672-5.7,0.894c-1.861,1.631-2.678,4.647,0.016,5.847c1.712,0.76,4.079-0.044,3.375-2.235
			c-0.263-0.825-1.576-0.498-1.309,0.334c0.458,1.426-1.636,0.738-2.176,0.242c-1.974-1.818,2.654-4.626,4.26-4.31
			c0.944,0.184,1.684,0.819,2.247,1.62c0.011,0.035,0.021,0.068,0.033,0.102c0.05,0.155,0.146,0.257,0.252,0.336
			c0.538,0.926,0.864,2.004,0.971,2.915c0.344,2.862-1.925,5.461-3.766,7.358c-0.027,0.027-0.038,0.063-0.06,0.093
			c-0.729,0.501-1.386,1.175-1.909,1.946c-1.798,2.656-2.212,6.442-0.542,9.219c-0.854-0.478-1.842-0.761-2.89-0.784
			c-0.145-0.174-0.36-0.292-0.636-0.254c-3.174,0.441-6.877-0.923-7.693-4.292c-0.574-2.372,1.059-5.022,2.911-6.367
			c1.918-1.391,4.467-0.318,3.832,2.318c-0.396,1.65-4.143,2.14-2.626-0.156c0.482-0.729-0.674-1.428-1.153-0.703
			c-1.831,2.771,0.958,4.37,3.465,3.15c2.802-1.36,2.002-6.265-1.08-6.652c-3.643-0.461-6.325,3.805-6.75,6.898
			c-0.534,3.894,2.652,6.289,6.086,6.985c-2.714,1.49-5.297,4.711-2.497,7.281c3.209,2.95,9.262-3.211,4.168-3.515
			c-0.87-0.051-0.88,1.299-0.013,1.35c1.545,0.094,0.299,0.704-0.229,1.024c-0.966,0.587-2.35,0.763-3.242-0.058
			c-1.063-0.979-0.416-2.374,0.342-3.284c1.574-1.886,4.497-2.991,6.869-2.233c1.209,0.388,1.908,1.096,2.253,1.97
			c0.028,0.095,0.039,0.186,0.076,0.285c0.01,0.019,0.024,0.03,0.03,0.048c0.707,2.483-1.124,6.059-2.62,7.649
			c-1.277,1.357-2.932,2.621-4.746,3.555c-0.072,0.021-0.134,0.055-0.188,0.095c-1.168,0.583-2.397,1.01-3.631,1.253
			c1.005-0.929,1.865-2.017,2.315-3.287c0.749-2.114-1.237-3.691-3.138-3.92c-1.541-0.186-2.589,1.247-2.683,2.626
			c-0.101,1.508,1.285,1.994,2.342,1.095c0.664-0.565-0.275-1.538-0.934-0.977c-0.034,0.029-0.04,0.045-0.059,0.068
			c0-0.008,0.004-0.01,0.003-0.02c-0.024-0.265,0.041-0.541,0.152-0.779c0.522-1.118,1.927-0.592,2.649,0.006
			c1.92,1.587-2.067,4.724-3.233,5.52c-0.669,0.458-0.14,1.506,0.518,1.239c0.011,0,0.015,0.003,0.024,0.003
			c2.054,0.005,4.279-0.599,6.369-1.622c2.191-0.168,5.906-2.415,6.925,0.573c0.293,0.862-0.008,1.89-0.902,2.236
			c-0.528,0.204-1.026,0.167-1.488-0.145c-0.211-0.14-0.402-0.403-0.492-0.637c-0.104-0.271,0.166-0.146,0.418-0.129
			c0.869,0.059,0.879-1.294,0.013-1.352c-2.055-0.139-2.185,1.844-0.938,3.034c1.33,1.269,3.551,0.711,4.449-0.776
			c0.855-1.416,0.284-3.401-0.982-4.366c-1.232-0.939-2.466-0.832-3.719-0.515c0.717-0.564,1.399-1.163,2.004-1.818
			c0.148-0.016,0.266-0.067,0.356-0.149c0.114-0.014,0.23-0.05,0.34-0.138c2.605-2.076,8.342-2.729,10.284,0.609
			c0.088,0.489,0.21,0.965,0.371,1.415c0.053,2.018-1.432,4.652-3.059,5.184c-1.516,0.493-2.982-2.808-1.337-2.295
			c0.832,0.26,1.203-1.04,0.37-1.299c-2.58-0.805-2.971,1.807-1.801,3.542c2.105,3.12,5.062,0.422,6.296-1.892
			c0.227-0.423,0.392-0.857,0.522-1.294c1.529,2.223,4.078,3.631,7.058,3.923c3.179,0.312,5.948-2.59,5.293-5.751
			c-0.523-2.522-5.093-3.257-5.96-0.672c-0.62,1.849,1.963,4.057,3.292,2.155c0.5-0.716-0.658-1.414-1.153-0.704
			c-0.379,0.543-0.838-0.839-0.844-1.022c-0.041-1.113,2.276-0.545,2.73-0.299c1.579,0.859,0.316,3.26-0.522,4.105
			c-1.68,1.697-4.72,0.623-6.486-0.313c-1.599-0.845-2.664-2.301-3.193-3.958c-0.05-0.343-0.129-0.678-0.248-0.997
			c-0.065-0.358-0.113-0.719-0.128-1.088c-0.008-0.153-0.066-0.272-0.143-0.372c2.614-0.91,5.7-3.615,6.779-6.245
			c0.009-0.01,0.019-0.011,0.029-0.02c1.865-1.844,3.914-3.67,6.727-3.14c2.045,0.385,3.335,2.007,3.47,4.028
			c0.093,1.402-0.443,3.069-1.655,3.876c-0.664,0.441-1.436,0.321-2.108-0.011c-0.557-0.277-0.901-0.748-0.968-1.369
			c-0.019-0.165,0.174-1.59,0.596-0.969c0.487,0.714,1.672,0.065,1.181-0.653c-0.617-0.909-1.479-1.214-2.375-0.464
			c-1.045,0.873-0.879,2.643-0.23,3.662c1.521,2.394,4.643,1.494,5.967-0.451c0.35,1.327,0.958,2.563,1.773,3.549
			c-0.05,0.119-0.076,0.248-0.038,0.402c0.494,2.115,2.059,6.153-0.237,7.689c-0.852,0.573-3.276,0.908-3.306-0.611
			c-0.008-0.437,0.29-1.18,0.645-1.352c-0.028,0.401,0.303,0.873,0.831,0.792c0.361-0.058,0.508-0.03,0.802-0.292
			c0.231-0.209,0.258-0.551,0.124-0.815c-1.698-3.391-5.796,1.989-2.53,3.756c1.811,0.978,4.604,0.008,5.466-1.851
			c1.715,2.162,5.619,2.755,6.73-0.274c0.37-1.017,0.201-2.289-0.47-3.137c-0.798-1.015-1.985-0.347-2.574,0.476
			c-0.509,0.711,0.65,1.409,1.151,0.705c0.085-0.119,0.265-0.307,0.336-0.336c0.007,0.006,0.02,0.011,0.025,0.006
			c0.073,0.072,0.127,0.149,0.178,0.242c0.269,0.496,0.22,1.151,0.055,1.67c-0.232,0.734-0.939,1.093-1.665,1.153
			c-1.44,0.123-3.054-1.218-3.248-2.627c-0.01-0.064-0.035-0.111-0.059-0.163c0.02-1.338-0.287-2.701-0.615-4.016
			c1.524,0.942,3.449,1.161,5.666,0.139c0.108-0.049,0.21-0.116,0.317-0.172c0.036,0.003,0.066,0.014,0.105,0.007
			c1.526-0.201,3.004-0.683,4.52-0.947c0.962-0.166,1.95-0.201,2.9,0.033c0.568,0.139,0.991,0.505,1.311,0.973
			c0.385,1.206,0.065,2.114-0.958,2.721c-1.308,0.688-1.72,0.518-1.237-0.517c0.85-0.179,0.516-1.488-0.336-1.31
			c-1.791,0.376-2.412,2.1-0.749,3.173c1.872,1.212,4.829-0.877,4.857-2.93c0.004-0.281-0.014-0.541-0.045-0.783
			c1.083,0.563,2.19,1.122,3.383,1.244c1.29,0.131,2.506-0.291,3.632-0.885c1-0.53,2.077-1.443,2.662-2.515
			c0.063-0.02,0.129-0.034,0.195-0.077c1.118-0.713,2.244-1.433,3.544-1.759c0.784-0.194,1.842,0.035,1.899,1.009
			c0.031,0.531-0.984,1.825-1.225,0.87c-0.208-0.844-1.519-0.512-1.306,0.334c0.744,2.978,4.315,0.508,3.792-1.85
			c-0.309-1.393-1.974-1.95-3.218-1.724c-1.183,0.222-2.247,0.77-3.264,1.387c-0.021-0.211-0.055-0.425-0.134-0.64
			c-0.031-1.795-0.152-3.902,1.201-5.222c0.894-0.875,2.277-1.231,3.486-1.309c1.071-0.069,2.365,0.165,2.963,1.146
			c0.986,1.606-1.229,3.745-2.296,2.316c0.867-0.028,0.886-1.381,0.014-1.353c-0.479,0.016-0.709,0.045-1.18,0.146
			c-0.35,0.076-0.588,0.477-0.487,0.822c0.629,2.144,2.938,2.989,4.628,1.365c1.518-1.461,0.953-4.066-0.646-5.132
			c-0.243-0.164-0.509-0.286-0.78-0.388C141.604,130.079,143.742,128.287,142.778,125.887z"/>
		<path fill="#23204B" d="M171.574,113.169c-2.072-1.208-4.289,0.086-6.048,1.562c0.234-1.575-0.043-3.193-1.343-4.258
			c-0.012-0.011-0.026-0.013-0.035-0.021c-0.035-0.076-0.092-0.149-0.171-0.217c-0.898-0.755-1.212-3.089-1.204-4.226
			c0.004-0.928,0.548-1.489,1.404-1.758c0.406-0.127,0.76-0.022,1.108,0.185c0.165,0.117,0.293,0.265,0.39,0.443
			c0.109,0.269,0.095,0.275-0.046,0.025c-0.849-0.165-1.228,1.132-0.371,1.298c1.135,0.219,2.107-0.372,1.748-1.632
			c-0.389-1.357-1.912-1.871-3.163-1.628c-1.653,0.322-2.415,1.805-2.424,3.354c-0.006,0.938,0.195,2.327,0.65,3.443
			c-1.384,0.023-2.69,0.941-3.104,2.431c-0.397,1.443,1.226,4.009,2.348,1.956c0.419-0.762-0.732-1.467-1.151-0.704
			c0.3-0.545,0.022-0.896,0.354-1.571c0.572-1.162,2.214-0.838,2.995-0.197c1.01,0.828,0.804,2.452,0.549,3.553
			c-0.275,1.189-0.904,2.32-1.681,3.255c-1.096,1.317-2.688,1.453-4.294,1.614c-0.04,0.001-0.07,0.023-0.11,0.032
			c-1.051-0.15-2.136-0.062-2.986,0.271c-0.321,0.126-0.607,0.304-0.876,0.51c0.055-1.151-0.129-2.309-0.651-3.365
			c-0.183-0.37-0.409-0.659-0.652-0.912c-0.008-0.078-0.027-0.16-0.071-0.243c-1-1.91-2.214-4.063-1.787-6.298
			c0.229-1.199,1.351-1.949,2.56-1.707c1.044,0.209,0.646,1.728,1.04,1.885c-0.81-0.323-1.173,0.976-0.373,1.299
			c1.178,0.471,1.626-0.902,1.604-1.806c-0.038-1.602-1.221-2.735-2.778-2.78c-1.844-0.051-3.101,1.434-3.421,3.102
			c-0.364,1.922,0.413,3.873,1.29,5.629c-0.661-0.06-1.368,0.059-2.068,0.32c-1.32,0.494-3.26,1.89-2.501,3.553
			c0.621,1.366,3.112,1.917,3.561,0.132c0.213-0.845-1.085-1.22-1.297-0.373c-0.139,0.551-1.045-0.153-1.066-0.525
			c-0.028-0.482,0.665-0.927,1.002-1.144c0.703-0.456,1.744-0.831,2.591-0.641c1.218,0.28,1.618,2.123,1.687,3.133
			c0.075,1.09-0.172,2.182-0.549,3.198c-0.026,0.068-0.024,0.128-0.028,0.192c-0.503,1.176-0.529,2.332-0.59,3.544
			c-1.14-1.319-2.797-2.015-4.648-1.506c-2.357,0.65-3.382,2.913-2.359,5.066c0.825,1.741,3.107,2.382,4.064,0.452
			c0.263-0.534-0.135-1.129-0.746-1.008c-0.096,0.021-0.194,0.04-0.294,0.062c-0.394,0.078-0.525,0.397-0.479,0.705
			c-0.808,0.54-1.75-1.62-1.598-2.409c0.383-2.005,3.308-2.008,4.531-1.011c2.388,1.939,2.369,5.398,1.353,8.072
			c-1.819-1.656-5.259-2.621-7.101-0.685c-1.89,1.984,1.656,4.522,2.708,2.219c0.357-0.785-0.792-1.496-1.152-0.704
			c-0.125,0.306-0.309,0.364-0.55,0.166c-0.669-0.36,0.244-1.008,0.464-1.137c0.514-0.303,1.211-0.245,1.778-0.196
			c1.224,0.104,2.484,0.769,3.286,1.682c-0.076,0.654,0.866,1.134,1.227,0.449c1.442-2.724,1.746-5.415,0.656-8.245
			c0.002-0.008,0.008-0.01,0.009-0.018c0.271-1.623-0.104-3.352,0.598-4.878c0.687-1.491,1.684-2.706,3.431-2.799
			c1.209-0.067,2.658,0.427,3.391,1.428c0.465,0.634,0.275,1.425-0.069,2.054c-0.184,0.309-0.404,0.585-0.663,0.836
			c-0.381,0.542-0.868,0.594-1.452,0.157c0.756-0.433,0.104-1.613-0.654-1.184c-1.956,1.12-0.066,3.384,1.738,2.865
			c0.86-0.248,1.551-0.863,2.017-1.626c0.547,0.768,1.372,1.255,2.466,1.152c1.438-0.135,2.748-1.095,3.534-2.268
			c0.768-1.15,0.641-2.562-0.547-3.342c-1.466-0.962-4.162,0.939-2.259,2.141c0.661,0.416,1.282-0.461,0.879-0.984
			c0.102-0.045,0.204-0.09,0.316-0.104c0.216-0.022,0.403,0.108,0.554,0.246c0.185,0.167,0.218,0.36,0.208,0.598
			c-0.026,0.635-0.654,1.228-1.097,1.604c-0.549,0.465-1.273,0.79-1.994,0.775c-0.875-0.02-1.236-0.917-1.407-1.636
			c-0.009-0.037-0.029-0.059-0.041-0.088c0.047-0.648-0.045-1.291-0.347-1.852c-0.241-0.448-0.597-0.807-1.007-1.106
			c1.937-0.536,3.297-1.604,4.353-3.74c0.036-0.023,0.072-0.034,0.106-0.068c0.935-0.9,1.87-1.779,2.978-2.468
			c1.424-0.883,3.672-0.979,4.399,0.887c0.382,0.982-0.469,2.016-1.218,2.535c-0.354,0.244-0.757,0.392-1.189,0.392
			c-0.965,0.001-0.047-1.06-0.175-1.27c0.458,0.736,1.641,0.088,1.18-0.653c-1.142-1.841-3.523,0.614-2.719,2.132
			c1.018,1.917,3.3,1.032,4.494-0.198C174.343,116.739,173.63,114.37,171.574,113.169z"/>
		<path fill="#23204B" d="M179.283,100.512c-1.394-0.19-2.785,0.847-3.387,2.032c-0.406,0.801-0.435,1.68-0.231,2.524
			c-0.913-0.431-1.897-0.576-2.782-0.069c-1.493,0.854-2.853,2.564-2.312,4.358c0.556,1.843,2.596,1.656,3.818,0.71
			c0.27-0.209,0.283-0.734,0.021-0.955c-0.204-0.171-0.39-0.319-0.61-0.464c-0.569-0.373-1.108,0.242-0.983,0.758
			c-0.509,0.124-0.959-0.103-1.046-0.835c-0.075-0.611,0.416-1.146,0.772-1.567c0.973-1.154,1.997-1.055,3.215-0.327
			c1.688,1.008,2.71,3.321,2.242,5.258c-0.205,0.844,1.095,1.221,1.298,0.372c0.417-1.717-0.066-3.945-1.2-5.306
			c-0.071-0.083-0.159-0.175-0.237-0.26c-0.008-0.139-0.039-0.277-0.141-0.408c-1.019-1.308-1.225-3.241,0.329-4.195
			c0.575-0.354,1.268-0.371,1.853-0.051c0.288,0.154,0.544,0.412,0.629,0.729c0.043,0.162-0.123,0.768-0.151,0.741
			c-0.63-0.6-1.606,0.331-0.976,0.933c1.1,1.046,2.336,0.066,2.465-1.245C182.02,101.699,180.693,100.701,179.283,100.512z"/>
		<path fill="#CD1D41" d="M108.525,41.557l-2.103,4.446c0,0,17.25,33.239,31.916,43.096c14.666,9.857,19.596,8.957,19.596,8.957
			l1.441-1.563L108.525,41.557z"/>
		<path fill="#970D44" d="M133.215,55.489c-1.416-1.492-3.676-1.351-4.636,0.479c-0.7,1.333-0.129,3.024,1.578,2.444
			c0.815-0.278,0.492-1.589-0.334-1.309c-0.512,0.173-0.02-0.568,0.05-0.698c0.379-0.724,1.17-0.687,1.823-0.379
			c1.276,0.604,1.803,2.152,1.146,3.36c-1.446,2.667-4.691,3.058-7.326,2.273c-0.131-0.038-0.242-0.031-0.349-0.004
			c-0.97-0.509-2.071-0.741-3.188-0.777c1.605-1.625,2.12-3.615-0.163-5.688c-1.795-1.635-4.106-0.917-5.222,1.064
			c-0.878,1.562-0.214,3.542,1.783,2.557c0.784-0.386,0.126-1.565-0.652-1.183c-0.158,0.078-0.21,0.142-0.228,0.176
			c0.003-0.012,0.01-0.016,0.009-0.04c-0.011-0.271,0.126-0.569,0.24-0.808c0.271-0.56,0.744-1.066,1.332-1.289
			c1.694-0.643,3.434,1.847,2.74,3.316c-0.368,0.776-1.034,1.44-1.832,2.017c-0.007,0-0.017,0.001-0.025,0.003
			c-0.238,0.037-0.38,0.168-0.445,0.333c-1.787,1.125-4.11,1.816-5.765,2.07c-0.203,0.031-0.333,0.132-0.41,0.259
			c-0.135-0.04-0.269-0.082-0.399-0.113c-1.177-0.275-2.367-0.163-3.523,0.212c1.381-3.5,2.522-9.848-2.008-9.783
			c-2.383,0.032-5.076,2.003-4.174,4.574c0.43,1.228,2.931,3.154,3.324,0.871c0.15-0.849-1.146-1.229-1.296-0.372
			c0.23,0.128,0.218,0.125-0.037-0.007c-0.273-0.154-0.468-0.467-0.622-0.724c-0.659-1.094,0.181-1.968,1.111-2.486
			c1.446-0.805,2.978-0.73,3.413,0.999c0.601,2.38-0.369,5.712-1.59,7.777c-1.661,0.961-3.174,2.376-4.363,3.855
			c0.224-2.276-0.323-4.899-2.632-5.634c-2.486-0.789-4.895,0.886-4.836,3.538c0.055,2.42,2.727,3.78,3.427,0.989
			c0.212-0.843-1.084-1.217-1.298-0.373c-0.15,0.066-0.3,0.131-0.447,0.197c-0.557-1.049-0.425-1.946,0.4-2.69
			c1.463-1.539,3.366,0.126,3.906,1.525c0.578,1.507,0.023,3.313-0.463,4.759c-0.962,2.85-2.945,5.632-5.24,7.556
			c-0.668,0.561,0.271,1.533,0.934,0.975c0.121-0.1,0.222-0.221,0.337-0.325c0.066-0.018,0.132-0.036,0.198-0.078
			c2.262-1.483,4.811-3.609,7.655-3.53c2.586,0.073,2.89,3.357,2.011,5.11c-0.003,0.006-0.008,0.012-0.011,0.016
			c-0.139,0.095-0.236,0.245-0.268,0.449c-0.576,0.842-1.516,1.523-2.609,1.008c-1.436-0.676-0.136-2.543-0.184-1.288
			c-0.034,0.87,1.317,0.884,1.35,0.013c0.104-2.681-2.534-2.497-3.172-0.213c-0.365,1.307,0.681,2.347,1.747,2.852
			c0.893,0.418,1.875,0.18,2.678-0.337c-0.236,2.858-0.233,6.005,2.887,7.217c2.31,0.896,4.6-0.519,5.712-2.554
			c1.067-1.949,0.534-4.22-1.723-4.86c-2.541-0.723-4.823,2.783-1.939,4.004c0.802,0.339,1.164-0.962,0.373-1.296
			c-0.93-0.395-0.177-0.993,0.175-1.222c0.487-0.318,1.075-0.231,1.566,0.006c0.514,0.247,0.732,0.736,0.756,1.278
			c0.053,1.256-0.942,2.488-1.938,3.128c-1.361,0.88-2.773,0.354-3.82-0.729c-1.547-1.603-0.754-4.622-0.555-6.657
			c1.442-2.558,0.972-5.877-2.066-7.097c-1.803-0.722-3.872,0.084-5.749,1.183c0.693-1.055,1.312-2.164,1.806-3.32
			c0.179-0.016,0.351-0.107,0.465-0.321c2.149-4.074,7.562-8.985,12.253-5.924c2.417,1.575,2.019,4.414,0.263,6.276
			c-0.749,0.793-1.699,1.048-2.744,1.12c-0.405,0.017-0.802-0.027-1.195-0.132c-1.857-0.417-0.367-1.275,0.371-1.501
			c0.271,0.27,0.493,0.301,0.935,0.315c0.524,0.016,0.824-0.564,0.599-1.003c-1.847-3.603-5.439,0.286-3.6,2.739
			c0.845,1.123,2.836,0.988,4.02,0.804c0.658-0.104,1.257-0.372,1.794-0.739c-0.431,1.948-0.385,3.872,1.433,5.309
			c1.745,1.379,4.505,0.849,6.138-0.395c1.559-1.186,1.543-3.722-0.418-4.438c-1.944-0.707-4.126,1.389-2.755,3.172
			c0.531,0.691,1.501-0.251,0.979-0.933c-0.582-0.755,2.416-1.81,1.945,0.293c-0.252,1.114-1.814,1.614-2.785,1.721
			c-1.206,0.135-2.399-0.279-3.057-1.33c-1.085-1.734,0.021-4.063,0.637-5.874c0.058-0.113,0.119-0.222,0.173-0.333
			c1.211-2.605-0.274-5.051-2.438-6.406c1.526-0.392,3.432-1.162,5.025-2.182c0.04,0,0.076,0.012,0.118,0.004
			c2.648-0.411,5.588,0.435,6.464,3.243c0.37,1.187-0.188,2.937-1.464,3.286c-0.488,0.133-1.408-0.008-1.657-0.431
			c0.066-0.013,0.143-0.003,0.199-0.037c0.303-0.173,0.411-0.345,0.514-0.677c0.103-0.33-0.105-0.762-0.463-0.834
			c-0.179-0.037-0.36-0.073-0.542-0.11c-0.32-0.064-0.566,0.038-0.762,0.296c-0.94,1.255-0.208,2.409,1.069,2.966
			c1.656,0.725,3.229-0.193,4.042-1.62c0.963-1.687,0.468-3.596-0.608-5.059c2.163,0.209,4.183-0.379,5.894-1.991
			C134.86,59.577,134.988,57.357,133.215,55.489z"/>
		<path fill="#970D44" d="M161.69,75.819c-1.43-0.898-3.088-0.112-4.286,0.835c-1.341,1.065-2.201,2.312-2.778,3.799
			c-0.387-0.375-0.882-0.627-1.505-0.62c-1.198,0.013-2.903,1.56-1.729,2.664c0.636,0.594,1.613-0.338,0.977-0.934l0.084-0.012
			c0.517-0.533,1.047-0.354,1.592,0.538c0.226,0.717-0.029,1.442-0.519,1.967c-0.722,0.773-2.082,0.897-3.061,0.939
			c-2.854,0.123-4.821-1.554-6.337-3.833c-0.078-0.117-0.179-0.184-0.283-0.231c-0.014-0.087-0.052-0.165-0.095-0.24
			c1.365,0.113,2.807-0.145,3.877-0.86c1.173-0.784,2.506-2.315,2.566-3.797c0.068-1.615-1.538-2.59-3.027-2.211
			c-1.577,0.404-2.141,2.358-0.417,2.941c0.826,0.278,1.194-1.021,0.371-1.298c0-0.164,0.102-0.263,0.299-0.296
			c0.257-0.128,0.517-0.133,0.776-0.022c0.452,0.119,0.712,0.43,0.646,0.896c-0.11,0.739-0.657,1.417-1.144,1.948
			c-1.378,1.507-3.736,1.704-5.562,0.948c-0.122-0.049-0.225-0.054-0.323-0.042c-1.353-0.705-3.092-0.8-4.557-0.567
			c-1.26,0.201-2.346,0.759-3.234,1.538c0.213-1.361,0.367-2.738,0.112-4.049c0.084-0.079,0.157-0.176,0.19-0.321
			c0.516-2.235,2.685-5.522,5.361-5.063c1.022,0.176,2.062,1.05,1.175,1.967c-0.282,0.292-1.374,0.943-1.438,0.469
			c-0.116-0.862-1.424-0.521-1.309,0.332c0.354,2.626,5.557,0.291,4.251-2.483c-0.661-1.406-2.274-1.768-3.728-1.565
			c1.376-2.389,2.486-5.839-0.342-7.185c-1.228-0.584-2.719-0.131-3.369,1.051c-0.508,0.917-0.236,2.652,1.136,2.261
			c0.712-0.202,0.572-1.186-0.011-1.316c0.052-0.419,0.261-0.701,0.651-0.829c0.373-0.144,0.802-0.057,1.148,0.108
			c0.93,0.441,0.882,1.804,0.729,2.637c-0.276,1.49-1.176,2.882-2.088,4.068c-1.379,0.905-2.472,2.432-3.086,3.997
			c-1.013-1.577-3.262-1.759-4.773-0.897c-1.174,0.673-2.115,2.962-0.711,3.899c0.683,0.458,2.563,0.372,1.902-0.879
			c-0.228-0.429-0.687-0.41-0.985-0.181c-0.142-0.04-0.238-0.146-0.245-0.366c-0.066-0.689,0.482-1.17,1.001-1.467
			c1.047-0.596,2.334,0.041,2.894,0.962c1.181,1.947,0.098,4.954-0.139,7.007c0,0.008,0.004,0.015,0.004,0.023
			c-0.407,0.798-0.693,1.661-0.812,2.563c-0.354-0.248-0.748-0.42-1.202-0.457c-2.253-0.166-3.661,1.993-3.392,4.037
			c0.201,1.523,2.112,2.915,2.716,0.854c0.222-0.747-0.792-1.116-1.184-0.589c-0.051-0.099-0.121-0.188-0.15-0.3
			c-0.204-0.589-0.098-1.198,0.197-1.733c0.835-1.518,2.326-0.907,2.99,0.248c1.351,2.345-0.059,5.562-2.561,6.412
			c-0.048,0.016-0.078,0.045-0.117,0.068c-1.471,0.068-2.991,0.391-4.298,0.7c0.08-0.278,0.146-0.57,0.192-0.878
			c0.337-2.247-1.189-3.754-3.105-4.297c-0.029-0.049-0.052-0.1-0.097-0.146c-1.289-1.301-1.662-3.399-1.519-5.163
			c0.052-0.627,0.279-1.63,1.058-1.647c0.434-0.01,0.865,0.308,1.207,0.534c0.458,0.301,0.893,0.682,0.954,1.258
			c0.027,0.251-0.197,1.073-0.601,0.455c-0.472-0.727-1.657-0.078-1.182,0.653c1.128,1.735,3.032,0.762,3.135-1.095
			c0.099-1.832-2.393-3.345-4.024-3.106c-1.599,0.235-1.918,2.41-1.931,3.673c-0.016,1.464,0.363,3.078,1.164,4.365
			c-2.694,0.119-4.411,2.276-3.354,4.899c1.077,2.668,5.564,0.247,3.238-1.835c-0.645-0.579-1.623,0.352-0.978,0.933
			c0.735,0.658-0.625,1.019-1.079,0.247c-0.405-0.685-0.243-1.644,0.287-2.188c0.972-0.996,2.893-0.868,4.05-0.338
			c1.777,0.814,1.643,2.633,0.934,4.129c-0.141,0.108-0.213,0.264-0.228,0.428c-0.021,0.038-0.039,0.08-0.061,0.117
			c-1.455,2.433-5.06,2.539-7.539,2.448c-0.869-0.03-0.883,1.318-0.014,1.35c3.264,0.121,7.028-0.537,8.778-3.231
			c3.093-0.704,11.204-2.268,9.433,3.41c-0.485,1.552-2.236,2.627-3.723,2.993c-0.697,0.168-1.528,0.091-1.788-0.678
			c-0.191-0.582,0.076-1.143,0.48-1.544c0.247-0.244,1.942-0.935,1.565,0.185c-0.28,0.827,1.021,1.194,1.299,0.373
			c1.049-3.11-3.473-2.656-4.509-0.564c-1.488,2.987,2.052,4.04,4.195,3.251c-0.643,2.336,0.017,4.966,2.291,6.244
			c2.152,1.207,4.905,0.126,6.404-1.609c1.285-1.492,1.539-4.344-0.772-5.091c-1.926-0.62-5.258,1.579-2.89,3.307
			c0.705,0.515,1.401-0.643,0.704-1.151c-0.696-0.51,1.319-0.977,1.551-0.942c0.626,0.101,1.058,0.791,1.087,1.375
			c0.062,1.176-1.127,2.181-2.031,2.707c-1.218,0.717-2.651,0.738-3.831-0.043c-1.888-1.255-1.71-4.054-0.668-5.746
			c0.03-0.047,0.034-0.094,0.052-0.143c0.846-0.693,1.483-1.579,1.807-2.562c2.081,1.656,5.274,0.948,7.295-0.829
			c1.893-0.639,3.954-1.143,5.916-0.556c0.854,0.256,1.567,0.862,1.419,1.827c-0.075,0.495-0.352,0.892-0.756,1.172
			c-0.216,0.135-0.446,0.239-0.691,0.307c-0.096,0.007-0.168,0.016-0.226,0.021c0.185-0.791-1.052-1.128-1.304-0.317
			c-0.425,1.359,0.684,1.859,1.862,1.606c1.56-0.337,2.482-1.723,2.493-3.254c0.007-0.884-0.504-1.541-1.178-2.013
			c1.123-0.39,2.186-0.892,3.179-1.516c0.097,0.054,0.207,0.091,0.354,0.076c0.914-0.084,1.743,0.232,2.356,0.919
			c0.102,0.113,0.297,0.433,0.284,0.51c-0.026,0.169,0.014,0.008-0.039,0.025c-0.202,0.066-0.434,0.032-0.64,0.012
			c-0.865-0.079-0.874,1.271-0.012,1.352c1.422,0.131,2.449-0.814,1.802-2.223c-0.445-0.969-1.476-1.616-2.539-1.854
			c0.23-0.203,0.47-0.394,0.689-0.619c1.342-1.385,2.188-3.659,0.293-5.001c-1.604-1.135-3.343-0.658-4.386,0.938
			c-0.487,0.749-0.922,3.098,0.739,2.559c0.634-0.204,0.582-1.021,0.148-1.267c0.041-0.14,0.101-0.279,0.152-0.386
			c0.197-0.408,0.497-0.749,0.876-0.992c0.646-0.415,1.395-0.022,1.89,0.425c0.582,0.522,0.361,1.248,0.047,1.83
			c-1.325,2.468-4.637,3.735-7.132,4.394l-0.005,0.002c-1.346-0.3-2.797-0.145-4.173,0.194c0.071-0.146,0.143-0.296,0.2-0.45
			c0.571-1.559,0.465-3.542-0.932-4.597c-1.699-1.282-4.079,0.646-3.599,2.529c0.117,0.448,0.59,0.6,0.983,0.423
			c0.421-0.189,0.616-0.424,0.898-0.778c0.368-0.463-0.049-0.921-0.521-0.965c0.423-0.605,1.803,0.064,2.01,0.625
			c0.155,0.425,0.127,0.898,0.098,1.341c-0.062,0.947-0.488,1.787-1.142,2.453c-1.653,1.685-4.859,2.487-6.473,0.405
			c-0.026-0.565-0.155-1.144-0.41-1.724c-0.64-1.454-1.794-2.176-3.159-2.475c1.357-1.136,2.248-2.842,2.241-4.622
			c-0.001-0.724-0.197-1.613-0.565-2.417c-0.313-3.962,2.441-6.788,6.293-6.745c1.444,0.017,2.894,0.685,3.446,2.083
			c0.332,0.843,0.147,1.595-0.298,2.343c-0.253,0.376-0.546,0.712-0.884,1.011c-0.224,0.165-0.446,0.328-0.67,0.492
			c-0.56,0.437-1.041,0.338-1.453-0.228c0.016-0.006,0.029-0.003,0.045-0.01c0.03-0.014,0.064-0.027,0.095-0.04
			c0.221-0.095,0.337-0.361,0.348-0.584c0.006-0.096,0.01-0.19,0.014-0.285c0.017-0.363-0.311-0.684-0.669-0.681
			c-2.653,0.023-1.378,3.277,0.67,3.495c2.204,0.235,3.79-1.931,4.127-4.036c1.454,1.767,3.198,2.955,5.659,3.225
			c2.052,0.224,4.672-0.313,5.642-2.333c0.242-0.508,0.313-1.097,0.262-1.672c0.505-1.979,1.34-3.551,3.01-4.773
			c0.618-0.452,1.431-0.917,2.221-0.732c0.744,0.173,0.866,1.212,0.606,1.773c-0.053,0.112-0.849,1.132-0.974,0.752
			c-0.268-0.823-1.58-0.496-1.309,0.334C160.054,82.857,165.107,77.963,161.69,75.819z"/>
		<path fill="#970D44" d="M123.866,41.005c-1.044-2.609-4.179-3.435-6.266-1.618c-2.229,1.942,1.72,5.567,3.319,3.116
			c0.479-0.73-0.678-1.429-1.152-0.704c-0.496,0.185-0.897,0.072-1.203-0.333c-1.093-1.034,0.896-1.734,1.383-1.787
			c0.692-0.075,1.354,0.312,1.856,0.743c1.325,1.144,1.5,3.072,0.313,4.353c-2.985,3.22-10.172,1.176-12.017-2.299
			c-0.409-0.771-1.591-0.113-1.183,0.654c0.304,0.571,0.696,1.081,1.141,1.54c-0.023,0.128-0.019,0.266,0.053,0.41
			c0.331,0.676,0.178,3.344-0.902,3.295v-0.255c0-0.869-1.35-0.886-1.35-0.013v0.757c0,0.218,0.115,0.485,0.321,0.583
			c2.287,1.085,3.518-1.411,3.445-3.507c0.698,0.435,1.462,0.787,2.259,1.053c0.041,0.063,0.084,0.125,0.148,0.179
			c1.205,0.968,1.688,2.867,1.427,4.341c-0.14,0.79-0.618,1.423-1.371,1.712c-0.479,0.185-1.037,0.19-1.434-0.166
			c-0.218-0.194-0.302-0.507-0.297-0.506c0.82,0.292,1.19-1.009,0.372-1.298c-1.29-0.457-1.925,0.799-1.564,1.9
			c0.498,1.529,2.383,1.876,3.695,1.207c2.53-1.29,2.446-4.619,1.109-6.879c1.107,0.15,2.22,0.159,3.251-0.016
			C122.521,46.91,125.264,44.502,123.866,41.005z"/>
	</g>
	<g>
		<path fill="#FFF2DF" d="M42.604,35.735c-0.377-1.59-1.664-2.764-3.057-3.483c-0.897-0.464-1.814-0.528-2.706-0.359
			c-0.885-0.141-1.784,0.053-2.575,0.709c-2.556,1.33-3.239,4.4-2.226,6.998c1.122,2.872,4.326,4.012,7.124,2.919
			C41.834,41.479,43.254,38.464,42.604,35.735z M34.141,34.338c0.073,0.01,0.147,0.002,0.22-0.022
			c0.113,0.004,0.231-0.012,0.356-0.088c0.759-0.462,1.488-0.792,2.217-0.929c0.246,0.058,0.489,0.143,0.72,0.263
			c-0.07,0.161-0.069,0.349,0.073,0.55c0.102,0.143,0.187,0.285,0.267,0.431c0.523,1.014,0.544,2.329-0.275,3.197
			c-0.705,0.748-1.908,0.334-2.54-0.255c-0.669-0.62-0.902-1.621-1.008-2.487c-0.023-0.185-0.132-0.314-0.275-0.395
			C33.977,34.513,34.05,34.421,34.141,34.338z"/>
		<path fill="#4D2E57" d="M38.014,33.88c-0.989-0.979-2.674-1.14-3.866-0.456c-0.773,0.443-1.097,1.104-1.117,1.803
			c-0.002,0.015-0.002,0.032-0.004,0.046c-0.001,0.041-0.006,0.082-0.005,0.123c-0.001,0.036-0.006,0.073-0.002,0.11
			c0.125,1.181,0.505,2.234,1.254,3.166c0.792,0.985,2.282,1.236,3.242,0.351C38.842,37.803,39.404,35.254,38.014,33.88z"/>
	</g>
	<path fill="#4D2E57" d="M21.196,35.167c0.006-0.3-0.113-0.61-0.42-0.886c-2.349-2.116-5.114-3.662-7.65-5.531
		c-1.261-0.931-2.707,1.002-1.681,2.087c1.259,1.329,2.104,2.982,3.157,4.454c-2.146,0.833-4.245,1.774-6.498,2.305
		c-1.46,0.346-1.231,2.789,0.319,2.66c3.34-0.278,6.684-0.296,10.034-0.296c0.044,0,0.087-0.022,0.132-0.029
		c0.474-0.029,0.824-0.25,1.095-0.563c0.001-0.001,0.002-0.003,0.002-0.004c0.3-0.35,0.506-0.81,0.673-1.251
		c0.163-0.433,0.274-0.883,0.407-1.327c0.059-0.195,0.123-0.373,0.183-0.546c0.091-0.229,0.184-0.458,0.253-0.696
		C21.245,35.4,21.23,35.278,21.196,35.167z"/>
	<path fill="#4D2E57" d="M94.518,177.243c-0.938-1.648-0.656-3.541-0.107-5.274c0.289-0.921-0.378-1.539-1.119-1.644
		c-5.02-3.708-7.493-9.132-8.673-15.131c-0.336-1.709-2.954-1.038-2.617,0.667c1.273,6.459,4.058,12.122,9.216,16.225
		c-0.072,0.037-0.142,0.059-0.211,0.102c-1.696-0.03-3.347,0.27-5.082,0.31c-1.735,0.039-1.775,2.739-0.03,2.7
		c0.791-0.019,1.582-0.117,2.371-0.212c-0.551,0.888-0.93,1.831-1.004,2.675c-0.156,1.731,2.545,1.752,2.7,0.025
		c0.041-0.457,0.644-1.439,1.294-2.212c0.08,1.064,0.35,2.109,0.9,3.079C93.018,180.065,95.382,178.759,94.518,177.243z"/>
	<path fill="#23204B" d="M48.152,67.734c-2.117-1.613-7.339-0.84-7.55,2.431c-0.168,2.583,3.064,3.178,4.544,1.464
		c0.565-0.655-0.365-1.636-0.934-0.977c-0.578,0.672-1.829,1.08-2.257-0.039c-0.488-1.285,2.164-2.217,2.942-2.403
		c2.897-0.699,3.998,2.65,2.97,4.782c-1.354,2.809-5.585,4.205-8.4,3.116c-0.169-0.066-0.312-0.05-0.435,0.001
		c-1.724-0.856-3.769-1.292-5.676-1.454c1.045-1.462,1.528-3.494,0.278-4.697c-1.282-1.236-3.745-1.004-5.196-0.234
		c-2.345,1.245,0.22,2.923,1.585,3.361c0.83,0.269,1.2-1.031,0.372-1.296c-0.973-0.313-2.215-0.619-0.807-1.099
		c0.955-0.326,2.191-0.364,3.063,0.199c1.739,1.123-1.423,4.086-2.374,4.388c-2.452,0.779-5.727-0.885-7.036-2.951
		c-0.464-0.732-1.649-0.083-1.183,0.654c0.827,1.305,2.112,2.338,3.564,2.998c0.017,0.079,0.048,0.161,0.108,0.244
		c1.205,1.688,2.614,3.292,3.312,5.275c0.386,1.098,0.096,4.279-1.624,4.314c-0.749,0.016-1.33-0.99-1.604-1.554
		c-0.472-0.964-0.335-1.156,0.587-0.661c0.765,0.415,1.47-0.738,0.704-1.153c-1.152-0.62-2.733-0.804-2.864,0.894
		c-0.106,1.363,1.032,2.959,2.189,3.564c1.701,0.89,3.095-0.662,3.709-2.113c1.297-3.059-0.65-5.737-2.444-8.156
		c1.306,0.222,2.648,0.122,3.865-0.406c0.177-0.077,0.348-0.181,0.521-0.297c2.906,0.093,8.708,0.964,9.094,4.394
		c0.29,2.577-2.442,4.386-4.685,4.524c-1.41,0.085-2.654-0.979-2.317-2.464c0.373-1.629,2.37-1.184,2.725,0.156
		c0.223,0.842,1.534,0.513,1.308-0.332c-0.362-1.37-1.302-2.316-2.778-2.236c-1.297,0.067-2.547,1.209-2.646,2.521
		c-0.322,4.198,4.593,4.204,7.187,2.611c2.552-1.57,3.292-5.034,1.391-7.257c2.255,0.051,4.55-0.936,6.242-2.373
		C49.743,73.655,50.704,69.675,48.152,67.734z"/>
	<path fill="#23204B" d="M73.336,84.568c-2.419-0.43-4.508,1.514-4.72,3.822c-0.214,2.341,2.012,2.519,3.422,1.32
		c0.663-0.565-0.273-1.538-0.934-0.977c-1.433,1.22-1.192-0.732-0.749-1.546c1.116-2.051,4.182-1.531,4.83,0.598
		c1.298,4.261-7.239,6.253-9.854,6.351c-0.228,0.009-0.395,0.111-0.503,0.253c-1.338,0.112-2.7,0.676-3.92,1.485
		c1.551-3.4,2.247-7.057-0.7-7.805c-3.046-0.775-5.973,2.033-5.238,5.006c0.614,2.481,3.474,3.515,4.4,0.716
		c0.275-0.829-1.024-1.198-1.296-0.372c-0.519,1.56-1.473,0.222-1.794-0.675c-0.567-1.577,0.614-2.727,2.019-3.179
		c2.298-0.739,2.691,0.786,2.304,2.699c-0.395,1.957-1.313,4.316-2.565,6.257c-0.195,0.249-0.367,0.501-0.527,0.752
		c-0.353,0.477-0.719,0.928-1.11,1.311c-2.528,0.761-4.219,4.086-5.208,6.867c-1.612-2.431-7.221-3.069-7.42,0.6
		c-0.135,2.485,3.738,6.013,4.798,2.37c0.242-0.836-1.056-1.209-1.299-0.373c-0.414,1.428-1.636-0.236-1.955-0.852
		c-0.925-1.771,1.19-2.399,2.551-2.387c2.474,0.02,2.876,2.78,2.425,4.653c-0.024,0.106-0.066,0.201-0.099,0.305
		c-0.045,0.05-0.1,0.09-0.147,0.138c-0.185,0.199-0.208,0.431-0.152,0.636c-0.808,1.68-2.426,2.777-4.389,2.682
		c-3.642-0.173-6.818-4.037-8.446-7.312c2.11,0.613,4.766,0.131,5.501-2.097c0.437-1.325-0.061-2.57-1.164-3.381
		c-1.109-0.815-2.528-0.329-3.081,0.855c-0.143,0.305-0.134,0.756,0.225,0.928c0.283,0.135,0.534,0.209,0.85,0.224
		c0.575,0.026,0.767-0.553,0.584-0.961c0.279-0.106,0.601-0.017,0.939,0.288c0.73,0.66,0.514,1.645-0.096,2.283
		c-1.101,1.152-3.429,0.976-4.576,0.013c-0.049-0.04-0.102-0.06-0.153-0.085c-0.961-1.658-2.858-2.919-4.725-3.804
		c0.98-0.302,1.927-0.789,2.759-1.408c0.859-0.639,1.552-1.599,2.005-2.675c0.055-0.033,0.111-0.061,0.163-0.113
		c1.793-1.849,3.25-4.44,5.744-5.423c2.534-0.997,5.542,0.218,6.7,2.61c0.751,1.548,0.546,3.702-0.657,4.961
		c-0.662,0.693-1.632,0.788-2.522,0.608c-2.131-0.435-2.835-4.106-0.364-2.883c0.777,0.384,1.485-0.766,0.706-1.154
		c-1.289-0.637-2.789-0.798-3.541,0.668c-0.795,1.546,0.351,3.225,1.546,4.128c2.612,1.975,5.765-0.164,6.445-2.87
		c0.595-2.371-0.327-4.681-2.064-6.155c2.945-0.843,4.839-3.413,5.058-6.657c0.007-0.101,0.003-0.198,0.007-0.298
		c0.05-0.061,0.1-0.128,0.131-0.215c1.386-3.689,1.996-9.665,7.072-10.03c2.399-0.173,4.703,3.479,3.097,5.4
		c-0.424,0.509-0.988,0.899-1.539,1.255c-0.314,0.192-0.644,0.352-0.986,0.483c-0.52,0.276-0.716,0-0.592-0.827
		c0.764,0.415,1.471-0.736,0.706-1.152c-2.456-1.338-3.504,2.181-1.592,3.293c1.658,0.963,5.297-1.533,5.67-3.189
		c0.719-3.179-1.882-7.348-5.57-6.547c-4.494,0.976-5.661,5.124-6.885,8.949c-0.854-1.938-2.757-3.142-5.21-2.559
		c-2.321,0.552-6.963,3.567-2.994,5.498c1.843,0.896,5.598,0.403,3.641-2.317c-0.504-0.697-1.692-0.052-1.184,0.657
		c1.103,1.528-1.695,0.6-2.329,0.181c-1.684-1.106,3.929-3.042,5.085-2.746c2.145,0.549,2.32,3.567,1.966,5.295
		c-0.529,2.588-2.588,4.327-5.205,4.473c-0.023,0-0.04,0.014-0.061,0.016c-0.098-0.042-0.186-0.097-0.284-0.135
		c-4.35-1.63-7.033,1.405-9.602,4.267c0.038-1.303-0.321-2.581-1.217-3.55c-1.929-2.094-5.482-1.38-6.162,1.472
		c-0.632,2.64,1.871,3.209,3.528,1.686c0.642-0.59-0.293-1.564-0.933-0.975c-1.765,1.621-1.458-1.086-0.249-1.824
		c2.537-1.549,3.683,1.958,3.617,3.762c-0.155,4.268-6.53,6.833-9.325,3.482c-0.56-0.672-1.53,0.267-0.976,0.933
		c0.989,1.187,2.245,1.775,3.57,1.922c3.106,1.09,7.133,3.125,6.902,6.93c-0.088,1.435-0.929,3.473-2.675,3.013
		c-0.98-0.264-1.413-1.148-1.48-2.067c-0.079-1.062,0.421-1.745,1.244-0.728c0.545,0.681,1.516-0.26,0.975-0.933
		c-1.566-1.939-3.273-0.957-3.559,1.271c-0.302,2.35,1.978,4.426,4.273,3.768c1.56-0.447,2.263-2.115,2.481-3.77
		c2.448,3.959,6.692,7.909,11.197,6.277c1.595-0.582,2.835-2.047,3.475-3.73c1.452-1.363,3.565-2.364,5.536-1.762
		c0.929,0.285,2.701,1.228,2.393,2.441c-0.2,0.783-1.086,1.328-1.756,1.659c-0.225,0.113-0.479,0.189-0.733,0.232
		c0.037-0.058,0.075-0.112,0.109-0.168c0.479-0.73-0.677-1.428-1.153-0.705c-0.669,1.027-0.499,2.386,0.996,2.256
		c1.404-0.124,2.863-1.107,3.579-2.307c1.064-1.779-0.438-3.355-1.93-4.185c-2.153-1.198-4.608-0.777-6.592,0.471
		c0.012-0.193,0.034-0.389,0.027-0.583c0.714-2.6,1.702-5.461,3.774-7.285c0.273-0.239,0.593-0.407,0.931-0.531
		c0.125,0.007,0.254-0.031,0.379-0.11c1.168-0.267,2.494,0.106,3.222,1.119c0.736,1.03-0.993,2.966-1.426,1.19
		c-0.206-0.846-1.516-0.515-1.309,0.332c0.45,1.856,2.226,2.354,3.551,0.945c1.669-1.777,0.205-3.832-1.601-4.654
		c-0.374-0.172-0.731-0.27-1.08-0.339c0.056-0.046,0.108-0.096,0.147-0.169c1.891-3.394,7.525-6.709,10.392-2.646
		c0.761,1.078,1.194,2.668,0.567,3.898c-0.41,0.805-1.521,1.112-2.345,0.928c-1.216-0.271-1.366-2.131,0.098-2.108
		c0.87,0.013,0.886-1.338,0.014-1.351c-2.518-0.039-3.396,3.018-1.218,4.39c2.319,1.462,4.868-0.471,5.094-2.907
		c0.202-2.167-1.194-4.273-3.028-5.386c2.955-0.56,6.26-1.873,7.741-4.153C77.373,88.521,76.469,85.122,73.336,84.568z"/>
	<path fill="#23204B" d="M58.744,134.228c-0.556-1.323-1.953-2.373-3.433-2.185c-2.58,0.329-4.524,3.699-1.312,4.76
		c0.829,0.273,1.197-1.026,0.372-1.298c-1.331-0.44-0.567-1.378,0.263-1.872c1.07-0.633,2.211-0.038,2.8,0.942
		c1.182,1.976-2.189,4.351-3.659,4.879c-1.845,0.661-3.73-0.299-4.18-2.155c-0.397-1.644,0.143-3.521,0.702-5.063
		c0.101-0.279,0.01-0.499-0.156-0.646c0.112-1.11-0.151-2.269-0.84-3.11c-1.212-1.483-3.2-2.039-5.104-2.107
		c0.564-0.716,0.943-1.593,1.057-2.515c1.655-1.447,3.84-2.481,5.932-3.008c1.5-0.376,3.085-0.219,3.641,1.43
		c0.254,0.761-0.185,1.406-0.695,1.914c-0.458,0.453-1.122,0.753-0.812-0.166c0.281-0.827-1.019-1.194-1.296-0.373
		c-0.515,1.518,0.174,2.908,1.919,2.232c1.762-0.686,2.845-2.753,1.986-4.521c-1.922-3.969-7.66-1.457-10.75,0.804
		c-0.145-0.606-0.402-1.181-0.813-1.665c-1.608-1.897-5.052-1.638-5.767,0.948c-0.637,2.31,1.639,3.382,3.31,2.012
		c0.675-0.553-0.267-1.524-0.934-0.977c-1.332,1.092-1.302-1.055-0.348-1.655c1.687-1.058,3.146,0.69,3.297,2.219
		c0.007,0.064-0.001,0.121,0.002,0.187c-0.177,0.233-0.158,0.499-0.024,0.711c-0.438,3.312-5.37,3.682-7.271,1.075
		c-0.508-0.691-1.696-0.047-1.182,0.657c1.622,2.218,4.438,3.021,6.948,2.011c0.091,0.047,0.198,0.076,0.333,0.062
		c2.413-0.216,5.966,0.311,6.095,3.346c0.054,1.26-0.734,2.417-1.925,2.792c-0.697,0.224-1.58,0.086-2.199-0.276
		c-0.803-0.468-0.297-1.019,0.36-1.128c0.859-0.144,0.521-1.452-0.333-1.31c-1.764,0.296-2.342,2.023-1.089,3.311
		c1.185,1.213,3.208,1.053,4.614,0.21c-0.293,1.886-0.126,3.845,1.262,5.191c2.492,2.415,6.593,0.53,8.339-1.813
		C58.655,137.004,59.304,135.561,58.744,134.228z"/>
	<path fill="#4D2E57" d="M46.719,30.914c-1.163-3.186-4.751-4.974-8.01-3.98c-0.829,0.252-0.5,1.564,0.334,1.308
		c2.499-0.762,5.448,0.487,6.368,3.005C45.705,32.057,47.017,31.731,46.719,30.914z"/>
	<path fill="#5B4C76" d="M92.742,35.59c-0.088-0.05-0.18-0.097-0.269-0.147c-0.388-1.187-0.545-2.479-0.014-3.65
		c0.355-0.783-0.793-1.494-1.152-0.705c-0.532,1.168-0.627,2.391-0.417,3.604c-1.688-0.64-3.513-0.779-5.021,0.485
		c-1.514,1.264-1.656,3.437-1.32,5.353c-1.323-0.603-2.852-0.622-4.084,0.406c-1.184,0.985-1.424,2.372-0.938,3.614
		c-1.385-0.413-2.876-0.396-4.187,0.323c-1.558,0.855-1.827,2.474-1.503,4.01c-1.265-0.285-2.604-0.168-3.779,0.443
		c-1.1,0.575-1.571,1.542-1.606,2.592c-2.78-1.548-6.512,0.239-7.184,3.532c-1.205-1.089-2.728-1.443-4.425-0.654
		c-1.597,0.742-2.628,2.405-2.978,4.129c-1.177-1.211-2.682-1.81-4.478-1.052c-1.618,0.687-2.617,2.388-3.029,4.122
		c-1.106-1.252-2.609-2-4.429-1.697c-2.013,0.332-3.129,2.124-3.539,3.982c-1.107-1.041-2.494-1.62-4.137-1.174
		c-1.638,0.444-2.651,1.868-3.148,3.418c-2.325-2.379-5.712-1.883-6.67,1.428c-1.728-1.148-3.916-0.296-4.438,2.127
		c-0.183,0.848,1.115,1.226,1.296,0.373c0.344-1.589,1.825-2.513,2.981-0.871c0.391,0.553,1.208,0.385,1.266-0.322
		c0.295-3.633,3.531-3.69,5.254-0.953c0.062,0.222,0.239,0.348,0.452,0.388c0.041,0.011,0.079,0.019,0.121,0.021h0.02
		c0.392,0.021,0.797-0.29,0.75-0.699c0.173-1.412,0.789-2.693,2.049-3.428c1.608-0.941,3.216,0.322,4.101,1.616
		c0.446,0.647,1.455,0.166,1.261-0.467c0-0.009,0.005-0.015,0.005-0.024c0.05-1.705,0.689-3.453,2.436-4.04
		c1.897-0.642,3.45,0.99,4.232,2.504c0.172,0.331,0.484,0.391,0.756,0.301c0.274-0.056,0.512-0.255,0.509-0.623
		c-0.014-1.601,0.539-3.083,1.687-4.212c1.644-1.612,3.443-0.451,4.475,1.159c0.173,0.268,0.442,0.348,0.692,0.305
		c0.369,0.053,0.764-0.146,0.742-0.626c-0.147-3.245,3.577-6.854,5.995-3.223c0.173,0.262,0.44,0.337,0.687,0.299
		c0.376,0.065,0.783-0.133,0.748-0.623c-0.268-3.576,4.267-6.093,6.499-2.716c0.476,0.722,1.662,0.073,1.183-0.654
		c-0.043-0.065-0.094-0.113-0.136-0.177c-0.01-0.052-0.01-0.104-0.033-0.16c-1.265-3.011,2.593-3.714,4.627-2.644
		c0.743,0.394,1.417-0.666,0.76-1.106c-0.56-1.321-0.619-2.765,0.775-3.531c1.294-0.708,3.01-0.26,4.205,0.417
		c0.476,0.271,0.929-0.084,1.015-0.494c0.214-0.235,0.285-0.594-0.006-0.885c-0.92-0.924-1.148-2.235,0.009-3.084
		c1.24-0.91,2.754-0.346,3.741,0.641c0.214,0.212,0.469,0.232,0.687,0.151c0.006,0,0.013-0.003,0.019-0.004
		c0.022-0.009,0.043-0.018,0.065-0.028c0.233-0.087,0.402-0.278,0.397-0.548c0.01-0.098-0.01-0.198-0.055-0.3
		c-0.559-1.7-0.858-3.678,0.175-5.261c1.279-1.954,4.107-0.696,5.599,0.189C92.784,37.19,93.489,36.037,92.742,35.59z"/>
	<path fill="#FFF2DF" d="M36.849,34.973c-0.869,0-0.888,1.35-0.014,1.35C37.704,36.323,37.722,34.973,36.849,34.973z"/>
	<g>
		<path fill="#E34A5E" d="M51.465,43.79c-2.177-2.401-5.698-2.375-8.492-1.273c-3.56,1.407-7.578,4.785-8.108,8.792
			c-0.362,2.743,0.728,4.814,2.6,6.098c1.485,1.982,4.267,2.119,6.562,1.497c3.779-1.026,7.276-3.543,8.823-7.188
			C53.977,49.054,53.38,45.903,51.465,43.79z"/>
		<path fill="#E8836F" d="M47.043,43.589c-4.286,0.747-9.012,2.837-9.871,7.59c-0.571,3.149,4.246,4.565,4.818,1.381
			c0.539-2.961,3.709-3.662,6.291-4.111C51.471,47.893,50.215,43.034,47.043,43.589z"/>
		<path fill="#FED5AC" d="M47.663,46.313c0.01-0.838-0.747-1.773-1.657-1.688c-0.555,0.051-1.118,0.247-1.67,0.278
			c-2.141,0.116-2.194,3.462-0.036,3.344c0.38-0.021,0.76-0.072,1.134-0.139c0.077-0.015,0.896-0.173,0.537-0.141
			C46.88,47.885,47.652,47.296,47.663,46.313z"/>
	</g>
</g>
</svg>
