<?xml version="1.0" encoding="utf-8"?>
<!-- Generator: Adobe Illustrator 14.0.0, SVG Export Plug-In . SVG Version: 6.00 Build 43363)  -->
<!DOCTYPE svg PUBLIC "-//W3C//DTD SVG 1.1//EN" "http://www.w3.org/Graphics/SVG/1.1/DTD/svg11.dtd">
<svg version="1.1" id="Layer_1" xmlns="http://www.w3.org/2000/svg" xmlns:xlink="http://www.w3.org/1999/xlink" x="0px" y="0px"
	 width="200px" height="200px" viewBox="0 0 200 200" enable-background="new 0 0 200 200" xml:space="preserve">
<g>
	<g>
		<linearGradient id="SVGID_1_" gradientUnits="userSpaceOnUse" x1="156.7764" y1="127.5391" x2="134.4919" y2="116.2378">
			<stop  offset="0.0618" style="stop-color:#998C82"/>
			<stop  offset="0.7697" style="stop-color:#796D65"/>
		</linearGradient>
		<path fill="url(#SVGID_1_)" d="M128.878,127.309c9.182,2.027,18.088,4.016,26.821-1.273c6.667-4.039,5.018-9.869-1.097-13.516"/>
		<path opacity="0.4" fill="#998C82" d="M155.967,114.459c0.33-0.328,1.143,0.072,1.905,0.66c-0.86-0.941-1.962-1.82-3.27-2.6
			l-25.725,14.789c5.383,1.188,10.67,2.361,15.883,2.064c-2.453-0.016-4.72-1.186-4.43-2.404
			C140.78,125.082,153.615,119.209,155.967,114.459z"/>
		<path opacity="0.91" fill="#B3A59A" d="M152.836,114.879c0,0,3.82,3.646,6.252,3.994c-3.213-0.088-7.467-3.125-7.467-3.125
			L152.836,114.879z"/>
		<path opacity="0.91" fill="#B3A59A" d="M149.134,117.709c0,0,4.368,3.965,7.146,4.342c-3.672-0.094-8.536-3.398-8.536-3.398
			L149.134,117.709z"/>
		<path opacity="0.91" fill="#B3A59A" d="M145.03,120.701c0,0,5.007,3.119,7.81,2.994c-3.631,0.564-9.007-1.816-9.007-1.816
			L145.03,120.701z"/>
		<path opacity="0.91" fill="#B3A59A" d="M140.908,122.748c0,0,5.188,3.445,8.161,3.412c-3.87,0.465-9.477-2.219-9.477-2.219
			L140.908,122.748z"/>
		<path opacity="0.91" fill="#B3A59A" d="M137.316,124.975c0,0,5.09,2.703,7.826,2.404c-3.523,0.779-8.93-1.186-8.93-1.186
			L137.316,124.975z"/>
	</g>
	<g>
		<linearGradient id="SVGID_2_" gradientUnits="userSpaceOnUse" x1="134.3838" y1="60.8701" x2="120.4619" y2="77.9904">
			<stop  offset="0.0618" style="stop-color:#998C82"/>
			<stop  offset="0.7697" style="stop-color:#796D65"/>
		</linearGradient>
		<path fill="url(#SVGID_2_)" d="M132.742,61.953c-5.711,0.28-3.74-3.458-3.74-3.458c-2.481,1.309-6.217,0.626-5.564-2.401
			c-6.672,1.949-5.366-2.792-5.366-2.792s-5.909,1.495-5.79-2.409c-5.757,0.712-5.429-2.043-5.429-2.043
			s-11.433,1.798-14.843,12.893l61.128,28.015c3.136-1.949,7.149-6.036,6.364-11.31C157.388,64.262,131.306,69.255,132.742,61.953z"
			/>
		<path opacity="0.55" fill="#B3A59A" d="M159.502,78.448c-0.515-3.453-2.45-5.767-5.063-7.4c2.31,2.361,3.873,4.26,3.761,8.566
			c0,4.021-4.02,7.148-7.594,4.468c-8.488-8.488-16.326-14.898-27.141-19.607c-13.849-6.031-23.789-2.903-26.47-6.75
			c-1.644-1.645,1.312-4.498,4.411-6.96c-3.441,1.759-7.57,5.034-9.398,10.979l61.128,28.015
			C156.273,87.808,160.287,83.722,159.502,78.448z"/>
		<path opacity="0.91" fill="#B3A59A" d="M93.577,61.313c0,0,4.588-9.371,12.387-11.778c-6.996,3.787-10.142,11.778-10.142,11.778"
			/>
		<path opacity="0.91" fill="#B3A59A" d="M99.096,63.366c0,0,4.589-9.37,12.387-11.777c-6.995,3.787-10.14,11.777-10.14,11.777"/>
		<path opacity="0.91" fill="#B3A59A" d="M105.601,64.939c0,0,4.189-8.554,11.307-10.75c-6.385,3.456-9.257,10.75-9.257,10.75"/>
		<path opacity="0.91" fill="#B3A59A" d="M110.96,67.506c0,0,4.188-8.553,11.308-10.751c-6.388,3.457-9.257,10.751-9.257,10.751"/>
		<path opacity="0.91" fill="#B3A59A" d="M116.98,69.392c0,0,4.188-7.803,11.307-9.808c-6.387,3.153-9.257,9.808-9.257,9.808"/>
		<path opacity="0.91" fill="#B3A59A" d="M120.896,72.365c0,0,4.189-7.803,11.307-9.807c-6.386,3.153-9.257,9.807-9.257,9.807"/>
		<path opacity="0.91" fill="#B3A59A" d="M128.396,73.011c0,0,2.193-5.373,9.575-5.819c-6.91,1.725-7.571,6.254-7.571,6.254"/>
		<path opacity="0.91" fill="#B3A59A" d="M134.648,74.288c0,0,3.332-5.493,10.213-4.775c-6.697,0.605-8.454,5.514-8.454,5.514"/>
		<path opacity="0.91" fill="#B3A59A" d="M139.217,77.551c0,0,4.929-6.145,11.81-5.428c-6.698,0.606-10.051,6.166-10.051,6.166"/>
		<path opacity="0.91" fill="#B3A59A" d="M143.496,80.814c0,0,4.638-5.42,11.519-4.702c-6.698,0.604-9.76,5.44-9.76,5.44"/>
		<path opacity="0.91" fill="#B3A59A" d="M145.635,84.104c0,0,5.082-4.195,11.229-2.449c-6.192-0.513-9.746,3.4-9.746,3.4"/>
	</g>
	<linearGradient id="SVGID_3_" gradientUnits="userSpaceOnUse" x1="196.7715" y1="107.2969" x2="160.7196" y2="89.0138">
		<stop  offset="0.0618" style="stop-color:#998C82"/>
		<stop  offset="0.7697" style="stop-color:#796D65"/>
	</linearGradient>
	<path fill="url(#SVGID_3_)" d="M158.512,93.368c11.823-3.694,22.178-17.026,34.482-7.837c10.148,7.58,5.633,31.784-9.282,30.907
		c-13.388-0.787-15.573-6.313-23.992-7.767L158.512,93.368z"/>
	<path fill="none" d="M179.67,89.833c0.438-0.234,0.876-0.508,1.314-0.837C180.547,89.269,180.108,89.55,179.67,89.833z"/>
	<path opacity="0.4" fill="#998C82" d="M192.994,85.531c-12.305-9.189-22.659,4.143-34.482,7.837l1.208,15.303
		c8.419,1.454,10.604,6.979,23.992,7.767C198.627,117.314,203.143,93.11,192.994,85.531z M189.92,112.227
		c-7.595,4.914-16.084-0.447-23.678-4.467c4.914-1.341,8.488,2.232,13.402,2.68c-3.573-1.34-6.255-3.574-10.275-4.914
		c4.772,0.484,16.257,4.59,17.424,4.467c1.167-0.121-12.657-3.622-16.677-6.75c6.255,0.447,16.229,1.836,22.483,3.623
		c-5.807-2.68-16.302-3.729-22.557-5.516c6.255-0.447,22.701-2.065,23.004-2.525c0.302-0.462-16.156,1.379-22.858,0.486
		c6.702-1.787,16.604-3.613,23.305-5.4c-7.147,1.341-15.636,2.681-22.784,3.128c5.808-1.787,12.957-4.468,18.316-7.148
		c-6.893,1.191-13.401,5.361-20.549,5.361c3.919-0.785,8.045-3.391,11.193-5.417c-1.349,0.721-3.599,1.396-3.599,1.396
		c-3.128,0.893-7.148,2.234-10.722,1.787c7.147-3.127,14.295-11.616,23.229-8.042c3.021,1.226,5.122,2.909,6.663,5.304
		C198.519,97.847,196.486,108.285,189.92,112.227z"/>
	<path opacity="0.4" fill="#998C82" d="M164.4,108.342c0.277-1.318,4.098-1.666,4.522-8.625c-0.387-3.857-3.772-6.712-7.566-7.42
		c-0.939,0.409-1.887,0.771-2.845,1.07l1.208,15.303c8.419,1.454,10.604,6.979,23.992,7.767c3.198,0.188,5.917-0.779,8.116-2.486
		C181.626,119.941,164.122,109.662,164.4,108.342z"/>
	<path fill="#998C82" d="M179.67,89.833c0.438-0.234,0.876-0.508,1.314-0.837C180.547,89.269,180.108,89.55,179.67,89.833z"/>
	<path fill="#8B6533" d="M60.3,66.345c0,0,36.367-9.475,54.687-2.944c31.926,11.379,37.299,28.922,45.044,30.028
		c7.743,1.107,12.845,10.276,0.947,15.172c-4.999,2.058-29.499,35.272-80.231,25.315"/>
	<path opacity="0.57" fill="#8B6533" d="M101.209,61.156c-7.258-0.254-15.116,0.49-21.989,1.487
		c7.199,1.696,13.654,5.341,18.67,10.715c6.254,7.149,7.697,21.299,13.403,23.679c2.842,1.185,5.818,0.352,6.255-1.787
		C119.596,85.186,112.739,65.199,101.209,61.156z"/>
	<path opacity="0.57" fill="#8B6533" d="M147.033,101.951c1.785,0.895,4.912,0.895,5.807-1.787c1.174-4.307,0.291-8.27-0.548-12.19
		c-2.859-2.902-6.393-6.677-11.45-10.661c4.339,5.021,4.986,8.82,5.744,15.256C147.021,96.02,144.351,100.165,147.033,101.951z"/>
	<path opacity="0.57" fill="#8B6533" d="M136.757,100.611c3.101-4.135-0.394-22.104-7.672-30.995
		c-4.029-2.176-8.68-4.285-14.099-6.216c-0.172-0.062-0.356-0.114-0.532-0.174c8.766,6.962,10.278,19.094,12.475,29.342
		C127.822,97.484,130.056,104.633,136.757,100.611z"/>
	<path opacity="0.45" fill="#8B6533" d="M167.779,99.296c-0.365,0.669-0.851,1.271-1.537,1.763
		c-3.128,2.232-6.255,3.574-9.382,4.914c-14.296,6.254-41.205,12.266-46.682,1.227C102.23,87.857,91.397,74.07,72.027,69.025
		c-3.064,1.683-6.413,2.843-9.853,3.294l18.572,61.596c50.732,9.957,75.232-23.258,80.231-25.315
		C167.122,106.072,168.726,102.405,167.779,99.296z"/>
	<path opacity="0.6" fill="#8B6533" d="M154.627,110.439c-15.189,8.488-35.293,23.678-51.822,10.723
		c4.342-20.413-17.488-29.423-34.304-28.68l12.246,41.434c50.732,9.957,75.232-23.258,80.231-25.315
		c1.386-0.569,2.538-1.198,3.485-1.864C161.071,107.666,157.717,108.723,154.627,110.439z"/>
	<path opacity="0.6" fill="#8B6533" d="M91.636,132.775c2.624-5.248,7.386-9.641,7.585-16.111
		c-7.747,2.238-15.494,1.609-23.241,1.125l4.767,16.127c33.851,6.645,56.019-5.932,68.511-15.648
		C131.314,127.652,112.294,136.602,91.636,132.775z"/>
	<g>
		<path opacity="0.4" fill="#8B6533" d="M140.321,105.05c1.273-0.306,0.205-3.184-0.856-2.007
			C138.963,103.601,139.422,105.266,140.321,105.05z"/>
		<path opacity="0.4" fill="#8B6533" d="M138.83,114.889c1.274-0.307,0.205-3.184-0.855-2.006
			C137.471,113.439,137.932,115.104,138.83,114.889z"/>
		<path opacity="0.4" fill="#8B6533" d="M142.309,92.527c1.274-0.306,0.205-3.184-0.855-2.007
			C140.95,91.078,141.41,92.743,142.309,92.527z"/>
		<path opacity="0.4" fill="#8B6533" d="M116.667,107.732c1.274-0.307,0.205-3.184-0.855-2.007
			C115.309,106.283,115.769,107.947,116.667,107.732z"/>
		<path opacity="0.4" fill="#8B6533" d="M125.115,107.932c1.274-0.307,0.204-3.184-0.856-2.006
			C123.757,106.482,124.217,108.147,125.115,107.932z"/>
		<path opacity="0.4" fill="#8B6533" d="M118.294,115.91c1.275-0.307,0.206-3.184-0.854-2.006
			C116.936,114.461,117.396,116.125,118.294,115.91z"/>
		<path opacity="0.4" fill="#8B6533" d="M121.338,87.955c1.275-0.306,0.206-3.183-0.855-2.006
			C119.979,86.506,120.439,88.17,121.338,87.955z"/>
		<path opacity="0.4" fill="#8B6533" d="M118.356,72.65c1.275-0.307,0.206-3.184-0.855-2.007
			C116.998,71.201,117.458,72.865,118.356,72.65z"/>
		<path opacity="0.4" fill="#8B6533" d="M113.089,66.586c1.275-0.306,0.205-3.183-0.855-2.006
			C111.73,65.138,112.19,66.802,113.089,66.586z"/>
		<path opacity="0.4" fill="#8B6533" d="M88.875,70.627c1.284-0.942-1.127-2.988-1.804-1.37
			C86.75,70.025,87.969,71.291,88.875,70.627z"/>
		<path opacity="0.4" fill="#8B6533" d="M99.808,84.243c1.284-0.942-1.126-2.988-1.804-1.369
			C97.683,83.641,98.901,84.907,99.808,84.243z"/>
		<path opacity="0.4" fill="#8B6533" d="M77.446,67.646c1.284-0.942-1.127-2.988-1.804-1.37
			C75.321,67.043,76.54,68.31,77.446,67.646z"/>
		<path opacity="0.4" fill="#8B6533" d="M143.998,99.285c1.273-0.306,0.205-3.183-0.856-2.006
			C142.64,97.836,143.099,99.5,143.998,99.285z"/>
		<path opacity="0.4" fill="#8B6533" d="M159.203,101.372c1.274-0.307,0.206-3.183-0.855-2.006
			C157.845,99.924,158.306,101.588,159.203,101.372z"/>
		<path opacity="0.4" fill="#8B6533" d="M149.166,106.44c1.273-0.306,0.204-3.183-0.856-2.006
			C147.807,104.992,148.268,106.656,149.166,106.44z"/>
		<path opacity="0.4" fill="#8B6533" d="M156.267,94.89c1.112-0.692-0.811-3.085-1.445-1.632
			C154.52,93.945,155.48,95.379,156.267,94.89z"/>
		<path opacity="0.4" fill="#8B6533" d="M154.288,102.262c0.845-0.197,0.149-2.107-0.558-1.331
			C153.395,101.298,153.692,102.402,154.288,102.262z"/>
		<path opacity="0.4" fill="#8B6533" d="M138.883,83.676c0.845-0.197,0.149-2.107-0.559-1.331
			C137.989,82.712,138.287,83.816,138.883,83.676z"/>
		<path opacity="0.4" fill="#8B6533" d="M122.781,96.399c0.846-0.198,0.15-2.108-0.558-1.333
			C121.888,95.433,122.186,96.537,122.781,96.399z"/>
		<path opacity="0.4" fill="#8B6533" d="M122.781,80.298c0.846-0.197,0.15-2.107-0.558-1.332
			C121.888,79.333,122.186,80.437,122.781,80.298z"/>
		<path opacity="0.4" fill="#8B6533" d="M139.28,79.105c0.844-0.197,0.148-2.107-0.559-1.331
			C138.386,78.141,138.685,79.244,139.28,79.105z"/>
		<path opacity="0.4" fill="#8B6533" d="M162.338,98.983c0.845-0.197,0.149-2.107-0.559-1.333
			C161.444,98.018,161.741,99.122,162.338,98.983z"/>
		<path opacity="0.4" fill="#8B6533" d="M157.27,107.033c0.845-0.197,0.149-2.107-0.558-1.332
			C156.376,106.068,156.674,107.172,157.27,107.033z"/>
		<path opacity="0.4" fill="#8B6533" d="M145.84,113.096c0.846-0.197,0.15-2.107-0.558-1.332
			C144.947,112.131,145.244,113.234,145.84,113.096z"/>
		<path opacity="0.4" fill="#8B6533" d="M117.018,77.118c0.845-0.198,0.149-2.107-0.559-1.332
			C116.123,76.153,116.421,77.257,117.018,77.118z"/>
		<path opacity="0.4" fill="#8B6533" d="M110.558,101.169c0.845-0.198,0.149-2.108-0.559-1.332
			C109.664,100.204,109.962,101.309,110.558,101.169z"/>
		<path opacity="0.4" fill="#8B6533" d="M127.552,116.971c0.846-0.197,0.15-2.107-0.558-1.332
			C126.659,116.006,126.956,117.109,127.552,116.971z"/>
		<path opacity="0.4" fill="#8B6533" d="M133.813,108.723c0.845-0.197,0.149-2.107-0.559-1.332
			C132.92,107.758,133.218,108.861,133.813,108.723z"/>
		<path opacity="0.4" fill="#8B6533" d="M143.354,85.963c0.846-0.197,0.15-2.107-0.558-1.332
			C142.461,84.998,142.758,86.102,143.354,85.963z"/>
		<path opacity="0.4" fill="#8B6533" d="M130.932,103.951c0.845-0.197,0.148-2.107-0.559-1.331
			C130.038,102.987,130.336,104.092,130.932,103.951z"/>
		<path opacity="0.4" fill="#8B6533" d="M103.999,97.79c0.844-0.197,0.148-2.107-0.559-1.332
			C103.104,96.825,103.402,97.929,103.999,97.79z"/>
		<path opacity="0.4" fill="#8B6533" d="M95.808,75.946c0.881-0.401-0.305-2.092-0.906-1.16
			C94.616,75.227,95.187,76.23,95.808,75.946z"/>
		<path opacity="0.4" fill="#8B6533" d="M82.988,71.274c0.881-0.402-0.305-2.091-0.907-1.16
			C81.795,70.556,82.366,71.558,82.988,71.274z"/>
		<path opacity="0.4" fill="#8B6533" d="M81.82,65.145c0.645-0.723-1.119-1.793-1.297-0.699
			C80.439,64.964,81.364,65.653,81.82,65.145z"/>
		<path opacity="0.4" fill="#8B6533" d="M109.252,110.584c1.357-0.598-0.422-3.208-1.363-1.797
			C107.443,109.457,108.295,111.004,109.252,110.584z"/>
	</g>
	<path fill="#998C82" d="M104.034,124.336c-0.559-0.029-1.117-0.047-1.677-0.047C102.931,124.346,103.488,124.357,104.034,124.336z"
		/>
	<path fill="#8B6533" d="M20.634,98.013c11.093-2.147,11.483-19.124,29.363-29.691c8.809-3.897,17.715-2.587,25.807,1.868
		c19.008,10.466,38.099,41.594,14.528,59.592c-18.413,14.055-62.427-3.32-62.427-3.32L20.634,98.013z"/>
	<path opacity="0.31" fill="#987548" d="M93.443,86.565c1.465,5.231,1.243,9.093-1.015,15.253c-0.447,4.02-7.302,7.476-10.265,8.078
		c-6.639,1.418-21.8,2.777-33.862-3.478c-7.324-4.069-14.651-7.763-22.312-11.09c-1.528,1.333-3.248,2.275-5.355,2.684l7.271,28.448
		c0,0,44.015,17.375,62.427,3.32C105.941,117.861,102.839,100.186,93.443,86.565z"/>
	<path opacity="0.31" fill="#987548" d="M86.064,125.016c-1.589-0.771-1.643-15.603-25.254-10.557
		c-10.81,5.25-21.835,8.793-33.219,10.773l0.313,1.229c0,0,44.015,17.375,62.427,3.32c9.138-6.979,11.861-15.928,10.666-24.883
		C101.257,113.107,93.249,128.506,86.064,125.016z"/>
	<path fill="#998C82" d="M81.427,122.51c-2.158-11.854-20.525-8.986-30.639-12.939c-9.167-2.687-26.436-21.171-36.393-13.928
		c-7.586,6.823,3.316,11.918,2.763,11.537c0,0-14.296,0.843-11.826,10.904c3.607,14.697,28.736,10.115,37.079,13.303
		C71.367,141.633,83.955,133.414,81.427,122.51z"/>
	<path opacity="0.52" fill="#998C82" d="M17.158,107.18c0,0-0.015,0-0.037,0.002C17.179,107.205,17.195,107.205,17.158,107.18z"/>
	<path opacity="0.52" fill="#998C82" d="M43.388,128.756c-9.829-4.02-21.89,0.893-31.719-3.574c-1.822-0.826-3.52-2.086-4.914-3.662
		c6.466,10.516,28.046,6.959,35.656,9.867c28.634,10.131,41.26,2.207,39.092-8.516C79.614,139.861,55.234,133.582,43.388,128.756z"
		/>
	<path opacity="0.39" fill="#998C82" d="M60.364,126.969c4.467,0.895,8.935,0.447,12.509-2.68c1.34-0.895,3.042-3.678,1.34-4.469
		s-4.244,2.527-21.444-1.34c-18.396-7.299-34.757-14.043-37.526-15.635c-1.188-0.686-2.905-2.398-3.072-4.353
		c-2.243,4.914,4.274,8.419,4.95,8.689c0.022-0.002,0.037-0.002,0.037-0.002c0.037,0.025,0.021,0.025-0.037,0.002
		c-0.341,0.023-3.208,0.253-6.064,1.369C28.35,106.991,42.876,122.902,60.364,126.969z"/>
	<path fill="#720009" d="M17.158,107.18c9.483,0.632,49.942,26.709,55.473,14.225C49.873,126.461,31.381,106.547,17.158,107.18z"/>
	<g>
		<path opacity="0.51" fill="#8B6533" d="M58.065,70.56c1.331-5.12-11.884-1.04-10.392,3.265
			C48.655,76.643,57.509,72.702,58.065,70.56z"/>
		<path opacity="0.51" fill="#8B6533" d="M45.789,76.858c2.453,0.005,2.251-3.433-0.094-2.813
			C44.052,74.48,43.8,76.854,45.789,76.858z"/>
	</g>
	<path opacity="0.18" fill="#8B6533" d="M42.305,99.981c6.047,2.199,19.21,11.07,24.961,8.027
		c6.777-3.586-9.294-9.363-20.104-12.198c-6.944-1.821-15.535-1.717-17.892-1.001C26.432,95.67,33.156,96.654,42.305,99.981z"/>
	<g>
		<g>
			<circle fill="#FFFFFF" cx="59.104" cy="95.204" r="4.339"/>
			<g>
				<circle fill="#00427A" cx="59.627" cy="96.035" r="2.413"/>
				<circle fill="#254467" cx="59.554" cy="96.035" r="1.26"/>
				<circle fill="#FFFFFF" cx="58.969" cy="95.119" r="1.132"/>
				<circle fill="#FFFFFF" cx="60.774" cy="96.539" r="0.491"/>
			</g>
		</g>
		<path fill="#743237" d="M59.104,90.687c-2.289,0-4.177,1.693-4.493,3.893l8.993,0.05C63.31,92.405,61.41,90.687,59.104,90.687z"/>
	</g>
	<g>
		<g>
			<circle fill="#FFFFFF" cx="39.036" cy="90.982" r="4.34"/>
			<g>
				<circle fill="#00427A" cx="39.56" cy="91.813" r="2.413"/>
				<circle fill="#254467" cx="39.487" cy="91.813" r="1.26"/>
				<circle fill="#FFFFFF" cx="38.901" cy="90.897" r="1.132"/>
				<circle fill="#FFFFFF" cx="40.706" cy="92.317" r="0.491"/>
			</g>
		</g>
		<path fill="#743237" d="M39.037,86.53c-2.251,0-4.107,1.665-4.418,3.829l8.844,0.049C43.172,88.22,41.304,86.53,39.037,86.53z"/>
	</g>
	<g>
		<linearGradient id="SVGID_4_" gradientUnits="userSpaceOnUse" x1="122.9082" y1="138.1045" x2="96.5481" y2="124.7364">
			<stop  offset="0.0618" style="stop-color:#998C82"/>
			<stop  offset="0.7697" style="stop-color:#796D65"/>
		</linearGradient>
		<path fill="url(#SVGID_4_)" d="M91.013,128.961c4.619,8.771,9.79,23.615,22.502,18.576c7.49-2.969,15.214-15.209,12.653-23.285
			c-4.604-14.514-21.234,1.172-30.138-1.918L91.013,128.961z"/>
		<path opacity="0.52" fill="#998C82" d="M126.168,124.252c-4.604-14.514-21.234,1.172-30.138-1.918l-5.017,6.627
			c4.619,8.771,9.79,23.615,22.502,18.576C121.005,144.568,128.729,132.328,126.168,124.252z M118.592,142.197
			c-3.04,3.273-8.138,6.18-12.837,3.889c-6.033-2.432-7.469-10.121-10.953-15.43c4.255,2.246,6.546,6.08,9.283,9.963
			c-1.802-4.232-3.694-7.576-6.477-11.014c4.653,2.736,8.323,6.268,12.486,9.4c-2.783-3.436-6.763-8.299-11.019-10.545
			c4.35,1.357,10.879,3.344,15.368,3.367c-4.84-0.959-10.637-2.793-14.891-5.039c4.536-0.42,9.935,0.924,14.471,0.502
			c-3.483,0.02-13.128-2.1-13.692-2.217c0.556,0.059,10.453-0.486,14.02-0.893c-3.601,0.07-9.615,0.311-11.857-0.451
			c6.303-0.834,14.052-6.426,19.23-3.439C128.712,124.32,123.319,137.131,118.592,142.197z"/>
		<path opacity="0.52" fill="#998C82" d="M96.317,122.426c-0.096-0.031-0.193-0.059-0.287-0.092l-4.717,6.23
			c1.619,0.182,3.188,0.203,4.659-0.48C97.229,126.73,97.061,124.309,96.317,122.426z"/>
		<path opacity="0.26" fill="#998C82" d="M105.231,127.992c7.945,2.168,17.137,2.623,17.137,2.623S115.21,132.217,105.231,127.992z"
			/>
		<path opacity="0.26" fill="#998C82" d="M105.594,125.447c5.744,0.68,16.732,0.801,16.732,0.801S113.743,127.193,105.594,125.447z"
			/>
		<path opacity="0.26" fill="#998C82" d="M102.354,130.18c8.077,4.889,15.861,10.117,15.861,10.117S109.916,132.939,102.354,130.18z
			"/>
		<path opacity="0.26" fill="#998C82" d="M100.896,132.768c3.961,4.602,9.865,12.188,9.865,12.188S105.409,135.65,100.896,132.768z"
			/>
		<path opacity="0.26" fill="#998C82" d="M105.824,123.828c5.871-1.088,17.05-1.301,17.05-1.301S114.469,121.285,105.824,123.828z"
			/>
	</g>
	<path opacity="0.6" fill="#8B6533" d="M97.592,99.524c2.694,11.117-7.244,23.078-6.907,22.572
		C91.022,121.592,103.15,113.506,97.592,99.524z"/>
	<path opacity="0.6" fill="#8B6533" d="M73.167,112.158c9.433,1.01,11.959,8.928,11.959,8.928S84.453,110.643,73.167,112.158z"/>
	<path opacity="0.39" fill="#998C82" d="M18.675,94.71c-7.041,1.304,27.636,19.014,35.264,16.692
		C39.015,108.196,27.629,93.052,18.675,94.71z"/>
	<path opacity="0.39" fill="#998C82" d="M11.04,109.939c-4.737,2.021-3.284,6.09,9.265,10.211
		c10.321,3.391,25.688,5.266,34.638,6.424C35.992,121.941,24.095,106.359,11.04,109.939z"/>
</g>
</svg>
