<?xml version="1.0" encoding="utf-8"?>
<!-- Generator: Adobe Illustrator 14.0.0, SVG Export Plug-In . SVG Version: 6.00 Build 43363)  -->
<!DOCTYPE svg PUBLIC "-//W3C//DTD SVG 1.1//EN" "http://www.w3.org/Graphics/SVG/1.1/DTD/svg11.dtd">
<svg version="1.1" id="Layer_1" xmlns="http://www.w3.org/2000/svg" xmlns:xlink="http://www.w3.org/1999/xlink" x="0px" y="0px"
	 width="200px" height="200px" viewBox="0 0 200 200" enable-background="new 0 0 200 200" xml:space="preserve">
<g>
	<path fill="#5F7A9C" d="M47.442,113.412c-6.097,6.115-15.595,4.668-15.708,4.316c-0.112-0.352,7.757-4.125,7.421-6.711
		L47.442,113.412z"/>
	
		<linearGradient id="SVGID_1_" gradientUnits="userSpaceOnUse" x1="-16.3511" y1="-523.7773" x2="-16.3511" y2="-529.8931" gradientTransform="matrix(0.9858 -0.168 -0.168 -0.9858 -34.3715 -407.7883)">
		<stop  offset="0" style="stop-color:#4D75A0"/>
		<stop  offset="0.9045" style="stop-color:#5988B8"/>
	</linearGradient>
	<path opacity="0.41" fill="url(#SVGID_1_)" d="M44.512,114.068c-2.627,3.916-9.927,3.727-12.736,3.582
		c0.609-0.646,7.699-4.176,7.38-6.633l5.133,1.482C44.672,113.064,44.823,113.629,44.512,114.068z"/>
	<path fill="#5F7A9C" d="M126.2,116.816c0,0,5.948,5.465,5.234,10.34c-0.712,4.871,12.215,8.316,19.694,17.125
		c5.548,6.535-7.138-34.432-24.889-32.482C124.013,112.422,126.2,116.816,126.2,116.816z"/>
	<linearGradient id="SVGID_2_" gradientUnits="userSpaceOnUse" x1="138.1289" y1="144.1582" x2="138.1289" y2="111.7314">
		<stop  offset="0" style="stop-color:#4D75A0"/>
		<stop  offset="0.9045" style="stop-color:#5988B8"/>
	</linearGradient>
	<path opacity="0.6" fill="url(#SVGID_2_)" d="M143.503,124.648c-0.133-0.662-0.229-1.313-0.302-1.955
		c-4.514-6.455-10.388-11.615-16.961-10.895c-2.228,0.623-0.04,5.018-0.04,5.018s5.948,5.465,5.234,10.34
		c-0.709,4.848,12.091,8.285,19.584,17.002C151.128,136.877,144.931,131.785,143.503,124.648z"/>
	<linearGradient id="SVGID_3_" gradientUnits="userSpaceOnUse" x1="138.1289" y1="144.1582" x2="138.1289" y2="111.7314">
		<stop  offset="0" style="stop-color:#4D75A0"/>
		<stop  offset="0.9045" style="stop-color:#5988B8"/>
	</linearGradient>
	<path opacity="0.6" fill="url(#SVGID_3_)" d="M145.743,133.979c3.547,2.506,4.761,6.178,5.206,10.1
		c0.024,0.029,0.047,0.053,0.069,0.08c0.109-7.281-6.088-12.373-7.516-19.51c-0.133-0.662-0.229-1.313-0.302-1.955
		c-4.514-6.455-10.388-11.615-16.961-10.895c-2.228,0.623-0.04,5.018-0.04,5.018s5.948,5.465,5.234,10.34
		c-0.318,2.17,2.072,4.057,5.479,6.262C140.061,133.438,143.28,132.441,145.743,133.979z"/>
	<path fill="#6B0017" d="M154.148,121.693c3.644-1.877-9.384-4.746-7.177-8.721c-4.416-1.436-21.308-10.158-21.308-10.158
		S134.827,125.449,154.148,121.693z"/>
	<path fill="#C7D6EE" d="M126.646,102.803c0.751,2.291,6.81,18.982,28.399,18.402c1.594,2.463-3.188,3.912-3.188,3.912
		c0.089-0.209-3.568,14.117-46.222,10.141c-25.806-2.404-39.854-13.535-58.391-21.154c-9.313-3.824-15.704-3.197-17.098-6.084
		c-3.042-2.318,20.719-5.652,20.719-5.652S122.792,94.474,126.646,102.803z"/>
	<path opacity="0.6" fill="#C7D6EE" d="M155.045,121.205c-21.59,0.58-27.648-16.111-28.399-18.402
		c-3.854-8.329-75.78-0.436-75.78-0.436s-23.762,3.334-20.719,5.652c1.394,2.887,7.785,2.26,17.098,6.084
		c18.538,7.619,32.585,18.75,58.391,21.154c42.653,3.977,46.311-10.35,46.222-10.141
		C151.857,125.117,156.639,123.668,155.045,121.205z M97.346,128.758c-0.746-0.373-1.866-1.494-1.119-2.611
		c4.479-4.48,7.217-9.5,5.35-16.633c5.356-2.344,12.757-1.932,18.447-2.828c4.72,11.42,17.476,15.807,28.085,19.832
		C140.146,132.654,108.917,135.85,97.346,128.758z"/>
	<path fill="#C7D6EE" d="M68.979,117.188c10.451-4.48,21.275-4.854,31.727-10.453c7.742-4.223,17.145-5.455,26.017-3.705
		c-0.03-0.086-0.056-0.164-0.077-0.227c-3.854-8.329-75.78-0.436-75.78-0.436s-23.762,3.334-20.719,5.652
		c1.394,2.887,7.785,2.26,17.098,6.084c16.684,6.855,29.734,16.553,50.987,20.18C84.158,130.539,61.017,120.463,68.979,117.188z"/>
	<path fill="#5F7A9C" d="M96.333,70.117c-15.135-10.762-34.754-4.26-34.867-3.476c-0.112,0.785,17.938,5.942,18.163,11.548
		L96.333,70.117z"/>
	<linearGradient id="SVGID_4_" gradientUnits="userSpaceOnUse" x1="76.0229" y1="78.1895" x2="76.0229" y2="65.0347">
		<stop  offset="0" style="stop-color:#4D75A0"/>
		<stop  offset="0.9045" style="stop-color:#5988B8"/>
	</linearGradient>
	<path opacity="0.41" fill="url(#SVGID_4_)" d="M89.882,69.784c-6.985-7.354-22.396-4.313-28.3-2.992
		c1.526,1.149,17.833,6.071,18.047,11.398l10.347-5C90.585,71.854,90.701,70.603,89.882,69.784z"/>
	<path fill="#5F7A9C" d="M50.754,94.312c-7.036-5.004-16.157-1.981-16.21-1.616c-0.052,0.365,8.339,2.762,8.444,5.368L50.754,94.312
		z"/>
	<linearGradient id="SVGID_5_" gradientUnits="userSpaceOnUse" x1="41.312" y1="98.0645" x2="41.312" y2="91.9492">
		<stop  offset="0" style="stop-color:#4D75A0"/>
		<stop  offset="0.9045" style="stop-color:#5988B8"/>
	</linearGradient>
	<path opacity="0.41" fill="url(#SVGID_5_)" d="M47.755,94.157c-3.248-3.418-10.412-2.006-13.156-1.392
		c0.709,0.535,8.29,2.822,8.389,5.299l4.811-2.325C48.082,95.12,48.136,94.538,47.755,94.157z"/>
	<path fill="#5F7A9C" d="M32.314,100.354c-4.156,0.289-9.243-9.001-11.669-12.634c-2.426-3.634-9.666-11.678-15.006-11.03
		c-0.519,0.389,3.283,2.725,8.798,16.837c4.131,11.061,5.687,13.182,5.458,13.217c-0.457,0.6-2.85,4.15-3.629,9.211
		c-1.557,13.105-6.403,15.439-5.754,16.348c0.648,0.908,7.526-1.557,11.826-7.83c2.601-3.791,4.965-13.65,10.402-14.254
		L32.314,100.354z"/>
	<linearGradient id="SVGID_6_" gradientUnits="userSpaceOnUse" x1="19.1655" y1="132.4854" x2="19.1655" y2="76.6904">
		<stop  offset="0" style="stop-color:#4D75A0"/>
		<stop  offset="0.9045" style="stop-color:#5988B8"/>
	</linearGradient>
	<path opacity="0.6" fill="url(#SVGID_6_)" d="M32.326,100.645c-2.178-0.016-3.649-0.622-5.898-2.121
		c-5.599-3.732-4.946-9.01-11.198-15.676c-1.643-1.917-5.878-5.371-9.592-6.158c-0.207,0.156,0.277,0.625,1.281,2.027
		c6.635,6.212,7.937,16.36,12.417,24.285c1.586,3.217,4.211,3.732,4.852,3.732c-0.563,0.127-1.063,0.297-1.517,0.5
		c-4.966,2.232-3.803,8.896-4.829,13.686c-0.871,5.004-3.52,8.738-7.276,10.834c-0.125,0.238-0.155,0.41-0.056,0.549
		c0.648,0.908,7.526-1.557,11.826-7.83c2.601-3.791,4.965-13.65,10.402-14.254L32.326,100.645z"/>
	<linearGradient id="SVGID_7_" gradientUnits="userSpaceOnUse" x1="128.9258" y1="109.6699" x2="133.1865" y2="109.6699">
		<stop  offset="0" style="stop-color:#FFFFFF"/>
		<stop  offset="1" style="stop-color:#9FB4D3"/>
	</linearGradient>
	<path fill="url(#SVGID_7_)" d="M129.228,106.344c-1.036,0.518,0.906,6.6,1.23,6.73c0.323,0.129,3.236-2.977,2.651-4.078
		C132.529,107.896,130.264,105.824,129.228,106.344z"/>
	<linearGradient id="SVGID_8_" gradientUnits="userSpaceOnUse" x1="133.1982" y1="111.7461" x2="137.459" y2="111.7461">
		<stop  offset="0" style="stop-color:#FFFFFF"/>
		<stop  offset="1" style="stop-color:#9FB4D3"/>
	</linearGradient>
	<path fill="url(#SVGID_8_)" d="M133.498,108.803c-1.033,0.457,0.907,5.84,1.23,5.955c0.323,0.113,3.236-2.635,2.654-3.609
		C136.801,110.176,134.534,108.344,133.498,108.803z"/>
	<linearGradient id="SVGID_9_" gradientUnits="userSpaceOnUse" x1="137.7578" y1="115.8691" x2="143.584" y2="115.8691">
		<stop  offset="0" style="stop-color:#FFFFFF"/>
		<stop  offset="1" style="stop-color:#9FB4D3"/>
	</linearGradient>
	<path fill="url(#SVGID_9_)" d="M138.223,110.633c-1.034,0.457-0.127,10.613,0.648,10.551c0.777-0.064,5.242-7.441,4.661-8.416
		C142.948,111.797,139.26,110.176,138.223,110.633z"/>
	<linearGradient id="SVGID_10_" gradientUnits="userSpaceOnUse" x1="143.4063" y1="117.7227" x2="150.835" y2="117.7227">
		<stop  offset="0" style="stop-color:#FFFFFF"/>
		<stop  offset="1" style="stop-color:#9FB4D3"/>
	</linearGradient>
	<path fill="url(#SVGID_10_)" d="M144.278,113.139c-1.27,0.459-1.027,9.309-0.077,9.246c0.952-0.064,7.292-6.137,6.578-7.109
		C150.066,114.301,145.547,112.682,144.278,113.139z"/>
	<linearGradient id="SVGID_11_" gradientUnits="userSpaceOnUse" x1="156.0459" y1="120.1563" x2="163.3184" y2="120.1563">
		<stop  offset="0" style="stop-color:#FFFFFF"/>
		<stop  offset="1" style="stop-color:#9FB4D3"/>
	</linearGradient>
	<path fill="url(#SVGID_11_)" d="M156.406,115.795c-1.144,0.717,0.723,9.295,1.64,9.031c0.917-0.268,6.07-7.525,5.166-8.326
		C162.31,115.701,157.548,115.076,156.406,115.795z"/>
	<linearGradient id="SVGID_12_" gradientUnits="userSpaceOnUse" x1="150.5898" y1="119.9033" x2="158.0186" y2="119.9033">
		<stop  offset="0" style="stop-color:#FFFFFF"/>
		<stop  offset="1" style="stop-color:#9FB4D3"/>
	</linearGradient>
	<path fill="url(#SVGID_12_)" d="M151.461,114.887c-1.268,0.457-1.027,10.18-0.074,10.113c0.951-0.064,7.289-7.004,6.576-7.979
		C157.251,116.049,152.729,114.428,151.461,114.887z"/>
	<path fill="#5F7A9C" d="M126.646,102.803c1.593,8.84,38.687,19.994,40.135,11.592c5.651-8.693,32.165-21.445,27.386-30.717
		c-3.913-4.347-6.429-1.088-16.954-5.506c-13.58-5.703-37.269-16.126-66.216-12.315c-33.61,5.27-62.883,33.035-78.966,34.339
		c-5.796,1.159-4.393,10.481-1.351,10.625c6.231,0.146,21.32,5.068,32.47,3.477C87.219,113.412,111.467,94.65,126.646,102.803z"/>
	<linearGradient id="SVGID_13_" gradientUnits="userSpaceOnUse" x1="111.3906" y1="117.3711" x2="111.3906" y2="82.4966">
		<stop  offset="0" style="stop-color:#4D75A0"/>
		<stop  offset="0.9045" style="stop-color:#5988B8"/>
	</linearGradient>
	<path opacity="0.6" fill="url(#SVGID_13_)" d="M193.256,82.782c-15.29-2.367-19.484,10.656-30.217,13.876
		c-5.227,1.866-10.825,1.866-16.424,1.12c-7.091-0.746-12.317-5.599-19.034-6.346c-8.959-1.12-18.291-0.747-26.875,2.24
		c-15.303,5.971-29.861,9.33-46.284,11.943c-7.838,1.119-22.556,2.199-23.888,0c-0.728-1.199-0.451-3.525,0.206-4.97
		c-4.257,2.195-2.85,10.044-0.06,10.175c6.231,0.146,21.32,5.068,32.47,3.477c24.069-0.885,48.317-19.646,63.496-11.494
		c1.593,8.84,38.687,19.994,40.135,11.592c5.651-8.693,32.165-21.445,27.386-30.717C193.854,83.332,193.554,83.039,193.256,82.782z"
		/>
	<linearGradient id="SVGID_14_" gradientUnits="userSpaceOnUse" x1="61.873" y1="114.6133" x2="61.873" y2="106.0762">
		<stop  offset="0" style="stop-color:#4D75A0"/>
		<stop  offset="0.9045" style="stop-color:#5988B8"/>
	</linearGradient>
	<path opacity="0.6" fill="url(#SVGID_14_)" d="M31.153,109.717c-1.349-0.27-2.304-1.68-3.015-2.588
		c0.298,1.984,1.276,3.633,2.541,3.691c6.231,0.146,21.32,5.068,32.47,3.477c11.083-0.408,22.202-4.605,32.458-8.221
		c-10.252,1.916-18.419,5.674-29.741,6.627C54.336,113.674,42.849,112.621,31.153,109.717z"/>
	<linearGradient id="SVGID_15_" gradientUnits="userSpaceOnUse" x1="145.8008" y1="117.3711" x2="145.8008" y2="100.0146">
		<stop  offset="0" style="stop-color:#4D75A0"/>
		<stop  offset="0.9045" style="stop-color:#5988B8"/>
	</linearGradient>
	<path opacity="0.6" fill="url(#SVGID_15_)" d="M129.692,104.865c-1.12-0.746-2.613-3.732,0-4.851c-1.602,0-3.475,0.551-4.447,2.125
		c0.476,0.197,0.942,0.418,1.4,0.664c1.521,8.43,35.327,18.967,39.711,12.635C160.02,119.184,137.624,112.184,129.692,104.865z"/>
	<path fill="#5F7A9C" d="M93.496,104.209c0,0-5.751,8.668-11.891,8.432c-6.141-0.238-8.219,17.381-17.841,28.563
		c-7.137,8.293,41.333-14.451,35.936-37.67C98.556,100.673,93.496,104.209,93.496,104.209z"/>
	<linearGradient id="SVGID_16_" gradientUnits="userSpaceOnUse" x1="81.5825" y1="142.9463" x2="81.5825" y2="102.416">
		<stop  offset="0" style="stop-color:#4D75A0"/>
		<stop  offset="0.9045" style="stop-color:#5988B8"/>
	</linearGradient>
	<path opacity="0.6" fill="url(#SVGID_16_)" d="M99.7,103.533c-0.761-1.904-3.261-0.973-4.845-0.139
		c1.475-0.277,2.865-0.037,2.865,0.729c-3.08,26.168-30.794,37.139-31.727,36.807s3.964-7.988,5.004-11.498
		c-1.901,4.055-4.189,8.234-7.233,11.771C56.627,149.496,105.097,126.752,99.7,103.533z"/>
	<path fill="#00427A" d="M105.624,86.211c-2.415,5.863,1.263,12.071,1.033,11.727C106.428,97.593,99.416,92.42,105.624,86.211z"/>
	<path fill="#00427A" d="M101.084,88.626c-1.847,4.484,0.968,9.231,0.791,8.967C101.7,97.329,96.337,93.373,101.084,88.626z"/>
	<path fill="#00427A" d="M109.531,85.407c-2.414,5.862,1.265,12.071,1.036,11.726C110.337,96.789,103.324,91.615,109.531,85.407z"/>
	<g>
		<circle fill="#FFFFFF" cx="122.866" cy="91.594" r="3.122"/>
		<g>
			<circle fill="#743237" cx="122.65" cy="92.18" r="1.736"/>
			<circle fill="#743237" cx="122.599" cy="92.18" r="0.907"/>
			<circle fill="#FFFFFF" cx="122.176" cy="91.521" r="0.815"/>
			<circle fill="#FFFFFF" cx="123.476" cy="92.542" r="0.354"/>
		</g>
	</g>
	<path opacity="0.25" fill="#5F7A9C" d="M95.48,105.004c3.761-0.002-3.826,24.541-27.807,34.525
		C96.32,123.014,90.783,105.006,95.48,105.004z"/>
	<path fill="#5F7A9C" d="M130.254,101.826c1.118-3.825,8.396,9.518,29.766,13.531C150.596,115.543,129.134,105.652,130.254,101.826z
		"/>
	<linearGradient id="SVGID_17_" gradientUnits="userSpaceOnUse" x1="123.3174" y1="89.8286" x2="123.3174" y2="86.0332">
		<stop  offset="0" style="stop-color:#4D75A0"/>
		<stop  offset="0.9045" style="stop-color:#5988B8"/>
	</linearGradient>
	<path opacity="0.6" fill="url(#SVGID_17_)" d="M119.889,88.462c2.248-1.992,5.521-0.655,6.857,1.366
		C126.064,86.898,121.653,83.71,119.889,88.462z"/>
	<linearGradient id="SVGID_18_" gradientUnits="userSpaceOnUse" x1="122.8906" y1="96.2065" x2="122.8906" y2="94.2964">
		<stop  offset="0" style="stop-color:#4D75A0"/>
		<stop  offset="0.9045" style="stop-color:#5988B8"/>
	</linearGradient>
	<path opacity="0.6" fill="url(#SVGID_18_)" d="M119.017,94.373c0,0,3.038,4.177,7.747-0.076
		C122.283,96.879,119.017,94.373,119.017,94.373z"/>
	<path opacity="0.38" fill="#5F7A9C" d="M172.716,77.604c-48.846-19.5-87.379-1.688-87.379-1.688S118.986,53.229,172.716,77.604z"/>
</g>
</svg>
