<?xml version="1.0" encoding="utf-8"?>
<!-- Generator: Adobe Illustrator 14.0.0, SVG Export Plug-In . SVG Version: 6.00 Build 43363)  -->
<!DOCTYPE svg PUBLIC "-//W3C//DTD SVG 1.1//EN" "http://www.w3.org/Graphics/SVG/1.1/DTD/svg11.dtd">
<svg version="1.1" id="Layer_1" xmlns="http://www.w3.org/2000/svg" xmlns:xlink="http://www.w3.org/1999/xlink" x="0px" y="0px"
	 width="200px" height="200px" viewBox="0 0 200 200" enable-background="new 0 0 200 200" xml:space="preserve">
<g>
	<linearGradient id="SVGID_1_" gradientUnits="userSpaceOnUse" x1="56.376" y1="25.061" x2="139.9996" y2="170.6975">
		<stop  offset="0" style="stop-color:#F04923"/>
		<stop  offset="0.331" style="stop-color:#E44024"/>
		<stop  offset="0.8431" style="stop-color:#CE2926"/>
		<stop  offset="1" style="stop-color:#C62127"/>
	</linearGradient>
	<path fill="url(#SVGID_1_)" d="M32.056,163.832c18.244,7.609,34.558,8.301,42.436,8.301c5.805,0,13.129-4.422,8.016-10.781
		c-3.773-4.691-11.338-21.707,15.615-21.707c26.952,0,19.387,17.016,15.614,21.707c-5.113,6.359,2.211,10.781,8.018,10.781
		c7.877,0,24.189-0.691,42.436-8.301c-7.609-18.244-8.301-34.557-8.301-42.436c0-5.805,4.424-13.129,10.781-8.016
		c4.691,3.773,21.707,11.338,21.707-15.615c0-26.951-17.016-19.389-21.707-15.613c-6.357,5.113-10.781-2.213-10.781-8.018
		c0-7.877,0.691-24.19,8.301-42.435c-18.244-7.608-34.559-8.3-42.436-8.3c-5.805,0-13.131,4.422-8.018,10.779
		c3.775,4.693,11.338,21.708-15.614,21.707c-26.953,0-19.389-17.014-15.615-21.707c5.113-6.357-2.211-10.779-8.016-10.779
		c-7.878,0-24.191,0.691-42.436,8.299c7.608,18.244,8.3,34.559,8.3,42.438c0,5.805-4.423,13.129-10.78,8.016
		C24.883,78.379,7.868,70.814,7.868,97.768c0,26.951,17.015,19.389,21.708,15.613c6.357-5.113,10.78,2.213,10.78,8.018
		C40.356,129.275,39.665,145.588,32.056,163.832z"/>
	<g opacity="0.5">
		<path opacity="0.95" fill="#010101" d="M80.507,32.18c-2.655,3.304-7.176,12.709-0.222,17.99
			c-3.93-5.393-0.124-13.072,2.222-15.99c3.006-3.735,1.713-6.801-1.038-8.696C82.607,27.272,82.615,29.561,80.507,32.18z"/>
		<path opacity="0.95" fill="#010101" d="M182.66,79.93c2.221,2.923,3.717,7.859,3.717,15.836c0,26.953-17.016,19.389-21.707,15.615
			c-6.357-5.113-10.781,2.211-10.781,8.016c0,7.879,0.691,24.191,8.301,42.436c-18.246,7.609-34.559,8.301-42.436,8.301
			c-2.395,0-5.045-0.753-6.977-2.083c1.625,2.554,5.563,4.083,8.977,4.083c7.877,0,24.189-0.691,42.436-8.301
			c-7.609-18.244-8.301-34.557-8.301-42.436c0-5.805,4.424-13.129,10.781-8.016c4.691,3.773,21.707,11.338,21.707-15.615
			C188.377,87.572,185.941,82.32,182.66,79.93z"/>
		<path opacity="0.95" fill="#010101" d="M153.889,72.135c0,3.413,1.531,7.351,4.084,8.977c-1.33-1.932-2.084-4.583-2.084-6.977
			c0-7.877,0.691-24.19,8.301-42.435c-0.811-0.338-1.611-0.646-2.414-0.957C154.57,48.562,153.889,64.409,153.889,72.135z"/>
		<path opacity="0.95" fill="#010101" d="M36.272,112.422c-1.895-2.753-4.961-4.045-8.696-1.041
			c-2.917,2.348-10.597,6.154-15.991,2.223c5.281,6.954,14.687,2.436,17.991-0.223C32.194,111.275,34.484,111.282,36.272,112.422z"
			/>
		<path opacity="0.95" fill="#010101" d="M98.123,139.645c7.977,0,12.913,1.497,15.836,3.717c-2.391-3.281-7.643-5.717-17.836-5.717
			c-26.953,0-19.389,17.016-15.615,21.707c5.113,6.359-2.211,10.781-8.016,10.781c-7.527,0-22.765-0.646-40.022-7.343
			c-0.141,0.349-0.267,0.692-0.413,1.042c18.244,7.609,34.558,8.301,42.436,8.301c5.805,0,13.129-4.422,8.016-10.781
			C78.734,156.66,71.169,139.645,98.123,139.645z"/>
	</g>
	<g opacity="0.5">
		<path fill="#FFFFFF" d="M97.123,56.887c-7.918,0-13.695-1.447-17.282-4.296c3.212,4.181,9.681,6.296,19.282,6.296
			c10.965,0,17.844-2.76,20.452-8.201c2.793-5.833-0.43-13.218-3.279-16.759c-1.852-2.302-1.229-3.603-1.023-4.031
			c0.924-1.927,4.279-3.495,7.482-3.495c13.096,0,25.66,2.18,37.418,6.484c0.137-0.361,0.27-0.724,0.412-1.083
			c-12.445-4.912-25.834-7.401-39.83-7.401c-3.203,0-6.559,1.568-7.482,3.495c-0.205,0.428-0.828,1.729,1.023,4.031
			c2.85,3.541,6.072,10.926,3.279,16.759C114.967,54.127,108.088,56.887,97.123,56.887z"/>
		<path fill="#FFFFFF" d="M157.543,83.545c1.59,2.154,3.676,3.332,5.965,3.332c1.807,0,3.627-0.729,5.416-2.166
			c1.498-1.205,5.357-3.484,9.244-3.484c1.633,0,2.975,0.459,4.098,1.229c-1.389-1.971-3.346-3.229-6.098-3.229
			c-3.887,0-7.746,2.279-9.244,3.484c-1.789,1.438-3.609,2.166-5.416,2.166C160.084,84.877,158.74,84.408,157.543,83.545z"/>
		<path fill="#FFFFFF" d="M116.295,163.605c2.85-3.541,6.072-10.928,3.279-16.76c-0.725-1.512-1.791-2.809-3.172-3.904
			c0.457,0.593,0.848,1.228,1.172,1.904c2.793,5.832-0.43,13.219-3.279,16.76c-1.852,2.303-1.229,3.605-1.023,4.033
			c0.355,0.74,1.07,1.426,1.996,1.991C115.059,167.195,114.453,165.895,116.295,163.605z"/>
		<path fill="#FFFFFF" d="M10.868,98.768c0-8.002,1.598-17.54,9.209-17.54c3.886,0,7.747,2.278,9.245,3.483
			c1.788,1.438,3.61,2.167,5.416,2.167c5.155-0.001,8.618-6.071,8.618-11.741c0-14.517-2.588-28.411-7.694-41.336
			c12.445-4.911,25.835-7.4,39.83-7.4c1.973,0,4,0.596,5.485,1.503c-0.001-0.002-0.004-0.006-0.004-0.008
			c-0.923-1.927-4.279-3.495-7.481-3.495c-13.995,0-27.385,2.489-39.83,7.4c5.106,12.925,7.694,26.82,7.694,41.336
			c0,5.67-3.463,11.74-8.618,11.741c-1.805,0-3.627-0.729-5.416-2.167c-1.498-1.205-5.358-3.483-9.245-3.483
			c-7.612,0-9.209,9.538-9.209,17.54c0,6.285,1,13.498,5.112,16.312C11.528,109.6,10.868,103.877,10.868,98.768z"/>
		<path fill="#FFFFFF" d="M43.356,122.398c0-4.061-1.782-8.313-4.683-10.409c1.695,2.27,2.683,5.392,2.683,8.409
			c0,14.514-2.588,28.408-7.694,41.333c0.8,0.315,1.605,0.621,2.412,0.917C40.903,150.031,43.356,136.509,43.356,122.398z"/>
	</g>
</g>
</svg>
