<?xml version="1.0" encoding="utf-8"?>
<!-- Generator: Adobe Illustrator 14.0.0, SVG Export Plug-In . SVG Version: 6.00 Build 43363)  -->
<!DOCTYPE svg PUBLIC "-//W3C//DTD SVG 1.1//EN" "http://www.w3.org/Graphics/SVG/1.1/DTD/svg11.dtd">
<svg version="1.1" id="Layer_1" xmlns="http://www.w3.org/2000/svg" xmlns:xlink="http://www.w3.org/1999/xlink" x="0px" y="0px"
	 width="200px" height="200px" viewBox="0 0 200 200" enable-background="new 0 0 200 200" xml:space="preserve">
<g>
	<g>
		
			<path fill="#FAA41A" stroke="#5D190F" stroke-width="1.7088" stroke-linecap="round" stroke-linejoin="round" stroke-miterlimit="10" d="
			M26.021,99.658c0,0-3.065-0.069-3.356-5.167c-0.291-5.098,6.233-9.77,6.233-9.77s0.274,1.595,2.763,4.65
			c2.489,3.057,2.686,6.771,0.557,8.973c-2.132,2.204-4.499,1.753-4.499,1.753L26.021,99.658z"/>
		
			<path fill="#E66420" stroke="#5D190F" stroke-width="1.7088" stroke-linecap="round" stroke-linejoin="round" stroke-miterlimit="10" d="
			M39.02,123.915c0,0-6.539-0.447-9.575-9.918c-3.036-9.471-0.846-14.07-0.846-14.07s-0.171-0.878-1.087-1.261
			c-0.917-0.383-1.479,0.324-1.479,0.324s-3.4,11.356,1.48,19.312c4.882,7.955,11.532,10.06,11.532,10.06L39.02,123.915z"/>
		
			<path fill="#F38C1E" stroke="#5D190F" stroke-width="1.7088" stroke-linecap="round" stroke-linejoin="round" stroke-miterlimit="10" d="
			M69.584,165.998c0,0-2.594,6.852-2.227,13.054c0.367,6.206,1.98,6.208,2.678,5.826c0.697-0.381,0.831-1.671,0.831-1.671
			s0.083,2.053,1.926,2.15c1.843,0.096,1.681-1.449,1.681-1.449s0.476,2.08,1.793,1.824c1.317-0.257,0.908-2.175,0.908-2.175
			s0.39,1.641,1.785,0.879c1.395-0.761,0.28-3.245,0.914-8.628c0.636-5.383,3.272-7.509,3.272-7.509L69.584,165.998z"/>
		
			<path fill="#F38C1E" stroke="#5D190F" stroke-width="1.7088" stroke-linecap="round" stroke-linejoin="round" stroke-miterlimit="10" d="
			M44.039,146.988c0,0,0.567,6.691-3.056,13.111c-3.623,6.422-7.567,8.137-6.775,9.14c0.791,1.002,2.433,0.612,2.433,0.612
			s-1.079,1.298,0.037,2.167c1.115,0.87,2.587-0.398,2.587-0.398s-0.364,1.192,0.78,1.673c1.146,0.476,2.036-1.976,2.036-1.976
			s-0.326,1.746,1.077,1.929c1.402,0.184,2.807-1.247,6.572-6.397c3.765-5.152,5.162-9.141,5.162-9.141L44.039,146.988z"/>
		
			<path fill="#F99F1C" stroke="#5D190F" stroke-width="1.7088" stroke-linecap="round" stroke-linejoin="round" stroke-miterlimit="10" d="
			M57.048,73.351c0,0-6.383-4.683-10.586-11.684c-4.203-7-4.466-12.488-5.496-12.918c-1.03-0.431-1.404,1.431-1.404,1.431
			s-0.583-1.185-1.737-0.995c-1.156,0.189-1.024,2.127-1.024,2.127s-0.905-1.051-1.984,0.247
			c-1.081,1.297,0.347,16.551,5.913,26.407c5.564,9.855,8.399,11.441,8.006,13.025c-0.392,1.585-10.014,13.032-10.03,30.775
			c-0.016,17.745,3.82,30.777,20.067,39.85c16.248,9.074,30.478,11.386,43.601-0.075c13.126-11.463,18.689-30.251,19.5-30.585
			c0.812-0.332,10.559-0.162,18.731-2.666c8.172-2.503,9.059-3.343,9.347-4.029c0.286-0.687-0.811-1.281-0.811-1.281
			s2.177-0.703,1.968-2.134c-0.207-1.433-1.524-1.176-1.524-1.176s1.585-1.22,0.469-2.091c-1.117-0.87-4.315,1.964-12.229,0.944
			c-7.91-1.019-10.391-3.13-10.391-3.13L57.048,73.351z"/>
		
			<path fill="#FCB658" stroke="#5D190F" stroke-width="1.7875" stroke-linecap="round" stroke-linejoin="round" stroke-miterlimit="10" d="
			M41.822,143.046c0,0-0.869-1.542,0.033-2.819c0.902-1.277,2.012-0.623,2.012-0.623s-2.503-2.149-1.168-4.901
			c1.332-2.752,3.412-1.79,3.412-1.79s-2.15-2.554-0.968-4.725c1.184-2.172,3.942-1.295,3.942-1.295s-2.51-2.795-1.144-5.625
			c1.366-2.83,3.846-2.163,3.846-2.163s-1.211-3.264,0.494-5.584c1.705-2.32,5.573-0.798,5.573-0.798s-0.57-3.915,1.609-5.396
			c2.179-1.478,5.4,0.052,5.4,0.052s0.506-3.19,2.83-3.689c2.323-0.501,4.207,2.031,4.207,2.031s1.496-2.04,3.68-1.771
			c2.186,0.27,3.181,3.168,3.181,3.168s2.56-2.608,4.765-1.503c2.203,1.104,2.223,3.042,2.124,3.278
			c-0.098,0.234,1.724-1.487,3.824-0.794c2.1,0.694,1.778,3.226,1.778,3.226s1.255-1.684,3.759-0.638
			c2.505,1.047,1.582,3.694,1.582,3.694s1.744-1.754,3.171-0.331c1.429,1.426,0.466,3.506,0.466,3.506s1.679-1.597,3.44-0.311
			c1.759,1.287,0.825,3.746,0.825,3.746s2.297-0.879,3.411,0.413c1.115,1.292-0.113,3.354-0.113,3.354s2.218,0.19,2.881,2.125
			c0.666,1.931-1.104,3.305-1.104,3.305s2.173,0.081,2.642,2.482c0.465,2.399-2.144,3.15-2.144,3.15s1.805,1.396,1.397,3.249
			c-0.405,1.852-2.146,2.503-2.146,2.503s2.034,1.953,0.936,3.699c-1.098,1.748-3.335,1.826-3.335,1.826s1.197,1.971,0.087,3.529
			c-1.11,1.558-3.432,0.956-3.432,0.956s1.667,2.167,0.127,4.096c-1.541,1.931-3.375,1.258-3.375,1.258s0.735,2.421-0.688,3.849
			c-1.423,1.429-3.727,0.557-3.727,0.557s0.932,0.85,0.089,2.428s-2.905,1.453-2.905,1.453s0.286,0.854-0.85,2.034
			c-1.136,1.18-10.315,4.017-23.014-0.528c-12.876-4.607-17.786-8.914-21.636-13.557C43.744,148.53,41.822,143.046,41.822,143.046z"
			/>
		<path fill="#F3AF3E" d="M35.424,51.726c0,0,0.564,11.9,5.229,19.979c4.667,8.079,11.573,16.63,11.992,18.782
			c0.419,2.152-4.07,6.274-7.236,14.64c-3.164,8.364-4.896,19.768-4.438,25.297c0.458,5.531,1.143,8.782,1.143,8.782
			s-0.514,0.443-0.608,0.668c-0.094,0.224-0.155,0.528-0.155,0.528s-3.776-14.625-1.487-27.048
			c2.289-12.422,8.41-20.607,9.058-21.524c0.645-0.917,0.441-1.529-0.719-3.33c-1.158-1.802-6.701-7.94-9.613-16.273
			c-2.911-8.333-3.815-17.213-3.636-18.589C35.132,52.265,35.424,51.726,35.424,51.726z"/>
		
			<rect x="69.19" y="27.099" transform="matrix(0.9226 0.3859 -0.3859 0.9226 16.1645 -24.9663)" fill="#F3AF3E" width="2.182" height="1.378"/>
		
			<path fill="#E76E1F" stroke="#5D190F" stroke-width="1.7088" stroke-linecap="round" stroke-linejoin="round" stroke-miterlimit="10" d="
			M108.02,15.58c0,0,2.297-2.965,5.373-2.737c3.074,0.228,4.065,4.718,4.065,4.718s2.328-3.406,4.482-2.055
			c2.15,1.352,1.119,4.545,1.119,4.545s3.047-2.955,6.431-0.938c3.384,2.018,2.92,5.296,2.92,5.296s4.128-2.655,6.934,0.027
			c2.804,2.681,0.55,6.269,0.55,6.269s5.274-1.42,7.275,1.379c2,2.797-0.907,6.867-0.907,6.867s4.118-1.903,6.247,0.948
			c2.13,2.853-1.023,6.063-0.605,5.785c0.419-0.278,4.749-0.883,5.999,1.904c1.252,2.785-2.01,6.254-2.01,6.254
			s4.33-0.607,5.462,3.187c1.133,3.795-3.583,6.051-3.583,6.051s4.175,1.238,4.42,4.836c0.244,3.6-4.721,5.828-4.721,5.828
			s4.419,1.979,3.766,5.473c-0.651,3.493-5.608,5.054-5.608,5.054s2.996,3.134,1.608,6.454c-1.387,3.321-6.685,3.125-6.685,3.125
			s3.061,3.296,0.386,6.482c-2.675,3.185-6.512,2.389-6.512,2.389s2.41,5.177-0.923,7.684c-3.334,2.507-6.253-1.131-6.253-1.131
			s1.838,6.549-2.229,7.271c-4.066,0.722-6.333-3.185-6.333-3.185s1.606,4.841-3.1,6.775c-4.709,1.933-6.126-3.365-6.126-3.365
			s-0.588,5.268-4.538,4.424c-3.949-0.843-3.975-5.292-3.975-5.292s-2.029,6.147-7,4.203c-4.972-1.941-3.153-7.905-3.153-7.905
			s-2.563,6.46-7.601,4.355c-5.04-2.104-3.594-7.82-3.594-7.82s-5.578,4.662-7.619,2.466c-2.04-2.196-1.217-6.425-1.217-6.425
			s-3.609,2.526-7.119-0.016c-3.511-2.543-1.427-6.244-1.427-6.244s-4.107,3.394-6.367,0.433c-2.26-2.96-0.213-7.215-0.213-7.215
			s-3.733,1.534-6.698-1.992c-2.967-3.525,3.396-9.743,2.958-9.658c-0.439,0.085-5.243,2.249-7.052-1.467
			c-1.811-3.713,3.08-7.051,3.08-7.051s-5.01-0.881-5.8-5.111c-0.788-4.229,4.424-6.085,4.424-6.085s-4.024-3.564-2.847-6.704
			c1.176-3.139,5.844-2.4,5.844-2.4s-2.976-2.856-1.561-4.956c1.414-2.098,4.552-0.922,4.552-0.922s-3.165-4.012-0.91-6.835
			c2.256-2.823,6.881,0.588,6.881,0.588s-3.183-4.289-0.49-7.197c2.695-2.91,6.788-0.795,6.788-0.795s-4.377-4.653-1.473-7.742
			c2.906-3.09,6.845,0.036,6.845,0.036s-1.256-5.367,1.954-7.254c3.209-1.888,6.708,2.936,6.708,2.936s-0.423-7.035,3.271-7.508
			c3.695-0.475,5.885,3.936,5.885,3.936s1.858-5.41,5.446-4.987C107.032,10.989,108.02,15.58,108.02,15.58z"/>
		
			<path fill="#FAA41A" stroke="#5D190F" stroke-width="1.7088" stroke-linecap="round" stroke-linejoin="round" stroke-miterlimit="10" d="
			M104.056,39.888c0,0,7.596,0.607,16.12,4.772c8.528,4.165,14.725,9.925,14.725,9.925s5.868-6.456,10.676-2.788
			c4.808,3.667,2.713,10.492-0.728,12.226c-3.442,1.731-4.267,1.538-4.267,1.538s-11.034,21.356-25.074,26.058
			c-14.042,4.703-21.882,1.428-30.327-7.988c-8.446-9.415-5.188-22.999-2.289-29.938c2.898-6.94,7.586-12.381,7.586-12.381
			s-4.063-8.34,2.185-11.013C101.145,26.671,104.056,39.888,104.056,39.888z"/>
		
			<path fill="#FAA41A" stroke="#5D190F" stroke-width="1.7088" stroke-linecap="round" stroke-linejoin="round" stroke-miterlimit="10" d="
			M68.127,118.187c0,0-0.112-3.274,2.391-4.11c2.501-0.838,3.987,3.009,3.987,3.009s1.759-3.568,4.622-2.372
			s2.373,4.622,2.373,4.622s3.507-3.243,5.642-1.273c2.137,1.966,0.809,4.506,0.809,4.506s4.23-2.401,6.433-0.271
			c2.204,2.13,0.31,5.373,0.31,5.373s4.145-1.228,5.699,1.171c1.552,2.397-1.371,5.211-1.371,5.211s3.494,0.651,3.711,3.029
			c0.217,2.375-3.164,3.385-3.164,3.385s2.508,3.334,0.301,6.042c-2.208,2.708-5.529,1.321-5.529,1.321s1.83,3.993-1.378,5.88
			c-3.21,1.886-5.908-0.988-5.908-0.988s0.073,4.333-3.678,3.977c-3.752-0.356-4.97-3.556-4.97-3.556s-1.349,3.875-4.536,2.812
			c-3.188-1.062-2.583-4.441-2.583-4.441s-2.236,3.102-5.051,1.791c-2.814-1.311-1.551-5.623-1.551-5.623s-3.707,2.754-5.651,0.329
			c-1.946-2.426,0.997-4.962,0.997-4.962s-4.306,1.294-5-1.551c-0.693-2.845,3.155-4.332,3.155-4.332s-4.936,0.225-4.569-4.192
			c0.366-4.419,4.776-4.999,4.776-4.999s-3.738-2.638-2.182-5.08c1.559-2.441,5.986-1.129,5.986-1.129s-1.887-3.208,0.492-5.04
			C65.067,114.892,67.966,118.253,68.127,118.187z"/>
		<path fill="#F4B948" d="M91.015,41.424c0,0-7.365,8.554-9.537,18.22c-2.171,9.664-1.735,16.813,3.949,23.603
			c5.683,6.789,12.82,9.21,12.82,9.21S85.25,82.922,84.485,73.585c-0.764-9.336,0.752-18.031,3.364-24.279
			C90.458,43.056,91.015,41.424,91.015,41.424z"/>
		<path fill="#FFF2DF" d="M96.833,50.424c-1.947,1.07-2.592,3.337-2.239,5.429c0.273,1.606,1.267,2.498,2.577,2.833
			c1.961,0.924,4.574,0.558,5.804-1.741C104.934,53.288,100.755,48.272,96.833,50.424z M99.838,55.049
			c0.089-0.191,0.175-0.384,0.21-0.579c0.032-0.185-0.073-0.368-0.229-0.458c0.013-0.048,0.027-0.097,0.04-0.146
			c0.101-0.464-0.521-0.659-0.797-0.348c-0.058,0.066-0.114,0.137-0.171,0.208c-0.441,0.168-0.825,0.515-1.093,0.896
			c-0.213,0.307-0.035,0.632,0.26,0.702c0.04,0.29,0.373,0.474,0.668,0.31c-0.022,0.103-0.037,0.208-0.039,0.319
			c-0.015-0.014-0.024-0.028-0.041-0.041c-0.313-0.25-0.984-0.064-1.104-0.603c-0.092-0.413,0.002-0.746-0.077-1.123
			c0.271-0.517,0.565-0.99,1.034-1.367c0.157-0.126,0.314-0.21,0.469-0.263c0.173-0.03,0.349-0.048,0.525-0.057
			c0.665,0.085,1.201,0.745,1.334,1.461c0.002,0.091-0.002,0.188-0.013,0.281C100.452,54.407,100.155,54.76,99.838,55.049z"/>
		<path fill="#FFF2DF" d="M126.874,66.098c-0.218-0.418-0.503-0.767-0.835-1.052c-2.117-2.748-6.662-1.257-7.404,1.953
			c-0.962,4.144,4.51,5.69,7.298,3.778C127.56,69.657,127.728,67.732,126.874,66.098z"/>
		<path fill="#FEC671" d="M51.485,93.749c-0.175,0.386-0.529,0.653-0.707,1.048c-0.265,0.583,0.647,0.977,0.911,0.393
			c0.176-0.387,0.529-0.655,0.708-1.051C52.662,93.558,51.749,93.164,51.485,93.749z"/>
		<path fill="#FEC671" d="M49.317,102.001c-0.015-0.403,0.168-0.871,0.466-1.146c0.198-0.184,0.284-0.455,0.111-0.693
			c-0.145-0.2-0.495-0.294-0.694-0.111c-0.58,0.536-0.898,1.266-0.872,2.059C48.351,102.749,49.337,102.637,49.317,102.001z"/>
		<path fill="#FEC671" d="M55.161,102.36c-0.294-0.36-0.223-0.764-0.059-1.174c0.238-0.592-0.673-0.987-0.912-0.391
			c-0.288,0.716-0.349,1.516,0.167,2.148C54.76,103.438,55.566,102.856,55.161,102.36z"/>
		<path fill="#FEC671" d="M58.24,96.922c-0.145-0.201-0.493-0.294-0.693-0.111c-0.459,0.421-0.731,0.918-0.968,1.485
			c-0.248,0.591,0.664,0.984,0.912,0.392c0.162-0.385,0.323-0.784,0.639-1.072C58.328,97.434,58.412,97.161,58.24,96.922z"/>
		<path fill="#FEC671" d="M61.636,102.297c-0.589-0.247-0.984,0.665-0.391,0.912C61.834,103.455,62.229,102.544,61.636,102.297z"/>
		<path fill="#FEC671" d="M49.062,109.694c-0.018-0.503,0.214-0.997,0.403-1.449c0.246-0.589-0.666-0.984-0.912-0.394
			c-0.261,0.626-0.501,1.263-0.479,1.951C48.096,110.443,49.083,110.329,49.062,109.694z"/>
		<path fill="#FEC671" d="M43.315,118.746c-0.089-0.222-0.163-0.444-0.201-0.681c-0.007-0.045-0.012-0.089-0.018-0.135
			c0.003,0.021-0.008-0.182-0.008-0.109c0-0.033,0.003-0.068,0.008-0.1c0.001-0.015,0.001-0.022,0.001-0.029
			c0.001-0.002,0.001-0.002,0.001-0.004c0.22-0.597-0.691-0.993-0.912-0.392c-0.211,0.578-0.016,1.259,0.203,1.806
			C42.625,119.698,43.551,119.343,43.315,118.746z"/>
		<path fill="#FEC671" d="M43.204,125.126c0.021-0.271-0.138-0.522-0.418-0.563c-0.256-0.037-0.542,0.147-0.564,0.419
			c-0.019,0.234-0.057,0.541-0.115,0.717c-0.016,0.048-0.035,0.092-0.054,0.138c0,0.002-0.004,0.01-0.005,0.014
			c-0.012-0.014-0.023-0.019-0.034-0.028c-0.009-0.009-0.015-0.013-0.02-0.019c-0.006-0.007-0.016-0.019-0.031-0.035
			c-0.041-0.046-0.074-0.094-0.11-0.142c-0.101-0.133-0.184-0.279-0.266-0.427c-0.131-0.236-0.494-0.255-0.694-0.11
			c-0.238,0.174-0.241,0.456-0.11,0.692c0.303,0.546,0.843,1.303,1.573,1.068C43.025,126.632,43.156,125.716,43.204,125.126z"/>
		<path fill="#FEC671" d="M48.863,114.593c-0.329,0.174-0.738,0.419-1.126,0.36c-0.247-0.037-0.18-0.777-0.172-0.914
			c0.037-0.635-0.944-0.786-0.982-0.146c-0.038,0.644-0.029,1.452,0.565,1.86c0.639,0.434,1.466,0.085,2.071-0.234
			C49.777,115.223,49.426,114.294,48.863,114.593z"/>
		<path fill="#FEC671" d="M53.85,86.553c-0.596,0.244-1.157,0.48-1.767,0.392c0.059-0.31,0.101-0.622,0.207-0.918
			c0.214-0.6-0.695-0.997-0.912-0.392c-0.172,0.479-0.176,0.994-0.346,1.47c-0.088,0.248-0.004,0.55,0.261,0.653
			c1.033,0.397,1.929,0.125,2.914-0.278C54.799,87.237,54.443,86.31,53.85,86.553z"/>
		<path fill="#FEC671" d="M116.071,124.753c-0.331,0.241-0.663,0.471-1.045,0.626c-0.389,0.154-0.457-0.099-0.518-0.451
			c-0.111-0.627-1.099-0.522-0.987,0.109c0.114,0.651,0.38,1.251,1.091,1.381c0.722,0.129,1.504-0.469,2.042-0.86
			C117.173,125.183,116.589,124.38,116.071,124.753z"/>
		<path fill="#FEC671" d="M123.077,124.722c-0.31,0.195-0.8,0.398-0.913-0.093c-0.063-0.264-0.257-0.473-0.549-0.438
			c-0.245,0.026-0.5,0.282-0.438,0.547c0.118,0.504,0.365,0.963,0.892,1.128c0.561,0.175,1.116-0.039,1.592-0.34
			C124.203,125.183,123.615,124.384,123.077,124.722z"/>
		<path fill="#FEC671" d="M134.267,122.267c-0.471,0.572-1.52,1.659-2.013,0.55c-0.261-0.585-1.188-0.229-0.928,0.354
			c0.308,0.69,0.802,1.143,1.582,1.141c0.866-0.004,1.632-0.814,2.133-1.425C135.448,122.392,134.672,121.771,134.267,122.267z"/>
		<path fill="#FEC671" d="M44.163,64.943c-0.312,0.027-0.548,0.112-0.82,0.08c-0.027-0.503,0.092-0.936,0.299-1.435
			c0.246-0.589-0.664-0.984-0.911-0.393c-0.299,0.718-0.612,1.623-0.315,2.398c0.139,0.363,0.706,0.454,1.047,0.456
			c0.274,0.004,0.536-0.096,0.806-0.121C44.909,65.869,44.799,64.883,44.163,64.943z"/>
		<path fill="#FEC671" d="M41.876,72.515c-0.16,0.103-0.399,0.222-0.555,0.21c-0.016-0.001-0.017,0.001-0.026,0
			c-0.038-0.098-0.023-0.209-0.011-0.31c0.081-0.634-0.902-0.781-0.982-0.145c-0.071,0.552,0.05,1.111,0.595,1.364
			c0.512,0.237,1.128-0.039,1.561-0.316C42.998,72.974,42.411,72.172,41.876,72.515z"/>
		<path fill="#FEC671" d="M47.969,68.875c-0.015,0.008-0.031,0.018-0.047,0.025c0.01-0.093,0.035-0.18,0.069-0.268
			c0.232-0.594-0.679-0.99-0.912-0.393c-0.173,0.44-0.249,0.984,0.057,1.388c0.366,0.481,0.98,0.323,1.414,0.05
			C49.095,69.338,48.508,68.536,47.969,68.875z"/>
		<path fill="#FEC671" d="M51.989,75.555c-0.559,0.229-1.091,0.455-1.661,0.407c0.104-0.197,0.228-0.381,0.393-0.536
			c0.464-0.431-0.115-1.239-0.582-0.804c-0.457,0.426-0.729,0.915-0.968,1.484c-0.102,0.244,0.006,0.553,0.261,0.651
			c1.031,0.403,1.931,0.127,2.914-0.275C52.939,76.239,52.581,75.313,51.989,75.555z"/>
		<path fill="#FEC671" d="M46.669,78.9c-0.366,0.068-1.034,0.206-1.307,0c0,0,0-0.001,0-0.001c0.011,0.002,0.005-0.018,0-0.018
			c-0.009-0.076,0.003-0.142,0.019-0.221c0.052-0.264,0.217-0.523,0.349-0.752c0.323-0.552-0.592-0.94-0.912-0.392
			c-0.333,0.572-0.718,1.425-0.216,2.021c0.514,0.613,1.485,0.479,2.176,0.349C47.405,79.77,47.3,78.782,46.669,78.9z"/>
		<path fill="#FEC671" d="M128.211,126.599c-0.216,0.12-0.546,0.303-0.802,0.214c-0.215-0.075-0.23-0.454-0.245-0.633
			c-0.061-0.639-1.046-0.528-0.987,0.108c0.057,0.604,0.271,1.156,0.842,1.437c0.578,0.284,1.271-0.041,1.775-0.323
			C129.352,127.088,128.763,126.288,128.211,126.599z"/>
		<path fill="#FEC671" d="M141.007,121.722c-0.26,0.147-0.581,0.329-0.89,0.284c-0.19-0.027-0.159-0.591-0.158-0.701
			c-0.004-0.643-0.992-0.524-0.988,0.11c0.006,0.609,0.178,1.279,0.806,1.52c0.616,0.234,1.288-0.11,1.812-0.408
			C142.145,122.209,141.553,121.408,141.007,121.722z"/>
		<path fill="#FEC671" d="M116.693,132.276c-0.358,0.294-0.778,0.491-1.204,0.67c0.022-0.168,0.178-0.343,0.255-0.513
			c0.259-0.585-0.653-0.977-0.912-0.394c-0.128,0.284-0.288,0.528-0.354,0.837c-0.09,0.432,0.184,0.809,0.478,1.085
			c0.123,0.114,0.337,0.139,0.488,0.076c0.634-0.261,1.298-0.52,1.833-0.957C117.771,132.676,117.189,131.87,116.693,132.276z"/>
		<path fill="#FEC671" d="M114.499,140.585c-0.212,0.022-0.411,0.083-0.608,0.162c-0.006,0.004-0.008,0.004-0.013,0.006
			c0.156-0.38,0.339-0.764,0.624-1.032c0.199-0.185,0.286-0.454,0.11-0.691c-0.143-0.198-0.495-0.298-0.691-0.111
			c-0.569,0.53-0.864,1.235-1.16,1.94c-0.084,0.207-0.025,0.444,0.146,0.585c0.285,0.229,0.576,0.369,0.946,0.346
			c0.266-0.018,0.494-0.188,0.756-0.22C115.245,141.497,115.136,140.511,114.499,140.585z"/>
		<path fill="#FEC671" d="M108.048,152.332l-1.261,1.088c-0.482,0.415,0.1,1.222,0.582,0.803l1.262-1.086
			C109.113,152.722,108.532,151.915,108.048,152.332z"/>
		<path fill="#FEC671" d="M109.93,148.284l-0.096,0.229c-0.246,0.588,0.666,0.981,0.913,0.391l0.094-0.229
			C111.089,148.085,110.178,147.691,109.93,148.284z"/>
		<path fill="#FEC671" d="M120,128.438c-0.511,0.21-1.062,0.463-1.613,0.255c-0.595-0.228-0.992,0.685-0.392,0.911
			c0.819,0.311,1.585,0.08,2.359-0.239C120.947,129.122,120.591,128.195,120,128.438z"/>
		<path fill="#FEC671" d="M138.14,125.365c-0.63,0.412-1.299,0.692-2.037,0.842c-0.622,0.128-0.519,1.113,0.11,0.986
			c0.912-0.183,1.729-0.512,2.509-1.024C139.259,125.817,138.671,125.017,138.14,125.365z"/>
		<path fill="#FEC671" d="M55.531,107.937c-0.443,0.522-0.78,1.119-1.225,1.64c-0.413,0.488,0.362,1.107,0.776,0.62
			c0.442-0.521,0.781-1.119,1.223-1.64C56.722,108.067,55.945,107.449,55.531,107.937z"/>
		<path fill="#FEC671" d="M61.927,98.014c-0.217-0.58-0.152-1.179,0.072-1.746c0.233-0.594-0.676-0.989-0.912-0.392
			c-0.319,0.806-0.396,1.671-0.085,2.493C61.227,98.97,62.153,98.611,61.927,98.014z"/>
		<path fill="#FEC671" d="M43.398,110.176c-0.147-0.388-0.156-0.814-0.304-1.202c-0.227-0.6-1.153-0.243-0.927,0.354
			c0.147,0.39,0.157,0.814,0.305,1.204C42.7,111.132,43.625,110.773,43.398,110.176z"/>
		<path fill="#FEC671" d="M65.251,124.695c0.004-0.341-0.004-0.792-0.166-1.102c-0.046-0.093-0.114-0.163-0.192-0.218
			c-0.083-0.113-0.209-0.198-0.336-0.216c-0.293-0.043-0.493,0.158-0.564,0.417c-0.101,0.363-0.368,0.93-0.351,1.412
			c0.016,0.487,0.549,1.078,1.082,0.844C65.177,125.633,65.244,125.137,65.251,124.695z"/>
		<path fill="#FEC671" d="M68.803,121.904c0.054-0.369,0.097-0.807,0.019-1.176c-0.034-0.158-0.124-0.271-0.236-0.338
			c-0.021-0.525-0.871-0.616-0.981-0.029c-0.102,0.547-0.438,1.03-0.456,1.601c-0.015,0.479,0.342,1.187,0.934,1.054
			C68.601,122.899,68.736,122.364,68.803,121.904z"/>
		<path fill="#FEC671" d="M73.119,119.311c0.007-0.169-0.053-0.322-0.164-0.43c-0.163-0.349-0.729-0.471-0.899-0.013
			c-0.177,0.475-0.664,1.748,0.056,2.047C72.986,121.282,73.099,119.806,73.119,119.311z"/>
		<path fill="#FEC671" d="M78.924,119.596c0.034-0.22-0.065-0.375-0.206-0.466c-0.056-0.114-0.15-0.214-0.259-0.262
			c-0.271-0.116-0.518,0.025-0.653,0.26c-0.202,0.351-0.369,0.733-0.429,1.136c-0.04,0.268-0.014,0.661,0.246,0.819
			C78.516,121.635,78.833,120.158,78.924,119.596z"/>
		<path fill="#FEC671" d="M70.484,116.448c-0.04,0.089-0.052,0.114-0.121,0.185c-0.187,0.195-0.12,0.541,0.078,0.697
			c0.225,0.182,0.51,0.118,0.697-0.075c0.115-0.12,0.191-0.263,0.257-0.415C71.648,116.252,70.737,115.859,70.484,116.448z"/>
		<path fill="#FEC671" d="M66.495,128.832c0.035-0.191,0.106-0.365,0.181-0.543c0.246-0.59-0.666-0.983-0.912-0.393
			c-0.107,0.257-0.2,0.517-0.25,0.792C65.399,129.317,66.381,129.462,66.495,128.832z"/>
		<path fill="#FEC671" d="M61.915,131.202c0.104-0.402,0.202-0.803,0.255-1.216c0.082-0.636-0.9-0.781-0.981-0.145
			c-0.052,0.412-0.152,0.814-0.256,1.217c-0.068,0.262,0.171,0.525,0.419,0.563C61.639,131.662,61.846,131.465,61.915,131.202z"/>
		<path fill="#FEC671" d="M62.314,136.156c0.005-0.37,0.125-0.732,0.263-1.072c0.242-0.592-0.669-0.987-0.912-0.393
			c-0.208,0.511-0.332,1.022-0.337,1.574c-0.003,0.271,0.304,0.465,0.547,0.438C62.169,136.672,62.311,136.426,62.314,136.156z"/>
		<path fill="#FEC671" d="M60.868,125.41c0.095-0.375,0.153-0.763,0.297-1.123c0.235-0.594-0.676-0.991-0.912-0.393
			c-0.176,0.443-0.252,0.912-0.368,1.371c-0.065,0.263,0.172,0.526,0.419,0.563C60.592,125.869,60.802,125.672,60.868,125.41z"/>
		<path fill="#FEC671" d="M58.608,131.368c-1.277-0.653-1.505,1.61-1.562,2.352c-0.024,0.344,0.251,0.537,0.517,0.549
			c0.168,0.059,0.358,0.021,0.493-0.176C58.464,133.495,59.682,131.917,58.608,131.368z"/>
		<path fill="#FEC671" d="M59.533,140.1c-0.004-0.146,0.024-0.307,0.101-0.432c0.143-0.229,0.153-0.514-0.077-0.698
			c-0.192-0.153-0.555-0.153-0.698,0.078c-0.228,0.365-0.329,0.729-0.312,1.159c0.01,0.271,0.294,0.467,0.548,0.438
			C59.378,140.614,59.544,140.367,59.533,140.1z"/>
		<path fill="#FEC671" d="M66.659,135.561c0.301-0.757,0.766-2.193-0.245-2.447c-0.685-0.172-1.031,0.561-1.022,1.116
			c0.008,0.434,0.128,0.856,0.252,1.271c-0.018,0.165,0.043,0.305,0.153,0.401C66.048,136.247,66.649,136.009,66.659,135.561z"/>
		<path fill="#FEC671" d="M64.582,141.412c-0.026-0.28-0.059-0.583-0.126-0.867c0.001-0.006,0.003-0.008,0.005-0.012
			c0.177-0.57-0.616-0.947-0.867-0.477c-0.125,0.101-0.194,0.257-0.166,0.441c-0.148,0.421-0.3,0.833-0.299,1.296
			c0,0.5,0.628,1.314,1.173,0.871C64.673,142.364,64.622,141.837,64.582,141.412z"/>
		<path fill="#FEC671" d="M62.537,145.881c-0.114-0.142-0.172-0.268-0.19-0.448c-0.063-0.639-1.051-0.528-0.987,0.108
			c0.034,0.34,0.156,0.655,0.373,0.92C62.135,146.959,62.94,146.378,62.537,145.881z"/>
		<path fill="#FEC671" d="M68.701,140.458c-0.234-0.201-0.499-0.12-0.655,0.059c-0.197,0.066-0.355,0.232-0.322,0.499
			c0.086,0.701,0.282,1.406,0.68,1.995c0.149,0.224,0.481,0.268,0.693,0.11C70.078,142.396,69.446,141.095,68.701,140.458z"/>
		<path fill="#FEC671" d="M82.045,123.708c0.009-0.027,0.021-0.052,0.027-0.079c0.157-0.619-0.826-0.759-0.983-0.145
			c-0.084,0.334-0.295,0.634-0.398,0.962c-0.123,0.396-0.112,0.784,0.129,1.134c0.201,0.289,0.568,0.237,0.791,0.019
			C82.109,125.109,82.111,124.357,82.045,123.708z"/>
		<path fill="#FEC671" d="M85.055,121.74c0.015-0.436,0.114-0.831,0.383-1.178c0.394-0.506-0.381-1.126-0.773-0.62
			c-0.372,0.478-0.572,1.05-0.592,1.654c-0.01,0.27,0.129,0.521,0.417,0.563C84.737,122.196,85.046,122.01,85.055,121.74z"/>
		<path fill="#FEC671" d="M90.255,124.801c0.001-0.022-0.005-0.044-0.006-0.066c0.012-0.033,0.029-0.064,0.04-0.094
			c0.201-0.603-0.71-1.001-0.912-0.394c-0.186,0.56-0.5,1.028-0.462,1.641c0.026,0.402,0.486,0.528,0.786,0.348
			C90.222,125.919,90.242,125.346,90.255,124.801z"/>
		<path fill="#FEC671" d="M93.094,124.89c0.024-0.396,0.003-0.79-0.177-1.148c-0.121-0.244-0.371-0.39-0.642-0.286
			c-0.232,0.091-0.406,0.4-0.283,0.643c0.103,0.208,0.133,0.415,0.12,0.646c-0.017,0.27,0.134,0.522,0.418,0.563
			C92.78,125.344,93.077,125.159,93.094,124.89z"/>
		<path fill="#FEC671" d="M91.956,130.735c0.005-0.021-0.003-0.035-0.001-0.058c0.027-0.081,0.059-0.158,0.09-0.236
			c0.245-0.59-0.667-0.983-0.912-0.393c-0.114,0.273-0.298,0.678-0.167,0.973c0.171,0.386,0.744,0.438,0.92,0.017
			C91.925,130.945,91.94,130.837,91.956,130.735z"/>
		<path fill="#FEC671" d="M96.499,131.119c0.004-0.112-0.03-0.203-0.078-0.282c0.21-0.578-0.677-0.96-0.917-0.371
			c-0.254,0.613-0.505,1.329-0.351,1.999c0.097,0.427,0.568,0.593,0.881,0.255C96.438,132.284,96.48,131.683,96.499,131.119z"/>
		<path fill="#FEC671" d="M92.096,136.908c0.122-0.487,0.415-0.906,0.531-1.397c0.147-0.624-0.835-0.767-0.981-0.146
			c-0.114,0.483-0.41,0.909-0.532,1.396c-0.066,0.263,0.17,0.526,0.419,0.563C91.82,137.369,92.03,137.17,92.096,136.908z"/>
		<path fill="#FEC671" d="M99.623,136.834c-0.004-0.009-0.012-0.015-0.018-0.025c-0.008-0.178-0.092-0.342-0.284-0.423
			c-0.223-0.098-0.576-0.002-0.651,0.26c-0.135,0.468-0.304,0.916-0.261,1.411c0.029,0.319,0.377,0.523,0.671,0.409
			C99.79,138.189,99.93,137.48,99.623,136.834z"/>
		<path fill="#FEC671" d="M95.702,139.405c0.08-0.402,0.237-0.78,0.396-1.157c0.246-0.591-0.665-0.985-0.911-0.394
			c-0.191,0.458-0.371,0.92-0.466,1.407C94.595,139.889,95.578,140.033,95.702,139.405z"/>
		<path fill="#FEC671" d="M87.201,137.707c-0.069,0.166-0.137,0.338-0.236,0.489c-0.146,0.228-0.149,0.517,0.079,0.698
			c0.193,0.156,0.551,0.151,0.697-0.08c0.147-0.227,0.267-0.465,0.372-0.716C88.361,137.51,87.449,137.115,87.201,137.707z"/>
		<path fill="#FEC671" d="M69.007,148.597c0.149-0.582-0.233-1.169-0.497-1.662c-0.001-0.069,0-0.138-0.003-0.208
			c-0.03-0.641-1.016-0.526-0.987,0.11c0.002,0.046,0.001,0.091,0.001,0.135c-0.009,0.046-0.006,0.091,0,0.137
			c0.001,0.242-0.005,0.483,0.001,0.726c0.012,0.386,0.017,0.873,0.258,1.196C68.192,149.584,68.874,149.115,69.007,148.597z"/>
		<path fill="#FEC671" d="M67.926,151.977c-0.089-0.087-0.127-0.229-0.112-0.342c0.092-0.633-0.891-0.779-0.982-0.146
			c-0.07,0.481,0.131,0.932,0.473,1.262c0.195,0.187,0.541,0.118,0.698-0.079C68.184,152.448,68.12,152.162,67.926,151.977z"/>
		<path fill="#FEC671" d="M72.644,148.137c-0.125-0.242-0.16-0.479-0.181-0.75c-0.048-0.639-1.033-0.527-0.987,0.109
			c0.026,0.345,0.082,0.687,0.24,0.997c0.124,0.241,0.371,0.39,0.642,0.284C72.592,148.688,72.768,148.377,72.644,148.137z"/>
		<path fill="#FEC671" d="M75.522,152.483c0.03-0.1,0.022-0.189-0.001-0.276c0.198-0.417-0.293-0.973-0.723-0.626
			c-0.679,0.55-1.168,1.482-1.002,2.37c0.059,0.313,0.355,0.528,0.671,0.41C75.352,154.025,75.295,153.255,75.522,152.483z"/>
		<path fill="#FEC671" d="M78.224,147.232c-0.029-0.316-0.287-0.447-0.532-0.423c-0.186-0.102-0.423-0.1-0.591,0.12
			c-0.317,0.413-0.479,0.911-0.251,1.406c0.143,0.313,0.467,0.392,0.754,0.226C78.088,148.28,78.271,147.77,78.224,147.232z"/>
		<path fill="#FEC671" d="M82.171,143.171c-0.273-0.116-0.514,0.028-0.651,0.261c-0.136,0.227-0.279,0.45-0.418,0.676
			c-0.145,0.229-0.152,0.515,0.077,0.697c0.192,0.153,0.553,0.151,0.697-0.077c0.189-0.3,0.375-0.601,0.555-0.904
			C82.57,143.592,82.395,143.268,82.171,143.171z"/>
		<path fill="#FEC671" d="M86.231,142.814c0.061-0.237,0.161-0.465,0.255-0.693c0.246-0.589-0.666-0.984-0.913-0.392
			c-0.128,0.311-0.242,0.618-0.323,0.943c-0.068,0.262,0.171,0.526,0.418,0.563C85.955,143.276,86.164,143.079,86.231,142.814z"/>
		<path fill="#FEC671" d="M90.835,140.927c0.096-0.634-0.886-0.779-0.982-0.146c-0.047,0.313-0.214,0.588-0.375,0.855
			c-0.138,0.234,0.037,0.556,0.26,0.653c0.273,0.116,0.516-0.028,0.652-0.261C90.597,141.682,90.775,141.329,90.835,140.927z"/>
		<path fill="#FEC671" d="M92.888,143.284c-0.211,0.278-0.418,0.527-0.712,0.718c-0.54,0.349,0.047,1.151,0.583,0.805
			c0.363-0.236,0.645-0.56,0.904-0.902C94.046,143.393,93.271,142.771,92.888,143.284z"/>
		<path fill="#FEC671" d="M98.104,143.579c0.076-0.261,0.011-0.537-0.259-0.653c-0.055-0.024-0.115-0.033-0.176-0.037
			c-0.041-0.037-0.088-0.07-0.137-0.092c-0.27-0.118-0.516,0.025-0.652,0.26c-0.018,0.027-0.122,0.174-0.169,0.245
			c-0.096,0.139-0.186,0.286-0.25,0.441c-0.151,0.369-0.081,0.759,0.149,1.074c0.172,0.238,0.46,0.246,0.692,0.113
			C97.797,144.647,97.957,144.087,98.104,143.579z"/>
		<path fill="#FEC671" d="M91.507,150.488c0.043-0.146,0.035-0.295-0.024-0.421c0.026-0.384-0.394-0.768-0.763-0.454
			c-0.468,0.394-0.673,0.914-0.901,1.466c-0.154,0.373,0.146,0.687,0.511,0.688C91.026,151.773,91.34,151.053,91.507,150.488z"/>
		<path fill="#FEC671" d="M86.678,147.31c-0.091-0.238-0.396-0.4-0.642-0.284c-0.418,0.195-0.692,0.539-0.879,0.956
			c-0.261,0.583,0.651,0.977,0.912,0.392c0.069-0.155,0.162-0.346,0.324-0.421C86.637,147.836,86.778,147.577,86.678,147.31z"/>
		<path fill="#FEC671" d="M83.147,152.582c-0.012-0.054-0.03-0.101-0.054-0.145c0.15-0.489-0.511-0.969-0.83-0.478
			c-0.477,0.727-1.267,1.967-0.123,2.516c0.186,0.089,0.467,0.029,0.585-0.146C83.066,153.816,83.274,153.202,83.147,152.582z"/>
		<path fill="#FEC671" d="M81.673,148.888c0.038-0.12,0.024-0.225-0.011-0.324c0.164-0.433-0.487-0.874-0.873-0.46
			c-0.554,0.598-1.459,1.558-0.759,2.381c0.171,0.203,0.466,0.286,0.693,0.113C81.298,150.154,81.468,149.551,81.673,148.888z"/>
		<path fill="#FEC671" d="M46.388,156.311c-0.222,0.057-0.493,0.075-0.641-0.131c-0.146-0.205-0.009-0.528,0.09-0.719
			c0.145-0.284-0.312-0.479-0.458-0.197c-0.197,0.388-0.262,0.821-0.034,1.205c0.251,0.425,0.812,0.406,1.221,0.307
			C46.876,156.698,46.694,156.236,46.388,156.311z"/>
		<path fill="#FEC671" d="M48.993,161.082c-0.138,0.002-0.435,0.006-0.517-0.145c-0.098-0.183,0.05-0.436,0.134-0.592
			c0.151-0.284-0.306-0.477-0.456-0.198c-0.158,0.296-0.295,0.682-0.123,1.003c0.199,0.371,0.631,0.428,1.016,0.426
			C49.368,161.575,49.309,161.082,48.993,161.082z"/>
		<path fill="#FEC671" d="M43.981,163.077c-0.438,0.01-0.708-0.168-0.687-0.624c0.021-0.411,0.197-0.812,0.382-1.172
			c0.147-0.284-0.31-0.479-0.455-0.195c-0.257,0.489-0.47,1.056-0.414,1.618c0.066,0.65,0.65,0.875,1.227,0.866
			C44.357,163.564,44.298,163.072,43.981,163.077z"/>
		<path fill="#FEC671" d="M45.853,167.947c-0.289,0.053-0.586,0.044-0.713-0.261c-0.113-0.271-0.007-0.595,0.119-0.84
			c0.146-0.286-0.312-0.481-0.456-0.195c-0.206,0.4-0.292,0.902-0.078,1.317c0.229,0.45,0.721,0.558,1.182,0.471
			C46.221,168.381,46.168,167.888,45.853,167.947z"/>
		<path fill="#FEC671" d="M39.405,168.161c-0.327,0.073-0.725,0.098-0.94-0.211c-0.215-0.31,0.144-0.672,0.373-0.832
			c0.264-0.185-0.03-0.585-0.29-0.402c-0.446,0.312-0.778,0.829-0.562,1.379c0.227,0.581,0.942,0.681,1.474,0.56
			C39.768,168.584,39.718,168.089,39.405,168.161z"/>
		<path fill="#FEC671" d="M71.868,170.164c-0.21,0.208-0.487,0.396-0.794,0.343c-0.241-0.04-0.231-0.31-0.164-0.483
			c0.113-0.299-0.342-0.498-0.456-0.197c-0.166,0.432-0.078,0.888,0.354,1.111c0.51,0.268,1.099-0.114,1.447-0.464
			C72.481,170.247,72.09,169.938,71.868,170.164z"/>
		<path fill="#FEC671" d="M78.121,170.413c-0.149,0.157-0.309,0.309-0.517,0.378c-0.179,0.06-0.318-0.158-0.397-0.278
			c-0.176-0.27-0.576,0.024-0.402,0.29c0.192,0.295,0.452,0.508,0.817,0.487c0.354-0.022,0.658-0.327,0.887-0.565
			C78.73,170.492,78.34,170.186,78.121,170.413z"/>
		<path fill="#FEC671" d="M75.393,174.842c-0.21,0.117-0.468,0.229-0.717,0.206c-0.22-0.021-0.125-0.253-0.07-0.395
			c0.117-0.298-0.339-0.493-0.456-0.196c-0.148,0.385-0.17,0.848,0.267,1.036c0.409,0.175,0.914-0.052,1.268-0.253
			C75.963,175.083,75.667,174.685,75.393,174.842z"/>
		<path fill="#FEC671" d="M70.966,177.633c-0.018-0.477,0.16-0.916,0.513-1.241c0.233-0.212-0.055-0.616-0.292-0.402
			c-0.493,0.452-0.74,1.028-0.714,1.698C70.486,178.007,70.979,177.952,70.966,177.633z"/>
		<path fill="#FEC671" d="M71.885,180.643c-0.155-0.179-0.314-0.349-0.491-0.507c-0.238-0.211-0.548,0.177-0.31,0.389
			c0.143,0.128,0.272,0.265,0.398,0.41C71.692,181.175,72.094,180.885,71.885,180.643z"/>
		<path fill="#FEC671" d="M75.514,180.495c-0.241-0.253-0.2-0.563-0.08-0.863c0.118-0.296-0.337-0.493-0.456-0.194
			c-0.212,0.531-0.181,1.022,0.227,1.445C75.427,181.113,75.734,180.723,75.514,180.495z"/>
		<path fill="#FEC671" d="M78.56,175.977c-0.185,0.004-0.097-0.288-0.075-0.408c0.058-0.313-0.433-0.388-0.491-0.071
			c-0.092,0.496,0.032,0.985,0.62,0.973C78.935,176.464,78.876,175.971,78.56,175.977z"/>
		<path fill="#FEC671" d="M71.193,173.876c-0.15-0.124-0.205-0.261-0.088-0.432c0.178-0.263-0.208-0.576-0.388-0.311
			c-0.27,0.396-0.208,0.827,0.167,1.13C71.133,174.465,71.444,174.077,71.193,173.876z"/>
		<path fill="#FEC671" d="M77.833,181.536c-0.092-0.367-0.17-0.74-0.263-1.109c-0.077-0.312-0.54-0.127-0.463,0.18
			c0.092,0.367,0.172,0.74,0.265,1.109C77.448,182.025,77.911,181.843,77.833,181.536z"/>
		<path fill="#FEC671" d="M75.69,171.977c-0.022-0.199-0.092-0.394-0.115-0.593c-0.036-0.317-0.529-0.264-0.493,0.056
			c0.024,0.199,0.093,0.392,0.115,0.591C75.233,172.352,75.728,172.296,75.69,171.977z"/>
		<path fill="#C3161C" stroke="#430043" stroke-width="1.329" stroke-linecap="round" stroke-linejoin="round" d="M74.597,146.42
			c0,0-3.879-6.202-5.777-12.819c-2.009-6.998,1.863-10.967,5.199-11.257c3.335-0.292,5.537,2.771,5.745,4.657
			c0.208,1.885-0.067,2.267-0.067,2.267s1.507-2.509,4.44-3.119c2.934-0.611,5.823,1.694,5.208,5.742
			c-0.532,3.498-6.624,7.172-10.137,10.183C75.692,145.082,74.597,146.42,74.597,146.42z"/>
		<path fill="#ED1C29" d="M75.326,143.795c0.206-0.762,0.142-1.327-0.289-2.012c-1.138-1.816-1.626-3.653-1.853-5.763
			c-0.167-1.52-1.043-2.867-1.003-4.41c0.071-2.801,2.839-5.383,5.337-3.02c0.09,0.084,0.184,0.114,0.277,0.118
			c0.024,0.015,0.044,0.033,0.072,0.046c0.188,0.092,0.463,0.027,0.583-0.146c0.051-0.071,0.086-0.144,0.113-0.216
			c0.039-0.061,0.066-0.129,0.074-0.222c0.164-2.196-1.763-4.094-3.913-4.428c-2.501-0.39-4.348,0.74-5.443,2.984
			c-1.203,2.472-0.26,5.582,0.579,7.997c0.533,1.537,1.07,3.108,1.728,4.616c0.27,1.099,0.667,2.073,1.278,2.513
			c0.458,0.762,0.971,1.487,1.565,2.159C74.737,144.356,75.208,144.227,75.326,143.795z"/>
		<path fill="#FFF2DF" d="M112.846,68.471c-0.2-0.153-0.411-0.119-0.568-0.003c-0.444-0.085-0.846,0.51-0.425,0.825
			c-0.094,0.075-0.195,0.133-0.296,0.193c-0.092-0.007-0.182-0.005-0.267,0.017c-0.2,0.05-0.394,0.119-0.586,0.189
			c-1.297-0.328-2.585-0.159-3.909-0.705c-2.163-0.891-3.23-2.462-4.525-4.168c0.08-0.057,0.137-0.138,0.171-0.232
			c0.176,0.058,0.342,0.132,0.477,0.235c0.492,0.385,1.097-0.371,0.605-0.756c-0.875-0.683-2.189-0.59-3.258-0.513
			c-1.973,0.062-3.928,0.085-5.717,1.107c-2.017,1.153-3.935,3.02-4.573,5.328c-1.555,5.633,3.47,10.331,7.794,13.008
			c0.031,0.021,0.064,0.025,0.096,0.035c4.188,3.633,10.97,3.365,15.375,0.125C118.646,79.179,117.835,72.292,112.846,68.471z
			 M101.526,73.422c0.641-0.189,1.124-0.711,1.59-1.206c0.487-0.302,0.946-0.642,1.362-0.961c-0.068,0.119-0.128,0.241-0.172,0.373
			c-0.168,0.26-0.317,0.54-0.455,0.847c-0.09,0.2-0.021,0.398,0.115,0.528c-0.299,0.306-0.576,0.627-0.821,0.969
			c-0.334,0.465,0.195,0.961,0.663,0.698c0.06-0.036,0.119-0.073,0.181-0.111c0.029,0.031,0.059,0.062,0.096,0.084
			c-0.087,0.099-0.172,0.196-0.257,0.295c-0.26,0.298-0.052,0.651,0.253,0.748c-0.055,0.528,0.401,1.046,0.935,1.099
			c-0.025,0.069-0.042,0.137-0.055,0.202c-0.47-0.336-1.134-0.375-1.585,0.224c-0.236,0.225-0.472,0.452-0.707,0.677
			c-0.104,0.05-0.193,0.113-0.272,0.182c-0.016,0.001-0.028-0.002-0.041-0.003c-1.176,0.025-1.877-0.342-2.774-1.021
			c-0.738-0.559-0.637-1.708-0.708-2.533c-0.027-0.325-0.182-0.575-0.394-0.752C99.5,73.823,100.485,73.729,101.526,73.422z"/>
		<path fill="#BC141A" d="M104.179,76.284c0.06-0.406-0.023-0.817,0.018-1.208c0.027-0.257,0.268-0.748,0.344-1.071
			c0.083-0.349-0.043-0.693-0.271-0.959c0.162-0.212,0.296-0.444,0.404-0.697c0.255-0.587-0.646-0.974-0.912-0.393
			c-0.092,0.201-0.22,0.384-0.335,0.573c-0.017,0.021-0.036,0.041-0.054,0.06c-0.652-0.034-1.14,0.434-1.289,1.053
			c0.04-0.165-0.063,0.122-0.11,0.261c-0.185-0.006-0.372,0.029-0.557,0.12c-0.101-0.048-0.208-0.085-0.319-0.102
			c-0.69-0.101-1.28,0.384-1.408,1.048c-0.115,0.595-0.028,1.145,0.209,1.596c0.01,0.216,0.052,0.437,0.13,0.656
			c0.218,0.609,0.823,1.116,1.477,1.162c0.719,0.049,1.364-0.288,1.794-0.859c0.061-0.078,0.106-0.162,0.144-0.247
			C103.821,77.04,104.116,76.707,104.179,76.284z"/>
		<path fill="#EECFB1" d="M74.972,125.962c0.13-1.128-1.023-1.368-1.882-1.145c-0.053,0.013-0.112,0.031-0.168,0.05
			c-1.513,0.354-3.139,2.235-1.802,3.581c0.193,0.193,0.541,0.112,0.697-0.077c0.295-0.354,0.534-0.761,0.896-1.049
			c0.283-0.228,0.687-0.218,1.027-0.277C74.358,126.937,74.895,126.634,74.972,125.962z"/>
		<path fill="#EECFB1" d="M77.271,126.06c-0.105-0.177-0.329-0.232-0.522-0.188c-0.011-0.005-0.025-0.013-0.038-0.019
			c-0.157-0.035-0.33-0.059-0.481,0.015c-0.251,0.122-0.324,0.32-0.394,0.572c-0.105,0.379,0.082,0.717,0.427,0.879
			c0.287,0.135,0.67,0.091,0.921-0.096C77.58,126.922,77.494,126.431,77.271,126.06z"/>
		<path fill="#60240D" d="M101.559,53.782c0.044-0.668-0.428-1.175-0.881-1.598c-0.136-0.126-0.282-0.144-0.412-0.104
			c-0.836-0.426-2.051,0.086-2.671,0.679c-0.825,0.789-1.166,2.203-0.526,3.188c0.891,1.364,2.652,0.626,3.52-0.279
			C101.058,55.178,101.514,54.472,101.559,53.782z M98.465,55.158c-0.302-0.104-0.255-0.577-0.185-0.801
			c0.119-0.382,0.446-0.616,0.79-0.777c0.39-0.14,0.66-0.028,0.711,0.422c0.059,0.54-0.364,0.921-0.833,1.072
			c-0.09,0.027-0.153,0.077-0.203,0.131C98.656,55.202,98.561,55.191,98.465,55.158z"/>
		<path fill="#60240D" d="M125.354,67.456c0.009-0.039,0.013-0.077,0.017-0.115c0.027-0.066,0.043-0.139,0.039-0.222
			c-0.005-0.098-0.016-0.189-0.029-0.276c-0.024-0.215-0.084-0.417-0.174-0.599c-0.021-0.065-0.034-0.129-0.059-0.194
			c-0.06-0.163-0.172-0.249-0.298-0.286c-0.353-0.333-0.854-0.529-1.451-0.508c-1.909,0.064-4.27,3.141-2.082,4.478
			c0.865,0.529,1.962,0.323,2.767-0.216C124.866,68.992,125.284,68.264,125.354,67.456z M122.59,68.6
			c-0.851-0.906,1.291-2.078,1.611-1.404c0.192,0.404-0.324,0.921-0.618,1.117c-0.279,0.187-0.637,0.285-0.979,0.298
			C122.599,68.607,122.594,68.604,122.59,68.6z"/>
		<path fill="#60240D" d="M126.62,60.097c-0.632-0.014-0.785,0.969-0.145,0.982c1.794,0.04,3.171,2.452,2.581,4.081
			c-0.217,0.597,0.694,0.996,0.912,0.392C130.755,63.381,129.092,60.152,126.62,60.097z"/>
		<path fill="#60240D" d="M101.255,47.213c-1.903-0.841-3.988-0.548-5.441,0.975c-0.443,0.463,0.338,1.08,0.774,0.621
			c1.148-1.202,2.805-1.333,4.274-0.684C101.448,48.384,101.841,47.473,101.255,47.213z"/>
		<path fill="#420304" d="M109.684,76.057c-0.399-0.5-1.203,0.082-0.805,0.581c0.77,0.958-2.194,1.116-2.488,1.03
			c-1.032-0.305-1.441-1.44-1.599-2.388c-0.305-1.846,0.836-3.775,1.709-5.314c0.05-0.087,0.062-0.17,0.056-0.247
			c0.035-0.045,0.068-0.09,0.103-0.134c0.025,0.015,0.052,0.034,0.075,0.045c0.847,0.468,1.894,0.645,2.855,0.517
			c0.677,0.02,1.38-0.048,1.956-0.276c0.802-0.196,1.512-0.663,2.025-1.571c0.982-1.74-1.333-3.645-2.514-4.477
			c-1.679-1.187-3.364-1.554-5.403-1.483c-1.356,0.046-2.701,0.55-2.955,1.688c-0.248,0.574-0.296,1.265-0.07,2.028
			c0.4,1.364,1.724,2.397,3.122,3.082c-1.021,1.324-1.997,2.611-3.371,3.622c-0.669,0.492-1.431,0.774-2.247,0.895
			c-0.522,0.077-1.03-0.02-1.539-0.12c-0.015-0.004-2.757-1.26-1.765-1.551c0.619-0.18,0.254-1.104-0.355-0.927
			c-0.852,0.25-0.928,1.38-0.429,2.048c0.711,0.956,1.847,1.373,3.001,1.506c-0.434,1.4,0.081,2.906,1.334,3.748
			c1.492,1.005,3.041,0.165,4.167-0.939c0.205,0.281,0.454,0.546,0.761,0.792C106.747,79.359,111.432,78.233,109.684,76.057z
			 M100.808,77.451c-0.926-0.623-1.136-1.835-0.723-2.807c1.641-0.082,2.996-0.988,4.155-2.152c-0.46,1.356-0.653,2.778-0.189,4.017
			C103.193,77.441,102.037,78.278,100.808,77.451z"/>
		<g>
			<path fill="#B01D22" d="M90.911,56.871c-2.027-1.4-5.414-0.749-7.262,0.826c-2.739,2.333-2.404,6.645,0.384,8.725
				c2.992,2.232,7.229-0.312,8.917-2.956C94.56,60.941,93.23,58.128,90.911,56.871z"/>
			<path fill="#ED1C24" d="M88.786,56.843c-1.916-0.535-3.666,0.601-4.888,1.999c-1.242,1.416-1.367,3.136-0.43,4.726
				c0.163,0.275,0.523,0.165,0.663-0.054c0.121-0.086,0.206-0.233,0.187-0.394c0.001-0.011-0.005-0.019-0.004-0.03
				c0.212-0.893,0.38-1.732,0.808-2.476c0.315-0.334,0.636-0.619,0.856-0.809c1.173-1.004,2.436-0.282,3.667-0.754
				C90.932,58.558,89.523,57.049,88.786,56.843z"/>
			<path fill="#EECFB1" d="M88.893,58.256c-0.015-0.339-0.174-0.526-0.421-0.64c-0.052-0.073-0.125-0.134-0.231-0.162
				c-0.452-0.117-0.911-0.018-1.289,0.253c-0.169,0.123-0.217,0.379-0.087,0.549c0.404,0.526,1.083,0.498,1.68,0.433
				C88.769,58.664,88.902,58.471,88.893,58.256z"/>
			<path fill="#EECFB1" d="M89.672,57.946c-0.466-0.194-0.778,0.526-0.31,0.721C89.828,58.863,90.141,58.142,89.672,57.946z"/>
		</g>
		<g>
			<path fill="#B01D22" d="M128.051,74.97c-2.462-1.396-5.437-1.254-7.486,0.074c-2.192,0.988-3.698,2.882-3.44,5.938
				c0.15,1.805,1.392,3.188,3.05,3.762c0.898,0.31,1.757,0.229,2.569-0.065c0.199-0.007,0.404-0.021,0.614-0.051
				C126.776,84.168,132.608,77.556,128.051,74.97z"/>
			<path fill="#ED1C24" d="M124.613,75.048c-1.906-0.447-3.682,0.633-4.784,2.128c-0.939,1.274-1.404,3.242-0.01,4.338
				c0.321,0.253,0.704-0.023,0.703-0.388c0-0.166-0.011-0.324-0.029-0.48c0.589-1.205,1.313-2.192,2.752-2.467
				c0.914-0.174,1.886-0.204,2.61-0.859C126.972,76.315,125.59,75.276,124.613,75.048z"/>
			<path fill="#EECFB1" d="M124.388,76.229c-0.048-0.11-0.116-0.19-0.2-0.254c-0.067-0.188-0.246-0.285-0.451-0.288
				c-0.196-0.004-0.386,0.036-0.565,0.1c-0.329,0.024-0.664,0.131-0.88,0.394c-0.229,0.281-0.195,0.668-0.004,0.956
				c0.188,0.283,0.541,0.417,0.868,0.409c0.39-0.011,0.721-0.246,0.974-0.53C124.356,76.83,124.518,76.519,124.388,76.229z"/>
			<path fill="#EECFB1" d="M125.646,76.004c-0.082-0.071-0.189-0.11-0.316-0.097c-0.221,0.025-0.434,0.25-0.386,0.481
				c0.052,0.246,0.133,0.49,0.42,0.538c0.268,0.046,0.441-0.139,0.544-0.359C126.031,76.296,125.865,76.079,125.646,76.004z"/>
		</g>
		<path fill="#EECFB1" d="M106.958,63.573c-0.181-0.252-0.483-0.315-0.776-0.311c-0.413,0.005-0.856,0.17-1.159,0.465
			c-0.059,0.05-0.11,0.106-0.146,0.167c-0.047,0.067-0.091,0.135-0.124,0.21c-0.126,0.271,0.009,0.496,0.213,0.606
			c0.015,0.019,0.026,0.037,0.045,0.055c0.25,0.251,0.668,0.227,0.984,0.15c0.354-0.085,0.615-0.205,0.868-0.478
			C107.075,64.208,107.147,63.838,106.958,63.573z"/>
		<path fill="#EECFB1" d="M107.958,63.468h-0.002c-0.261-0.072-0.528,0.177-0.563,0.419c-0.041,0.292,0.16,0.49,0.419,0.563
			c0.111,0.031,0.217,0.003,0.323-0.032C108.679,64.235,108.445,63.482,107.958,63.468z"/>
		<path fill="#60240D" d="M98.362,38.585c-0.583-1.479-1.76-4.812-4.034-4.003c-2.398,0.854-2.288,3.812-1.153,5.636
			c0.134,0.214,0.338,0.251,0.517,0.188c0.009-0.001,0.017-0.002,0.026-0.002c0.741-0.14,1.479-0.294,2.212-0.473
			c0.686-0.169,1.438-0.297,2.065-0.633c0.069-0.038,0.125-0.085,0.168-0.138C98.344,39.047,98.462,38.842,98.362,38.585z
			 M95.804,38.943c-0.646,0.175-1.305,0.304-1.962,0.428c-0.359-0.683-0.527-1.43-0.462-2.209c0.067-0.824,0.788-1.743,1.676-1.657
			c1.235,0.118,1.827,1.902,2.226,3.022C96.808,38.713,96.295,38.81,95.804,38.943z"/>
		<path fill="#60240D" d="M143.068,58.084c-0.229-0.896-1.007-1.768-1.952-1.935c-1.136-0.201-2.154,0.268-3.201,0.647
			c-0.105,0.038-0.171,0.101-0.222,0.17c-0.197,0.105-0.317,0.317-0.187,0.576c0.334,0.668,0.524,1.389,0.753,2.097
			c0.256,0.792,0.552,1.581,0.821,2.371c0.085,0.248,0.289,0.328,0.487,0.303c0.072,0.012,0.148,0.012,0.231-0.012
			C141.429,61.834,143.558,59.995,143.068,58.084z M139.861,61.224c-0.196-0.58-0.393-1.156-0.604-1.732
			c-0.232-0.627-0.396-1.273-0.646-1.891c1.317-0.466,3.278-1.032,3.527,0.931C142.288,59.689,140.909,60.771,139.861,61.224z"/>
		<path fill="#60240D" d="M145.688,121.176c-0.697-0.562-1.611-0.184-2.083,0.457s-0.613,1.542-0.192,2.239
			c0.5,0.823,1.512,0.611,2.035-0.009c0.091-0.021,0.18-0.062,0.259-0.145C146.331,123.051,146.443,121.782,145.688,121.176z
			 M144.163,123.156c-0.071-0.34,0.072-0.707,0.27-0.975c0.174-0.236,0.384-0.348,0.655-0.216c0.231,0.11,0.181,0.452,0.068,0.74
			c-0.149,0.015-0.289,0.098-0.353,0.291C144.698,123.313,144.269,123.642,144.163,123.156z"/>
		<path fill="#60240D" d="M147.924,119.638c-0.043-0.144-0.19-0.266-0.347-0.305c-0.153-0.129-0.372-0.179-0.586-0.031
			c-0.26,0.181-0.584,0.443-0.607,0.788c-0.025,0.369,0.222,0.641,0.58,0.703c0.238,0.041,0.539-0.04,0.719-0.204
			C147.967,120.33,148.032,120.003,147.924,119.638z"/>
		<path fill="#60240D" d="M148.793,121.139c-0.022-0.019-0.047-0.024-0.07-0.037c-0.06-0.127-0.171-0.23-0.354-0.259
			c-0.484-0.073-0.97,0.043-1.284,0.441c-0.181,0.229-0.115,0.504,0.078,0.696c0.48,0.483,1.27,0.272,1.705-0.146
			C149.066,121.647,148.981,121.29,148.793,121.139z"/>
		<path fill="#60240D" d="M147.984,123.252c-0.065-0.058-0.132-0.091-0.197-0.107c-0.056-0.033-0.122-0.055-0.199-0.064
			c-0.46-0.05-1.078,0.104-1.176,0.636c-0.086,0.481,0.276,0.834,0.719,0.907c0.3,0.049,0.72-0.011,0.946-0.229
			C148.457,124.033,148.354,123.575,147.984,123.252z"/>
		<path fill="#731C12" d="M130.484,54.101c-1.423,1.17-4.89,1.895-4.235-1.042c0.076-0.35-0.368-0.579-0.635-0.385
			c-1.097,0.799-2.963,0.983-2.78-0.973c0.019-0.194-0.083-0.331-0.22-0.4c-0.079-0.17-0.257-0.277-0.471-0.165
			c-1.857,0.97-5.563,1.333-4.778-1.855c0.081-0.33-0.379-0.605-0.634-0.383c-1.521,1.315-5.12,1.312-3.861-1.584
			c0.166-0.383-0.28-0.689-0.605-0.486c-0.389,0.244-0.764,0.502-1.142,0.762c-1.838,1.262-3.203-0.612-2.798-2.354
			c0.062-0.263-0.202-0.479-0.441-0.459c-0.929,0.077-3.102-0.181-1.854-1.487c0.359-0.375-0.271-0.875-0.627-0.503
			c-1.676,1.752,0.347,2.73,2.042,2.796c-0.154,1.152,0.063,2.552,1.261,3.053c1.246,0.524,2.16,0.06,3.124-0.564
			c-0.258,2.326,2.565,3.054,4.615,1.988c-0.069,2.741,3.289,2.996,5.585,2.018c0.098,1.817,1.793,2.33,3.326,1.667
			c-0.036,2.798,3.729,2.549,5.601,1.01C131.354,54.424,130.886,53.772,130.484,54.101z"/>
		<path fill="#80280D" d="M108.906,34.796c-0.239,0.174-0.71,0.449-1.017,0.259c-0.29-0.18,0.233-0.585,0.363-0.683
			c0.257-0.191-0.035-0.591-0.291-0.402c-0.439,0.327-0.931,0.931-0.437,1.429c0.447,0.45,1.261,0.1,1.673-0.201
			C109.457,35.01,109.165,34.606,108.906,34.796z"/>
		<path fill="#80280D" d="M108.099,28.988c-0.52,0.054-1.059,0.046-1.571-0.058c-0.074-0.016-0.381-0.071-0.397-0.17
			c-0.027-0.169,0.491-0.445,0.593-0.51c0.273-0.169-0.021-0.571-0.29-0.402c-0.509,0.32-1.232,1.01-0.404,1.438
			c0.599,0.311,1.477,0.262,2.125,0.194C108.473,29.446,108.417,28.953,108.099,28.988z"/>
		<path fill="#80280D" d="M115.214,20.887c-0.142-1.489-1.715-1.412-2.92-0.752c-0.2-1.395-1.654-1.342-2.582-0.206
			c-0.203,0.247,0.185,0.558,0.387,0.31c0.407-0.499,1.808-1.525,1.729,0.284c-0.01,0.209,0.203,0.368,0.39,0.238
			c0.855-0.595,2.669-1.212,2.51,0.543c-0.017,0.201,0.214,0.38,0.392,0.238c0.613-0.5,2.393-0.981,1.974,0.534
			c-0.084,0.307,0.407,0.378,0.49,0.073C118.049,20.46,116.356,20.281,115.214,20.887z"/>
		<path fill="#80280D" d="M119.885,29.555c-1.054,1.055-2.864,0.791-2.398-0.995c0.048-0.185-0.176-0.33-0.335-0.267
			c-0.852,0.335-3.018-0.232-1.618-1.309c0.253-0.196-0.039-0.598-0.291-0.402c-1.682,1.294,0.203,2.523,1.682,2.28
			c-0.248,1.97,2.04,2.313,3.348,1.004C120.499,29.639,120.109,29.331,119.885,29.555z"/>
		<path fill="#80280D" d="M123.218,39.493c-0.021-0.321-0.514-0.263-0.494,0.055c0.101,1.688-1.551,1.179-2.033,0.231
			c-0.103-0.204-0.348-0.204-0.46-0.007c-0.853,1.483-1.343-0.625-1.106-1.211c0.092-0.228-0.17-0.443-0.375-0.298
			c-0.59,0.418-1.252,0.715-1.99,0.694c-1.29-0.034-0.572-1.447-0.187-2.035c0.174-0.266-0.212-0.578-0.388-0.31
			c-0.438,0.667-1.203,2.021-0.206,2.61c0.79,0.468,1.771,0.19,2.559-0.246c-0.064,1.234,1.019,2.388,1.914,1.329
			C121.39,41.532,123.335,41.417,123.218,39.493z"/>
		<path fill="#80280D" d="M137.501,44.33c-0.09-0.31-0.553-0.127-0.463,0.177c0.118,0.375,0.214,0.753,0.292,1.141
			c0.272,1.375-0.984,1.251-1.602,1.176c-0.574-0.071-1.616-0.328-1.9-0.911c-0.083-0.17-0.295-0.215-0.426-0.067
			c-0.844,0.978-1.836,0.246-1.811-0.855c0.007-0.261-0.367-0.421-0.475-0.133c-0.447,1.212-1.64,0.548-1.809-0.403
			c0.024-0.008,0.049-0.01,0.074-0.019c0.127-0.039,0.191-0.201,0.143-0.321c-0.086-0.208-0.162-0.257-0.371-0.344
			c-0.147-0.063-0.317,0.033-0.344,0.192c-0.003,0.024-0.001,0.047-0.003,0.07c-0.102,0.015-0.201,0.03-0.301,0.045
			c-0.672-0.039-0.843-0.489-0.518-1.351c0.234-0.215-0.056-0.62-0.289-0.403c-1.239,1.135-0.162,2.255,1.118,2.209
			c0.203,1.185,1.587,1.929,2.385,1.123c0.332,1.062,1.421,1.558,2.359,0.732c0.591,0.707,1.84,0.999,2.678,0.974
			C138.083,47.307,137.878,45.629,137.501,44.33z"/>
		<path fill="#80280D" d="M127.693,31.783c-0.435,0.255-1.223,0.495-1.511-0.099c-0.303-0.624,0.421-1.132,0.908-1.325
			c0.299-0.117,0.12-0.58-0.179-0.463c-0.777,0.306-1.565,1.06-1.193,1.966c0.392,0.951,1.567,0.734,2.267,0.323
			C128.261,32.022,127.966,31.622,127.693,31.783z"/>
		<path fill="#80280D" d="M135.087,36.816c-0.054-0.314-0.548-0.262-0.493,0.054c0.242,1.381-1.24,1.693-1.666,0.388
			c-0.053-0.167-0.327-0.227-0.425-0.067c-0.403,0.655-1.208,0.324-1.285-0.378c-0.021-0.21-0.31-0.303-0.44-0.128
			c-0.862,1.154-2.216-0.297-1.11-1.325c0.233-0.213-0.055-0.619-0.288-0.402c-0.625,0.578-1.037,1.529-0.306,2.228
			c0.543,0.517,1.224,0.539,1.754,0.141c0.304,0.875,1.153,1.197,1.815,0.497C133.425,39.182,135.396,38.58,135.087,36.816z"/>
		<path fill="#80280D" d="M133.641,28.77c-0.911-0.493-2.012-0.134-2.695,0.566c-0.224,0.228,0.166,0.539,0.387,0.31
			c0.503-0.514,1.277-0.766,1.965-0.493c0.831,0.329,0.431,1.21,0.02,1.712c-0.202,0.248,0.185,0.557,0.388,0.31
			C134.292,30.457,134.647,29.315,133.641,28.77z"/>
		<path fill="#80280D" d="M125.733,24.063c-0.757-0.192-1.593,0.313-2.099,0.904c-0.907-1.604-3.802,0.087-2.241,1.678
			c0.223,0.229,0.53-0.161,0.309-0.386c-1.019-1.042,1.205-2.287,1.636-0.701c0.048,0.17,0.331,0.223,0.427,0.067
			c0.338-0.563,0.866-0.963,1.519-1.076c0.941-0.162,0.657,0.729,0.355,1.244c-0.159,0.274,0.298,0.469,0.457,0.196
			C126.502,25.292,126.729,24.317,125.733,24.063z"/>
		<path fill="#80280D" d="M142.572,41.555c-0.58,0.05-1.188-0.085-1.651-0.453c-0.59-0.475,0.001-0.912,0.486-1.123
			c0.294-0.126,0.116-0.589-0.179-0.462c-0.688,0.297-1.375,0.884-0.897,1.668c0.439,0.717,1.532,0.928,2.297,0.864
			C142.947,42.022,142.892,41.528,142.572,41.555z"/>
		<path fill="#80280D" d="M142.299,35.436c-0.251,0.023-0.856,0.073-0.811-0.329c0.043-0.352,0.396-0.635,0.676-0.802
			c0.276-0.161-0.019-0.563-0.291-0.402c-0.462,0.275-0.887,0.748-0.883,1.313c0.008,0.686,0.865,0.759,1.362,0.713
			C142.673,35.901,142.618,35.407,142.299,35.436z"/>
		<path fill="#80280D" d="M145.057,47.862c-0.27,0.268-0.679,0.455-1.019,0.201c-0.366-0.275-0.181-0.787,0.039-1.083
			c0.191-0.257-0.198-0.569-0.387-0.31c-0.4,0.542-0.515,1.237-0.003,1.746c0.527,0.523,1.313,0.199,1.755-0.244
			C145.669,47.944,145.28,47.637,145.057,47.862z"/>
		<path fill="#80280D" d="M115.076,33.545c-0.274,0.441-0.673,0.71-1.21,0.655c-0.722-0.073-0.697-0.76-0.376-1.238
			c0.143-0.212-0.041-0.454-0.282-0.387c-0.437,0.12-0.852,0.081-1.233-0.166c-0.532-0.343-0.103-0.723,0.311-0.867
			c0.303-0.105,0.123-0.567-0.178-0.462c-0.556,0.193-1.235,0.729-0.769,1.377c0.366,0.509,0.945,0.697,1.533,0.665
			c-0.512,1.488,1.685,2.191,2.592,0.733C115.631,33.586,115.245,33.272,115.076,33.545z"/>
		<path fill="#80280D" d="M109.47,25.13c-0.445,0.803-1.511,1.047-1.295-0.259c0.026-0.153-0.115-0.306-0.272-0.283
			c-0.467,0.073-0.922,0.111-1.397,0.085c-0.98-0.054-0.923-1.14-0.255-1.505c0.06-0.022,0.118-0.048,0.179-0.078
			c0.285-0.142,0.13-0.557-0.18-0.463c-1.344,0.665-2.583-1.277-0.67-1.438c0.32-0.026,0.265-0.52-0.055-0.494
			c-2.269,0.192-1.485,2.392-0.033,2.567c-0.26,0.39-0.394,0.876-0.247,1.257c0.313,0.814,1.604,0.717,2.405,0.605
			c-0.062,1.555,1.528,1.549,2.276,0.201C110.081,25.046,109.623,24.854,109.47,25.13z"/>
		<path fill="#80280D" d="M111.958,15.714c-1.049-0.131-1.881,0.589-1.52,1.659c0.102,0.304,0.565,0.124,0.464-0.179
			c-0.522-1.542,2.565-1.147,1.758,0.157c-0.165,0.269,0.22,0.582,0.389,0.311C113.649,16.689,113.006,15.844,111.958,15.714z"/>
		<path fill="#80280D" d="M128.708,22.67c-0.617-0.538-1.441-0.304-1.579,0.52c-0.051,0.316,0.439,0.389,0.493,0.072
			c0.083-0.508,0.487-0.456,0.814-0.17c0.5,0.437,0.413,1.142,0.057,1.631c-0.188,0.258,0.199,0.568,0.388,0.311
			C129.427,24.282,129.437,23.306,128.708,22.67z"/>
		<path fill="#80280D" d="M99.031,24.678c-0.792,0.193-1.959,0.621-1.839-0.942c0.014-0.174-0.153-0.351-0.336-0.269
			c-0.499,0.228-0.949,0.344-1.497,0.275c-1.195-0.146-0.594-1.287-0.081-1.775c0.144-0.136,0.131-0.418-0.111-0.445
			c-0.349-0.04-0.694-0.097-1.039-0.166c-0.237-0.05-0.472-0.116-0.702-0.2c-0.08-0.033-0.159-0.064-0.239-0.097
			c-0.64-0.215-0.527-0.574,0.342-1.08c0.315,0.042,0.39-0.45,0.07-0.493c-0.844-0.114-1.807,0.39-1.422,1.356
			c0.303,0.768,1.561,1.003,2.441,1.113c-0.441,0.532-0.708,1.164-0.229,1.807c0.513,0.688,1.554,0.564,2.307,0.303
			c0.064,1.319,1.067,1.426,2.387,1.106C99.393,25.098,99.341,24.604,99.031,24.678z"/>
		<path fill="#80280D" d="M104.288,16.044c-0.377-0.669-1.163-1.025-1.914-0.844c-0.74,0.179-1.039,0.867-0.715,1.544
			c0.139,0.286,0.603,0.11,0.466-0.18c-0.222-0.455-0.058-0.81,0.446-0.902c0.549-0.1,1.053,0.207,1.314,0.673
			C104.043,16.615,104.441,16.32,104.288,16.044z"/>
		<path fill="#80280D" d="M100.449,22.761c-0.353-0.077-0.715-0.288-0.785-0.67c-0.068-0.383,0.307-0.573,0.624-0.627
			c0.315-0.051,0.261-0.544-0.055-0.492c-0.599,0.098-1.086,0.469-1.069,1.117c0.019,0.64,0.653,1.042,1.212,1.163
			C100.688,23.319,100.76,22.828,100.449,22.761z"/>
		<path fill="#80280D" d="M101.903,30.677c-0.236-0.071-0.458-0.142-0.271-0.392c0.192-0.255-0.194-0.567-0.386-0.311
			c-0.158,0.21-0.248,0.439-0.159,0.699c0.09,0.254,0.383,0.387,0.621,0.46C102.011,31.225,102.21,30.768,101.903,30.677z"/>
		<path fill="#80280D" d="M85.319,28.753c-0.546,0.038-1.152-0.072-1.596-0.411c-0.573-0.437,0.237-0.806,0.616-0.95
			c0.3-0.113,0.122-0.578-0.177-0.463c-0.632,0.24-1.504,0.784-0.991,1.551c0.436,0.655,1.487,0.816,2.202,0.766
			C85.693,29.223,85.637,28.73,85.319,28.753z"/>
		<path fill="#80280D" d="M65.589,49.231c0.144,0.283,0.608,0.106,0.464-0.179c-0.369-0.73-1.154-0.881-1.692-0.224
			c-0.571,0.694-0.275,1.634,0.442,2.079c0.268,0.166,0.582-0.22,0.31-0.388c-0.461-0.287-0.741-0.792-0.421-1.301
			C64.946,48.811,65.364,48.784,65.589,49.231z"/>
		<path fill="#80280D" d="M61.205,56.064C60.85,56,60.46,55.912,60.188,55.655c-0.121-0.115-0.101-0.245-0.045-0.328
			c0.263-0.389,0.892-0.304,1.248-0.049c0.259,0.187,0.569-0.2,0.31-0.386c-0.564-0.408-1.519-0.507-1.959,0.147
			c-0.187,0.277-0.173,0.612,0.024,0.879c0.304,0.413,0.897,0.552,1.371,0.636C61.45,56.611,61.521,56.12,61.205,56.064z"/>
		<path fill="#80280D" d="M58.517,64.531c-0.308,0.102-1.3,0.349-1.205-0.284c0.093-0.626,0.977-0.892,1.489-0.961
			c0.317-0.043,0.263-0.536-0.054-0.494c-0.797,0.109-1.923,0.578-1.939,1.538c-0.017,1.005,1.259,0.871,1.887,0.665
			C58.999,64.894,58.819,64.432,58.517,64.531z"/>
		<path fill="#80280D" d="M60.896,70.04c-0.607,0.04-1.399-0.052-1.819-0.549c-0.479-0.564,0.633-0.918,0.997-1.022
			c0.307-0.086,0.126-0.55-0.18-0.463c-0.68,0.194-1.811,0.743-1.312,1.634c0.437,0.782,1.566,0.948,2.368,0.895
			C61.271,70.511,61.214,70.018,60.896,70.04z"/>
		<path fill="#80280D" d="M63.123,66.183c-0.499-0.094-1.012-0.125-1.473-0.355c-0.883-0.44,0.178-1.32,0.741-1.388
			c0.318-0.038,0.264-0.531-0.056-0.494c-0.723,0.087-1.793,0.838-1.463,1.697c0.331,0.863,1.405,0.886,2.178,1.031
			C63.366,66.733,63.438,66.241,63.123,66.183z"/>
		<path fill="#80280D" d="M69.114,59.773c-0.399-0.148-1.236-0.547-1.068-1.121c0.151-0.517,0.84-0.248,1.135-0.05
			c0.263,0.176,0.575-0.209,0.309-0.388c-0.578-0.389-1.544-0.6-1.887,0.207c-0.371,0.867,0.637,1.559,1.315,1.807
			C69.216,60.338,69.416,59.882,69.114,59.773z"/>
		<path fill="#80280D" d="M75.739,54.498c-0.323,0.071-1.041,0.235-1.296-0.084c-0.217-0.273,0.657-0.768,0.803-0.85
			c0.279-0.159-0.016-0.56-0.29-0.403c-0.467,0.269-1.303,0.843-0.949,1.489c0.317,0.577,1.268,0.455,1.786,0.341
			C76.103,54.924,76.051,54.43,75.739,54.498z"/>
		<path fill="#80280D" d="M76.172,59.275c-0.281,0.1-0.72,0.24-0.98,0.019c-0.241-0.203,0.207-0.717,0.324-0.853
			c0.211-0.241-0.177-0.549-0.387-0.309c-0.334,0.381-0.678,0.953-0.349,1.441c0.335,0.494,1.113,0.327,1.57,0.166
			C76.652,59.632,76.474,59.168,76.172,59.275z"/>
		<path fill="#80280D" d="M73.241,48.109c-0.949-0.373-2.525-0.594-3.168,0.447c-0.424,0.685,0.035,1.216,0.645,1.583
			c-0.505,0.118-0.939,0.409-1.057,0.977c-0.215,1.049,0.941,1.072,1.631,0.812c0.3-0.114,0.121-0.577-0.177-0.463
			c-0.378,0.142-1.212,0.293-0.916-0.383c0.287-0.657,1.225-0.566,1.771-0.418c0.31,0.083,0.376-0.408,0.071-0.492
			c-0.499-0.139-2.091-0.662-1.477-1.455c0.538-0.698,1.815-0.412,2.481-0.15C73.342,48.681,73.541,48.227,73.241,48.109z"/>
		<path fill="#80280D" d="M77.622,38.115c-1.087-0.938-2.414-0.75-3.46,0.152c-0.118,0.103-0.146,0.292-0.01,0.396
			c0.005,0.003,0.01,0.007,0.015,0.01c-0.827,0.284-1.356,1.28-0.863,2.05c-0.463,0.049-0.889,0.271-1.134,0.732
			c-0.689,1.287,1.831,1.551,2.452,1.574c0.316,0.009,0.393-0.48,0.071-0.492c-0.414-0.013-2.369-0.062-2.067-0.886
			c0.187-0.513,0.815-0.512,1.312-0.371c0.135,0.068,0.288,0.131,0.461,0.185c0.308,0.095,0.472-0.296,0.195-0.457
			c-0.15-0.087-0.316-0.151-0.485-0.201c-0.471-0.257-0.796-0.671-0.434-1.251c0.257-0.409,0.656-0.531,1.043-0.459
			c0.228,0.167,0.465,0.31,0.771,0.402c0.267,0.083,0.463-0.222,0.252-0.42c-0.267-0.252-0.543-0.386-0.813-0.446
			c-0.072-0.053-0.143-0.106-0.213-0.162c0.821-0.585,1.759-0.693,2.598,0.031C77.554,38.713,77.864,38.324,77.622,38.115z"/>
		<path fill="#80280D" d="M84.289,37.733c-0.248-0.509-0.724-1.211-1.397-1c-0.623,0.196-0.848,0.95-0.883,1.534
			c-0.021,0.316,0.47,0.392,0.49,0.072c0.025-0.386,0.107-0.847,0.441-1.087c0.387-0.279,0.763,0.407,0.886,0.661
			C83.966,38.198,84.429,38.021,84.289,37.733z"/>
		<path fill="#80280D" d="M155.095,61.804c-0.335,0.199-0.768,0.339-1.116,0.09c-0.352-0.25-0.235-0.739-0.077-1.062
			c0.142-0.286-0.314-0.483-0.455-0.196c-0.269,0.545-0.274,1.148,0.168,1.599c0.481,0.49,1.265,0.273,1.772-0.029
			C155.661,62.043,155.367,61.642,155.095,61.804z"/>
		<path fill="#80280D" d="M144.838,71.24c-0.385,0.048-0.878,0.036-1.159-0.277c-0.296-0.328,0.043-0.723,0.3-0.94
			c0.246-0.205-0.045-0.607-0.29-0.402c-0.437,0.368-0.847,0.972-0.483,1.535c0.36,0.553,1.086,0.652,1.687,0.578
			C145.211,71.693,145.156,71.2,144.838,71.24z"/>
		<path fill="#80280D" d="M151.826,69.264c-0.195,0.206-0.574,0.541-0.892,0.42c-0.319-0.12,0.053-0.753,0.142-0.904
			c0.162-0.275-0.295-0.468-0.456-0.196c-0.264,0.448-0.514,1.191,0.053,1.523c0.539,0.314,1.185-0.158,1.542-0.533
			C152.435,69.341,152.045,69.034,151.826,69.264z"/>
		<path fill="#80280D" d="M154.331,76.011c0.152-0.88-0.65-1.197-1.389-1.139c-0.319,0.025-0.264,0.518,0.055,0.493
			c0.476-0.037,0.931,0.063,0.834,0.622c-0.045,0.272-0.289,0.795-0.601,0.854c-0.313,0.059-0.261,0.554,0.054,0.494
			C153.866,77.224,154.238,76.547,154.331,76.011z"/>
		<path fill="#80280D" d="M158.989,68.139c0.034-0.112,0.02-0.211-0.071-0.292c-0.481-0.421-0.841-0.245-1.365-0.012
			c-0.292,0.128-0.115,0.592,0.18,0.463c0.275-0.123,0.48-0.281,0.731-0.159c-0.27,0.683-0.827,1.125-1.509,1.42
			c-0.292,0.126-0.114,0.591,0.181,0.463C157.987,69.652,158.722,69.061,158.989,68.139z"/>
		<path fill="#80280D" d="M147.122,77.347c-0.26,0.179-0.845,0.515-1.062,0.091c-0.204-0.404,0.106-0.874,0.386-1.146
			c0.231-0.223-0.16-0.53-0.388-0.309c-0.436,0.423-0.758,1.16-0.405,1.736c0.411,0.67,1.24,0.388,1.761,0.029
			C147.678,77.566,147.387,77.165,147.122,77.347z"/>
		<path fill="#80280D" d="M154.506,89.046c0.175-0.703-0.295-1.256-0.933-1.487c-0.3-0.109-0.498,0.346-0.197,0.457
			c0.427,0.153,0.792,0.475,0.634,0.965c-0.15,0.458-0.638,0.66-1.08,0.686c-0.32,0.02-0.264,0.513,0.054,0.494
			C153.652,90.121,154.336,89.734,154.506,89.046z"/>
		<path fill="#80280D" d="M152.844,81.334c-0.293-0.13-0.488,0.326-0.196,0.455c0.299,0.135,0.598,0.359,0.388,0.706
			c-0.185,0.31-0.543,0.49-0.871,0.602c-0.305,0.106-0.123,0.568,0.179,0.464c0.505-0.174,1.049-0.51,1.223-1.046
			C153.747,81.954,153.313,81.545,152.844,81.334z"/>
		<path fill="#80280D" d="M138.646,77.26c-0.304,0.248-1.29,0.919-1.518,0.26c-0.068-0.194,0.049-0.412,0.171-0.557
			c0.247-0.292,0.669-0.401,1.032-0.446c0.317-0.039,0.263-0.534-0.056-0.493c-0.818,0.101-1.902,0.68-1.611,1.674
			c0.1,0.341,0.436,0.55,0.771,0.583c0.556,0.055,1.091-0.285,1.502-0.62C139.187,77.461,138.896,77.058,138.646,77.26z"/>
		<path fill="#80280D" d="M151.452,52.512c-0.31,0.19-0.922,0.486-1.19,0.077c-0.244-0.378,0.32-0.867,0.572-1.042
			c0.265-0.182-0.027-0.584-0.291-0.403c-0.554,0.384-1.051,1.061-0.682,1.736c0.383,0.702,1.379,0.343,1.881,0.033
			C152.016,52.746,151.721,52.345,151.452,52.512z"/>
		<path fill="#80280D" d="M149.228,42.033c-0.145-0.807-0.899-0.767-1.478-0.441c-0.279,0.157,0.015,0.556,0.291,0.402
			c0.161-0.09,0.425-0.237,0.6-0.1c0.126,0.102,0.122,0.363,0.115,0.504c-0.019,0.475-0.221,0.963-0.558,1.297
			c-0.227,0.226,0.163,0.533,0.388,0.31C149.07,43.523,149.347,42.71,149.228,42.033z"/>
		<path fill="#80280D" d="M108.989,38.048c-0.367,0.402-1.896,1.299-1.759,0.137c0.039-0.316-0.451-0.39-0.49-0.071
			c-0.071,0.604,0.188,1.162,0.869,1.147c0.674-0.018,1.325-0.417,1.768-0.901C109.594,38.122,109.204,37.813,108.989,38.048z"/>
		<path fill="#80280D" d="M88.546,24.756c-0.876,0.572-2.87-0.048-1.652-1.149c0.105-0.096,0.103-0.225,0.05-0.324
			c0.125-0.007,0.247-0.013,0.366-0.025c0.319-0.027,0.265-0.522-0.054-0.493c-0.556,0.049-1.152,0.055-1.664-0.195
			c-0.138-0.066-0.25-0.159-0.333-0.274c-0.064-0.085-0.101-0.212-0.099-0.276c0.004-0.219,0.109-0.336,0.31-0.396
			c0.061-0.019,0.203-0.006,0.309,0.029c0.193,0.066,0.354,0.196,0.5,0.334c0.234,0.22,0.542-0.168,0.311-0.388
			c-0.34-0.322-0.797-0.566-1.274-0.444c-0.346,0.087-0.598,0.396-0.643,0.746c-0.053,0.417,0.199,0.796,0.536,1.017
			c0.386,0.256,0.85,0.348,1.316,0.366c-0.549,0.542-0.785,1.289-0.087,1.843c0.667,0.532,1.714,0.479,2.399,0.03
			C89.105,24.983,88.813,24.582,88.546,24.756z"/>
		<path fill="#80280D" d="M81.614,46.475c-0.44,0.199-1.012,0.388-1.452,0.084c-0.311-0.215-0.41-0.63-0.388-0.987
			c0.065-1.094,1.074-1.486,2.017-1.149c0.299,0.106,0.499-0.349,0.195-0.456c-0.647-0.231-1.329-0.271-1.922,0.119
			c-0.484,0.318-0.75,0.915-0.785,1.477c-0.031,0.523,0.152,1.056,0.572,1.385c0.564,0.438,1.348,0.259,1.94-0.009
			C82.084,46.808,81.907,46.343,81.614,46.475z"/>
		<path fill="#80280D" d="M81.578,30.514c-0.624-0.913-1.778-1.136-2.755-0.668c-0.804,0.384-1.185,1.313-0.299,1.853
			c0.27,0.164,0.583-0.221,0.309-0.387c-0.626-0.384-0.215-0.841,0.309-1.069c0.744-0.322,1.574-0.11,2.033,0.563
			C81.355,31.069,81.757,30.776,81.578,30.514z"/>
		<path fill="#80280D" d="M72.25,71.551c-0.857,0.247-1.732,0.18-2.354-0.521c-1.037-1.168,0.902-1.804,1.712-1.91
			c0.288-0.038,0.281-0.435,0.008-0.491c-0.822-0.176-2.592-0.562-2.547-1.716c0.042-1.044,1.896-1.424,2.639-1.574
			c0.285-0.059,0.281-0.42,0.008-0.493c-0.722-0.193-1.433-0.403-2.106-0.729c-1.213-0.589,1.079-1.107,1.374-1.178
			c0.307-0.075,0.256-0.567-0.055-0.493c-0.628,0.148-2.416,0.405-2.272,1.392c0.096,0.663,1.119,1.03,1.982,1.257
			c-0.994,0.304-2.025,0.847-2.067,1.918c-0.039,1,1.017,1.543,1.979,1.848c-0.86,0.296-1.681,0.865-1.356,1.862
			c0.451,1.383,1.989,1.651,3.233,1.29C72.736,71.924,72.555,71.461,72.25,71.551z"/>
		<path fill="#80280D" d="M77.231,66.279c-0.553-0.158-1.14-0.419-1.468-0.915c-0.384-0.586,0.722-0.703,1.05-0.729
			c0.318-0.028,0.263-0.521-0.056-0.494c-0.631,0.052-1.743,0.287-1.543,1.167c0.176,0.779,1.134,1.229,1.821,1.426
			C77.337,66.819,77.539,66.366,77.231,66.279z"/>
		<path fill="#80280D" d="M77.726,73.398c-0.278,0.184-0.776,0.458-1.066,0.143c-0.263-0.284-0.143-0.76-0.021-1.072
			c0.116-0.297-0.338-0.495-0.455-0.196c-0.202,0.517-0.302,1.244,0.166,1.656c0.503,0.448,1.174,0.197,1.667-0.13
			C78.285,73.623,77.99,73.222,77.726,73.398z"/>
		<path fill="#80280D" d="M79.87,52.59c0.31-0.069,0.257-0.563-0.056-0.493c-0.529,0.12-1.002,0.408-1.34,0.835
			c-0.092,0.117-0.055,0.251,0.039,0.348c0.168,0.174,0.375,0.299,0.542,0.474c0.222,0.23,0.528-0.159,0.311-0.387
			c-0.106-0.111-0.225-0.204-0.342-0.299C79.257,52.837,79.548,52.663,79.87,52.59z"/>
		<path fill="#80280D" d="M63.851,74.825c-0.627,0.237-1.247,0.188-1.835-0.079c0.205-0.388,0.483-0.727,0.895-0.91
			c0.291-0.133,0.113-0.596-0.178-0.465c-0.607,0.275-1.011,0.786-1.278,1.385c-0.06,0.133,0.013,0.26,0.129,0.326
			c0.764,0.43,1.623,0.518,2.447,0.207C64.33,75.176,64.152,74.712,63.851,74.825z"/>
		<path fill="#80280D" d="M58.326,76.833c-0.265,0.14-0.787,0.423-1.081,0.209c-0.259-0.189,0.209-0.741,0.322-0.874
			c0.208-0.244-0.181-0.553-0.387-0.309c-0.314,0.371-0.74,1.041-0.321,1.495c0.427,0.463,1.18,0.188,1.646-0.056
			C58.783,77.15,58.607,76.685,58.326,76.833z"/>
		<path fill="#80280D" d="M67.63,79.2c-0.728,0.139-1.542,0.069-2.144-0.398c-0.774-0.6,0.313-1.036,0.835-1.158
			c0.308-0.072,0.257-0.566-0.055-0.493c-0.715,0.167-2.016,0.71-1.418,1.672c0.558,0.896,1.896,1.049,2.836,0.871
			C67.997,79.635,67.944,79.14,67.63,79.2z"/>
		<path fill="#80280D" d="M64.172,87.048c-0.396,0.125-0.824,0.168-1.161-0.116c-0.279-0.236-0.186-0.652-0.043-0.93
			c0.145-0.285-0.312-0.48-0.456-0.196c-0.239,0.472-0.259,1.055,0.131,1.456c0.458,0.465,1.129,0.432,1.708,0.25
			C64.658,87.415,64.477,86.953,64.172,87.048z"/>
		<path fill="#80280D" d="M68.466,83.99c-0.428,0.101-0.886,0.134-1.311,0.012c0.028-0.27,0.221-0.484,0.386-0.705
			c0.191-0.255-0.196-0.567-0.388-0.31c-0.282,0.375-0.559,0.737-0.491,1.233c0.011,0.086,0.064,0.167,0.149,0.2
			c0.544,0.21,1.147,0.196,1.709,0.063C68.828,84.41,68.777,83.917,68.466,83.99z"/>
		<path fill="#80280D" d="M72.799,83.95c-0.192,0.012-0.556,0.033-0.663-0.181c-0.121-0.238,0.024-0.574,0.115-0.797
			c0.12-0.295-0.336-0.492-0.456-0.195c-0.149,0.367-0.296,0.828-0.105,1.206c0.217,0.434,0.732,0.484,1.164,0.461
			C73.175,84.426,73.118,83.932,72.799,83.95z"/>
		<path fill="#80280D" d="M75.345,77.859c-0.446,0.039-1.089,0.034-1.411-0.342c-0.352-0.411,0.405-0.861,0.687-1.01
			s0.105-0.613-0.178-0.464c-0.553,0.294-1.342,0.854-1.019,1.586c0.311,0.706,1.323,0.779,1.974,0.723
			C75.719,78.324,75.664,77.831,75.345,77.859z"/>
		<path fill="#80280D" d="M142.387,83.952c0.074-0.311-0.418-0.381-0.492-0.071c-0.105,0.441-0.438,0.876-0.852,1.069
			c-0.555,0.26-0.396-0.531-0.33-0.834c0.07-0.312-0.42-0.383-0.489-0.072c-0.13,0.583-0.114,1.617,0.767,1.443
			C141.695,85.345,142.227,84.614,142.387,83.952z"/>
		<path fill="#80280D" d="M147.222,79.766c-0.201-0.248-0.604,0.042-0.402,0.291c0.809,1-0.354,1.834-1.185,0.989
			c-0.184-0.187-0.466,0.07-0.388,0.283c0.389,1.089-0.436,3.023-1.538,1.533c-0.19-0.258-0.592,0.033-0.402,0.291
			c1.266,1.711,2.618,0.175,2.53-1.359C146.993,82.297,148.211,80.988,147.222,79.766z"/>
		<path fill="#80280D" d="M143.991,91.035c0.05-0.314-0.44-0.388-0.49-0.07c-0.083,0.514-0.452,0.975-0.92,1.202
			c-0.598,0.292-0.76-0.226-0.753-0.739c0.006-0.321-0.487-0.261-0.493,0.054c-0.013,0.777,0.385,1.427,1.231,1.22
			C143.294,92.524,143.875,91.748,143.991,91.035z"/>
		<path fill="#80280D" d="M149.23,85.292c-0.17-0.272-0.57,0.021-0.401,0.292c0.963,1.537-0.691,2.096-1.91,1.664
			c-0.212-0.076-0.469,0.173-0.299,0.374c0.475,0.562,0.597,1.205,0.194,1.842c-0.414,0.655-1.126,0.622-1.462-0.074
			c-0.137-0.288-0.603-0.11-0.463,0.177c0.974,2.034,3.182,0.019,2.454-1.714C148.908,88.06,150.288,86.982,149.23,85.292z"/>
		<path fill="#80280D" d="M135.364,96.866c-0.01-0.32-0.502-0.263-0.495,0.055c0.052,2.018-1.604,3.472-3.544,2.561
			c-0.209-0.099-0.388,0.123-0.33,0.316c0.671,2.268-1.42,2.566-2.998,1.747c-0.178-0.093-0.354,0.082-0.346,0.256
			c0.052,1.134-0.949,2.903-2.093,1.479c-0.199-0.25-0.603,0.041-0.402,0.291c1.319,1.644,2.809,0.189,2.974-1.416
			c0.855,0.368,1.82,0.492,2.691,0.088c0.854-0.396,0.912-1.316,0.757-2.131C133.675,100.776,135.419,99.091,135.364,96.866z"/>
		<path fill="#80280D" d="M143.811,95.61c-0.184-0.264-0.585,0.029-0.402,0.29c0.823,1.173,0.448,3.375-1.35,2.392
			c-0.154-0.085-0.386,0.079-0.345,0.254c0.358,1.511-1.291,1.462-2.084,0.714c-0.233-0.22-0.543,0.169-0.311,0.388
			c1.049,0.989,2.974,0.783,2.942-0.719C144.189,99.628,144.852,97.094,143.811,95.61z"/>
		<path fill="#80280D" d="M148.25,95.687c-0.048-0.795-0.766-1.51-1.394-1.918c-0.266-0.172-0.578,0.211-0.31,0.388
			c0.465,0.303,0.893,0.717,1.126,1.229c0.361,0.804-0.665,0.753-1.184,0.694c-0.314-0.037-0.39,0.454-0.07,0.492
			C147.072,96.646,148.306,96.655,148.25,95.687z"/>
		<path fill="#80280D" d="M147.787,98.917c-0.083-0.31-0.545-0.127-0.464,0.177c0.123,0.454,0.087,0.984-0.395,1.196
			c-0.439,0.19-0.918-0.098-1.196-0.426c-0.205-0.242-0.607,0.049-0.401,0.292c0.457,0.538,1.156,0.865,1.845,0.566
			C147.893,100.411,147.966,99.579,147.787,98.917z"/>
		<path fill="#80280D" d="M140.279,103.305c-0.093-0.306-0.556-0.125-0.463,0.178c0.575,1.87-1.459,1.996-2.485,0.984
			c-0.149-0.145-0.36-0.002-0.4,0.158c-0.143,0.565-0.439,1.085-0.785,1.551c-0.148,0.203-0.325,0.378-0.526,0.529
			c-0.543,0.417-0.762-0.312-0.858-0.717c-0.074-0.305-0.569-0.256-0.495,0.055c0.173,0.71,0.649,1.69,1.528,1.139
			c0.711-0.446,1.227-1.275,1.506-2.086C138.776,106.201,140.937,105.44,140.279,103.305z"/>
		<path fill="#80280D" d="M105.477,99.61c-0.895,1.094-4.315,2.376-3.438-0.25c0.059-0.179-0.106-0.439-0.318-0.33
			c-1.101,0.576-4.159,1.595-3.174-0.758c0.076-0.184-0.116-0.432-0.317-0.331c-0.601,0.303-1.258,0.455-1.922,0.551
			c-0.392,0.057-0.789,0.059-1.18,0.004c-0.899-0.129-0.258-0.953,0.042-1.317c0.203-0.249-0.185-0.559-0.39-0.31
			c-1.961,2.394,1.387,2.316,3.129,1.738c-0.524,2.059,1.958,1.75,3.533,1.097c-0.461,2.59,3.188,1.725,4.423,0.216
			C106.067,99.673,105.68,99.362,105.477,99.61z"/>
		<path fill="#80280D" d="M115.402,103.017c-0.992,1.235-2.642,1.315-2.868-0.515c-0.022-0.177-0.244-0.295-0.394-0.174
			c-0.884,0.717-2.494,0.651-1.953-0.92c0.104-0.301-0.351-0.5-0.458-0.195c-0.614,1.792,1.036,2.524,2.384,1.735
			c0.474,1.879,2.477,1.876,3.676,0.379C115.989,103.076,115.604,102.767,115.402,103.017z"/>
		<path fill="#80280D" d="M120.216,97.692c-0.029-0.318-0.522-0.262-0.493,0.056c0.166,1.827-1.67,1.865-2.342,0.433
			c-0.07-0.151-0.317-0.24-0.424-0.067c-0.586,0.943-1.822,0.759-1.75-0.476c0.019-0.316-0.473-0.392-0.491-0.073
			c-0.089,1.51,1.462,2.191,2.404,1.151C118.169,100.286,120.42,99.924,120.216,97.692z"/>
		<path fill="#80280D" d="M127.895,92.508c-0.265-0.171-0.577,0.213-0.312,0.388c0.777,0.507,0.78,1.245,0.066,1.811
			c-0.689,0.544-1.6,0.433-2.217-0.143c-0.151-0.139-0.453,0.012-0.402,0.221c0.361,1.494-1.584,1.978-1.923,0.417
			c-0.067-0.31-0.562-0.258-0.493,0.055c0.192,0.89,0.755,1.574,1.734,1.434c0.748-0.107,1.169-0.745,1.215-1.425
			c0.827,0.469,1.845,0.341,2.589-0.336C128.983,94.17,128.796,93.097,127.895,92.508z"/>
		<path fill="#80280D" d="M133.198,90.159c1.417-0.635,1.584-2.672-0.184-3.16c-0.305-0.086-0.376,0.406-0.07,0.49
			c1.46,0.405,0.952,2.12-0.311,2.336c-0.255,0.043-0.286,0.354-0.07,0.473c1.611,0.893,0.663,3.185-1.137,2.442
			c-0.296-0.123-0.491,0.332-0.195,0.455C133.419,94.099,134.712,91.509,133.198,90.159z"/>
		<path fill="#80280D" d="M95.269,83.58c-0.317-0.049-0.39,0.441-0.073,0.493c0.728,0.114,2.406,0.035,2.151,1.165
			c-0.07,0.312,0.419,0.382,0.491,0.073C98.187,83.77,96.29,83.741,95.269,83.58z"/>
		<path fill="#80280D" d="M106.807,111.258c-0.228,0.188-0.646,0.417-0.903,0.136c-0.282-0.308,0.046-0.707,0.299-0.898
			c0.253-0.195-0.038-0.599-0.291-0.404c-0.481,0.369-0.827,1-0.435,1.562c0.396,0.566,1.172,0.379,1.623,0.008
			C107.345,111.457,107.055,111.055,106.807,111.258z"/>
		<path fill="#80280D" d="M115.216,110.619c-0.105,0.146-0.244,0.245-0.396,0.32c0.017-0.187,0.087-0.363,0.16-0.54
			c0.122-0.296-0.332-0.493-0.456-0.196c-0.166,0.397-0.26,0.752-0.154,1.178c0.034,0.141,0.203,0.176,0.321,0.143
			c0.355-0.1,0.689-0.294,0.914-0.595C115.796,110.672,115.408,110.362,115.216,110.619z"/>
		<path fill="#80280D" d="M123.877,110.083c-0.304,0.346-0.666,0.702-1.117,0.818c-0.031-0.321,0.037-0.657,0.115-0.964
			c0.077-0.311-0.414-0.382-0.491-0.074c-0.116,0.47-0.18,0.94-0.063,1.412c0.029,0.111,0.158,0.163,0.26,0.159
			c0.698-0.041,1.243-0.543,1.684-1.043C124.475,110.151,124.087,109.846,123.877,110.083z"/>
		<path fill="#80280D" d="M130.498,109.699c-0.226-0.227-0.531,0.163-0.31,0.386c0.254,0.261,0.029,0.504-0.242,0.607
			c-0.382,0.149-0.745-0.035-0.893-0.404c-0.119-0.295-0.582-0.118-0.463,0.18c0.265,0.66,0.96,0.939,1.612,0.656
			c0.248-0.108,0.478-0.308,0.563-0.572C130.875,110.224,130.727,109.932,130.498,109.699z"/>
		<path fill="#80280D" d="M78.973,83.785c-0.321-0.003-0.659-0.112-0.907-0.315c-0.294-0.239,0.211-0.343,0.396-0.391
			c0.31-0.08,0.127-0.542-0.178-0.463c-0.489,0.128-1.041,0.473-0.717,1.036c0.266,0.461,0.975,0.621,1.459,0.627
			C79.347,84.281,79.288,83.788,78.973,83.785z"/>
		<path fill="#80280D" d="M70.085,88.969c-0.239,0.035-0.535,0.027-0.632-0.235c-0.093-0.253,0.236-0.464,0.417-0.545
			c0.292-0.13,0.115-0.592-0.178-0.462c-0.444,0.198-0.855,0.611-0.714,1.14c0.138,0.512,0.691,0.667,1.163,0.597
			C70.456,89.416,70.401,88.922,70.085,88.969z"/>
		<path fill="#80280D" d="M69.357,95.626c-0.229,0.084-0.661,0.261-0.676-0.105c-0.013-0.318,0.198-0.687,0.372-0.94
			c0.178-0.262-0.208-0.573-0.387-0.309c-0.272,0.397-0.546,0.926-0.465,1.424c0.108,0.672,0.862,0.567,1.335,0.394
			C69.838,95.98,69.66,95.517,69.357,95.626z"/>
		<path fill="#80280D" d="M77.486,100.987c-0.153,0.124-0.626,0.539-0.775,0.213c-0.138-0.304-0.023-0.723,0.094-1.013
			c0.118-0.297-0.337-0.496-0.456-0.198c-0.192,0.48-0.29,1.057-0.029,1.529c0.329,0.598,1.094,0.164,1.458-0.13
			C78.027,101.188,77.737,100.787,77.486,100.987z"/>
		<path fill="#80280D" d="M76.954,92.563c-0.341,0.048-0.65-0.067-0.782-0.401c-0.124-0.311,0.058-0.575,0.357-0.664
			c0.308-0.093,0.126-0.555-0.18-0.463c-0.528,0.159-0.816,0.677-0.669,1.211c0.161,0.595,0.741,0.892,1.328,0.811
			C77.323,93.013,77.27,92.519,76.954,92.563z"/>
		<path fill="#80280D" d="M87.224,92.611c-0.312,0.091-0.623,0.163-0.945,0.205c-0.176,0.022-0.35,0.021-0.524-0.003
			c-0.755-0.076-0.535-1.057-0.066-1.367c0.199-0.132,0.073-0.5-0.173-0.447c-0.268,0.056-2.149,0.211-1.718-0.476
			c0.167-0.269-0.219-0.581-0.389-0.31c-0.688,1.097,0.565,1.375,1.531,1.346c-0.249,0.461-0.262,1.047,0.119,1.456
			c0.555,0.596,1.691,0.251,2.345,0.059C87.711,92.985,87.53,92.521,87.224,92.611z"/>
		<path fill="#80280D" d="M91.249,101.331c-0.25,0.235-1.613,1.161-1.592-0.064c0.004-0.193-0.206-0.387-0.392-0.236
			c-0.36,0.293-2.257,0.647-1.549-0.168c0.198-0.253-0.18-0.553-0.388-0.311c-0.701,0.888-1.824,0.32-1.101-0.708
			c0.185-0.258-0.201-0.57-0.386-0.309c-0.886,1.252,0.134,2.27,1.155,1.879c0.188,0.549,1.446,0.563,2.216,0.22
			c0.259,1.024,1.555,0.824,2.326,0.101C91.77,101.516,91.48,101.112,91.249,101.331z"/>
		<path fill="#80280D" d="M97.72,107.857c-0.252,0.341-0.519,0.602-0.902,0.797c-0.202,0.035-0.403,0.07-0.607,0.104
			c-0.428-0.09-0.699-0.34-0.813-0.745l0,0c0.019-0.012,0.04-0.021,0.056-0.032c0.248-0.147,0.022-0.531-0.234-0.432
			c-0.083,0.031-0.149,0.07-0.208,0.112c-0.839,0.404-3.046,0.955-2.094-0.476c0.176-0.265-0.21-0.578-0.387-0.311
			c-1.283,1.926,0.892,1.883,2.292,1.391c0.114,0.306,0.444,0.616,0.778,0.786c0.985,0.5,1.909-0.072,2.508-0.885
			C98.296,107.911,97.911,107.599,97.72,107.857z"/>
		<path fill="#80280D" d="M102.35,105.046c-0.352,0.268-0.813,0.309-0.786-0.255c0.013-0.317-0.478-0.394-0.492-0.071
			c-0.018,0.396,0.084,0.752,0.448,0.956c0.363,0.202,0.828-0.004,1.122-0.228C102.895,105.254,102.604,104.853,102.35,105.046z"/>
		<path fill="#C36E26" d="M118.706,124.212c-0.073,0.031-0.143,0.054-0.214,0.07c-0.05-0.593,0.19-1.172,0.582-1.625
			c0.211-0.241-0.178-0.55-0.387-0.308c-0.522,0.602-0.83,1.445-0.649,2.239c0.031,0.142,0.127,0.223,0.274,0.22
			c0.208-0.004,0.379-0.056,0.571-0.132C119.182,124.557,119.004,124.094,118.706,124.212z"/>
		<path fill="#C36E26" d="M127.381,122.984c-0.067,0.008-0.139,0.013-0.207,0.004c0.015-0.033,0.035-0.066,0.05-0.095
			c0.16-0.274-0.297-0.469-0.456-0.195c-0.094,0.164-0.177,0.423-0.034,0.587c0.182,0.211,0.442,0.22,0.701,0.192
			C127.753,123.447,127.7,122.953,127.381,122.984z"/>
		<path fill="#C36E26" d="M123.716,128.153c-0.033,0.015-0.066,0.027-0.096,0.042c0.124-0.243-0.226-0.508-0.409-0.268
			c-0.151,0.197-0.293,0.404-0.132,0.645c0.216,0.321,0.522,0.173,0.816,0.044C124.187,128.485,124.01,128.02,123.716,128.153z"/>
		<path fill="#C36E26" d="M115.268,129.104c-0.169-0.009-0.323-0.029-0.389-0.203c-0.067-0.179,0.042-0.411,0.123-0.566
			c0.146-0.286-0.311-0.482-0.456-0.197c-0.323,0.631-0.169,1.419,0.649,1.458C115.512,129.609,115.588,129.12,115.268,129.104z"/>
		<path fill="#A55D1D" d="M116.192,136.83c-0.162,0.016-0.421,0.039-0.542-0.104c-0.115-0.137,0.016-0.383,0.079-0.51
			c0.142-0.288-0.316-0.481-0.456-0.195c-0.157,0.317-0.236,0.683-0.024,0.996c0.212,0.314,0.662,0.336,0.999,0.309
			C116.567,137.298,116.512,136.803,116.192,136.83z"/>
		<path fill="#A55D1D" d="M112.682,144.129c-0.336,0.015-0.39-0.123-0.348-0.439c0.042-0.315-0.448-0.389-0.491-0.069
			c-0.034,0.262-0.032,0.539,0.138,0.758c0.181,0.229,0.487,0.257,0.757,0.244C113.058,144.609,113.002,144.114,112.682,144.129z"/>
		<path fill="#A55D1D" d="M109.165,150.503c-0.163,0.002-0.188-0.094-0.193-0.24c-0.014-0.32-0.506-0.266-0.494,0.054
			c0.017,0.438,0.315,0.686,0.741,0.678C109.54,150.99,109.482,150.496,109.165,150.503z"/>
		<path fill="#A55D1D" d="M105.501,156.122c-0.129-0.064,0.028-0.192,0.104-0.273c0.219-0.234-0.171-0.543-0.387-0.31
			c-0.321,0.343-0.394,0.805,0.086,1.037C105.592,156.718,105.787,156.263,105.501,156.122z"/>
		<path fill="#A55D1D" d="M45.896,105.391c-0.439-0.152-0.259-0.571-0.09-0.886c0.152-0.282-0.305-0.477-0.456-0.196
			c-0.299,0.558-0.366,1.291,0.35,1.538C46,105.951,46.199,105.496,45.896,105.391z"/>
		<path fill="#A55D1D" d="M52.16,105.536c-0.255-0.003-0.288-0.075-0.199-0.306c0.116-0.298-0.339-0.495-0.456-0.195
			c-0.096,0.25-0.138,0.5,0.01,0.737c0.143,0.229,0.46,0.254,0.7,0.258C52.532,106.034,52.476,105.541,52.16,105.536z"/>
		<path fill="#A55D1D" d="M54.693,96.478c-0.471-0.164-0.429-0.561-0.156-0.909c0.197-0.251-0.189-0.561-0.386-0.309
			c-0.463,0.588-0.44,1.4,0.346,1.674C54.797,97.038,54.996,96.583,54.693,96.478z"/>
		<path fill="#A55D1D" d="M58.936,104.376c-0.388,0.234-0.556,0.6-0.507,1.047c0.034,0.318,0.527,0.265,0.493-0.056
			c-0.031-0.279,0.066-0.444,0.306-0.589C59.503,104.613,59.209,104.213,58.936,104.376z"/>
		<path fill="#A55D1D" d="M46.395,117.921c-0.176-0.077-0.241-0.085-0.11-0.229c0.216-0.236-0.172-0.545-0.387-0.311
			c-0.364,0.397-0.136,0.8,0.301,0.995C46.49,118.51,46.686,118.054,46.395,117.921z"/>
		<path fill="#A55D1D" d="M44.926,122.721c-0.287,0.138-0.518-0.017-0.687-0.255c-0.187-0.263-0.589,0.031-0.402,0.292
			c0.293,0.407,0.782,0.66,1.268,0.428C45.391,123.045,45.214,122.584,44.926,122.721z"/>
		<path fill="#A55D1D" d="M42.398,130.089c-0.066,0.045-0.332,0.213-0.371,0.17c-0.079-0.09-0.096-0.238-0.118-0.353
			c-0.062-0.305-0.13-0.655-0.51-0.659c-0.285-0.003-0.27,0.383-0.043,0.475c0.002,0.006,0.003,0.013,0.011,0.031
			c0.024,0.068,0.036,0.143,0.049,0.211c0.034,0.175,0.071,0.349,0.158,0.506c0.255,0.461,0.775,0.253,1.116,0.021
			C42.954,130.311,42.661,129.908,42.398,130.089z"/>
		<path fill="#A55D1D" d="M45.527,71.953c-0.186,0.111-0.404,0.198-0.622,0.161c-0.199-0.033-0.118-0.323-0.08-0.442
			c0.096-0.303-0.359-0.503-0.457-0.197c-0.128,0.41-0.132,0.846,0.286,1.074c0.36,0.197,0.847-0.002,1.164-0.194
			C46.093,72.188,45.797,71.788,45.527,71.953z"/>
		<path fill="#A55D1D" d="M52.01,72.629c-0.076,0.02-0.314,0.088-0.335-0.039c-0.026-0.148,0.097-0.309,0.18-0.417
			c0.195-0.252-0.191-0.563-0.389-0.311c-0.206,0.267-0.385,0.635-0.232,0.969c0.173,0.376,0.62,0.346,0.955,0.26
			C52.5,73.014,52.318,72.551,52.01,72.629z"/>
		<path fill="#A55D1D" d="M50.09,82.725c-0.22-0.001-0.355-0.056-0.313-0.283c0.039-0.216,0.211-0.427,0.37-0.569
			c0.236-0.21-0.054-0.615-0.292-0.401c-0.304,0.272-0.597,0.66-0.586,1.09c0.014,0.489,0.454,0.65,0.876,0.658
			C50.464,83.223,50.405,82.73,50.09,82.725z"/>
		<path fill="#A55D1D" d="M55.683,82.982c-0.426,0.251-0.772,0.039-0.875-0.421c-0.069-0.31-0.563-0.259-0.493,0.053
			c0.084,0.382,0.251,0.688,0.593,0.89c0.34,0.199,0.757,0.062,1.065-0.121C56.249,83.222,55.956,82.821,55.683,82.982z"/>
		<path fill="#A55D1D" d="M48.617,158.167c-0.118-0.05-0.263-0.094-0.355-0.188c0.096-0.156,0.216-0.284,0.373-0.393
			c0.262-0.187-0.03-0.587-0.291-0.404c-0.158,0.112-0.297,0.234-0.418,0.384c-0.095,0.116-0.264,0.347-0.191,0.508
			c0.141,0.303,0.389,0.427,0.688,0.55C48.716,158.747,48.914,158.291,48.617,158.167z"/>
		<path fill="#A55D1D" d="M48.162,163.919c-0.189,0.172-0.456,0.386-0.73,0.34c-0.163-0.027,0.098-0.479,0.132-0.537
			c0.161-0.275-0.297-0.469-0.457-0.195c-0.204,0.347-0.382,0.944,0.093,1.17c0.432,0.207,0.938-0.091,1.254-0.375
			C48.689,164.109,48.4,163.707,48.162,163.919z"/>
		<path fill="#A55D1D" d="M42.072,166.555c-0.248-0.38,0.129-0.817,0.387-1.077c0.226-0.229-0.164-0.536-0.387-0.311
			c-0.441,0.444-0.788,1.091-0.402,1.678C41.847,167.114,42.247,166.821,42.072,166.555z"/>
		<path fill="#A55D1D" d="M73.357,172.538c-0.158,0.09-0.37,0.218-0.563,0.199c-0.117-0.012-0.03-0.402-0.018-0.462
			c0.057-0.313-0.434-0.388-0.492-0.072c-0.06,0.331-0.089,0.792,0.267,0.97c0.36,0.181,0.788-0.056,1.098-0.234
			C73.927,172.779,73.633,172.379,73.357,172.538z"/>
		<path fill="#A55D1D" d="M77.844,172.993c-0.052,0.026-0.102,0.054-0.151,0.078c-0.038-0.111,0.037-0.24,0.088-0.362
			c0.123-0.295-0.334-0.492-0.457-0.195c-0.11,0.266-0.221,0.548-0.07,0.819c0.195,0.358,0.465,0.275,0.767,0.124
			C78.305,173.314,78.129,172.85,77.844,172.993z"/>
		<path fill="#A55D1D" d="M74.132,177.529c-0.115,0.048-0.226,0.106-0.339,0.137c0.013-0.022,0.026-0.043,0.037-0.065
			c0.146-0.286-0.312-0.481-0.455-0.197c-0.08,0.157-0.174,0.266-0.181,0.448c-0.004,0.109,0.036,0.224,0.148,0.265
			c0.366,0.137,0.626,0.021,0.966-0.124C74.603,177.867,74.426,177.403,74.132,177.529z"/>
		<path fill="#A55D1D" d="M70.724,181.555c-0.115,0.031-0.232,0.058-0.351,0.041c-0.069-0.01-0.053-0.194-0.054-0.236
			c-0.004-0.321-0.498-0.263-0.493,0.054c0.002,0.227,0.06,0.467,0.264,0.592c0.251,0.153,0.547,0.085,0.813,0.014
			C71.211,181.936,71.03,181.474,70.724,181.555z"/>
		<path fill="#A55D1D" d="M74.163,182.589c-0.115,0.015-0.22,0.055-0.325,0.094c-0.063-0.21-0.126-0.443-0.272-0.581
			c-0.064-0.062-0.166-0.064-0.245-0.037c-0.129,0.044-0.166,0.164-0.164,0.288c0.001,0.085,0.038,0.14,0.09,0.175
			c0.025,0.063,0.048,0.128,0.07,0.194c0.043,0.116,0.081,0.234,0.125,0.351c0.041,0.102,0.149,0.172,0.26,0.157
			c0.18-0.026,0.337-0.124,0.515-0.148C74.535,183.037,74.48,182.544,74.163,182.589z"/>
	</g>
	<path fill="#A55D1D" d="M50.276,97.297c-0.167,0.147-0.431,0.373-0.672,0.269c-0.202-0.089-0.104-0.491-0.068-0.636
		c0.077-0.311-0.417-0.381-0.49-0.073c-0.1,0.403-0.081,0.915,0.325,1.143c0.409,0.233,0.884-0.026,1.197-0.3
		C50.807,97.49,50.518,97.087,50.276,97.297z"/>
	<g>
		<path fill="#60240D" d="M41.842,57.034c0.076-1.003-0.934-1.625-1.832-1.461c-0.855,0.157-1.674,0.795-2.197,1.469
			c-0.145,0.187-0.129,0.388-0.032,0.544c0,0.027,0.001,0.052,0.006,0.081c0.221,1.126,1.148,1.393,2.168,1.142
			C40.78,58.608,41.771,57.953,41.842,57.034z M38.773,57.558c-0.004-0.03-0.015-0.056-0.024-0.083
			c0.486-0.529,1.521-1.365,2.027-0.734C41.28,57.36,38.973,58.567,38.773,57.558z"/>
		<path fill="#60240D" d="M40.686,52.514c-0.126-0.285-0.489-0.426-0.755-0.223c-0.053,0.041-0.108,0.078-0.162,0.119
			c-0.169,0.129-0.209,0.302-0.181,0.464c-0.003,0.008-0.008,0.014-0.008,0.022c-0.07,0.295-0.067,0.515,0.101,0.783
			c0.168,0.265,0.609,0.271,0.79,0.018C40.725,53.343,40.874,52.939,40.686,52.514z"/>
		<path fill="#60240D" d="M38.407,52.364c-0.171-0.216-0.49-0.339-0.753-0.208c-0.31,0.157-0.437,0.461-0.473,0.793
			c-0.005,0.055,0.006,0.1,0.013,0.146c-0.077,0.266-0.053,0.506,0.114,0.76c0.135,0.21,0.499,0.286,0.692,0.111
			C38.42,53.588,38.835,52.901,38.407,52.364z"/>
		<path fill="#60240D" d="M36.182,54.104c-0.257-0.048-0.428,0.089-0.501,0.274c-0.082,0.033-0.155,0.076-0.207,0.142
			c-0.179,0.224-0.119,0.513,0.078,0.697c-0.102-0.095,0.009,0.014,0.024,0.03c0.05,0.058,0.097,0.118,0.146,0.173
			c0.111,0.13,0.229,0.265,0.375,0.353c0.38,0.231,0.84,0.159,1.056-0.257C37.466,54.911,36.739,54.208,36.182,54.104z"/>
	</g>
</g>
<path fill="#FFD594" d="M69.969,108.486c-0.218,0.163-0.826,0.334-0.498-0.133c0.182-0.262-0.204-0.574-0.387-0.312
	c-0.218,0.31-0.335,0.753,0.028,1.01c0.356,0.253,0.837,0.071,1.148-0.165C70.515,108.693,70.223,108.293,69.969,108.486z"/>
<path fill="#FFD594" d="M76.026,110.199c-0.215,0.111-0.465,0.196-0.7,0.091c-0.214-0.094-0.056-0.395,0.018-0.526
	c0.158-0.278-0.3-0.473-0.456-0.195c-0.205,0.363-0.247,0.817,0.111,1.101c0.342,0.268,0.852,0.177,1.206-0.008
	C76.486,110.518,76.311,110.052,76.026,110.199z"/>
<path fill="#FFD594" d="M64.678,110.454c-0.297,0.091-0.993,0.074-0.764-0.4c0.139-0.288-0.317-0.483-0.457-0.195
	c-0.166,0.343-0.11,0.714,0.207,0.946c0.34,0.248,0.81,0.231,1.193,0.113C65.164,110.823,64.983,110.36,64.678,110.454z"/>
<path fill="#FFD594" d="M69.12,111.615c-0.083,0.026-0.273,0.089-0.297-0.023c-0.034-0.161,0.058-0.336,0.129-0.475
	c0.145-0.284-0.312-0.48-0.457-0.195c-0.145,0.28-0.27,0.679-0.077,0.971c0.204,0.303,0.569,0.28,0.881,0.187
	C69.605,111.984,69.425,111.523,69.12,111.615z"/>
<path fill="#FFD594" d="M61.006,112.998c-0.167,0.098-0.399,0.201-0.592,0.118c-0.136-0.056,0.044-0.334,0.085-0.394
	c0.178-0.262-0.207-0.574-0.388-0.31c-0.229,0.336-0.365,0.773-0.02,1.083c0.338,0.301,0.877,0.095,1.207-0.096
	C61.576,113.24,61.279,112.841,61.006,112.998z"/>
<path fill="#FFD594" d="M66.305,114.102c-0.078,0.068-0.276,0.27-0.394,0.18c-0.116-0.089-0.05-0.379-0.029-0.489
	c0.062-0.315-0.429-0.386-0.49-0.074c-0.066,0.34-0.055,0.75,0.244,0.977c0.312,0.236,0.711,0.029,0.96-0.192
	C66.834,114.294,66.544,113.89,66.305,114.102z"/>
<path fill="#FFD594" d="M56.004,116.573c-0.249,0.05-0.508,0.063-0.739-0.052c-0.202-0.102,0.072-0.357,0.152-0.438
	c0.226-0.229-0.164-0.536-0.387-0.311c-0.285,0.292-0.49,0.736-0.149,1.07c0.297,0.292,0.796,0.299,1.178,0.224
	C56.371,117.004,56.319,116.511,56.004,116.573z"/>
<path fill="#FFD594" d="M58.327,118.652c-0.129,0.029-0.291,0.071-0.419,0.023c-0.063-0.021,0.01-0.249,0.024-0.297
	c0.082-0.309-0.409-0.379-0.492-0.072c-0.074,0.275-0.069,0.545,0.146,0.752c0.2,0.189,0.556,0.14,0.795,0.088
	C58.693,119.08,58.64,118.588,58.327,118.652z"/>
<path fill="#FFD594" d="M54.477,120.764c-0.124,0.056-0.309,0.145-0.435,0.05c-0.105-0.085,0.034-0.343,0.072-0.421
	c0.142-0.288-0.315-0.483-0.456-0.195c-0.151,0.307-0.224,0.705,0.044,0.973c0.257,0.255,0.653,0.191,0.952,0.056
	C54.944,121.093,54.767,120.631,54.477,120.764z"/>
<path fill="#FFD594" d="M51.332,122.641c-0.12,0.035-0.448,0.139-0.514-0.031c-0.068-0.179,0.198-0.444,0.301-0.552
	c0.223-0.23-0.167-0.539-0.388-0.31c-0.268,0.276-0.513,0.681-0.361,1.077c0.174,0.462,0.771,0.385,1.142,0.279
	C51.819,123.016,51.637,122.555,51.332,122.641z"/>
<path fill="#FFD594" d="M52.671,126.213c-0.098,0.017-0.333,0.075-0.415-0.019c-0.089-0.102,0.054-0.342,0.1-0.43
	c0.146-0.286-0.31-0.479-0.455-0.196c-0.135,0.263-0.249,0.615-0.068,0.885c0.198,0.297,0.577,0.308,0.893,0.253
	C53.04,126.652,52.988,126.157,52.671,126.213z"/>
<path fill="#FFD594" d="M52.448,129.768c-0.077,0.03-0.27,0.126-0.355,0.072c-0.081-0.052,0.004-0.297,0.021-0.361
	c0.083-0.309-0.41-0.377-0.491-0.072c-0.07,0.262-0.096,0.597,0.13,0.796c0.25,0.216,0.594,0.138,0.874,0.031
	C52.926,130.115,52.747,129.653,52.448,129.768z"/>
<path fill="#FFD594" d="M48.799,130.534c-0.173,0.081-0.444,0.209-0.534-0.031c-0.078-0.211,0.082-0.467,0.237-0.591
	c0.25-0.199-0.04-0.602-0.291-0.402c-0.357,0.284-0.532,0.724-0.411,1.168c0.148,0.541,0.776,0.51,1.177,0.317
	C49.265,130.859,49.088,130.396,48.799,130.534z"/>
<path fill="#FFD594" d="M50.33,134.072c-0.129,0.087-0.336,0.224-0.5,0.157c-0.119-0.05,0.06-0.41,0.087-0.465
	c0.138-0.286-0.318-0.483-0.457-0.196c-0.166,0.342-0.246,0.75,0.052,1.04c0.306,0.299,0.823,0.055,1.108-0.133
	C50.889,134.296,50.595,133.896,50.33,134.072z"/>
<path fill="#FFD594" d="M46.239,136.614c-0.147-0.011-0.507-0.029-0.548-0.229c-0.04-0.194,0.245-0.358,0.381-0.427
	c0.285-0.144,0.106-0.605-0.179-0.463c-0.37,0.185-0.737,0.489-0.695,0.945c0.042,0.465,0.582,0.635,0.97,0.664
	C46.485,137.13,46.56,136.639,46.239,136.614z"/>
<path fill="#FFD594" d="M49.124,139.119c-0.13,0.114-0.283,0.263-0.46,0.301c-0.028,0.006-0.034,0.004-0.039,0.004
	c-0.038-0.085-0.003-0.208,0.014-0.295c0.06-0.314-0.431-0.386-0.49-0.072c-0.062,0.313-0.046,0.67,0.277,0.825
	c0.338,0.164,0.756-0.153,0.989-0.36C49.651,139.31,49.361,138.905,49.124,139.119z"/>
<path fill="#FFD594" d="M53.479,137.331c-0.127,0.094-0.286,0.208-0.455,0.203c-0.146-0.008-0.133-0.198-0.125-0.303
	c0.023-0.318-0.467-0.392-0.491-0.072c-0.024,0.338,0.048,0.685,0.39,0.829c0.331,0.138,0.712-0.062,0.971-0.257
	C54.026,137.539,53.735,137.137,53.479,137.331z"/>
<path fill="#FFD594" d="M45.103,142.435c-0.054,0.035-0.481,0.313-0.511,0.143c-0.044-0.236,0.221-0.458,0.402-0.547
	c0.284-0.142,0.107-0.609-0.178-0.463c-0.413,0.206-0.846,0.657-0.695,1.164c0.183,0.617,0.903,0.348,1.274,0.105
	C45.662,142.66,45.369,142.261,45.103,142.435z"/>
<path fill="#FFD594" d="M50.51,142.612c-0.19,0.112-0.416,0.204-0.632,0.119c-0.207-0.083-0.24-0.359-0.25-0.548
	c-0.02-0.319-0.512-0.264-0.494,0.056c0.025,0.402,0.178,0.757,0.547,0.946c0.362,0.188,0.803,0.019,1.12-0.171
	C51.077,142.848,50.782,142.449,50.51,142.612z"/>
<path fill="#FFD594" d="M48.024,146.569c-0.226,0.164-0.508,0.294-0.779,0.162c-0.238-0.112-0.096-0.467,0.002-0.62
	c0.166-0.268-0.219-0.581-0.388-0.31c-0.26,0.419-0.369,0.952,0.058,1.307c0.412,0.34,1.018,0.143,1.398-0.137
	C48.573,146.782,48.281,146.379,48.024,146.569z"/>
<path fill="#FFD594" d="M55.515,145.742c-0.183,0.17-0.448,0.353-0.71,0.257c-0.27-0.102-0.116-0.456-0.023-0.628
	c0.153-0.282-0.305-0.476-0.456-0.195c-0.213,0.392-0.265,0.931,0.156,1.207c0.427,0.284,0.98,0.081,1.326-0.238
	C56.039,145.931,55.75,145.528,55.515,145.742z"/>
<path fill="#FFD594" d="M52.781,148.899c-0.163,0.175-0.372,0.271-0.609,0.225c-0.266-0.048-0.284-0.367-0.251-0.576
	c0.049-0.317-0.442-0.389-0.49-0.073c-0.07,0.452,0.07,0.896,0.51,1.095c0.439,0.195,0.927-0.035,1.228-0.36
	C53.386,148.975,52.997,148.666,52.781,148.899z"/>
<path fill="#FFD594" d="M51.491,152.388c-0.214,0.183-0.491,0.371-0.701,0.091c-0.167-0.224-0.163-0.578-0.087-0.831
	c0.09-0.303-0.365-0.504-0.456-0.195c-0.14,0.465-0.125,1.021,0.211,1.404c0.382,0.436,0.937,0.264,1.322-0.066
	C52.023,152.583,51.733,152.179,51.491,152.388z"/>
<path fill="#FFD594" d="M56.704,152.637c-0.432,0.157-0.608-0.317-0.59-0.672c0.015-0.317-0.478-0.393-0.491-0.072
	c-0.034,0.729,0.44,1.505,1.26,1.21C57.183,152.993,57.004,152.53,56.704,152.637z"/>
<path fill="#FFD594" d="M62.145,150.802c-0.316,0.255-0.608,0.257-0.84-0.094c-0.179-0.266-0.578,0.025-0.403,0.292
	c0.378,0.568,1.016,0.625,1.534,0.204C62.684,151.002,62.392,150.601,62.145,150.802z"/>
<path fill="#FFD594" d="M57.207,157.08c-0.219,0.085-0.448,0.1-0.663,0c-0.235-0.107-0.151-0.344-0.054-0.517
	c0.159-0.279-0.298-0.473-0.455-0.198c-0.208,0.366-0.192,0.779,0.137,1.062c0.326,0.283,0.836,0.261,1.213,0.116
	C57.685,157.431,57.506,156.968,57.207,157.08z"/>
<path fill="#FFD594" d="M61.796,154.957c-0.414,0.253-0.871,0.019-0.942-0.452c-0.049-0.315-0.542-0.262-0.492,0.056
	c0.128,0.856,0.992,1.25,1.725,0.799C62.361,155.193,62.067,154.793,61.796,154.957z"/>
<path fill="#FFD594" d="M67.884,155.762c-0.367,0.394-0.78,0.143-0.719-0.361c0.039-0.315-0.454-0.39-0.491-0.07
	c-0.054,0.434,0.083,0.846,0.481,1.062c0.396,0.216,0.844-0.026,1.115-0.319C68.489,155.838,68.098,155.529,67.884,155.762z"/>
<path fill="#FFD594" d="M63.851,158.175c-0.125,0.104-0.344,0.268-0.511,0.153c-0.18-0.124-0.068-0.417,0.005-0.567
	c0.137-0.289-0.319-0.485-0.458-0.199c-0.183,0.384-0.199,0.811,0.111,1.126c0.323,0.329,0.846,0.132,1.143-0.108
	C64.39,158.376,64.099,157.974,63.851,158.175z"/>
<path fill="#FFD594" d="M65.923,161.951c-0.175,0.197-0.458,0.421-0.741,0.319c-0.277-0.096-0.192-0.467-0.112-0.666
	c0.115-0.299-0.341-0.497-0.457-0.197c-0.189,0.483-0.165,1.027,0.331,1.301c0.481,0.268,1.053-0.09,1.365-0.448
	C66.522,162.021,66.134,161.713,65.923,161.951z"/>
<path fill="#FFD594" d="M72.076,159.181c-0.15,0.149-0.383,0.334-0.555,0.122c-0.176-0.218-0.155-0.551-0.098-0.805
	c0.07-0.313-0.421-0.383-0.49-0.072c-0.095,0.427-0.053,0.98,0.296,1.288c0.414,0.367,0.902,0.113,1.235-0.225
	C72.688,159.262,72.298,158.954,72.076,159.181z"/>
<path fill="#FFD594" d="M77.706,157.992c-0.143,0.191-0.33,0.382-0.576,0.417c-0.262,0.039-0.274-0.305-0.265-0.481
	c0.017-0.318-0.474-0.394-0.49-0.074c-0.021,0.419,0.081,0.949,0.57,1.039c0.464,0.087,0.887-0.241,1.149-0.591
	C78.285,158.049,77.898,157.735,77.706,157.992z"/>
<path fill="#FFD594" d="M76.639,161.71c-0.262,0.404-0.96,0.716-0.925-0.032c0.016-0.317-0.475-0.393-0.489-0.071
	c-0.023,0.471,0.127,0.913,0.626,1.031c0.464,0.111,0.94-0.256,1.175-0.618C77.198,161.754,76.813,161.442,76.639,161.71z"/>
<path fill="#FFD594" d="M71.072,164.314c-0.235,0.199-0.525,0.369-0.832,0.238c-0.283-0.122-0.263-0.495-0.206-0.737
	c0.072-0.31-0.417-0.382-0.49-0.071c-0.11,0.459-0.003,0.993,0.445,1.234c0.469,0.251,0.996,0.062,1.372-0.264
	C71.603,164.508,71.313,164.105,71.072,164.314z"/>
<path fill="#FFD594" d="M84.117,158.73c-0.167,0.317-0.404,0.616-0.688,0.836c-0.032,0.027-0.216,0.17-0.263,0.139
	c-0.135-0.087-0.101-0.441-0.1-0.57c0.003-0.321-0.492-0.263-0.494,0.054c-0.004,0.517,0.19,1.183,0.842,0.958
	c0.512-0.178,0.921-0.765,1.16-1.221C84.723,158.644,84.267,158.448,84.117,158.73z"/>
<path fill="#FFD594" d="M81.454,163.376c-0.092,0.062-0.22,0.155-0.333,0.107c-0.114-0.044-0.108-0.33-0.112-0.421
	c-0.016-0.319-0.508-0.264-0.492,0.054c0.013,0.305,0.088,0.633,0.367,0.799c0.285,0.172,0.61,0.032,0.861-0.136
	C82.012,163.602,81.718,163.201,81.454,163.376z"/>
<path fill="#FFD594" d="M77.869,165.92c-0.267,0.133-0.545,0.232-0.845,0.176c-0.303-0.058-0.289-0.412-0.25-0.645
	c0.055-0.315-0.437-0.388-0.49-0.072c-0.08,0.462,0.017,0.879,0.433,1.126c0.395,0.236,0.956,0.066,1.329-0.123
	C78.329,166.239,78.152,165.774,77.869,165.92z"/>
<path fill="#FFD594" d="M89.126,157.56c-0.13,0.167-0.292,0.327-0.518,0.29c-0.194-0.029-0.304-0.264-0.362-0.423
	c-0.108-0.301-0.572-0.121-0.462,0.18c0.13,0.357,0.371,0.641,0.751,0.734c0.39,0.096,0.756-0.188,0.979-0.471
	C89.712,157.617,89.325,157.307,89.126,157.56z"/>
<path fill="#FFD594" d="M87.458,161.719c-0.159,0.249-0.368,0.456-0.647,0.564c-0.342,0.135-0.421-0.166-0.433-0.446
	c-0.014-0.321-0.507-0.264-0.494,0.054c0.021,0.459,0.247,0.934,0.773,0.921c0.492-0.013,0.935-0.386,1.189-0.781
	C88.017,161.763,87.631,161.449,87.458,161.719z"/>
<path fill="#FFD594" d="M84.8,166.09c-0.14,0.187-0.312,0.38-0.557,0.408c-0.214,0.025-0.301-0.263-0.333-0.419
	c-0.062-0.311-0.556-0.261-0.492,0.055c0.079,0.404,0.278,0.777,0.717,0.854c0.428,0.077,0.818-0.275,1.051-0.587
	C85.379,166.146,84.992,165.833,84.8,166.09z"/>
<path fill="#FFD594" d="M94.675,155.574c-0.2,0.293-0.699,0.747-0.821,0.158c-0.064-0.312-0.559-0.26-0.494,0.054
	c0.076,0.365,0.274,0.734,0.696,0.74c0.424,0.009,0.78-0.313,1.007-0.641C95.241,155.622,94.854,155.31,94.675,155.574z"/>
<path fill="#FFD594" d="M92.852,159.674c-0.107,0.096-0.249,0.236-0.406,0.225c-0.138-0.011-0.2-0.229-0.237-0.33
	c-0.106-0.303-0.57-0.122-0.463,0.177c0.098,0.277,0.269,0.565,0.577,0.634c0.313,0.068,0.596-0.102,0.82-0.303
	C93.379,159.863,93.089,159.461,92.852,159.674z"/>
<path fill="#FFD594" d="M99.423,151.247c-0.158,0.131-0.353,0.275-0.571,0.247c-0.183-0.023-0.07-0.334-0.035-0.425
	c0.117-0.297-0.339-0.494-0.454-0.197c-0.133,0.34-0.183,0.803,0.179,1.021c0.392,0.236,0.856,0.019,1.173-0.243
	C99.961,151.448,99.671,151.044,99.423,151.247z"/>
<path fill="#FFD594" d="M103.836,147.332c-0.116,0.087-0.281,0.229-0.389,0.072c-0.104-0.153-0.051-0.42-0.018-0.584
	c0.061-0.315-0.432-0.388-0.491-0.072c-0.068,0.35-0.077,0.811,0.213,1.073c0.301,0.271,0.688,0.129,0.975-0.087
	C104.383,147.54,104.091,147.138,103.836,147.332z"/>
<path fill="#FFD594" d="M103.813,143.23c-0.094,0.073-0.413,0.34-0.518,0.142c-0.122-0.225-0.018-0.524,0.085-0.734
	c0.139-0.29-0.316-0.485-0.456-0.197c-0.186,0.386-0.266,0.869-0.016,1.246c0.297,0.444,0.87,0.199,1.194-0.056
	C104.358,143.436,104.066,143.034,103.813,143.23z"/>
<path fill="#FFD594" d="M107.546,139.878c-0.123,0.066-0.332,0.192-0.473,0.095c-0.129-0.093-0.106-0.35-0.097-0.482
	c0.025-0.315-0.466-0.393-0.49-0.072c-0.029,0.348,0.008,0.694,0.277,0.941c0.268,0.246,0.684,0.128,0.963-0.018
	C108.005,140.193,107.828,139.729,107.546,139.878z"/>
<path fill="#FFD594" d="M105.806,135.804c-0.194,0.176-0.495,0.397-0.683,0.109c-0.158-0.242,0.005-0.556,0.181-0.728
	c0.229-0.223-0.161-0.531-0.386-0.31c-0.368,0.357-0.458,0.93-0.174,1.362c0.336,0.511,0.982,0.305,1.353-0.031
	C106.332,135.994,106.042,135.59,105.806,135.804z"/>
<path fill="#FFD594" d="M108.968,132.491c-0.263,0.073-0.514,0.051-0.585-0.25c-0.072-0.306-0.568-0.254-0.493,0.056
	c0.151,0.635,0.657,0.823,1.256,0.659C109.455,132.869,109.272,132.407,108.968,132.491z"/>
<path fill="#FFD594" d="M104.054,130.302c-0.415,0.158-0.705,0.083-0.86-0.351c-0.106-0.301-0.57-0.124-0.462,0.177
	c0.246,0.69,0.839,0.888,1.502,0.637C104.532,130.65,104.353,130.188,104.054,130.302z"/>
<path fill="#FFD594" d="M106.013,126.609c-0.126,0.062-0.253,0.124-0.393,0.143c-0.056,0.007-0.04-0.194-0.039-0.259
	c0.003-0.319-0.49-0.262-0.495,0.054c-0.002,0.24,0.046,0.539,0.292,0.649c0.271,0.122,0.566-0.005,0.813-0.123
	C106.478,126.935,106.3,126.472,106.013,126.609z"/>
<path fill="#FFD594" d="M100.378,124.38c-0.184,0.159-0.507,0.406-0.753,0.224c-0.244-0.182-0.042-0.593,0.083-0.775
	c0.181-0.261-0.205-0.572-0.388-0.309c-0.273,0.397-0.465,0.993-0.083,1.396c0.417,0.436,1.036,0.209,1.433-0.135
	C100.91,124.572,100.62,124.17,100.378,124.38z"/>
<path fill="#FFD594" d="M104.195,122.657c-0.075,0.024-0.24,0.087-0.316,0.037c-0.074-0.048-0.027-0.26-0.019-0.326
	c0.04-0.316-0.45-0.39-0.491-0.07c-0.034,0.257-0.042,0.566,0.17,0.757c0.234,0.21,0.559,0.147,0.832,0.066
	C104.68,123.03,104.499,122.567,104.195,122.657z"/>
<path fill="#FFD594" d="M86.722,113.886c-0.192,0.161-0.536,0.386-0.787,0.211c-0.242-0.17,0.026-0.53,0.151-0.676
	c0.211-0.244-0.178-0.552-0.387-0.311c-0.337,0.39-0.518,0.945-0.105,1.348c0.401,0.392,1.058,0.129,1.418-0.17
	C87.258,114.085,86.968,113.683,86.722,113.886z"/>
<path fill="#FFD594" d="M81.361,113.537c-0.157,0.059-0.418,0.162-0.575,0.05c-0.124-0.089,0.155-0.371,0.203-0.421
	c0.222-0.232-0.167-0.541-0.387-0.311c-0.264,0.273-0.453,0.655-0.229,1.012c0.24,0.383,0.826,0.263,1.166,0.133
	C81.838,113.886,81.659,113.423,81.361,113.537z"/>
<path fill="#FFD594" d="M92.323,118.588c-0.198,0.142-0.441,0.286-0.696,0.245c-0.205-0.031-0.07-0.371-0.029-0.475
	c0.117-0.299-0.338-0.496-0.457-0.197c-0.159,0.404-0.189,0.871,0.239,1.107c0.39,0.216,0.92-0.052,1.232-0.28
	C92.873,118.8,92.582,118.397,92.323,118.588z"/>
<path fill="#FFD594" d="M99.3,119.92c-0.35,0.12-0.766,0.187-1.125,0.064c-0.425-0.146-0.175-0.563,0.01-0.815
	c0.19-0.259-0.197-0.57-0.388-0.313c-0.324,0.445-0.585,1.106-0.02,1.48c0.485,0.323,1.183,0.224,1.702,0.047
	C99.782,120.278,99.602,119.816,99.3,119.92z"/>
</svg>
