<?xml version="1.0" encoding="utf-8"?>
<!-- Generator: Adobe Illustrator 16.0.0, SVG Export Plug-In . SVG Version: 6.00 Build 0)  -->
<!DOCTYPE svg PUBLIC "-//W3C//DTD SVG 1.1//EN" "http://www.w3.org/Graphics/SVG/1.1/DTD/svg11.dtd">
<svg version="1.1" id="Layer_1" xmlns="http://www.w3.org/2000/svg" xmlns:xlink="http://www.w3.org/1999/xlink" x="0px" y="0px"
	 width="95px" height="95px" viewBox="0 0 95 95" enable-background="new 0 0 95 95" xml:space="preserve">
<path d="M94.203,25.467c0-13.996-11.345-25.341-25.341-25.341c-9.242,0-17.301,4.961-21.729,12.35
	c-4.479-7.144-12.404-11.91-21.46-11.91c-13.997,0-25.341,11.345-25.341,25.343c0,8.386,4.094,15.803,10.374,20.417
	c-3.786,4.741-5.967,10.261-5.967,16.16c0,17.647,19.435,31.951,43.409,31.951c23.979,0,43.411-14.304,43.411-31.951
	c0-6.354-2.53-12.27-6.871-17.246C90.482,40.598,94.203,33.472,94.203,25.467z"/>
</svg>
