<?xml version="1.0" encoding="utf-8"?>
<!-- Generator: Adobe Illustrator 14.0.0, SVG Export Plug-In . SVG Version: 6.00 Build 43363)  -->
<!DOCTYPE svg PUBLIC "-//W3C//DTD SVG 1.1//EN" "http://www.w3.org/Graphics/SVG/1.1/DTD/svg11.dtd">
<svg version="1.1" id="Layer_1" xmlns="http://www.w3.org/2000/svg" xmlns:xlink="http://www.w3.org/1999/xlink" x="0px" y="0px"
	 width="200px" height="200px" viewBox="0 0 200 200" enable-background="new 0 0 200 200" xml:space="preserve">
<g>
	<path fill="#EC1943" stroke="#69014C" stroke-width="2.3921" d="M109.591,79.944c0,0,12.516-38.096,53.503-32.093
		c40.998,5.997,43.451,46.949,7.815,75.399c-35.633,28.447-83.632,58.568-83.632,58.568s-44.412-43.367-63.792-88.485
		c-19.39-45.114-2.966-80.625,28.9-82.069c31.861-1.438,44.676,28.095,50.592,44.654C108.903,72.47,109.591,79.944,109.591,79.944z"
		/>
	<path fill="#F2C6A5" d="M49.265,31.876c0,0-15.792,3.443-19.812,20.959c-4.021,17.512,6.032,28.71,13.209,26.415
		c7.173-2.299-4.601-13.209,4.018-25.267c8.618-12.059,19.235-10.911,16.939-19.239C61.323,26.421,49.265,31.876,49.265,31.876z"/>
	<path fill="#EA8889" d="M83.772,127.748c-13.448-8.096-19.248-20.461-25.725-34.179c-4.737-10.027-19.722-1.642-15.018,8.318
		c7.783,16.488,15.711,30.828,31.789,40.514C84.317,148.113,93.245,133.451,83.772,127.748z"/>
</g>
</svg>
