<?xml version="1.0" encoding="utf-8"?>
<!-- Generator: Adobe Illustrator 14.0.0, SVG Export Plug-In . SVG Version: 6.00 Build 43363)  -->
<!DOCTYPE svg PUBLIC "-//W3C//DTD SVG 1.1//EN" "http://www.w3.org/Graphics/SVG/1.1/DTD/svg11.dtd">
<svg version="1.1" id="Layer_1" xmlns="http://www.w3.org/2000/svg" xmlns:xlink="http://www.w3.org/1999/xlink" x="0px" y="0px"
	 width="200px" height="200px" viewBox="0 0 200 200" enable-background="new 0 0 200 200" xml:space="preserve">
<g>
	<g opacity="0.31">
		<g>
			<path fill="#231F20" d="M110.979,139.468l-1.226-8.229c0.575-0.316,1.166-0.617,1.771-0.901
				c16.632-7.762,40.308-0.772,40.541-0.702l3.947,1.198l1.959-3.64c5.81-10.786,6.641-21.595,2.474-32.126
				c-9.239-23.356-41.13-39.014-57.004-45.549c2.779-0.478,5.311-1.246,7.579-2.305c6.5-3.034,8.602-7.372,8.957-8.212l3.099-19.635
				l-11.443,8.871c-1.643,1.271-3.364,2.333-5.117,3.151c-4.525,2.112-8.619,2.314-11.35,2.081l-0.783-5.248L82.083,30.23
				l1.848,12.403l-0.832,7.7C76.997,55.07,65.521,64.852,55.472,78.35c-17.926,24.075-23.044,49.075-14.971,72.639l-27.685,4.528
				l10.716,7.188c29.051,19.493,58.262,27.011,86.828,22.34c9.568-1.563,19.132-4.556,28.422-8.894
				c0.001,0.001,0.001,0.001,0.002-0.002c10.251-4.782,20.095-11.133,29.264-18.869c13.059-11.022,20.52-21.345,20.849-21.803
				l7.016-9.893L110.979,139.468z M99.44,62.115c7.715,7.171,12.266,15.273,13.559,24.193c1.586,10.941-1.965,21.354-5.663,28.738
				L99.44,62.115z M95.799,122.184c-7.791-15.093-15.226-36.621-8.347-55.962L95.799,122.184z M66.916,143.627
				c7.621-3.556,15.507-3.813,23.556-0.806l-30.414,4.971C62.06,146.285,64.356,144.824,66.916,143.627z"/>
		</g>
	</g>
	<g>
		<g>
			<path fill="#FFFFFF" d="M105.835,134.645l-1.318-8.418c0.575-0.318,1.168-0.617,1.774-0.9c16.63-7.766,40.489-0.381,40.725-0.308
				l3.979,1.266l1.93-3.701c5.729-10.962,6.455-21.996,2.162-32.799c-9.521-23.957-41.723-40.278-57.738-47.118
				c2.789-0.459,5.324-1.218,7.593-2.278c6.499-3.035,8.568-7.445,8.916-8.298l2.913-20.031l-11.408,8.946
				c-1.637,1.285-3.354,2.35-5.109,3.169c-4.523,2.112-8.638,2.276-11.381,2.01l-0.84-5.371l-12.339,1.927l1.984,12.691l-0.759,7.86
				c-6.085,4.78-17.513,14.657-27.472,28.344c-17.768,24.418-22.659,49.911-14.308,74.066l-27.769,4.344l10.84,7.455
				c29.383,20.212,58.809,28.19,87.462,23.707c9.598-1.499,19.177-4.46,28.469-8.799c0,0,0,0,0.002,0
				c10.249-4.786,20.076-11.174,29.21-18.984c13.008-11.131,20.402-21.601,20.728-22.065l6.946-10.037L105.835,134.645z
				 M93.457,55.496c7.825,7.403,12.476,15.729,13.866,24.857c1.706,11.193-1.755,21.798-5.396,29.305L93.457,55.496z M90.41,116.833
				c-7.983-15.503-15.672-37.571-8.958-57.263L90.41,116.833z M61.605,138.45c7.62-3.557,15.541-3.741,23.659-0.585l-30.51,4.771
				C56.752,141.115,59.043,139.647,61.605,138.45z"/>
		</g>
	</g>
	<g>
		<g>
			<g>
				<g>
					<defs>
						<path id="SVGID_1_" d="M82.929,30.486c0,0,12.138,4.688,24.791-5.232c0,0-1.063,4.234-8.298,8.853
							c0,0,5.487,0.691,9.125-3.558c0,0-4.042,9.932-24.404,7.69L82.929,30.486z"/>
					</defs>
					<clipPath id="SVGID_2_">
						<use xlink:href="#SVGID_1_"  overflow="visible"/>
					</clipPath>
					<g clip-path="url(#SVGID_2_)">
						<g>
							
								<rect x="101.945" y="-2.183" transform="matrix(-0.9836 0.1801 -0.1801 -0.9836 236.48 6.1895)" fill="none" width="32.029" height="32.028"/>
						</g>
						<g>
							
								<rect x="101.945" y="-2.183" transform="matrix(-0.9836 0.1801 -0.1801 -0.9836 236.4796 6.1918)" fill="#1F4751" width="32.028" height="32.028"/>
						</g>
						<g>
							<g>
								
									<rect x="132.001" y="-4.911" transform="matrix(-0.9836 0.1805 -0.1805 -0.9836 265.5488 -1.9536)" fill="#48798F" width="1.724" height="32.028"/>
							</g>
							<g>
								
									<rect x="128.493" y="-4.269" transform="matrix(-0.9836 0.1802 -0.1802 -0.9836 258.7124 -0.0056)" fill="#48798F" width="1.726" height="32.028"/>
							</g>
							<g>
								
									<rect x="124.989" y="-3.627" transform="matrix(-0.9836 0.1805 -0.1805 -0.9836 251.8704 1.8601)" fill="#48798F" width="1.724" height="32.029"/>
							</g>
							<g>
								
									<rect x="121.481" y="-2.986" transform="matrix(-0.9836 0.1804 -0.1804 -0.9836 245.0312 3.7796)" fill="#48798F" width="1.725" height="32.03"/>
							</g>
							<g>
								
									<rect x="117.976" y="-2.343" transform="matrix(-0.9837 0.1799 -0.1799 -0.9837 238.1952 5.738)" fill="#48798F" width="1.723" height="32.027"/>
							</g>
							<g>
								
									<rect x="114.466" y="-1.702" transform="matrix(-0.9836 0.1802 -0.1802 -0.9836 231.3496 7.6133)" fill="#48798F" width="1.726" height="32.028"/>
							</g>
							<g>
								
									<rect x="110.961" y="-1.059" transform="matrix(-0.9837 0.1801 -0.1801 -0.9837 224.5123 9.5269)" fill="#48798F" width="1.724" height="32.027"/>
							</g>
							<g>
								
									<rect x="107.454" y="-0.417" transform="matrix(-0.9838 0.1794 -0.1794 -0.9838 217.6743 11.5031)" fill="#48798F" width="1.725" height="32.027"/>
							</g>
							<g>
								
									<rect x="103.949" y="0.225" transform="matrix(-0.9835 0.1807 -0.1807 -0.9835 210.8309 13.2672)" fill="#48798F" width="1.724" height="32.027"/>
							</g>
						</g>
					</g>
					<g clip-path="url(#SVGID_2_)">
						<g>
							
								<rect x="107.713" y="29.32" transform="matrix(-0.9837 0.18 -0.18 -0.9837 253.5956 67.6527)" fill="none" width="32.028" height="32.03"/>
						</g>
						<g>
							
								<rect x="107.712" y="29.322" transform="matrix(-0.9836 0.1801 -0.1801 -0.9836 253.5954 67.6437)" fill="#1F4751" width="32.029" height="32.028"/>
						</g>
						<g>
							<g>
								
									<rect x="137.768" y="26.592" transform="matrix(-0.9837 0.18 -0.18 -0.9837 282.6652 59.5658)" fill="#48798F" width="1.725" height="32.028"/>
							</g>
							<g>
								
									<rect x="134.263" y="27.235" transform="matrix(-0.9837 0.1798 -0.1798 -0.9837 275.8242 61.4967)" fill="#48798F" width="1.724" height="32.027"/>
							</g>
							<g>
								
									<rect x="130.755" y="27.876" transform="matrix(-0.9837 0.1801 -0.1801 -0.9837 268.9865 63.3614)" fill="#48798F" width="1.724" height="32.028"/>
							</g>
							<g>
								
									<rect x="127.251" y="28.52" transform="matrix(-0.9837 0.1797 -0.1797 -0.9837 262.1425 65.3151)" fill="#48798F" width="1.722" height="32.027"/>
							</g>
							<g>
								
									<rect x="123.739" y="29.161" transform="matrix(-0.9837 0.1798 -0.1798 -0.9837 255.2973 67.2114)" fill="#48798F" width="1.727" height="32.027"/>
							</g>
							<g>
								
									<rect x="120.235" y="29.803" transform="matrix(-0.9836 0.1803 -0.1803 -0.9836 248.4715 69.0558)" fill="#48798F" width="1.726" height="32.028"/>
							</g>
							<g>
								
									<rect x="116.73" y="30.445" transform="matrix(-0.9837 0.1799 -0.1799 -0.9837 241.6222 71.0039)" fill="#48798F" width="1.723" height="32.027"/>
							</g>
							<g>
								
									<rect x="113.224" y="31.086" transform="matrix(-0.9837 0.1799 -0.1799 -0.9837 234.7832 72.9083)" fill="#48798F" width="1.723" height="32.03"/>
							</g>
							<g>
								
									<rect x="109.714" y="31.729" transform="matrix(-0.9835 0.1811 -0.1811 -0.9835 227.9716 74.6752)" fill="#48798F" width="1.726" height="32.029"/>
							</g>
						</g>
					</g>
					<g clip-path="url(#SVGID_2_)">
						<g>
							
								<rect x="70.443" y="3.585" transform="matrix(-0.9837 0.1801 -0.1801 -0.9837 175.0271 23.3088)" fill="none" width="32.026" height="32.029"/>
						</g>
						<g>
							
								<rect x="70.441" y="3.585" transform="matrix(-0.9836 0.1801 -0.1801 -0.9836 175.0253 23.306)" fill="#1F4751" width="32.028" height="32.027"/>
						</g>
						<g>
							<g>
								
									<rect x="100.499" y="0.856" transform="matrix(-0.9837 0.1798 -0.1798 -0.9837 204.101 15.2411)" fill="#48798F" width="1.722" height="32.027"/>
							</g>
							<g>
								
									<rect x="96.989" y="1.499" transform="matrix(-0.9838 0.1792 -0.1792 -0.9838 197.2578 17.205)" fill="#48798F" width="1.725" height="32.027"/>
							</g>
							<g>
								
									<rect x="93.485" y="2.14" transform="matrix(-0.9837 0.1796 -0.1796 -0.9837 190.4196 19.0689)" fill="#48798F" width="1.724" height="32.027"/>
							</g>
							<g>
								
									<rect x="89.979" y="2.783" transform="matrix(-0.9838 0.1795 -0.1795 -0.9838 183.5793 20.9813)" fill="#48798F" width="1.722" height="32.028"/>
							</g>
							<g>
								
									<rect x="86.47" y="3.425" transform="matrix(-0.9837 0.1798 -0.1798 -0.9837 176.7366 22.8607)" fill="#48798F" width="1.725" height="32.027"/>
							</g>
							<g>
								
									<rect x="82.965" y="4.067" transform="matrix(-0.9837 0.18 -0.18 -0.9837 169.8972 24.7428)" fill="#48798F" width="1.722" height="32.025"/>
							</g>
							<g>
								
									<rect x="79.457" y="4.708" transform="matrix(-0.9835 0.1809 -0.1809 -0.9835 163.0629 26.5771)" fill="#48798F" width="1.725" height="32.028"/>
							</g>
							<g>
								
									<rect x="75.952" y="5.35" transform="matrix(-0.9837 0.1799 -0.1799 -0.9837 156.2173 28.5646)" fill="#48798F" width="1.724" height="32.029"/>
							</g>
							<g>
								
									<rect x="72.444" y="5.992" transform="matrix(-0.9838 0.1795 -0.1795 -0.9838 149.3715 30.4933)" fill="#48798F" width="1.724" height="32.028"/>
							</g>
						</g>
					</g>
					<g clip-path="url(#SVGID_2_)">
						<g>
							
								<rect x="76.209" y="35.09" transform="matrix(-0.9836 0.1801 -0.1801 -0.9836 192.1431 84.7608)" fill="none" width="32.028" height="32.028"/>
						</g>
						<g>
							
								<rect x="76.21" y="35.09" transform="matrix(-0.9837 0.1801 -0.1801 -0.9837 192.1416 84.7635)" fill="#1F4751" width="32.026" height="32.027"/>
						</g>
						<g>
							<g>
								
									<rect x="106.265" y="32.361" transform="matrix(-0.9837 0.1799 -0.1799 -0.9837 221.2089 76.6868)" fill="#48798F" width="1.723" height="32.027"/>
							</g>
							<g>
								
									<rect x="102.761" y="33.002" transform="matrix(-0.9836 0.1801 -0.1801 -0.9836 214.3778 78.5674)" fill="#48798F" width="1.722" height="32.027"/>
							</g>
							<g>
								
									<rect x="99.253" y="33.646" transform="matrix(-0.9837 0.1799 -0.1799 -0.9837 207.5278 80.5003)" fill="#48798F" width="1.724" height="32.025"/>
							</g>
							<g>
								
									<rect x="95.746" y="34.287" transform="matrix(-0.9838 0.1794 -0.1794 -0.9838 200.6721 82.4521)" fill="#48798F" width="1.723" height="32.027"/>
							</g>
							<g>
								
									<rect x="92.239" y="34.928" transform="matrix(-0.9837 0.18 -0.18 -0.9837 193.8492 84.2984)" fill="#48798F" width="1.723" height="32.028"/>
							</g>
							<g>
								
									<rect x="88.732" y="35.571" transform="matrix(-0.9837 0.1798 -0.1798 -0.9837 187.0029 86.2171)" fill="#48798F" width="1.724" height="32.025"/>
							</g>
							<g>
								
									<rect x="85.227" y="36.213" transform="matrix(-0.9836 0.1804 -0.1804 -0.9836 180.1866 88.0644)" fill="#48798F" width="1.724" height="32.027"/>
							</g>
							<g>
								
									<rect x="81.72" y="36.855" transform="matrix(-0.9837 0.1799 -0.1799 -0.9837 173.3267 90.0182)" fill="#48798F" width="1.723" height="32.028"/>
							</g>
							<g>
								
									<rect x="78.213" y="37.497" transform="matrix(-0.9836 0.1802 -0.1802 -0.9836 166.4978 91.893)" fill="#48798F" width="1.723" height="32.027"/>
							</g>
						</g>
					</g>
				</g>
			</g>
		</g>
		<g>
			<g>
				
					<rect x="30.831" y="85.448" transform="matrix(-0.1545 -0.988 0.988 -0.1545 19.6776 190.2848)" fill="#50B5C6" width="120.851" height="2.549"/>
			</g>
		</g>
		<g>
			<g>
				<defs>
					<path id="SVGID_3_" d="M19.764,153.364l0.551,0.378c28.303,19.471,56.523,27.174,83.881,22.896
						c24.339-3.807,43.46-16.594,55.215-26.65c12.728-10.89,19.802-21.018,19.873-21.117l0.353-0.511L19.764,153.364z"/>
				</defs>
				<clipPath id="SVGID_4_">
					<use xlink:href="#SVGID_3_"  overflow="visible"/>
				</clipPath>
				<g clip-path="url(#SVGID_4_)">
					<g>
						
							<rect x="178.182" y="92.048" transform="matrix(-0.9837 0.1801 -0.1801 -0.9837 426.3254 197.438)" fill="none" width="52.041" height="52.039"/>
					</g>
					<g>
						
							<rect x="178.183" y="92.048" transform="matrix(-0.1801 -0.9837 0.9837 -0.1801 124.8338 340.1914)" fill="#1F4751" width="52.038" height="52.039"/>
					</g>
					<g>
						<g>
							
								<rect x="207.236" y="116.264" transform="matrix(-0.1793 -0.9838 0.9838 -0.1793 106.0559 373.0455)" fill="#48798F" width="2.8" height="52.039"/>
						</g>
						<g>
							
								<rect x="206.193" y="110.567" transform="matrix(-0.18 -0.9837 0.9837 -0.18 110.6012 365.3737)" fill="#48798F" width="2.8" height="52.041"/>
						</g>
						<g>
							
								<rect x="205.148" y="104.869" transform="matrix(-0.1799 -0.9837 0.9837 -0.1799 114.9451 357.6115)" fill="#48798F" width="2.802" height="52.04"/>
						</g>
						<g>
							
								<rect x="204.105" y="99.171" transform="matrix(-0.1803 -0.9836 0.9836 -0.1803 119.4105 349.8979)" fill="#48798F" width="2.801" height="52.04"/>
						</g>
						<g>
							
								<rect x="203.062" y="93.473" transform="matrix(-0.1802 -0.9836 0.9836 -0.1802 123.771 342.142)" fill="#48798F" width="2.802" height="52.04"/>
						</g>
						<g>
							
								<rect x="202.019" y="87.777" transform="matrix(-0.1799 -0.9837 0.9837 -0.1799 128.0684 334.3664)" fill="#48798F" width="2.802" height="52.039"/>
						</g>
						<g>
							
								<rect x="200.976" y="82.077" transform="matrix(-0.1799 -0.9837 0.9837 -0.1799 132.4427 326.6178)" fill="#48798F" width="2.802" height="52.042"/>
						</g>
						<g>
							
								<rect x="199.935" y="76.381" transform="matrix(-0.1797 -0.9837 0.9837 -0.1797 136.7838 318.86)" fill="#48798F" width="2.798" height="52.038"/>
						</g>
						<g>
							
								<rect x="198.889" y="70.682" transform="matrix(-0.1801 -0.9837 0.9837 -0.1801 141.2385 311.1316)" fill="#48798F" width="2.804" height="52.04"/>
						</g>
					</g>
				</g>
				<g clip-path="url(#SVGID_4_)">
					<g>
						
							<rect x="187.553" y="143.237" transform="matrix(-0.9837 0.1801 -0.1801 -0.9837 454.137 297.285)" fill="none" width="52.041" height="52.04"/>
					</g>
					<g>
						
							<rect x="187.554" y="143.237" transform="matrix(-0.18 -0.9837 0.9837 -0.18 85.535 409.8133)" fill="#1F4751" width="52.04" height="52.038"/>
					</g>
					<g>
						<g>
							
								<rect x="216.605" y="167.454" transform="matrix(-0.1802 -0.9836 0.9836 -0.1802 66.9862 442.7752)" fill="#48798F" width="2.802" height="52.038"/>
						</g>
						<g>
							
								<rect x="215.563" y="161.754" transform="matrix(-0.1802 -0.9836 0.9836 -0.1802 71.3602 435.0243)" fill="#48798F" width="2.802" height="52.042"/>
						</g>
						<g>
							
								<rect x="214.523" y="156.06" transform="matrix(-0.18 -0.9837 0.9837 -0.18 75.6813 427.247)" fill="#48798F" width="2.8" height="52.037"/>
						</g>
						<g>
							
								<rect x="213.479" y="150.36" transform="matrix(-0.1795 -0.9838 0.9838 -0.1795 79.9429 419.4329)" fill="#48798F" width="2.801" height="52.038"/>
						</g>
						<g>
							
								<rect x="212.433" y="144.662" transform="matrix(-0.1798 -0.9837 0.9837 -0.1798 84.3822 411.7217)" fill="#48798F" width="2.803" height="52.041"/>
						</g>
						<g>
							
								<rect x="211.391" y="138.965" transform="matrix(-0.1798 -0.9837 0.9837 -0.1798 88.7581 403.9728)" fill="#48798F" width="2.803" height="52.038"/>
						</g>
						<g>
							
								<rect x="210.347" y="133.267" transform="matrix(-0.1809 -0.9835 0.9835 -0.1809 93.403 396.3627)" fill="#48798F" width="2.801" height="52.042"/>
						</g>
						<g>
							
								<rect x="209.306" y="127.571" transform="matrix(-0.1801 -0.9837 0.9837 -0.1801 97.5629 388.5072)" fill="#48798F" width="2.799" height="52.04"/>
						</g>
						<g>
							
								<rect x="208.262" y="121.872" transform="matrix(-0.18 -0.9837 0.9837 -0.18 101.9225 380.7492)" fill="#48798F" width="2.8" height="52.04"/>
						</g>
					</g>
				</g>
				<g clip-path="url(#SVGID_4_)">
					<g>
						
							<rect x="126.99" y="101.42" transform="matrix(-0.9836 0.1801 -0.1801 -0.9836 326.4717 225.2366)" fill="none" width="52.042" height="52.039"/>
					</g>
					<g>
						
							<rect x="126.991" y="101.418" transform="matrix(-0.1801 -0.9836 0.9836 -0.1801 55.2154 300.9013)" fill="#1F4751" width="52.039" height="52.042"/>
					</g>
					<g>
						<g>
							
								<rect x="156.044" y="125.635" transform="matrix(-0.1803 -0.9836 0.9836 -0.1803 36.6555 333.8597)" fill="#48798F" width="2.801" height="52.042"/>
						</g>
						<g>
							
								<rect x="155.002" y="119.937" transform="matrix(-0.1799 -0.9837 0.9837 -0.1799 40.9559 326.0632)" fill="#48798F" width="2.802" height="52.042"/>
						</g>
						<g>
							
								<rect x="153.959" y="114.241" transform="matrix(-0.1803 -0.9836 0.9836 -0.1803 45.4126 318.3663)" fill="#48798F" width="2.8" height="52.041"/>
						</g>
						<g>
							
								<rect x="152.915" y="108.543" transform="matrix(-0.1803 -0.9836 0.9836 -0.1803 49.7752 310.607)" fill="#48798F" width="2.801" height="52.039"/>
						</g>
						<g>
							
								<rect x="151.872" y="102.844" transform="matrix(-0.1805 -0.9836 0.9836 -0.1805 54.1979 302.8845)" fill="#48798F" width="2.802" height="52.041"/>
						</g>
						<g>
							
								<rect x="150.829" y="97.147" transform="matrix(-0.1791 -0.9838 0.9838 -0.1791 58.3247 294.9971)" fill="#48798F" width="2.802" height="52.039"/>
						</g>
						<g>
							
								<rect x="149.785" y="91.45" transform="matrix(-0.1801 -0.9836 0.9836 -0.1801 62.8736 287.3442)" fill="#48798F" width="2.803" height="52.039"/>
						</g>
						<g>
							
								<rect x="148.745" y="85.752" transform="matrix(-0.1801 -0.9837 0.9837 -0.1801 67.2316 279.5882)" fill="#48798F" width="2.799" height="52.041"/>
						</g>
						<g>
							
								<rect x="147.698" y="80.053" transform="matrix(-0.1798 -0.9837 0.9837 -0.1798 71.5684 271.8176)" fill="#48798F" width="2.802" height="52.041"/>
						</g>
					</g>
				</g>
				<g clip-path="url(#SVGID_4_)">
					<g>
						
							<rect x="136.363" y="152.607" transform="matrix(-0.9837 0.1801 -0.1801 -0.9837 354.2779 325.0954)" fill="none" width="52.041" height="52.042"/>
					</g>
					<g>
						
							<rect x="136.363" y="152.608" transform="matrix(-0.1801 -0.9837 0.9837 -0.1801 15.9163 370.523)" fill="#1F4751" width="52.042" height="52.039"/>
					</g>
					<g>
						<g>
							
								<rect x="165.417" y="176.826" transform="matrix(-0.1802 -0.9836 0.9836 -0.1802 -2.6464 403.4858)" fill="#48798F" width="2.802" height="52.039"/>
						</g>
						<g>
							
								<rect x="164.375" y="171.128" transform="matrix(-0.1801 -0.9836 0.9836 -0.1801 1.7073 395.72)" fill="#48798F" width="2.798" height="52.041"/>
						</g>
						<g>
							
								<rect x="163.332" y="165.431" transform="matrix(-0.1801 -0.9837 0.9837 -0.1801 6.0688 387.9611)" fill="#48798F" width="2.799" height="52.04"/>
						</g>
						<g>
							
								<rect x="162.287" y="159.731" transform="matrix(-0.1803 -0.9836 0.9836 -0.1803 10.4969 380.2513)" fill="#48798F" width="2.8" height="52.041"/>
						</g>
						<g>
							
								<rect x="161.243" y="154.034" transform="matrix(-0.1798 -0.9837 0.9837 -0.1798 14.7696 372.4211)" fill="#48798F" width="2.803" height="52.039"/>
						</g>
						<g>
							
								<rect x="160.2" y="148.337" transform="matrix(-0.1798 -0.9837 0.9837 -0.1798 19.143 364.674)" fill="#48798F" width="2.803" height="52.039"/>
						</g>
						<g>
							
								<rect x="159.157" y="142.639" transform="matrix(-0.1798 -0.9837 0.9837 -0.1798 23.5174 356.9258)" fill="#48798F" width="2.803" height="52.039"/>
						</g>
						<g>
							
								<rect x="158.113" y="136.94" transform="matrix(-0.1801 -0.9837 0.9837 -0.1801 27.9435 349.215)" fill="#48798F" width="2.804" height="52.042"/>
						</g>
						<g>
							
								<rect x="157.071" y="131.242" transform="matrix(-0.1799 -0.9837 0.9837 -0.1799 32.2886 341.4437)" fill="#48798F" width="2.801" height="52.042"/>
						</g>
					</g>
				</g>
				<g clip-path="url(#SVGID_4_)">
					<g>
						
							<rect x="75.801" y="110.792" transform="matrix(-0.9836 0.1801 -0.1801 -0.9836 226.6158 253.0491)" fill="none" width="52.041" height="52.039"/>
					</g>
					<g>
						
							<rect x="75.801" y="110.791" transform="matrix(-0.1801 -0.9837 0.9837 -0.1801 -14.4184 261.6046)" fill="#1F4751" width="52.04" height="52.04"/>
					</g>
					<g>
						<g>
							
								<rect x="104.853" y="135.008" transform="matrix(-0.1805 -0.9836 0.9836 -0.1805 -32.9451 294.6085)" fill="#48798F" width="2.802" height="52.04"/>
						</g>
						<g>
							
								<rect x="103.811" y="129.31" transform="matrix(-0.1799 -0.9837 0.9837 -0.1799 -28.66 286.7645)" fill="#48798F" width="2.802" height="52.039"/>
						</g>
						<g>
							
								<rect x="102.769" y="123.614" transform="matrix(-0.1802 -0.9836 0.9836 -0.1802 -24.2419 279.0624)" fill="#48798F" width="2.802" height="52.039"/>
						</g>
						<g>
							
								<rect x="101.726" y="117.916" transform="matrix(-0.1797 -0.9837 0.9837 -0.1797 -19.9412 271.2419)" fill="#48798F" width="2.799" height="52.04"/>
						</g>
						<g>
							
								<rect x="100.682" y="112.218" transform="matrix(-0.1795 -0.9838 0.9838 -0.1795 -15.5889 263.4723)" fill="#48798F" width="2.802" height="52.039"/>
						</g>
						<g>
							
								<rect x="99.638" y="106.52" transform="matrix(-0.1792 -0.9838 0.9838 -0.1792 -11.2498 255.6933)" fill="#48798F" width="2.801" height="52.038"/>
						</g>
						<g>
							
								<rect x="98.596" y="100.822" transform="matrix(-0.1806 -0.9836 0.9836 -0.1806 -6.7004 248.1035)" fill="#48798F" width="2.801" height="52.041"/>
						</g>
						<g>
							
								<rect x="97.552" y="95.123" transform="matrix(-0.1802 -0.9836 0.9836 -0.1802 -2.3765 240.3074)" fill="#48798F" width="2.802" height="52.042"/>
						</g>
						<g>
							
								<rect x="96.508" y="89.424" transform="matrix(-0.1801 -0.9836 0.9836 -0.1801 1.9918 232.5479)" fill="#48798F" width="2.803" height="52.039"/>
						</g>
					</g>
				</g>
				<g clip-path="url(#SVGID_4_)">
					<g>
						
							<rect x="85.172" y="161.981" transform="matrix(-0.9836 0.1801 -0.1801 -0.9836 254.4268 352.901)" fill="none" width="52.041" height="52.04"/>
					</g>
					<g>
						
							<rect x="85.173" y="161.981" transform="matrix(-0.1801 -0.9836 0.9836 -0.1801 -53.7087 331.2338)" fill="#1F4751" width="52.04" height="52.04"/>
					</g>
					<g>
						<g>
							
								<rect x="114.227" y="186.198" transform="matrix(-0.1799 -0.9837 0.9837 -0.1799 -72.3317 364.1304)" fill="#48798F" width="2.802" height="52.04"/>
						</g>
						<g>
							
								<rect x="113.183" y="180.5" transform="matrix(-0.1799 -0.9837 0.9837 -0.1799 -67.9578 356.3806)" fill="#48798F" width="2.802" height="52.039"/>
						</g>
						<g>
							
								<rect x="112.14" y="174.802" transform="matrix(-0.1803 -0.9836 0.9836 -0.1803 -63.5161 348.7154)" fill="#48798F" width="2.8" height="52.042"/>
						</g>
						<g>
							
								<rect x="111.096" y="169.103" transform="matrix(-0.1802 -0.9836 0.9836 -0.1802 -59.1592 340.9405)" fill="#48798F" width="2.802" height="52.039"/>
						</g>
						<g>
							
								<rect x="110.053" y="163.405" transform="matrix(-0.1802 -0.9836 0.9836 -0.1802 -54.7858 333.1909)" fill="#48798F" width="2.802" height="52.041"/>
						</g>
						<g>
							
								<rect x="109.01" y="157.707" transform="matrix(-0.1799 -0.9837 0.9837 -0.1799 -50.4613 325.384)" fill="#48798F" width="2.802" height="52.041"/>
						</g>
						<g>
							
								<rect x="107.967" y="152.011" transform="matrix(-0.1813 -0.9834 0.9834 -0.1813 -45.8886 317.8596)" fill="#48798F" width="2.801" height="52.04"/>
						</g>
						<g>
							
								<rect x="106.924" y="146.312" transform="matrix(-0.1802 -0.9836 0.9836 -0.1802 -41.6662 309.9398)" fill="#48798F" width="2.802" height="52.042"/>
						</g>
						<g>
							<polygon fill="#48798F" points="132.625,160.57 133.128,163.327 81.938,172.699 81.437,169.944 							"/>
						</g>
					</g>
				</g>
				<g clip-path="url(#SVGID_4_)">
					<g>
						
							<rect x="24.613" y="120.164" transform="matrix(-0.9836 0.1801 -0.1801 -0.9836 126.767 280.8567)" fill="none" width="52.039" height="52.04"/>
					</g>
					<g>
						
							<rect x="24.613" y="120.164" transform="matrix(-0.1801 -0.9837 0.9837 -0.1801 -84.0449 222.3103)" fill="#1F4751" width="52.039" height="52.039"/>
					</g>
					<g>
						<g>
							
								<rect x="53.665" y="144.381" transform="matrix(-0.1801 -0.9836 0.9836 -0.1801 -102.6316 255.2541)" fill="#48798F" width="2.801" height="52.039"/>
						</g>
						<g>
							
								<rect x="52.621" y="138.682" transform="matrix(-0.179 -0.9838 0.9838 -0.179 -98.3479 247.3349)" fill="#48798F" width="2.804" height="52.04"/>
						</g>
						<g>
							
								<rect x="51.578" y="132.985" transform="matrix(-0.1803 -0.9836 0.9836 -0.1803 -93.8719 239.7782)" fill="#48798F" width="2.801" height="52.04"/>
						</g>
						<g>
							
								<rect x="50.533" y="127.286" transform="matrix(-0.1801 -0.9836 0.9836 -0.1801 -89.5079 232.0081)" fill="#48798F" width="2.803" height="52.04"/>
						</g>
						<g>
							
								<rect x="49.491" y="121.589" transform="matrix(-0.1806 -0.9836 0.9836 -0.1806 -85.0999 224.3224)" fill="#48798F" width="2.801" height="52.041"/>
						</g>
						<g>
							
								<rect x="48.448" y="115.891" transform="matrix(-0.18 -0.9837 0.9837 -0.18 -80.7723 216.4854)" fill="#48798F" width="2.803" height="52.038"/>
						</g>
						<g>
							
								<rect x="47.405" y="110.194" transform="matrix(-0.1798 -0.9837 0.9837 -0.1798 -76.4111 208.7165)" fill="#48798F" width="2.803" height="52.04"/>
						</g>
						<g>
							
								<rect x="46.362" y="104.496" transform="matrix(-0.1799 -0.9837 0.9837 -0.1799 -72.0333 200.9759)" fill="#48798F" width="2.802" height="52.039"/>
						</g>
						<g>
							
								<rect x="45.319" y="98.797" transform="matrix(-0.18 -0.9837 0.9837 -0.18 -67.6462 193.245)" fill="#48798F" width="2.802" height="52.04"/>
						</g>
					</g>
				</g>
				<g clip-path="url(#SVGID_4_)">
					<g>
						
							<rect x="33.982" y="171.352" transform="matrix(-0.9837 0.1801 -0.1801 -0.9837 154.5681 380.7133)" fill="none" width="52.041" height="52.041"/>
					</g>
					<g>
						
							<rect x="33.983" y="171.352" transform="matrix(-0.1801 -0.9837 0.9837 -0.1801 -123.3389 291.9338)" fill="#1F4751" width="52.04" height="52.039"/>
					</g>
					<g>
						<g>
							
								<rect x="63.035" y="195.569" transform="matrix(-0.1795 -0.9838 0.9838 -0.1795 -141.9898 324.7467)" fill="#48798F" width="2.802" height="52.039"/>
						</g>
						<g>
							
								<rect x="61.992" y="189.871" transform="matrix(-0.1801 -0.9836 0.9836 -0.1801 -137.5466 317.1391)" fill="#48798F" width="2.803" height="52.04"/>
						</g>
						<g>
							
								<rect x="60.949" y="184.175" transform="matrix(-0.1801 -0.9836 0.9836 -0.1801 -133.1793 309.3805)" fill="#48798F" width="2.801" height="52.04"/>
						</g>
						<g>
							
								<rect x="59.907" y="178.476" transform="matrix(-0.1803 -0.9836 0.9836 -0.1803 -128.7867 301.6631)" fill="#48798F" width="2.801" height="52.039"/>
						</g>
						<g>
							
								<rect x="58.864" y="172.778" transform="matrix(-0.1803 -0.9836 0.9836 -0.1803 -124.4143 293.9124)" fill="#48798F" width="2.801" height="52.042"/>
						</g>
						<g>
							
								<rect x="57.821" y="167.082" transform="matrix(-0.18 -0.9837 0.9837 -0.18 -120.0673 286.1112)" fill="#48798F" width="2.8" height="52.038"/>
						</g>
						<g>
							
								<rect x="56.776" y="161.382" transform="matrix(-0.1801 -0.9836 0.9836 -0.1801 -115.679 278.388)" fill="#48798F" width="2.803" height="52.041"/>
						</g>
						<g>
							
								<rect x="55.733" y="155.685" transform="matrix(-0.1799 -0.9837 0.9837 -0.1799 -111.3258 270.6004)" fill="#48798F" width="2.801" height="52.041"/>
						</g>
						<g>
							
								<rect x="54.691" y="149.988" transform="matrix(-0.1799 -0.9837 0.9837 -0.1799 -106.9565 262.8417)" fill="#48798F" width="2.802" height="52.039"/>
						</g>
					</g>
				</g>
				<g clip-path="url(#SVGID_4_)">
					<g>
						
							<rect x="-26.581" y="129.533" transform="matrix(-0.9837 0.1801 -0.1801 -0.9837 26.8997 308.6666)" fill="none" width="52.044" height="52.043"/>
					</g>
					<g>
						
							<rect x="-26.578" y="129.535" transform="matrix(-0.1801 -0.9837 0.9837 -0.1801 -153.669 183.0176)" fill="#1F4751" width="52.042" height="52.039"/>
					</g>
					<g>
						<g>
							
								<rect x="2.474" y="153.752" transform="matrix(-0.1805 -0.9836 0.9836 -0.1805 -172.2445 216.0284)" fill="#48798F" width="2.803" height="52.039"/>
						</g>
						<g>
							
								<rect x="1.431" y="148.053" transform="matrix(-0.1799 -0.9837 0.9837 -0.1799 -167.8939 208.1692)" fill="#48798F" width="2.802" height="52.042"/>
						</g>
						<g>
							
								<rect x="0.387" y="142.357" transform="matrix(-0.1798 -0.9837 0.9837 -0.1798 -163.5222 200.4098)" fill="#48798F" width="2.803" height="52.038"/>
						</g>
						<g>
							
								<rect x="-0.655" y="136.659" transform="matrix(-0.1799 -0.9837 0.9837 -0.1799 -159.1452 192.6713)" fill="#48798F" width="2.802" height="52.038"/>
						</g>
						<g>
							
								<rect x="-1.7" y="130.961" transform="matrix(-0.1796 -0.9837 0.9837 -0.1796 -154.7805 184.8768)" fill="#48798F" width="2.803" height="52.04"/>
						</g>
						<g>
							
								<rect x="-2.741" y="125.264" transform="matrix(-0.1795 -0.9838 0.9838 -0.1795 -150.4063 177.1145)" fill="#48798F" width="2.802" height="52.037"/>
						</g>
						<g>
							
								<rect x="-3.784" y="119.566" transform="matrix(-0.1806 -0.9836 0.9836 -0.1806 -146.0067 169.5352)" fill="#48798F" width="2.801" height="52.041"/>
						</g>
						<g>
							
								<rect x="-4.826" y="113.869" transform="matrix(-0.1801 -0.9837 0.9837 -0.1801 -141.6461 161.7062)" fill="#48798F" width="2.799" height="52.04"/>
						</g>
						<g>
							
								<rect x="-5.871" y="108.169" transform="matrix(-0.1806 -0.9836 0.9836 -0.1806 -137.2642 154.0223)" fill="#48798F" width="2.799" height="52.044"/>
						</g>
					</g>
				</g>
				<g clip-path="url(#SVGID_4_)">
					<g>
						<polygon fill="none" points="-12.095,237.025 39.093,227.654 29.724,176.465 -21.47,185.836 						"/>
					</g>
					<g>
						
							<rect x="-17.205" y="180.726" transform="matrix(-0.18 -0.9837 0.9837 -0.18 -192.9663 252.6349)" fill="#1F4751" width="52.038" height="52.038"/>
					</g>
					<g>
						<g>
							
								<rect x="11.846" y="204.942" transform="matrix(-0.1799 -0.9837 0.9837 -0.1799 -211.5653 285.5335)" fill="#48798F" width="2.802" height="52.038"/>
						</g>
						<g>
							
								<rect x="10.801" y="199.243" transform="matrix(-0.1803 -0.9836 0.9836 -0.1803 -207.1683 277.8841)" fill="#48798F" width="2.803" height="52.042"/>
						</g>
						<g>
							
								<rect x="9.758" y="193.545" transform="matrix(-0.1801 -0.9836 0.9836 -0.1801 -202.8035 270.0956)" fill="#48798F" width="2.803" height="52.041"/>
						</g>
						<g>
							
								<rect x="8.716" y="187.847" transform="matrix(-0.1803 -0.9836 0.9836 -0.1803 -198.4243 262.3712)" fill="#48798F" width="2.801" height="52.041"/>
						</g>
						<g>
							
								<rect x="7.672" y="182.151" transform="matrix(-0.1798 -0.9837 0.9837 -0.1798 -194.0735 254.5265)" fill="#48798F" width="2.803" height="52.039"/>
						</g>
						<g>
							
								<rect x="6.631" y="176.453" transform="matrix(-0.1803 -0.9836 0.9836 -0.1803 -189.677 246.871)" fill="#48798F" width="2.801" height="52.04"/>
						</g>
						<g>
							
								<rect x="5.587" y="170.754" transform="matrix(-0.1803 -0.9836 0.9836 -0.1803 -185.3047 239.1193)" fill="#48798F" width="2.801" height="52.042"/>
						</g>
						<g>
							
								<rect x="4.543" y="165.057" transform="matrix(-0.1806 -0.9836 0.9836 -0.1806 -180.9178 231.4314)" fill="#48798F" width="2.801" height="52.04"/>
						</g>
						<g>
							
								<rect x="3.501" y="159.359" transform="matrix(-0.1799 -0.9837 0.9837 -0.1799 -176.5725 223.5449)" fill="#48798F" width="2.802" height="52.041"/>
						</g>
					</g>
				</g>
			</g>
		</g>
		<g>
			<g>
				<g>
					<g>
						<defs>
							<path id="SVGID_5_" d="M85.882,44.11c0,0,86.313,29.834,61.931,76.511c0,0-30.779-9.789-49.416,3.488
								C98.396,124.109,136.222,77.686,85.882,44.11z"/>
						</defs>
						<clipPath id="SVGID_6_">
							<use xlink:href="#SVGID_5_"  overflow="visible"/>
						</clipPath>
						<g clip-path="url(#SVGID_6_)">
							
								<rect x="141.645" y="53.857" transform="matrix(-0.9679 -0.2512 0.2512 -0.9679 286.2259 168.7184)" fill="none" width="24.47" height="24.472"/>
							
								<rect x="141.645" y="53.858" transform="matrix(0.9679 0.2512 -0.2512 0.9679 21.535 -36.5331)" fill="#83CDDE" width="24.47" height="24.47"/>
							
								<rect x="143.377" y="52.517" transform="matrix(0.968 0.251 -0.251 0.968 19.5062 -35.6506)" fill="#63A7B2" width="12.237" height="12.236"/>
							
								<rect x="152.147" y="67.432" transform="matrix(0.9679 0.2512 -0.2512 0.9679 23.5508 -37.3979)" fill="#D3EDF0" width="12.236" height="12.236"/>
						</g>
						<g clip-path="url(#SVGID_6_)">
							
								<rect x="135.497" y="77.545" transform="matrix(-0.968 -0.2511 0.2511 -0.968 268.1902 213.778)" fill="none" width="24.471" height="24.47"/>
							
								<rect x="135.498" y="77.543" transform="matrix(0.968 0.2511 -0.2511 0.968 27.2754 -34.2183)" fill="#83CDDE" width="24.471" height="24.473"/>
							
								<rect x="137.231" y="76.203" transform="matrix(0.9679 0.2511 -0.2511 0.9679 25.2691 -33.3629)" fill="#63A7B2" width="12.235" height="12.236"/>
							
								<rect x="146" y="91.12" transform="matrix(0.9679 0.2512 -0.2512 0.9679 29.309 -35.0992)" fill="#D3EDF0" width="12.236" height="12.234"/>
						</g>
						<g clip-path="url(#SVGID_6_)">
							
								<rect x="129.353" y="101.229" transform="matrix(-0.9679 -0.2512 0.2512 -0.9679 250.131 258.8628)" fill="none" width="24.47" height="24.473"/>
							
								<rect x="129.352" y="101.233" transform="matrix(0.9679 0.2512 -0.2512 0.9679 33.0461 -31.9308)" fill="#83CDDE" width="24.47" height="24.469"/>
							
								<rect x="131.084" y="99.891" transform="matrix(0.9679 0.2512 -0.2512 0.9679 31.0237 -31.0621)" fill="#63A7B2" width="12.236" height="12.235"/>
							
								<rect x="139.854" y="114.808" transform="matrix(0.9679 0.2513 -0.2513 0.9679 35.072 -32.8018)" fill="#D3EDF0" width="12.237" height="12.234"/>
						</g>
						<g clip-path="url(#SVGID_6_)">
							
								<rect x="123.208" y="124.919" transform="matrix(-0.968 -0.2511 0.2511 -0.968 232.1028 303.9248)" fill="none" width="24.469" height="24.469"/>
							
								<rect x="123.208" y="124.916" transform="matrix(0.968 0.2511 -0.2511 0.968 38.7816 -29.6171)" fill="#83CDDE" width="24.469" height="24.472"/>
							
								<rect x="124.94" y="123.577" transform="matrix(0.9679 0.2512 -0.2512 0.9679 36.7789 -28.7614)" fill="#63A7B2" width="12.235" height="12.235"/>
							
								<rect x="133.709" y="138.492" transform="matrix(0.968 0.2511 -0.2511 0.968 40.7932 -30.4781)" fill="#D3EDF0" width="12.235" height="12.236"/>
						</g>
						<g clip-path="url(#SVGID_6_)">
							
								<rect x="117.96" y="47.713" transform="matrix(-0.968 -0.2511 0.2511 -0.968 241.1637 150.6677)" fill="none" width="24.47" height="24.47"/>
							
								<rect x="117.959" y="47.711" transform="matrix(0.968 0.2511 -0.2511 0.968 19.2247 -30.7721)" fill="#83CDDE" width="24.47" height="24.472"/>
							
								<rect x="119.691" y="46.371" transform="matrix(0.9679 0.2512 -0.2512 0.9679 17.2179 -29.9182)" fill="#63A7B2" width="12.235" height="12.236"/>
							
								<rect x="128.461" y="61.288" transform="matrix(0.968 0.2511 -0.2511 0.968 21.2399 -31.6363)" fill="#D3EDF0" width="12.236" height="12.235"/>
						</g>
						<g clip-path="url(#SVGID_6_)">
							
								<rect x="111.813" y="71.397" transform="matrix(-0.9679 -0.2512 0.2512 -0.9679 223.1059 195.7484)" fill="none" width="24.469" height="24.473"/>
							
								<rect x="111.813" y="71.4" transform="matrix(0.9679 0.2512 -0.2512 0.9679 24.9901 -28.4821)" fill="#83CDDE" width="24.469" height="24.47"/>
							
								<rect x="113.545" y="70.058" transform="matrix(0.968 0.2511 -0.2511 0.968 22.9564 -27.6021)" fill="#63A7B2" width="12.236" height="12.235"/>
							
								<rect x="122.315" y="84.973" transform="matrix(0.9679 0.2512 -0.2512 0.9679 26.9983 -29.3396)" fill="#D3EDF0" width="12.235" height="12.238"/>
						</g>
						<g clip-path="url(#SVGID_6_)">
							
								<rect x="105.665" y="95.086" transform="matrix(-0.968 -0.2511 0.2511 -0.968 205.0724 240.8105)" fill="none" width="24.472" height="24.469"/>
							
								<rect x="105.666" y="95.084" transform="matrix(0.968 0.2511 -0.2511 0.968 30.7292 -26.1693)" fill="#83CDDE" width="24.472" height="24.472"/>
							
								<rect x="107.399" y="93.743" transform="matrix(0.968 0.2511 -0.2511 0.968 28.7133 -25.3052)" fill="#63A7B2" width="12.235" height="12.236"/>
							
								<rect x="116.168" y="108.66" transform="matrix(0.9679 0.2512 -0.2512 0.9679 32.7533 -27.0381)" fill="#D3EDF0" width="12.238" height="12.235"/>
						</g>
						<g clip-path="url(#SVGID_6_)">
							
								<rect x="99.521" y="118.771" transform="matrix(-0.9679 -0.2512 0.2512 -0.9679 187.0245 285.8842)" fill="none" width="24.471" height="24.472"/>
							
								<rect x="99.52" y="118.772" transform="matrix(0.9679 0.2512 -0.2512 0.9679 36.4883 -23.8703)" fill="#83CDDE" width="24.471" height="24.471"/>
							
								<rect x="101.253" y="117.431" transform="matrix(0.968 0.2511 -0.2511 0.968 34.4599 -23.001)" fill="#63A7B2" width="12.236" height="12.234"/>
							
								<rect x="110.023" y="132.345" transform="matrix(0.9679 0.2511 -0.2511 0.9679 38.497 -24.7305)" fill="#D3EDF0" width="12.237" height="12.238"/>
						</g>
						<g clip-path="url(#SVGID_6_)">
							
								<rect x="94.271" y="41.566" transform="matrix(-0.968 -0.2511 0.2511 -0.968 196.0889 132.627)" fill="none" width="24.472" height="24.472"/>
							
								<rect x="94.271" y="41.566" transform="matrix(0.968 0.2511 -0.2511 0.968 16.9253 -25.024)" fill="#83CDDE" width="24.472" height="24.471"/>
							
								<rect x="96.003" y="40.225" transform="matrix(0.968 0.2511 -0.2511 0.968 14.9077 -24.157)" fill="#63A7B2" width="12.238" height="12.235"/>
							
								<rect x="104.775" y="55.14" transform="matrix(0.968 0.2511 -0.2511 0.968 18.9358 -25.8833)" fill="#D3EDF0" width="12.237" height="12.238"/>
						</g>
						<g clip-path="url(#SVGID_6_)">
							
								<rect x="88.126" y="65.253" transform="matrix(-0.968 -0.2511 0.2511 -0.968 178.049 177.6958)" fill="none" width="24.471" height="24.47"/>
							
								<rect x="88.126" y="65.253" transform="matrix(0.968 0.2511 -0.2511 0.968 22.674 -22.7191)" fill="#83CDDE" width="24.471" height="24.47"/>
							
								<rect x="89.858" y="63.913" transform="matrix(0.968 0.2511 -0.2511 0.968 20.662 -21.858)" fill="#63A7B2" width="12.236" height="12.234"/>
							
								<rect x="98.629" y="78.827" transform="matrix(0.968 0.2511 -0.2511 0.968 24.6835 -23.5787)" fill="#D3EDF0" width="12.236" height="12.236"/>
						</g>
						<g clip-path="url(#SVGID_6_)">
							
								<rect x="81.981" y="88.938" transform="matrix(-0.9679 -0.2512 0.2512 -0.9679 159.9977 222.7698)" fill="none" width="24.47" height="24.472"/>
							
								<rect x="81.98" y="88.94" transform="matrix(0.9679 0.2512 -0.2512 0.9679 28.4346 -20.4219)" fill="#83CDDE" width="24.47" height="24.47"/>
							
								<rect x="83.712" y="87.599" transform="matrix(0.9679 0.2512 -0.2512 0.9679 26.4244 -19.5616)" fill="#63A7B2" width="12.235" height="12.235"/>
							
								<rect x="92.481" y="102.514" transform="matrix(0.968 0.251 -0.251 0.968 30.4214 -21.2699)" fill="#D3EDF0" width="12.237" height="12.237"/>
						</g>
						<g clip-path="url(#SVGID_6_)">
							
								<rect x="75.834" y="112.626" transform="matrix(-0.968 -0.2511 0.2511 -0.968 141.9587 267.8388)" fill="none" width="24.47" height="24.471"/>
							
								<rect x="75.835" y="112.625" transform="matrix(0.968 0.2511 -0.2511 0.968 34.1803 -18.1163)" fill="#83CDDE" width="24.47" height="24.472"/>
							
								<rect x="77.566" y="111.285" transform="matrix(0.9679 0.2512 -0.2512 0.9679 32.1804 -17.2592)" fill="#63A7B2" width="12.236" height="12.236"/>
							
								<rect x="86.337" y="126.202" transform="matrix(0.9679 0.2512 -0.2512 0.9679 36.1991 -18.9802)" fill="#D3EDF0" width="12.236" height="12.235"/>
						</g>
						<g clip-path="url(#SVGID_6_)">
							
								<rect x="70.585" y="35.42" transform="matrix(-0.9679 -0.2512 0.2512 -0.9679 151.0143 114.5872)" fill="none" width="24.47" height="24.471"/>
							
								<rect x="70.585" y="35.421" transform="matrix(0.9679 0.2512 -0.2512 0.9679 14.6269 -19.2766)" fill="#83CDDE" width="24.47" height="24.47"/>
							
								<rect x="72.318" y="34.079" transform="matrix(0.968 0.251 -0.251 0.968 12.6012 -18.4015)" fill="#63A7B2" width="12.235" height="12.236"/>
							
								<rect x="81.088" y="48.995" transform="matrix(0.9679 0.2512 -0.2512 0.9679 16.6387 -20.1369)" fill="#D3EDF0" width="12.236" height="12.237"/>
						</g>
						<g clip-path="url(#SVGID_6_)">
							
								<rect x="64.439" y="59.107" transform="matrix(-0.968 -0.2511 0.2511 -0.968 132.9746 159.6544)" fill="none" width="24.471" height="24.47"/>
							
								<rect x="64.439" y="59.106" transform="matrix(0.968 0.2511 -0.2511 0.968 20.3738 -16.9695)" fill="#83CDDE" width="24.471" height="24.472"/>
							
								<rect x="66.172" y="57.766" transform="matrix(0.9679 0.2512 -0.2512 0.9679 18.3672 -16.1119)" fill="#63A7B2" width="12.235" height="12.235"/>
							
								<rect x="74.942" y="72.682" transform="matrix(0.968 0.2511 -0.2511 0.968 22.3827 -17.8288)" fill="#D3EDF0" width="12.236" height="12.236"/>
						</g>
						<g clip-path="url(#SVGID_6_)">
							
								<rect x="58.295" y="82.794" transform="matrix(-0.9679 -0.2511 0.2511 -0.9679 114.9329 204.7247)" fill="none" width="24.47" height="24.47"/>
							
								<rect x="58.294" y="82.794" transform="matrix(0.9679 0.2511 -0.2511 0.9679 26.1266 -14.6674)" fill="#83CDDE" width="24.47" height="24.47"/>
							
								<rect x="60.026" y="81.453" transform="matrix(0.9679 0.2512 -0.2512 0.9679 24.1149 -13.8059)" fill="#63A7B2" width="12.236" height="12.235"/>
							
								<rect x="68.797" y="96.369" transform="matrix(0.9679 0.2511 -0.2511 0.9679 28.14 -15.5298)" fill="#D3EDF0" width="12.237" height="12.235"/>
						</g>
						<g clip-path="url(#SVGID_6_)">
							
								<rect x="52.148" y="106.479" transform="matrix(-0.968 -0.2511 0.2511 -0.968 96.8904 249.7952)" fill="none" width="24.471" height="24.472"/>
							
								<rect x="52.149" y="106.479" transform="matrix(0.968 0.2511 -0.2511 0.968 31.8772 -12.3646)" fill="#83CDDE" width="24.471" height="24.472"/>
							
								<rect x="53.881" y="105.139" transform="matrix(0.9679 0.2511 -0.2511 0.9679 29.8646 -11.5027)" fill="#63A7B2" width="12.237" height="12.236"/>
							
								<rect x="62.651" y="120.055" transform="matrix(0.968 0.2511 -0.2511 0.968 33.8839 -13.2251)" fill="#D3EDF0" width="12.236" height="12.237"/>
						</g>
					</g>
				</g>
			</g>
		</g>
		<g>
			<g>
				<g>
					<path fill="#45888F" d="M83.336,44.508c0,0-67.44,46.122-42.343,104.756c0,0,23.008-34.266,57.324-8.966
						C98.317,140.299,53.695,84.103,83.336,44.508z"/>
				</g>
			</g>
		</g>
	</g>
</g>
</svg>
