<?xml version="1.0" encoding="utf-8"?>
<!-- Generator: Adobe Illustrator 14.0.0, SVG Export Plug-In . SVG Version: 6.00 Build 43363)  -->
<!DOCTYPE svg PUBLIC "-//W3C//DTD SVG 1.1//EN" "http://www.w3.org/Graphics/SVG/1.1/DTD/svg11.dtd">
<svg version="1.1" id="Layer_1" xmlns="http://www.w3.org/2000/svg" xmlns:xlink="http://www.w3.org/1999/xlink" x="0px" y="0px"
	 width="200px" height="200px" viewBox="0 0 200 200" enable-background="new 0 0 200 200" xml:space="preserve">
<g>
	<g>
		<path fill="#254467" d="M68.675,118.649c0,0-7.361,11.253,15.818,30.15c-18.115-20.17-8.254-26.398-13.953-30.406L68.675,118.649z
			"/>
		<path fill="#254467" d="M69.427,119.271c2.006-1.222-5.278,6.315,8.247,22.275C75.898,139.868,65.681,126.737,69.427,119.271z"/>
		<path fill="#254467" d="M70.263,119.562c2.007-1.223-1.848,6.888,8.247,22.274C76.735,140.159,68.75,126.674,70.263,119.562z"/>
	</g>
	<path fill="#254467" d="M96.03,70.139c-7.143-3.017-17.082-0.31-25.893-4.117c10-38.612,52.861-39.599,52.861-39.599
		s-12.436,15.638-9.466,26.728c1.606,6.007,22.331,25.668,27.501,31.92c6.557,7.926,17.257,11.751,17.323,15.615
		C158.356,100.686,152.998,102.573,96.03,70.139z"/>
	<g>
		<path fill="#254467" d="M114.959,75.981c0,0,2.583-5.179,8.366-8.025c-6.403,4.426-7.575,8.733-7.575,8.733"/>
		<path fill="#254467" d="M118.724,79.824c0,0,2.582-5.179,8.367-8.026c-6.404,4.426-7.575,8.733-7.575,8.733"/>
		<path fill="#254467" d="M121.979,82.909c0,0,3.342-4.725,9.494-6.657c-7.005,3.397-8.818,7.475-8.818,7.475"/>
		<path fill="#254467" d="M125.743,86.359c0,0,3.342-4.725,9.492-6.656c-7.003,3.397-8.817,7.475-8.817,7.475"/>
		<path fill="#254467" d="M128.463,89.81c0,0,3.343-4.724,9.492-6.656c-7.004,3.397-8.817,7.475-8.817,7.475"/>
		<path fill="#254467" d="M131.181,92.947c0,0,3.343-4.724,9.493-6.656c-7.003,3.397-8.818,7.475-8.818,7.475"/>
		<path fill="#254467" d="M134.318,96.085c0,0,3.342-4.725,9.492-6.657c-7.003,3.398-8.817,7.476-8.817,7.476"/>
		<path fill="#254467" d="M137.038,98.071c0,0,3.343-4.724,9.492-6.657c-7.004,3.398-8.817,7.476-8.817,7.476"/>
		<path fill="#254467" d="M140.176,100.372c0,0,3.342-4.724,9.492-6.657c-7.003,3.398-8.818,7.476-8.818,7.476"/>
		<path fill="#254467" d="M79.943,64.896c0,0,12.967-22.902,32.001-28.34c-19.452,8.889-28.759,28.34-28.759,28.34"/>
		<path fill="#254467" d="M88.344,66.238c0,0,8.984-17.408,22.169-21.542C97.039,51.453,90.59,66.238,90.59,66.238"/>
		<path fill="#254467" d="M97.774,68.574c0,0,3.802-9.833,11.748-14.327c-7.775,2.749-13.071,14.327-13.071,14.327"/>
		<path fill="#254467" d="M103.855,70.386c0,0,2.911-6.527,9.431-10.115c-7.22,5.578-8.539,11.007-8.539,11.007"/>
		<path fill="#254467" d="M109.695,73.148c0,0,2.689-5.437,8.716-8.426c-6.672,4.647-7.892,9.168-7.892,9.168"/>
	</g>
	<g>
		<path fill="#254467" d="M166.81,103.395c4.574-22.554,21.917-31.458,21.917-31.458s-9.229,19.724-9.825,31.957
			c-0.598,12.233,9.071,34.134,9.071,34.134s-15.582-11.742-20.951-32.004L166.81,103.395z"/>
		<path fill="#254467" d="M166.81,103.395l0.212,2.629c0.158,0.597,0.327,1.184,0.502,1.765c0.03,0.016,0.058,0.035,0.088,0.053
			c-0.005,0.062-0.015,0.112-0.018,0.182c2.344,7.657,6.098,14.006,9.751,18.863c-2.613-4.716-5.675-12.938-8.285-18.083
			c1.22,0.945,6.665,12.508,12.076,15.982c-9.087-10.622-11.425-18.506-11.425-18.506s7.217,11.425,10.088,11.491
			c-3.74-2.938-6.33-7.293-9.079-12.238c2.198,1.648,4.396,3.297,7.146,4.396c-2.198-1.649-4.766-4.463-7.514-5.562
			c2.198-0.55,4.765-0.484,6.963-1.033c-2.198,0-7.366-0.041-7.366-0.041s5.719-1.608,7.917-2.707c-1.649,0-7.729,1.581-7.729,1.581
			s7.259-7.711,9.598-8.179c-4.144,1.336-9.275,6.167-9.275,6.167s5.208-8.91,9.054-11.658c-3.846,2.748-7.578,6.935-10.073,10.369
			c4.944-17.682,19.287-26.929,19.287-26.929S171.384,80.841,166.81,103.395z"/>
	</g>
	<path fill="#C7D6EE" d="M68.564,118.396c50.46,22.449,74.973-7.519,97.4-11.237c5.438-1.586,1.919-4.414,1.919-4.414
		s-77.827-4.36-84.1-4.36C77.508,98.384,68.564,118.396,68.564,118.396z"/>
	<path fill="#C7D6EE" d="M167.883,102.744c0,0-77.827-4.36-84.1-4.36c-6.274,0-15.219,20.011-15.219,20.011
		c50.46,22.449,74.973-7.519,97.4-11.237C171.401,105.572,167.883,102.744,167.883,102.744z M100.38,122.567
		c-2.198,0-5.01-1.413-4.396-3.298c1.272-3.902,8.793-12.089,15.386-12.639c13.416-1.548,26.347,3.201,39.703,2.422
		C135.506,116.932,117.943,123.1,100.38,122.567z"/>
	<path fill="#C7D6EE" d="M86.742,121.357c-3.297-2.198-1.198-8.132,1-10.88c5.172-5.643,11.554-9.666,18.796-11.057
		c-11.598-0.598-20.769-1.036-22.755-1.036c-6.274,0-15.219,20.011-15.219,20.011c26.87,11.954,46.38,9.046,62.14,3.15
		C115.839,125.899,96.441,128.502,86.742,121.357z"/>
	<path fill="#848FAB" d="M76.751,119.819c6.816-4.719,12.576-13.441,8.842-21.391c-0.829-0.029-1.443-0.044-1.811-0.044
		c-6.274,0-15.219,20.011-15.219,20.011c2.763,1.229,5.443,2.294,8.056,3.221C76.045,120.909,76.299,120.271,76.751,119.819z"/>
	<path opacity="0.45" fill="#254467" d="M78.02,59.981c8.888-26.458,44.978-33.558,44.978-33.558S80.137,27.41,70.137,66.022
		c8.811,3.807,18.75,1.101,25.893,4.117c56.968,32.434,62.327,30.546,62.327,30.546c-0.017-1.004-0.758-2.007-1.955-3.081
		c-6.902-0.179-12.35-4.368-17.005-8.558C95.822,52.138,78.124,64.165,78.02,59.981z"/>
	<path fill="#720009" d="M33.889,105.999c0,0,2.278,0.969,12.082,2.699c14.627,1.375,14.467-7.027,14.467-7.027L33.889,105.999z"/>
	<path fill="#C7D6EE" d="M85.664,101.72c0,0,3.254,0.89,2.125,4.354c-1.129,3.464-4.006,3.086-4.006,3.086"/>
	<path fill="#E1E8F6" d="M16.902,106.209c26.165,2.438,42.184-3.849,42.184-3.849s1.469,6.935-14.684,4.883
		c-4.672-0.385-11.348-1.412-16.42,0c19.624,2.18,29.904,11.681,42.318,11.681c12.415,0,17.887-14.125,14.817-19.256
		C47.071,96.202,16.902,106.209,16.902,106.209z"/>
	<path fill="#E1E8F6" d="M30.425,106.761c1.934-0.027,3.776-0.1,5.534-0.204C34.084,106.487,32.202,106.521,30.425,106.761z"/>
	<path fill="#E1E8F6" d="M85.117,99.667c-38.046-3.465-68.215,6.542-68.215,6.542c4.873,0.454,9.392,0.605,13.522,0.552
		c1.777-0.239,3.66-0.273,5.534-0.204c14.663-0.879,23.127-4.196,23.127-4.196s1.469,6.935-14.684,4.883
		c-2.439-0.201-5.425-0.574-8.443-0.687c-1.758,0.104-3.601,0.177-5.534,0.204c-0.842,0.111-1.663,0.266-2.443,0.482
		c6.408,0.713,11.816,2.206,16.631,3.893c7.349,1.298,14.994,3.399,20.598-3.405c3.296-4.396,8.792-4.396,13.188-1.649
		c3.297,1.649,1.648,4.946,0,7.145c-3.871,3.871-8.689,4.9-13.675,5.091c1.835,0.384,3.68,0.607,5.575,0.607
		C82.715,118.924,88.187,104.799,85.117,99.667z"/>
	<path fill="#5F7A9C" d="M6.283,104.239c17.554,1.244,42.498-9.943,42.498-9.943s-6.652-21.662,4.99-25.568
		c40.28-15.092,65.209,10.204,88.562,24.803c16.294,10.186,27.634,7.401,25.787,10.419c-18.662,11.898-59.841-10.365-83.677-3.481
		c-10.794,3.117-22.728-0.675-31.227-0.319C44.716,100.505,21.25,109.743,6.283,104.239z"/>
	<path opacity="0.6" fill="#5F7A9C" d="M162.463,101.516c0.557,1.153,0.606,2.34-0.261,2.917
		c-4.945,2.748-31.323-5.496-40.116-7.693c-13.736-3.297-24.826-1.871-38.564-4.618c-3.847-0.55-8.145-3.625-11.442-5.823
		c-7.354-4.545-7.332-0.776-9.53,0.873c-8.851,8.238-13.475,5.384-14.994,1.77c0.545,3.141,1.225,5.355,1.225,5.355
		s-24.944,11.187-42.498,9.943c14.967,5.504,38.433-3.734,46.933-4.089c8.499-0.356,20.433,3.436,31.227,0.319
		c23.836-6.883,65.015,15.38,83.677,3.481C169.013,102.489,166.813,102.386,162.463,101.516z"/>
	<path opacity="0.6" fill="#5F7A9C" d="M83.423,98.362c-14.567,1.281-21.925-0.353-26.871,0.197
		c-3.561,0.712-5.697,1.394-8.933,2.444c2.224-0.466,4.135-0.792,5.596-0.853c8.499-0.356,20.433,3.436,31.227,0.319
		c15.593-4.501,38.607,3.466,57.883,6.186c-0.615-0.18-1.227-0.371-1.83-0.573C117.965,99.487,107.121,96.28,83.423,98.362z"/>
	<g>
		<g>
			<ellipse fill="#FFFFFF" cx="65.738" cy="87.547" rx="4.251" ry="4.044"/>
			<g>
				<ellipse fill="#9E0032" cx="66.301" cy="88.573" rx="2.769" ry="2.661"/>
				<ellipse fill="#9E0032" cx="66.217" cy="88.573" rx="1.446" ry="1.39"/>
				<ellipse fill="#FFFFFF" cx="65.545" cy="87.563" rx="1.299" ry="1.25"/>
				<ellipse fill="#FFFFFF" cx="67.617" cy="89.13" rx="0.564" ry="0.54"/>
			</g>
		</g>
	</g>
	<path fill="#254467" d="M72.437,81.209c0,0-4.227-3.573-11.92-1.543c0.761-0.406,2.536-1.705,6.51-1.949
		C71,77.474,72.437,81.209,72.437,81.209z"/>
	<path fill="#A5B2C7" d="M53.67,108.829c4.498-0.858,7.694-2.748,6.595-7.693c-11.434,3.268-22.868,4.375-34.836,5.466
		c-0.075,0.037-0.151,0.074-0.221,0.115c1.8,0.051,3.542,0.065,5.216,0.044c1.777-0.239,3.66-0.273,5.534-0.204
		c14.663-0.879,23.127-4.196,23.127-4.196s1.469,6.935-14.684,4.883c-2.439-0.201-5.425-0.574-8.443-0.687
		c-1.758,0.104-3.601,0.177-5.534,0.204c-0.842,0.111-1.663,0.266-2.443,0.482C33.186,106.09,46.57,109.775,53.67,108.829z"/>
	<g>
		<g>
			<path fill="#254467" d="M86.984,104.611c0,0,25.631-17.958,41.25-14.752c-19.49,4.36-27.634,22.449-32.305,22.063
				c-4.671-0.385-9.079-5.002-9.079-5.002L86.984,104.611z"/>
			<path fill="#254467" d="M89.355,107.874c2.748,2.198,6.595,1.648,9.341,0.55c-2.747,0-5.495,0.549-7.693-1.1
				c4.946,0.55,9.342-1.648,13.188-4.396c-4.396,1.649-8.242,3.847-13.188,3.298c7.693-2.198,13.738-8.244,21.432-10.442
				c-7.693,1.649-13.739,7.144-20.882,9.342c7.693-6.045,26.429-14.466,29.566-14.186c-8.845,0.094-20.774,8.69-29.566,11.438
				c0.657-0.33,1.119-1.05,1.618-1.695c-3.782,2.244-6.187,3.927-6.187,3.927l-0.134,2.31c0,0,4.407,4.617,9.079,5.002
				c1.34,0.112,2.969-1.302,5.067-3.474C96.223,112.375,92.938,111.057,89.355,107.874z"/>
		</g>
		<path fill="#254467" d="M97.646,98.809c19.219-10.158,29.183-8.993,29.183-8.993S116.217,87.937,97.646,98.809z"/>
	</g>
	<path fill="#254467" d="M74.197,61.502c-2.644-1.615,12.117-28.785,41.71-33.779C78.237,37.93,76.841,63.118,74.197,61.502z"/>
	<g opacity="0.57">
		<path fill="#5F7A9C" d="M62.121,70.283c0.858-5.283-12.071,0.072-10.163,4.269C53.213,77.298,61.762,72.493,62.121,70.283z"/>
		<path fill="#5F7A9C" d="M50.346,77.786c2.472-0.227,1.944-3.671-0.361-2.827C48.372,75.553,48.341,77.968,50.346,77.786z"/>
	</g>
	<path opacity="0.4" fill="#5F7A9C" d="M80.259,65.638c27.887,3.033,63.235,36.035,75.564,34.763
		C135.667,95.214,106.581,64.267,80.259,65.638z"/>
	<g>
		<path fill="#254467" d="M70.628,119.379c0,0-4.798,13.411,24.724,26.35c-24.505-15.597-15.731-24.58-22.819-27.112L70.628,119.379
			z"/>
		<path fill="#254467" d="M71.588,119.808c1.797-1.782-3.905,7.835,14.627,20.396C83.895,138.978,69.606,128.398,71.588,119.808z"/>
		<path fill="#254467" d="M72.549,119.876c1.797-1.782-0.126,7.491,14.628,20.396C84.856,139.045,72.835,127.506,72.549,119.876z"/>
	</g>
</g>
</svg>
