<?xml version="1.0" encoding="utf-8"?>
<!-- Generator: Adobe Illustrator 14.0.0, SVG Export Plug-In . SVG Version: 6.00 Build 43363)  -->
<!DOCTYPE svg PUBLIC "-//W3C//DTD SVG 1.1//EN" "http://www.w3.org/Graphics/SVG/1.1/DTD/svg11.dtd">
<svg version="1.1" id="Layer_1" xmlns="http://www.w3.org/2000/svg" xmlns:xlink="http://www.w3.org/1999/xlink" x="0px" y="0px"
	 width="200px" height="200px" viewBox="0 0 200 200" enable-background="new 0 0 200 200" xml:space="preserve">
<g>
	<path opacity="0.26" fill="#998776" d="M65.972,154.96c-0.249-0.055-0.703,0.422-0.354,0.518c4.589,1.249,9.239,2.046,13.904,2.243
		c-0.005-0.014-0.01-0.033-0.01-0.047l0,0c-0.348,0-0.544-0.424-0.375-0.686C74.696,156.784,70.292,155.968,65.972,154.96z"/>
	<path fill="#010101" d="M181.311,159.034c-0.58-2.741,0.618-6.058,1.15-8.729c1.228-6.147,2.115-12.478,0.916-18.702
		c-1.687-8.764-8.228-15.102-16.192-18.475c5.953-0.915,11.361-4.717,15.577-9.013c5.913-6.034,9.442-13.813,9.47-22.309
		c0.024-8.198-3.459-16.188-8.381-22.621c-1.115-1.458-4.273-5.331-6.349-3.477c-0.763,0.682-0.817,2.191-0.981,3.107
		c-0.417,2.324-1.026,4.603-1.796,6.834c-2.225,6.457-6.118,12.197-11.106,16.838c-5.71,5.317-13.716,10.734-21.8,7.898
		c-2.957-2.424-5.19-5.614-7.253-8.828c-2.428-3.788-4.559-7.718-7.394-11.228c-2.477-3.062-5.381-5.751-8.496-8.154
		c1.136-4.508,1.875-8.779,1.06-13.449c-0.688-3.945-2.131-7.765-4.186-11.196c-2.064-3.446-4.999-6.473-8.681-8.144
		c-3.698-1.679-7.954-1.712-11.929-1.439c-7.884,0.542-15.421,2.701-22.056,7.076c-6.5,4.287-11.979,10.143-15.675,17.009
		c-0.174,0.323-0.341,0.652-0.509,0.982c-0.403-0.398-0.854-0.766-1.364-1.093c-2.675-1.715-6.023-0.29-8.244,1.483
		c-1.229,0.981-2.275,2.214-3.151,3.572c0.643-4.217-0.961-9.351-6.148-7.767c-5.243,1.6-8.761,7.741-9.921,12.716
		c-0.812,3.486-0.666,8.807,2.161,11.481c-0.021,0.013-0.043,0.022-0.064,0.035c-4.571,2.946-8.104,7.054-10.853,11.711
		c-1.412,2.394-2.568,4.938-3.57,7.528c-1.078,2.787-1.752,5.687-2.716,8.502c-1.164-1.051-2.593-1.621-4.365-1.245
		c-2.264,0.481-3.465,2.446-3.431,4.651c0.037,2.488,1.897,5.095,4.388,5.512c0.313,0.053,0.63,0.055,0.95,0.027
		c0,0.005,0,0.005,0,0.005c-0.101,3.753-0.094,7.749,1.579,11.196c1.362,2.806,4.138,5.121,7.071,6.131
		c0.586,0.199,1.165,0.351,1.738,0.455c-0.005,0.028-0.005,0.056,0.007,0.078c4.046,7.045,10.769,12.218,18.55,13.94
		c4.575,6.786,12.114,11.327,19.84,13.647c0.307,0.096,0.614,0.18,0.92,0.266c-0.631,1.07,2.254,3.341,2.813,3.877
		c1.71,1.647,3.575,3.208,5.474,4.637c7.067,5.31,15.728,6.737,24.366,6.69c9.128-0.054,18.279-1.911,26.508-5.918
		c3.127-1.522,6.276-3.396,9.092-5.448c2.04-1.489,4.078-3.632,3.702-6.343c-0.333-2.399-2.364-4.74-3.749-6.613
		c-1.743-2.349-3.453-4.688-4.249-7.546c-0.03-0.104-0.097-0.151-0.182-0.163c4.539-3.391,9.073-6.783,14.188-9.195
		c0.713-0.339,1.437-0.643,2.171-0.92c2.311,0.923,4.481,1.854,6.34,3.602c2.075,1.948,3.339,4.564,4.355,7.178
		c1.932,4.952,3.127,10.159,5.325,15.015c2.115,4.667,5.395,8.806,10.256,10.761c5.659,2.268,12.38,0.792,18.074-0.955
		c0.373-0.298,0.741-0.602,1.101-0.917C183.585,162.723,181.822,161.474,181.311,159.034z"/>
	<radialGradient id="SVGID_1_" cx="87.04" cy="26.1846" r="46.8472" gradientUnits="userSpaceOnUse">
		<stop  offset="0" style="stop-color:#F6892E"/>
		<stop  offset="0.4663" style="stop-color:#F58543"/>
		<stop  offset="1" style="stop-color:#C83F27"/>
	</radialGradient>
	<path fill="url(#SVGID_1_)" d="M71.584,36.486c6.56-4.678,14.075-7.022,22.036-7.772c4.261-0.402,8.641-0.366,12.654,1.298
		c3.692,1.533,6.499,4.734,8.57,8.058c2.092,3.358,3.392,7.192,4.121,11.063c0.819,4.333,0.137,8.448-0.793,12.654
		c-7.219-5.458-15.799-9.819-24.723-11.522c-1.129-0.216-2.277-0.383-3.433-0.512c3.761-4.813,10.62-6.701,16.083-8.683
		c0.165-0.06,0.31-0.387,0.034-0.306c-3.436,0.993-6.829,2.11-10.003,3.774c-1.439,0.755-2.771,1.678-4.017,2.719
		c-0.833,0.697-1.797,1.48-2.291,2.476c-4.076-0.43-8.261-0.304-12.333,0.376c1.636-3.784,5.631-5.931,8.913-8.103
		c0.17-0.111,0.097-0.345-0.105-0.23c-3.439,1.947-7.884,4.367-9.153,8.393c-2.856,0.501-5.652,1.273-8.312,2.324
		c-0.206,0.001-0.42,0.029-0.637,0.098c-0.068,0.023-0.187,0.206-0.045,0.183c0.004,0,0.011,0,0.018-0.002
		c-0.05,0.022-0.102,0.044-0.152,0.064c1.308-4.52,5.959-8.419,9.484-11.29c4.145-3.377,8.771-5.242,13.857-6.671
		c0.19-0.053,0.476-0.497,0.12-0.463c-5.388,0.52-10.547,3.817-14.633,7.166c-1.975,1.621-3.815,3.46-5.538,5.346
		c-1.583,1.737-3.052,3.703-3.602,6.024c-0.003,0.009,0,0.014,0,0.021c-3.074,1.355-5.902,3.183-8.383,5.447
		c-0.332-1.987-1.092-3.82-2.47-5.252C60.564,46.623,65.441,40.868,71.584,36.486z"/>
	<path fill="#FFFFFF" d="M117.586,73.892c-0.301,3.658-0.64,7.306-0.908,10.967c-0.249,3.416-0.789,6.846-2.208,9.985
		c-0.467,1.033-1.438,3.164-2.6,1.593c-0.482-0.646-0.745-1.46-0.982-2.22c-0.455-1.461-0.593-3.021-0.76-4.533
		c-0.786-7.075-1.999-14.165-4.195-20.946c-1.064-3.287-2.436-6.489-3.867-9.628c-1.076-2.353-2.271-4.703-4.034-6.599
		c4.665,1.426,9.123,3.562,13.417,6.118c1.928,1.146,3.771,2.382,5.534,3.708C117.962,66.132,117.91,70.011,117.586,73.892z"/>
	<path fill="#FFFFFF" d="M92.025,65.477c0.642,2.789,0.849,5.747,0.066,8.526c-0.458,1.623-1.582,3.803-3.591,3.048
		c-1.094-0.413-1.94-1.451-2.659-2.33c-1.537-1.886-2.698-4.1-3.904-6.202c-1.583-2.758-3.14-5.528-4.881-8.19
		c-1.319-2.014-2.784-3.958-4.364-5.774c-0.598-0.686-1.396-1.545-2.306-1.928c4.269-1.562,8.86-2.288,13.502-2.299
		c0.317-0.001,0.633,0.003,0.949,0.011C88.246,54.849,90.748,59.958,92.025,65.477z"/>
	<path fill="#FFFFFF" d="M45.857,55.466c0.025-0.037,0.042-0.071,0.052-0.102c2.472-2.803,5.583-4.528,8.906-2.397
		c4.591,2.946,4.176,10.255,3.06,14.789c-0.732,2.975-2.064,5.917-4.277,8.078c-2.722,2.654-6.022,2.377-8.379-0.439
		c-1.787-2.134-2.573-4.973-3.042-7.682c-0.048-0.208-0.071-0.417-0.094-0.627c-0.005-0.001-0.009-0.003-0.012-0.005
		C41.381,62.667,43.521,59.025,45.857,55.466z"/>
	<path fill="#FFFFFF" d="M28.443,62.719c0.604-4.844,3.902-10.117,8.248-12.42c5.12-2.711,7.042,3.587,6.621,7.726
		c-0.344,0.613-0.648,1.245-0.922,1.888c-0.3,0.7-0.529,1.436-0.707,2.175c-0.021,0.089-0.042,0.18-0.062,0.269
		c-0.03,0.123-0.06,0.245-0.089,0.369c-0.085,0.35-0.149,0.702-0.218,1.055c-0.025,0.145-0.048,0.29-0.066,0.437
		c-0.073,0.578-0.107,1.159-0.101,1.74c0.004,0.332,0.022,0.665,0.052,0.996c0.021,0.217,0.046,0.437,0.074,0.656
		c-1.419,4.192-6.857,9.279-10.917,4.963C28.059,70.131,28.056,65.816,28.443,62.719z"/>
	<radialGradient id="SVGID_2_" cx="98.2554" cy="127.1074" r="60.1335" gradientUnits="userSpaceOnUse">
		<stop  offset="0" style="stop-color:#F6892E"/>
		<stop  offset="0.4663" style="stop-color:#F58543"/>
		<stop  offset="1" style="stop-color:#C83F27"/>
	</radialGradient>
	<path fill="url(#SVGID_2_)" d="M129.174,149.732c1.044,1.548,2.25,3.406,2.059,5.348c-0.207,2.005-1.974,3.4-3.483,4.501
		c-7.247,5.298-15.793,8.681-24.612,10.136c-9.174,1.511-19.143,1.406-27.809-2.261c-3.217-1.358-6.105-3.327-8.798-5.529
		c-1.981-1.625-4.202-3.282-5.762-5.337c-0.105-0.138-0.384-0.438-0.373-0.659c3.568,0.924,7.25,1.272,10.956,1.254
		c6.011,4.839,13.257,7.406,20.941,7.977c0.12,0.007,0.328-0.231,0.164-0.245c-7.571-0.75-14.642-3.085-20.669-7.736
		c2.645-0.036,5.302-0.258,7.932-0.585c-0.014,0.031-0.021,0.059-0.021,0.087c0.191-0.073,0.383-0.14,0.575-0.207
		c0.101-0.031,0.192-0.022,0.272,0.014c0.165-0.021,0.33-0.045,0.497-0.067c1.189,1.272,2.943,1.826,4.55,2.412
		c2.332,0.844,4.902,1.199,7.347,1.552c5.355,0.769,10.8,0.851,16.192,0.521c0.158-0.009,0.377-0.32,0.128-0.316
		c-5.152,0.11-10.309,0.042-15.428-0.581c-2.366-0.289-4.698-0.756-7.019-1.295c-1.81-0.426-3.964-1.094-5.445-2.334
		c2.171-0.308,4.321-0.674,6.431-1.062c2.099-0.386,4.158-0.833,6.187-1.343c-0.007,0.093,0.091,0.144,0.218,0.051
		c0.065-0.051,0.131-0.105,0.195-0.155c6.679-1.713,13.008-4.156,19.108-7.716c1.707-0.995,3.359-2.085,4.987-3.219
		c0.062-0.016,0.135-0.065,0.164-0.12c1.517-1.062,3.01-2.164,4.499-3.277c-0.007,0.042-0.007,0.083,0.006,0.119
		C124.232,143.532,126.975,146.47,129.174,149.732z"/>
	<radialGradient id="SVGID_3_" cx="98.9136" cy="70.71" r="115.4039" gradientUnits="userSpaceOnUse">
		<stop  offset="0" style="stop-color:#F6892E"/>
		<stop  offset="0.4663" style="stop-color:#F58543"/>
		<stop  offset="1" style="stop-color:#C83F27"/>
	</radialGradient>
	<path fill="url(#SVGID_3_)" d="M169.792,128.714c1.681,3.548,3.491,6.907,4.484,10.739c0.998,3.85,0.994,7.922,1.371,11.858
		c0.312,3.272,0.687,6.592,2.591,9.361c1.327,1.935,3.398,3.548,5.8,3.371c0.017,0.006,0.031,0.016,0.048,0.021
		c-0.497,0.108-0.994,0.219-1.492,0.329c-6.355,0.851-11.498-5.548-15.027-10.098c-0.065-0.086-0.263,0.059-0.209,0.152
		c2.468,4.159,7.091,9.866,12.368,10.563c-4.908,0.988-9.863,1.486-14.532-1.013c-4.81-2.577-7.547-7.529-9.473-12.423
		c-3.352-8.513-4.733-20.4-15.119-22.817c3.474-1.272,7.127-1.96,10.8-2.453c0.286-0.037,0.701-0.642,0.235-0.596
		c-4.545,0.439-8.979,1.557-13.154,3.41c-4.609,2.046-8.795,5.21-12.828,8.193c-2.277,1.689-4.562,3.338-6.883,4.911
		c0.879-4.751,1.688-10.042,0.359-14.771c-0.366-1.3-1.358-2.952-2.927-2.63c-1.347,0.277-2.153,1.732-2.728,2.838
		c-0.88,1.683-1.417,3.523-2.243,5.23c-1.33,2.745-2.906,5.371-4.646,7.873c-3.349,4.811-7.559,8.979-12.07,12.701
		c-2.733,0.636-5.5,1.126-8.279,1.569c-1.681,0.271-3.369,0.517-5.06,0.725c1.019-1.212,1.753-2.623,2.417-4.074
		c1.003-2.188,2.051-4.493,2.609-6.843c0.563-2.378,0.652-4.816-0.544-7.022c-0.518-0.951-1.354-0.81-2.019-0.142
		c-0.394,0.403-0.666,0.975-0.92,1.468c-0.602,1.165-1.199,2.199-2.016,3.233c-1.792,2.262-3.98,4.188-6.295,5.887
		c-2.328,1.712-4.883,3.1-7.521,4.262c-1.431,0.633-2.907,1.13-4.417,1.538c-0.987,0.266-1.985,0.407-2.999,0.495
		c-0.27,0.021-0.542,0.03-0.812,0.03c-4.714-1.465-9.148-3.785-13.11-6.953c-2.027-1.617-3.845-3.497-5.44-5.543
		c1.749,0.329,3.543,0.493,5.372,0.457c11.391-0.215,20.503-8.458,27.711-16.445c0.272-0.302-0.117-0.416-0.339-0.196
		c-3.946,3.845-7.646,7.863-12.215,11.005c-4.559,3.138-9.9,5.056-15.448,5.203c-1.85,0.046-3.669-0.124-5.437-0.484
		c-0.016-0.02-0.034-0.043-0.052-0.065c-0.057-0.078-0.165-0.059-0.261-0.005c-7.615-1.652-14.249-6.852-18.243-13.576
		c6.115,0.911,11.542-3.19,16.282-6.824c0.206-0.155,0.059-0.357-0.154-0.208c-5.508,3.858-11.337,8.708-18.454,5.971
		c-2.805-1.08-5.087-3.293-6.472-5.93c-1.71-3.255-1.517-7.358-1.611-10.919c0.646-0.11,1.289-0.335,1.888-0.577
		c1.65,1.094,2.066,3.199,2.561,5.013c0.465,1.693,1.177,3.176,2.59,4.281c1.242,0.969,2.816,0.932,4.203,0.371
		c1.9-0.771,2.614-2.955,4.419-3.813c0.156,0.082,0.316,0.161,0.474,0.235c2.346,1.099,5.31,1.318,7.745,0.394
		c5.211-1.978,8.434-6.65,10.027-11.818c0.181,0.142,0.366,0.281,0.563,0.407c2.339,1.496,6.086,0.966,8.587,0.229
		c0.272-0.082,0.752-0.741,0.201-0.7c-2.547,0.204-4.886,0.838-7.442,0.197c-3.2-0.8-4.948-4.627-4.897-7.648
		c0.002-0.021-0.032-0.004-0.032,0.012c-0.206,2.522,0.661,5.266,2.508,7.051c-0.074,0.063-0.128,0.133-0.146,0.203
		c-1.364,4.786-4.264,10.123-9.37,11.583c-2.497,0.714-5.182,0.385-7.466-0.804c-2.153-1.119-3.501-3.119-5.129-4.836
		c-1.433-1.515-3.314-2.297-5.385-2.142c-2.759,0.206-5.383,2.402-8.178,1.24c-2.746-1.145-4.062-5.369-2.115-7.636
		c2.462-2.865,5.921,0.272,7.562,2.223c0.167,0.199,0.637-0.146,0.499-0.368c-0.316-0.499-0.661-0.971-1.037-1.396
		c0.145-0.09,0.266-0.21,0.307-0.342c1.678-5.237,3.089-10.387,5.734-15.257c2.64-4.864,6.272-9.155,10.868-12.27
		c0.06-0.041,0.108-0.084,0.144-0.128c0.183,0.141,0.373,0.275,0.575,0.396c4.087,2.442,8.516-1.439,10.45-5.154
		c0.559,2.872,1.745,5.759,3.788,7.788c1.325,1.315,2.907,1.722,4.488,1.491c-2.552,1.483-4.761,3.521-6.345,6.145
		c-0.022,0.037,0.03,0.03,0.046,0.006c1.821-2.78,4.355-4.888,7.259-6.369c0.613-0.188,1.218-0.465,1.797-0.814
		c0.405-0.167,0.817-0.322,1.231-0.464c4.527-1.552,8.745-0.693,13.324-0.04c0.319,0.045,0.907-0.563,0.442-0.684
		c-4.516-1.173-9.567-1.021-14.055,0.532c2.261-1.793,3.66-4.617,4.565-7.279c0.621-1.817,1.154-3.973,1.378-6.172
		c0.316,0.229,0.675,0.425,0.936,0.664c1.321,1.207,2.58,2.331,3.687,3.749c2.347,3.005,4.038,6.701,5.683,10.12
		c1.808,3.755,3.25,7.668,4.552,11.624c1.282,3.894,1.584,7.99,2.63,11.932c0.05,0.194,0.393-0.022,0.373-0.18
		c-0.987-8.097-3.417-15.776-6.601-23.257c-1.464-3.438-3.177-6.832-5.264-9.94c-0.979-1.46-2.208-2.741-3.525-3.902
		c-0.641-0.568-1.574-0.979-2.219-1.554c0.039-0.079,0.037-0.151-0.055-0.189c-0.044-0.018-0.083-0.034-0.119-0.049
		c0.066-1.146,0.035-2.291-0.121-3.395c2.991-2.588,6.353-4.531,9.939-5.905c1.794,0.611,3.3,3.092,4.32,4.374
		c2.337,2.937,4.239,6.194,6.104,9.44c1.602,2.791,3.116,5.656,4.914,8.328c1.101,1.634,2.65,3.777,4.76,4.05
		c1.733,0.223,2.829-1.694,3.406-3.001c1.175-2.662,1.025-5.787,0.595-8.592c-0.956-6.196-3.881-12.148-7.582-17.164
		c3.624,0.149,7.122,0.771,10.517,1.751c2.271,2.38,3.7,5.369,5.039,8.355c1.841,4.112,3.53,8.158,4.74,12.513
		c1.186,4.271,1.966,8.645,2.562,13.034c0.487,3.598,0.344,7.358,1.329,10.869c0.277,0.979,0.875,2.718,2.028,2.935
		c1.014,0.191,1.712-0.945,2.122-1.663c1.787-3.108,2.427-6.87,2.842-10.379c0.497-4.197,0.851-8.409,1.33-12.606
		c0.441-3.854,0.618-7.729-0.08-11.539c4.613,3.677,8.605,8.01,11.787,13.148c2.399,3.876,4.615,7.85,7.692,11.251
		c3.022,3.341,6.85,5.491,11.052,7.01c2.614,0.946,5.354,1.682,8.089,2.186c0.186,0.035,0.551-0.314,0.278-0.396
		c-4.558-1.38-9.109-2.35-13.221-4.881c-0.633-0.392-1.237-0.823-1.814-1.28c7.907,2.607,15.603-2.593,21.304-7.69
		c6.106-5.459,10.468-12.347,12.722-20.229c0.486-1.701,0.802-3.432,1.154-5.161c0.131-0.655,0.322-1.153,0.636-1.421
		c2.449,3.289,3.135,7.605,3.829,11.554c0.018,0.102,0.197-0.015,0.189-0.095c-0.237-4.097-0.732-8.299-3.247-11.663
		c0.096,0.013,0.202,0.036,0.313,0.072c1.85,2.907,3.983,5.596,5.347,8.791c1.396,3.265,2.306,6.666,2.782,10.183
		c0.497,3.688,0.456,7.481,0.081,11.18c-0.376,3.708-1.62,7.104-3.043,10.517c-0.05,0.124,0.147,0.053,0.182-0.016
		c3.317-6.505,3.728-14.009,2.955-21.147c-0.407-3.729-1.219-7.427-2.47-10.961c-1.037-2.922-2.993-5.602-4.917-8.081
		c0.883,0.566,1.63,1.337,2.328,2.103c2.777,3.062,4.924,7.136,6.486,10.929c3.433,8.335,3.422,17.78-0.554,25.91
		c-4.563,9.333-15.658,19.029-26.699,16.615c-0.458-0.101-1.233,0.811-0.611,0.943c1.855,0.397,3.685,0.472,5.47,0.278
		c3.939,2.093,7.688,4.413,10.681,7.8c3.319,3.749,5.113,8.382,5.718,13.316c0.813,6.676-0.729,13.366-2.049,19.87
		c-0.45,2.215-0.877,4.49-0.018,6.664c0.544,1.378,1.673,2.289,2.952,2.957c-2.9-0.366-4.971-3.177-6.076-5.722
		c-1.323-3.049-1.509-6.729-1.772-9.996c-0.29-3.568-0.588-7.101-1.649-10.537c-0.964-3.113-2.479-6.239-4.18-9.009
		C169.92,128.503,169.755,128.631,169.792,128.714z"/>
	<path fill="#FDFEFF" d="M18.395,112.936c0.083-0.133-0.067-0.142-0.171-0.082c-1.508-0.758-2.607-2.134-2.855-4.316
		c1.707-0.398,3.362-0.261,5.031,0.864c1.312,0.887,2.174,2.321,3.099,3.566c0.116,0.155,0.242,0.307,0.372,0.449
		C21.943,113.755,19.963,113.664,18.395,112.936z"/>
	<path fill="#DD3526" d="M24.236,113.797c0.512,0.496,1.102,0.924,1.718,1.286c-0.958,0.553-1.631,1.418-2.373,2.293
		c-1.903,2.247-4.45,1.886-6.161,0.023c-0.249-1.374,0.096-2.956,0.783-4.148C19.936,114.121,22.149,114.272,24.236,113.797z"/>
	<path fill="#C23426" d="M18.004,113.146c-0.661,1.062-1.064,2.431-1.016,3.721c-0.033-0.045-0.066-0.091-0.099-0.135
		c-1.444-2.089-1.301-6.19-3.883-7.367c0.091-0.038,0.184-0.078,0.272-0.114c0.608-0.266,1.208-0.485,1.801-0.646
		C15.292,110.801,16.43,112.285,18.004,113.146z"/>
	<path fill="#010101" d="M103.187,100.088c-1.369-5.546-5.132-11.782-11.675-8.92c-3.495,1.53-6.135,4.886-8.5,7.745
		c-2.921,3.537-5.445,7.89-9.325,10.466c-0.235,0.156-0.13,0.494,0.148,0.321c3.425-2.118,5.616-5.34,8.086-8.439
		c2.22-2.788,4.591-5.665,7.386-7.887c3.142-2.504,6.946-2.874,9.715,0.318c2.167,2.499,3.009,6.094,3.586,9.27
		c1.3,7.158,0.954,15.673-3.876,21.522c-2.649,3.204-6.509,4.463-10.383,2.848c-3.271-1.36-5.895-4.12-8.166-6.748
		c-1.836-2.123-3.39-4.463-5.185-6.611c-0.146-0.176-0.554,0.135-0.43,0.327c3.365,5.161,7.756,11.251,13.608,13.728
		c6.341,2.679,11.861-2.462,14.235-7.979C105.079,113.847,104.776,106.522,103.187,100.088z"/>
	<path fill="#010101" d="M93.235,97.509c-6.463,4.093-12.104,9.494-19.242,12.454c-0.124,0.053-0.181,0.29,0.007,0.227
		c7.376-2.568,12.906-8.358,19.272-12.629C93.326,97.525,93.288,97.477,93.235,97.509z"/>
	<path fill="#010101" d="M97.947,105.919c-3.678,0.197-7.314,0.778-10.9,1.602c-4.072,0.93-8.242,3.369-12.479,3.25
		c-0.166-0.007-0.467,0.344-0.231,0.357c3.496,0.196,7.006-1.46,10.265-2.509c4.235-1.364,8.787-1.845,13.191-2.316
		C97.98,106.285,98.254,105.9,97.947,105.919z"/>
	<path fill="#010101" d="M75.777,111.714c-0.118-0.014-0.211-0.096-0.329-0.11c-0.004,0-0.014,0.01-0.01,0.01
		c0.12,0.014,0.214,0.096,0.33,0.109C75.774,111.723,75.781,111.714,75.777,111.714z"/>
	<path fill="#010101" d="M92.539,110.808c-6.114,0.077-12.093,1.785-18.223,0.782c-0.121-0.022-0.34,0.22-0.166,0.257
		c6.033,1.274,12.237-0.287,18.279-0.761C92.563,111.077,92.758,110.808,92.539,110.808z"/>
	<path fill="#010101" d="M83.961,119.138c-2.947-1.995-5.766-4-8.403-6.405c-0.093-0.083-0.309,0.094-0.23,0.171
		c2.609,2.366,5.388,4.708,8.528,6.345C83.906,119.275,84.021,119.18,83.961,119.138z"/>
	<radialGradient id="SVGID_4_" cx="47.6279" cy="63.7842" r="16.7994" gradientUnits="userSpaceOnUse">
		<stop  offset="0" style="stop-color:#C83F27"/>
		<stop  offset="1" style="stop-color:#491F10"/>
	</radialGradient>
	<path fill="url(#SVGID_4_)" d="M57.088,66.58c-0.646,4.433-3.852,7.635-7.163,7.154c-3.31-0.482-5.473-4.465-4.827-8.898
		c0.643-4.431,3.85-7.635,7.161-7.153C55.57,58.163,57.731,62.147,57.088,66.58z"/>
	<radialGradient id="SVGID_5_" cx="32.126" cy="60.4858" r="11.2168" gradientUnits="userSpaceOnUse">
		<stop  offset="0.4601" style="stop-color:#C83F27"/>
		<stop  offset="1" style="stop-color:#491F10"/>
	</radialGradient>
	<path fill="url(#SVGID_5_)" d="M41.218,63.972c-0.563,3.869-3.119,6.7-5.712,6.324c-2.591-0.376-4.236-3.819-3.673-7.689
		c0.563-3.869,3.119-6.701,5.71-6.324C40.135,56.658,41.781,60.103,41.218,63.972z"/>
	<path fill="#010101" d="M181.526,80.057c-1.308,6.018-2.828,11.71-6.032,17.021c-0.096,0.163,0.136,0.129,0.207,0.035
		c3.592-4.857,4.69-11.274,5.839-17.06C181.54,80.046,181.529,80.052,181.526,80.057z"/>
	<path fill="#010101" d="M76.298,39.053c-3.57,1.972-6.856,4.432-9.625,7.433c-2.571,2.781-5.182,6.449-5.64,10.302
		c-0.019,0.137,0.222,0.023,0.235-0.076c0.544-3.952,3.339-7.646,5.976-10.499c2.62-2.833,5.808-4.985,9.103-6.95
		C76.492,39.178,76.496,38.945,76.298,39.053z"/>
	<path fill="#010101" d="M114.867,156.521c-3.315-0.5-6.661-0.673-9.963-1.313c-1.881-0.365-3.715-0.957-5.446-1.772
		c-0.474-0.224-1.078-0.842-1.598-0.502c-0.007,0.004-0.021,0.021-0.007,0.031c1.067,0.426,2.032,1.245,3.11,1.719
		c1.297,0.569,2.705,0.918,4.081,1.229c3.084,0.699,6.316,0.934,9.467,1.15C114.76,157.079,115.243,156.576,114.867,156.521z"/>
	<path fill="#231F20" d="M137.007,97.292c-0.081-2.426-0.445-5.111-1.859-7.145c-1.288-1.852-3.586-1.36-5.013,0.039
		c-1.884,1.851-1.525,5.319-1.344,7.685c0.131,1.717,0.41,3.427,0.42,5.151c0,0.043,0.011,0.073,0.024,0.103
		c-0.123,2.57-0.424,5.132-0.904,7.692c-0.51,2.708-2.075,5.817-1.535,8.605c0.49,2.511,3.225,0.376,4.074-0.526
		c2.291-2.439,3.854-5.708,4.843-8.861C137,105.933,137.146,101.553,137.007,97.292z"/>
	<path fill="#FFFFFF" d="M135.488,107.246c-0.586,3.255-1.915,6.282-3.789,8.994c-0.674,0.971-2.118,3.104-3.541,2.56
		c-1.215-0.467-0.675-2.696-0.49-3.599c0.565-2.783,1.398-5.424,1.788-8.262c0.164-1.208,0.265-2.417,0.313-3.625
		c0.017-0.01,0.034-0.023,0.051-0.032c-0.034-1.506-0.117-3.018-0.061-4.517c-0.092-0.901-0.178-1.801-0.185-2.703
		c-0.008-1.19,0.114-2.394,0.581-3.494c0.639-1.513,2.532-2.173,3.777-1.021c1.414,1.307,1.775,3.774,1.97,5.593
		C136.258,100.461,136.079,103.964,135.488,107.246z"/>
	<ellipse fill="#050709" cx="50.678" cy="66.092" rx="4.04" ry="4.947"/>
	
		<ellipse transform="matrix(0.9977 0.0676 -0.0676 0.9977 4.3995 -2.3226)" fill="#050709" cx="36.496" cy="63.804" rx="3.313" ry="4.058"/>
	<circle fill="#FDFEFF" cx="54.388" cy="61.31" r="1.979"/>
	<circle fill="#FDFEFF" cx="39.217" cy="60.156" r="1.979"/>
	<g opacity="0.5">
		<radialGradient id="SVGID_6_" cx="98.2549" cy="127.1123" r="60.1274" gradientUnits="userSpaceOnUse">
			<stop  offset="0" style="stop-color:#F6892E"/>
			<stop  offset="0.4663" style="stop-color:#F58543"/>
			<stop  offset="1" style="stop-color:#C83F27"/>
		</radialGradient>
		<path fill="url(#SVGID_6_)" d="M77.876,168.423c8.036,2.704,16.973,2.658,25.261,1.294c8.819-1.455,17.365-4.838,24.612-10.136
			c1.51-1.101,3.276-2.496,3.483-4.501c0.059-0.624-0.023-1.242-0.2-1.841C110.931,169.081,90.094,169.854,77.876,168.423z"/>
	</g>
	<g>
		<radialGradient id="SVGID_7_" cx="87.041" cy="26.1846" r="46.8461" gradientUnits="userSpaceOnUse">
			<stop  offset="0" style="stop-color:#F6892E"/>
			<stop  offset="0.4663" style="stop-color:#F58543"/>
			<stop  offset="1" style="stop-color:#C83F27"/>
		</radialGradient>
		<path fill="url(#SVGID_7_)" d="M110.484,32.729c-1.254-1.125-2.651-2.07-4.21-2.717c-4.014-1.664-8.394-1.7-12.654-1.298
			c-7.96,0.75-15.476,3.095-22.036,7.772c-3.923,2.796-7.326,6.157-10.24,9.919C70.852,39.168,90.691,26.97,110.484,32.729z"/>
	</g>
	<path fill="#FFFFFF" d="M96.214,152.731c7.078-5.539,12.812-12.31,16.697-20.47c0.632-1.327,1.056-2.742,1.707-4.064
		c0.359-0.732,0.968-1.93,1.935-1.804c1.026,0.138,1.684,1.552,2.009,2.378c1.63,4.131,0.521,9.316-0.077,13.574
		c-5.283,3.561-10.775,6.688-16.912,8.829C99.808,151.792,98.021,152.296,96.214,152.731z"/>
	<path fill="#FFFFFF" d="M60.738,154.781c3.374-0.128,6.782-1.684,9.67-3.185c3.635-1.889,6.938-4.423,9.665-7.477
		c1.079-1.21,1.913-2.479,2.677-3.899c0.377-0.695,0.98-1.913,1.75-0.805c0.814,1.176,0.864,2.896,0.776,4.253
		c-0.151,2.299-1.154,4.48-2.028,6.577c-0.803,1.932-1.621,3.925-3.04,5.479c-2.905,0.334-5.822,0.545-8.745,0.549
		C67.785,156.28,64.185,155.775,60.738,154.781z"/>
	<g>
		<path fill="none" d="M119.131,127.455c-0.366-1.3-1.358-2.952-2.927-2.63c-1.347,0.277-2.153,1.732-2.728,2.838
			c-0.88,1.683-1.417,3.523-2.243,5.23c-1.33,2.745-2.906,5.371-4.646,7.873c-1.719,2.471-3.666,4.77-5.763,6.93
			c0.596-0.229,1.192-0.467,1.795-0.71c4.174-4.302,7.657-9.191,10.292-14.725c0.632-1.327,1.056-2.742,1.707-4.064
			c0.359-0.732,0.968-1.93,1.935-1.804c1.026,0.138,1.684,1.552,2.009,2.378c1.186,3,0.922,6.552,0.462,9.902
			c0.126-0.077,0.254-0.154,0.38-0.233C119.926,134.771,120.113,130.956,119.131,127.455z"/>
		<path fill="none" d="M86.204,144.845c0.563-2.378,0.652-4.816-0.544-7.022c-0.518-0.951-1.354-0.81-2.019-0.142
			c-0.394,0.403-0.666,0.975-0.92,1.468c-0.602,1.165-1.199,2.199-2.016,3.233c-1.792,2.262-3.98,4.188-6.295,5.887
			c-2.328,1.712-4.883,3.1-7.521,4.262c-0.38,0.169-0.762,0.324-1.149,0.475c0.471,0.051,0.948,0.097,1.431,0.138
			c1.127-0.48,2.218-1.016,3.238-1.546c3.635-1.889,6.938-4.423,9.665-7.477c1.079-1.21,1.913-2.479,2.677-3.899
			c0.377-0.695,0.98-1.913,1.75-0.805c0.814,1.176,0.864,2.896,0.776,4.253c-0.151,2.299-1.154,4.48-2.028,6.577
			c-0.332,0.796-0.668,1.603-1.045,2.385c0.337-0.051,0.679-0.101,1.022-0.156c0.127-0.26,0.25-0.521,0.371-0.787
			C84.598,149.5,85.646,147.194,86.204,144.845z"/>
		<radialGradient id="SVGID_8_" cx="98.9136" cy="70.7139" r="115.4013" gradientUnits="userSpaceOnUse">
			<stop  offset="0" style="stop-color:#F6892E"/>
			<stop  offset="0.4663" style="stop-color:#F58543"/>
			<stop  offset="1" style="stop-color:#C83F27"/>
		</radialGradient>
		<path fill="url(#SVGID_8_)" d="M81.178,155.762c1.691-0.208,3.379-0.453,5.06-0.725c2.778-0.443,5.545-0.934,8.279-1.569
			c2.194-1.811,4.318-3.726,6.307-5.771c-6.307,2.414-12.202,3.932-17.6,4.778C82.654,153.646,82.012,154.772,81.178,155.762z"/>
		<radialGradient id="SVGID_9_" cx="98.9131" cy="70.7153" r="115.3947" gradientUnits="userSpaceOnUse">
			<stop  offset="0" style="stop-color:#F6892E"/>
			<stop  offset="0.4663" style="stop-color:#F58543"/>
			<stop  offset="1" style="stop-color:#C83F27"/>
		</radialGradient>
		<path opacity="0.5" fill="url(#SVGID_9_)" d="M49.112,144.094c28.858-9.567,28.033-24.571,23.912-20.776
			c-29.519,27.866-51.287,8.408-43.537,5.439c13.854-7.422,12.533-15.336,8.082-11.376c-18.968,15.416-25.167,0.356-26.742-5.296
			c0.052,3.03,0.179,6.257,1.575,8.914c1.384,2.637,3.667,4.85,6.472,5.93c7.116,2.737,12.945-2.112,18.454-5.971
			c0.213-0.149,0.359,0.053,0.154,0.208c-4.74,3.634-10.167,7.735-16.282,6.824c3.994,6.725,10.628,11.924,18.243,13.576
			c0.096-0.054,0.204-0.073,0.261,0.005c0.019,0.022,0.037,0.046,0.052,0.065c1.767,0.36,3.587,0.53,5.437,0.484
			c5.547-0.147,10.889-2.065,15.448-5.203c4.569-3.142,8.269-7.16,12.215-11.005c0.222-0.22,0.611-0.105,0.339,0.196
			c-7.208,7.987-16.32,16.23-27.711,16.445c-1.829,0.036-3.623-0.128-5.372-0.457c1.595,2.046,3.413,3.926,5.44,5.543
			c3.962,3.168,8.396,5.488,13.11,6.953c0.271,0,0.542-0.01,0.812-0.03c1.014-0.088,2.012-0.229,2.999-0.495
			c1.109-0.302,2.201-0.65,3.268-1.063C51.462,151.436,44.672,145.08,49.112,144.094z"/>
		<radialGradient id="SVGID_10_" cx="98.9102" cy="70.7036" r="115.4131" gradientUnits="userSpaceOnUse">
			<stop  offset="0" style="stop-color:#F6892E"/>
			<stop  offset="0.4663" style="stop-color:#F58543"/>
			<stop  offset="1" style="stop-color:#C83F27"/>
		</radialGradient>
		<path opacity="0.5" fill="url(#SVGID_10_)" d="M155.147,126.777c-2.144-5.607-16.985-1.153-27.374,6.103
			c-2.836,2.033-5.628,3.886-8.37,5.561c-0.18,1.286-0.401,2.555-0.632,3.785c2.321-1.573,4.605-3.222,6.883-4.911
			c4.033-2.983,8.219-6.147,12.828-8.193c4.176-1.854,8.609-2.971,13.154-3.41c0.466-0.046,0.051,0.559-0.235,0.596
			c-3.673,0.493-7.326,1.181-10.8,2.453c1.145,0.266,2.18,0.654,3.117,1.135C146.877,129.813,155.688,129.354,155.147,126.777z"/>
		<g>
			<path fill="none" d="M14.457,103.177C14.457,103.177,14.457,103.177,14.457,103.177c-0.084,0.146-0.167,0.284-0.248,0.403
				C14.382,103.513,14.546,103.319,14.457,103.177z"/>
			<radialGradient id="SVGID_11_" cx="23.021" cy="88.4805" r="12.4129" gradientUnits="userSpaceOnUse">
				<stop  offset="0" style="stop-color:#F6892E"/>
				<stop  offset="0.4663" style="stop-color:#F58543"/>
				<stop  offset="1" style="stop-color:#C83F27"/>
			</radialGradient>
			<path fill="url(#SVGID_11_)" d="M31.047,74.181c-0.202-0.121-0.392-0.255-0.575-0.396c-0.036,0.043-0.084,0.087-0.144,0.128
				c-4.596,3.115-8.228,7.406-10.868,12.27c-2.645,4.87-4.056,10.02-5.734,15.257c-0.042,0.132-0.163,0.252-0.307,0.342
				c0.375,0.425,0.721,0.895,1.036,1.396c2.1-3.71,3.653-17.955,18.166-28.289C32.546,74.846,31.121,74.224,31.047,74.181z"/>
			<radialGradient id="SVGID_12_" cx="98.916" cy="70.7158" r="115.4023" gradientUnits="userSpaceOnUse">
				<stop  offset="0" style="stop-color:#F6892E"/>
				<stop  offset="0.4663" style="stop-color:#F58543"/>
				<stop  offset="1" style="stop-color:#C83F27"/>
			</radialGradient>
			<path fill="url(#SVGID_12_)" d="M12.832,104.187c0.512,0.245,0.944,0.016,1.377-0.606c-0.096,0.036-0.191,0.036-0.251-0.035
				c-1.641-1.95-5.1-5.087-7.562-2.223c-1.631,1.9-0.973,5.178,0.902,6.857C7.044,106.655,6.712,101.959,12.832,104.187z"/>
		</g>
		<path fill="#D4D5D6" d="M96.214,152.731c1.807-0.436,3.594-0.939,5.358-1.557c6.137-2.142,11.629-5.269,16.912-8.829
			c0.165-1.168,0.366-2.405,0.539-3.672c-5.708,3.47-11.189,6.198-16.404,8.313C100.634,149.033,98.495,150.945,96.214,152.731z"/>
		<path fill="#D4D5D6" d="M67.17,153.143c-2.058,0.877-4.253,1.558-6.432,1.639c3.447,0.994,7.047,1.499,10.725,1.492
			c2.922-0.004,5.84-0.215,8.745-0.549c0.833-0.913,1.458-1.981,1.994-3.094C76.606,153.432,71.562,153.515,67.17,153.143z"/>
	</g>
	<g>
		<path fill="none" d="M157.158,96.788c-0.395,0.082-0.783,0.157-1.168,0.223c0.295,0.061,0.594,0.119,0.89,0.173
			C157.065,97.219,157.431,96.87,157.158,96.788z"/>
		<path fill="none" d="M79.738,66.698c1.602,2.791,3.116,5.656,4.914,8.328c1.101,1.634,2.65,3.777,4.76,4.05
			c1.733,0.223,2.829-1.694,3.406-3.001c1.175-2.662,1.025-5.787,0.595-8.592c-0.732-4.751-2.625-9.355-5.136-13.507
			c-0.338-0.025-0.672-0.046-1.009-0.064c2.177,3.576,3.803,7.457,4.756,11.565c0.642,2.789,0.849,5.747,0.066,8.526
			c-0.458,1.623-1.582,3.803-3.591,3.048c-1.094-0.413-1.94-1.451-2.659-2.33c-1.537-1.886-2.698-4.1-3.904-6.202
			c-1.583-2.758-3.14-5.528-4.881-8.19c-1.196-1.829-2.52-3.593-3.937-5.264c-0.33,0.07-0.655,0.143-0.978,0.217
			c0.57,0.719,1.074,1.449,1.492,1.975C75.972,60.195,77.874,63.452,79.738,66.698z"/>
		<path fill="none" d="M106.127,72.938c1.186,4.271,1.966,8.645,2.562,13.034c0.487,3.598,0.344,7.358,1.329,10.869
			c0.277,0.979,0.875,2.718,2.028,2.935c1.014,0.191,1.712-0.945,2.122-1.663c1.787-3.108,2.427-6.87,2.842-10.379
			c0.497-4.197,0.851-8.409,1.33-12.606c0.276-2.396,0.446-4.802,0.367-7.193c-0.329-0.313-0.661-0.62-0.992-0.92
			c0.158,2.28,0.064,4.578-0.129,6.877c-0.301,3.658-0.64,7.306-0.908,10.967c-0.249,3.416-0.789,6.846-2.208,9.985
			c-0.467,1.033-1.438,3.164-2.6,1.593c-0.482-0.646-0.745-1.46-0.982-2.22c-0.455-1.461-0.593-3.021-0.76-4.533
			c-0.786-7.075-1.999-14.165-4.195-20.946c-1.064-3.287-2.436-6.489-3.867-9.628c-0.373-0.817-0.763-1.633-1.186-2.43
			c-0.534-0.195-1.068-0.378-1.602-0.553c0.783,1.387,1.455,2.84,2.109,4.297C103.228,64.537,104.917,68.583,106.127,72.938z"/>
		<path fill="#FDF7B3" d="M116.982,62.338c-1.763-1.326-3.606-2.563-5.534-3.708c-4.294-2.557-8.752-4.692-13.417-6.118
			c1.149,1.239,2.056,2.669,2.848,4.169c5.593,2.039,11.292,5.327,16.835,10.334C117.607,65.446,117.38,63.884,116.982,62.338z"/>
		<path fill="#FDF7B3" d="M87.269,53.912c-0.749-1.228-1.559-2.421-2.431-3.573c-0.316-0.007-0.632-0.012-0.949-0.011
			c-4.642,0.011-9.233,0.737-13.502,2.299c0.909,0.383,1.708,1.243,2.306,1.928c0.146,0.167,0.283,0.341,0.428,0.51
			C77.382,54.162,82.173,53.633,87.269,53.912z"/>
		<radialGradient id="SVGID_13_" cx="98.9155" cy="70.7119" r="115.4132" gradientUnits="userSpaceOnUse">
			<stop  offset="0" style="stop-color:#F6892E"/>
			<stop  offset="0.4663" style="stop-color:#F58543"/>
			<stop  offset="1" style="stop-color:#C83F27"/>
		</radialGradient>
		<path fill="url(#SVGID_13_)" d="M69.314,52.884c-3.587,1.374-6.948,3.317-9.939,5.905c0.041,0.289,0.071,0.581,0.096,0.874
			c3.04-1.427,7.419-3.173,12.672-4.38C71.326,54.253,70.372,53.244,69.314,52.884z"/>
		<radialGradient id="SVGID_14_" cx="98.9141" cy="70.7095" r="115.4031" gradientUnits="userSpaceOnUse">
			<stop  offset="0" style="stop-color:#F6892E"/>
			<stop  offset="0.4663" style="stop-color:#F58543"/>
			<stop  offset="1" style="stop-color:#C83F27"/>
		</radialGradient>
		<path fill="url(#SVGID_14_)" d="M96.348,52.07c-3.395-0.979-6.894-1.602-10.517-1.751c0.866,1.171,1.683,2.394,2.446,3.657
			c3.557,0.268,7.249,0.937,11,2.151C98.454,54.669,97.513,53.289,96.348,52.07z"/>
		<radialGradient id="SVGID_15_" cx="98.894" cy="70.7065" r="115.4443" gradientUnits="userSpaceOnUse">
			<stop  offset="0" style="stop-color:#F6892E"/>
			<stop  offset="0.4663" style="stop-color:#F58543"/>
			<stop  offset="1" style="stop-color:#C83F27"/>
		</radialGradient>
		<path fill="url(#SVGID_15_)" d="M157.158,96.788c-4.212-1.261-7.319-2.192-9.684-3.086
			C150.589,95.009,153.871,95.792,157.158,96.788z"/>
		<radialGradient id="SVGID_16_" cx="98.9126" cy="70.7109" r="115.4054" gradientUnits="userSpaceOnUse">
			<stop  offset="0" style="stop-color:#F6892E"/>
			<stop  offset="0.4663" style="stop-color:#F58543"/>
			<stop  offset="1" style="stop-color:#C83F27"/>
		</radialGradient>
		<path fill="url(#SVGID_16_)" d="M125.629,75.548c11.658,18.654,20.002,23.245,30.361,21.463c-2.437-0.494-4.868-1.171-7.199-2.013
			c-4.202-1.52-8.029-3.669-11.052-7.01c-3.077-3.401-5.293-7.375-7.692-11.251c-3.182-5.138-7.174-9.471-11.787-13.148
			c0.266,1.44,0.402,2.891,0.447,4.346C121.052,70.146,123.365,72.67,125.629,75.548z"/>
	</g>
	<g>
		<path fill="none" d="M157.158,96.788c-1.951-0.593-3.9-1.107-5.814-1.702c-0.484,0.138-0.924,0.25-1.309,0.341
			c2.233,0.741,4.541,1.332,6.845,1.757C157.065,97.219,157.431,96.87,157.158,96.788z"/>
		<radialGradient id="SVGID_17_" cx="98.9155" cy="70.71" r="115.4001" gradientUnits="userSpaceOnUse">
			<stop  offset="0" style="stop-color:#F6892E"/>
			<stop  offset="0.4663" style="stop-color:#F58543"/>
			<stop  offset="1" style="stop-color:#C83F27"/>
		</radialGradient>
		<path fill="url(#SVGID_17_)" d="M178.433,56.848c-0.158-0.247-0.32-0.487-0.494-0.722c-0.313,0.268-0.505,0.766-0.636,1.421
			c-0.353,1.729-0.668,3.46-1.154,5.161c-2.254,7.882-6.615,14.77-12.722,20.229c-5.701,5.097-13.396,10.297-21.304,7.69
			c0.577,0.457,1.182,0.888,1.814,1.28c2.354,1.448,4.848,2.385,7.406,3.18C158.838,92.973,177.533,84.898,178.433,56.848z"/>
	</g>
	<g>
		<path fill="none" d="M177.568,158.123c-1.323-3.049-1.509-6.729-1.772-9.996c-0.29-3.568-0.588-7.101-1.649-10.537
			c-0.964-3.113-2.479-6.239-4.18-9.009c-0.047-0.078-0.212,0.05-0.175,0.133c1.681,3.548,3.491,6.907,4.484,10.739
			c0.998,3.85,0.994,7.922,1.371,11.858c0.312,3.272,0.687,6.592,2.591,9.361c1.092,1.593,2.689,2.961,4.557,3.3
			c-0.371-0.212-0.716-0.462-1.034-0.75C179.833,162.184,178.416,160.078,177.568,158.123z"/>
		<radialGradient id="SVGID_18_" cx="98.9131" cy="70.71" r="115.403" gradientUnits="userSpaceOnUse">
			<stop  offset="0" style="stop-color:#F6892E"/>
			<stop  offset="0.4663" style="stop-color:#F58543"/>
			<stop  offset="1" style="stop-color:#C83F27"/>
		</radialGradient>
		<path opacity="0.5" fill="url(#SVGID_18_)" d="M159.27,111.167c-5.497,0.659-4.841,2.858,4.396,4.835
			c9.235,1.98,19.35,13.192,15.613,32.545c-1.063,7.292-0.2,12.264,2.482,14.676c0.581,0.315,1.209,0.538,1.884,0.622
			c-1.279-0.668-2.408-1.579-2.952-2.957c-0.859-2.174-0.433-4.449,0.018-6.664c1.32-6.504,2.862-13.194,2.049-19.87
			c-0.604-4.935-2.398-9.567-5.718-13.316c-2.993-3.387-6.741-5.707-10.681-7.8c-1.785,0.193-3.614,0.119-5.47-0.278
			c-0.622-0.133,0.153-1.044,0.611-0.943c11.041,2.414,22.136-7.282,26.699-16.615c3.976-8.13,3.986-17.574,0.554-25.91
			c-1.563-3.792-3.709-7.867-6.486-10.929c-0.698-0.766-1.445-1.537-2.328-2.103c1.924,2.479,3.88,5.159,4.917,8.081
			c1.251,3.534,2.063,7.232,2.47,10.961c0.772,7.138,0.362,14.643-2.955,21.147c-0.034,0.069-0.231,0.14-0.182,0.016
			c1.423-3.413,2.667-6.809,3.043-10.517c0.375-3.699,0.416-7.492-0.081-11.18c-0.477-3.517-1.387-6.918-2.782-10.183
			c-1.363-3.195-3.497-5.884-5.347-8.791c-0.024-0.007-0.046-0.012-0.068-0.019C185.375,67.837,200.354,102.802,159.27,111.167z"/>
		<radialGradient id="SVGID_19_" cx="98.8867" cy="70.5156" r="115.5525" gradientUnits="userSpaceOnUse">
			<stop  offset="0" style="stop-color:#F6892E"/>
			<stop  offset="0.4663" style="stop-color:#F58543"/>
			<stop  offset="1" style="stop-color:#C83F27"/>
		</radialGradient>
		<path fill="url(#SVGID_19_)" d="M184.038,164.044c-0.426,0.029-0.843,0.002-1.243-0.071c0.165,0.097,0.334,0.184,0.511,0.266
			c0.259-0.058,0.519-0.114,0.78-0.173C184.069,164.06,184.055,164.05,184.038,164.044z"/>
	</g>
	<g>
		<radialGradient id="SVGID_20_" cx="98.9175" cy="70.708" r="115.4025" gradientUnits="userSpaceOnUse">
			<stop  offset="0" style="stop-color:#F6892E"/>
			<stop  offset="0.4663" style="stop-color:#F58543"/>
			<stop  offset="1" style="stop-color:#C83F27"/>
		</radialGradient>
		<path fill="url(#SVGID_20_)" d="M155.311,141.068c-1.792-8.551-7.479-10.7-11.468-11.114c7.483,3.918,8.912,14.089,11.878,21.623
			c1.926,4.894,4.663,9.846,9.473,12.423c3.916,2.098,8.035,2.078,12.161,1.438C163.673,163.794,157.709,152.511,155.311,141.068z"
			/>
	</g>
	<radialGradient id="SVGID_21_" cx="23.2686" cy="59.6094" r="46.1818" gradientUnits="userSpaceOnUse">
		<stop  offset="0" style="stop-color:#F6892E"/>
		<stop  offset="0.4663" style="stop-color:#F58543"/>
		<stop  offset="1" style="stop-color:#C83F27"/>
	</radialGradient>
	<path fill="url(#SVGID_21_)" d="M46.803,84.397c0,0,3.627-8.411,14.512-7.091C72.197,78.625,43.01,94.622,46.803,84.397z"/>
	<radialGradient id="SVGID_22_" cx="37.0728" cy="40.9507" r="102.7051" gradientUnits="userSpaceOnUse">
		<stop  offset="0" style="stop-color:#F6892E"/>
		<stop  offset="0.4663" style="stop-color:#F58543"/>
		<stop  offset="1" style="stop-color:#C83F27"/>
	</radialGradient>
	<path opacity="0.5" fill="url(#SVGID_22_)" d="M74.999,113.973c0,0,8.414,14.784,17.813,14.455s13.688-20.284,7.752-32.982
		C102.375,107.813,100.722,141.731,74.999,113.973z"/>
	<radialGradient id="SVGID_23_" cx="40.126" cy="60.9546" r="71.1581" gradientUnits="userSpaceOnUse">
		<stop  offset="0" style="stop-color:#F6892E"/>
		<stop  offset="0.4663" style="stop-color:#F58543"/>
		<stop  offset="1" style="stop-color:#C83F27"/>
	</radialGradient>
	<path fill="url(#SVGID_23_)" d="M73.688,109.379c0,0,2.14-0.247,8.241-8.654c6.102-8.413,11.874-11.708,15.664-8.246
		c3.794,3.463-2.306-4.288-13.192,8.739C78.464,107.319,73.688,109.379,73.688,109.379z"/>
</g>
</svg>
