<?xml version="1.0" encoding="utf-8"?>
<!-- Generator: Adobe Illustrator 14.0.0, SVG Export Plug-In . SVG Version: 6.00 Build 43363)  -->
<!DOCTYPE svg PUBLIC "-//W3C//DTD SVG 1.1//EN" "http://www.w3.org/Graphics/SVG/1.1/DTD/svg11.dtd">
<svg version="1.1" id="Layer_1" xmlns="http://www.w3.org/2000/svg" xmlns:xlink="http://www.w3.org/1999/xlink" x="0px" y="0px"
	 width="200px" height="200px" viewBox="0 0 200 200" enable-background="new 0 0 200 200" xml:space="preserve">
<g>
	<path fill="#010101" d="M185.337,114.326h0.568l-0.019-1.149l-0.569,0.007c0-0.042,0-0.078-0.007-0.127l0.57-0.037l-0.067-1.138
		l-0.573,0.03c0-0.041,0-0.078-0.012-0.112l0.574-0.073l-0.135-1.139l-0.566,0.067c0-0.043-0.015-0.078-0.015-0.122l0.564-0.091
		l-0.183-1.135l-0.565,0.096c-0.016-0.043-0.022-0.086-0.027-0.121l0.563-0.122l-0.24-1.124l-0.563,0.12
		c-0.005-0.036-0.024-0.071-0.024-0.12l0.549-0.146l-0.296-1.102l-0.555,0.147c-0.009-0.037-0.028-0.086-0.03-0.121l0.548-0.178
		l-0.349-1.094l-0.552,0.182c-0.018-0.037-0.031-0.079-0.041-0.121l0.537-0.206l-0.398-1.064l-0.545,0.205
		c-0.018-0.036-0.036-0.078-0.049-0.114l0.534-0.235l-0.462-1.054l-0.529,0.236c-0.021-0.043-0.038-0.078-0.053-0.109l0.522-0.258
		l-0.508-1.029l-0.528,0.26c-0.017-0.037-0.035-0.074-0.053-0.109l0.502-0.285l-0.563-1.002l-0.496,0.289
		c-0.024-0.036-0.047-0.071-0.066-0.108l0.491-0.31l-0.612-0.974l-0.489,0.315c-0.023-0.037-0.042-0.072-0.06-0.109l0.469-0.325
		l-0.657-0.945l-0.479,0.332c-0.017-0.03-0.041-0.066-0.064-0.096l0.453-0.356l-0.702-0.901l-0.46,0.349
		c-0.022-0.029-0.041-0.066-0.072-0.095l0.437-0.37l-0.75-0.871l-0.437,0.376c-0.022-0.036-0.057-0.061-0.08-0.097l0.411-0.393
		l-0.785-0.83l-0.417,0.394c-0.03-0.031-0.054-0.055-0.083-0.091l0.391-0.411l-0.828-0.787l-0.394,0.413
		c-0.029-0.025-0.06-0.061-0.093-0.086l0.369-0.436l-0.865-0.749l-0.373,0.44c-0.03-0.029-0.065-0.054-0.098-0.077l0.352-0.454
		l-0.906-0.708l-0.353,0.458c-0.03-0.024-0.061-0.047-0.095-0.071l0.331-0.474l-0.938-0.659l-0.331,0.473
		c-0.039-0.026-0.073-0.043-0.104-0.067l0.302-0.483l-0.969-0.617l-0.308,0.489c-0.038-0.024-0.074-0.042-0.104-0.067l0.279-0.496
		l-1.001-0.561l-0.277,0.501c-0.042-0.019-0.079-0.036-0.113-0.055l0.262-0.515l-1.03-0.513l-0.26,0.513
		c-0.038-0.01-0.075-0.036-0.111-0.047l0.232-0.532l-1.054-0.459l-0.223,0.532c-0.036-0.012-0.067-0.024-0.093-0.036l0.199-0.546
		l-1.069-0.398l-0.206,0.538c-0.032-0.007-0.061-0.018-0.083-0.03l0.181-0.556l-1.088-0.352l-0.184,0.556
		c-0.03-0.012-0.055-0.023-0.079-0.023l0.151-0.557l-1.104-0.303l-0.152,0.556c-0.044-0.011-0.079-0.024-0.122-0.037l0.122-0.556
		l-1.112-0.248l-0.127,0.562c-0.045-0.011-0.08-0.011-0.121-0.023l0.097-0.567l-1.139-0.189l-0.09,0.563
		c-0.037,0-0.086-0.011-0.122-0.011l0.066-0.571l-1.137-0.132l-0.065,0.569c-0.045-0.005-0.079-0.013-0.122-0.013l0.035-0.568
		l-1.149-0.084l-0.035,0.581c-0.036,0-0.079-0.013-0.122-0.013l0.006-0.568l-1.144-0.018l-0.01,0.575c-0.038,0-0.074-0.006-0.121,0
		l-0.014-0.575l-1.154,0.043l0.023,0.567c-0.043,0.007-0.079,0.007-0.121,0.012l-0.056-0.568l-1.137,0.09l0.048,0.569
		c-0.041,0.006-0.084,0.006-0.119,0.018l-0.086-0.568l-1.132,0.146l0.079,0.574c-0.035,0.007-0.079,0.013-0.122,0.019l-0.106-0.568
		l-1.119,0.216l0.104,0.568c-0.043,0-0.086,0.014-0.121,0.025l-0.136-0.568l-1.112,0.266l0.133,0.568
		c-0.043,0-0.086,0.013-0.122,0.025l-0.162-0.552l-1.102,0.321l0.159,0.556c-0.038,0.012-0.074,0.025-0.118,0.036l-0.186-0.544
		l-1.084,0.376l0.194,0.544c-0.042,0.012-0.078,0.023-0.12,0.042l-0.219-0.538l-1.058,0.429l0.211,0.539
		c-0.037,0.013-0.07,0.036-0.108,0.048l-0.247-0.526l-1.036,0.478l0.242,0.532c-0.038,0.018-0.071,0.036-0.11,0.048l-0.264-0.507
		l-1.017,0.531l0.265,0.509c-0.034,0.023-0.073,0.042-0.107,0.06l-0.298-0.496l-0.985,0.58l0.297,0.502
		c-0.035,0.018-0.074,0.042-0.104,0.066l-0.321-0.483l-0.954,0.629l0.313,0.483c-0.029,0.025-0.06,0.049-0.101,0.067l-0.341-0.466
		l-0.926,0.678l0.344,0.465c-0.036,0.024-0.066,0.054-0.095,0.079l-0.37-0.454l-0.89,0.727l0.363,0.44
		c-0.028,0.036-0.059,0.061-0.092,0.085l-0.38-0.43l-0.401,0.358c-0.67-0.703-2.073-2.107-3.433-3.026l-0.825-0.896l0.341-0.29
		l-0.457-0.472l-0.247,0.018l-6.571-7.592l0.099-0.074l-0.12-0.606l-0.514-0.628l-0.45,0.376l-0.814-0.938l3.661-3.141l-0.216-1.742
		l-0.931-1.386h-0.023c-0.247-0.974-1.082-2.166-1.082-2.166l-6.112-9.806c0.54,0.149,1.099,0.12,1.429-0.255
		c0.588-0.661-0.148-1.5-0.148-1.5s0.449-0.085,1.516-0.763c1.071-0.678,0.419-2.166,0.055-2.892
		c-0.364-0.726-1.626-2.763-2.111-3.35c-0.484-0.594-4.953,0.905-5.759,1.088c-0.819,0.18-2.464,0.406-3.207,0.375
		c-0.744-0.032-1.422-0.074-2.65,0.168c-1.229,0.255-4.651,0.423-7.296,0.629c-2.644,0.213-6.347-0.374-9.444-0.919
		c-3.103-0.543-6.417,0.249-8.778,0.243c-2.365-0.014-5.491-0.624-7.142-1.12c-1.652-0.495-4.419-0.838-4.419-0.838
		c-0.159-0.563-0.55-0.572-1.737-0.805c-1.177-0.23-3.334-1.274-4.749-2.39c-1.415-1.122-4.421-2.66-4.421-2.66
		c1.359,0.228,2.324-0.444,2.963-1.424c0.641-0.981,0.912-0.944,1.265-1.715c0.34-0.771-0.333-1.299-0.333-1.299
		s1.143-0.082,1.125-0.643c-0.019-0.565,0.027-0.384,0.302-1.166c0.281-0.774,1.478-0.563,2.004-0.978
		c0.531-0.413,0.152-1.309-0.21-2.585c-0.372-1.276-0.425-2.169,0.004-2.467c0.424-0.304,0.541-0.545,0.541-0.545
		c0.586-1.379,0.088-3.654,0.088-3.654l0.267-0.109c0.617-0.233,0.678-0.822,0.533-1.547c-0.146-0.727-0.414-0.873-0.414-0.873
		c0.038-0.478,0.346-0.269,0.346-0.269c-0.369-2.646-1.749-3.305-1.749-3.305c-1.657-2.242-5.748-3.054-8.017-3.66
		c-0.927-0.247-2.001-0.359-3.23-0.19v-0.006c-0.037-0.156-0.183-0.253-0.333-0.223l-0.641,0.129
		c-0.151,0.03-0.254,0.182-0.224,0.333c0.006,0.006,0.006,0.008,0.006,0.016c-1.494,0.411-3.17,1.237-5.039,2.693
		c-4.022,3.156-2.341,10.87-2.341,10.87c-3.951,1.392-7.68,3.131-6.166,3.96c1.517,0.833,5.463-0.587,5.463-0.587
		c-0.743,1.595-1.64,1.059-1.64,1.059s-0.288,0.571,0.279,1.364l0.078,0.101c-1.676,0.625-1.567,1.306-3.211,2.258
		c-1.64,0.955-3.438,2.259-7.865,6.262c-4.436,4.006-7.951,8.577-8.761,10.959c-0.816,2.377-3.992,9.257-5.486,12.053
		c-1.494,2.782-2.767,7.174-3.244,10.841c-0.476,3.661-1.486,6.408-1.923,8.821c-0.43,2.408-0.859,6.74-0.725,7.658
		c0.132,0.914,1.785,0.824,1.785,0.824s1.25,3.339,2.75,5.312c1.5,1.959,3.019,3.581,7.055,4.574
		c4.041,0.991,11.022,1.071,13.751,0.114c2.723-0.955,2.51-2.153,7-2.003c4.488,0.145,7.289,0.496,11.399,0.376
		c4.108-0.135,5.82-1.719,6.914,0.495c1.094,2.209,0.66,5.972,1.306,10.515c0.4,2.807,0.986,5.663,1.52,7.974l-0.775,0.133
		l0.096,0.563c-0.037,0.006-0.078,0.019-0.121,0.03l-0.127-0.569l-1.118,0.255l0.126,0.569c-0.035,0.005-0.078,0.012-0.114,0.024
		l-0.159-0.558l-1.1,0.314l0.157,0.551c-0.042,0.018-0.085,0.03-0.122,0.036l-0.183-0.543l-1.087,0.362l0.182,0.549
		c-0.042,0.014-0.08,0.025-0.116,0.038l-0.212-0.534l-1.063,0.412l0.21,0.544c-0.042,0.012-0.079,0.025-0.116,0.051l-0.235-0.534
		l-1.047,0.474l0.236,0.532c-0.035,0.011-0.073,0.022-0.108,0.046l-0.268-0.518l-1.021,0.518l0.268,0.522
		c-0.038,0.018-0.073,0.036-0.112,0.059l-0.289-0.506l-0.991,0.572l0.288,0.501c-0.035,0.028-0.072,0.039-0.106,0.062l-0.309-0.483
		l-0.969,0.619l0.314,0.488c-0.037,0.019-0.072,0.041-0.103,0.067l-0.332-0.471l-0.931,0.677l0.33,0.459
		c-0.035,0.023-0.064,0.048-0.095,0.073l-0.363-0.446L60.78,133.3l0.354,0.447c-0.037,0.024-0.061,0.055-0.099,0.077l-0.374-0.428
		l-0.858,0.757l0.372,0.431c-0.029,0.035-0.059,0.057-0.088,0.082l-0.402-0.411l-0.816,0.801l0.392,0.409
		c-0.023,0.037-0.058,0.063-0.082,0.093l-0.418-0.395l-0.788,0.842l0.423,0.392c-0.023,0.024-0.052,0.061-0.08,0.086l-0.439-0.364
		l-0.738,0.878l0.443,0.367c-0.023,0.036-0.055,0.068-0.08,0.1l-0.452-0.353l-0.697,0.921l0.455,0.345
		c-0.026,0.028-0.049,0.067-0.067,0.104l-0.476-0.329l-0.649,0.945l0.478,0.325c-0.024,0.037-0.048,0.067-0.071,0.104l-0.493-0.303
		l-0.597,0.98l0.495,0.297c-0.023,0.036-0.041,0.072-0.06,0.109l-0.508-0.279l-0.551,1.005l0.509,0.278
		c-0.017,0.036-0.037,0.073-0.055,0.116l-0.52-0.255l-0.501,1.033l0.519,0.25c-0.017,0.041-0.029,0.078-0.047,0.113l-0.539-0.229
		l-0.447,1.059l0.538,0.223c-0.014,0.036-0.029,0.08-0.041,0.122l-0.547-0.204l-0.398,1.076l0.544,0.199
		c-0.005,0.041-0.017,0.076-0.035,0.112l-0.551-0.168l-0.345,1.102l0.559,0.17c-0.012,0.035-0.026,0.072-0.037,0.115l-0.563-0.147
		l-0.279,1.108l0.559,0.143c-0.009,0.047-0.02,0.086-0.032,0.123l-0.563-0.108l-0.23,1.12l0.571,0.114
		c-0.004,0.043-0.012,0.078-0.024,0.122l-0.568-0.085l-0.179,1.129l0.577,0.092c-0.007,0.036-0.013,0.072-0.019,0.122l-0.575-0.062
		l-0.115,1.138l0.576,0.061c-0.006,0.036-0.014,0.083-0.014,0.121l-0.567-0.024l-0.061,1.138l0.567,0.035c0,0.036,0,0.08,0,0.121
		h-0.574l-0.006,1.15h0.58c0,0.037,0,0.078,0,0.12l-0.567,0.026l0.057,1.147l0.566-0.029c0.006,0.043,0.006,0.078,0.014,0.121
		l-0.569,0.055l0.109,1.142l0.569-0.054c0.005,0.036,0.012,0.084,0.018,0.121l-0.569,0.085l0.169,1.139l0.567-0.086
		c0.008,0.037,0.014,0.072,0.026,0.115l-0.564,0.114L52.022,159l0.562-0.115c0.006,0.041,0.02,0.076,0.028,0.121l-0.561,0.14
		l0.283,1.112l0.557-0.146c0.014,0.044,0.025,0.085,0.039,0.121l-0.551,0.169l0.339,1.096l0.543-0.163
		c0.019,0.036,0.032,0.073,0.043,0.108l-0.539,0.199l0.389,1.078l0.543-0.2c0.011,0.035,0.029,0.084,0.043,0.122l-0.535,0.217
		l0.449,1.06l0.531-0.226c0.014,0.025,0.026,0.05,0.031,0.079c0.007,0.006,0.019,0.02,0.025,0.03l-0.526,0.255l0.496,1.029
		l0.521-0.248c0.019,0.042,0.035,0.079,0.055,0.112l-0.51,0.279l0.551,1.004l0.504-0.277c0.023,0.035,0.042,0.072,0.067,0.11
		l-0.491,0.301l0.598,0.974l0.491-0.297c0.024,0.036,0.042,0.068,0.061,0.104l-0.473,0.32l0.647,0.95l0.472-0.321
		c0.025,0.023,0.049,0.067,0.072,0.098l-0.461,0.351l0.697,0.907l0.455-0.345c0.023,0.028,0.055,0.066,0.072,0.102l-0.437,0.363
		l0.736,0.877l0.445-0.362c0.024,0.03,0.049,0.054,0.079,0.092l-0.422,0.387l0.778,0.839l0.423-0.392
		c0.024,0.036,0.056,0.067,0.079,0.097l-0.394,0.405l0.825,0.804l0.394-0.41c0.029,0.024,0.059,0.054,0.088,0.084l-0.372,0.423
		l0.852,0.763l0.381-0.43c0.038,0.03,0.062,0.057,0.098,0.079l-0.363,0.449l0.9,0.713l0.357-0.448
		c0.029,0.025,0.065,0.05,0.104,0.073l-0.34,0.472l0.927,0.665l0.339-0.465c0.027,0.017,0.07,0.041,0.1,0.067l-0.314,0.482
		l0.969,0.629l0.31-0.482c0.034,0.011,0.072,0.035,0.103,0.061l-0.284,0.494l0.991,0.581l0.284-0.508
		c0.046,0.023,0.079,0.037,0.114,0.061l-0.267,0.521l1.025,0.52l0.26-0.513c0.035,0.018,0.079,0.029,0.113,0.054l-0.241,0.52
		l1.048,0.472l0.234-0.524c0.04,0.018,0.079,0.03,0.117,0.049l-0.22,0.537l1.073,0.425l0.218-0.545
		c0.034,0.01,0.072,0.029,0.113,0.049l-0.189,0.544l1.086,0.361l0.185-0.544c0.038,0.013,0.079,0.024,0.115,0.036l-0.157,0.556
		l1.106,0.316l0.157-0.558c0.038,0.006,0.085,0.019,0.122,0.024l-0.132,0.568l1.119,0.255l0.127-0.569
		c0.042,0.012,0.079,0.024,0.122,0.03l-0.104,0.567l1.131,0.201l0.102-0.566c0.038,0.002,0.08,0.01,0.116,0.023l-0.067,0.567
		l1.14,0.138l0.073-0.574c0.034,0.013,0.076,0.013,0.121,0.019l-0.045,0.575l1.145,0.085l0.042-0.568c0.036,0,0.085,0,0.12,0
		l-0.009,0.574l1.142,0.03l0.011-0.568c0.05,0,0.085,0,0.128-0.007l0.014,0.575l1.146-0.024l-0.01-0.574
		c0.035-0.006,0.08-0.006,0.121-0.006l0.042,0.568l1.144-0.085l-0.05-0.568c0.044-0.007,0.085-0.013,0.126-0.013l0.075,0.569
		l1.137-0.146l-0.073-0.567c0.042-0.008,0.085-0.014,0.122-0.021l0.104,0.564l1.123-0.193l-0.094-0.569
		c0.039-0.012,0.077-0.018,0.119-0.024l0.122,0.558l1.119-0.255l-0.128-0.557c0.044-0.012,0.079-0.023,0.123-0.036l0.151,0.558
		l1.112-0.316l-0.165-0.549c0.042-0.019,0.08-0.03,0.122-0.043l0.18,0.551l1.09-0.368l-0.186-0.544
		c0.033-0.015,0.079-0.026,0.113-0.045l0.212,0.541l1.073-0.419l-0.213-0.539c0.032-0.01,0.061-0.022,0.091-0.035l0.237,0.527
		l1.045-0.479l-0.241-0.521c0.029-0.012,0.06-0.024,0.085-0.042l0.267,0.521l1.021-0.526l-0.267-0.516
		c0.025-0.01,0.049-0.022,0.074-0.041l0.284,0.507l1-0.567l-0.293-0.508c0.038-0.014,0.073-0.037,0.109-0.062l0.316,0.483
		l0.96-0.616l-0.305-0.483c0.035-0.024,0.064-0.049,0.1-0.073l0.334,0.472l0.931-0.665l-0.333-0.473
		c0.033-0.022,0.068-0.047,0.098-0.071l0.356,0.459l0.896-0.713l-0.355-0.455c0.031-0.029,0.071-0.054,0.094-0.078l0.382,0.437
		l0.865-0.762l-0.381-0.43c0.031-0.03,0.059-0.054,0.092-0.079l0.398,0.411l0.822-0.798l-0.398-0.413
		c0.03-0.035,0.053-0.061,0.089-0.083l0.414,0.386l0.786-0.834l-0.42-0.394c0.028-0.031,0.057-0.066,0.079-0.091l0.443,0.369
		l0.739-0.878l-0.443-0.373c0.025-0.024,0.055-0.061,0.079-0.099l0.459,0.353l0.696-0.908l-0.459-0.353
		c0.023-0.036,0.05-0.064,0.073-0.095l0.472,0.326l0.647-0.952l-0.472-0.317c0.026-0.039,0.043-0.074,0.069-0.11l0.495,0.303
		l0.598-0.98l-0.496-0.302c0.024-0.031,0.043-0.062,0.061-0.104l0.509,0.276l0.556-1.003l-0.508-0.278
		c0.016-0.036,0.036-0.072,0.054-0.11l0.52,0.249l0.502-1.026l-0.528-0.255c0.021-0.036,0.038-0.071,0.053-0.108l0.537,0.224
		l0.445-1.053l-0.533-0.225c0.014-0.036,0.031-0.078,0.043-0.122l0.551,0.207l0.393-1.076l-0.543-0.208
		c0.013-0.036,0.022-0.071,0.035-0.106l0.556,0.168l0.337-1.088l-0.549-0.182c0.015-0.037,0.024-0.073,0.029-0.113l0.563,0.144
		l0.292-1.107l-0.563-0.146c0.006-0.043,0.018-0.084,0.029-0.12l0.57,0.12l0.223-1.125l-0.563-0.122
		c0.006-0.036,0.011-0.079,0.02-0.12l0.572,0.084l0.178-1.125l-0.576-0.097c0.006-0.036,0.012-0.072,0.018-0.115l0.576,0.055
		l0.118-1.137l-0.573-0.062c0.008-0.036,0.008-0.077,0.008-0.121l0.572,0.029l0.061-1.143l-0.576-0.035
		c0-0.037,0.008-0.071,0.008-0.116h0.574l0.006-1.143l-0.572-0.008c0-0.041,0-0.078,0-0.126l0.572-0.024l-0.057-1.144l-0.572,0.03
		c-0.005-0.047-0.01-0.084-0.01-0.126l0.566-0.056l-0.107-1.143l-0.57,0.055c-0.011-0.036-0.011-0.079-0.011-0.12l0.563-0.086
		l-0.17-1.13l-0.57,0.077c0-0.035-0.012-0.071-0.017-0.115l0.562-0.115l-0.223-1.125l-0.564,0.122
		c-0.01-0.048-0.016-0.086-0.028-0.128l0.563-0.137l-0.287-1.114l-0.307,0.079c0.133-0.073,0.254-0.14,0.338-0.202
		c1.281-0.845,2.688-1.221,1.604-3.218l0,0c0.055-0.013,0.11-0.019,0.158-0.049c0.14-0.071,0.217-0.21,0.212-0.361l0.229-0.116
		c0.113,0.092,0.277,0.116,0.418,0.042c0.145-0.072,0.217-0.216,0.209-0.362l0.23-0.115c0.115,0.091,0.278,0.115,0.418,0.041
		c0.14-0.069,0.219-0.21,0.209-0.362l0.238-0.108c0.117,0.085,0.273,0.108,0.41,0.038c0.135-0.062,0.202-0.195,0.213-0.326
		l0.23-0.104c0.109,0.116,0.282,0.151,0.441,0.073c0.151-0.079,0.231-0.237,0.205-0.394l0.279-0.157
		c0.11,0.071,0.248,0.09,0.375,0.023c0.189-0.097,0.269-0.326,0.17-0.519c0-0.014-0.012-0.014-0.02-0.025
		c0.118,0.073,0.212,0.169,0.261,0.302c0.143-0.084,0.267-0.175,0.395-0.271c-0.031-0.025-0.043-0.056-0.068-0.092
		c0.194-0.098,0.27-0.326,0.172-0.519c-0.051-0.092-0.129-0.158-0.226-0.195c0.035-0.056,0.074-0.104,0.122-0.146
		c0.005,0.034,0.012,0.072,0.029,0.109c0.097,0.192,0.326,0.268,0.527,0.17c0.122-0.061,0.193-0.189,0.204-0.314
		c0.055,0.035,0.116,0.069,0.157,0.132c0.104-0.12,0.204-0.242,0.298-0.374c-0.094-0.035-0.165-0.11-0.231-0.183
		c0.062-0.006,0.109-0.012,0.163-0.042c0.195-0.092,0.273-0.333,0.172-0.526c-0.062-0.133-0.198-0.207-0.341-0.207
		c0.031-0.036,0.056-0.071,0.092-0.105c0.109,0.144,0.31,0.191,0.473,0.112c0.085-0.043,0.138-0.112,0.181-0.187
		c0.043,0.019,0.091,0.023,0.127,0.056c0.065-0.141,0.129-0.298,0.181-0.442c-0.15-0.024-0.287-0.104-0.401-0.224
		c0.074,0.006,0.152,0.006,0.232-0.031c0.19-0.095,0.272-0.325,0.174-0.527c-0.088-0.167-0.281-0.247-0.464-0.187
		c0.045-0.066,0.097-0.128,0.162-0.17c0.098,0.023,0.199,0.021,0.293-0.024c0.039-0.023,0.069-0.054,0.104-0.084
		c0.064,0.007,0.133,0,0.192,0.022c0.022-0.155,0.035-0.314,0.047-0.469c-0.06,0.005-0.119,0-0.182-0.013
		c-0.082-0.14-0.229-0.207-0.381-0.196c-0.084-0.077-0.139-0.18-0.157-0.275c0.108,0.06,0.242,0.071,0.357,0.01
		c0.195-0.097,0.271-0.33,0.176-0.519c-0.049-0.097-0.122-0.157-0.211-0.195c0.012,0,0.03-0.012,0.041-0.022
		c0.297,0.255,0.961,0.75,1.967,1.076c1.184,0.387,2.735-3.072,3.782-5.276c0.833,0.305,1.789,0,2.297-0.761
		c0.286-0.442,0.375-0.95,0.299-1.429c0.166-0.11,0.313-0.266,0.439-0.439c0.122-0.189,0.199-0.388,0.236-0.596
		c0.467-0.114,0.9-0.392,1.18-0.827c0.605-0.908,0.352-2.131-0.562-2.724c-0.116-0.084-0.243-0.146-0.37-0.194
		c0.629-1.281,1.168-2.431,1.417-3.041c0.659-1.653,4.027-7.946,4.41-9.469c0.376-1.513,0.097-2.735-1.888-3.097
		c-0.147-0.024-0.304-0.02-0.466,0l10.106-16.408l0.654,0.787l-0.054,0.363l0.528,0.616l0.464-0.399l0.625,0.683
		c0,0,0.229,1.361,2.758,4.695l-0.587,0.792l0.459,0.339c-0.023,0.038-0.049,0.073-0.074,0.11l-0.474-0.328l-0.639,0.957l0.48,0.319
		c-0.021,0.031-0.044,0.067-0.069,0.104l-0.489-0.291l-0.593,0.98l0.496,0.295c-0.02,0.037-0.042,0.068-0.061,0.104l-0.507-0.267
		l-0.534,1.018l0.508,0.265c-0.017,0.037-0.041,0.074-0.06,0.111l-0.522-0.244l-0.488,1.035l0.527,0.248
		c-0.018,0.035-0.039,0.072-0.047,0.109l-0.541-0.217l-0.435,1.063l0.54,0.218c-0.014,0.037-0.03,0.072-0.051,0.109l-0.543-0.188
		l-0.375,1.084l0.545,0.193c-0.02,0.036-0.032,0.073-0.044,0.108l-0.555-0.156l-0.322,1.095l0.552,0.162
		c-0.015,0.045-0.019,0.086-0.039,0.121l-0.555-0.132l-0.272,1.112l0.558,0.135c0,0.042-0.015,0.084-0.018,0.121l-0.57-0.11
		l-0.219,1.126l0.568,0.108c-0.012,0.035-0.018,0.084-0.022,0.12l-0.568-0.079L134.047,111l0.573,0.085
		c-0.012,0.037-0.012,0.078-0.018,0.119l-0.574-0.052l-0.104,1.142l0.574,0.049c-0.006,0.049-0.01,0.083-0.01,0.126l-0.572-0.022
		l-0.047,1.142l0.575,0.025c0,0.043,0,0.084,0,0.121l-0.575,0.012l0.012,1.144l0.576-0.006c0,0.042,0,0.085,0,0.12l-0.576,0.037
		l0.074,1.148l0.574-0.035c0,0.035,0,0.077,0.006,0.122l-0.568,0.059l0.126,1.138l0.574-0.059c0,0.041,0.008,0.084,0.02,0.12
		l-0.57,0.095l0.178,1.128l0.566-0.088c0.013,0.039,0.019,0.074,0.024,0.122l-0.563,0.121l0.242,1.114l0.563-0.122
		c0.006,0.044,0.019,0.087,0.023,0.122l-0.555,0.15l0.296,1.108l0.556-0.146c0.013,0.035,0.025,0.072,0.038,0.115l-0.545,0.176
		l0.345,1.089l0.551-0.17c0.013,0.036,0.023,0.071,0.041,0.107l-0.549,0.206l0.41,1.079l0.539-0.208
		c0.016,0.037,0.03,0.073,0.048,0.11l-0.533,0.234l0.454,1.054l0.533-0.236c0.02,0.044,0.036,0.074,0.055,0.114l-0.521,0.26
		l0.502,1.03l0.527-0.26c0.019,0.035,0.032,0.065,0.061,0.107l-0.509,0.284l0.556,0.998l0.502-0.283
		c0.025,0.036,0.044,0.072,0.067,0.11l-0.49,0.307l0.605,0.969l0.489-0.309c0.024,0.036,0.043,0.072,0.069,0.107l-0.474,0.327
		l0.655,0.945l0.476-0.326c0.023,0.022,0.043,0.06,0.072,0.095l-0.46,0.351l0.702,0.908l0.452-0.351
		c0.033,0.024,0.058,0.059,0.08,0.097l-0.436,0.375l0.745,0.866l0.44-0.37c0.025,0.025,0.048,0.062,0.078,0.086l-0.417,0.399
		l0.793,0.833l0.41-0.398c0.032,0.029,0.056,0.061,0.085,0.085l-0.394,0.418l0.831,0.793l0.392-0.412
		c0.031,0.022,0.062,0.053,0.092,0.085l-0.377,0.422l0.872,0.751l0.377-0.423c0.03,0.024,0.059,0.048,0.096,0.071l-0.351,0.449
		l0.901,0.706l0.35-0.452c0.036,0.024,0.065,0.048,0.1,0.078l-0.328,0.466l0.931,0.659l0.334-0.466
		c0.035,0.023,0.071,0.044,0.108,0.066l-0.311,0.483l0.97,0.612l0.31-0.483c0.029,0.023,0.07,0.042,0.107,0.061l-0.29,0.503
		l0.999,0.561l0.289-0.496c0.038,0.012,0.068,0.037,0.109,0.049l-0.267,0.521l1.035,0.508l0.252-0.515
		c0.044,0.019,0.08,0.03,0.116,0.054l-0.235,0.527l1.056,0.465l0.229-0.531c0.041,0.012,0.07,0.022,0.114,0.047l-0.209,0.539
		l1.072,0.405l0.208-0.544c0.035,0.011,0.07,0.036,0.112,0.047l-0.181,0.547l1.094,0.355l0.178-0.551
		c0.043,0.014,0.077,0.025,0.12,0.035l-0.149,0.558l1.106,0.304l0.151-0.563c0.042,0.004,0.079,0.019,0.12,0.03l-0.126,0.563
		l1.124,0.246l0.12-0.569c0.039,0.015,0.078,0.019,0.116,0.024l-0.094,0.569l1.134,0.182l0.089-0.557
		c0.046,0,0.08,0.007,0.127,0.013l-0.07,0.566l1.143,0.134l0.066-0.57c0.044,0,0.079,0.007,0.123,0.015l-0.038,0.568l1.151,0.074
		l0.029-0.571c0.042,0,0.083,0,0.127,0l-0.012,0.583l1.143,0.011l0.015-0.568c0.041,0,0.082,0,0.12,0l0.022,0.568l1.146-0.041
		l-0.02-0.576c0.042,0,0.083,0,0.122-0.007l0.049,0.571l1.143-0.098l-0.05-0.567c0.042-0.009,0.078-0.009,0.129-0.02l0.071,0.568
		l1.136-0.151l-0.077-0.575c0.042,0,0.077-0.013,0.116-0.013l0.113,0.558l1.119-0.204l-0.103-0.57
		c0.041-0.005,0.08-0.012,0.121-0.025l0.141,0.557l1.113-0.266l-0.142-0.555c0.042-0.016,0.08-0.024,0.122-0.036l0.157,0.555
		l1.107-0.326l-0.169-0.55c0.042-0.014,0.076-0.031,0.122-0.043l0.185,0.544l1.085-0.375l-0.188-0.544
		c0.037-0.012,0.071-0.024,0.115-0.05l0.217,0.546l1.064-0.436l-0.223-0.532c0.035-0.021,0.079-0.038,0.113-0.051l0.25,0.522
		l1.041-0.486l-0.256-0.52c0.041-0.017,0.078-0.035,0.116-0.06l0.272,0.521l1.013-0.538l-0.271-0.517
		c0.039-0.017,0.065-0.035,0.104-0.059l0.303,0.495l0.979-0.581l-0.29-0.496c0.031-0.022,0.067-0.041,0.098-0.061l0.325,0.483
		l0.955-0.641l-0.319-0.479c0.035-0.021,0.072-0.048,0.103-0.07l0.344,0.464l0.915-0.677l-0.331-0.464
		c0.029-0.024,0.057-0.049,0.09-0.08l0.362,0.447l0.895-0.725l-0.366-0.448c0.036-0.025,0.06-0.05,0.095-0.072l0.381,0.423
		l0.848-0.763l-0.376-0.43c0.025-0.028,0.062-0.053,0.084-0.083l0.414,0.403l0.802-0.81l-0.396-0.405
		c0.022-0.03,0.052-0.056,0.076-0.089l0.432,0.385l0.767-0.846l-0.424-0.389c0.029-0.03,0.055-0.059,0.086-0.098l0.437,0.364
		l0.73-0.883l-0.442-0.362c0.021-0.03,0.042-0.063,0.075-0.099l0.458,0.341l0.683-0.92l-0.46-0.34
		c0.025-0.036,0.042-0.071,0.066-0.109l0.478,0.327l0.637-0.956l-0.478-0.314c0.023-0.042,0.041-0.072,0.061-0.109l0.496,0.293
		l0.586-0.983l-0.494-0.296c0.016-0.029,0.04-0.066,0.058-0.107l0.508,0.273l0.546-1.019l-0.515-0.266
		c0.019-0.036,0.035-0.071,0.056-0.109l0.521,0.242l0.489-1.041l-0.527-0.24c0.019-0.038,0.038-0.074,0.05-0.116l0.532,0.218
		l0.437-1.059l-0.534-0.217c0.006-0.03,0.018-0.062,0.031-0.086c0.006-0.012,0.012-0.024,0.012-0.035l0.544,0.192l0.383-1.077
		l-0.547-0.192c0.009-0.037,0.024-0.08,0.04-0.121l0.555,0.168l0.321-1.1l-0.56-0.165c0.015-0.04,0.031-0.076,0.039-0.119
		l0.561,0.137l0.268-1.11l-0.558-0.141c0.009-0.042,0.02-0.079,0.023-0.114l0.57,0.103l0.212-1.131l-0.563-0.104
		c0.008-0.041,0.013-0.077,0.018-0.118l0.57,0.077l0.156-1.138l-0.569-0.072c0.007-0.047,0.016-0.084,0.02-0.126l0.567,0.048
		l0.105-1.145l-0.575-0.049c0-0.035,0.012-0.079,0.012-0.122l0.567,0.026l0.042-1.15l-0.567-0.018
		C185.331,114.412,185.337,114.375,185.337,114.326z M129.805,74.604l-0.508,0.399l-9.438-10.037l3.296-1.174L129.805,74.604z
		 M116.53,59.757c1.392-0.09,1.635,0.291,2.73,0.969c0.563,0.345,1.493,0.424,2.267,0.424l0.764,1.244l-3.793,1.126l-3.116-3.315
		c-0.027-0.098-0.067-0.2-0.107-0.303C115.721,59.843,116.162,59.781,116.53,59.757z M64.673,86.631
		c-6.463,0.678-16.701,1.305-16.701,1.305c-0.373-0.882-0.523,0-1.099-0.713c-0.582-0.713,0.459-4.041,1.19-5.359
		c0.729-1.32,2.857-3.171,4.01-4.019c1.168-0.847,2.947-1.392,4.128-3.304c1.186-1.911,2.208-2.916,2.79-4.596
		c0.58-1.682,1.911-3.631,2.334-4.467c0.431-0.846,1.264-3.302,1.264-3.302s1.006,0.339,1.725,0.593
		c0.722,0.254,2.041-1.5,2.041-1.5s6.736,1.973,8.644,2.492c1.906,0.521,3.757,1.21,5.894,1.355
		c2.135,0.145,10.135-0.224,11.802-0.364c1.677-0.133,5.247-0.798,6.825-0.805c1.579-0.004,3.356,0.394,5.469,0.986
		c0.774,0.225,1.263,0.34,1.627,0.401c0.442,0.411,1.102,0.532,1.677,0.266c0.03-0.018,0.053-0.036,0.072-0.047h0.005l0.074-0.037
		c0.949,0.048,1.874-0.286,1.874-0.286s0.31,0.327,0.758,0.672c0.446,0.338,1.005,0.375,1.564-0.023
		c0.554-0.394,0.255-1.538,0.255-1.538c0.842,0.122,1.532-0.428,1.265-1.331c0.235-0.121,0.441-0.277,0.618-0.454l12.455,13.74
		c0,0,0.66,0.689,1.479,0.871l-1.223,1.052l-0.515-0.593l-2.518,2.022l0.582,0.688l-0.81,0.703l2.003,2.334l0.804-0.682l0.768,0.9
		l-0.456,0.369l0.582,0.719l0.625-0.06l0.513,0.619l-27.43,24.249c-0.609-0.644-1.135-1.2-1.453-1.551
		c-1.215-1.32-5.996-5.869-7.972-8.3c-1.988-2.438-4.715-5.783-7.043-9.475c-2.343-3.683-3.877-4.053-5.602-4.597
		C77.832,85.022,71.128,85.946,64.673,86.631z M107.778,139.871c-0.685,0.301-1.495,0-1.803-0.686
		c-0.315-0.682-0.007-1.493,0.676-1.802c0.691-0.308,1.494-0.008,1.81,0.684C108.764,138.749,108.461,139.556,107.778,139.871z
		 M76.076,140.359c0.413,0.853-0.454,1.351-0.817,2.807c-0.169,0.68-0.162,1.508-0.09,2.306l-0.703-1.162l-2.086-9.848
		c0.689-0.183,1.377-0.328,2.07-0.437c-0.019,0.695-0.147,1.403-0.329,2.389C73.724,138.575,75.665,139.507,76.076,140.359z
		 M96.646,150.106l-5.136,0.557c1.608-0.522,3.313-1.118,4.908-1.718C96.5,149.331,96.58,149.719,96.646,150.106z M69.688,135.405
		c0.842-0.369,1.7-0.667,2.561-0.901l1.993,9.431l-5.02-8.324C69.372,135.539,69.53,135.465,69.688,135.405z M74.334,144.371
		l0.93,4.392l-3.598-2.987l-5.193-8.615c0.818-0.556,1.695-1.054,2.612-1.489L74.334,144.371z M76.062,150.928
		c-0.017,0.015-0.033,0.025-0.052,0.038c-0.042-0.023-0.091-0.038-0.139-0.038l-0.067-0.326l0.211,0.079
		C76.034,150.759,76.044,150.845,76.062,150.928L76.062,150.928z M78.441,156.024c0.05,0.011,0.093,0.017,0.145,0.011l0.032,0.472
		l-0.475-0.296c0.008,0,0.008,0,0.008-0.006c0.049-0.038,0.084-0.086,0.11-0.14c0.021,0.03,0.047,0.071,0.053,0.115
		c0.047-0.014,0.098-0.038,0.145-0.049C78.447,156.096,78.441,156.06,78.441,156.024z M79.082,155.678
		c0.123,0.066,0.267,0.056,0.387-0.004l0.116,0.253l-0.478-0.11c0.012,0,0.024-0.005,0.03-0.012
		C79.108,155.77,79.092,155.723,79.082,155.678z M96.627,156.592l-9.354-2.143l9.638-1.051
		C96.905,154.467,96.81,155.537,96.627,156.592z M96.604,156.736c-0.177,0.988-0.425,1.96-0.751,2.91l-9.861-2.25l-3.812-2.383
		l4.647-0.515L96.604,156.736z M95.805,159.786c-0.364,1.006-0.798,1.985-1.313,2.922l-8.126-5.075L95.805,159.786z M85.555,157.294
		l-4.331-0.991l-0.875-1.091l1.601-0.177L85.555,157.294z M83.82,159.751l-3.321-2.069l-0.672-1.545l1.317,0.3L83.82,159.751z
		 M57.92,153.989l9.579,0.243l-9.21,2.928C58.076,156.106,57.955,155.043,57.92,153.989z M57.914,153.845
		c-0.026-1.016,0.026-2.021,0.152-3.012l10.107,0.266l4.206,1.584l-4.458,1.416L57.914,153.845z M58.778,147.565l8.978,3.377
		l-9.673-0.255C58.222,149.622,58.458,148.581,58.778,147.565z M76.687,156.176l-0.169,0.246l-0.153-0.344
		C76.458,156.155,76.571,156.192,76.687,156.176z M76.419,156.567l-0.731,1.083l-0.115-1.514l0.394-0.296
		c0.042,0.012,0.094,0.012,0.145,0.012l0.019,0.039c0,0.011,0,0.011,0,0.011c0,0.012,0.006,0.012,0.01,0.012L76.419,156.567z
		 M75.744,155.71c0.023,0.023,0.053,0.046,0.072,0.064l-0.255,0.188l-0.041-0.567c0.017,0.004,0.035,0,0.053,0
		c-0.012,0.024-0.03,0.042-0.047,0.061c0.035,0.035,0.073,0.073,0.114,0.108c0.007-0.012,0.017-0.026,0.037-0.035
		C75.682,155.588,75.701,155.653,75.744,155.71z M75.465,151.399c-0.012,0.025-0.03,0.038-0.043,0.056
		c-0.097-0.018-0.198,0.013-0.292,0.071l-0.145-0.246l0.474,0.012C75.459,151.328,75.459,151.363,75.465,151.399z M75.175,155.104
		l-0.362,0.113l0.112-0.454c0.048,0.038,0.104,0.067,0.165,0.086c-0.012,0-0.012,0.012-0.024,0.012
		c0.024,0.049,0.055,0.092,0.079,0.132c0.005-0.01,0.018-0.01,0.031-0.01C75.168,155.018,75.175,155.063,75.175,155.104z
		 M74.973,152.096c-0.053,0.007-0.119,0.03-0.173,0.065c-0.074,0.062-0.109,0.137-0.135,0.213l-0.229-0.186l0.582-0.195l0.004,0.014
		C75.013,152.042,74.995,152.066,74.973,152.096z M74.726,152.829c0.017,0.006,0.037,0.011,0.055,0.024
		c-0.03,0.012-0.061,0.018-0.085,0.034c-0.145,0.118-0.182,0.31-0.107,0.472l-0.371-0.144L74.726,152.829z M74.65,154.086
		c0.034,0.038,0.076,0.073,0.125,0.099c0.006,0.036,0.019,0.066,0.031,0.095l-0.468-0.011l0.243-0.356
		C74.594,153.973,74.612,154.033,74.65,154.086z M75.036,151.644c-0.041,0.061-0.057,0.132-0.051,0.206l-0.683,0.217l-1.003-0.834
		l1.517,0.035L75.036,151.644z M74.134,152.126l-1.531,0.484l-3.987-1.5l4.447,0.122L74.134,152.126z M74.271,152.236l0.389,0.314
		c0.004,0.047,0.023,0.082,0.042,0.121l-0.646,0.483l-1.229-0.461L74.271,152.236z M74.073,153.324l0.587,0.219l-0.491,0.719
		l-1.311-0.029L74.073,153.324z M74.241,154.413l0.545,0.012c-0.005,0.062,0.007,0.134,0.036,0.196l-0.181,0.652l-1.244,0.4
		L74.241,154.413z M74.763,155.38l0.479-0.143c0,0,0,0.006,0.004,0.012c0.037,0.049,0.078,0.078,0.128,0.108l0.054,0.714
		l-1.058,0.78L74.763,155.38z M75.435,156.241l0.121,1.607l-2.39,3.522l1.149-4.296L75.435,156.241z M75.605,151.001
		c-0.05,0.036-0.079,0.084-0.111,0.146l-0.6-0.019l-0.676-1.118l1.422,0.532l0.084,0.399
		C75.682,150.953,75.64,150.978,75.605,151.001z M74.096,149.804l-2.201-3.655L75.314,149l0.291,1.372L74.096,149.804z
		 M74.72,151.123l-1.61-0.044l-3.274-2.728L74,149.925L74.72,151.123z M72.875,151.073l-4.677-0.12l-9.376-3.532
		c0.302-0.955,0.678-1.889,1.125-2.783l9.48,3.563L72.875,151.073z M72.598,152.768l1.311,0.492l-1.288,0.961l-4.252-0.11
		L72.598,152.768z M72.669,154.367l1.404,0.042l-0.903,1.33l-4.056,1.294L72.669,154.367z M73.263,155.866l1.341-0.425l-0.417,1.549
		l-3.412,2.553L73.263,155.866z M74.128,157.221l-1.21,4.526l-5.583,8.251c-0.861-0.514-1.678-1.101-2.451-1.741l5.646-8.344
		L74.128,157.221z M72.802,162.17l-2.477,9.304c-0.997-0.385-1.952-0.856-2.866-1.396L72.802,162.17z M73.049,161.807l2.524-3.727
		l0.337,4.671l-2.564,9.625c-0.985-0.213-1.947-0.489-2.886-0.854L73.049,161.807z M75.95,163.186l0.707,9.606
		c-1.076-0.036-2.13-0.167-3.171-0.387L75.95,163.186z M75.701,157.887l0.792-1.162l0.629,1.478l-1.088,4.112L75.701,157.887z
		 M76.591,156.578l0.258-0.386c0.018,0.006,0.044,0.013,0.06,0.019l0.566,0.697l-0.286,1.063L76.591,156.578z M77.981,156.277
		l0.646,0.411l0.117,1.561l-1.114-1.38l0.162-0.605C77.854,156.283,77.918,156.289,77.981,156.277z M77.514,156.73l-0.337-0.428
		c0.109,0.03,0.231,0.012,0.332-0.062c0.02-0.013,0.032-0.036,0.049-0.055c0.006,0.03,0.012,0.061,0.012,0.097
		c0.025,0,0.047-0.006,0.066-0.006L77.514,156.73z M77.587,157.046l1.181,1.463l0.272,3.757l-1.76-4.076L77.587,157.046z
		 M78.78,156.78l1.598,0.996l2.329,5.387l-3.8-4.71L78.78,156.78z M80.6,157.91l3.492,2.19l6.273,7.78
		c-0.745,0.666-1.541,1.271-2.4,1.819l-4.92-6.109L80.6,157.91z M80.275,157.541l-1.507-0.943L78.727,156
		c0.029-0.015,0.053-0.015,0.077-0.031c0.019-0.018,0.031-0.036,0.051-0.055l0.796,0.182L80.275,157.541z M75.767,150.433
		l-0.273-1.282l0.292,0.243c0.054,0.338,0.121,0.725,0.2,1.124L75.767,150.433z M75.447,148.922l-0.884-4.176l0.635,1.065
		c0.09,0.797,0.243,1.529,0.339,1.995c0.063,0.327,0.128,0.799,0.218,1.368L75.447,148.922z M71.326,145.489l-7.467-6.212
		c0.764-0.738,1.599-1.416,2.495-2.032L71.326,145.489z M71.555,145.872l2.323,3.847l-4.378-1.646l-7.721-6.425
		c0.594-0.799,1.26-1.561,1.979-2.261L71.555,145.872z M69.077,147.915l-9.069-3.409c0.218-0.425,0.442-0.838,0.684-1.236
		l0.876,0.497l-0.024,0.047l0.889,0.517l0.339-0.594l-0.893-0.514l-0.027,0.047l-0.858-0.498c0.22-0.335,0.454-0.676,0.701-1.002
		L69.077,147.915z M58.316,157.306l9.628-3.063l4.488,0.124l-3.744,2.799l-9.524,3.031C58.808,159.24,58.519,158.273,58.316,157.306
		z M68.337,157.427l-7.725,5.783c-0.414-0.701-0.786-1.416-1.108-2.178c-0.102-0.229-0.192-0.472-0.284-0.701L68.337,157.427z
		 M60.684,163.331l8.069-6.031l4.287-1.367l-2.622,3.878l-7.995,5.978C61.785,165.024,61.206,164.203,60.684,163.331z
		 M70.173,160.18l-5.405,7.98c-0.805-0.685-1.562-1.441-2.25-2.264L70.173,160.18z M76.062,162.762l1.158-4.344l1.857,4.296
		l0.727,9.946c-1,0.12-2.011,0.169-3.008,0.146L76.062,162.762z M79.251,163.119l3.813,8.852c-1.029,0.313-2.077,0.532-3.11,0.67
		L79.251,163.119z M85.133,171.208c-0.635,0.278-1.279,0.513-1.924,0.715l-3.994-9.245l-0.289-3.968l3.999,4.96l3.078,7.14
		C85.712,170.954,85.427,171.089,85.133,171.208z M83.263,164.094l4.58,5.687c-0.544,0.351-1.12,0.665-1.711,0.967L83.263,164.094z
		 M90.475,167.784l-6-7.453l8.188,5.124C92.004,166.282,91.272,167.058,90.475,167.784z M84.196,159.99l-2.826-3.502l4.565,1.04
		l8.485,5.306c-0.484,0.873-1.042,1.713-1.665,2.507L84.196,159.99z M86.845,154.353l-2.277-0.521
		c1.73-0.846,3.607-2.02,6.301-2.951l5.802-0.636c0.161,1,0.24,2.003,0.24,3.008L86.845,154.353z M87.89,119.736l2.214,2.104
		l-3.041,6.873c-0.422-2.009-0.992-4.465-1.519-6.788c-0.041-0.182-0.079-0.362-0.121-0.557c0.355-0.291,0.604-0.551,0.78-0.762
		C86.712,120.461,87.249,120.208,87.89,119.736z M88.894,137.692c-0.029-0.056-0.07-0.133-0.108-0.225
		c0.601,0.43,1.168,0.901,1.718,1.397l-1.041,1.022l-0.01-0.296C89.62,138.339,89.324,138.346,88.894,137.692z M90.613,138.963
		c0.207,0.182,0.408,0.375,0.604,0.573c0,0,0,0.014,0,0.02l-0.191,0.146c-0.127-0.086-0.304-0.086-0.437,0.011
		c-0.128,0.102-0.184,0.266-0.133,0.423l-0.196,0.146c-0.134-0.085-0.307-0.085-0.44,0.012c-0.132,0.103-0.181,0.267-0.139,0.423
		l-0.023,0.019c-0.099-0.03-0.158-0.053-0.158-0.053l-0.025-0.601L90.613,138.963z M90.293,140.923
		c0.109-0.092,0.164-0.232,0.145-0.357l0.243-0.188c0.126,0.048,0.265,0.042,0.386-0.035c0.107-0.092,0.15-0.231,0.139-0.356
		l0.248-0.188c0.007,0.012,0.023,0.012,0.038,0.012c0.41,0.436,0.804,0.881,1.172,1.355l-0.35,0.338
		c-0.845-0.194-1.561-0.404-2.057-0.567C90.261,140.929,90.286,140.923,90.293,140.923z M92.763,141.273
		c0.1,0.133,0.199,0.265,0.295,0.398c-0.198-0.042-0.394-0.084-0.573-0.127L92.763,141.273z M98.624,138.236l-0.483,0.326
		c-0.024-0.036-0.051-0.072-0.068-0.102l0.459-0.346l-0.695-0.92l-0.455,0.352c-0.029-0.037-0.052-0.067-0.076-0.104l0.439-0.367
		l-0.73-0.872l-0.444,0.362c-0.024-0.03-0.051-0.061-0.078-0.095l0.417-0.39l-0.218-0.229l0.151-0.122
		c0.122,0.036,0.254,0.024,0.355-0.055c0.113-0.078,0.154-0.199,0.154-0.32l0.265-0.205c0.116,0.034,0.243,0.023,0.353-0.055
		c0.102-0.079,0.15-0.198,0.145-0.32l0.271-0.207c0.115,0.036,0.247,0.026,0.35-0.06c0.106-0.073,0.153-0.193,0.147-0.314
		l0.273-0.205c0.114,0.035,0.247,0.021,0.351-0.057c0.102-0.076,0.15-0.198,0.15-0.32l0.271-0.205
		c0.116,0.03,0.243,0.024,0.348-0.062c0.101-0.071,0.145-0.192,0.145-0.313l0.192-0.147c-0.048,0.098-0.099,0.195-0.138,0.291
		c0.15,0.036,0.289,0.134,0.375,0.279c0.176,0.302,0.072,0.69-0.225,0.872c-0.17,0.095-0.363,0.107-0.541,0.048
		c-0.029,0.146-0.052,0.301-0.077,0.447c0.157,0,0.32,0.055,0.447,0.17c0.254,0.236,0.273,0.635,0.038,0.896
		c-0.133,0.144-0.322,0.204-0.508,0.192c0.013,0.158,0.036,0.302,0.059,0.461c0.145-0.049,0.315-0.043,0.47,0.03
		c0.292,0.144,0.419,0.478,0.311,0.778l-1.936,1.285L98.624,138.236z M103.5,135.028c-0.404,0.314-0.965,0.39-1.441,0.141
		c-0.676-0.345-0.943-1.169-0.605-1.833c0.04-0.061,0.072-0.116,0.111-0.169L103.5,135.028z M101.209,132.875
		c-0.084,0.012-0.164,0.012-0.244,0c0.018-0.005,0.043-0.011,0.063-0.022c0.041-0.024,0.076-0.061,0.111-0.098l0.104,0.098
		C101.23,132.864,101.219,132.87,101.209,132.875z M100.456,132.591l-0.185,0.14c-0.142-0.098-0.324-0.106-0.469,0
		c-0.138,0.11-0.186,0.291-0.125,0.447l-0.179,0.134c-0.137-0.098-0.325-0.107-0.463,0c-0.139,0.109-0.183,0.284-0.122,0.447
		l-0.185,0.134c-0.14-0.097-0.321-0.104-0.463,0c-0.138,0.107-0.182,0.291-0.125,0.447l-0.182,0.134
		c-0.134-0.097-0.318-0.104-0.46,0c-0.14,0.11-0.18,0.289-0.127,0.44l-0.181,0.142c-0.139-0.097-0.321-0.097-0.459,0.006
		c-0.139,0.102-0.178,0.281-0.127,0.434l-0.141,0.104l-0.325-0.355l-0.424,0.393c-0.031-0.037-0.061-0.061-0.083-0.091l0.393-0.405
		l-0.813-0.811l-0.405,0.409c-0.03-0.022-0.055-0.054-0.092-0.083l0.388-0.423l-0.866-0.764l-0.379,0.424
		c-0.03-0.023-0.061-0.048-0.092-0.073l0.357-0.448l-0.89-0.72l-0.364,0.449c-0.028-0.019-0.065-0.056-0.097-0.074l0.339-0.464
		l-0.932-0.679l-0.338,0.473c-0.038-0.025-0.065-0.048-0.097-0.073l0.31-0.483l-0.964-0.619l-0.313,0.484
		c-0.03-0.022-0.066-0.048-0.104-0.072l0.292-0.495l-0.993-0.574l-0.291,0.501c-0.035-0.024-0.071-0.036-0.108-0.06l0.266-0.51
		l-1.015-0.531l-0.268,0.521c-0.026-0.014-0.049-0.025-0.073-0.038l3.063-6.909l9.038,8.725
		C100.477,132.318,100.428,132.451,100.456,132.591z M90.69,119.167l-1.196-1.136c0.273-0.667,0.169-1.381-0.062-2.011
		c0.781,0.744,1.441,1.379,1.816,1.749c0.15,0.15,0.32,0.31,0.489,0.467L90.69,119.167z M84.312,115.277
		c-0.426-2.626-0.711-4.744-0.711-4.744s1.177,1.102,2.621,2.463C85.58,113.746,84.945,114.521,84.312,115.277z M84.363,153.936
		l2.033,0.465l-4.417,0.485l-0.102-0.065C82.723,154.644,83.53,154.33,84.363,153.936z M81.745,154.91l-0.684,0.073
		c0.2-0.036,0.4-0.08,0.611-0.122L81.745,154.91z M79.936,155.259c0.078,0.025,0.176,0.025,0.255-0.006l0.804,1l-1.235-0.279
		l-0.174-0.41c0.042-0.062,0.07-0.134,0.078-0.206c0.012-0.013,0.024-0.03,0.035-0.049c0,0-0.006-0.011-0.011-0.011
		c0.029-0.014,0.053-0.014,0.079-0.024L79.936,155.259z M104.613,138.2c-0.057,0.255-0.182,0.494-0.381,0.689
		c-0.292,0.271-0.672,0.388-1.043,0.363C103.725,138.859,104.207,138.504,104.613,138.2z M106.041,141.478c0.012,0,0.022,0,0.036,0
		l-0.017,0.013C106.053,141.478,106.047,141.478,106.041,141.478z M105.515,133.251L105.515,133.251l-0.466-0.459
		c-0.172-0.266-0.255-0.582-0.213-0.908c0.079-0.604,0.559-1.065,1.127-1.162c0.174,0.217,0.393,0.459,0.629,0.715L105.515,133.251z
		 M105.086,129.882c-0.11-0.044-0.231-0.044-0.339,0.018c-0.19,0.109-0.248,0.35-0.146,0.532c0.016,0.023,0.041,0.05,0.065,0.073
		c-0.042,0.012-0.091,0.012-0.134,0.025c0.023-0.104,0.023-0.221-0.034-0.312c-0.103-0.186-0.346-0.254-0.533-0.144
		c-0.031,0.017-0.056,0.042-0.072,0.064c-0.017-0.034-0.042-0.07-0.056-0.119c-0.133,0.049-0.26,0.11-0.393,0.17
		c-0.013,0-0.02,0.007-0.035,0.013c0.035,0.054,0.059,0.114,0.08,0.181c-0.111-0.061-0.251-0.074-0.365,0
		c-0.134,0.071-0.207,0.219-0.193,0.362l-10.069-9.752l1.017-0.902c0.896,0.769,1.718,1.52,2.204,2.197
		c0.979,1.355,1.771,2.149,2.812,2.638c1.051,0.496,0.827,0.483,0.974,1.277c0.139,0.792,0.998,1.32,1.887,1.602
		c0.89,0.291,1.388,1.076,1.919,1.549c0.392,0.344,1.077,0.412,1.397,0.423C105.077,129.816,105.086,129.852,105.086,129.882z
		 M105.194,141.928c-0.108-0.087-0.267-0.107-0.4-0.037c-0.139,0.066-0.21,0.205-0.21,0.345l-0.25,0.128
		c-0.107-0.086-0.267-0.11-0.399-0.036c-0.097,0.047-0.157,0.119-0.192,0.216c-0.672-0.702-1.695-0.81-3.001-0.737l-0.109-0.235
		l-0.528,0.25c-0.018-0.04-0.033-0.074-0.054-0.11l0.51-0.279l-0.104-0.193c0.72-0.521,1.452-1.053,2.14-1.548
		c0.033,0.061,0.065,0.125,0.069,0.205c0.028,0.199-0.042,0.393-0.177,0.52c0.127,0.097,0.259,0.182,0.396,0.255
		c0.054-0.151,0.168-0.279,0.327-0.356c0.324-0.141,0.699,0,0.838,0.314c0.084,0.188,0.074,0.393-0.017,0.561
		c0.146,0.05,0.296,0.092,0.448,0.129c0.006-0.164,0.076-0.333,0.216-0.443c0.261-0.229,0.659-0.204,0.89,0.063
		c0.121,0.138,0.164,0.326,0.141,0.495c-0.025,0.005-0.055,0.013-0.072,0.024c-0.14,0.065-0.206,0.198-0.213,0.337L105.194,141.928z
		 M106.953,141.08c-0.121-0.108-0.289-0.145-0.441-0.061c-0.14,0.061-0.22,0.204-0.211,0.35l-0.102,0.047
		c-0.027-0.143-0.014-0.301,0.08-0.439c0.18-0.295,0.571-0.381,0.861-0.198c0.033,0.023,0.051,0.047,0.074,0.077
		c-0.012,0.036-0.023,0.08-0.023,0.116L106.953,141.08z M107.814,140.669c0.005-0.012,0-0.03,0.005-0.042
		c0.043-0.177,0.163-0.311,0.31-0.382c-0.067,0.071-0.098,0.181-0.08,0.29L107.814,140.669z M109.416,136.094
		c-0.478,0.099-0.948-0.073-1.265-0.4c0.492-0.326,1.265-0.845,2.173-1.461c0.029,0.011,0.054,0.017,0.084,0.03
		c0.025,0.066,0.049,0.138,0.067,0.211C110.627,135.213,110.154,135.938,109.416,136.094z M117.385,113.225
		c-0.109,0.109-0.211,0.22-0.308,0.328c-1.873,1.983-5.858,4.103-5.858,4.103c-0.574-0.713-1.458-0.896-1.778-0.848
		c-0.314,0.036-1.066,0.019-1.47-0.738c-0.405-0.749-0.485-0.847-1.5-1.718c-0.479-0.424-1.658-1.591-2.887-2.849l27.273-24.116
		l0.12,0.139l0.957,1.15L117.385,113.225z M179.323,115.683l-9.456-1.362l9.461-1.825
		C179.414,113.553,179.414,114.618,179.323,115.683z M179.31,112.349l-9.886,1.906l-4.45-0.642l4.061-2.349l9.78-1.886
		C179.059,110.353,179.219,111.345,179.31,112.349z M164.609,132.974l-0.266-0.968l0.061-0.012L164.132,131l-0.666,0.177
		l0.272,0.999l0.054-0.019l0.261,0.955c-0.405,0.092-0.803,0.163-1.207,0.224l-0.879-9.577l3.997,8.829
		C165.518,132.73,165.071,132.864,164.609,132.974z M161.923,123.317l-0.409-4.477l3.225,3.394l4.13,9.129
		c-0.89,0.462-1.813,0.859-2.766,1.175L161.923,123.317z M141.753,121.224c-0.368-0.932-0.665-1.897-0.89-2.879l9.633-3.256
		l3.693,0.037c0.118,0.12,0.231,0.254,0.335,0.363l-3.23,2.504L141.753,121.224z M150.943,118.271l-7.689,5.965
		c-0.563-0.919-1.041-1.887-1.441-2.879L150.943,118.271z M140.513,111.858l10.157,0.08l0.944,0.331
		c0.568,0.643,1.106,1.235,1.578,1.755l-2.722,0.919l-10.066-0.076C140.36,113.869,140.392,112.861,140.513,111.858z
		 M141.181,108.563l9.066,3.225l-9.724-0.073C140.651,110.661,140.869,109.607,141.181,108.563z M161.348,117.036l-0.058-0.622
		l0.863,0.127l0.544,1.191L161.348,117.036z M162.794,117.944l1.762,3.885l-3.061-3.225l-0.133-1.396L162.794,117.944z
		 M159.418,116.64l-0.307,0.471l-0.164-0.357l0.466-0.127L159.418,116.64z M157.102,117.056l0.314,0.103l0.146-0.036l-0.588,0.46
		L157.102,117.056z M158.265,111.852l-0.873-0.003l-0.695-1.116l1.427,0.509L158.265,111.852z M157.954,109.855l1.186,0.95
		l-0.065,0.618l-0.824-0.291L157.954,109.855z M157.309,111.991l0.209,0.327l-0.282-0.327H157.309z M158.01,112.392l-0.224,0.084
		l-0.304-0.484l0.819,0.013l0.016,0.092C158.216,112.186,158.104,112.282,158.01,112.392z M158.663,111.858l-0.249-0.007
		l-0.128-0.55l0.771,0.277l-0.014,0.086C158.909,111.72,158.784,111.787,158.663,111.858z M159.424,111.549l-0.215-0.071
		l0.065-0.563l0.514,0.412l-0.071,0.194C159.617,111.532,159.521,111.532,159.424,111.549z M162.11,112.693
		c-0.02-0.024-0.03-0.055-0.048-0.085l0.057-0.005L162.11,112.693z M162.363,113.238c-0.034-0.108-0.082-0.219-0.132-0.318
		l0.039-0.346l0.444-0.085l-0.296,0.755L162.363,113.238z M162.136,112.452l-0.18,0.037c-0.075-0.092-0.137-0.182-0.214-0.262
		l-0.086-0.332l0.57-0.339L162.136,112.452z M161.464,112.004l0.067-0.035l0.023,0.108
		C161.525,112.053,161.495,112.028,161.464,112.004z M160.471,116.571c0.201-0.043,0.381-0.108,0.563-0.193l0.109,0.018l0.054,0.559
		l-0.726-0.375V116.571z M161.748,115.889l0.097-0.023l0.235,0.519l-0.805-0.12v-0.012
		C161.445,116.143,161.607,116.026,161.748,115.889z M161.923,115.683c0.116-0.146,0.226-0.303,0.309-0.484l0.11-0.06l0.394,0.412
		l-0.8,0.155L161.923,115.683z M162.353,114.931c0.066-0.18,0.104-0.361,0.129-0.543l0.089-0.104l0.509,0.261l-0.709,0.412
		L162.353,114.931z M162.541,114.098l-0.03-0.014c0-0.182-0.02-0.361-0.055-0.544l0.055-0.132l0.563,0.079L162.541,114.098z
		 M162.564,113.263l0.322-0.811l1.286-0.24l-0.985,1.147L162.564,113.263z M162.783,112.33l-0.498,0.092l0.104-0.951l0.956-0.557
		L162.783,112.33z M162.25,111.38l-0.624,0.358l-0.217-0.933l1.029-1.186L162.25,111.38z M161.495,111.822l-0.159,0.085
		c-0.076-0.049-0.175-0.096-0.268-0.134l-0.204-0.333l0.431-0.496L161.495,111.822z M160.707,111.628l0.056-0.071l0.066,0.103
		C160.791,111.647,160.75,111.641,160.707,111.628z M160.55,111.579c-0.089-0.022-0.188-0.033-0.277-0.053l-0.311-0.249l0.243-0.61
		l0.479,0.757L160.55,111.579z M160.012,111.508c-0.044,0-0.091-0.012-0.138-0.012l0.027-0.072L160.012,111.508z M159.843,111.182
		l-0.551-0.436l0.14-1.308l0.676,1.077L159.843,111.182z M159.153,110.636l-1.253-1.004l-0.956-4.156l2.358,3.764L159.153,110.636z
		 M158.087,111.079l-1.515-0.539l-2.265-3.612l3.465,2.784L158.087,111.079z M157.218,111.849h-0.104l-1.16-1.382l0.519,0.188
		L157.218,111.849z M158.803,116.796l0.21,0.461l-0.711,1.098l-0.123-1.397L158.803,116.796z M159.617,116.6
		c0.196,0.026,0.389,0.026,0.583,0.008l0.104,0.048l-0.142,0.559l-0.563-0.6L159.617,116.6z M160.434,116.729l0.777,0.399
		l0.12,1.307l-1.049-1.1L160.434,116.729z M161.997,115.839l0.857-0.169l0.903,0.956l-1.5-0.218L161.997,115.839z M162.475,115.065
		l0.756-0.437l1.166,0.594l-1.491,0.291L162.475,115.065z M163.225,114.461l-0.552-0.29l0.569-0.662l1.304,0.188L163.225,114.461z
		 M163.353,113.377l1.052-1.214l4.188-0.813l-3.849,2.227L163.353,113.377z M164.325,112.028l-1.373,0.266l0.593-1.501l3.691-2.128
		L164.325,112.028z M163.43,110.697l-1.021,0.593l0.198-1.868l2.464-2.856L163.43,110.697z M162.469,109.36l-1.096,1.27
		l-0.423-1.833l2.165-5.457L162.469,109.36z M161.252,110.77l-0.473,0.544l-0.507-0.81l0.579-1.464L161.252,110.77z
		 M160.176,110.347l-0.716-1.137l0.456-4.242l0.875,3.817L160.176,110.347z M159.327,109.003l-2.478-3.956l-2.252-9.753
		c0.963-0.279,1.947-0.478,2.945-0.599l2.271,9.843L159.327,109.003z M156.611,104.671l-5.149-8.19
		c0.963-0.473,1.968-0.847,2.998-1.15L156.611,104.671z M156.708,105.094l1.011,4.387l-3.649-2.934l-5.336-8.482
		c0.829-0.582,1.69-1.089,2.596-1.525L156.708,105.094z M156.347,110.457l-0.587-0.208l-5.718-6.739l3.916,3.139L156.347,110.457z
		 M154.054,114.974l-3.141-0.03l2.383-0.804C153.574,114.442,153.827,114.72,154.054,114.974z M151.401,112.047l-0.284-0.104h0.195
		C151.345,111.98,151.376,112.01,151.401,112.047z M140.411,115.01l9.643,0.079l-9.22,3.117
		C140.604,117.158,140.465,116.094,140.411,115.01z M154.621,115.596c0.49,0.547,0.781,0.861,0.781,0.861l0.217,0.071l-3.908,1.32
		L154.621,115.596z M156.964,117.006l-0.177,0.723l-3.364,2.613l2.426-3.728L156.964,117.006z M156.923,117.813l1.001-0.788
		l0.103-0.021l0.146,1.548l-2.324,3.569L156.923,117.813z M158.19,118.779l0.437,4.663l-2.42,9.762
		c-0.975-0.183-1.947-0.449-2.904-0.8l2.443-9.85L158.19,118.779z M158.324,118.587l0.764-1.173l0.664,1.461l-1.026,4.141
		L158.324,118.587z M159.183,117.268l0.339-0.521l0.606,0.629l-0.314,1.271L159.183,117.268z M160.241,117.502l1.112,1.167
		l0.389,4.249l-1.841-4.053L160.241,117.502z M165.038,122.555l6.668,7.018c-0.858,0.654-1.761,1.224-2.711,1.718L165.038,122.555z
		 M164.857,122.149l-1.858-4.096l4.157,2.154l6.892,7.261c-0.694,0.732-1.438,1.401-2.226,2.021L164.857,122.149z M162.905,117.843
		l-0.582-1.278l1.598,0.231l2.933,3.092L162.905,117.843z M163.019,115.645l1.585-0.313l3.781,1.96l-4.392-0.637L163.019,115.645z
		 M163.381,114.532l1.393-0.798l4.222,0.605l-4.372,0.848L163.381,114.532z M169.415,111.049l8.323-4.828
		c0.429,0.979,0.779,1.984,1.042,3.012L169.415,111.049z M168.971,111.133l-4.409,0.848l3.054-3.539l8.628-4.991
		c0.542,0.847,1.03,1.73,1.441,2.643L168.971,111.133z M167.905,108.108l6.3-7.296c0.721,0.785,1.38,1.633,1.96,2.516
		L167.905,108.108z M167.526,108.326l-3.892,2.251l1.726-4.346l6.521-7.55c0.792,0.619,1.544,1.295,2.222,2.022L167.526,108.326z
		 M171.767,98.592l-6.243,7.229l3.558-8.955C170.029,97.375,170.926,97.957,171.767,98.592z M165.238,106.152l-2.605,3.015
		l0.682-6.328l2.874-7.236c0.303,0.102,0.6,0.211,0.896,0.333c0.647,0.253,1.265,0.544,1.871,0.858L165.238,106.152z M163.377,102.3
		l0.777-7.271c0.638,0.146,1.266,0.314,1.895,0.531L163.377,102.3z M164.012,95.004l-0.836,7.798l-2.285,5.748l-0.933-4.024
		l1.071-9.934C162.021,94.653,163.019,94.785,164.012,95.004z M159.86,104.09l-2.171-9.413c1.049-0.12,2.124-0.146,3.201-0.096
		L159.86,104.09z M148.613,98.149l5.112,8.125l-4.18-3.345l-2.788-3.292C147.351,99.106,147.974,98.609,148.613,98.149z
		 M151.178,111.8h-0.483l-9.468-3.377c0.158-0.52,0.333-1.048,0.533-1.563c0.169-0.424,0.363-0.833,0.55-1.245l4.858,1.729
		C148.564,108.894,149.956,110.438,151.178,111.8z M143.334,124.358l8.026-6.232l4.259-1.44l-2.547,3.922l-7.963,6.184
		C144.458,126.022,143.864,125.21,143.334,124.358z M152.83,120.981l-5.304,8.161c-0.843-0.688-1.617-1.444-2.317-2.242
		L152.83,120.981z M147.627,129.235l5.554-8.532l3.547-2.751l-1.12,4.541l-5.492,8.441
		C149.237,130.426,148.408,129.863,147.627,129.235z M155.498,122.924l-2.335,9.433c-0.157-0.061-0.32-0.109-0.478-0.175
		c-0.848-0.335-1.666-0.733-2.438-1.176L155.498,122.924z M156.347,133.24l2.316-9.354l0.883,9.675
		C158.487,133.54,157.416,133.433,156.347,133.24z M158.767,123.455l1.082-4.361l1.929,4.26l0.92,9.999
		c-0.984,0.146-1.99,0.213-3,0.208L158.767,123.455z M167.557,120.414l8.577,4.435c-0.597,0.901-1.264,1.734-1.983,2.51
		L167.557,120.414z M167.247,120.086l-3.097-3.254l4.627,0.666l8.883,4.585c-0.418,0.933-0.901,1.815-1.44,2.649L167.247,120.086z
		 M178.01,121.261c-0.097,0.229-0.194,0.46-0.296,0.696l-8.488-4.398l9.539,1.378C178.561,119.71,178.318,120.493,178.01,121.261z
		 M168.828,117.353l-3.995-2.059l4.591-0.895l9.88,1.429c-0.085,0.992-0.252,1.984-0.507,2.963L168.828,117.353z M146.968,107.116
		l-4.592-1.633c0.367-0.753,0.769-1.466,1.217-2.144C144.657,104.538,145.813,105.832,146.968,107.116z"/>
</g>
</svg>
