<?xml version="1.0" encoding="utf-8"?>
<!-- Generator: Adobe Illustrator 14.0.0, SVG Export Plug-In . SVG Version: 6.00 Build 43363)  -->
<!DOCTYPE svg PUBLIC "-//W3C//DTD SVG 1.1//EN" "http://www.w3.org/Graphics/SVG/1.1/DTD/svg11.dtd">
<svg version="1.1" id="Layer_1" xmlns="http://www.w3.org/2000/svg" xmlns:xlink="http://www.w3.org/1999/xlink" x="0px" y="0px"
	 width="200px" height="200px" viewBox="0 0 200 200" enable-background="new 0 0 200 200" xml:space="preserve">
<g>
	
		<path fill="#3F204D" stroke="#FDB515" stroke-width="3.1032" stroke-linecap="round" stroke-linejoin="round" stroke-miterlimit="10" d="
		M123.532,174.326c0,0,5.693,6.148,10.915,7.166c5.225,1.021,12.411-1.223,13.09-4.705c0.68-3.482-4.067-1.689-7.545-4.688
		c-3.477-2.996-4.219-5.27-4.219-5.27L123.532,174.326z"/>
	
		<path fill="#3F204D" stroke="#FDB515" stroke-width="3.1032" stroke-linecap="round" stroke-linejoin="round" stroke-miterlimit="10" d="
		M148.482,160.803c0,0,4.5,7.42,10.361,7.875c5.859,0.455,13.227-2.473,11.779-5.299c-1.445-2.824-3.793-0.883-7.545-4.686
		s-3.867-5.664-3.867-5.664L148.482,160.803z"/>
	<path fill="#3F204D" d="M53.875,92.054c0,0-2.187,5.292-7.905,8.768c-5.718,3.475-14.626,3.854-16.788,5.727
		c-2.161,1.873-0.455,6.143,8.798,7.424c9.252,1.279,15.168,0.01,15.168,0.01s-0.959,22.063,16.096,42.637
		c17.054,20.574,32.689,23.254,45.08,20.08c12.393-3.174,27.138-8.951,44.811-23.545c17.67-14.596,17.289-31.238,10.908-48.883
		c-6.379-17.646-18.568-28.516-22.761-32.269c-4.191-3.755-7.577-6.121-7.577-6.121s6.039-5.054,6.814-12.776
		c0.776-7.722-1.953-11.089-3.68-9.001c-1.729,2.085-6.651,7.728-12.809,9.913c-6.158,2.184-12.052,1.894-12.052,1.894
		L53.875,92.054z"/>
	
		<path fill="#FFE3BB" stroke="#FFFFFF" stroke-width="1.4027" stroke-linecap="round" stroke-linejoin="round" stroke-miterlimit="10" d="
		M110.387,177.359c0,0-4.271,0.004-5.338-2.412c-1.067-2.42,1.107-3.906,1.107-3.906s-3.671,3.367-5.522,0.955
		c-1.85-2.412-0.418-4.596-0.418-4.596s-3.289,2.475-4.812,0.434c-1.522-2.041,0.154-3.803,0.154-3.803s-3.197,1.855-4.831-0.57
		c-1.634-2.426-0.147-3.74-0.147-3.74s-2.874,1.445-4.313-0.645c-1.439-2.092-0.133-3.523-0.133-3.523s-2.698,0.777-3.568-1.301
		c-0.873-2.084,0.565-3.482,0.565-3.482s-2.57,0.031-3.321-2.232c-0.753-2.264,1.112-3.121,1.112-3.121s-2.62-0.055-2.783-2.66
		c-0.163-2.607,1.667-3.33,1.667-3.33s-1.861-0.494-2.334-2.471c-0.473-1.975,2.19-2.621,2.19-2.621s-2.358-0.768-2.53-2.807
		c-0.171-2.039,2.625-2.65,2.625-2.65s-2.188-2.217-1.105-4.422c1.083-2.203,4.018-1.992,4.018-1.992s-2.751-1.443-2.354-3.475
		c0.397-2.027,3.078-1.674,3.078-1.674s-1.306-2.055-0.532-3.629c0.773-1.574,3.833-0.762,3.833-0.762s-2.671-2.275-1.356-4.275
		c1.313-2.002,4.456-1.238,4.456-1.238s-2.706-2.143-1.155-4.506c1.553-2.364,4.738-0.947,4.738-0.947s-1.446-2.876,0.499-4.567
		c1.943-1.691,4.675,0.884,4.675,0.884s-1.001-3.47,1.488-4.802c2.488-1.333,4.934,1.521,4.934,1.521s0.357-4.033,3.203-4.559
		c2.844-0.527,3.469,2.485,3.469,2.485s0.967-3.375,3.62-3.454c2.655-0.077,3.306,3.37,3.306,3.37s1.814-3.078,4.096-2.828
		c2.283,0.25,2.43,3.988,2.43,3.988s2.128-2.923,4.473-2.372c2.346,0.552,1.955,3.366,1.955,3.366s3.064-1.892,4.91-0.264
		s0.631,3.797,0.631,3.797s2.539-2.6,4.576-1.42c2.035,1.18,0.984,4.603,0.984,4.603s2.869-2.229,5.238,0.109
		c2.369,2.336,0.389,5.512,0.389,5.512s3.1-2.025,4.854,0.221c1.754,2.244-0.787,4.844-0.787,4.844s3.193-0.506,4.654,1.234
		s-0.281,4.553-0.281,4.553s3.068,0.244,4.16,3.096c1.096,2.854-1.912,4.262-1.912,4.262s3.297,0.447,4.027,3.061
		c0.73,2.615-1.711,4.031-1.711,4.031s2.572-0.029,3.732,1.771c1.158,1.803,0.109,3.875,0.109,3.875s2.26,0.598,2.994,1.861
		c0.732,1.262,0.443,2.893,0.443,2.893s-12.164,13.928-30.008,23.502C120.686,176.105,110.387,177.359,110.387,177.359z"/>
	<path fill="#D17A18" d="M141.683,166.35c-8.669,5.033-17.304,8.555-27.171,11.082c-15.872,4.066-31.298-2.775-45.85-20.33
		c-15.067-18.18-16.216-37.768-16.273-42.219c-2.02,0.303-7.226,0.846-14.512-0.162c-5.567-0.77-9.361-2.813-10.148-5.461
		c-0.361-1.221-0.003-2.447,0.96-3.283c1.071-0.926,3.457-1.508,6.329-2.18c3.233-0.758,7.256-1.699,10.297-3.465l0.264-0.156
		c5.442-3.309,7.577-8.358,7.599-8.41c0.064-0.156,0.164-0.295,0.328-0.369l64.104-36.145c0.125-0.07,0.267-0.104,0.408-0.097
		c0.058,0.003,5.826,0.255,11.762-1.852c4.092-1.453,8.512-4.891,12.479-9.683c0.773-0.931,1.861-1.131,2.777-0.54
		c1.857,1.196,2.736,5.162,2.238,10.1c-0.644,6.416-4.706,10.996-6.373,12.631c1.24,0.916,3.871,2.926,6.889,5.627
		c4.133,3.701,16.551,14.822,22.969,32.576c5.252,14.527,8.732,33.311-11.141,49.725C153.668,158.65,147.634,162.893,141.683,166.35
		z M30.028,106.877c-0.14,0.082-0.258,0.162-0.349,0.242c-0.517,0.447-0.694,1.057-0.499,1.711c0.472,1.592,3.059,3.582,8.903,4.391
		c8.992,1.244,14.849,0.035,14.907,0.021c0.229-0.049,0.467,0.012,0.646,0.162c0.178,0.15,0.277,0.377,0.268,0.611
		c-0.009,0.217-0.733,22.025,15.923,42.121c14.144,17.064,29.053,23.736,44.31,19.83c9.728-2.492,18.238-5.965,26.784-10.926
		c5.881-3.414,11.846-7.609,17.73-12.471c19.145-15.811,15.766-33.98,10.68-48.043c-6.289-17.394-18.492-28.324-22.502-31.916
		c-4.158-3.723-7.524-6.087-7.559-6.11c-0.191-0.134-0.311-0.35-0.321-0.586s0.089-0.462,0.27-0.613
		c0.058-0.049,5.813-4.963,6.547-12.272c0.532-5.289-0.637-8.086-1.552-8.677c-0.373-0.24-0.551-0.062-0.793,0.232
		c-4.144,5.007-8.781,8.599-13.139,10.145c-5.627,1.996-10.959,1.976-12.118,1.944l-63.7,35.916
		c-0.519,1.12-2.878,5.703-8.102,8.876l-0.289,0.172c-3.236,1.881-7.38,2.852-10.711,3.631
		C33.054,105.811,31.061,106.277,30.028,106.877z"/>
	<path fill="#F2CC9B" d="M156.049,115.736c0.824,0.527,1.598-0.773,0.777-1.299c-1.189-0.762-2.152-0.797-2.914-0.396
		c-0.479-0.805-1.145-1.77-1.935-2.6c-0.056-0.109-0.132-0.213-0.255-0.293c-0.892-0.592-0.369-2.324,0.369-2.842
		c0.791-0.555,0.055-1.877-0.746-1.316c-0.887,0.619-1.475,1.738-1.564,2.846c-0.69-0.281-1.415-0.361-2.156-0.115
		c-0.071-0.158-0.154-0.316-0.244-0.469c-0.439-1.564-1.32-4.514,0.543-4.373c0.976,0.074,1-1.441,0.033-1.514
		c-0.615-0.047-1.09,0.039-1.461,0.223c-0.026-0.023-0.041-0.053-0.074-0.074c-1.383-0.912-3.033-2.008-4.689-1.721
		c-0.033-0.049-0.053-0.1-0.104-0.146c-1.452-1.365-2.773-3.418-5.048-3.011c-0.227,0.041-0.427,0.107-0.617,0.184
		c-1.733-1.9-4.13-2.929-6.571-1.713c-0.043,0.021-0.078,0.049-0.117,0.074c-0.334-1.226-0.409-2.979,0.776-3.684
		c0.835-0.499,0.093-1.818-0.747-1.317c-1.416,0.843-1.853,2.515-1.723,4.103c-0.781-0.365-1.615-0.54-2.458-0.394
		c-0.976-1.516-2.73-2.868-4.589-2.62c-0.662,0.089-1.214,0.363-1.667,0.747c-1.29-1.092-2.619-2.244-4.423-1.819
		c-1.443,0.339-2.022,1.615-2.256,2.94c-1.467-0.865-3.152-1.257-4.844-0.614c-1.777,0.674-2.115,2.62-2.201,4.411
		c-1.648-1.254-3.692-1.965-5.553-0.57c-1.458,1.094-2.1,3.038-2.246,4.909c-1.173-1.016-2.716-1.375-4.335-0.613
		c-2.348,1.107-2.678,3.967-1.79,6.117c0.014,0.035,0.038,0.049,0.054,0.08c-0.106,0.07-0.215,0.127-0.32,0.215
		c-1.389,1.135-1.71,3.287-1.604,5.17c-1.424-0.633-3.172-0.828-4.267,0.285c-1.133,1.152-1.179,2.719-0.932,4.24
		c-0.739-0.721-1.715-1.166-2.755-0.992c-0.963,0.16-0.586,1.627,0.369,1.467c0.906-0.15,1.828,0.982,2.094,1.756
		c-2.062,1.531-1.807,4.098-0.67,6.137c-0.269,0.154-0.535,0.33-0.793,0.563c-1.878,1.686-1.741,4.807-0.521,6.801
		c-2.008,1.959-1.031,4.859,0.284,7.02c0.033,0.053,0.077,0.084,0.117,0.125c-1.736,1.768-1.194,4.648-0.365,6.953
		c-0.036,0.006-0.07,0.008-0.104,0.014c-0.962,0.174-0.585,1.641,0.369,1.465c2.152-0.389,4.597,1.006,5.365,3.057
		c0.086,0.227,0.244,0.373,0.425,0.451c-1.323,1.711-1.277,4.531,0.431,5.961c0.741,0.619,1.83-0.432,1.081-1.061
		c-1.246-1.043-1.183-3.1-0.107-4.246c1.154-1.227,3.65-0.234,4.807,0.623c-1.502,1.469-0.87,3.717-0.047,5.506
		c-1.254-0.363-2.675-0.264-3.629,0.684c-0.692,0.686,0.367,1.77,1.06,1.08c0.737-0.732,2.042-0.482,2.863-0.025
		c0.158,0.088,0.312,0.102,0.455,0.082c-0.01,0.1-0.008,0.201-0.01,0.303c-0.028,0.084-0.043,0.18-0.033,0.295
		c0.187,2.031,1.411,3.527,2.688,5.031c0.632,0.742,1.709-0.32,1.08-1.063c-0.924-1.086-1.996-2.264-2.219-3.727
		c0.019-0.096,0.023-0.199-0.001-0.313c-0.307-1.48,1.208-1.49,2.166-0.977c0.775,0.414,1.368,1.084,1.912,1.787
		c0.169,0.342,0.353,0.662,0.548,0.951c-0.288,0.191-0.534,0.453-0.737,0.781c-0.178,0.074-0.327,0.225-0.391,0.471
		c-0.576,2.246,1.821,4.521,3.221,5.965c0.68,0.703,1.76-0.355,1.08-1.061c-0.604-0.621-1.184-1.262-1.723-1.941
		c-0.402-0.506-1.038-1.318-1.137-2.063c0.005-0.018,0.016-0.025,0.021-0.043c0.587-2.32,4.044-0.5,4.796,0.844
		c0.038,0.066,0.087,0.105,0.132,0.152c-0.394,0.443-0.665,1.012-0.823,1.641c-0.137,0.119-0.234,0.291-0.253,0.518
		c-0.09,1.166,0.336,2.225,0.782,3.277c-0.238,0.246-0.449,0.535-0.624,0.854c-0.47,0.854,0.828,1.633,1.3,0.777
		c0.465-0.846,0.889-1.146,1.689-0.504c0.741,0.594,1.314,1.373,1.975,2.051c0.072,0.074,0.15,0.119,0.229,0.156
		c0.488,0.59,1.645,0.229,1.328-0.592c-0.545-1.41-0.7-4.928,1.719-4.537c1.645,0.268,2.76,2.352,3.41,3.693
		c0.428,0.879,1.742,0.129,1.318-0.744c-0.084-0.174-0.176-0.35-0.27-0.527c-0.001-0.07,0.003-0.141-0.023-0.223
		c-0.357-1.145-0.563-5.719,2.079-4.449c1.347,0.646,2.487,2.422,3.288,3.559c0.49,0.695,1.553,0.309,1.392-0.559
		c-0.255-1.377-0.44-2.652-0.173-4.043c0.778-2.369,2.145-2.602,4.1-0.697c0.467,0.637,0.75,1.457,1.116,2.189
		c0.031,0.145,0.095,0.25,0.177,0.33c0.025,0.045,0.045,0.092,0.072,0.133c0.513,0.828,1.833,0.088,1.318-0.744
		c-0.043-0.068-0.086-0.145-0.13-0.217c-0.249-1.719-1.111-4.336,0.555-5.578c1.885-1.406,4.475,1.979,5.413,3.141
		c0.556,0.689,1.48-0.123,1.193-0.842c0.043-0.115,0.068-0.24,0.049-0.383c-0.211-1.568-0.087-3.322,0.66-4.738
		c1.168-2.209,3.748,0.553,4.74,1.576c0.26,0.268,0.578,0.275,0.836,0.146c0.37,0.002,0.725-0.23,0.697-0.711
		c-0.088-1.621-1.064-3.299-0.639-4.91c0.444-1.678,2.375-1.51,3.574-0.977c0.725,0.322,1.36,0.969,1.89,1.615
		c0.005,0.008,0.009,0.018,0.014,0.025c0.058,0.113,0.129,0.195,0.21,0.256c0.066,0.086,0.141,0.176,0.204,0.26
		c0.587,0.775,1.663-0.291,1.081-1.059c-0.066-0.088-0.137-0.174-0.207-0.26c-0.482-0.947-0.916-1.912-0.989-2.988
		c-0.039-0.576,0.146-1.477,0.637-1.895c0.101-0.037,0.19-0.09,0.271-0.162c0.146-0.055,0.302-0.088,0.486-0.059
		c1.376,0.219,2.583,1.572,3.575,2.453c0.475,0.424,1.098,0.113,1.27-0.334c0.105-0.15,0.146-0.35,0.061-0.59
		c-0.42-1.152-0.928-2.49-0.635-3.727c0.428-1.807,3.338-0.311,3.975,0.564c0.049,0.066,0.107,0.107,0.166,0.15
		c0.363,0.625,1.52,0.242,1.369-0.615c-0.254-1.43-0.527-2.85-0.162-4.283c0.584-2.309,3.141-0.662,4.107,0.289
		c0.693,0.684,1.777-0.373,1.08-1.061c-0.924-0.908-2.188-1.758-3.482-1.881c-0.014-0.045-0.016-0.09-0.037-0.135
		c-0.557-1.188-0.82-2.182-0.914-3.49c-0.053-0.74,0.393-3.336,1.648-3.09c0.951,0.188,1.377-1.266,0.422-1.453
		c-1.162-0.229-1.957,0.08-2.486,0.695c-1.156-1.643-2.857-3.664-4.836-3.299c-0.047-1.582-0.318-3.469,0.852-4.559
		c0.055-0.01,0.107-0.01,0.166-0.033c1.322-0.549,2.365,3.125,2.814,3.936c0.473,0.854,1.789,0.107,1.316-0.748
		c-0.852-1.541-1.639-4.424-3.525-4.705c-0.104-0.115-0.234-0.205-0.387-0.242c-0.004-0.018-0.016-0.033-0.02-0.049
		c-0.15-1.469-0.779-3.73,0.604-4.711c0.787-0.559,0.049-1.883-0.748-1.318c-1.377,0.98-1.604,2.355-1.547,3.809
		c-0.934-0.967-2.064-1.758-3.28-1.713c-0.001-0.055,0.009-0.105-0.005-0.166C152.895,119.361,153.23,113.932,156.049,115.736z
		 M145.549,104.746c-0.234,0.727-0.203,1.656-0.072,2.584c-1.371-0.85-3.06-1.068-4.434-0.09c-0.338-1.391-0.861-3.021,0.635-3.893
		C142.809,102.689,144.605,104.107,145.549,104.746z M146.217,110.582c-1.233,1.109-1.533,2.719-1.45,4.385
		c-1.176-1.055-2.636-1.773-4.125-1.322c-0.142-0.141-0.265-0.287-0.36-0.441c-0.059-0.174-0.133-0.336-0.217-0.49
		c-0.404-1.305,0.469-2.867,1.38-3.867c1.455-1.596,3.574-0.41,4.567,1.096c0.026,0.119,0.052,0.232,0.073,0.338
		C146.109,110.402,146.156,110.5,146.217,110.582z M95.902,147.338c1.776-0.658,4.135,0.506,5.33,1.785
		c-1.507,1.41-1.336,3.746-0.708,5.727c-1.555-0.969-3.374-1.541-5.022-0.865c0.017-0.188-0.031-0.383-0.18-0.561
		C93.999,151.836,93.533,148.215,95.902,147.338z M101.021,120.381c0.213,0.291,0.528,0.369,0.813,0.313
		c0.033,0.076,0.063,0.15,0.097,0.225c0.418,0.881,1.734,0.131,1.316-0.746c-0.875-1.844-0.801-4.057,0.671-5.572
		c2.148-2.209,4.955,0.605,6.191,2.299c0.066,0.094,0.146,0.16,0.229,0.213c-0.063,0.568-0.014,1.152,0.188,1.709
		c0.329,0.908,1.801,0.549,1.469-0.371c-0.471-1.297,0.075-2.717,1.412-3.24c1.033-0.402,2.006,0.611,2.559,1.35
		c0.576,0.77,1.902,0.035,1.316-0.744c-1.074-1.436-2.634-2.699-4.51-1.969c-0.563,0.219-1.031,0.574-1.414,1.002
		c-0.65-1.354-0.694-3.014,0.154-4.291c1.297-1.961,3.752,1.215,4.5,2.143c0.612,0.758,1.689-0.305,1.081-1.061
		c-0.06-0.074-0.122-0.148-0.186-0.225c0.405-0.061,0.757-0.387,0.597-0.887c-0.434-1.354-0.424-2.85-0.059-4.217
		c0.18-0.672,0.541-1.348,1.244-1.553c1.283-0.373,2.217,1.074,2.744,1.973c0.346,0.592,1.089,0.393,1.334-0.066
		c0.618,0.195,1.385-0.391,0.915-1.023c-0.905-1.213-0.97-3.117,0.704-3.666c1.223-0.4,2.513,0.314,3.125,1.359
		c0.021,0.037,0.051,0.053,0.074,0.084c-1.51,1.602-1.125,4.305,0.063,6.223c0.512,0.828,1.832,0.084,1.314-0.748
		c-1.02-1.646-1.564-4.318,0.764-5.078c1.609-0.525,3.215,0.412,3.924,1.842c-1.029,0.871-1.398,2.23-1.328,3.578
		c-0.721-0.438-1.51-0.73-2.292-0.65c-0.96,0.1-1.003,1.613-0.034,1.516c1.101-0.117,2.213,0.83,2.959,1.557
		c0.03,0.043,0.059,0.09,0.094,0.125c-1.908,1.639-2.346,4.666-0.313,6.572c0.014,0.016,0.03,0.018,0.045,0.029
		c-0.59,0.666-1.025,1.514-1.252,2.285c-0.274,0.939,1.18,1.357,1.453,0.422c0.424-1.443,1.579-3,3.195-1.973
		c0.967,0.615,1.59,1.867,2.041,2.881c0.025,0.057,0.063,0.088,0.094,0.131c-0.993,1.158-0.88,2.959-0.41,4.604
		c-1.42-1.047-3.045-1.684-4.81-0.873c-2.724,1.254-1.649,5.131-0.686,7.098c0.146,0.297,0.392,0.396,0.638,0.379
		c-0.408,0.539-0.543,1.197-0.521,1.904c-0.945-1.066-2.059-1.795-3.322-1.521c-1.814,0.395-2.405,1.887-2.4,3.551
		c-1.091-1.232-2.396-2.016-3.998-1.064c-1.648,0.98-1.853,3.061-1.604,5.055c-0.512-0.436-1.092-0.818-1.809-1.135
		c-1.303-0.578-3.139-1.051-4.502-0.373c-0.134,0.068-0.258,0.145-0.377,0.227c-1.19-1.08-1.967-2.313-3.654-2.775
		c-0.451-0.125-0.903-0.133-1.333-0.047c0.128-0.25,0.114-0.555-0.165-0.801c-1.805-1.588-3.893-3.111-6.181-2.332
		c-0.643-1.359-0.708-2.945-0.331-4.389c0.07-0.266,0.159-0.494,0.263-0.695c0.06-0.07,0.108-0.148,0.139-0.234
		c0.673-0.992,1.84-0.941,3.071-0.189c0.834,0.512,1.608-0.789,0.776-1.299c-1.571-0.963-3.271-1.137-4.497-0.045
		c-1.451-1.934-4.18-3.719-6.459-2.891c-0.024,0.01-0.044,0.021-0.066,0.031c-0.379-1.453-0.389-2.969,0.063-4.412
		C97.002,117.146,99.849,118.783,101.021,120.381z M96.543,117.182c-0.203-1.588-0.457-3.121,0.648-4.516
		c1.671-2.111,3.916-0.209,5.421,1.1c-1.172,1.229-1.561,2.961-1.383,4.645C99.901,117.199,98.136,116.41,96.543,117.182z
		 M104.168,112.693c-0.3-1.461-0.033-2.986,0.996-4.131c1.55-1.721,3.863-0.117,4.928,1.359c-0.768,1.143-0.885,2.697-0.59,4.1
		C107.969,112.674,106.094,111.852,104.168,112.693z M113.504,97.693c0.157-0.033,0.306-0.105,0.418-0.221
		c1.16-0.369,2.745,0.624,3.321,1.58c0.028,0.047,0.067,0.073,0.101,0.111c-0.727,0.84-0.986,2.045-0.895,3.211
		c-1.123-0.824-2.449-1.186-3.816-0.678c-0.055-1.108-0.183-2.331,0.33-3.354C113.108,98.051,113.296,97.844,113.504,97.693z
		 M119.836,99.612c1.032,0.023,2,0.93,2.709,1.753c-0.794,0.783-1.111,1.906-0.978,3.016c-0.458-0.451-1.004-0.803-1.716-1.031
		c-0.57-0.184-1.148-0.166-1.68,0.008C117.598,101.957,117.931,99.566,119.836,99.612z M116.582,104.557
		c-1.069,1.506-1.125,3.92-0.713,5.711c-1.302-1.289-2.957-2.33-4.568-1.453c-0.206-1.639-0.164-3.375,0.716-4.818
		C113.251,101.967,115.432,103.188,116.582,104.557z M139.133,114.543c-1.006,0.992-1.384,2.447-1.408,3.936
		c-0.459-0.453-0.986-0.828-1.598-1.076c-0.805-0.328-1.539-0.248-2.184,0.068c-0.037-0.061-0.066-0.121-0.125-0.176
		c-1.781-1.67-0.775-4.195,1.261-4.973c1.165-0.441,2.947,0.006,3.62,1.119c0.045,0.119,0.104,0.234,0.164,0.35
		c0.041,0.117,0.074,0.236,0.092,0.363C138.977,114.324,139.043,114.453,139.133,114.543z M144.943,125.213
		c0.002,0.006,0.008,0.008,0.011,0.014c-1.462,1.283-1.612,2.758-1.286,4.283c-0.33-0.252-0.699-0.48-1.157-0.67
		c-0.647-0.273-1.454-0.332-2.179-0.156c-0.91-1.629-1.771-3.633-0.836-5.438C140.732,120.855,144.223,123.9,144.943,125.213z
		 M139.576,121.275c-0.002-0.004,0-0.008,0-0.014c-0.421-1.705-0.698-4.264,0.584-5.68c1.646-1.818,4.07,0.768,4.961,2.047
		c0.003,0.02,0.006,0.039,0.01,0.059c0.02,0.104,0.06,0.182,0.105,0.256c-1.091,0.934-1.479,2.49-1.321,4.008
		C142.605,121.084,141.037,120.695,139.576,121.275z M138.527,111.271c-1.297-0.676-2.99-0.766-4.255-0.246
		c-0.009-0.059-0.022-0.115-0.05-0.174c-0.004-0.006-0.002-0.012-0.004-0.018c-0.65-1.404-0.625-3.02,0.559-4.121
		c1.529-1.424,3.979,0.41,4.91,1.658c0.033,0.047,0.076,0.07,0.114,0.105C139.18,109.299,138.702,110.279,138.527,111.271z
		 M138.852,129.592c-0.857,0.959-1.186,2.279-1.111,3.609c-1.102-0.834-2.372-1.289-3.659-0.676c-0.108,0.053-0.203,0.111-0.3,0.17
		c0.031-0.15,0.028-0.313-0.055-0.484c-0.714-1.457-1.615-3.891,0.115-5.035C135.491,126.088,137.71,128.42,138.852,129.592z
		 M101.068,141.891c0.003,0.012,0.006,0.025,0.012,0.035c-1.226,1.008-1.501,2.801-1.139,4.439c-1.47-0.686-3.151-0.914-4.622-0.383
		c-0.38-1.627-0.289-3.393,0.449-4.91C97.03,138.477,99.731,140.264,101.068,141.891z M96.576,138.463
		c-0.986-1.652-1.145-4.063,0.157-5.596c1.228-1.443,3.678,0.9,4.854,2.117c-1.04,1.064-1.231,2.725-1.068,4.316
		C99.328,138.441,97.943,138.002,96.576,138.463z M102.093,143.049c1.34-1.344,3.62,0.131,4.796,1.543
		c0.141,0.295,0.305,0.574,0.492,0.83c-0.684,0.939-0.856,2.096-0.709,3.262c-1.187-0.738-2.545-0.988-4.055-0.389
		c-0.037-0.092-0.096-0.182-0.182-0.266C101.215,146.842,100.851,144.295,102.093,143.049z M102.468,141.242
		c-0.009-0.012-0.019-0.023-0.028-0.035c-0.504-1.672-0.874-3.855,0.326-5.24c1.672-1.932,4.215,0.303,5.516,1.449
		c0.071,0.063,0.148,0.096,0.225,0.131c-0.308,0.176-0.596,0.391-0.85,0.646c-0.965,0.977-1.389,2.398-1.359,3.814
		C105.116,141.283,103.734,140.936,102.468,141.242z M108.498,139.563c1.5-2.48,3.722,0.359,5.018,1.549
		c-0.581,1.076-0.68,2.502-0.451,3.857c-1.375-0.969-2.943-1.516-4.462-0.633c-0.13-0.229-0.284-0.451-0.45-0.666
		C107.628,142.344,107.738,140.818,108.498,139.563z M96.866,125.621c1.602-0.584,3.892,1.504,4.794,2.863
		c-0.578,1.229-0.69,2.695-0.465,4.084c-1.598-1.32-3.617-2.404-5.216-1.043c-0.075,0.066-0.139,0.137-0.206,0.207
		C95.23,129.959,94.787,126.377,96.866,125.621z M93.908,130.125c-1.243-1.043-2.677-1.719-4.323-1.168
		c-0.391-1.398-0.768-2.902-0.464-4.35c0.267-1.275,1.833-1.252,2.795-1.051c1.124,0.234,1.956,1.129,2.789,1.857
		C93.864,126.633,93.725,128.486,93.908,130.125z M94.784,133.146c-0.478,1.068-0.595,2.314-0.417,3.51
		c-1.501-0.996-3.337-1.541-4.966-0.855c-0.011,0.004-0.018,0.01-0.027,0.014c-0.486-1.738-1.1-4.332,0.688-5.459
		C91.659,129.348,93.807,132.035,94.784,133.146z M95.123,139.342c-1.283,1.242-1.65,3.387-1.525,5.303
		c-1.1-0.809-2.419-1.293-3.64-1.115c-0.37-1.867-1.07-3.529-0.518-5.479C90.207,135.34,94.041,138.141,95.123,139.342z
		 M102.33,150.232c1.744-1.996,4.082-0.16,5.324,1.385c0.08,0.15,0.166,0.299,0.254,0.441c-1.162,1.086-1.507,2.654-1.434,4.266
		c-0.459-0.473-0.996-0.869-1.752-1.119c-0.814-0.27-1.656-0.174-2.416,0.143C101.574,153.711,101.021,151.73,102.33,150.232z
		 M108.445,158.908c-0.008-0.045-0.021-0.086-0.037-0.131c-0.479-1.691-0.773-3.393,0.096-5.027c1.491-2.803,4.61,0.205,5.426,2.043
		c-1.664,1.012-2,2.979-1.873,4.918c-1.016-1.012-2.298-1.773-3.55-1.588C108.485,159.053,108.466,158.98,108.445,158.908z
		 M109.234,151.215c-0.094-0.131-0.191-0.258-0.288-0.383c-0.868-1.588-1.288-3.395,0.036-4.908
		c1.597-1.824,4.344,1.145,5.424,2.299c0.003,0.002,0.006,0.008,0.009,0.012c-0.934,1.059-1.255,2.633-1.186,4.174
		C112.064,151.354,110.627,150.701,109.234,151.215z M115.33,155.258c0.012-0.1,0-0.207-0.047-0.33
		c-0.59-1.51-0.643-3.293-0.242-4.857c0.357-1.396,1.707-1.604,2.865-1.1c1.166,0.508,1.734,1.582,2.074,2.736
		c-1.741,0.869-1.918,2.898-1.665,4.803c-0.827-0.824-1.813-1.373-2.972-1.225C115.34,155.275,115.334,155.268,115.33,155.258z
		 M115.618,147.35c-0.028-0.047-0.045-0.096-0.088-0.141c-0.011-0.012-0.022-0.023-0.032-0.035
		c-1.186-1.516-1.811-5.982,0.781-6.215c2.521-0.227,4.238,1.527,5.59,3.354c0.021,0.074,0.043,0.148,0.063,0.219
		c0.017,0.059,0.051,0.096,0.077,0.145c-1.648,0.441-2.289,2.025-2.391,3.695C118.527,147.297,117.104,146.688,115.618,147.35z
		 M122.248,146.205c0.846-0.525,2.078,0.008,2.836,0.428c1.056,0.586,1.629,1.678,2.241,2.678c-1.456,0.934-1.894,2.594-1.856,4.305
		c-1.076-1.238-2.449-2.232-3.938-2.25C121.002,149.848,120.646,147.203,122.248,146.205z M123.83,144.559
		c-0.021-0.076-0.043-0.148-0.096-0.227c-0.168-0.24-0.33-0.475-0.49-0.701c-0.553-1.889-1.207-4.602,0.246-6.053
		c1.156-1.156,2.916,1.426,3.992,3.135c0.103,0.271,0.209,0.521,0.316,0.752c-1.265,0.838-1.429,2.734-1.214,4.525
		C125.797,145.25,124.891,144.709,123.83,144.559z M128.734,148.648c-0.36-1.074-0.623-2.16-0.695-3.293
		c-0.048-0.756-0.033-2.744,1.05-2.791c1.603-0.072,3.226,2.404,3.997,3.787c-0.079,0.031-0.15,0.043-0.23,0.078
		c-1.27,0.564-1.603,1.967-1.496,3.477c-0.758-0.715-1.628-1.186-2.582-1.121c-0.01-0.018-0.021-0.035-0.033-0.051
		C128.737,148.703,128.745,148.68,128.734,148.648z M129.443,141.057c-0.025-0.051-0.039-0.104-0.077-0.154
		c-0.149-0.191-0.305-0.418-0.465-0.658c-0.364-0.873-0.595-1.785-0.621-2.746c-0.03-1.049,0.583-2.76,1.894-2.133
		c1.646,0.783,2.649,2.869,3.522,4.473c0.014,0.055,0.03,0.111,0.044,0.164c0.012,0.051,0.041,0.084,0.061,0.129
		c-0.838,0.742-1.032,1.924-0.98,3.164C131.866,142.152,130.688,141.174,129.443,141.057z M135.102,141.088
		c0.695-0.514,1.702,0.125,2.278,0.521c0.868,0.594,1.507,1.553,1.942,2.516c-1.17,0.912-1.59,2.502-1.477,4.057
		c-0.914-1.033-1.91-1.914-3.152-2.057C134.455,144.564,133.627,142.178,135.102,141.088z M135.213,139.465
		c-0.038-0.07-0.082-0.15-0.123-0.225c-0.487-1.551-1.61-3.518-0.787-5c0.531-0.957,2.023-0.105,2.634,0.268
		c0.706,0.43,1.19,1.014,1.641,1.652c0.104,0.188,0.212,0.371,0.331,0.541c0.033,0.047,0.076,0.074,0.115,0.111
		c0.035,0.051,0.071,0.105,0.108,0.158c0.015,0.023,0.037,0.035,0.055,0.055c-0.017,0.02-0.032,0.035-0.05,0.055
		c-0.669,0.846-0.984,2.016-0.984,3.195C137.289,139.625,136.291,139.26,135.213,139.465z M140.572,143.314
		c0.014-0.139-0.01-0.285-0.121-0.439c-0.891-1.23-1.008-3.102-0.371-4.475c0.94-2.025,3.071,0.389,4.078,1.613
		c-1.148,1.127-1.104,2.75-0.67,4.314c-0.896-0.566-1.873-0.92-2.807-0.797C140.648,143.459,140.61,143.387,140.572,143.314z
		 M140.41,136.17c-0.115-0.17-0.246-0.354-0.385-0.541c-0.785-1.332-1.068-3.156-0.418-4.572c0.566-1.23,1.977-1.049,2.961-0.533
		c0.996,0.523,1.494,1.639,2.196,2.469c0.047,0.057,0.099,0.094,0.149,0.127c0.042,0.066,0.084,0.127,0.141,0.176
		c-0.939,1.023-1.313,2.641-1.271,4.17C142.748,136.553,141.532,135.85,140.41,136.17z M145.828,134.893
		c1.109-2.43,3.248-0.082,4.002,1.369c-1.022,1.01-1.029,2.725-0.805,4.305c-0.998-0.973-2.172-1.68-3.432-1.369
		C145.15,137.813,145.223,136.213,145.828,134.893z M146.242,132.473c-0.581-1.551-1.639-3.193-1.146-4.885
		c0.408-1.4,1.747-1.943,3.014-1.35c1.104,0.518,1.803,1.65,2.345,2.707c-1.159,1.018-1.456,2.553-1.339,4.113
		C148.246,132.41,147.242,132.098,146.242,132.473z M151.814,129.824c1.961-1.328,2.992,0.934,3.775,2.461
		c-1.381,1.17-1.396,3.189-1.098,5.057c-0.988-1.025-2.059-1.998-3.324-1.779C150.576,133.713,149.904,131.117,151.814,129.824z
		 M149.939,125.799c-1.025-0.979-2.275-1.654-3.539-1.369c-0.014-0.148-0.058-0.297-0.174-0.434
		c-0.955-1.117-1.411-4.439,0.307-5.121c2.043-0.811,3.861,1.871,4.832,3.211C150.276,123.018,149.907,124.383,149.939,125.799z
		 M136.95,100.103c1.192-0.394,2.511,1.43,3.346,2.342c-1.095,0.859-1.202,2.146-1.032,3.449c-1.103-0.813-2.404-1.293-3.721-1.09
		C135.434,103.16,135.1,100.716,136.95,100.103z M130.141,98.423c1.617-1.073,3.502,0.147,4.645,1.348
		c-0.686,1.001-0.796,2.475-0.782,3.801c-1.141-1.111-2.79-1.648-4.372-1.291C129.155,100.9,128.641,99.417,130.141,98.423z
		 M124.843,97.543c1.04-0.664,2.396,0.12,3.22,0.802c-0.488,0.89-0.454,1.991-0.227,3.067c-1.037-0.88-2.445-1.27-3.785-0.891
		C123.836,99.453,123.828,98.191,124.843,97.543z M121.373,94.801c0.947,0.174,1.763,0.881,2.326,1.672
		c-0.854,0.637-1.197,1.67-1.25,2.733c-1.037-0.808-2.273-1.319-3.554-0.992c0.017-0.088,0.029-0.178,0.015-0.279
		C118.688,96.416,119.607,94.475,121.373,94.801z M114.814,93.663c1.119-0.416,2.281,0.828,3.039,1.469
		c0.031,0.024,0.064,0.032,0.096,0.054c-0.283,0.552-0.464,1.174-0.529,1.808c-1.072-0.894-2.496-1.363-3.839-0.917
		C113.636,95.103,113.814,94.035,114.814,93.663z M107.433,96.236c1.153-1.354,3.3-0.344,4.651,0.646
		c0.014,0.047,0.029,0.091,0.053,0.132c-0.888,0.972-1.063,2.336-1.047,3.708c-1.334-0.871-2.936-1.146-4.472-0.591
		C106.624,98.804,106.559,97.262,107.433,96.236z M111.106,102.691c-1.126,1.189-1.435,3.002-1.408,4.713
		c-1.349-0.996-3.009-1.443-4.591-0.643c-0.035-1.547-0.114-3.229,0.914-4.479C107.437,100.565,109.774,101.363,111.106,102.691z
		 M99.64,100.64c1.342-2.656,3.926-1.251,5.531,0.325c-1.327,1.183-1.55,3.076-1.573,4.853c-1.338-1.164-3.065-1.92-4.749-1.258
		C98.803,103.205,99.018,101.869,99.64,100.64z M98.804,106.369c1.41-1.732,3.828,0.445,4.817,1.65
		c-0.77,1.045-1.109,2.414-1.076,3.74c-1.475-1.141-3.072-1.939-5.012-1.199C97.672,109.129,97.88,107.506,98.804,106.369z
		 M92.537,108.027c-0.592-1.432-0.334-3.076,1.031-3.947c1.544-0.986,3.021,0.188,3.747,1.555c0.013,0.023,0.032,0.035,0.046,0.057
		c-0.738,1.016-1.052,2.443-1.22,3.736c-1.077-0.807-2.315-1.322-3.546-1.113C92.589,108.221,92.578,108.125,92.537,108.027z
		 M91.512,110.803c1.103-2.152,3.378-0.6,4.623,0.625c-1.157,1.146-1.277,2.889-1.179,4.566c-1.222-0.926-2.649-1.535-4.02-1.002
		C90.737,113.578,90.855,112.084,91.512,110.803z M95.182,118.215c0.01,0.031,0.014,0.064,0.026,0.092
		c-0.926,1.291-1.09,3.199-0.895,4.881c-1.275-0.895-2.669-1.477-4.194-1.143c-0.184-1.508-0.119-3.064,0.381-4.506
		C91.383,114.996,93.87,116.92,95.182,118.215z M85.671,116.338c0.438-1.711,2.761-1.047,3.868-0.299
		c-0.89,1.172-1.09,2.969-1.041,4.586c-0.751-0.486-1.625-0.654-2.514-0.525C85.671,118.877,85.352,117.588,85.671,116.338z
		 M84.654,126.645c-0.862-1.418-1.361-3.043-0.021-4.336c1.24-1.197,2.983-0.965,3.863,0.465c-1.214,1.025-1.154,2.967-0.833,4.664
		c-0.94-0.578-1.977-0.889-3.005-0.781C84.656,126.654,84.656,126.648,84.654,126.645z M83.157,129.125
		c1.335-2.107,3.829-0.578,5.064,0.725c-0.939,1.15-0.934,3.01-0.676,4.633c-1.335-0.928-2.916-1.449-4.403-0.828
		C82.306,132.221,82.25,130.555,83.157,129.125z M82.579,135.992c1.348-2.557,4.351-0.285,5.622,1.09
		c-0.302,0.621-0.465,1.33-0.504,1.883c-0.052,0.779,0.042,1.523,0.19,2.26c-1.318-0.832-3.005-1.104-4.403-0.438
		c-0.003-0.006-0.003-0.012-0.007-0.02C82.595,139.322,81.703,137.648,82.579,135.992z M86.802,149.848
		c-0.961-0.723-2.112-1.182-3.314-1.299c-0.003-0.012,0-0.021-0.005-0.035c-0.603-1.602-1.349-3.676-0.542-5.314
		c1.159-2.363,4.823-1.092,5.506,0.971c-0.282,0.219-0.549,0.486-0.791,0.826C86.737,146.281,86.566,148.1,86.802,149.848z
		 M89.151,152.58c-0.798-1.648-1.043-3.639-0.717-5.434c0.571-3.146,3.815-2.346,5.352-0.275c0.008,0.012,0.018,0.014,0.027,0.023
		c-1.389,1.4-1.34,3.826-0.612,5.748C91.864,152.125,90.366,151.957,89.151,152.58z M99.584,160.607
		c-0.599-0.4-1.265-0.684-2.055-0.742c-0.694-0.053-1.279,0.143-1.724,0.494c-0.742-1.389-1.579-3.145-0.467-4.523
		c1.352-1.676,3.882-0.131,5.172,0.832C99.635,157.738,99.412,159.178,99.584,160.607z M102.64,164
		c-0.026-0.102-0.075-0.205-0.152-0.301c-0.216-0.268-0.434-0.545-0.652-0.824c-0.772-1.527-1.109-3.402-0.327-4.945
		c0.637-1.254,2.109-1.635,3.333-1.064c0.988,0.463,1.501,1.637,2.163,2.498c0.023,0.084,0.045,0.168,0.07,0.25
		c0.017,0.059,0.051,0.098,0.076,0.146c-1.442,1.195-1.762,3.279-1.49,5.162C104.734,164.352,103.638,163.99,102.64,164z
		 M111.054,170.492c-0.003,0.049,0,0.094,0.004,0.139c-0.681,0.76-0.987,1.885-1.026,3.01c-0.42-0.434-0.872-0.832-1.406-1.115
		c-0.469-0.25-0.91-0.307-1.322-0.24c-0.243-0.572-0.466-1.143-0.556-1.742c0.027-0.074,0.054-0.146,0.057-0.238
		c0.042-1.311,0.679-2.443,2.142-2.203C110.135,168.299,111.134,169.246,111.054,170.492z M109.187,166.619
		c-0.627-0.104-1.185-0.049-1.673,0.123c0.063-0.174,0.075-0.367-0.008-0.572c-0.598-1.473-0.604-3.365,0.18-4.768
		c1.322-2.363,4.102,1.066,4.71,2.322c0.011,0.023,0.027,0.031,0.04,0.053c-1.025,0.852-1.484,2.152-1.57,3.508
		C110.365,166.951,109.791,166.719,109.187,166.619z M117.992,167.24c0.032,0.133,0.094,0.234,0.168,0.318
		c-1.199,0.746-1.773,2.123-1.888,3.563c-0.879-0.885-1.954-1.498-3.233-1.426c-0.145,0.01-0.277,0.031-0.408,0.057
		c-0.404-1.504-0.514-3.367,0.555-4.631c1.31-1.547,3.833,0.061,4.688,1.619C117.912,166.914,117.952,167.084,117.992,167.24z
		 M113.938,163.055c-0.387-1.756-0.938-4.402,0.498-5.816c1.842-1.811,3.697,1.301,4.504,2.691
		c-1.271,0.824-1.561,2.461-1.476,4.098C116.396,163.266,115.097,162.84,113.938,163.055z M123.009,169.469
		c-0.978-1.17-2.185-2.262-3.39-2.334c-0.052-0.367-0.183-0.736-0.366-1.098c-0.408-1.707-0.771-3.924,0.784-4.959
		c0.848-0.563,2.047,0.141,2.753,0.605c1.128,0.746,1.729,1.988,2.46,3.076c0.004,0.006,0.008,0.006,0.011,0.01
		C123.502,165.76,122.995,167.568,123.009,169.469z M120.377,159.432c-0.015-0.033-0.015-0.064-0.033-0.098
		c-0.033-0.057-0.068-0.115-0.103-0.172c0.087-0.146,0.125-0.326,0.067-0.541c-0.414-1.543-1.444-4.889,0.621-5.691
		c2.07-0.805,4.248,2.613,4.945,4c0.049,0.096,0.109,0.162,0.175,0.221c-1.47,0.734-1.653,2.506-1.433,4.242
		C123.484,160.139,122.1,159.195,120.377,159.432z M131.172,162c-1.429,0.855-1.805,2.252-1.787,3.76
		c-0.678-0.869-1.506-1.5-2.551-1.475c-0.007-0.033,0-0.061-0.01-0.094c-0.487-1.576-1.275-3.895-0.35-5.434
		c0.684-1.131,2.252-0.209,2.891,0.416C130.161,159.951,130.695,161.004,131.172,162z M127.51,156.789
		c-0.006-0.049,0.004-0.088-0.012-0.141c-0.523-1.816-1.211-4.73,0.63-6.092c0.913-0.676,2.169,0.389,2.769,0.994
		c0.76,0.768,1.251,1.838,1.702,2.84c-1.472,0.783-1.749,2.541-1.704,4.281C129.992,157.564,128.855,156.746,127.51,156.789z
		 M138.676,158.768c-0.048,0.035-0.096,0.064-0.145,0.102c-1.317,1.029-1.664,3.102-1.649,4.926
		c-1.189-1.211-2.698-2.344-4.249-2.266c-0.173-1.916-1.162-5.229,1.343-6.018c1.894-0.594,3.974,1.781,4.69,3.242
		C138.668,158.76,138.674,158.762,138.676,158.768z M137.699,155.215c-1.044-0.805-2.287-1.305-3.58-1.225
		c0.005-0.127-0.015-0.26-0.097-0.396c-0.725-1.223-2.042-4.869-0.421-5.846c1.855-1.121,3.793,2.23,4.915,3.498
		c-0.54,0.604-0.655,1.582-0.78,2.357C137.649,154.15,137.646,154.686,137.699,155.215z M143.608,159.744
		c-1.067-0.912-2.309-1.662-3.569-1.516c-0.012-0.074-0.021-0.146-0.058-0.223c-0.004-0.006-0.008-0.012-0.011-0.02
		c-0.004-0.012-0.001-0.021-0.006-0.033c-0.667-1.822-0.988-3.451-0.515-5.373c0.269-1.096,2.364,0.133,2.794,0.377
		c0.804,0.459,1.305,1.127,1.807,1.865C142.735,156.105,143.221,157.994,143.608,159.744z M143.396,151.934
		c-0.951-0.77-2.059-1.303-3.254-1.279c-0.005-0.111-0.033-0.227-0.105-0.346c-0.747-1.217-1.299-4.48,0.489-5.15
		c1.407-0.531,3.134,0.98,4.101,2.131c-0.027,0.021-0.058,0.033-0.086,0.055C143.309,148.336,143.127,150.213,143.396,151.934z
		 M149.08,152.742c-0.061,0.58-0.02,1.141,0.086,1.688c-1.115-0.629-2.365-0.889-3.613-0.48c-0.014-0.047-0.014-0.092-0.039-0.141
		c-0.716-1.443-0.986-3.461-0.244-4.949c0.934-1.875,3.541,0.531,4.627,1.881C149.43,151.305,149.152,152.063,149.08,152.742z
		 M149.087,147.793c-0.934-0.682-1.981-1.135-2.987-1.063c-0.053-0.068-0.113-0.139-0.17-0.209
		c-0.011-0.035-0.009-0.068-0.025-0.105c-0.655-1.434-2.117-4.299-0.456-5.549c1.435-1.08,3.086,1.244,3.956,2.412
		c-0.431,0.518-0.67,1.211-0.729,1.869C148.591,146.109,148.801,146.957,149.087,147.793z M154.754,151.152
		c-1.016-0.797-2.162-1.422-3.341-1.252c-0.341-1.266-2.692-5.836-0.095-5.963c1.809-0.09,3.299,1.99,4.428,3.414
		C154.502,148.164,154.461,149.705,154.754,151.152z M155.102,144.357c-1.199-1.207-2.613-2.154-4.209-1.871
		c0-0.037,0.009-0.072,0.001-0.111c-0.21-1.066-1.272-5.213,0.594-5.283c0.846-0.033,1.679,1.023,2.202,1.566
		c0.529,0.549,1.049,1.129,1.684,1.563C154.82,141.389,154.801,142.928,155.102,144.357z M161.33,142.791
		c-1.535,0.957-1.611,2.98-1.402,4.797c-0.66-0.396-1.404-0.652-2.146-0.711c-0.021-0.084-0.055-0.172-0.119-0.26
		c-1.061-1.453-1.125-3.162-1.113-4.9c0.023-3.365,3.48-0.695,4.057-0.195c0.369,0.322,0.693,0.723,1.016,1.113
		C161.523,142.682,161.426,142.73,161.33,142.791z M161.168,136.473c-0.24,1.09-0.205,2.4-0.029,3.602
		c-1.443-1.242-3.227-2.215-4.766-1.096c-0.426-1.707-1.104-3.99,0.119-5.459C158.035,131.666,160.414,135.338,161.168,136.473z
		 M156.885,125.729c0.027,0.041,0.064,0.061,0.096,0.094c-1.068,0.916-1.359,2.209-1.42,3.586c-0.902-1.135-2.051-1.822-3.689-1.262
		c-0.479-1.496-0.723-3.057,0.092-4.504C153.396,121.098,156.094,124.561,156.885,125.729z M151.66,119.961
		c-0.568-0.723-1.188-1.371-2.047-1.9c-0.813-0.498-1.979-0.904-3.008-0.77c-0.006-0.064-0.023-0.131-0.049-0.199
		c-0.382-1.992-0.848-4.422,1.093-5.74c0.933-0.633,1.96-0.123,2.866,0.73c0.056,0.057,0.113,0.113,0.176,0.166
		c0.934,0.938,1.717,2.199,2.102,2.879C151.975,116.398,151.617,118.344,151.66,119.961z"/>
	<path fill="#5C467D" d="M59.945,115.352c-0.164-0.18-0.475-0.133-0.595,0.072c-0.509,0.871,0.022,1.789,0.174,2.682
		c0.055,0.332,0.421,0.34,0.616,0.154c0.177-0.01,0.334-0.121,0.317-0.35C60.386,117.008,60.612,116.082,59.945,115.352z"/>
	<path fill="#5C467D" d="M64.212,117.459c-0.562-0.381-1.034,0.438-1.039,0.889c-0.006,0.633,0.378,1.246,0.699,1.783
		c-0.002,0.012-0.003,0.029-0.006,0.041c-0.109,0.475,0.618,0.688,0.727,0.211c0.009-0.041,0.008-0.086,0.015-0.129
		c0.05-0.078,0.064-0.172,0.034-0.273c0.037-0.361,0.046-0.729,0.036-1.078C64.663,118.426,64.649,117.758,64.212,117.459z"/>
	<path fill="#5C467D" d="M62.016,124.75c-0.719,0.576-0.452,1.527,0.011,2.176c0.16,0.225,0.444,0.195,0.605,0.059
		c0.168-0.016,0.314-0.127,0.291-0.346c-0.064-0.615-0.023-1.24-0.313-1.807C62.49,124.598,62.197,124.604,62.016,124.75z"/>
	<path fill="#5C467D" d="M63.108,108.857c-0.614-0.238-1.06,0.414-1.114,0.932c-0.073,0.707,0.279,1.416,0.457,2.08
		c0.033,0.121,0.104,0.197,0.19,0.238c0.176,0.211,0.64,0.137,0.69-0.232c-0.012,0.088,0.024-0.129,0.03-0.158
		c0.027-0.145,0.054-0.285,0.08-0.43c0.059-0.324,0.107-0.652,0.138-0.982C63.624,109.828,63.655,109.068,63.108,108.857z"/>
	<path fill="#5C467D" d="M39.629,107.26c-0.244,0.125-0.492,0.18-0.767,0.172c-0.489-0.01-0.503,0.748-0.016,0.758
		c0.409,0.012,0.793-0.084,1.157-0.271C40.437,107.695,40.063,107.035,39.629,107.26z"/>
	<path fill="#5C467D" d="M45.384,104.352c-0.373,0.299-0.721,0.621-1.209,0.705c-0.481,0.082-0.292,0.814,0.186,0.732
		c0.62-0.107,1.079-0.516,1.554-0.898C46.294,104.584,45.762,104.049,45.384,104.352z"/>
	<path fill="#5C467D" d="M50.75,100.867c-0.877-0.097-1.892,0.119-1.831,1.208c0.011,0.186,0.153,0.41,0.371,0.387
		c0.629-0.066,1.189-0.369,1.598-0.854C51.214,101.502,51.172,100.913,50.75,100.867z"/>
	<path fill="#5C467D" d="M50.023,105.139c-0.656,0.162-1.281,0.254-1.67,0.889c-0.132,0.217-0.008,0.479,0.219,0.557
		c0.857,0.299,1.509-0.242,1.982-0.893c0.011-0.016,0.026-0.027,0.033-0.045c0.028-0.039,0.057-0.078,0.083-0.117
		C50.943,105.125,50.294,104.738,50.023,105.139z"/>
	<path fill="#5C467D" d="M44.11,109.191c-0.057,0.025-0.122,0.055-0.191,0.088c-0.647-0.037-1.274-0.287-1.879,0.107
		c-0.183,0.119-0.289,0.432-0.084,0.594c0.637,0.502,1.397,0.33,2.093,0.053c0.05,0.002,0.101,0.004,0.15,0.002
		c0.151-0.012,0.254-0.1,0.312-0.205C44.901,109.611,44.54,108.996,44.11,109.191z"/>
	<path fill="#5C467D" d="M49.359,109.314c-0.05-0.002-0.102-0.002-0.152-0.004c-0.021-0.002-0.039-0.002-0.06,0
		c-0.596,0-1.227,0.129-1.625,0.6c-0.182,0.215-0.129,0.543,0.159,0.633c0.622,0.195,1.237-0.01,1.67-0.473
		C49.83,110.082,49.841,109.336,49.359,109.314z"/>
	<path fill="#5C467D" d="M56.054,104.828c-0.129,0.18-0.293,0.283-0.479,0.393c-0.42,0.246-0.05,0.904,0.373,0.658
		c0.306-0.18,0.547-0.373,0.755-0.662C56.989,104.822,56.338,104.438,56.054,104.828z"/>
	<path fill="#5C467D" d="M54.831,100.376c-0.231,0.235-0.439,0.49-0.67,0.725c-0.343,0.346,0.186,0.889,0.53,0.539
		c0.231-0.232,0.438-0.49,0.67-0.725C55.703,100.57,55.175,100.029,54.831,100.376z"/>
	<path fill="#5C467D" d="M54.004,96.683c-0.069,0.215-0.19,0.356-0.348,0.514c-0.347,0.343,0.183,0.884,0.53,0.54
		c0.251-0.248,0.438-0.505,0.544-0.843C54.876,96.427,54.149,96.218,54.004,96.683z"/>
	<path fill="#5C467D" d="M35.972,107.613c-0.599-0.627-1.529-1.045-2.248-0.352c-0.179,0.17-0.134,0.465,0.07,0.592
		c0.514,0.322,1.082,0.438,1.676,0.316C35.808,108.449,36.299,107.953,35.972,107.613z"/>
	<path fill="#5C467D" d="M37.703,110.303c-0.597-0.469-1.458-0.861-2.076-0.201c-0.203,0.219-0.109,0.533,0.159,0.635
		c0.45,0.168,0.93,0.307,1.414,0.258c0.079-0.01,0.141-0.041,0.195-0.08C37.718,110.928,38.012,110.545,37.703,110.303z"/>
	<path fill="#5C467D" d="M59.138,100.534c-0.41,0.47-1.383,1.845-0.333,2.21c0.73,0.254,0.943-1.219,0.979-1.654
		c0.005-0.072-0.009-0.129-0.032-0.179C59.836,100.573,59.413,100.217,59.138,100.534z"/>
	<path fill="#5C467D" d="M58.943,96.038c-0.108-0.107-0.269-0.161-0.442-0.08c-0.574,0.268-1.712,1.232-0.837,1.841
		c0.619,0.43,1.216-0.871,1.431-1.245C59.217,96.336,59.11,96.132,58.943,96.038z"/>
	<path fill="#5C467D" d="M56.734,109.752c-0.147-0.203-0.47-0.275-0.612,0.01c-0.313,0.635-0.338,1.313-0.044,1.957
		c0.068,0.152,0.268,0.215,0.421,0.18c0.896-0.211,0.609-1.41,0.345-2.01C56.816,109.826,56.777,109.783,56.734,109.752z"/>
	<path fill="#5C467D" d="M57.033,121.35c0.008,0.025,0.02,0.061,0.029,0.09c-0.001,0.008-0.007,0.01-0.007,0.018
		c-0.124,0.752-0.393,1.488,0.061,2.186c0.13,0.201,0.415,0.266,0.594,0.084c0.656-0.67,0.292-1.789,0.056-2.564
		C57.625,120.699,56.89,120.881,57.033,121.35z"/>
	<path fill="#5C467D" d="M61.265,104.434c-0.213,0.438-0.46,0.967-0.361,1.453c0.07,0.354,0.471,0.875,0.881,0.596
		c0.313-0.213,0.316-0.67,0.323-1.012c0.008-0.342,0.014-0.754-0.094-1.084C61.88,103.975,61.285,104.078,61.265,104.434z"/>
	<path fill="#5C467D" d="M58.226,131.078c0.022,0.232,0.066,0.451,0.13,0.676c0.133,0.469,0.868,0.285,0.733-0.184
		c-0.043-0.156-0.091-0.314-0.107-0.477C58.935,130.615,58.177,130.594,58.226,131.078z"/>
	<path fill="#5C467D" d="M58.948,126.303c-0.004,0.287-0.004,0.57,0.011,0.854c0.025,0.486,0.781,0.504,0.756,0.018
		c-0.015-0.285-0.015-0.568-0.012-0.852C59.712,125.832,58.955,125.816,58.948,126.303z"/>
	<path fill="#5C467D" d="M62.492,132.053c-0.078-0.096-0.171-0.133-0.261-0.127c-0.224-0.191-0.648-0.113-0.624,0.254
		c0.047,0.711,0.17,1.816,1.04,1.969c0.183,0.035,0.432-0.039,0.468-0.258C63.238,133.15,62.952,132.615,62.492,132.053z"/>
	<path fill="#5C467D" d="M67.021,125.486c-0.028,0.475-0.058,0.98,0.08,1.439c0.104,0.35,0.563,0.768,0.939,0.506
		c0.56-0.391-0.015-1.498-0.26-1.939c-0.001-0.002-0.004-0.004-0.006-0.008C67.782,125.018,67.051,125.01,67.021,125.486z"/>
	<path fill="#5C467D" d="M63.303,139.004c-0.157-0.186-0.367-0.146-0.503-0.018c-0.155,0.027-0.284,0.137-0.267,0.344
		c0.039,0.488,0.155,0.982,0.374,1.422c0.179,0.357,0.75,0.75,1.102,0.352C64.533,140.51,63.694,139.461,63.303,139.004z"/>
	<path fill="#5C467D" d="M68.507,136.301l0.444,0.764c0.245,0.422,0.903,0.049,0.658-0.373l-0.443-0.764
		C68.92,135.506,68.261,135.877,68.507,136.301z"/>
	<path fill="#5C467D" d="M65.786,132.604c0.134,0.422,0.346,0.807,0.524,1.211c0.196,0.445,0.853,0.068,0.658-0.375
		c-0.149-0.34-0.335-0.664-0.449-1.021C66.371,131.957,65.637,132.139,65.786,132.604z"/>
	<path fill="#5C467D" d="M70.363,119.945c0.027,0.332,0.08,0.65,0.19,0.965c0.161,0.457,0.896,0.275,0.734-0.184
		c-0.088-0.25-0.146-0.5-0.168-0.764C71.08,119.48,70.323,119.461,70.363,119.945z"/>
	<path fill="#5C467D" d="M67.725,112.307c-1.201,0.455,0.195,2.154,0.793,2.535c0.152,0.098,0.299,0.07,0.405-0.018
		c0.192,0.01,0.374-0.105,0.352-0.352C69.216,113.807,68.721,111.93,67.725,112.307z"/>
	<path fill="#5C467D" d="M67.13,107.146c0.109,0.385,0.222,0.762,0.373,1.135c0.183,0.449,0.838,0.072,0.658-0.373
		c-0.125-0.309-0.207-0.629-0.299-0.949C67.729,106.492,66.996,106.676,67.13,107.146z"/>
	<path fill="#5C467D" d="M66.269,99.729c-0.192-0.09-0.447-0.045-0.511,0.222c-0.168,0.695-0.261,2.948,1.041,2.53
		c0.999-0.32,0.086-1.897-0.081-2.49C66.655,99.763,66.449,99.691,66.269,99.729z"/>
	<path fill="#5C467D" d="M63.597,97.369c-0.037,0.307-0.024,0.61-0.005,0.917c0.03,0.485,0.786,0.505,0.757,0.018
		c-0.019-0.309-0.032-0.61,0.004-0.917C64.411,96.9,63.653,96.89,63.597,97.369z"/>
	<path fill="#5C467D" d="M71.104,102.15c0.011,0.449,0.039,0.898,0.085,1.348c0.049,0.479,0.806,0.502,0.756,0.018
		c-0.046-0.449-0.074-0.898-0.084-1.35C71.849,101.68,71.093,101.662,71.104,102.15z"/>
	<path fill="#5C467D" d="M76.243,113.111c-1.262,0.488-0.029,2.15,0.536,2.691c0.199,0.193,0.457,0.102,0.58-0.074
		c0.13-0.051,0.233-0.172,0.246-0.34C77.662,114.635,77.456,112.643,76.243,113.111z"/>
	<path fill="#5C467D" d="M75.382,106.627c-0.399,0.746,0.445,1.885,0.876,2.461c0.288,0.385,0.951,0.018,0.658-0.373
		c-0.003-0.008-0.007-0.012-0.012-0.018c0.09-0.08,0.144-0.197,0.105-0.35c-0.139-0.547-0.137-1.127-0.435-1.625
		C76.339,106.328,75.642,106.139,75.382,106.627z"/>
	<path fill="#5C467D" d="M72.142,111.332c0.082,0.412,0.233,0.787,0.478,1.129c0.28,0.393,0.942,0.025,0.658-0.373
		c-0.209-0.293-0.333-0.59-0.402-0.941C72.781,110.668,72.048,110.855,72.142,111.332z"/>
	<path fill="#5C467D" d="M77.237,97.856c0.006,0.306,0.008,0.611,0.015,0.918c0.01,0.486,0.766,0.504,0.757,0.017
		c-0.008-0.307-0.008-0.612-0.016-0.918C77.982,97.385,77.226,97.368,77.237,97.856z"/>
	<path fill="#5C467D" d="M79.671,102.328c0.036,0.338,0.126,0.633,0.265,0.941c0.198,0.445,0.855,0.07,0.658-0.373
		c-0.079-0.176-0.146-0.357-0.166-0.553C80.375,101.867,79.619,101.844,79.671,102.328z"/>
	<path fill="#5C467D" d="M82.589,106.938c-0.121,0.16-0.191,0.188-0.295,0.014c-0.249-0.418-0.909-0.047-0.658,0.373
		c0.418,0.701,1.148,0.602,1.604,0.002C83.534,106.938,82.881,106.551,82.589,106.938z"/>
	<path fill="#5C467D" d="M84.146,97.873c-0.482,0.367,0.175,1.566,0.418,1.92c0.112,0.162,0.288,0.192,0.438,0.149
		c0.218-0.013,0.421-0.18,0.331-0.445c-0.148-0.435-0.056-0.92-0.248-1.348C84.917,97.772,84.484,97.617,84.146,97.873z"/>
	<path fill="#5C467D" d="M81.327,95.373c0.005,0.42,0.058,0.817,0.248,1.196c0.22,0.435,0.878,0.061,0.658-0.375
		c-0.127-0.254-0.146-0.525-0.149-0.805C82.077,94.903,81.32,94.885,81.327,95.373z"/>
	<path fill="#5C467D" d="M85.675,103.264c-0.23-0.277-0.886-0.555-1.112-0.1c-0.31,0.619,0.528,1.436,0.9,1.859
		c0.128,0.146,0.291,0.146,0.42,0.074c0.157-0.029,0.297-0.139,0.3-0.348C86.192,104.25,85.995,103.648,85.675,103.264z"/>
	<path fill="#5C467D" d="M86.717,92.735c-0.21,0.32-0.028,0.817,0.089,1.138c0.133,0.363,0.292,0.733,0.527,1.045
		c0.221,0.292,0.578,0.063,0.62-0.231c0.076-0.081,0.122-0.19,0.089-0.332c-0.119-0.513,0.077-1.052-0.203-1.54
		C87.608,92.41,86.979,92.336,86.717,92.735z"/>
	<path fill="#5C467D" d="M89.844,98.719c-0.099-0.102-0.166-0.196-0.229-0.325c-0.213-0.439-0.87-0.063-0.659,0.373
		c0.089,0.185,0.206,0.335,0.349,0.483C89.643,99.6,90.184,99.072,89.844,98.719z"/>
	<path fill="#5C467D" d="M93.059,92.655c-0.297-0.159-0.809-0.237-0.93,0.191c-0.147,0.519,0.436,1.22,0.77,1.564
		c0.27,0.279,0.662-0.001,0.64-0.305c0.034-0.052,0.058-0.115,0.056-0.197C93.583,93.5,93.458,92.872,93.059,92.655z"/>
	<path fill="#5C467D" d="M94.652,88.979c-0.322-0.366-0.861,0.165-0.54,0.53c0.102,0.116,0.175,0.234,0.253,0.367
		c0.247,0.419,0.906,0.048,0.658-0.374C94.914,89.315,94.796,89.143,94.652,88.979z"/>
	<path fill="#5C467D" d="M96.208,93.677c0.083,0.273,0.188,0.501,0.365,0.726c0.3,0.384,0.837-0.15,0.539-0.53
		c-0.089-0.114-0.128-0.244-0.17-0.381C96.802,93.027,96.067,93.208,96.208,93.677z"/>
	<path fill="#5C467D" d="M100.399,89.123c-0.266-0.346-0.803-0.437-1.077-0.052c-0.226,0.32,0.064,0.821,0.223,1.101
		c0.173,0.305,0.379,0.605,0.608,0.871c0.199,0.233,0.486,0.109,0.594-0.106c0.099-0.081,0.167-0.203,0.141-0.362
		C100.809,90.082,100.709,89.525,100.399,89.123z"/>
	<path fill="#5C467D" d="M99.861,86.5c-0.159-0.17-0.275-0.358-0.393-0.559c-0.245-0.421-0.905-0.049-0.657,0.373
		c0.149,0.256,0.306,0.499,0.509,0.715C99.654,87.386,100.195,86.857,99.861,86.5z"/>
	<path fill="#5C467D" d="M106.438,87.843c-0.249-0.218-0.506-0.429-0.726-0.68c-0.321-0.367-0.86,0.164-0.539,0.53
		c0.22,0.251,0.476,0.461,0.726,0.681C106.264,88.693,106.807,88.167,106.438,87.843z"/>
	<path fill="#5C467D" d="M107.289,82.667c-0.459-0.376-0.958-1.574-1.721-1.179c-0.435,0.226-0.367,0.799-0.12,1.125
		c0.268,0.352,0.708,0.639,1.129,0.768c0.159,0.049,0.284-0.008,0.366-0.104C107.277,83.327,107.604,82.923,107.289,82.667z"/>
	<path fill="#5C467D" d="M111.178,86.138c-0.32-0.368-0.859,0.163-0.539,0.529c0.127,0.146,0.221,0.311,0.317,0.476
		c0.245,0.421,0.905,0.049,0.658-0.373C111.484,86.547,111.35,86.333,111.178,86.138z"/>
	<path fill="#5C467D" d="M111.365,81.408c-0.213-0.105-0.414-0.001-0.514,0.155c-0.131,0.104-0.205,0.278-0.109,0.469
		c0.342,0.675,1.257,1.607,2.098,1.356c0.178-0.053,0.352-0.262,0.273-0.459C112.795,82.122,112.109,81.77,111.365,81.408z"/>
	<path fill="#5C467D" d="M112.836,76.425c-0.482,0.03-0.502,0.787-0.016,0.756c0.297-0.019,0.479,0.117,0.662,0.341
		c0.31,0.377,0.848-0.155,0.541-0.529C113.729,76.631,113.313,76.394,112.836,76.425z"/>
	<path fill="#5C467D" d="M119.479,81.955c-0.347-0.399-1.017-0.593-1.507-0.728c-0.251-0.069-0.424,0.105-0.463,0.303
		c-0.051,0.121-0.045,0.267,0.07,0.392c0.309,0.335,0.539,0.73,0.875,1.043c0.337,0.311,0.922,0.53,1.316,0.173
		C120.191,82.757,119.747,82.262,119.479,81.955z"/>
	<path fill="#5C467D" d="M125.501,87.079c-0.198-0.156-0.392-0.313-0.564-0.498c-0.334-0.354-0.875,0.174-0.54,0.53
		c0.172,0.185,0.365,0.343,0.564,0.499C125.339,87.907,125.885,87.38,125.501,87.079z"/>
	<path fill="#5C467D" d="M118.574,87.083c-0.189-0.124-0.376-0.251-0.557-0.391c-0.389-0.296-0.771,0.357-0.389,0.65
		c0.18,0.138,0.369,0.266,0.559,0.392C118.596,88.003,118.982,87.352,118.574,87.083z"/>
	<path fill="#5C467D" d="M122.631,73.763c-0.404-0.256-0.846-0.441-1.316-0.538c-0.475-0.1-0.688,0.628-0.209,0.726
		c0.412,0.085,0.783,0.238,1.138,0.462C122.656,74.672,123.045,74.024,122.631,73.763z"/>
	<path fill="#5C467D" d="M121.89,67.492c-0.565-0.261-1.228-0.24-1.837-0.273c-0.002,0-0.003,0.002-0.006,0
		c-0.314-0.201-0.81,0.125-0.549,0.473c0.25,0.335,0.738,0.519,1.107,0.683c0.424,0.189,1.018,0.48,1.482,0.275
		C122.664,68.395,122.303,67.682,121.89,67.492z"/>
	<path fill="#5C467D" d="M128.477,71.986c-0.492-0.161-0.991-0.295-1.498-0.397c-0.476-0.096-0.688,0.632-0.211,0.728
		c0.508,0.102,1.006,0.235,1.498,0.396C128.73,72.868,128.938,72.14,128.477,71.986z"/>
	<path fill="#5C467D" d="M128.809,80.075c-0.415-0.28-0.958-0.314-1.352-0.635c-0.283-0.229-0.663,0.017-0.666,0.282
		c-0.105,0.134-0.131,0.318,0.033,0.467c0.676,0.615,1.287,1.508,2.293,1.523c0.189,0.003,0.404-0.163,0.387-0.37
		C129.457,80.798,129.268,80.388,128.809,80.075z"/>
	<path fill="#5C467D" d="M137.715,77.686c-0.563-0.495-1.34-0.463-2.034-0.358c-0.179,0.027-0.265,0.163-0.274,0.313
		c-0.124,0.163-0.135,0.407,0.097,0.533c0.468,0.253,0.821,0.706,1.261,1.008c0.406,0.278,1.111,0.389,1.416-0.113
		C138.471,78.583,138.082,78.008,137.715,77.686z"/>
	<path fill="#5C467D" d="M134.494,87.282c-0.027-0.004-0.051,0.001-0.076-0.001c-0.288-0.253-0.813,0.08-0.578,0.459
		c0.476,0.765,1.507,1.631,2.459,1.595c0.189-0.007,0.403-0.154,0.387-0.368C136.595,87.767,135.491,87.498,134.494,87.282z"/>
	<path fill="#5C467D" d="M125.126,59.818c-0.548,0.144-1.105,0.102-1.666,0.076c-0.488-0.021-0.503,0.737-0.017,0.758
		c0.629,0.026,1.253,0.061,1.867-0.102C125.783,60.428,125.598,59.694,125.126,59.818z"/>
	<path fill="#5C467D" d="M129.322,64.765c-0.222,0.067-0.43,0.098-0.662,0.1c-0.486,0.005-0.504,0.761-0.016,0.757
		c0.295-0.003,0.58-0.037,0.861-0.123C129.972,65.356,129.789,64.622,129.322,64.765z"/>
	<path fill="#5C467D" d="M136.467,55.914c-0.327,0.628-0.728,1.2-1.439,1.405c-0.469,0.133-0.285,0.868,0.184,0.733
		c0.91-0.26,1.48-0.938,1.906-1.75C137.344,55.872,136.695,55.48,136.467,55.914z"/>
	<path fill="#5C467D" d="M135.436,61.252c-0.196,0.285-0.417,0.496-0.73,0.646c-0.441,0.208-0.066,0.866,0.373,0.658
		c0.43-0.203,0.74-0.529,1.007-0.915C136.361,61.238,135.712,60.854,135.436,61.252z"/>
	<path fill="#5C467D" d="M141.297,50.532c-0.11,0.36-0.332,0.644-0.603,0.903c-0.354,0.336,0.177,0.877,0.53,0.54
		c0.362-0.348,0.652-0.75,0.799-1.235C142.166,50.273,141.439,50.064,141.297,50.532z"/>
	<path fill="#5C467D" d="M141.188,55.94c-0.031,0.174-0.082,0.297-0.232,0.401c-0.4,0.271-0.031,0.932,0.372,0.656
		c0.308-0.208,0.519-0.475,0.587-0.848C142.002,55.675,141.274,55.46,141.188,55.94z"/>
	<path fill="#5C467D" d="M133.949,67.529c-0.168,0.156-0.305,0.176-0.515,0.091c-0.453-0.183-0.659,0.546-0.211,0.727
		c0.458,0.186,0.903,0.049,1.257-0.276C134.838,67.74,134.309,67.198,133.949,67.529z"/>
	<path fill="#5C467D" d="M140.192,72.487c-0.534,0.236-1.163-0.304-1.597-0.555c-0.422-0.244-0.813,0.404-0.389,0.648
		c0.744,0.433,1.48,0.952,2.359,0.564C141.012,72.949,140.635,72.292,140.192,72.487z"/>
	<path fill="#5C467D" d="M142.196,84.768c-0.569-0.567-1.516-0.643-2.267-0.747c-0.344-0.047-0.492,0.427-0.277,0.644
		c0.051,0.054,0.105,0.102,0.158,0.154c-0.006,0.09,0.016,0.185,0.089,0.271c0.372,0.45,1.878,2.077,2.53,1.325
		C142.85,85.936,142.602,85.17,142.196,84.768z"/>
	<path fill="#5C467D" d="M148.682,81.579c-0.414-0.422-0.871-0.838-1.471-0.955c-0.476-0.092-0.689,0.634-0.21,0.729
		c0.477,0.091,0.812,0.421,1.141,0.758C148.482,82.457,149.023,81.928,148.682,81.579z"/>
	<path fill="#5C467D" d="M142.906,92.029c-0.316,0.075-0.389,0.531-0.102,0.692c0.012,0.007,0.025,0.013,0.037,0.019
		c0.008,0.076,0.035,0.152,0.107,0.22c0.475,0.446,0.813,1.004,1.33,1.41c0.411,0.322,1.234,0.315,1.396-0.287
		C146.061,92.668,144.021,91.768,142.906,92.029z"/>
	<path fill="#5C467D" d="M151.154,89.926c-0.15-0.158-0.316-0.295-0.486-0.43c-0.379-0.297-0.924,0.229-0.541,0.53
		c0.092,0.072,0.176,0.155,0.264,0.232c0.029,0.045,0.068,0.086,0.125,0.121c0.033,0.024,0.066,0.052,0.1,0.075
		C150.955,90.806,151.492,90.281,151.154,89.926z"/>
	<path fill="#5C467D" d="M151.954,95.408c-0.073-0.404-0.731-0.394-0.742,0.063c-0.03,1.271,0.766,2.583,2.005,2.976
		c0.246,0.077,0.461-0.12,0.482-0.355C153.813,96.869,153.087,95.814,151.954,95.408z"/>
	<path fill="#AB9CA3" d="M70.484,106.715c0.03,0.316,0.107,0.588,0.257,0.869c0.23,0.43,0.888,0.057,0.659-0.373
		c-0.083-0.154-0.142-0.305-0.159-0.48C71.194,106.252,70.436,106.23,70.484,106.715z"/>
	<path fill="#AB9CA3" d="M69.561,98.679c0.042,0.156,0.074,0.299,0.071,0.463c-0.008,0.487,0.749,0.505,0.756,0.017
		c0.002-0.229-0.034-0.444-0.095-0.665C70.165,98.024,69.431,98.207,69.561,98.679z"/>
	<path fill="#8C7894" d="M75.607,102.141c-0.193-0.26-0.551-0.176-0.679,0.023c-0.103,0.057-0.183,0.152-0.186,0.305
		c-0.011,0.547,0.195,0.963,0.724,1.15c0.246,0.086,0.462-0.125,0.484-0.355C75.991,102.846,75.854,102.473,75.607,102.141z"/>
	<path fill="#8C7894" d="M73.321,117.266c-0.102,0.436-0.085,0.854,0.018,1.287c0.111,0.475,0.844,0.289,0.733-0.186
		c-0.07-0.301-0.095-0.588-0.024-0.889C74.158,117.002,73.432,116.791,73.321,117.266z"/>
	<path fill="#8C7894" d="M67.509,120.117c-0.056,0.402-0.055,0.793,0.032,1.189c0.104,0.479,0.837,0.291,0.733-0.184
		c-0.072-0.33-0.055-0.654-0.009-0.988C68.332,119.652,67.574,119.643,67.509,120.117z"/>
	<path fill="#8C7894" d="M52.299,109.486c-0.2,0.117-0.401,0.232-0.618,0.314c-0.451,0.17-0.271,0.904,0.185,0.734
		c0.283-0.105,0.545-0.24,0.807-0.391C53.094,109.9,52.722,109.24,52.299,109.486z"/>
	<path fill="#8C7894" d="M54.666,104.357c-0.062-0.219-0.284-0.385-0.522-0.221c-0.607,0.42-1.236,0.672-1.351,1.482
		c-0.023,0.154,0.122,0.342,0.272,0.371c0.878,0.178,1.497-0.436,1.734-1.238C54.852,104.578,54.782,104.438,54.666,104.357z"/>
	<path fill="#8C7894" d="M56.011,114.719c-0.071,0.027-0.137,0.074-0.181,0.168c-0.282,0.592-0.464,1.238-0.08,1.83
		c0.084,0.133,0.258,0.24,0.422,0.18c0.898-0.324,0.813-1.332,0.551-2.086C56.604,114.463,56.151,114.484,56.011,114.719z"/>
	<path fill="#8C7894" d="M72.551,124.145c0.019,0.061,0.046,0.127,0.076,0.193c-0.014,0.025-0.033,0.049-0.043,0.082
		c-0.2,0.664-0.088,1.418,0.54,1.805c0.16,0.098,0.435,0.055,0.519-0.131c0.357-0.799-0.123-1.389-0.358-2.133
		C73.138,123.496,72.403,123.678,72.551,124.145z"/>
	<path fill="#8C7894" d="M68.288,140.51c-0.186-0.236-0.46-0.123-0.575,0.086c-0.258,0.002-0.515,0.262-0.343,0.551
		c0.208,0.352,0.834,1.488,1.416,1.107C69.413,141.846,68.562,140.852,68.288,140.51z"/>
	<path fill="#8C7894" d="M73.655,133.41c-0.198-0.445-0.855-0.07-0.658,0.373c0.225,0.504,0.42,1.004,0.783,1.43
		c0.317,0.371,0.856-0.158,0.54-0.529C74.007,134.316,73.848,133.846,73.655,133.41z"/>
	<path fill="#8C7894" d="M80.168,110.441c-0.021-0.025-0.043-0.033-0.065-0.051c-0.154-0.326-0.747-0.135-0.696,0.297
		c0.074,0.627,0.245,1.268,0.737,1.697c0.218,0.189,0.535,0.119,0.634-0.16C81.015,111.549,80.596,110.934,80.168,110.441z"/>
	<path fill="#8C7894" d="M102.795,85.258c-0.012-0.042-0.023-0.087-0.033-0.117c-0.146-0.463-0.881-0.281-0.732,0.185
		c0.015,0.052,0.032,0.103,0.048,0.153c-0.013,0.12,0.021,0.242,0.118,0.324c0.18,0.441,0.445,0.81,0.992,0.872
		c0.26,0.028,0.416-0.249,0.375-0.472C103.479,85.744,103.188,85.444,102.795,85.258z"/>
	<path fill="#A47C94" d="M123.289,82.3c-0.016-0.005-0.027,0-0.041-0.003c-0.029-0.02-0.059-0.038-0.088-0.059
		c-0.053-0.037-0.15-0.114-0.088-0.063c-0.369-0.309-0.914,0.217-0.539,0.531c0.225,0.188,0.479,0.351,0.725,0.507
		c0.297,0.19,0.651,0.434,1.006,0.492c0.416,0.068,0.727-0.261,0.563-0.673C124.574,82.391,123.859,82.434,123.289,82.3z"/>
	<path fill="#A47C94" d="M89.973,95.137c0.038,0.453,0.139,0.876,0.409,1.252c0.281,0.391,0.943,0.023,0.658-0.374
		c-0.188-0.264-0.283-0.538-0.311-0.861C90.688,94.671,89.93,94.651,89.973,95.137z"/>
	<path fill="#A57C89" d="M133.751,81.444c-0.247-0.173-0.487,0.009-0.543,0.238c-0.182,0.085-0.302,0.287-0.162,0.506
		c0.437,0.681,2.011,2.186,2.706,1.037C136.336,82.262,134.227,81.775,133.751,81.444z"/>
	<path fill="#A57C89" d="M145.925,85.62c-0.204-0.053-0.353,0.056-0.425,0.201c-0.191,0.081-0.32,0.285-0.172,0.506
		c0.424,0.626,0.772,1.708,1.748,1.374c0.179-0.062,0.35-0.255,0.273-0.46C147.088,86.529,146.717,85.82,145.925,85.62z"/>
	<path fill="#A57C89" d="M151.371,99.937c-0.334-0.355-0.874,0.175-0.539,0.531c0.445,0.475,0.773,1.03,1.1,1.59
		c0.245,0.422,0.904,0.049,0.658-0.373C152.232,101.07,151.861,100.46,151.371,99.937z"/>
	<path fill="#A57C89" d="M156.363,90.326c-0.313-0.313-0.781,0.094-0.605,0.431c-0.072,0.077-0.107,0.185-0.055,0.32
		c0.203,0.533,0.658,1.931,1.451,1.695c0.527-0.158,0.549-0.801,0.361-1.213C157.283,91.047,156.75,90.709,156.363,90.326z"/>
	<path fill="#A57C89" d="M158.178,98.333c-0.002-0.037-0.004-0.078-0.002-0.112c0.041-0.487-0.717-0.5-0.756-0.017
		c-0.039,0.482,0.217,1.034,0.404,1.461c0.191,0.436,0.531,1.014,1.084,0.951c0.605-0.071,0.619-0.76,0.389-1.173
		C159.057,99.01,158.605,98.605,158.178,98.333z"/>
	<path fill="#A57C89" d="M116.299,72.354c-0.199,0.046-0.277,0.201-0.272,0.357c-0.097,0.131-0.114,0.307,0.05,0.445
		c0.645,0.55,1.396,0.894,2.237,1.008c0.239,0.032,0.442-0.253,0.375-0.471C118.34,72.583,117.424,72.091,116.299,72.354z"/>
	<path fill="#A57C89" d="M134.182,74.16c-0.461-0.357-1.162-0.484-1.777-0.521c-0.061-0.017-0.121-0.021-0.181-0.009
		c-0.069-0.002-0.14-0.004-0.206-0.004c-0.488-0.004-0.504,0.753-0.016,0.756c0.042,0.001,0.084,0.009,0.127,0.011
		c0.406,0.539,0.948,0.96,1.404,1.46c0.148,0.16,0.381,0.131,0.536,0.004C134.67,75.356,134.853,74.679,134.182,74.16z"/>
	<path fill="#A57C89" d="M61.679,100.457c-0.217,0.447-0.599,0.963-0.477,1.491c0.082,0.354,0.504,0.871,0.927,0.707
		c0.399-0.15,0.402-0.592,0.371-0.955c-0.027-0.313-0.134-0.762-0.132-0.99c0-0.004-0.001-0.007-0.001-0.011
		C62.395,100.332,61.867,100.068,61.679,100.457z"/>
	<path fill="#A57C89" d="M73.85,97.511c-0.097,0.032-0.178,0.106-0.202,0.247c-0.095,0.55-0.07,1.047,0.313,1.482
		c0.129,0.149,0.402,0.151,0.534,0.006c0.44-0.485,0.061-1.028-0.04-1.563C74.395,97.361,74.045,97.344,73.85,97.511z"/>
	<path fill="#A57C89" d="M63.641,113.686c0,0.004-0.001,0.006-0.002,0.01c-0.095,0.574-0.041,1.221,0.599,1.424
		c0.19,0.061,0.42-0.061,0.469-0.26c0.146-0.586-0.137-0.99-0.391-1.494C64.104,112.949,63.501,113.275,63.641,113.686z"/>
	<path fill="#A57C89" d="M65.008,123.416c-0.097-0.479-0.831-0.291-0.733,0.186c0.003,0.018,0.014,0.033,0.019,0.049
		c-0.1,0.639,0.065,1.277,0.595,1.678c0.178,0.135,0.404,0.02,0.519-0.129c0.216-0.281,0.239-0.625,0.093-0.943
		C65.366,123.969,65.072,123.729,65.008,123.416z"/>
	<path fill="#A57C89" d="M70.147,129.502c-0.235-0.131-0.636,0.063-0.578,0.422c0.096,0.586,0.109,1.201,0.511,1.676
		c0.246,0.291,0.789,0.41,1.01,0.035c0.188-0.316-0.026-0.758-0.148-1.059c-0.125-0.307-0.277-0.607-0.443-0.896
		C70.415,129.533,70.278,129.486,70.147,129.502z"/>
	<path fill="#A57C89" d="M60.437,136.34c0.06,0.238,0.112,0.471,0.123,0.719c0.02,0.484,0.776,0.502,0.756,0.016
		c-0.013-0.314-0.069-0.615-0.146-0.92C61.052,135.682,60.318,135.865,60.437,136.34z"/>
	<path fill="#A57C89" d="M63.768,128.98c0.061,0.184,0.114,0.363,0.15,0.553c0.09,0.48,0.823,0.293,0.734-0.184
		c-0.036-0.191-0.089-0.371-0.151-0.555C64.346,128.336,63.611,128.518,63.768,128.98z"/>
	<path fill="#A57C89" d="M73.32,139.932c-0.023-0.029-0.052-0.045-0.077-0.064c-0.119-0.35-0.722-0.318-0.733,0.117
		c-0.02,0.83,0.274,2.09,1.221,2.299c0.192,0.043,0.419-0.049,0.469-0.258C74.393,141.207,73.789,140.531,73.32,139.932z"/>
	<path fill="#A57C89" d="M66.653,145.002c-0.128-0.127-0.282-0.135-0.408-0.076c-0.218-0.004-0.464,0.178-0.425,0.461
		c0.083,0.627,0.43,2.031,1.325,1.775c0.53-0.15,0.612-0.701,0.414-1.139C67.373,145.607,66.968,145.314,66.653,145.002z"/>
	<path fill="#A57C89" d="M71.587,146.432c-0.272-0.182-0.529,0.049-0.552,0.303c-0.104,0.105-0.151,0.262-0.057,0.43
		c0.209,0.373,0.637,1.4,1.222,1.199c0.405-0.137,0.531-0.607,0.356-0.979C72.361,146.973,71.958,146.68,71.587,146.432z"/>
	<path fill="#A57C89" d="M76.308,147.412c0.126,0.441,0.315,0.857,0.541,1.254c0.241,0.424,0.9,0.053,0.658-0.373
		c-0.194-0.34-0.357-0.688-0.466-1.064C76.908,146.76,76.173,146.943,76.308,147.412z"/>
	<path fill="#A57C89" d="M72.042,153.619c-0.313-0.289-0.553-0.613-0.769-0.98c-0.247-0.418-0.908-0.045-0.658,0.375
		c0.248,0.418,0.528,0.805,0.887,1.137C71.859,154.479,72.402,153.949,72.042,153.619z"/>
	<path fill="#A57C89" d="M157.273,103.652c-0.125-0.053-0.229-0.031-0.307,0.027c-0.246-0.045-0.533,0.137-0.447,0.447
		c0.264,0.953,0.809,1.656,1.729,2.043c0.23,0.098,0.477-0.133,0.482-0.355C158.758,104.777,158.211,104.049,157.273,103.652z"/>
	<path fill="#A57C89" d="M142.241,77.167c-0.364-0.006-0.466,0.414-0.289,0.632c0.007,0.015,0.007,0.028,0.015,0.042
		c0.518,0.843,1.293,1.365,2.236,1.634c0.285,0.08,0.529-0.179,0.473-0.457C144.43,77.816,143.422,77.187,142.241,77.167z"/>
	<path fill="#A57C89" d="M131.621,60.138c-0.133,0.246-0.234,0.342-0.506,0.229c-0.45-0.187-0.656,0.543-0.21,0.728
		c0.577,0.238,1.081-0.047,1.366-0.566C132.505,60.101,131.855,59.71,131.621,60.138z"/>
	<path fill="#A57C89" d="M123.693,62.938c-0.374,0.196-0.629-0.086-0.818-0.396c-0.254-0.415-0.912-0.044-0.657,0.374
		c0.415,0.679,1.083,1.08,1.849,0.681C124.5,63.371,124.125,62.711,123.693,62.938z"/>
	<path fill="#A57C89" d="M130.795,55.953c-0.309,0.515-0.746,0.582-1.288,0.391c-0.46-0.164-0.667,0.564-0.21,0.727
		c0.859,0.305,1.672,0.066,2.146-0.729C131.693,55.921,131.045,55.534,130.795,55.953z"/>
	<path fill="#A57C89" d="M139.328,59.599c-0.238,0.34-0.559,0.537-0.975,0.576c-0.48,0.048-0.501,0.805-0.018,0.757
		c0.707-0.068,1.231-0.362,1.643-0.943C140.262,59.59,139.609,59.204,139.328,59.599z"/>
	<path fill="#A57C89" d="M76.013,152.209c-0.329-0.15-0.615,0.119-0.549,0.412c-0.085,0.105-0.126,0.252-0.057,0.408
		c0.223,0.506,0.545,0.979,0.872,1.422c0.258,0.35,0.678,0.961,1.184,0.922c0.668-0.053,0.664-0.979,0.546-1.453
		C77.796,153.076,76.729,152.539,76.013,152.209z"/>
	<path fill="#A57C89" d="M79.372,161.41c-0.378-0.117-0.67-0.383-0.963-0.643c-0.363-0.318-0.907,0.207-0.539,0.531
		c0.392,0.346,0.785,0.68,1.291,0.84C79.628,162.283,79.836,161.557,79.372,161.41z"/>
	<path fill="#A57C89" d="M82.29,158.932c-0.277-0.055-0.46,0.168-0.475,0.383c-0.1,0.133-0.122,0.311,0.044,0.451
		c0.535,0.455,0.944,1.068,1.708,1.104c0.211,0.012,0.375-0.168,0.387-0.369C84.007,159.531,83.112,159.096,82.29,158.932z"/>
	<path fill="#A57C89" d="M85.312,165.301c-0.287-0.23-0.672,0.025-0.665,0.295c-0.07,0.1-0.087,0.229,0.011,0.363
		c0.27,0.369,0.526,0.783,0.905,1.051c0.305,0.215,0.78,0.418,1.133,0.213c0.229-0.133,0.232-0.4,0.083-0.594
		C86.37,166.1,85.829,165.721,85.312,165.301z"/>
	<path fill="#A57C89" d="M91.17,167.473c-0.091-0.008-0.179-0.006-0.271-0.016c-0.487-0.055-0.497,0.703-0.018,0.756
		c0.092,0.01,0.18,0.006,0.271,0.018C91.64,168.285,91.651,167.527,91.17,167.473z"/>
	<path fill="#A57C89" d="M94.73,172.1c-0.713-0.246-1.388-0.584-2.082-0.883c-0.448-0.191-0.652,0.539-0.211,0.729
		c0.693,0.297,1.368,0.635,2.082,0.883C94.983,172.988,95.189,172.262,94.73,172.1z"/>
	<path fill="#A57C89" d="M164.34,105.664c-0.195-0.318-0.625-0.174-0.701,0.1c-0.07,0.08-0.115,0.186-0.088,0.32
		c0.145,0.756,0.305,3.379,1.66,2.738C166.457,108.236,164.707,106.271,164.34,105.664z"/>
	<path fill="#A57C89" d="M162.592,114.234c-0.238-0.283-0.754,0.006-0.637,0.357c0.033,0.1,0.063,0.199,0.09,0.299
		c-0.064,0.08-0.104,0.184-0.086,0.309c0.104,0.709,0.57,2.939,1.705,1.885C164.504,116.303,163.074,114.811,162.592,114.234z"/>
	<path fill="#A57C89" d="M168.658,116.727c-0.283-0.34-0.746,0.064-0.6,0.422c-0.021,0.049-0.033,0.104-0.027,0.172
		c0.074,1.025,0.318,2.152,1.34,2.623c0.223,0.104,0.477,0.031,0.557-0.219C170.299,118.564,169.34,117.547,168.658,116.727z"/>
	<path fill="#A57C89" d="M166.471,125.219c0.133,0.549,0.203,1.109,0.271,1.672c0.061,0.482,0.793,0.291,0.734-0.188
		c-0.068-0.561-0.141-1.121-0.273-1.67C167.09,124.559,166.355,124.744,166.471,125.219z"/>
	<path fill="#A57C89" d="M169.236,129.777c-0.254,0.596-0.334,1.232-0.492,1.855c-0.121,0.471,0.605,0.684,0.727,0.211
		c0.158-0.623,0.238-1.262,0.492-1.855C170.154,129.539,169.424,129.334,169.236,129.777z"/>
	<path fill="#A57C89" d="M170.531,125.938c0.006,0.07,0.01,0.139,0.01,0.207c0.014,0.488,0.77,0.504,0.758,0.018
		c-0.008-0.221-0.023-0.395-0.109-0.598C171,125.117,170.344,125.494,170.531,125.938z"/>
	<path fill="#5C467D" d="M73.526,148.943c-0.122-0.039-0.225-0.014-0.303,0.039c-0.285-0.104-0.662,0.195-0.468,0.533
		c0.375,0.65,0.704,1.344,1.43,1.654c0.238,0.1,0.469-0.137,0.485-0.355C74.729,149.965,74.373,149.209,73.526,148.943z"/>
	<path fill="#5C467D" d="M77.34,157.729c-0.344-0.313-0.645-0.664-0.94-1.021c-0.312-0.375-0.851,0.156-0.541,0.531
		c0.296,0.357,0.597,0.707,0.942,1.021C77.161,158.586,77.704,158.059,77.34,157.729z"/>
	<path fill="#5C467D" d="M82.024,163.012c-0.171-0.105-0.334-0.055-0.442,0.057c-0.145,0.102-0.239,0.287-0.147,0.492
		c0.296,0.656,0.678,1.285,1.343,1.615c0.296,0.148,0.63-0.08,0.56-0.416C83.183,164.01,82.664,163.402,82.024,163.012z"/>
	<path fill="#5C467D" d="M88.816,164.467c-0.236-0.072-0.406,0.078-0.456,0.262c-0.097,0.107-0.143,0.264-0.071,0.43
		c0.233,0.531,0.645,0.887,1.221,0.992c0.303,0.057,0.507-0.158,0.471-0.455C89.904,165.041,89.418,164.65,88.816,164.467z"/>
	<path fill="#5C467D" d="M99.308,173.381c-0.412,0.01-0.737-0.146-1.089-0.34c-0.09-0.049-0.176-0.055-0.255-0.037
		c-0.343-0.305-0.856,0.205-0.517,0.545c0.481,0.482,1.051,0.92,1.713,1.115c0.187,0.055,0.425-0.059,0.469-0.258
		c0.046-0.215,0.061-0.418,0.048-0.639C99.666,173.568,99.526,173.375,99.308,173.381z"/>
	<path fill="#5C467D" d="M160.068,109.855c-0.119-0.326-0.705-0.287-0.736,0.141c-0.072,1.049,0.055,2.363,1.025,2.98
		c0.223,0.143,0.469-0.002,0.557-0.219c0.375-0.898-0.227-1.781-0.451-2.633C160.408,109.916,160.234,109.842,160.068,109.855z"/>
	<path fill="#5C467D" d="M162.924,99.776c-0.111-0.15-0.277-0.186-0.424-0.151c-0.215-0.051-0.463,0.058-0.453,0.34
		c0.033,0.852,0.277,1.637,0.844,2.288c0.205,0.238,0.529,0.078,0.633-0.16C163.889,101.254,163.414,100.443,162.924,99.776z"/>
	<path fill="#5C467D" d="M167.889,110.898c-0.01-0.008-0.018-0.01-0.027-0.018c-0.09-0.326-0.625-0.422-0.721-0.02
		c-0.227,0.955-0.055,1.941,0.576,2.705c0.141,0.17,0.387,0.125,0.535,0.006C169.143,112.861,168.543,111.543,167.889,110.898z"/>
	<path fill="#5C467D" d="M165.154,121.201c-0.143-0.121-0.313-0.113-0.445-0.043c-0.205-0.031-0.434,0.08-0.436,0.348
		c-0.004,0.891,0.404,1.725,1.258,2.066c0.201,0.08,0.402-0.08,0.469-0.258C166.307,122.477,165.775,121.721,165.154,121.201z"/>
	<path fill="#5C467D" d="M168.219,134.711c-0.027,0.023-0.055,0.045-0.078,0.08c-0.408,0.658-0.568,1.439-0.197,2.15
		c0.092,0.174,0.348,0.252,0.518,0.143c0.846-0.553,0.668-1.582,0.492-2.434C168.863,134.217,168.26,134.332,168.219,134.711z"/>
	<path fill="#5C467D" d="M154.41,86.059c-0.154-0.367-0.34-0.88-0.758-0.99c-0.116-0.03-0.211,0.002-0.293,0.054
		c-0.24-0.025-0.506,0.154-0.412,0.451c0.066,0.217,0.131,0.443,0.205,0.664c-0.008,0.051-0.005,0.106,0.016,0.165
		c0.087,0.269,0.216,0.523,0.387,0.732c0.152,0.234,0.34,0.442,0.596,0.599c0.146,0.089,0.346,0.042,0.467-0.074
		c0.029,0,0.055,0.005,0.084,0.003c0.301-0.017,0.465-0.292,0.338-0.565c-0.162-0.347-0.385-0.658-0.607-0.971
		C154.422,86.105,154.42,86.082,154.41,86.059z"/>
	<path fill="#5C467D" d="M159.066,157.668c-0.24-0.254-0.443-0.525-0.621-0.826c-0.25-0.418-0.91-0.047-0.66,0.373
		c0.213,0.355,0.457,0.684,0.742,0.984C158.861,158.555,159.402,158.023,159.066,157.668z"/>
	<path fill="#5C467D" d="M163.264,161.855c-0.422-0.154-0.799-0.398-1.184-0.629c-0.418-0.25-0.805,0.398-0.387,0.65
		c0.441,0.266,0.875,0.529,1.361,0.705C163.514,162.748,163.721,162.021,163.264,161.855z"/>
	<path fill="#5C467D" d="M157.004,161.277c-0.266-0.779-0.838-2.482-1.678-1.965c-1.055,0.652,0.25,1.865,1.074,2.475
		c0.064,0.102,0.158,0.162,0.262,0.184c0.053,0.035,0.1,0.066,0.141,0.09c0.418,0.258,0.805-0.391,0.389-0.646
		C157.127,161.371,157.066,161.322,157.004,161.277z"/>
	<path fill="#5C467D" d="M161.746,164.977c-0.414-0.066-0.727-0.271-1.008-0.576c-0.332-0.357-0.871,0.172-0.539,0.529
		c0.357,0.387,0.807,0.689,1.336,0.773C162.012,165.777,162.227,165.053,161.746,164.977z"/>
	<path fill="#5C467D" d="M131.295,175.9c-0.296-0.846-0.719-1.734-1.586-2.105c-0.188-0.08-0.42,0.078-0.469,0.258
		c-0.289,1.059,0.768,1.779,1.516,2.303c0.256,0.178,0.502-0.02,0.548-0.258c0.007-0.033,0.007-0.07,0.003-0.107
		c0-0.014-0.002-0.029-0.006-0.047C131.298,175.93,131.301,175.916,131.295,175.9z"/>
	<path fill="#5C467D" d="M136.545,173.783c-0.32-0.207-0.996-0.287-1.136,0.193c-0.188,0.646,0.878,1.322,1.369,1.521
		c0.009,0.004,0.016,0.004,0.023,0.006c0.256,0.17,0.691-0.148,0.534-0.521C137.156,174.555,136.951,174.047,136.545,173.783z"/>
	<path fill="#5C467D" d="M136.047,178.318c-0.18-0.023-0.35-0.08-0.52-0.148c-0.453-0.18-0.658,0.549-0.209,0.729
		c0.232,0.092,0.463,0.143,0.711,0.178C136.514,179.145,136.523,178.385,136.047,178.318z"/>
	<path fill="#5C467D" d="M141.809,176.955c-0.331,0.096-0.592,0.01-0.875-0.166c-0.415-0.262-0.803,0.391-0.39,0.648
		c0.446,0.279,0.934,0.4,1.449,0.252C142.461,177.553,142.278,176.82,141.809,176.955z"/>
	<path fill="#5C467D" d="M133.42,172.096c-0.145-0.07-0.25-0.125-0.314-0.277c-0.191-0.447-0.848-0.07-0.658,0.373
		c0.111,0.262,0.334,0.434,0.584,0.553C133.469,172.955,133.86,172.307,133.42,172.096z"/>
	<g>
		<path fill="#C31520" stroke="#69014C" stroke-width="2.4883" stroke-linecap="round" stroke-linejoin="round" d="M117.88,121.436
			c0,0-7.985-7.057-14.357-3.24c-6.371,3.816-2.333,15.385,9.927,21.502c12.26,6.121,20.592,4.414,20.592,4.414
			s-1.139-5.139,0.309-13.123c2.031-11.209-1.933-20.688-7.799-23.629c-5.867-2.943-9.391,1.148-9.941,6.125
			C116.077,118.316,117.88,121.436,117.88,121.436z"/>
		<path fill="#EC1C29" d="M130.458,139.082c-1.769-0.174-3.589-0.318-5.392-0.721c-0.033-0.01-0.061-0.023-0.094-0.031
			c-0.337-0.082-0.668-0.164-1.002-0.244c-0.387-0.113-0.771-0.234-1.153-0.379c-0.232-0.086-0.458-0.105-0.67-0.08
			c-3.913-1.002-7.64-2.209-11.242-5.027c-1.786-1.396-3.25-3.051-4.304-5.084c-3.238-6.252,5.537-4.279,7.74-3.104
			c2.391,1.271,3.564-2.301,1.174-3.574c-3.359-1.789-7.332-3.021-10.248-1.123c-2.367,1.539-3.747,4.307-2.532,7.723
			c3.292,9.26,13.034,12.572,20.851,14.559c2.545,0.779,5.166,0.934,7.677,1.18c1.052,0.105,1.698-1.029,1.494-2.063
			C132.521,139.914,131.508,139.186,130.458,139.082z"/>
		<path fill="#EECFB1" d="M107.419,123.098c-0.778-0.314-1.562,0.242-1.649,0.992c-0.023,0.191-0.021,0.387-0.009,0.582
			c-0.017,0.176-0.026,0.352-0.013,0.523c0.066,0.883,0.313,1.701,0.68,2.48c0.465,1.471,1.257,2.84,2.572,3.979
			c0.32,0.277,0.707,0.121,0.742-0.242c0.012-0.094,0.02-0.217,0.029-0.332h0.002C110.201,129.186,110.549,123.73,107.419,123.098z"
			/>
	</g>
	<g>
		<path fill="#3E224D" stroke="#FDB515" stroke-width="1.7418" stroke-miterlimit="10" d="M53.795,92.725
			c0,0-14.908-4.308-22.147-25.5c-5.442-15.938,1.683-36.264,27.48-49.362c25.798-13.101,48.024-0.757,55.832,14.312
			c7.812,15.07,6.407,39.393-17.429,52.625c-21.205,11.771-31.082,9.743-35.087,9.45C57.565,93.892,53.795,92.725,53.795,92.725z"/>
		<path fill="#FFF2DF" d="M62.63,51.521c-1.348-1.643-2.854-2.142-4.335-1.95c-3.446-0.59-6.454,3.154-6.47,6.51
			c-0.021,4.61,4.855,7.225,8.895,5.492C65.034,59.722,65.412,54.916,62.63,51.521z M55.56,53.885
			c0.272-0.549,0.744-0.98,1.221-1.35c0.118-0.091,0.181-0.194,0.221-0.298c0.144,0.022,0.271,0.054,0.388,0.092
			c-0.007,0.012-0.018,0.018-0.024,0.031c-0.194-0.023-0.399,0.032-0.578,0.222c-0.408,0.432-0.593,0.938-0.749,1.503
			c-0.071,0.255-0.134,0.541-0.304,0.752c-0.087,0.109-0.202,0.186-0.319,0.256C55.217,54.783,55.434,54.14,55.56,53.885z"/>
		<path fill="#FFF2DF" d="M88.038,33.592c-1.256-0.431-2.384-0.278-3.337,0.258c-2.206,0.718-3.955,2.505-4.238,5.036
			c-0.231,2.067,0.539,4.789,2.274,6.052c2.228,2.169,6.387,0.914,7.985-1.432c1.055-1.549,1.794-3.542,1.468-5.447
			c-0.126-0.738-0.376-1.33-0.724-1.829C90.896,34.886,89.727,33.867,88.038,33.592z"/>
		<path fill="#D12038" d="M73.884,51.908c0,0,4.015-1.368,6.097-2.337c2.082-0.97,2.781-1.697,2.781-1.697s-0.823,2.723-2.288,4.616
			c-1.465,1.893-2.254,2.19-2.254,2.19s1.282,0.136,3.712-0.232c2.43-0.369,4.138-1.842,3.969-1.584
			c-0.17,0.259-2.382,3.627-5.005,5.872c-2.623,2.244-3.989,2.238-3.989,2.238s-2.04-0.339-3.6-3.44
			C71.744,54.433,73.97,51.779,73.884,51.908z"/>
		<path fill="#5C467D" d="M69.337,85.454c-0.53,0.059-1.067,0.072-1.596-0.01c-0.476-0.073-0.691,0.651-0.211,0.728
			c0.6,0.093,1.189,0.106,1.791,0.039C69.799,86.158,69.82,85.4,69.337,85.454z"/>
		<path fill="#5C467D" d="M63.248,88.05c-0.351-0.245-0.839-0.379-1.256-0.448c-0.255-0.042-0.431,0.148-0.469,0.345
			c-0.12,0.134-0.161,0.34,0,0.508c0.378,0.396,1.481,1.172,1.988,0.625C63.845,88.718,63.579,88.281,63.248,88.05z"/>
		<path fill="#5C467D" d="M55.015,87.715c-0.044-0.031-0.088-0.046-0.132-0.056c-0.259-0.214-0.747-0.029-0.609,0.354
			c0.255,0.72,0.78,1.206,1.362,1.678c0.164,0.133,0.37,0.157,0.535,0.003C57.131,88.812,55.611,88.125,55.015,87.715z"/>
		<path fill="#5C467D" d="M47.382,84.612c-0.278-0.062-0.459,0.162-0.473,0.377c-0.097,0.132-0.115,0.31,0.045,0.451
			c0.459,0.404,0.982,0.822,1.632,0.65c0.284-0.073,0.371-0.42,0.178-0.632C48.386,85.045,47.934,84.738,47.382,84.612z"/>
		<path fill="#5C467D" d="M60.816,90.349c-0.384,0.062-0.764-0.113-1.118-0.238c-0.462-0.164-0.669,0.564-0.211,0.727
			c0.504,0.179,0.975,0.331,1.515,0.245C61.483,91.007,61.294,90.274,60.816,90.349z"/>
		<path fill="#5C467D" d="M68.624,90.79c-0.391,0.017-0.774-0.017-1.131-0.19c-0.436-0.211-0.827,0.438-0.387,0.65
			c0.476,0.231,0.973,0.319,1.501,0.296C69.092,91.524,69.111,90.767,68.624,90.79z"/>
		<path fill="#5C467D" d="M70.521,87.887c-0.337,0.176-0.184,0.606,0.104,0.688c0.039,0.051,0.088,0.096,0.158,0.124
			c0.619,0.256,1.294,0.573,1.933,0.188c0.167-0.1,0.259-0.341,0.143-0.516C72.367,87.632,71.279,87.494,70.521,87.887z"/>
		<path fill="#5C467D" d="M78.683,90.136c-0.274-0.313-0.658-0.36-1.044-0.258c-0.332,0.087-0.681,0.398-1.022,0.409
			c-0.227,0.008-0.348,0.179-0.367,0.355c-0.189,0.222-0.11,0.645,0.257,0.625c0.785-0.045,1.541-0.071,2.173-0.596
			C78.843,90.534,78.811,90.282,78.683,90.136z"/>
		<path fill="#5C467D" d="M75.891,83.929c-0.165,0.094-0.31,0.168-0.499,0.194c-0.483,0.068-0.293,0.802,0.185,0.733
			c0.25-0.035,0.47-0.145,0.687-0.27C76.686,84.343,76.315,83.686,75.891,83.929z"/>
		<path fill="#5C467D" d="M78.774,86.38c-0.406,0.037-0.91,0.116-1.254,0.352c-0.251,0.173-0.199,0.496-0.026,0.647
			c0.03,0.058,0.076,0.113,0.157,0.151c0.472,0.217,1.034,0.351,1.553,0.291c0.456-0.054,0.917-0.483,0.723-0.981
			C79.743,86.375,79.206,86.339,78.774,86.38z"/>
		<path fill="#5C467D" d="M85.926,81.433c-0.228,0.26-0.473,0.411-0.824,0.42c-0.488,0.009-0.505,0.766-0.018,0.756
			c0.548-0.012,1.009-0.224,1.373-0.634C86.777,81.611,86.25,81.068,85.926,81.433z"/>
		<path fill="#5C467D" d="M90.132,73.881c-0.295,0.308-0.658,0.473-1.069,0.568c-0.477,0.107-0.29,0.843,0.185,0.732
			c0.535-0.124,1.032-0.362,1.415-0.762C90.999,74.069,90.472,73.527,90.132,73.881z"/>
		<path fill="#5C467D" d="M93.06,78.634c-1.156-0.004-1.988,0.584-2.831,1.313c-0.369,0.318,0.162,0.857,0.53,0.54
			c0.007-0.006,0.014-0.013,0.021-0.02c0.987-0.032,2.145-0.286,2.598-1.262C93.491,78.959,93.369,78.634,93.06,78.634z"/>
		<path fill="#5C467D" d="M87.149,85.465c-0.675-0.498-1.959,0.355-2.443,0.832c-0.344,0.342,0.173,0.875,0.522,0.547
			c0.042,0.019,0.089,0.03,0.144,0.033c0.534,0.015,1.114,0.094,1.62-0.124C87.519,86.527,87.619,85.812,87.149,85.465z"/>
		<path fill="#5C467D" d="M92.891,83.272c-0.177,0.103-0.34,0.181-0.542,0.22c-0.48,0.097-0.293,0.83,0.185,0.734
			c0.264-0.054,0.498-0.16,0.73-0.295C93.687,83.689,93.315,83.03,92.891,83.272z"/>
		<path fill="#5C467D" d="M98.804,79.519c-0.651,0.111-1.167,0.485-1.722,0.814c-0.091,0.055-0.138,0.129-0.162,0.209
			c-0.269,0.118-0.325,0.593,0.04,0.715c0.998,0.331,2.491-0.237,2.302-1.463C99.229,79.58,98.99,79.487,98.804,79.519z"/>
		<path fill="#5C467D" d="M97.581,76.745c-0.252,0.204-0.609,0.248-0.923,0.248c-0.488,0.002-0.504,0.761-0.018,0.758
			c0.536-0.002,1.049-0.124,1.47-0.467C98.489,76.977,97.957,76.439,97.581,76.745z"/>
		<path fill="#5C467D" d="M97.951,71.441c0.036,0.29-0.143,0.727-0.484,0.604c-0.461-0.165-0.668,0.563-0.21,0.728
			c0.95,0.34,1.531-0.703,1.428-1.518C98.625,70.773,97.892,70.963,97.951,71.441z"/>
		<path fill="#5C467D" d="M103.053,74.464c-0.457,0.408-0.697,0.993-1.152,1.399c-0.354,0.316,0.135,0.827,0.496,0.56
			c0.862-0.207,1.65-0.946,1.25-1.875C103.545,74.312,103.218,74.317,103.053,74.464z"/>
		<path fill="#5C467D" d="M103.002,70.165c-0.025,0.137-0.033,0.199-0.164,0.256c-0.449,0.188-0.07,0.845,0.374,0.657
			c0.298-0.125,0.457-0.394,0.517-0.701C103.818,69.901,103.093,69.686,103.002,70.165z"/>
		<path fill="#5C467D" d="M108.871,68.517c-1.144-0.388-1.201,1.88-1.109,2.505c0.054,0.363,0.481,0.345,0.66,0.11
			C109.129,70.625,110.099,68.933,108.871,68.517z"/>
		<path fill="#5C467D" d="M108.218,63.117c-0.763-0.075-0.9,1.525-1.071,2.001c-0.164,0.46,0.561,0.666,0.727,0.214
			c0.445-0.22,0.792-0.643,0.94-1.111C108.954,63.78,108.724,63.166,108.218,63.117z"/>
		<path fill="#5C467D" d="M80.703,78.875c-0.376-0.11-0.802,0.083-1.145,0.22c-0.113,0.045-0.186,0.126-0.223,0.218
			c-0.153,0.192-0.137,0.521,0.169,0.595c0.423,0.098,1.562,0.652,1.723-0.113C81.313,79.386,81.109,78.997,80.703,78.875z"/>
		<path fill="#5C467D" d="M73.445,79.845c-0.548-0.012-1.067,0.228-1.588,0.356c-0.312,0.074-0.335,0.415-0.183,0.607
			c0.034,0.1,0.105,0.187,0.233,0.231c0.398,0.136,0.87,0.155,1.288,0.159c0.432,0.005,0.948-0.037,1.136-0.485
			C74.554,80.184,73.84,79.854,73.445,79.845z"/>
		<path fill="#614E80" d="M85.324,66.792c-2.633-1.176-5.44-0.143-5.881,2.872c-0.071,0.482,0.687,0.493,0.757,0.017
			c0.355-2.428,2.667-3.163,4.735-2.239C85.375,67.639,85.769,66.992,85.324,66.792z"/>
		<path fill="#5C467D" d="M112.885,59.34c-0.84,0.1-0.518,1.525-0.332,2.011c0.138,0.36,0.63,0.313,0.734,0.047
			c0.061-0.043,0.112-0.103,0.137-0.196C113.587,60.6,113.965,59.211,112.885,59.34z"/>
		<path fill="#5C467D" d="M111.479,65.307c-0.086,0.343-0.143,0.696-0.303,1.012c-0.221,0.434,0.428,0.825,0.649,0.389
			c0.192-0.38,0.276-0.78,0.38-1.189C112.324,65.045,111.598,64.833,111.479,65.307z"/>
		<path fill="#5C467D" d="M102.762,65.428c-0.03,0.134-0.032,0.278-0.217,0.265c-0.487-0.035-0.501,0.721-0.016,0.757
			c0.526,0.039,0.846-0.327,0.961-0.811C103.602,65.164,102.875,64.953,102.762,65.428z"/>
		<path fill="#5C467D" d="M115.117,54.34c-0.041,0.319-0.102,0.634-0.163,0.948c-0.093,0.477,0.634,0.689,0.728,0.21
			c0.073-0.378,0.143-0.757,0.192-1.141C115.937,53.874,115.179,53.863,115.117,54.34z"/>
		<path fill="#5C467D" d="M115.821,44.026c-0.319,0.064-0.434,0.432-0.442,0.712c-0.018,0.467,0.22,0.939,0.451,1.329
			c0.109,0.185,0.295,0.209,0.451,0.149c0.21,0.044,0.461-0.064,0.473-0.342C116.777,45.328,116.736,43.841,115.821,44.026z"/>
		<path fill="#5C467D" d="M106.285,26.205c-0.049-0.008-0.094-0.027-0.135-0.056c-0.425-0.239-0.813,0.409-0.387,0.65
			c0.1,0.056,0.199,0.102,0.311,0.134C106.546,27.066,106.755,26.338,106.285,26.205z"/>
		<path fill="#5C467D" d="M111.32,38.751c-0.178-0.167-0.375-0.307-0.578-0.441c-0.408-0.27-0.796,0.381-0.39,0.649
			c0.152,0.1,0.296,0.198,0.429,0.323C111.134,39.616,111.676,39.088,111.32,38.751z"/>
		<path fill="#5C467D" d="M113.693,40.519c-0.322-0.366-0.861,0.165-0.539,0.529c0.116,0.132,0.168,0.269,0.203,0.44
			c0.098,0.479,0.83,0.292,0.733-0.185C114.028,41,113.898,40.75,113.693,40.519z"/>
		<path fill="#5C467D" d="M97.052,66.207c-0.026,0.036-0.051,0.072-0.076,0.108c-0.448,0.176-0.268,0.911,0.186,0.733
			c0.325-0.126,0.502-0.299,0.618-0.632C97.938,65.956,97.209,65.747,97.052,66.207z"/>
		<path fill="#5C467D" d="M101.147,62.092c-0.368,0.354-0.941,0.172-1.381,0.081c-0.477-0.098-0.689,0.628-0.211,0.728
			c0.739,0.152,1.522,0.309,2.123-0.269C102.029,62.294,101.499,61.753,101.147,62.092z"/>
		<path fill="#5C467D" d="M68.799,81.152c-0.215-0.007-0.427,0.01-0.641,0.045c-0.482,0.082-0.293,0.814,0.185,0.734
			c0.147-0.025,0.292-0.027,0.441-0.023C69.272,81.926,69.286,81.168,68.799,81.152z"/>
		<path fill="#5C467D" d="M72.159,76.29c-0.154,0.047-0.292,0.077-0.453,0.043c-0.476-0.097-0.688,0.629-0.21,0.728
			c0.292,0.061,0.561,0.049,0.848-0.037C72.81,76.884,72.627,76.149,72.159,76.29z"/>
		<path fill="#5C467D" d="M45.546,81.779c-0.307-0.281-0.563-0.601-0.809-0.934c-0.287-0.388-0.95-0.02-0.659,0.373
			c0.287,0.387,0.571,0.764,0.928,1.091C45.364,82.635,45.908,82.11,45.546,81.779z"/>
		<path fill="#5C467D" d="M44.694,71.819c0.005,0.315,0.056,0.62,0.15,0.92c0.146,0.464,0.88,0.28,0.733-0.186
			c-0.075-0.236-0.122-0.468-0.126-0.717C45.442,71.349,44.686,71.332,44.694,71.819z"/>
		<path fill="#5C467D" d="M44.325,77.646c0.017,0.102,0.044,0.199,0.062,0.3c0.084,0.481,0.817,0.293,0.734-0.184
			c-0.018-0.102-0.046-0.199-0.063-0.301C44.974,76.979,44.242,77.168,44.325,77.646z"/>
		<path fill="#F04E43" d="M82.762,47.874c0,0-1.726,1.261-3.854,2.205c-2.128,0.944-5.024,1.829-5.024,1.829
			s-1.137,1.285-1.129,3.054c0.009,1.769,0.428,2.341,0.428,2.341s3.484-2.518,6.197-5.46
			C82.092,48.899,82.762,47.874,82.762,47.874z"/>
		<path fill="#8C7894" d="M81.291,82.808c-0.426-0.031-0.821,0.315-1.159,0.522c-0.415,0.254-0.044,0.914,0.373,0.659
			c0.008-0.005,0.015-0.011,0.023-0.016c0.438-0.006,1.283-0.043,1.421-0.529C82.062,83.043,81.61,82.828,81.291,82.808z"/>
		<path fill="#8C7894" d="M87.537,78.071c-0.169,0.063-0.337,0.119-0.512,0.162c-0.474,0.115-0.289,0.849,0.185,0.733
			c0.176-0.043,0.342-0.1,0.512-0.162C88.173,78.635,87.993,77.899,87.537,78.071z"/>
		<path fill="#8C7894" d="M95.046,74.592c-0.369-0.179-0.716-0.147-1.057,0.081c-0.338,0.227-0.55,0.604-0.887,0.822
			c-0.401,0.261-0.046,0.903,0.358,0.664c0.778,0.043,1.506-0.354,1.754-1.138C95.263,74.872,95.193,74.665,95.046,74.592z"/>
		<path fill="#8C7894" d="M105.402,66.601c-0.961-0.179-0.924,1.276-0.888,1.869c0.028,0.471,0.741,0.497,0.752,0.051
			C105.691,67.992,106.452,66.798,105.402,66.601z"/>
		<path fill="#8C7894" d="M106.286,74.309c-0.849-0.357-1.159,1.271-1.394,1.673c-0.246,0.42,0.403,0.809,0.649,0.388
			c0.019-0.033,0.032-0.068,0.05-0.101c0.373-0.172,0.699-0.456,0.942-0.783C106.826,75.092,106.768,74.513,106.286,74.309z"/>
		<path fill="#8C7894" d="M72.733,83.267c-0.374-0.274-0.94-0.283-1.371-0.149c-0.004,0-0.005,0.004-0.009,0.005
			c-0.272,0.045-0.442,0.485-0.144,0.715c0.365,0.28,1.291,0.809,1.709,0.396C73.206,83.953,73.013,83.473,72.733,83.267z"/>
		<path fill="#8C7894" d="M65.851,87.902c-0.018,0.004-0.027,0.015-0.043,0.02c-0.019,0.007-0.034,0.016-0.051,0.022
			c-0.025,0.013-0.049,0.025-0.068,0.042c-0.202,0.153-0.27,0.469,0.02,0.597c0.441,0.192,1.966,0.785,1.976-0.171
			C67.696,87.359,66.447,87.762,65.851,87.902z"/>
		<path fill="#8C7894" d="M51.593,88.137c-0.181-0.1-0.328-0.22-0.474-0.364c-0.346-0.342-0.887,0.187-0.539,0.531
			c0.189,0.186,0.391,0.354,0.624,0.481C51.631,89.02,52.021,88.372,51.593,88.137z"/>
		<path fill="#8C7894" d="M73.846,91.051c-0.153-0.145-0.331-0.26-0.548-0.27c-0.211-0.011-0.412,0.059-0.622,0.044
			c-0.037-0.003-0.063,0.007-0.095,0.013c-0.372-0.049-0.514,0.572-0.11,0.747c0.497,0.217,1.059,0.499,1.428-0.075
			C73.99,91.372,73.966,91.164,73.846,91.051z"/>
		<path fill="#8C7894" d="M89.012,82.959c-0.171,0.113-0.315,0.171-0.522,0.165c-0.488-0.013-0.504,0.745-0.017,0.757
			c0.335,0.009,0.632-0.079,0.912-0.264C89.789,83.351,89.42,82.689,89.012,82.959z"/>
		<path fill="#8C7894" d="M100.103,73.304c-0.086,0.167-0.182,0.277-0.338,0.379c-0.409,0.262-0.039,0.922,0.373,0.657
			c0.264-0.169,0.469-0.368,0.615-0.647C100.979,73.262,100.33,72.872,100.103,73.304z"/>
		<path fill="#8C7894" d="M99.63,66.358c-0.432,0.117-0.455,0.594-0.394,0.956c0.036,0.212,0.113,0.42,0.184,0.624
			c0.028,0.084,0.058,0.167,0.085,0.251c0.011,0.033,0.06,0.235,0.052,0.161c0.041,0.482,0.796,0.503,0.757,0.018
			c-0.001-0.017-0.007-0.033-0.01-0.051c0.011-0.025,0.027-0.045,0.032-0.077c0.082-0.388,0.209-0.771,0.185-1.171
			C100.492,66.592,100.124,66.226,99.63,66.358z"/>
		<path fill="#8C7894" d="M109.361,59.403c-0.018,0.096-0.068,0.168-0.152,0.216c-0.383,0.302,0.149,0.84,0.529,0.54
			c0.182-0.143,0.275-0.33,0.348-0.546C110.244,59.148,109.517,58.942,109.361,59.403z"/>
		<path fill="#8C7894" d="M115.896,49.833c0.004,0.225-0.026,0.428-0.096,0.642c-0.153,0.464,0.574,0.673,0.726,0.211
			c0.089-0.273,0.132-0.548,0.126-0.837C116.643,49.363,115.885,49.345,115.896,49.833z"/>
		<path fill="#A57C89" d="M105.934,61.768c-0.1-0.088-0.199-0.176-0.299-0.263c-0.195-0.174-0.444-0.136-0.596,0.07
			c-0.31,0.422-0.393,0.902-0.549,1.379c-0.006,0.015-0.011,0.027-0.015,0.043c-0.019,0.058-0.036,0.115-0.058,0.173
			c-0.182,0.454,0.549,0.66,0.727,0.211c0.014-0.035,0.023-0.071,0.035-0.105c0.299-0.329,0.601-0.654,0.809-1.048
			C106.064,62.084,106.064,61.883,105.934,61.768z"/>
		<path fill="#A57C89" d="M59.737,87.105c-0.253-0.123-0.53-0.19-0.798-0.272c-0.209-0.063-0.368-0.176-0.585-0.049
			c-0.105,0.061-0.149,0.161-0.167,0.27c-0.09,0.146-0.082,0.332,0.08,0.445c0.151,0.366,0.435,0.718,0.732,0.935
			c0.45,0.328,0.919,0.15,1.092-0.315c0.01-0.009,0.022-0.011,0.033-0.021C60.465,87.734,60.076,87.27,59.737,87.105z"/>
		<path fill="#FBAA19" d="M110.211,29.792c-0.395-0.1-0.807-0.133-1.248-0.089c-0.241,0.004-0.482,0.013-0.721,0.042
			c-0.184,0.021-0.305,0.104-0.373,0.216c-0.225,0.08-0.453,0.172-0.691,0.293c-2.096,1.061-1.164,3.84,0.016,5.157
			c2.229,2.488,6.479,2.071,9.033,4.165c0.02,0.017,0.041,0.019,0.063,0.033c0.143,0.552,1.029,0.724,1.146,0.06
			c0.147-0.821,0.104-1.59-0.076-2.318C117.477,33.458,113.91,30.342,110.211,29.792z"/>
		<path fill="#FBAA19" d="M37.288,72.39c0.124-0.389,0.313-0.757,0.583-1.108c0.13-0.203,0.267-0.403,0.417-0.59
			c0.115-0.145,0.249-0.203,0.381-0.203c0.187-0.147,0.386-0.291,0.614-0.431c2.007-1.22,3.875,1.04,4.371,2.738
			c0.935,3.207-1.665,6.594-1.236,9.868c0.002,0.025-0.006,0.046-0.005,0.07c0.393,0.414,0.07,1.258-0.557,1.007
			c-0.774-0.311-1.404-0.756-1.927-1.288C36.561,80.495,35.8,75.82,37.288,72.39z"/>
		<path fill="#55273D" d="M57.673,51.187c-0.082-0.004-0.154,0.013-0.233,0.016c-0.385-0.043-0.797,0.008-1.226,0.181
			c-1.583,0.635-1.846,2.932-1.474,4.336c0.412,1.557,2.006,2.777,3.625,2.229c1.553-0.525,2.32-2.468,2.209-3.986
			C60.459,52.404,59.211,51.25,57.673,51.187z M56.625,53.553c0.025-0.483,0.401-0.748,0.822-0.821
			c0.355,0.134,0.665,0.511,0.84,0.897c-0.012,0.08-0.025,0.158-0.01,0.249c0.089,0.579-0.165,1.076-0.788,1.088
			C56.75,54.982,56.596,54.115,56.625,53.553z"/>
		<path fill="#55273D" d="M86.282,34.948c-0.235-0.003-0.451,0.036-0.652,0.105c-0.547,0.084-1.094,0.356-1.553,0.783
			c-0.991,0.916-0.848,2.56-0.505,3.732c0.372,1.271,1.413,2.369,2.827,1.92c1.477-0.468,2.08-2.221,2.195-3.614
			C88.713,36.41,87.866,34.962,86.282,34.948z M86.188,36.555c-0.067,0.178-0.074,0.381,0.025,0.595
			c0.203,0.445,0.172,1.012-0.158,1.391c-0.375,0.428-0.635-0.503-0.642-0.771c-0.01-0.41,0.296-1.069,0.718-1.259
			C86.153,36.519,86.168,36.541,86.188,36.555z"/>
		<g>
			<path fill="#D21D24" d="M52.63,65.898c-0.911,0.316-1.786,0.725-2.583,1.312c-2.681,1.97-3.992,4.861-4.026,8.033
				c-0.222,1.166,0.361,2.661,0.708,3.727c0.005,0.038,0.01,0.078,0.015,0.117c0.02,0.143,0.078,0.25,0.149,0.341
				c1.356,3.404,5.209,5.981,8.97,6.238c7.146,0.487,14.702-5.427,13.718-13.398c-0.748-6.063-5.988-8.115-10.897-7.946
				C56.459,64.396,54.389,64.944,52.63,65.898z"/>
			<path fill="#F04E43" d="M48.347,77.782c-0.059,0.037-0.104,0.081-0.145,0.13c-0.477,0.065-0.802,0.416-0.52,1.247
				c0.571,1.678,2.039,3.005,3.445,3.812c2.339,1.343,4.994,1.509,7.445,0.899c2.136-0.281,4.073-1.034,5.667-2.577
				c0.714-0.691,2.214-2.657,1.278-3.87c-0.932-1.207-2.575,0.381-3.324,0.927c-2.639,1.923-5.06,2.844-8.354,1.817
				c-1.323-0.41-2.647-1.115-3.84-1.9C49.59,77.995,48.83,77.47,48.347,77.782z"/>
			<path fill="#EECFB1" d="M50.3,74.74c-0.758,0.537-0.647,1.226-0.162,1.882c0.014,0.049,0.016,0.098,0.042,0.149
				c0.802,1.539,2.483,3.059,4.327,2.506c0.372-0.11,0.541-0.622,0.389-0.953C54.259,76.937,52.217,73.378,50.3,74.74z"/>
			<path fill="#EECFB1" d="M50.669,71.119c-0.188,0.04-0.363,0.144-0.49,0.282c-0.167,0.108-0.303,0.252-0.366,0.436
				c-0.103,0.297,0.024,0.586,0.261,0.774c0.155,0.125,0.327,0.141,0.503,0.128c0.041,0.021,0.085,0.036,0.139,0.042
				c0.346,0.039,0.703,0.113,1.036-0.022c0.332-0.133,0.541-0.496,0.5-0.848C52.169,71.188,51.251,71,50.669,71.119z"/>
		</g>
		<g>
			<path fill="#D21D24" d="M97.922,40.899c-0.882,0.306-1.728,0.701-2.499,1.268c-2.593,1.905-3.86,4.703-3.895,7.77
				c-0.214,1.129,0.35,2.575,0.687,3.606c0.003,0.036,0.008,0.076,0.013,0.113c0.02,0.138,0.076,0.242,0.145,0.33
				c1.312,3.291,5.04,5.786,8.676,6.034c6.912,0.471,14.221-5.249,13.27-12.96c-0.725-5.866-5.793-7.851-10.541-7.688
				C101.626,39.447,99.624,39.975,97.922,40.899z"/>
			<path fill="#F04E43" d="M93.779,52.393c-0.056,0.036-0.102,0.078-0.14,0.127c-0.46,0.063-0.776,0.4-0.502,1.206
				c0.552,1.622,1.972,2.906,3.331,3.687c2.264,1.299,4.832,1.459,7.203,0.871c2.066-0.272,3.939-1.002,5.48-2.495
				c0.691-0.666,2.143-2.569,1.236-3.744c-0.9-1.167-2.49,0.371-3.215,0.898c-2.551,1.86-4.894,2.75-8.081,1.758
				c-1.279-0.397-2.56-1.08-3.714-1.838C94.981,52.599,94.245,52.091,93.779,52.393z"/>
			<path fill="#EECFB1" d="M95.669,49.451c-0.733,0.521-0.627,1.186-0.157,1.82c0.014,0.049,0.014,0.095,0.04,0.145
				c0.776,1.489,2.403,2.961,4.186,2.425c0.36-0.107,0.522-0.603,0.375-0.923C99.498,51.577,97.524,48.135,95.669,49.451z"/>
			<path fill="#EECFB1" d="M96.025,45.95c-0.181,0.038-0.352,0.138-0.474,0.271c-0.163,0.104-0.293,0.244-0.355,0.421
				c-0.098,0.287,0.024,0.567,0.253,0.75c0.151,0.12,0.316,0.136,0.487,0.123c0.039,0.021,0.083,0.035,0.134,0.041
				c0.334,0.037,0.68,0.109,1.003-0.021c0.321-0.13,0.524-0.48,0.484-0.82C97.476,46.015,96.588,45.832,96.025,45.95z"/>
		</g>
		<path fill="#FFF2DF" d="M85.892,36.423c-0.084,0.011-0.167,0.04-0.246,0.086c-0.097,0.046-0.191,0.104-0.275,0.168
			c-0.014,0.01-0.018,0.023-0.03,0.034c-0.308,0.223-0.384,0.612-0.325,0.999c0.017,0.488,0.261,1.061,0.773,1.082
			c0.519,0.021,0.862-0.467,1.021-0.902c0.057-0.157,0.066-0.31,0.055-0.458c0.045-0.251-0.049-0.537-0.214-0.755
			C86.447,36.408,86.166,36.359,85.892,36.423z"/>
		<path fill="#FFF2DF" d="M57.713,52.629c-0.451-0.198-0.972-0.132-1.211,0.336c-0.092,0.178-0.125,0.384-0.126,0.593
			c-0.12,0.493,0.033,1.093,0.434,1.416c0.596,0.48,1.255,0.009,1.494-0.599C58.557,53.73,58.392,52.926,57.713,52.629z
			 M57.633,53.998c-0.029,0.117-0.081,0.236-0.159,0.327c-0.05,0.06-0.136,0.101-0.113,0.103c-0.054-0.008-0.096-0.048-0.132-0.095
			c0.02-0.063,0.028-0.133,0-0.216c-0.031-0.092-0.078-0.263-0.096-0.427c0.057-0.089,0.142-0.159,0.264-0.174
			c0.074-0.008,0.126-0.035,0.171-0.07C57.681,53.596,57.678,53.819,57.633,53.998z"/>
		<path fill="#FEF5F9" d="M97.396,50.292c-0.106-0.101-0.228-0.116-0.34-0.09c-0.332-0.13-0.71,0.052-0.833,0.388
			c-0.207,0.563,0.212,1.17,0.57,1.577c0.329,0.374,0.962,0.651,1.264,0.084C98.406,51.602,97.866,50.728,97.396,50.292z"/>
		<path fill="#FEF5F9" d="M52.333,75.749c-0.146-0.254-0.32-0.485-0.54-0.632c-0.015-0.01-0.033-0.011-0.048-0.02
			c-0.003-0.002-0.007-0.003-0.011-0.005c-0.305-0.164-0.693-0.094-0.939,0.139c-0.297,0.282-0.174,0.729-0.033,1.05
			c0.23,0.515,0.935,1.449,1.576,1.306c0.458-0.103,0.486-0.757,0.396-1.111C52.666,76.208,52.51,75.973,52.333,75.749z"/>
	</g>
	<path fill="#FEF5F9" d="M107.699,124.35c-0.694-0.086-0.912,0.902-0.898,1.393c0.02,0.627,0.164,1.541,0.658,1.979
		c0.013,0.029,0.016,0.064,0.034,0.088c0.086,0.182,0.311,0.299,0.524,0.178c0.709-0.398,1.002-1.594,0.765-2.451
		C108.658,124.969,108.313,124.428,107.699,124.35z"/>
	<path fill="#FDB515" d="M104.068,11.527c-3.603,2.833-7.187,5.657-11.023,8.173c-2.825,1.854-8.241,5.645-12.312,5.1
		c5.637-2.222,10.015-6.428,14.584-10.467c0.86-0.76-0.387-2.027-1.246-1.27c-4.061,3.589-7.96,7.368-12.831,9.594
		c2.855-3.123,4.451-7.367,6.873-10.857c0.655-0.944-0.876-1.851-1.527-0.912c-3.009,4.336-4.672,10.164-9.522,12.872
		c-0.572,0.319-0.521,0.954-0.194,1.342c0.123,0.413,0.496,0.749,1.035,0.614c0.021-0.006,0.042-0.013,0.063-0.018
		c4.081,2.575,9.97-0.899,13.518-2.943c4.934-2.842,9.366-6.45,13.828-9.958C106.216,12.091,104.963,10.827,104.068,11.527z"/>
	<path fill="#FDB515" d="M53.649,37.482c-0.177-0.049-0.378-0.027-0.584,0.118c-8.147,5.693-17.216,4.016-26.513,3.464
		c-1.048-0.062-1.076,1.562-0.036,1.623c7.416,0.44,14.652,1.488,21.427-0.73c-5.306,2.723-11.58,2.787-17.521,4.156
		c-1.02,0.235-0.622,1.809,0.396,1.572c7.136-1.644,14.54-1.571,20.471-5.894c-3.838,5.022-11.294,8.332-16.757,9.722
		c-1.014,0.258-0.618,1.83,0.396,1.573c7.38-1.878,17.586-6.875,19.984-14.747C55.159,37.526,54.19,37.095,53.649,37.482z"/>
</g>
</svg>
