<?xml version="1.0" encoding="utf-8"?>
<!-- Generator: Adobe Illustrator 14.0.0, SVG Export Plug-In . SVG Version: 6.00 Build 43363)  -->
<!DOCTYPE svg PUBLIC "-//W3C//DTD SVG 1.1//EN" "http://www.w3.org/Graphics/SVG/1.1/DTD/svg11.dtd">
<svg version="1.1" id="Layer_1" xmlns="http://www.w3.org/2000/svg" xmlns:xlink="http://www.w3.org/1999/xlink" x="0px" y="0px"
	 width="200px" height="200px" viewBox="0 0 200 200" enable-background="new 0 0 200 200" xml:space="preserve">
<g>
	<path fill="#F7901E" stroke="#49053D" stroke-width="1.1623" stroke-miterlimit="10" d="M57.591,66.011
		c0,0-26.015-18.936-29.167-21.735c-3.153-2.799,5.101,0.177,13.357,4.827c8.255,4.651,21.503,13.087,18.88,11.137
		c-2.623-1.949-22.528-21.931-21.705-24.758s25.84,24.041,26.087,20.799c0.248-3.239-18.235-25.016-16.033-27.523
		c2.201-2.508,22.138,23.125,22.319,21.38c0.181-1.746-15.844-24.241-12.75-27.713c3.096-3.474,17.921,29.75,19.661,24.899
		s-9.069-25.743-6.088-28.964c2.983-3.222,11.67,28.75,13.895,25.184c2.224-3.564-4.866-26.277-1.398-28.212
		c3.465-1.936,8.775,29.419,11.321,26.153c2.545-3.268,0.671-26.056,5.014-26.225c4.342-0.167,2.246,26.007,6.308,23.427
		c4.063-2.579,7.805-19.933,11.828-18.72c4.021,1.21-5.701,29.417,0.29,25.273s11.961-21.708,15.454-21.346
		c3.492,0.361-10.134,28.781-4.006,25.004c6.129-3.776,20.092-23.513,24.529-21.199c4.438,2.314-18.519,30.472-12.112,27.429
		c6.406-3.042,16.343-11.191,17.679-8.758c1.337,2.433-15.668,15.761-10.455,14.008c5.212-1.754,20.09-9.036,21.287-6.972
		c1.197,2.066-9.566,9.688-14.291,14.405c-4.727,4.719-3.506,7.405,3.892,5.876c7.394-1.527,21.706-4.191,24.351-3.299
		c2.643,0.892-2.177,4.805-7.94,6.766c-5.764,1.963-18.257,6.669-18.3,8.782c-0.041,2.114,3.844,2.959,14.184,3.679
		c10.34,0.719,21.876,1.827,21.053,4.653c-0.822,2.828-18.626,5.13-23.45,5.689c-4.823,0.559-11.28,0.685-12.265,2.522
		c-0.985,1.841,25.531,3.178,26.805,8.782c1.271,5.604-21.141-0.427-26.697,2.086c-5.555,2.512,5.069,9,12.936,14.846
		c7.868,5.848,8.313,10.924,6.291,11.685c-2.02,0.762-20.789-12.307-25.866-11.86c-5.077,0.445-2.888,4.024,3.99,10.032
		c6.88,6.012,12.265,11.954,10.476,13.886c-1.789,1.934-22.66-17.267-25.022-15.745c-2.364,1.52,7.058,17.059,3.313,18.259
		c-3.742,1.203-8.827-17.86-13.142-13.718c-4.311,4.142,3.983,19.479-0.727,19.784s-8.102-24.85-11.515-16.641
		c-3.41,8.208,2.287,22.214-0.975,23.025c-3.262,0.807-8.01-24.045-11.152-20.135c-3.141,3.91,0.247,25.71-4.417,25.579
		c-4.666-0.13-4.982-27.701-8.032-22.986c-3.049,4.715-0.829,28.422-7.124,29.535c-6.294,1.113-2.698-36.114-7.309-31.65
		c-4.611,4.464-7.956,25.653-14,25.204c-6.043-0.451,9.848-36.226,2.459-29.666c-7.389,6.561-21.424,24.435-24.69,21.889
		c-3.267-2.545,17.901-28.771,13.974-27.503c-3.927,1.271-16.494,16.914-22.615,11.248c-6.121-5.667,19.134-19.376,16.53-24.059
		c-2.604-4.683-26.387,8.473-29.679,5.309c-3.289-3.166,16.46-9.769,19.602-13.68c3.142-3.91-19.135,3.223-26.424-0.533
		c-7.289-3.759-0.493-6.318,8.467-7.596c8.958-1.277,15.389-3.699,15.133-5.49c-0.257-1.794-36.041,6.234-34.329-0.913
		c1.712-7.148,36.344-3.204,37.417-7.594c1.074-4.391-33.718-7.646-33.427-12.999c0.289-5.354,38.747,5.96,36.42,2.012
		c-2.327-3.948-30.051-14.062-28.817-17.464c1.237-3.402,25.539,8.209,30.918,9.121c5.378,0.909-21.157-12.17-23.141-16.876
		c-1.983-4.708,5.967-4.766,16.155,1.675c10.188,6.44,13.822,8.848,15.707,9.396C58.401,69.272,57.591,66.011,57.591,66.011z"/>
	
		<path fill="#FAA819" stroke="#49053D" stroke-width="1.1623" stroke-linecap="round" stroke-linejoin="round" stroke-miterlimit="10" d="
		M53.331,112.305c0,0-8.668-17.208,2.188-36.404s36.286-31.36,62.483-26.722c26.195,4.642,39.928,29.482,35.848,51.891
		c-3.877,21.293-19.845,34.906-43.176,38.926c-23.333,4.021-36.709-4.237-43.512-9.446
		C57.942,123.487,53.331,112.305,53.331,112.305z"/>
	<path fill="#49053D" d="M77.98,83.624c0.631,2.347-2.612,3.817-3.14,1.106c-0.143-0.733-1.311-0.646-1.166,0.096
		c0.335,1.721,1.569,2.947,3.394,2.488c1.809-0.456,2.449-2.466,2.011-4.092C78.884,82.494,77.786,82.9,77.98,83.624z"/>
	<path fill="#49053D" d="M119.883,69.209c0.172,1.192-0.102,2.283-0.906,3.194c-0.414,0.467-1.008,0.654-1.604,0.717
		c-0.271,0.027-2.061-0.25-1.809-0.891c0.273-0.7-0.779-1.211-1.057-0.508c-0.741,1.896,2.019,2.814,3.453,2.497
		c2.292-0.51,3.403-2.912,3.09-5.104C120.943,68.371,119.777,68.461,119.883,69.209z"/>
	<path fill="#49053D" d="M102.721,88.642c0.051-0.744-1.098-0.97-1.15-0.219c-0.158,2.285,1.747,2.842,3.467,3.681
		c2.684,1.31-1.33,3.329-2.802,2.24c-0.604-0.446-1.366,0.442-0.759,0.894c1.508,1.114,5.297,0.507,5.688-1.647
		C107.73,90.478,102.539,91.249,102.721,88.642z"/>
	<path fill="#49053D" d="M121.184,98.508c-0.5-0.347-1.249-0.392-1.72-0.006c-0.522,0.43,0.205,1.384,0.438,1.757
		c0.256,0.411,0.843-0.066,0.588-0.476c-0.641-0.789-0.392-0.877,0.744-0.265c0.365,0.352,0.568,0.854,0.767,1.313
		c0.354,0.815,0.425,1.659,0.399,2.536c-0.061,2.228-1.186,4.396-2.304,6.264c-0.896,1.496-1.972,2.886-3.058,4.246
		c-1.678,2.098-4.445,2.962-6.951,3.556c-3.859,0.915-7.84,1.428-11.759,0.617c-2.182-0.452-4.199-1.467-5.946-2.828
		c-0.743-0.578-1.386-1.264-1.971-1.996c-0.352-0.439-0.659-0.904-0.944-1.39c-0.057-0.098-0.831-2.835,0.078-2.217
		c0.402,0.274,0.852-0.332,0.448-0.609c-1.478-1.007-2.031,1.203-1.586,2.312c1.048,2.618,3.327,4.628,5.739,5.975
		c5.31,2.966,12.33,2.17,17.9,0.399c3.215-1.023,5.162-2.696,7.137-5.363c1.842-2.486,3.471-5.272,3.924-8.374
		C123.385,102.062,122.836,99.649,121.184,98.508z"/>
	<path fill="#F26722" d="M148.361,79.646c-0.756-1.71-1.9-3.023-3.272-4.004c-2.604-3.057-6.215-4.699-11.042-4.37
		c-6.641,0.454-14.131,4.945-15.555,11.8c-1.306,6.278,4.785,11.273,9.762,13.615c5.178,2.437,11.277,0.977,15.739-2.288
		C148.656,90.985,150.751,85.048,148.361,79.646z"/>
	<path fill="#F26722" d="M85.49,101.361c-1.037-4.024-3.718-6.493-7.09-8.053c-2.833-1.792-6.171-2.769-9.916-2.737
		c-6.377,0.055-13.546,4.374-14.587,10.999c-0.939,5.982,3.226,11.237,7.933,14.287c2.715,1.76,6.144,2.368,9.315,2.012
		c2.67-0.3,4.911-1.655,6.82-3.435c1.366-0.659,2.572-1.542,3.44-2.646c1.266-1,2.325-2.195,3.076-3.586
		c0.83-1.534,1.206-3.06,1.222-4.535c0.083-0.401,0.093-0.857-0.001-1.37c-0.059-0.315-0.13-0.62-0.206-0.918
		c0.001-0.001,0.001-0.001,0.004-0.001C85.497,101.371,85.494,101.367,85.49,101.361z"/>
	<path fill="#F04B48" d="M69.293,96.4c-0.479-0.493-1.115-0.73-1.776-0.768c-0.133-0.053-0.269-0.104-0.409-0.146
		c-2.802-0.844-6.02,0.479-7.382,3.045c-1.674,3.147,0.705,6.871,3.836,7.738c2.325,0.644,4.836-0.369,6.437-2.061
		c0.989-1.044,1.336-2.444,1.335-3.837C71.333,98.807,70.32,97.462,69.293,96.4z"/>
	<path fill="#F04B48" d="M133.938,73.757c-1.257-0.21-2.195,0.346-2.728,1.174c-0.516,0.229-0.977,0.64-1.303,1.273
		c-0.949,1.844-2.065,3.705-2.07,5.846c-0.004,1.408,0.8,2.759,2.059,3.404c1.444,0.741,2.98,0.46,4.486,0.126
		c2.844-0.631,5.118-3.376,5.135-6.265C139.535,76.191,136.75,74.227,133.938,73.757z"/>
</g>
</svg>
