<?xml version="1.0" encoding="utf-8"?>
<!-- Generator: Adobe Illustrator 14.0.0, SVG Export Plug-In . SVG Version: 6.00 Build 43363)  -->
<!DOCTYPE svg PUBLIC "-//W3C//DTD SVG 1.1//EN" "http://www.w3.org/Graphics/SVG/1.1/DTD/svg11.dtd">
<svg version="1.1" id="Layer_1" xmlns="http://www.w3.org/2000/svg" xmlns:xlink="http://www.w3.org/1999/xlink" x="0px" y="0px"
	 width="200px" height="200px" viewBox="0 0 200 200" enable-background="new 0 0 200 200" xml:space="preserve">
<g>
	<path fill="#010101" d="M60.302,175.09l-0.265,0.519l1.051,0.531l0.258-0.522c0.04,0.021,0.085,0.033,0.115,0.05l-0.239,0.539
		l1.075,0.473l0.24-0.531c0.039,0.016,0.076,0.027,0.123,0.046l-0.216,0.545l1.095,0.424l0.212-0.549
		c0.041,0.016,0.076,0.027,0.117,0.044l-0.186,0.555l1.121,0.372l0.191-0.564c0.032,0.014,0.07,0.021,0.113,0.038l-0.15,0.567
		l1.128,0.312l0.153-0.573c0.044,0.016,0.082,0.019,0.127,0.027l-0.127,0.58l1.146,0.258l0.123-0.581
		c0.044,0.008,0.09,0.013,0.126,0.025l-0.097,0.585l1.155,0.189l0.096-0.583c0.012,0.006,0.025,0.006,0.039,0.006
		c0.029,0.004,0.06,0.006,0.091,0.016l-0.067,0.587l1.163,0.132l0.069-0.584c0.044,0.01,0.085,0.011,0.127,0.012l-0.044,0.592
		l1.176,0.077l0.041-0.588c0.042,0.003,0.084,0.003,0.124,0.006l-0.015,0.594l1.182,0.015l0.007-0.593
		c0.049,0.006,0.093,0.004,0.125,0l0.022,0.593l1.171-0.041l-0.016-0.588c0.042,0.001,0.079,0,0.129,0l0.043,0.585l1.172-0.099
		l-0.056-0.59c0.045-0.002,0.086-0.002,0.132-0.007l0.074,0.582l1.165-0.157l-0.077-0.581c0.047-0.008,0.088-0.016,0.123-0.016
		l0.108,0.574l1.155-0.218l-0.11-0.57c0.047-0.009,0.086-0.017,0.131-0.028l0.136,0.57l1.141-0.271l-0.134-0.576
		c0.044-0.004,0.081-0.021,0.119-0.026l0.167,0.56l1.125-0.32l-0.16-0.569c0.04-0.007,0.079-0.026,0.119-0.033l0.198,0.549
		l1.105-0.384l-0.192-0.551c0.041-0.021,0.072-0.029,0.113-0.051l0.22,0.554l1.095-0.444l-0.222-0.548
		c0.041-0.012,0.079-0.027,0.115-0.041l0.253,0.529l1.061-0.485l-0.248-0.539c0.037-0.016,0.076-0.036,0.115-0.057l0.27,0.523
		l1.05-0.539l-0.273-0.532c0.032-0.02,0.068-0.042,0.103-0.057l0.301,0.505l1.007-0.591l-0.294-0.517
		c0.04-0.022,0.071-0.039,0.104-0.063l0.327,0.498l0.987-0.643l-0.334-0.503c0.04-0.021,0.076-0.044,0.112-0.074l0.342,0.485
		l0.949-0.693l-0.345-0.479c0.031-0.026,0.066-0.056,0.102-0.078l0.366,0.465l0.918-0.74l-0.38-0.466
		c0.041-0.025,0.071-0.052,0.1-0.078l0.396,0.438l0.872-0.786l-0.394-0.437c0.032-0.034,0.064-0.057,0.098-0.088l0.408,0.424
		l0.843-0.83l-0.421-0.417c0.033-0.033,0.058-0.059,0.092-0.092l0.431,0.401l0.79-0.867l-0.427-0.398
		c0.027-0.033,0.054-0.063,0.079-0.099l0.46,0.374l0.738-0.902l-0.444-0.378c0.021-0.033,0.049-0.06,0.069-0.098l0.476,0.354
		l0.7-0.945l-0.475-0.346c0.033-0.038,0.054-0.069,0.079-0.104l0.488,0.324l0.653-0.978l-0.487-0.325
		c0.024-0.029,0.043-0.068,0.064-0.104l0.508,0.301l0.604-1.005l-0.497-0.304c0.016-0.031,0.036-0.071,0.06-0.11l0.514,0.271
		l0.556-1.03l-0.527-0.277c0.021-0.038,0.042-0.075,0.064-0.114l0.525,0.254l0.505-1.066l-0.529-0.248
		c0.017-0.042,0.029-0.076,0.049-0.115l0.544,0.221l0.446-1.09l-0.547-0.217c0.021-0.047,0.029-0.082,0.052-0.12l0.545,0.195
		l0.397-1.106l-0.555-0.201c0.011-0.033,0.029-0.074,0.035-0.114l0.569,0.175l0.335-1.132l-0.565-0.166
		c0.009-0.042,0.015-0.082,0.029-0.123l0.58,0.144l0.278-1.144l-0.574-0.141c0.01-0.042,0.019-0.083,0.026-0.124l0.582,0.114
		l0.224-1.161l-0.581-0.105c0.01-0.045,0.007-0.089,0.014-0.127l0.59,0.084l0.168-1.159l-0.586-0.082
		c-0.001-0.05,0.002-0.085,0.013-0.128l0.593,0.059l0.104-1.176l-0.591-0.05c-0.002-0.044,0.004-0.082,0.01-0.13l0.586,0.027
		l0.058-1.181l-0.601-0.019c0.013-0.045,0.005-0.081,0.013-0.12l0.586-0.018l-0.008-1.173l-0.595,0.012
		c0.003-0.041,0.007-0.088,0-0.128l0.588-0.035l-0.07-1.173l-0.587,0.038c-0.002-0.044-0.001-0.087-0.004-0.13l0.582-0.069
		l-0.129-1.162l-0.581,0.063c-0.012-0.041-0.019-0.081-0.021-0.127l0.578-0.089l-0.186-1.158l-0.575,0.092
		c-0.007-0.044-0.012-0.083-0.02-0.119l0.567-0.131l-0.242-1.153l-0.564,0.128c-0.015-0.043-0.025-0.084-0.034-0.121l0.563-0.151
		l-0.299-1.136l-0.568,0.146c-0.008-0.04-0.024-0.076-0.036-0.119l0.564-0.172l-0.358-1.123l-0.564,0.179
		c-0.007-0.042-0.027-0.078-0.038-0.114l0.55-0.214l-0.408-1.096l-0.552,0.205c-0.02-0.04-0.041-0.078-0.046-0.118l0.54-0.233
		l-0.467-1.077l-0.542,0.236c-0.018-0.045-0.041-0.079-0.052-0.112l0.531-0.267l-0.523-1.054l-0.528,0.261
		c-0.019-0.038-0.042-0.074-0.064-0.112l0.52-0.287l-0.568-1.022l-0.52,0.286c-0.02-0.037-0.045-0.071-0.064-0.114l0.503-0.309
		l-0.618-0.994l-0.509,0.317c-0.025-0.044-0.044-0.075-0.067-0.11l0.494-0.342l-0.675-0.959l-0.489,0.337
		c-0.031-0.039-0.048-0.069-0.078-0.107l0.476-0.358l-0.72-0.93l-0.474,0.361c-0.024-0.034-0.051-0.063-0.074-0.099l0.451-0.38
		l-0.761-0.903l-0.459,0.393c-0.024-0.035-0.05-0.063-0.075-0.092l0.423-0.409l-0.805-0.848l-0.429,0.399
		c-0.03-0.031-0.058-0.062-0.083-0.09l0.405-0.427l-0.847-0.813l-0.411,0.422c-0.028-0.021-0.063-0.052-0.096-0.08l0.386-0.444
		l-0.878-0.769l-0.386,0.447c-0.041-0.032-0.071-0.054-0.098-0.083l0.358-0.47l-0.922-0.715l-0.37,0.463
		c-0.025-0.028-0.06-0.054-0.099-0.076l0.34-0.485l-0.957-0.677l-0.337,0.48c-0.035-0.026-0.075-0.049-0.104-0.064l0.315-0.498
		l-0.995-0.637l-0.316,0.499c-0.033-0.017-0.071-0.039-0.108-0.06l0.288-0.514l-1.018-0.577l-0.296,0.511
		c-0.032-0.019-0.071-0.039-0.108-0.06l0.263-0.528l-1.048-0.522l-0.262,0.521c-0.036-0.021-0.072-0.033-0.12-0.053l0.241-0.539
		l-1.076-0.475l-0.236,0.545c-0.041-0.017-0.079-0.039-0.117-0.045l0.209-0.559l-1.097-0.414l-0.211,0.55
		c-0.036-0.013-0.081-0.03-0.121-0.037l0.185-0.564l-1.118-0.362l-0.182,0.564c-0.037-0.013-0.081-0.023-0.118-0.045l0.156-0.563
		l-1.133-0.309l-0.156,0.565c-0.04-0.002-0.081-0.018-0.127-0.027l0.127-0.573l-1.14-0.257l-0.136,0.577
		c-0.038-0.004-0.078-0.014-0.12-0.014l0.096-0.587l-1.156-0.197l-0.101,0.58c-0.042-0.002-0.082-0.005-0.121-0.011l0.07-0.592
		l-1.17-0.137l-0.071,0.593c-0.039-0.007-0.081-0.01-0.123-0.013l0.041-0.592l-1.173-0.074l-0.038,0.588
		c-0.042-0.004-0.087,0-0.128,0l0.011-0.591l-1.174-0.024l-0.014,0.59c-0.042-0.003-0.081,0.002-0.122,0.001l-0.019-0.591
		l-1.173,0.048l0.019,0.583c-0.046,0.002-0.092,0.006-0.128,0.006l-0.048-0.586l-1.173,0.096l0.057,0.592
		c-0.045,0.002-0.091,0.006-0.136,0.012l-0.076-0.579l-1,0.132c-1.738-3.918-2.846-4.8-2.846-4.8l-0.306-0.897l0.591-0.221
		l-0.292-0.776l-0.352-0.132l-0.383-0.974l19.721-0.942c-0.096,0.136-0.176,0.274-0.228,0.416c-0.659,1.96,0.301,2.813,1.842,3.227
		c1.557,0.414,8.868,0.508,10.678,0.735c0.671,0.078,1.967,0.167,3.43,0.235c-0.021,0.139-0.028,0.28-0.007,0.428
		c0.079,1.111,1.049,1.945,2.162,1.854c0.529-0.035,0.995-0.29,1.329-0.648c0.201,0.069,0.421,0.096,0.648,0.083
		c0.22-0.029,0.432-0.082,0.614-0.177c0.389,0.306,0.891,0.476,1.428,0.438c0.934-0.076,1.68-0.786,1.822-1.686
		c2.494,0.153,6.366,0.479,6.604-0.779c0.205-1.06,0.089-1.904,0.009-2.294c0.016-0.008,0.035-0.017,0.042-0.027
		c-0.013,0.099,0.006,0.194,0.069,0.285c0.12,0.181,0.369,0.228,0.554,0.101c0.111-0.072,0.164-0.198,0.164-0.324
		c0.079,0.062,0.145,0.163,0.172,0.277c-0.085,0.129-0.098,0.294-0.016,0.438c-0.02,0.06-0.043,0.119-0.078,0.171
		c0.147,0.065,0.296,0.132,0.447,0.188c0.01-0.066,0.047-0.123,0.076-0.186c0.039-0.014,0.083-0.023,0.123-0.051
		c0.086-0.061,0.142-0.148,0.168-0.247c0.072-0.04,0.151-0.059,0.233-0.063c-0.146,0.134-0.171,0.345-0.063,0.513
		c0.131,0.184,0.377,0.222,0.557,0.101c0.074-0.05,0.113-0.121,0.143-0.189c0.054,0.157,0.056,0.32,0.005,0.466
		c0.153,0.025,0.327,0.048,0.485,0.058c-0.012-0.048,0.01-0.094,0.014-0.139c0.085-0.003,0.177-0.016,0.257-0.073
		c0.152-0.105,0.207-0.309,0.132-0.479c0.051-0.016,0.096-0.019,0.144-0.029c-0.07,0.127-0.073,0.288,0.014,0.407
		c0.124,0.188,0.38,0.237,0.556,0.109c0.057-0.035,0.086-0.074,0.122-0.125c0.033,0.094,0.059,0.194,0.049,0.295
		c0.163-0.015,0.322-0.05,0.484-0.081c-0.036-0.065-0.038-0.14-0.044-0.208c0.119,0.054,0.271,0.052,0.383-0.027
		c0.187-0.131,0.235-0.373,0.11-0.556c-0.023-0.034-0.053-0.058-0.084-0.081c0.062-0.022,0.126-0.032,0.193-0.034
		c-0.018,0.104,0.005,0.207,0.061,0.295c0.126,0.183,0.368,0.23,0.55,0.104c0.021,0.041,0.042,0.066,0.048,0.104
		c0.151-0.066,0.295-0.133,0.439-0.218c-0.095-0.108-0.134-0.243-0.144-0.382c0.01,0.011,0.004,0.022,0.014,0.028
		c0.127,0.183,0.373,0.226,0.551,0.104c0.125-0.081,0.175-0.214,0.165-0.347l0.28-0.174c0.126,0.102,0.308,0.107,0.453,0.012
		c0.148-0.103,0.203-0.279,0.152-0.433l0.208-0.155c0.126,0.056,0.277,0.06,0.397-0.029c0.132-0.087,0.19-0.242,0.169-0.387
		l0.217-0.157c0.132,0.081,0.296,0.078,0.431-0.011c0.133-0.088,0.192-0.245,0.168-0.394l0.217-0.15
		c0.127,0.078,0.294,0.084,0.432-0.01c0.134-0.089,0.191-0.248,0.166-0.396l0.22-0.147c0.131,0.078,0.296,0.076,0.428-0.012
		c0.051-0.027,0.084-0.073,0.122-0.116l0,0c1.254,1.961,2.285,0.886,3.681,0.154c0.097-0.043,0.218-0.119,0.348-0.205l-0.221,0.24
		l0.857,0.805l0.402-0.437c0.032,0.034,0.061,0.056,0.098,0.092l-0.387,0.444l0.897,0.758l0.382-0.449
		c0.036,0.027,0.062,0.057,0.095,0.074l-0.353,0.472l0.932,0.712l0.355-0.464c0.036,0.022,0.074,0.045,0.102,0.073l-0.33,0.481
		l0.972,0.664l0.332-0.48c0.035,0.019,0.064,0.042,0.106,0.072l-0.309,0.494l0.996,0.622l0.305-0.505
		c0.044,0.025,0.077,0.042,0.113,0.063l-0.279,0.521l1.029,0.558l0.284-0.514c0.039,0.02,0.076,0.032,0.107,0.049l-0.252,0.533
		l1.056,0.514l0.258-0.528c0.037,0.018,0.074,0.04,0.11,0.053l-0.229,0.546l1.079,0.453l0.236-0.541
		c0.042,0.015,0.077,0.027,0.114,0.04l-0.199,0.563l1.096,0.401l0.207-0.559c0.04,0.015,0.084,0.029,0.118,0.045l-0.17,0.563
		l1.121,0.356l0.172-0.57c0.039,0.008,0.083,0.018,0.123,0.031l-0.148,0.576l1.139,0.291l0.15-0.577
		c0.039,0.016,0.077,0.021,0.116,0.028l-0.11,0.584l1.144,0.235l0.125-0.582c0.037,0.007,0.078,0.015,0.114,0.021l-0.084,0.591
		l1.161,0.183l0.086-0.599c0.047,0.011,0.092,0.015,0.131,0.023l-0.063,0.586l1.165,0.121l0.066-0.588
		c0.039,0.001,0.081,0.005,0.122,0.005l-0.032,0.598l1.17,0.059l0.037-0.591c0.041,0.004,0.083,0.005,0.123,0.007l-0.001,0.594
		l1.174-0.001l0.005-0.593c0.047,0.003,0.082,0.002,0.123-0.007l0.024,0.597l1.177-0.051l-0.027-0.596
		c0.045-0.006,0.085-0.002,0.131-0.007l0.054,0.583l1.175-0.11l-0.062-0.585c0.038-0.007,0.078-0.014,0.125-0.017l0.085,0.586
		l1.159-0.177l-0.088-0.586c0.046-0.003,0.094-0.012,0.128-0.021l0.116,0.582l1.154-0.229l-0.114-0.578
		c0.035-0.01,0.081-0.018,0.123-0.024l0.144,0.568l1.137-0.291l-0.141-0.562c0.037-0.021,0.071-0.03,0.118-0.04l0.174,0.56
		l1.123-0.339l-0.171-0.563c0.038-0.015,0.072-0.029,0.113-0.042l0.199,0.555l1.112-0.397l-0.204-0.56
		c0.033-0.008,0.074-0.029,0.119-0.048l0.23,0.545l1.083-0.448l-0.235-0.548c0.035-0.016,0.077-0.037,0.113-0.051l0.259,0.533
		l1.06-0.507l-0.261-0.533c0.04-0.02,0.077-0.034,0.117-0.057l0.279,0.517l1.03-0.559l-0.277-0.52
		c0.038-0.022,0.081-0.041,0.106-0.068l0.313,0.513l1.005-0.614l-0.315-0.507c0.03-0.014,0.052-0.029,0.074-0.044l0.329,0.493
		l0.98-0.655l-0.337-0.497c0.028-0.014,0.057-0.034,0.08-0.056l0.349,0.475l0.946-0.701l-0.356-0.474
		c0.025-0.021,0.053-0.041,0.078-0.063l0.378,0.456l0.903-0.754l-0.379-0.457c0.036-0.022,0.068-0.055,0.098-0.082l0.395,0.438
		l0.871-0.794l-0.405-0.436c0.031-0.031,0.062-0.06,0.098-0.086l0.415,0.417l0.834-0.842l-0.427-0.413
		c0.033-0.03,0.063-0.056,0.093-0.09l0.438,0.391l0.783-0.879l-0.44-0.383c0.027-0.034,0.048-0.065,0.083-0.099l0.459,0.37
		l0.731-0.914l-0.452-0.372c0.021-0.028,0.051-0.063,0.075-0.097l0.476,0.346l0.692-0.948l-0.474-0.347
		c0.021-0.038,0.047-0.072,0.074-0.107l0.485,0.324l0.643-0.982l-0.492-0.32c0.022-0.039,0.043-0.076,0.066-0.105l0.511,0.296
		l0.592-1.021l-0.51-0.297c0.026-0.032,0.045-0.066,0.068-0.109l0.517,0.271l0.537-1.04l-0.52-0.274
		c0.017-0.031,0.04-0.075,0.06-0.108l0.532,0.244l0.488-1.069l-0.535-0.244c0.015-0.042,0.035-0.08,0.042-0.118l0.552,0.219
		l0.439-1.088l-0.543-0.225c0.005-0.037,0.021-0.078,0.034-0.112l0.563,0.188l0.378-1.113l-0.559-0.19
		c0.016-0.038,0.022-0.08,0.032-0.123l0.572,0.168l0.327-1.13l-0.577-0.16c0.014-0.038,0.027-0.086,0.039-0.122l0.578,0.135
		l0.265-1.149l-0.575-0.134c0.005-0.038,0.017-0.082,0.023-0.123l0.582,0.104l0.209-1.154l-0.578-0.101
		c0.002-0.045,0.003-0.088,0.011-0.126l0.598,0.072l0.149-1.169l-0.591-0.072c0.004-0.042,0.011-0.083,0.015-0.126l0.588,0.051
		l0.094-1.172l-0.587-0.041c-0.002-0.046,0.008-0.088,0.01-0.131l0.589,0.021l0.042-1.174l-0.599-0.017
		c-0.004-0.046,0.002-0.085,0.002-0.135l0.597-0.003l-0.029-1.175l-0.585,0.009c-0.008-0.042-0.012-0.085-0.005-0.123l0.586-0.039
		l-0.084-1.18l-0.588,0.042c-0.009-0.038-0.011-0.088-0.011-0.125l0.585-0.072l-0.138-1.16l-0.592,0.07
		c-0.002-0.047-0.008-0.091-0.013-0.128l0.579-0.1l-0.197-1.161l-0.581,0.104c-0.002-0.046-0.012-0.079-0.021-0.126l0.573-0.129
		l-0.262-1.144l-0.565,0.129c-0.012-0.044-0.025-0.085-0.029-0.125l0.563-0.149l-0.314-1.137l-0.559,0.154
		c-0.015-0.038-0.026-0.079-0.047-0.12l0.563-0.186l-0.368-1.116l-0.559,0.189c-0.016-0.044-0.028-0.079-0.042-0.116l0.55-0.22
		l-0.427-1.093l-0.541,0.213c-0.024-0.035-0.041-0.08-0.056-0.117l0.535-0.236l-0.471-1.075l-0.543,0.24
		c-0.016-0.038-0.04-0.079-0.052-0.114l0.523-0.265l-0.532-1.049l-0.522,0.265c-0.021-0.035-0.041-0.066-0.063-0.105l0.511-0.295
		l-0.576-1.018l-0.516,0.289c-0.021-0.04-0.044-0.074-0.064-0.112l0.496-0.314l-0.624-0.991l-0.505,0.319
		c-0.023-0.035-0.044-0.07-0.076-0.106l0.48-0.345l-0.678-0.955l-0.487,0.348c-0.008-0.011-0.012-0.028-0.016-0.036
		c-0.023-0.022-0.038-0.044-0.054-0.068l0.464-0.368l-0.728-0.924l-0.46,0.37c-0.027-0.029-0.06-0.069-0.088-0.098l0.45-0.391
		l-0.774-0.879l-0.444,0.385c-0.029-0.032-0.054-0.059-0.078-0.093l0.416-0.407l-0.815-0.846L166.934,79
		c-0.028-0.028-0.06-0.06-0.092-0.091l0.406-0.427l-0.859-0.807l-0.4,0.437c-0.034-0.034-0.062-0.062-0.096-0.088l0.382-0.446
		l-0.898-0.76l-0.382,0.448c-0.031-0.031-0.062-0.055-0.091-0.077l0.355-0.469l-0.937-0.716l-0.357,0.468
		c-0.027-0.022-0.069-0.051-0.1-0.076l0.334-0.484l-0.975-0.663l-0.33,0.484c-0.034-0.027-0.068-0.044-0.103-0.071l0.311-0.495
		l-1.005-0.617l-0.305,0.498c-0.036-0.022-0.075-0.042-0.108-0.06l0.289-0.523l-1.034-0.561l-0.284,0.513
		c-0.04-0.02-0.078-0.041-0.108-0.06l0.249-0.53l-1.05-0.507l-0.263,0.523c-0.029-0.018-0.077-0.038-0.112-0.05l0.229-0.545
		l-1.076-0.46l-0.229,0.545c-0.047-0.019-0.082-0.032-0.118-0.044l0.204-0.56l-1.104-0.401l-0.203,0.551
		c-0.045-0.011-0.081-0.022-0.123-0.04l0.18-0.565l-1.118-0.349l-0.181,0.558c-0.04-0.004-0.082-0.017-0.123-0.033l0.144-0.57
		l-1.129-0.3l-0.148,0.577c-0.044-0.009-0.082-0.016-0.122-0.026l0.123-0.583l-1.156-0.233l-0.122,0.577
		c-0.042-0.004-0.079-0.009-0.12-0.025l0.091-0.586l-1.164-0.176l-0.086,0.589c-0.044-0.009-0.09-0.013-0.129-0.019l0.064-0.596
		l-1.169-0.123l-0.062,0.597c-0.041-0.001-0.08-0.007-0.127-0.014l0.035-0.589l-1.178-0.06l-0.029,0.592
		c-0.047-0.006-0.089-0.006-0.13-0.009l0.002-0.593l-1.174-0.006l-0.001,0.596c-0.042-0.003-0.084-0.003-0.13,0l-0.02-0.593
		l-1.177,0.05l0.031,0.591c-0.045,0.005-0.085,0.011-0.129,0.015l-0.059-0.589l-1.166,0.113l0.058,0.589
		c-0.041-0.001-0.088,0.002-0.126,0.01l-0.084-0.577l-1.169,0.167l0.09,0.58c-0.039,0.006-0.08,0.019-0.127,0.022l-0.11-0.577
		l-1.151,0.227l0.107,0.577c-0.035,0.008-0.083,0.017-0.117,0.028l-0.144-0.575l-1.146,0.289l0.148,0.57
		c-0.04,0.007-0.078,0.027-0.123,0.031l-0.174-0.557l-1.121,0.337l0.171,0.561c-0.038,0.016-0.073,0.031-0.121,0.041l-0.198-0.549
		l-1.106,0.396l0.201,0.548c-0.039,0.021-0.079,0.026-0.118,0.048l-0.229-0.537l-1.078,0.444l0.219,0.547
		c-0.035,0.016-0.073,0.031-0.111,0.05l-0.249-0.526l-1.068,0.501l0.258,0.533c-0.037,0.015-0.076,0.034-0.11,0.058l-0.284-0.525
		l-1.033,0.563l0.28,0.517c-0.039,0.02-0.066,0.047-0.106,0.068l-0.307-0.507l-1.007,0.605l0.312,0.511
		c-0.04,0.018-0.073,0.044-0.107,0.067l-0.335-0.496l-0.975,0.66l0.337,0.497c-0.04,0.018-0.067,0.047-0.097,0.072l-0.361-0.476
		l-0.94,0.706l0.36,0.477c-0.043,0.019-0.07,0.045-0.103,0.079l-0.383-0.46l-0.896,0.75l0.372,0.454
		c-0.029,0.028-0.057,0.055-0.089,0.087l-0.403-0.435l-0.866,0.795l0.398,0.436c-0.021,0.028-0.055,0.06-0.091,0.088l-0.416-0.413
		l-0.829,0.832l0.422,0.416c-0.028,0.026-0.055,0.063-0.078,0.091l-0.446-0.394l-0.784,0.875l0.447,0.396
		c-0.03,0.033-0.062,0.064-0.085,0.093l-0.457-0.364l-0.505,0.627c-1.807-1.621-4.079-3.562-6.399-5.309
		c-3.754-2.831-7.347-4.305-8.783-6.381c-1.444-2.077,0.825-2.827,2.98-6.447c2.142-3.626,3.213-6.311,5.306-10.409
		c2.088-4.103,3.059-3.317,5.262-5.287c2.21-1.973,5.598-8.276,6.709-12.391c1.107-4.111,0.407-6.276-0.608-8.592
		c-1.027-2.323-3.404-5.099-3.404-5.099s0.901-1.438,0.149-2.008c-0.76-0.576-4.858-2.335-7.23-3.142
		c-2.381-0.807-5.344-1.261-8.863-2.645c-3.526-1.386-8.096-2.42-11.332-2.458c-3.248-0.046-10.991-0.602-13.526-1.048
		c-2.539-0.452-8.38,0.436-14.167,2.431c-5.783,1.989-7.844,2.954-9.512,3.952c-1.671,1.005-2.225,0.57-3.618,1.764l-0.051-0.12
		c-0.429-0.903-1.086-0.925-1.086-0.925s0.037,1.068-1.763,0.945c0,0,3.229-2.836,3.232-4.609c0.006-1.768-3.397,0.714-6.603,3.569
		c0,0-6.089-5.33-10.909-3.284c-2.235,0.955-3.804,2.05-4.914,3.186c-0.004-0.002-0.007-0.002-0.01-0.014
		c-0.12-0.101-0.31-0.083-0.41,0.038l-0.433,0.509c-0.101,0.123-0.087,0.299,0.034,0.412l0.007,0.001
		c-0.76,1.018-1.195,2.039-1.429,2.994c-0.581,2.332-1.877,6.408-0.688,9.001c0,0-0.091,1.564,2.098,3.205
		c0,0-0.033-0.381,0.411-0.177c0,0,0,0.313,0.58,0.801c0.58,0.491,1.137,0.728,1.651,0.289l0.23-0.186c0,0,1.793,1.573,3.322,1.73
		c0,0,0.276,0.017,0.755-0.213c0.482-0.237,1.256,0.251,2.217,1.218c0.968,0.957,1.581,1.741,2.216,1.47
		c0.633-0.268,1.035-1.446,1.869-1.314c0.835,0.144,0.698,0.009,1.195,0.308c0.494,0.294,1.134-0.692,1.134-0.692
		s0.141,0.864,0.999,0.943c0.865,0.066,0.968-0.195,2.165-0.286c1.196-0.089,2.276-0.619,2.745-1.954c0,0-0.108,3.459,0.196,5.284
		c0.301,1.824,0.168,4.271-0.208,5.444c-0.378,1.177-0.566,1.537-0.139,1.955c0,0-1.062,2.651-1.436,4.378
		c-0.372,1.726-1.374,4.835-2.534,6.962c-1.163,2.118-3.516,4.699-4.565,7.753c-1.043,3.048-2.351,6.661-3.851,8.927
		c-1.496,2.269-3.343,5.256-4.181,6.232c-0.823,0.983-1.121,1.611-1.461,2.294c-0.341,0.681-1.358,2.045-1.925,2.688
		c-0.561,0.633-4.119,3.901-3.829,4.628c0.288,0.725,1.491,2.868,1.959,3.553c0.473,0.684,1.485,2.01,2.622,1.384
		c1.138-0.622,1.437-0.984,1.437-0.984s0.388,1.078,1.27,0.876c0.503-0.11,0.804-0.596,0.937-1.153l5.77,10.338
		c0,0,0.656,1.339,1.408,2.041l-0.012,0.021l0.779,1.523l1.459,1.053l4.628-1.727l0.437,1.196l-0.556,0.215l0.309,0.773l0.482,0.408
		l0.114-0.05l3.556,9.653l-0.14,0.214l0.199,0.64l0.43-0.16l0.396,1.181c0.15,1.677,0.714,3.631,1.01,4.58l-0.517,0.184l0.197,0.554
		c-0.038,0.015-0.076,0.029-0.123,0.04l-0.216-0.544l-1.092,0.438l0.226,0.554c-0.036,0.018-0.079,0.028-0.119,0.048l-0.248-0.539
		l-1.065,0.496l0.249,0.534c-0.035,0.029-0.072,0.042-0.11,0.058l-0.279-0.521l-1.037,0.547l0.275,0.525
		c-0.038,0.017-0.076,0.037-0.112,0.062l-0.304-0.515l-1.008,0.596l0.296,0.514c-0.032,0.021-0.068,0.044-0.107,0.067l-0.322-0.493
		l-0.981,0.65l0.322,0.489c-0.028,0.026-0.063,0.05-0.098,0.074l-0.357-0.48l-0.94,0.69l0.348,0.483
		c-0.028,0.027-0.068,0.048-0.096,0.072l-0.378-0.455l-0.911,0.738l0.376,0.461c-0.036,0.028-0.066,0.055-0.098,0.086l-0.392-0.442
		l-0.875,0.785l0.397,0.438c-0.031,0.031-0.062,0.061-0.09,0.085l-0.421-0.416l-0.832,0.829l0.413,0.42
		c-0.03,0.025-0.063,0.057-0.083,0.096l-0.444-0.399l-0.788,0.865l0.442,0.402c-0.028,0.025-0.06,0.057-0.082,0.095l-0.46-0.371
		l-0.749,0.894l0.457,0.379c-0.026,0.034-0.053,0.07-0.076,0.1l-0.477-0.355l-0.693,0.946l0.468,0.356
		c-0.027,0.023-0.047,0.063-0.074,0.097l-0.487-0.322l-0.644,0.976l0.481,0.329c-0.025,0.035-0.044,0.067-0.071,0.103l-0.498-0.304
		l-0.61,1.016l0.511,0.296c-0.03,0.041-0.042,0.075-0.06,0.108l-0.523-0.273l-0.55,1.034l0.514,0.278
		c-0.022,0.036-0.03,0.08-0.05,0.114l-0.539-0.258l-0.492,1.073l0.527,0.248c-0.021,0.039-0.033,0.073-0.048,0.115l-0.542-0.222
		l-0.444,1.088l0.542,0.22c-0.018,0.034-0.032,0.082-0.047,0.114l-0.55-0.196l-0.396,1.113l0.559,0.194
		c-0.012,0.045-0.029,0.075-0.04,0.12l-0.566-0.163l-0.331,1.119l0.561,0.168c-0.011,0.045-0.017,0.084-0.027,0.126l-0.575-0.141
		l-0.277,1.145l0.573,0.141c-0.011,0.021-0.012,0.049-0.015,0.081l-0.59-0.111l-0.226,1.149l0.59,0.112
		c-0.003,0.029-0.006,0.062-0.016,0.092l-0.582-0.082l-0.173,1.158l0.587,0.092c-0.001,0.028-0.004,0.059-0.013,0.098l-0.589-0.063
		l-0.109,1.171l0.591,0.06c-0.007,0.037-0.004,0.083-0.01,0.12l-0.589-0.021l-0.048,1.18l0.589,0.021
		c0,0.04-0.002,0.082-0.007,0.129H45.89l0.011,1.176l0.583-0.006c0.005,0.04,0.005,0.082,0.009,0.125l-0.593,0.035l0.076,1.174
		l0.583-0.034c0.007,0.042,0.004,0.083,0.009,0.127l-0.589,0.066l0.128,1.165l0.588-0.062c0.005,0.044,0.01,0.081,0.018,0.12
		l-0.586,0.087l0.186,1.167l0.58-0.093c0.006,0.04,0.01,0.083,0.024,0.127l-0.583,0.117l0.244,1.148l0.574-0.115
		c0.006,0.037,0.027,0.083,0.031,0.123l-0.564,0.148l0.295,1.134l0.564-0.148c0.016,0.044,0.028,0.078,0.04,0.119l-0.56,0.181
		l0.354,1.116l0.556-0.174c0.021,0.037,0.027,0.078,0.047,0.117l-0.553,0.206l0.411,1.105l0.547-0.209
		c0.013,0.04,0.036,0.076,0.052,0.111l-0.544,0.24l0.46,1.075l0.547-0.23c0.015,0.035,0.035,0.077,0.052,0.107l-0.534,0.263
		l0.52,1.061l0.528-0.262c0.022,0.033,0.046,0.067,0.066,0.109l-0.525,0.283l0.571,1.03l0.522-0.287
		c0.021,0.034,0.042,0.073,0.063,0.113l-0.504,0.302l0.621,1l0.502-0.309c0.024,0.034,0.048,0.069,0.073,0.104l-0.495,0.344
		l0.67,0.965l0.492-0.338c0.022,0.025,0.043,0.061,0.074,0.097l-0.476,0.36l0.717,0.935l0.474-0.361
		c0.028,0.029,0.055,0.067,0.081,0.102l-0.454,0.388l0.756,0.883l0.453-0.379c0.031,0.031,0.063,0.062,0.086,0.096l-0.435,0.406
		l0.808,0.856l0.431-0.406c0.028,0.021,0.063,0.063,0.094,0.085l-0.407,0.427l0.84,0.812l0.404-0.422
		c0.044,0.025,0.066,0.06,0.096,0.081l-0.387,0.446l0.89,0.774l0.386-0.447c0.03,0.024,0.066,0.053,0.098,0.085l-0.368,0.462
		l0.929,0.724l0.36-0.458c0.039,0.021,0.066,0.047,0.102,0.069l-0.34,0.479l0.955,0.682l0.35-0.479
		c0.027,0.028,0.059,0.046,0.098,0.067l-0.313,0.5l0.989,0.623l0.313-0.491c0.04,0.027,0.071,0.047,0.11,0.069l-0.287,0.505
		l1.021,0.585l0.282-0.507C60.227,175.056,60.265,175.069,60.302,175.09z M45.649,94.232l2.687-2.375l4.328,13.436l-0.611,0.258
		L45.649,94.232z M46.065,85.236c0.071,0.088,0.145,0.172,0.216,0.248l1.431,4.436l-2.887,2.845l-0.739-1.301
		c0.383-0.694,0.772-1.57,0.743-2.244c-0.067-1.317-0.289-1.724,0.482-2.928C45.515,85.974,45.788,85.608,46.065,85.236z
		 M86.766,65.917c-0.364,1.815-0.794,3.378,1.349,7.303c2.157,3.917,3.808,8.02,5.013,11.008c1.2,2.979,2.913,9.52,3.494,11.264
		c0.16,0.455,0.397,1.204,0.671,2.067L61.96,110.156l-0.3-0.768l0.365-0.529l-0.36-0.875l-0.554,0.224l-0.429-1.138l1.012-0.382
		l-1.102-2.952l-1.034,0.378l-0.33-0.862l-3.059,1.256l0.276,0.757l-1.549,0.573c0.243-0.822-0.05-1.756-0.05-1.756l-6.155-17.976
		c0.246-0.069,0.487-0.176,0.712-0.328c0.678,0.684,1.511,0.337,1.822-0.476c0,0,0.878,0.832,1.503,0.532
		c0.638-0.305,0.881-0.824,0.797-1.393C53.438,83.868,53.3,83.43,53.3,83.43s0.756-0.665,1.182-1.541l0.069-0.047l0.002-0.005
		c0.02-0.011,0.05-0.023,0.082-0.042c0.521-0.383,0.741-1.034,0.591-1.634c0.125-0.354,0.263-0.852,0.448-1.656
		c0.513-2.187,1.037-3.98,1.823-5.396c0.789-1.412,3.154-4.283,4.102-5.722c0.952-1.429,5.242-8.421,6.171-10.408
		c0.928-1.987,1.224-3.99,1.704-5.956c0.478-1.967,2.045-8.989,2.045-8.989s2.225-0.314,2.355-1.086
		c0.129-0.772,0.321-1.84,0.321-1.84s2.618,0.467,3.588,0.503c0.96,0.032,3.366-0.196,5.163,0.115
		c1.795,0.313,3.204-0.106,5.505-0.224c2.299-0.112,3.669-1.437,5.005-2.065c1.332-0.618,4.047-1.611,5.592-1.607
		c1.544-0.003,5.044,0.71,5.397,1.585c0.354,0.868-0.512,0.567,0.094,1.339c0,0-5.632,8.872-9.441,14.331
		C91.288,58.538,87.139,64.091,86.766,65.917z M119.547,117.837c-0.461-0.628-0.334-1.498,0.284-1.964
		c0.616-0.459,1.497-0.334,1.951,0.286c0.463,0.615,0.333,1.49-0.276,1.954C120.884,118.569,120.011,118.443,119.547,117.837z
		 M135.072,86.215c-0.975-0.327-1.672-0.563-2.306-0.891c0.438-0.564,0.91-1.111,1.417-1.639l7.8,6.749l0.693,1.204
		c-0.681-0.458-1.422-0.876-2.113-1.061c-1.486-0.397-2.359,0.136-2.921-0.657C137.082,89.129,137.206,86.925,135.072,86.215z
		 M135.27,112.417c1.326-1.131,2.708-2.365,3.972-3.55l-3.042,4.331C135.885,112.947,135.577,112.684,135.27,112.417z
		 M136.777,81.423l4.98,8.625l-7.472-6.46c0.639-0.656,1.327-1.279,2.076-1.85C136.494,81.626,136.637,81.522,136.777,81.423z
		 M136.896,81.332c0.848-0.608,1.727-1.15,2.631-1.607l5.157,8.923l0.896,4.709l-3.476-3.012L136.896,81.332z M147.129,95.145
		c-0.066-0.057-0.138-0.11-0.198-0.167l0.035-0.227l0.259,0.22c-0.026,0.044-0.038,0.092-0.036,0.144
		C147.169,95.123,147.148,95.135,147.129,95.145L147.129,95.145z M150.609,99.869c0.034-0.035,0.08-0.066,0.113-0.104
		c-0.033-0.029-0.06-0.069-0.074-0.107c0.063,0.007,0.122-0.003,0.18-0.028c0.006,0.003,0.006,0.003,0.007-0.003l0.031,0.57
		l-0.407-0.26c0.032-0.046,0.049-0.088,0.061-0.137C150.554,99.819,150.583,99.841,150.609,99.869z M149.98,100.316
		c0.011-0.003,0.021-0.009,0.025-0.021l-0.137,0.481l-0.172-0.227c0.112-0.079,0.196-0.205,0.196-0.345
		C149.926,100.236,149.963,100.271,149.98,100.316z M139.02,115.066l5.717-8.122l-2.712,9.45
		C140.99,116.036,139.984,115.592,139.02,115.066z M145.001,106.566l2.763-3.913l0.25,4.6l-2.866,9.959
		c-1.014-0.177-2.011-0.438-2.98-0.769L145.001,106.566z M148.039,107.705l0.53,9.804c-1.097-0.003-2.191-0.099-3.271-0.271
		L148.039,107.705z M147.896,102.459l0.954-1.352l0.542,1.327l-1.254,4.377L147.896,102.459z M149.55,102.43l0.388-1.328
		l1.051,1.364l0.213,4.006L149.55,102.43z M161.521,82.29l-7.188,6.807l4.527-8.711C159.785,80.941,160.68,81.577,161.521,82.29z
		 M154.006,89.411l-3.48,3.297l0.663-4.557l4.766-9.199c0.953,0.378,1.878,0.832,2.776,1.359L154.006,89.411z M155.815,78.897
		l-4.563,8.803l1.419-9.725C153.74,78.193,154.792,78.495,155.815,78.897z M151.598,97.966l0.233,0.307l-0.307,0.03
		C151.599,98.208,151.622,98.085,151.598,97.966z M151.562,97.685c0-0.006,0.005-0.012-0.005-0.018c0,0,0,0-0.012-0.005
		l-0.022-0.034c0.023-0.044,0.051-0.093,0.062-0.139l0.46-0.205l1.3,0.851l-1.334,0.122L151.562,97.685z M151.446,97.075
		c0.017-0.01,0.036-0.014,0.049-0.014c-0.012-0.057-0.025-0.107-0.039-0.157c-0.026,0.006-0.052,0.014-0.077,0.012
		c0.005-0.016,0.021-0.029,0.025-0.047l0.489,0.318l-0.295,0.135c-0.008-0.025-0.014-0.063-0.024-0.097
		C151.546,97.159,151.496,97.111,151.446,97.075z M147.754,94.782l0.224-0.43l0.149,0.254c-0.098,0.053-0.179,0.129-0.21,0.224
		c-0.021,0.003-0.04,0.013-0.068,0.013C147.818,94.816,147.786,94.801,147.754,94.782z M151.205,96.355
		c0.006-0.011,0.012-0.022,0.026-0.022c-0.026-0.044-0.049-0.091-0.08-0.136c-0.007,0.009-0.018,0.005-0.022,0.014
		c0.011-0.061,0.011-0.125,0.004-0.187l0.462,0.121l-0.281,0.27C151.276,96.393,151.241,96.368,151.205,96.355z M148.61,94.745
		l-0.007-0.013l0.461-0.422l0.054,0.296c-0.083-0.016-0.165-0.019-0.256,0.016c-0.059,0.031-0.112,0.079-0.146,0.123
		C148.679,94.748,148.648,94.75,148.61,94.745z M150.095,94.622l-0.054,0.403c-0.111-0.146-0.3-0.209-0.477-0.135
		c-0.029,0.012-0.049,0.038-0.074,0.056c-0.003-0.021,0.002-0.041,0.005-0.059L150.095,94.622z M150.539,95.293l0.438-0.042
		l-0.219,0.422c-0.021-0.025-0.043-0.05-0.07-0.072c0-0.058-0.011-0.114-0.025-0.163C150.634,95.379,150.588,95.334,150.539,95.293z
		 M148.05,94.195l0.72-1.379l0.251,1.313l-0.533,0.505c-0.062-0.041-0.134-0.066-0.209-0.059L148.05,94.195z M148.887,92.602
		l2.093-4.047l-0.626,4.319l-1.194,1.133L148.887,92.602z M150.315,93.117l-0.195,1.329l-0.755,0.34
		c-0.021-0.035-0.046-0.068-0.085-0.097l-0.093-0.502L150.315,93.117z M151.682,93.904l-0.626,1.193l-0.888,0.082l0.094-0.633
		L151.682,93.904z M152.703,95.1l-0.974,0.921l-0.676-0.161c-0.042-0.057-0.098-0.104-0.156-0.129l0.259-0.495L152.703,95.1z
		 M153.281,96.56l-1.226,0.561l-0.613-0.4c-0.001-0.059-0.009-0.113-0.034-0.169c-0.004-0.009-0.008-0.01-0.008-0.01l0.366-0.358
		L153.281,96.56z M153.508,96.62l4.422,1.097l-4.342,0.401l-1.385-0.905L153.508,96.62z M147.306,94.847l-0.314-0.273l0.227-1.539
		l0.666,1.162l-0.276,0.548c-0.071-0.003-0.13,0-0.186,0.023C147.382,94.789,147.34,94.813,147.306,94.847z M146.857,94.455
		l-1.089-0.938l-0.862-4.478l2.188,3.785L146.857,94.455z M147.247,92.796l0.651-4.513l0.828,4.287l-0.759,1.465L147.247,92.796z
		 M147.968,87.839l1.499-10.268c1.024,0.043,2.045,0.168,3.054,0.369l-1.475,10.161l-2.208,4.256L147.968,87.839z M153.792,89.818
		l-2.006,3.87l-1.5,0.678l0.208-1.42L153.792,89.818z M156.045,91.934l-3.17,3l-1.639,0.148l0.657-1.28L156.045,91.934z
		 M157.474,94.669l-3.979,1.796l-1.597-0.395l1.046-0.994L157.474,94.669z M157.929,94.627l10.276-0.929
		c0.192,1.012,0.316,2.034,0.351,3.06l-10.167,0.921l-4.657-1.154L157.929,94.627z M168.565,96.91
		c0.03,1.087-0.021,2.178-0.165,3.26l-9.574-2.382L168.565,96.91z M168.376,100.319c-0.138,1.021-0.367,2.021-0.665,3.01
		l-9.904-2.464l-4.021-2.619l4.59-0.416L168.376,100.319z M167.67,103.468c-0.319,1.044-0.724,2.054-1.225,3.036l-8.267-5.392
		L167.67,103.468z M157.356,100.757l-4.229-1.062l-1.012-1.295l1.433-0.136L157.356,100.757z M152.888,99.642l-1.096-0.271
		l-0.345-0.851c0.004-0.019,0.01-0.042,0.014-0.063l0.477-0.042L152.888,99.642z M151.059,99.339l0.624,0.153l0.685,1.682
		l-1.342-0.876l-0.049-0.785C151.018,99.465,151.046,99.402,151.059,99.339z M151.147,99.204c0.009-0.016,0.026-0.035,0.038-0.057
		c-0.032-0.019-0.057-0.038-0.08-0.059c0.024-0.007,0.051-0.005,0.072-0.017c0.115-0.055,0.191-0.154,0.219-0.268l0.218,0.517
		L151.147,99.204z M153.04,99.831l2.784,3.599l-3.235-2.105l-0.729-1.783L153.04,99.831z M152.473,101.423l2.339,5.737l-3.677-4.754
		l-0.104-1.93L152.473,101.423z M155.027,107.677l3.047,7.439c-0.919,0.498-1.857,0.914-2.823,1.251l-3.871-9.479l-0.235-4.215
		L155.027,107.677z M149.986,100.921l0.231-0.807c0.027-0.007,0.049-0.009,0.074-0.016c0.028-0.013,0.039-0.035,0.065-0.057
		l0.518,0.336l0.098,1.818L149.986,100.921z M146.798,94.87c-0.317-0.268-0.632-0.52-0.908-0.737l-0.074-0.378l1.015,0.879
		L146.798,94.87z M145.707,93.998c-0.463-0.362-0.854-0.654-1.118-0.87c-0.37-0.318-0.951-0.816-1.623-1.292l-0.642-1.1l3.309,2.862
		L145.707,93.998z M139.663,79.658c0.997-0.498,2.019-0.911,3.058-1.229l1.877,9.773L139.663,79.658z M142.869,78.391
		c0.985-0.298,1.999-0.517,3.009-0.656l1.94,10.107l-0.691,4.743l-2.303-3.988L142.869,78.391z M146.028,77.721
		c0.417-0.062,0.839-0.104,1.25-0.133l0.018,1.017l-0.055-0.003l0.018,1.059l0.702-0.01l-0.023-1.053l-0.056-0.003l-0.008-1.034
		c0.477-0.018,0.956-0.016,1.442,0l-1.43,9.824L146.028,77.721z M163.81,84.578l-7.434,7.04l-4.368,1.973l2.115-4.087l7.513-7.116
		C162.403,83.046,163.131,83.783,163.81,84.578z M163.902,84.692c0.162,0.197,0.335,0.397,0.488,0.604
		c0.525,0.665,0.98,1.355,1.407,2.071l-9.016,4.065L163.902,84.692z M167.211,90.266l-9.32,4.214l-4.774,0.429l3.346-3.165
		l9.407-4.251C166.392,88.391,166.843,89.319,167.211,90.266z M167.262,90.408c0.396,1.024,0.699,2.077,0.915,3.138l-9.833,0.896
		L167.262,90.408z M166.389,106.636c-0.474,0.907-1.017,1.789-1.62,2.625l-8.561-5.576l-2.934-3.794l4.469,1.114L166.389,106.636z
		 M164.678,109.387c-0.637,0.86-1.351,1.69-2.142,2.458l-6.054-7.803L164.678,109.387z M160.038,113.906l-4.878-6.299l-2.472-6.043
		l3.417,2.225l6.315,8.159c-0.501,0.482-1.029,0.943-1.594,1.375C160.57,113.527,160.313,113.717,160.038,113.906z M159.922,113.989
		c-0.565,0.383-1.133,0.742-1.718,1.057l-2.833-6.924L159.922,113.989z M151.938,117.229l-0.541-9.885l3.713,9.073
		C154.065,116.774,153.007,117.048,151.938,117.229z M151.79,117.253c-1.02,0.167-2.049,0.25-3.072,0.253l-0.557-10.237l1.327-4.61
		l1.743,4.268L151.79,117.253z M138.891,114.994c-0.901-0.496-1.764-1.064-2.578-1.705l3.442-4.889
		c2.168-1.954,4.151-3.054,5.766-4.188l-0.658,2.299L138.891,114.994z M114.909,89.223c0.277-0.052,0.635-0.145,1.07-0.321
		c0.153,0.132,0.298,0.255,0.441,0.384c1.821,1.622,3.742,3.347,5.335,4.723l-7.672-0.674l-0.789-3.027
		C114.031,89.963,114.528,89.607,114.909,89.223z M130.331,101.539l0.257,0.157l-1.432,0.43c-0.172-0.741-0.313-1.485-0.4-2.235
		c0.062,0.077,0.11,0.155,0.147,0.208C129.273,100.808,129.122,101.071,130.331,101.539z M130.757,101.805l0.525,0.318
		c0,0-0.008,0.065-0.03,0.167l-0.024,0.012c-0.123-0.113-0.292-0.151-0.45-0.085c-0.153,0.073-0.24,0.23-0.231,0.392l-0.226,0.102
		c-0.117-0.121-0.291-0.154-0.445-0.09c-0.152,0.071-0.239,0.229-0.227,0.383l-0.228,0.103c-0.005-0.004-0.015-0.009-0.015-0.009
		c-0.08-0.278-0.154-0.552-0.216-0.826L130.757,101.805z M131.135,102.926c-0.099,0.526-0.263,1.271-0.508,2.127l-0.478,0.147
		c-0.24-0.566-0.447-1.14-0.634-1.724c0.005-0.012,0.013-0.027,0.006-0.04l0.292-0.13c0.107,0.074,0.254,0.104,0.39,0.051
		c0.129-0.067,0.205-0.188,0.226-0.327l0.286-0.123c0.105,0.078,0.259,0.098,0.391,0.046
		C131.11,102.947,131.127,102.93,131.135,102.926z M130.581,105.227c-0.05,0.183-0.111,0.378-0.171,0.577
		c-0.07-0.151-0.144-0.306-0.211-0.463L130.581,105.227z M124.797,109.532l-2.108,1.1c-0.325-0.051-0.56-0.331-0.548-0.662
		c0.015-0.177,0.092-0.332,0.208-0.438c-0.131-0.102-0.248-0.194-0.383-0.285c-0.083,0.177-0.23,0.313-0.425,0.363
		c-0.353,0.082-0.697-0.133-0.786-0.476c-0.038-0.174-0.007-0.348,0.07-0.487c-0.143-0.052-0.295-0.105-0.439-0.151
		c-0.035,0.188-0.141,0.354-0.312,0.459c-0.309,0.177-0.706,0.077-0.891-0.23c-0.09-0.147-0.105-0.321-0.064-0.475
		c-0.107-0.011-0.221-0.014-0.33-0.02l0.226-0.101c0.109,0.059,0.239,0.081,0.354,0.024c0.128-0.05,0.195-0.161,0.226-0.278
		l0.318-0.142c0.108,0.057,0.241,0.076,0.363,0.022c0.121-0.054,0.197-0.166,0.222-0.286l0.321-0.144
		c0.105,0.064,0.237,0.08,0.354,0.024c0.127-0.05,0.202-0.164,0.226-0.284l0.32-0.142c0.106,0.065,0.239,0.081,0.359,0.028
		c0.126-0.061,0.198-0.168,0.224-0.287l0.318-0.139c0.106,0.06,0.235,0.081,0.361,0.023c0.12-0.054,0.197-0.166,0.225-0.291
		l0.183-0.077l0.1,0.309l0.555-0.181c0.019,0.037,0.032,0.08,0.048,0.116l-0.546,0.217l0.422,1.087l0.547-0.212
		c0.022,0.039,0.037,0.077,0.052,0.122l-0.537,0.232l0.479,1.079l0.539-0.24c0.016,0.031,0.035,0.068,0.057,0.109l-0.532,0.273
		L124.797,109.532z M118.568,109.221c0.068-0.006,0.135-0.011,0.206-0.014c0.763,0.025,1.37,0.671,1.345,1.45
		c-0.014,0.551-0.356,1.016-0.838,1.222L118.568,109.221z M118.446,108.778l-0.037-0.142c0.051-0.015,0.102-0.029,0.145-0.055
		c0.018-0.01,0.036-0.027,0.051-0.041c-0.029,0.076-0.068,0.146-0.119,0.215C118.473,108.767,118.461,108.773,118.446,108.778z
		 M118.207,107.874l-3.349-12.426l7.714,0.675c-0.003,0.029-0.003,0.056-0.005,0.084l-0.599-0.019l-0.025,1.175l0.589,0.013
		c0.001,0.044-0.005,0.082,0.001,0.126l-0.596,0.013l0.023,1.174l0.59-0.014c0.005,0.044,0.006,0.09,0.015,0.129l-0.592,0.041
		l0.079,1.169l0.588-0.036c0.004,0.04,0.011,0.077,0.015,0.122l-0.59,0.07l0.146,1.171l0.586-0.074c0,0.036,0.015,0.087,0.017,0.124
		l-0.582,0.104l0.205,1.153l0.58-0.098c0.004,0.038,0.013,0.079,0.019,0.116l-0.569,0.133l0.257,1.153l0.573-0.139
		c0.009,0.048,0.022,0.086,0.028,0.125l-0.568,0.159l0.324,1.128l0.56-0.151c0.017,0.037,0.021,0.075,0.039,0.12l-0.564,0.186
		l0.161,0.471l-0.162,0.073c-0.111-0.118-0.293-0.175-0.453-0.102c-0.161,0.074-0.251,0.237-0.235,0.408l-0.213,0.095
		c-0.108-0.123-0.293-0.176-0.458-0.104c-0.165,0.078-0.249,0.244-0.228,0.411l-0.211,0.096c-0.113-0.126-0.297-0.178-0.463-0.106
		c-0.161,0.074-0.248,0.239-0.229,0.413l-0.215,0.101c-0.114-0.134-0.292-0.183-0.459-0.113c-0.166,0.071-0.248,0.247-0.229,0.419
		l-0.208,0.091c-0.11-0.132-0.297-0.179-0.465-0.107c-0.168,0.076-0.248,0.247-0.229,0.42l-0.219,0.097
		C118.491,107.848,118.349,107.825,118.207,107.874z M110.043,93.014c-0.059-0.23-0.116-0.46-0.176-0.669
		c-0.146-0.52-0.39-1.426-0.67-2.495c0.449,0.517,1.038,0.963,1.771,1.05l0.428,1.639L110.043,93.014z M108.074,85.471
		c-0.506-1.972-0.911-3.569-0.911-3.569s1.759,1.303,3.905,2.984C110.075,85.082,109.067,85.266,108.074,85.471z M147.739,102.286
		l0.008,0.126l-2.62,3.719l0.586-2.052C146.48,103.524,147.163,102.959,147.739,102.286z M147.88,102.123
		c0.142-0.17,0.279-0.328,0.41-0.489l-0.406,0.577L147.88,102.123z M149.191,100.616c0.023-0.014,0.035-0.038,0.061-0.057
		c-0.003,0.005,0.005,0.016,0.005,0.016c0.023-0.001,0.046-0.003,0.063-0.008c0.068,0.03,0.147,0.039,0.223,0.03l0.282,0.362
		l-0.362,1.245l-0.496-1.216c0.065-0.057,0.114-0.142,0.13-0.225L149.191,100.616z M123.223,113.695
		c-0.162,0.343-0.455,0.628-0.842,0.753c-0.272,0.083-0.554,0.078-0.807,0C122.046,114.234,122.604,113.978,123.223,113.695z
		 M123.808,117.376l-0.018,0.01c0.006-0.01,0.012-0.022,0.018-0.032C123.805,117.358,123.802,117.363,123.808,117.376z
		 M114.528,112.874c-0.114-0.336-0.223-0.654-0.331-0.917c0.368-0.464,1.02-0.663,1.6-0.436c0.315,0.125,0.555,0.355,0.71,0.638
		l0.181,0.647l0,0L114.528,112.874z M113.793,110.691c0.147-0.292,0.425-0.942,0.311-1.464c-0.157-0.711-0.619-1.546-0.438-2.485
		c0.186-0.939,0.137-1.973-0.503-2.489c-0.641-0.523-0.74-0.315-0.663-1.507c0.075-1.176-0.243-2.278-0.974-3.828
		c-0.367-0.771-0.634-1.88-0.88-3.065l1.314-0.463l3.762,13.857c-0.125-0.081-0.29-0.088-0.422-0.006
		c-0.122,0.069-0.179,0.199-0.179,0.328c-0.053-0.051-0.093-0.102-0.125-0.16c-0.015,0.014-0.021,0.015-0.028,0.024
		c-0.123,0.092-0.237,0.174-0.346,0.27c0.035,0.037,0.056,0.074,0.079,0.109c-0.029,0.005-0.063,0.014-0.094,0.033
		c-0.193,0.112-0.252,0.363-0.135,0.549c0.053,0.098,0.155,0.154,0.26,0.186c-0.034,0.032-0.057,0.074-0.09,0.108
		c-0.007-0.037-0.019-0.069-0.03-0.098c-0.112-0.18-0.359-0.246-0.551-0.133c-0.108,0.065-0.167,0.177-0.183,0.293
		C113.851,110.739,113.824,110.714,113.793,110.691z M124.386,116.973c-0.128-0.063-0.281-0.069-0.408,0.022
		c-0.021,0.009-0.04,0.034-0.059,0.053c-0.162-0.063-0.311-0.194-0.376-0.372c-0.124-0.337,0.052-0.707,0.387-0.827
		c0.167-0.071,0.354-0.052,0.504,0.024c0.043-0.154,0.079-0.312,0.107-0.465c-0.195-0.001-0.388-0.094-0.513-0.264
		c-0.216-0.281-0.153-0.687,0.132-0.909c0.15-0.103,0.322-0.144,0.484-0.115c0-0.157-0.011-0.318-0.034-0.479
		c-0.178,0.058-0.389,0.025-0.552-0.1c-0.067-0.044-0.114-0.105-0.153-0.163c0.787-0.373,1.627-0.764,2.449-1.153l0.123,0.188
		l0.502-0.316c0.024,0.034,0.046,0.068,0.071,0.103l-0.483,0.35l0.157,0.214c-0.712,1.135-1.121,2.106-0.824,3.058
		c-0.105-0.016-0.197,0.003-0.291,0.065c-0.131,0.082-0.186,0.237-0.165,0.375l-0.237,0.159c-0.125-0.067-0.283-0.072-0.412,0.021
		c-0.133,0.082-0.189,0.236-0.165,0.376L124.386,116.973z M122.781,118.132c-0.03-0.015-0.077-0.026-0.116-0.034
		c-0.014-0.034-0.024-0.066-0.031-0.104c-0.02-0.351,0.25-0.662,0.607-0.679c0.168-0.012,0.316,0.055,0.433,0.148l-0.093,0.069
		c-0.127-0.078-0.296-0.078-0.419,0.016c-0.153,0.095-0.204,0.266-0.164,0.426L122.781,118.132z M121.967,118.687
		c-0.089-0.069-0.201-0.098-0.3-0.072c0.137-0.095,0.316-0.137,0.495-0.088c0.014,0,0.026,0.016,0.041,0.016L121.967,118.687z
		 M115.329,117.861c-0.059-0.052-0.111-0.11-0.157-0.164c0.005-0.034,0.011-0.06,0.015-0.091c1.002-0.508,1.853-0.945,2.386-1.224
		c0.14,0.443,0.058,0.952-0.267,1.331C116.799,118.3,115.915,118.362,115.329,117.861z M63.623,114.429l-0.559-1.428l-0.066-0.175
		l35.137-12.522c0.52,1.725,0.985,3.363,1.127,4c0.278,1.344,0.325,1.461,0.798,2.196c0.476,0.739,0.123,1.421-0.067,1.685
		c-0.202,0.264-0.476,1.146-0.121,2.015c0,0-3.873,2.527-6.578,3.222c-0.146,0.031-0.296,0.071-0.448,0.115L63.623,114.429z
		 M61.515,168.735l6.325-7.581l-3.462,9.156C63.376,169.863,62.424,169.335,61.515,168.735z M58.974,166.731l6.538-7.84l4.117-2.477
		L68,160.724l-6.605,7.926C60.539,168.069,59.728,167.433,58.974,166.731z M86.156,166.697l-5.939-7.957l8.157,5.53
		c-0.255,0.333-0.518,0.656-0.798,0.975l-0.731-0.707l0.044-0.039l-0.761-0.738l-0.487,0.51l0.755,0.735l0.042-0.049l0.736,0.719
		C86.848,166.034,86.507,166.369,86.156,166.697z M86.043,166.799c-0.753,0.696-1.569,1.33-2.422,1.898l-6.143-8.228l-1.448-4.573
		l3.813,2.589L86.043,166.799z M80.332,146.313l-3.846,1.658c-0.047-0.149-0.112-0.315-0.163-0.479l1.8-3.334l7.688-7.026
		c0.768,0.685,1.49,1.43,2.142,2.223L80.332,146.313z M88.042,139.476c0.693,0.85,1.325,1.757,1.871,2.719l-9.158,3.94
		L88.042,139.476z M82.919,134.996l-4.917,9.067l-2.173,1.987c-0.232-0.682-0.498-1.457-0.791-2.283l0.169-1.012l4.96-9.151
		C81.128,133.994,82.045,134.463,82.919,134.996z M80.031,133.543l-4.749,8.757l1.6-9.73
		C77.972,132.813,79.024,133.138,80.031,133.543z M74.451,156.413l-0.8-1.078l0.314-0.841l0.53,0.363L74.451,156.413z
		 M74.64,154.953l1.188,0.812l1.375,4.343l-2.61-3.502L74.64,154.953z M75.083,152.919l0.345-0.355l0.239,0.324l-0.575,0.041
		L75.083,152.919z M77.149,151.205l-0.704,0.299l0.104-0.113l0.063-0.333L77.149,151.205z M70.894,149.096l0.25-1.533l0.656,1.176
		l-0.429,0.785L70.894,149.096z M70.732,149.156l-0.146,0.882l-0.587-0.246l-0.265-1.534L70.732,149.156z M72.006,148.669
		l0.151,0.418l-0.186-0.354L72.006,148.669z M71.561,149.693l-0.072-0.063l0.396-0.74l0.284,0.513l-0.187,0.159
		C71.835,149.595,71.693,149.646,71.561,149.693z M70.818,150.131l-0.083-0.032l0.131-0.826l0.43,0.386l-0.116,0.227
		C71.055,149.957,70.933,150.038,70.818,150.131z M70.354,150.659l-0.21-0.029l-0.115-0.666l0.539,0.22l-0.042,0.233
		C70.461,150.493,70.413,150.581,70.354,150.659z M70.137,153.352l0.032-0.046c0.019,0.031,0.039,0.056,0.053,0.086L70.137,153.352z
		 M70.563,153.94l-0.826-0.108l0.3-0.358l0.326,0.138c0.068,0.093,0.14,0.19,0.223,0.278L70.563,153.94z M69.143,152.931
		l0.586-0.343l0.255,0.239c0.032,0.111,0.085,0.212,0.13,0.322l-0.121,0.144L69.143,152.931z M69.943,152.586l-0.086-0.074
		l0.066-0.043C69.93,152.508,69.935,152.547,69.943,152.586z M74.517,153.843l-0.024,0.838l-0.47-0.324l0.037-0.107
		c0.166-0.119,0.315-0.249,0.452-0.407L74.517,153.843z M73.824,154.404l0.011,0.006l-0.29,0.781l-0.35-0.47l0.071-0.076
		C73.46,154.591,73.643,154.502,73.824,154.404z M73.011,154.726l-0.538,0.64l-0.174-0.558l0.108-0.068
		c0.207,0.015,0.399-0.005,0.586-0.035L73.011,154.726z M72.122,154.744l-0.72,0.432l0.017-0.585l0.137-0.029
		c0.176,0.065,0.354,0.124,0.553,0.153L72.122,154.744z M70.455,154.646l0.208-0.543l0.146,0.016c0.146,0.125,0.298,0.23,0.461,0.32
		l-0.004,0.033L70.455,154.646z M70.283,154.686l-1.518,0.316l0.854-1.036l0.888,0.112L70.283,154.686z M68.014,153.617l0.973-0.584
		l0.904,0.381l-0.329,0.4L68.014,153.617z M67.302,152.163l1.572-0.336l0.73,0.657l-0.63,0.382L67.302,152.163z M69.058,151.793
		l0.657-0.139l0.198,0.349c-0.014,0.099-0.017,0.21-0.013,0.304l-0.154,0.099L69.058,151.793z M69.927,151.728l-0.058-0.11
		l0.091-0.013C69.953,151.649,69.935,151.689,69.927,151.728z M69.789,151.482l-0.441-0.804l0.667,0.084l0.071,0.401
		c-0.028,0.09-0.066,0.183-0.091,0.276L69.789,151.482z M70.176,150.781l0.079,0.007c-0.025,0.044-0.038,0.096-0.058,0.133
		L70.176,150.781z M69.261,150.518l-0.632-1.142l1.238,0.521l0.122,0.709L69.261,150.518z M68.514,149.163l-2.209-3.98l3.257,2.917
		l0.278,1.621L68.514,149.163z M69.694,148.022l-0.779-4.486l2.118,3.818l-0.27,1.629L69.694,148.022z M71.185,147.322l0.088-0.559
		l0.663,1.726l-0.05,0.093L71.185,147.322z M75.994,151.978l1.192,0.799l-1.339,0.096l-0.308-0.419L75.994,151.978z M74.979,153.08
		l0.26,0.8l-0.569-0.146l0.009-0.119c0.112-0.161,0.205-0.338,0.281-0.523L74.979,153.08z M75.29,154.051l0.468,1.483l-1.113-0.755
		l0.026-0.893L75.29,154.051z M73.48,155.361l-0.546,1.452l-0.412-1.28l0.577-0.687L73.48,155.361z M72.357,155.498l-1,1.197
		l0.047-1.343l0.766-0.461L72.357,155.498z M69.917,156.068l0.477-1.258l0.871-0.184l-0.009,0.638L69.917,156.068z M69.71,156.189
		l-3.903,2.35l2.801-3.354l1.61-0.344L69.71,156.189z M64.07,155.992l3.738-2.257l1.64,0.211l-0.919,1.102L64.07,155.992z
		 M63.258,153.011l3.78-0.796l1.776,0.749l-1.037,0.622L63.258,153.011z M61.334,149.66l5.968,0.76l1.434,1.287l-1.684,0.354
		L61.334,149.66z M67.567,150.452l1.601,0.204l0.476,0.857l-0.722,0.155L67.567,150.452z M67.368,150.271l-2.991-2.676l4.029,1.692
		l0.668,1.205L67.368,150.271z M64.045,147.291l-7.706-6.912c0.602-0.835,1.271-1.619,1.997-2.345l7.633,6.849l2.321,4.184
		L64.045,147.291z M58.436,137.929c0.781-0.773,1.616-1.488,2.514-2.116l4.8,8.674L58.436,137.929z M61.07,135.722
		c0.839-0.6,1.723-1.118,2.655-1.573l4.964,8.985l0.826,4.728l-3.433-3.08L61.07,135.722z M68.837,143.084l-0.876-5.066l3.213,8.466
		l-0.106,0.627L68.837,143.084z M75.884,146.2l1.901-1.739l-1.528,2.833C76.141,146.967,76.017,146.6,75.884,146.2z M74.896,143.336
		l0.094-0.177l-0.046,0.306C74.924,143.427,74.913,143.379,74.896,143.336z M85.702,137.035l-7.36,6.727l4.704-8.688
		C83.989,135.658,84.875,136.311,85.702,137.035z M79.995,146.616l-3.119,2.853l0.041-0.233c0,0-0.137-0.416-0.38-1.125
		L79.995,146.616z M76.837,149.718l4.546-0.331l-4.011,1.721l-0.732-0.198L76.837,149.718z M81.776,152.443l-4.353,0.315
		l-1.316-0.898l0.072-0.079l1.203-0.51L81.776,152.443z M82.218,152.566l10.044,2.686c-0.159,1.03-0.402,2.036-0.722,3.001
		l-9.952-2.665l-3.969-2.7L82.218,152.566z M81.156,155.463l-4.221-1.127l-0.983-1.322l1.431-0.1L81.156,155.463z M76.698,154.277
		l-1.293-0.347l-0.268-0.854l0.637-0.048L76.698,154.277z M76.85,154.465l2.725,3.66l-3.618-2.453l-0.495-1.576L76.85,154.465z
		 M83.492,168.775c-0.915,0.607-1.871,1.134-2.883,1.582l-2.994-9.457L83.492,168.775z M80.476,170.417
		c-0.943,0.399-1.914,0.736-2.915,0.997l-3.1-9.777l0.128-4.794l2.755,3.694L80.476,170.417z M74.323,161.208l-1.32-4.164
		l0.587-1.546l0.856,1.153L74.323,161.208z M72.842,157.042l-1.604,4.255l0.113-4.363l1.068-1.267L72.842,157.042z M71.213,156.878
		l-2.926,3.504l1.549-4.088l1.406-0.854L71.213,156.878z M58.862,166.628c-0.793-0.744-1.52-1.556-2.186-2.427l8.451-5.076
		L58.862,166.628z M56.588,164.09c-0.615-0.82-1.167-1.692-1.656-2.602l8.747-5.266l4.688-0.988l-2.944,3.538L56.588,164.09z
		 M54.861,161.358c-0.506-0.957-0.94-1.969-1.286-3.002l9.663-2.038L54.861,161.358z M53.528,158.208
		c-0.315-0.968-0.551-1.978-0.713-2.99l10.003-2.112l4.75,0.604l-3.944,2.373L53.528,158.208z M52.573,151.803l9.793,1.246
		l-9.577,2.02C52.638,154,52.559,152.908,52.573,151.803z M52.572,151.655c0.017-0.7,0.063-1.396,0.155-2.103
		c0.039-0.328,0.088-0.645,0.146-0.968l7.915,1.007l6.013,2.518l-3.995,0.848L52.572,151.655z M52.902,148.438
		c0.117-0.672,0.276-1.319,0.46-1.961l6.908,2.901L52.902,148.438z M54.522,143.454l9.439,3.959l3.146,2.83l-6.287-0.797
		l-7.408-3.11C53.709,145.336,54.084,144.375,54.522,143.454z M54.58,143.324c0.489-0.991,1.041-1.939,1.669-2.822l7.37,6.61
		L54.58,143.324z M66.114,133.152l1.571,4.133l0.929,5.408l-4.755-8.61C64.59,133.735,65.343,133.421,66.114,133.152z
		 M72.823,137.338l0.854-5.212c0.461,0.035,0.927,0.063,1.39,0.123c0.559,0.075,1.12,0.178,1.665,0.295l-1.662,10.164l-0.238,0.432
		C74.216,141.373,73.522,139.358,72.823,137.338z M91.283,145.123l-9.489,4.08l-4.778,0.344l3.4-3.108l9.565-4.114
		C90.483,143.222,90.918,144.157,91.283,145.123z M91.333,145.264c0.371,1.024,0.665,2.095,0.867,3.189l-9.949,0.72L91.333,145.264z
		 M92.522,151.664l-10.291,0.747l-4.627-1.247l4.225-1.815l10.402-0.759C92.408,149.604,92.502,150.625,92.522,151.664z
		 M92.522,151.82c0.014,0.913-0.034,1.844-0.156,2.767c-0.017,0.173-0.054,0.345-0.076,0.516l-9.618-2.576L92.522,151.82z
		 M90.208,161.422l-8.242-5.581l9.538,2.552C91.148,159.45,90.715,160.464,90.208,161.422z M90.132,161.56
		c-0.495,0.91-1.053,1.775-1.669,2.588l-8.515-5.776l-2.865-3.839l4.448,1.188L90.132,161.56z M77.41,171.452
		c-1.047,0.264-2.127,0.446-3.233,0.535l0.273-9.891L77.41,171.452z M74.034,172.008c-1.017,0.07-2.049,0.067-3.091-0.021
		l0.286-10.237l1.694-4.48l1.386,4.39L74.034,172.008z M67.573,171.422l3.489-9.24l-0.26,9.792
		c-0.263-0.025-0.516-0.052-0.771-0.079C69.189,171.79,68.371,171.62,67.573,171.422z M67.43,171.378
		c-1.005-0.259-1.979-0.599-2.914-1.013l3.613-9.57l3.076-3.675l-0.132,4.601L67.43,171.378z M71.003,132.147
		c0.827-0.066,1.667-0.069,2.521-0.028l-0.807,4.928C72.138,135.374,71.55,133.696,71.003,132.147z"/>
</g>
</svg>
