<?xml version="1.0" encoding="utf-8"?>
<!-- Generator: Adobe Illustrator 14.0.0, SVG Export Plug-In . SVG Version: 6.00 Build 43363)  -->
<!DOCTYPE svg PUBLIC "-//W3C//DTD SVG 1.1//EN" "http://www.w3.org/Graphics/SVG/1.1/DTD/svg11.dtd">
<svg version="1.1" id="Layer_1" xmlns="http://www.w3.org/2000/svg" xmlns:xlink="http://www.w3.org/1999/xlink" x="0px" y="0px"
	 width="200px" height="200px" viewBox="0 0 200 200" enable-background="new 0 0 200 200" xml:space="preserve">
<g>
	
		<radialGradient id="SVGID_1_" cx="60.8848" cy="53.5073" r="9.0167" gradientTransform="matrix(0.9879 0.1549 -0.1549 0.9879 11.3329 -34.838)" gradientUnits="userSpaceOnUse">
		<stop  offset="0" style="stop-color:#FFFFFF"/>
		<stop  offset="0.1843" style="stop-color:#FBFDFE"/>
		<stop  offset="0.3759" style="stop-color:#EEF9F9"/>
		<stop  offset="0.5709" style="stop-color:#DAF0F2"/>
		<stop  offset="0.7682" style="stop-color:#BCE5E8"/>
		<stop  offset="0.9654" style="stop-color:#97D7DB"/>
		<stop  offset="1" style="stop-color:#90D4D8"/>
	</radialGradient>
	<path fill="url(#SVGID_1_)" d="M71.036,30.723c-0.536,3.421-3.991,5.721-7.719,5.136c-3.726-0.584-6.313-3.832-5.777-7.251
		c0.536-3.42,3.993-5.718,7.719-5.134C68.986,24.059,71.571,27.304,71.036,30.723z"/>
	
		<radialGradient id="SVGID_2_" cx="65.7368" cy="98.9448" r="6.5315" gradientTransform="matrix(0.9879 0.1549 -0.1549 0.9879 11.3329 -34.838)" gradientUnits="userSpaceOnUse">
		<stop  offset="0" style="stop-color:#FFFFFF"/>
		<stop  offset="0.1843" style="stop-color:#FBFDFE"/>
		<stop  offset="0.3759" style="stop-color:#EEF9F9"/>
		<stop  offset="0.5709" style="stop-color:#DAF0F2"/>
		<stop  offset="0.7682" style="stop-color:#BCE5E8"/>
		<stop  offset="0.9654" style="stop-color:#97D7DB"/>
		<stop  offset="1" style="stop-color:#90D4D8"/>
	</radialGradient>
	<path fill="url(#SVGID_2_)" d="M64.103,74.232c-0.403,2.555-2.986,4.275-5.773,3.838c-2.785-0.437-4.719-2.864-4.318-5.42
		c0.401-2.559,2.986-4.275,5.77-3.838C62.569,69.248,64.503,71.673,64.103,74.232z"/>
	
		<radialGradient id="SVGID_3_" cx="70.0977" cy="119.3262" r="158.8065" gradientTransform="matrix(0.9879 0.1549 -0.1549 0.9879 11.3329 -34.838)" gradientUnits="userSpaceOnUse">
		<stop  offset="0" style="stop-color:#7FC343"/>
		<stop  offset="1" style="stop-color:#1DBFF0"/>
	</radialGradient>
	<path fill="url(#SVGID_3_)" d="M96.754,35.349c0,0-10.299-1.547-12.79,8.739c-0.062,0.395-3.448,3.446-19.067,4.375
		c-0.635,0.17-1.323,0.265-1.323,0.265s-1.101-3.754-3.607-4.146c-2.505-0.394-5.096,1.905-4.728,8.178
		c0.367,6.272,6.103,9.335,8.127,5.463c3.974-1.202,16.5-6.535,28.089-2.015c3.273,1.528,6.576,5.897,5.945,9.919
		c-0.631,4.022-6.87,11.49-10.088,13.486c-3.22,1.995,12.303,62.873,12.303,62.873s8.169,7.364,12.461,11.012
		c4.295,3.645,13.234,15.588,7.343,30.745c-3.104,6.001-9.27,10.842-17.12,6.64c-6.031-3.783-8.803-13.678-1.974-20.175
		c3.329-3.127,8.696,0.552,8.971,3.975c0.273,3.42-3.438,2.975-3.438,2.975s0.064,2.172,1.057,2.733
		c0.994,0.561,5.728-0.317,7.157-6.851c1.431-6.534-4.966-9.698-10.359-8.924c-5.392,0.777-13.811,5.358-11.857,17.016
		c1.112,6.121,8.768,17.05,23.814,13.014c13.952-3.938,23.613-27.145,21.2-45.359c-2.413-18.216-9.051-29.808-12.525-39.541
		c-3.473-9.734-9.956-35.617,0.273-49.148c5.989-2.844,11.256-11.884,7.944-19.633c1.568-1.375,1.954-3.41,0.851-6.286
		c-0.104-1.502,0.491-1.409,2.919-2.245c2.43-0.836,4.117-2.125,4.414-4.444s-3.651-3.005-5.498-3.294
		c-1.845-0.291-4.088-0.642-2.1-3.842c1.988-3.202,4.351-5.331-0.317-7.888s-8.573,0.819-10.333,1.691
		c-1.408,0.792-3.04-0.004-3.872-2.026c-0.831-2.022-1.554-5.176-2.917-5.526c-1.363-0.347-2.787,0.104-6.059,3.309
		c-2.601,2.362-3.655,0.912-5.403-0.443c-1.746-1.356-3.884-1.082-4.618,1.439c-0.731,2.521,1.67,3.571,2.864,4.571
		c1.194,0.997,1.907,2.055-0.134,4.303c0,0,2.994,1.438,4.036,4.573c2.202-3.125,6.171-6.329,11.593-4.983
		c5.42,1.344,9.707,6.161,8.065,13.471c-1.309,5.2-5.779,7.563-10.058,7.839c-4.277,0.273-9.604-3.085-10.771-7.726
		c-1.259,1.424-3.229,3.367-5.955,2.354C97.641,35.285,96.754,35.349,96.754,35.349z"/>
	<path fill="#010101" d="M143.372,47.78c-0.568-1.117-1.556-1.94-0.993-3.289c0.444-1.062,1.554-1.876,1.594-3.104
		c0.041-1.215-1.175-2.065-2.229-2.37c-1.075-0.31-2.298-0.06-3.127,0.701c-0.374,0.344-0.676,0.82-0.728,1.333
		c-0.038,0.386,0.426,1.716-0.133,1.849c-0.026,0.007-0.052,0.019-0.074,0.035c-0.47,0.003-1.114,0.199-1.368,0.242
		c-0.207,0.035-2.004,0.414-2.073,0.133c-0.015-0.054-0.041-0.09-0.076-0.115c-0.199-0.801-0.529-1.567-1.006-2.243
		c0.354-0.297,0.661-0.659,0.911-1.096c0.65-1.156,0.52-2.594,0.207-3.826c-0.146-0.574-0.344-1.182-0.368-1.775
		c-0.024-0.567,0.938-0.838,1.335-1.028c1.29-0.612,2.722-0.882,3.924-1.689c1.024-0.688,1.881-1.802,2.073-3.046
		c0.129-0.838-0.005-1.615-0.61-2.227c-0.63-0.64-1.57-0.979-2.407-1.242c-0.962-0.304-1.955-0.501-2.938-0.743
		c-0.801-0.199-1.797-0.399-2.302-1.119c-0.563-0.806,0.301-1.938,0.744-2.587c0.643-0.938,1.416-1.81,1.904-2.846
		c0.943-1.987-0.436-3.966-2.168-4.9c-1.912-1.03-4.468-1.168-6.554-0.673c-1.183,0.281-2.182,0.928-3.225,1.53
		c-1.067,0.616-2.464,1.396-3.583,0.474c-0.618-0.507-0.91-1.348-1.196-2.063c-0.271-0.678-0.496-1.375-0.735-2.065
		c-0.368-1.063-0.763-2.225-1.661-2.962c-0.865-0.714-2.012-0.476-2.956-0.073c-1.406,0.598-2.438,1.717-3.504,2.763
		c-0.556,0.543-1.142,1.064-1.827,1.429c-0.949,0.504-1.798,0.239-2.591-0.394c-1.135-0.902-2.106-1.945-3.664-1.958
		c-1.096-0.009-2.049,0.652-2.566,1.592c-0.606,1.098-0.386,2.453,0.229,3.489c0.709,1.195,1.896,1.906,2.949,2.75
		c0.399,0.32,0.737,0.733,0.791,1.254c0.08,0.726-0.563,1.466-0.984,1.979c-0.009,0.011-0.017,0.021-0.022,0.032
		c-0.837-0.427-1.753-0.731-2.733-0.88c-4.926-0.753-9.547,2.644-10.298,7.571c-0.5,3.265,0.825,6.395,3.211,8.354
		c-0.296,0.065-0.591,0.14-0.885,0.228c-3.96,1.179-7.669,4.866-8.29,9.045c-0.012,0.069-0.004,0.124,0.015,0.168
		c-0.588,0.331-1.205,0.612-1.836,0.862c-1.725,0.686-3.587,1.205-5.4,1.606c-2.004,0.443-4.055,0.636-6.097,0.814
		c-1.937,0.171-3.951,0.249-5.863,0.651c-0.061-0.329-0.142-0.662-0.25-0.999c-0.446-1.418-1.743-2.688-3.145-3.145
		c-2.973-0.972-5.179,2.129-5.703,4.642c-0.583,2.774-0.041,5.763,1.249,8.266c1.119,2.172,3.792,4.265,6.154,2.464
		c1.264-0.961,1.792-2.894,1.975-4.396c0.052-0.435-0.638-0.208-0.718,0.089c-0.292,1.125-0.506,2.253-1.131,3.258
		c-0.792,1.279-2.276,1.276-3.484,0.576c-2.303-1.333-3.304-4.678-3.593-7.149c-0.301-2.593,0.241-7.418,3.865-7.188
		c1.555,0.099,2.572,1.608,3.173,2.868c0.387,0.811,0.538,1.76,0.69,2.636c0.15,0.853,0.263,1.754,0.313,2.617
		c0.005,0.095,0.156,0.013,0.173-0.04c0.471-1.384,0.671-2.713,0.497-4.086c2.059-0.221,4.105-0.466,6.174-0.624
		c2.24-0.168,4.466-0.402,6.649-0.943c3.182-0.788,7.187-1.721,9.069-4.676c0.128-0.203-0.231-0.179-0.323-0.071
		c-0.418,0.499-0.891,0.927-1.404,1.302c0.721-1.729,1.509-3.367,2.796-4.775c1.313-1.433,2.995-2.448,4.863-2.977
		c4.043-1.146,8.447,0.143,11.909,2.326c0.532,0.334,0.949,0.44,1.554,0.518c0.128,0.015,0.409-0.222,0.203-0.292
		c-0.233-0.08-0.515-0.368-0.714-0.517c-0.284-0.212-0.556-0.444-0.842-0.657c-0.479-0.354-1.029-0.618-1.565-0.866
		c-0.217-0.1-0.435-0.196-0.652-0.288c2.701-1.217,4.754-3.733,5.234-6.874c0.579-3.802-1.311-7.421-4.469-9.221
		c0.037-0.018,0.069-0.041,0.098-0.068c0.732-0.78,1.548-1.811,1.106-2.936c-0.365-0.928-1.482-1.709-2.188-2.367
		c-0.995-0.925-1.85-2.195-1.653-3.616c0.179-1.279,1.266-1.962,2.508-1.641c1.543,0.396,2.366,2.219,3.933,2.443
		c1.371,0.195,2.579-0.696,3.532-1.565c1.217-1.102,2.229-2.323,3.801-2.943c1.257-0.496,2.119,0.111,2.696,1.219
		c0.616,1.181,0.971,2.482,1.455,3.716c0.479,1.223,1.101,2.564,2.521,2.825c1.134,0.209,2.402-0.642,3.319-1.188
		c1.105-0.656,2.102-1.312,3.389-1.529c2.197-0.372,4.897,0.044,6.654,1.493c0.85,0.701,1.381,1.798,1.289,2.909
		c-0.085,1.064-0.994,2.061-1.62,2.86c-1.08,1.378-2.823,3.632-0.525,4.794c0.762,0.386,1.65,0.544,2.472,0.743
		c0.979,0.237,1.964,0.477,2.9,0.863c0.776,0.318,1.466,0.784,1.825,1.566c0.452,0.979-0.592,2.447-1.296,3.025
		c-1.094,0.897-2.642,1.183-3.918,1.728c-0.996,0.425-2.286,0.999-2.24,2.259c0.035,0.94,0.453,1.872,0.575,2.808
		c0.111,0.862,0.025,1.823-0.51,2.542c-1.045,1.407-3.348,1.267-4.874,1.081c-0.53-0.066-1.274,0.858-0.51,0.942
		c1.537,0.173,3.346,0.143,4.772-0.553c1.58,2.458,1.106,5.718,0.371,8.39c-0.762,2.789-1.956,5.517-4.04,7.566
		c-4.13,4.065-10.527,4.833-16.023,5.234c-0.278,0.018-0.558,0.063-0.835,0.097c-0.182,0.02-0.473,0.383-0.157,0.396
		c2.768,0.12,5.643-0.256,8.347-0.834c2.735-0.586,5.387-1.554,7.711-3.129c1.116-0.757,2.074-1.659,2.89-2.677
		c0.534-0.005,1.113,0.068,1.46,0.503c0.419,0.524,0.282,1.366,0.169,1.966c-0.14,0.744-0.483,1.238-0.038,1.958
		c0.335,0.542,1.086,0.676,1.668,0.712c1.283,0.079,2.672-0.346,3.54-1.319c0.779-0.878,0.747-2.155,0.762-3.253
		c0.009-0.611,0.046-1.21,0.221-1.798c0.232-0.782,0.793-1.122,1.536-1.338c0.63-0.183,1.285-0.286,1.882-0.572
		c0.672-0.324,1.171-0.813,1.587-1.427C144.159,50.737,144.049,49.104,143.372,47.78z"/>
	
		<radialGradient id="SVGID_4_" cx="121.9063" cy="67.1392" r="75.645" gradientTransform="matrix(0.9879 0.1549 -0.1549 0.9879 11.3329 -34.838)" gradientUnits="userSpaceOnUse">
		<stop  offset="0" style="stop-color:#F4F5CB"/>
		<stop  offset="0.411" style="stop-color:#F9EE43"/>
		<stop  offset="1" style="stop-color:#F7BB17"/>
	</radialGradient>
	<path fill="url(#SVGID_4_)" d="M142.587,51.594c-0.708,1.523-2.386,1.41-3.72,2.015c-1.172,0.531-1.659,1.764-1.754,2.971
		c-0.088,1.133,0.188,2.581-0.564,3.542c-0.563,0.719-1.678,0.854-2.522,0.8c-0.556-0.032-1.068-0.271-1.19-0.863
		c-0.048-0.248,0.059-0.524,0.123-0.759c0.089-0.311,0.099-0.601,0.137-0.918c0.085-0.724,0.042-1.434-0.479-1.984
		c-0.38-0.403-0.982-0.523-1.551-0.555c0.676-0.965,1.24-2.019,1.695-3.136c1.087-2.674,1.927-5.689,1.573-8.597
		c-0.006-0.044-0.015-0.087-0.021-0.13c0.365,0.035,0.784-0.019,0.993-0.035c0.509-0.04,1.016-0.105,1.521-0.17
		c0.363-0.045,0.788-0.005,1.118-0.17c0.175-0.087,0.349-0.296,0.25-0.482c0.831-0.418,0.115-1.781,0.467-2.545
		c0.773-1.67,2.944-1.06,3.949-0.033c1.135,1.161-0.332,2.51-0.927,3.503c-0.679,1.135-0.553,2.17,0.142,3.239
		C142.698,48.63,143.322,50.017,142.587,51.594z"/>
	<g>
		
			<radialGradient id="SVGID_5_" cx="114.6016" cy="46.2529" r="17.6306" gradientTransform="matrix(0.9879 0.1549 -0.1549 0.9879 11.3329 -34.838)" gradientUnits="userSpaceOnUse">
			<stop  offset="0" style="stop-color:#FFFFFF"/>
			<stop  offset="0.5215" style="stop-color:#FEFBDD"/>
			<stop  offset="1" style="stop-color:#FED4A3"/>
		</radialGradient>
		<circle fill="url(#SVGID_5_)" cx="115.63" cy="30.436" r="10.813"/>
		<path fill="#010101" d="M121.401,41.495c-0.722-0.265-1.475-0.446-2.235-0.564c3.797-1.285,6.769-4.591,7.418-8.82
			c0.92-6.041-3.242-11.704-9.281-12.627c-6.04-0.923-11.702,3.24-12.626,9.28c-0.886,5.801,2.921,11.251,8.571,12.491
			c-1.172,0.371-2.262,0.97-3.236,1.876c-0.25,0.231-0.02,0.466,0.257,0.312c0.941-0.53,1.847-1.133,2.883-1.46
			c1.204-0.38,2.57-0.442,3.823-0.412c1.286,0.029,2.56,0.26,3.778,0.676c1.224,0.418,2.243,1.166,3.386,1.738
			c0.187,0.094,0.71-0.189,0.538-0.423C123.908,42.523,122.581,41.925,121.401,41.495z M114.036,40.86
			c-5.746-0.878-9.709-6.269-8.83-12.018c0.878-5.747,6.27-9.71,12.016-8.832c5.747,0.879,9.712,6.27,8.833,12.018
			c-0.688,4.499-4.14,7.906-8.366,8.751c-0.165-0.01-0.332-0.018-0.498-0.021c-0.89-0.022-1.757,0.03-2.595,0.17
			C114.409,40.912,114.224,40.889,114.036,40.86z"/>
	</g>
	
		<radialGradient id="SVGID_6_" cx="114.5898" cy="47.1694" r="7.5164" gradientTransform="matrix(0.9879 0.1549 -0.1549 0.9879 11.3329 -34.838)" gradientUnits="userSpaceOnUse">
		<stop  offset="0" style="stop-color:#0E62AF"/>
		<stop  offset="1" style="stop-color:#1C1740"/>
	</radialGradient>
	<circle fill="url(#SVGID_6_)" cx="117.229" cy="29.511" r="7.516"/>
	<circle fill="#FFFFFF" cx="118.84" cy="28.528" r="4.583"/>
	<path fill="#010101" d="M143.516,146.432c-0.665-0.723-3.139-1.864-2.031-3.134c0.761-0.87,1.722-1.604,1.319-2.904
		c-0.336-1.076-1.257-1.898-2.282-2.304c-0.983-0.387-2.062-0.124-2.803,0.598c-0.437,0.427-0.467,0.966-0.409,1.54
		c0.037,0.392,0.188,1.449-0.667,1.222c-0.081-0.021-0.195-0.056-0.305-0.094c-0.044-0.191-0.084-0.381-0.129-0.571
		c-0.894-3.844-2.078-7.595-3.399-11.302c0.625-0.302,1.256-0.325,1.835,0.319c0.583,0.644,0.893,1.489,1.467,2.149
		c0.596,0.686,1.394,1.015,2.302,0.917c1.129-0.12,2.309-0.747,2.219-2.03c-0.042-0.608-0.482-1.141-0.888-1.563
		c-0.358-0.373-0.925-0.577-1.229-0.992c-0.314-0.423,0.703-1.259,0.958-1.511c0.488-0.488,0.97-0.999,1.276-1.626
		c0.641-1.307-0.359-2.496-1.541-2.987c-1.155-0.475-3.454-0.581-3.233-2.387c0.079-0.668,0.618-1.241,0.869-1.851
		c0.247-0.598,0.244-1.266-0.08-1.832c-0.599-1.048-2.147-1.249-3.211-1.034c-1.52,0.304-2.044,1.594-2.289,2.978
		c-0.122,0.674-0.218,1.815-0.904,2.182c-0.265,0.146-0.608,0.257-0.944,0.334c-1.519-3.861-3.05-7.717-4.418-11.632
		c0.161-0.02,0.332-0.101,0.424-0.242c0.402-0.619,1.302-0.909,1.999-0.965c0.737-0.06,1.138,0.415,1.472,0.999
		c0.449,0.789,0.701,1.83,1.585,2.266c2.114,1.045,4.738-1.027,3.841-3.292c-0.435-1.101-1.48-1.336-2.497-1.616
		c-0.429-0.117-0.884-0.248-1.209-0.566c-0.477-0.464,0.119-1.306,0.419-1.684c0.646-0.816,1.791-1.044,2.391-1.91
		c0.712-1.022,0.277-2.519-0.359-3.468c-0.548-0.819-1.472-1.08-2.398-1.157c-0.906-0.074-2.138,0.175-2.775-0.65
		c-0.844-1.093-0.052-2.806-0.358-4.055c-0.42-1.718-3.143-1.188-4.066-0.25c-0.73,0.738-0.577,1.743-0.485,2.687
		c0.053,0.562,0.079,1.145-0.141,1.678c-0.104,0.25-0.841,0.81-1.195,0.745c-1.028-4.415-1.771-8.926-2.083-13.418
		c-0.129-1.875-0.199-3.792-0.154-5.714c0.014-0.015,0.031-0.031,0.046-0.048c0.52-0.63,1.417-1.02,2.204-0.691
		c0.85,0.354,0.812,1.125,0.594,1.891c-0.162,0.569-0.466,1.115-0.524,1.708c-0.063,0.631-0.012,1.262,0.177,1.869
		c0.366,1.18,1.246,1.934,2.482,2.066c1.034,0.11,2.713-0.186,3.243-1.212c0.852-1.652-3.073-4.19-0.816-5.369
		c0.873-0.457,1.924-0.598,2.64-1.337c0.746-0.768,0.722-1.772,0.092-2.604c-0.535-0.705-1.291-1.209-1.894-1.854
		c-0.828-0.895-0.683-1.838,0.145-2.672c0.797-0.806,1.758-1.368,2.39-2.337c0.567-0.868,0.468-1.981-0.111-2.807
		c-1.148-1.638-3.813-1.511-4.965,0.01c-0.582,0.764-0.754,1.925-1.655,2.403c-0.539,0.287-1.549,0.01-2.014-0.428
		c0.204-0.525,0.426-1.044,0.667-1.554c0.931-1.971,2.128-3.769,3.686-5.301c0.29-0.285-0.216-0.447-0.434-0.244
		c-1.976,1.849-3.411,4.06-4.441,6.461c-0.087,0.104-0.152,0.223-0.18,0.365c-0.005,0.032-0.009,0.059-0.01,0.088
		c-1.17,2.886-1.778,6.032-2.051,9.153c-0.065,0.744-0.112,1.489-0.146,2.237c-0.046,0.102-0.043,0.184-0.009,0.247
		c-0.212,5.481,0.421,11.022,1.349,16.405c1.098,6.381,2.821,12.587,5.045,18.667c2.353,6.43,5.031,12.727,7.241,19.207
		c2.205,6.464,3.956,13.115,4.383,19.952c0.435,6.966-0.601,14.048-2.759,20.671c-2.166,6.644-5.772,12.856-11.244,17.299
		c-5.222,4.236-12.424,5.794-18.829,3.57c-6.231-2.167-11.045-7.909-11.815-14.494c-0.381-3.259,0.43-6.555,2.38-9.201
		c1.897-2.576,4.859-4.37,7.927-5.16c4.479-1.15,10.009,0.82,10.939,5.777c0.382,2.046-0.19,4.111-1.262,5.856
		c-0.257,0.414-0.56,0.792-0.883,1.154c-0.352,0.398-1.033,0.772-1.255,1.248c-0.116,0.239-0.93,0.561-1.285,0.666
		c-0.318,0.093-0.624,0.031-0.938,0.027c-0.742-0.308-1.066-1.038-1.199-1.795c1.345,0.316,2.646-0.185,3.206-1.677
		c0.637-1.697-0.012-3.874-1.039-5.271c-1.309-1.787-3.546-2.32-5.66-1.967c-2.097,0.347-3.864,1.688-5.063,3.399
		c-2.44,3.479-3.163,8.546-1.705,12.543c0.882,2.421,2.955,4.507,5.091,5.866c2.339,1.489,5.037,2.12,7.793,1.871
		c6.332-0.571,10.406-6.347,12.064-12.003c0.47-1.604,0.748-3.256,0.86-4.918c0.114-0.127,0.155-0.274,0.022-0.389
		c0.143-2.818-0.194-5.675-0.924-8.414c0.039-0.085,0.033-0.166-0.058-0.229c-0.482-1.763-1.124-3.481-1.904-5.11
		c-2.054-4.306-5.158-7.833-8.757-10.919c-3.371-2.892-7.037-5.481-10.058-8.758c5.706-1.337,11.253-3.937,16.185-6.612
		c0.158-0.089,0.068-0.244-0.09-0.167c-3.408,1.579-6.867,3.218-10.429,4.505c2.659-2.171,4.708-4.716,6.007-7.939
		c1.354-3.358,2.12-6.926,2.463-10.523c0.698-7.29-0.354-14.754-2.437-21.751c-0.895-2.994-2.063-5.912-3.364-8.752
		c-1.314-2.872-2.878-5.661-4.856-8.133c-1.839-2.296-4.106-4.282-6.897-5.312c-2.719-1.007-5.357-0.248-7.805,0.977
		c2.597-2.186,5.107-4.598,6.847-7.529c0.471-0.793,0.868-1.629,1.161-2.5c-0.028,0.457-0.049,0.913-0.079,1.37
		c-0.063,1.017-0.211,2.039-0.443,3.032c-0.12,0.518-0.286,1.028-0.485,1.521c-0.156,0.391-0.357,0.745-0.339,1.172
		c0.017,0.412,0.662,0.235,0.842,0.078c0.761-0.674,1.052-1.747,1.309-2.702c0.27-0.992,0.369-2.011,0.41-3.034
		c0.029-0.685,0.014-1.367-0.028-2.049c0.098-0.105,0.166-0.224,0.177-0.347c0.201-2.649-0.382-5.351-1.92-7.542
		c-0.38-0.545-0.821-1.022-1.316-1.466c-0.267-0.24-0.449-0.575-0.731-0.819c-0.258-0.23-0.534-0.436-0.815-0.64
		c-1.117-0.808-2.397-1.283-3.653-1.816c-0.058-0.024-0.147-0.002-0.224,0.041c-1.267-0.371-2.587-0.604-3.827-0.79
		c-2.469-0.369-4.987-0.361-7.468-0.142c-5.027,0.439-9.966,1.836-14.619,3.729c-0.202,0.082-0.247,0.374,0.028,0.289
		c4.568-1.417,9.178-2.803,13.954-3.309c2.417-0.258,4.858-0.259,7.273,0.038c1.232,0.151,2.452,0.404,3.651,0.734
		c0.768,0.211,1.514,0.489,2.264,0.754c0.498,0.37,1.001,0.738,1.502,1.112c1.096,0.82,2.053,1.772,2.812,2.909
		c0.823,1.236,1.339,2.603,1.606,4.025c0.109,4.107-2.463,7.846-5.331,10.804c-3.898,4.017-8.619,7.08-12.876,10.676
		c-8.115,6.852-12.395,17.72-12.253,28.235c0.069,5.381,1.371,10.776,4.031,15.474c3.019,5.338,7.857,9.651,13.618,11.816
		c4.825,1.812,9.856,1.85,14.796,0.875c0.466,0.525,0.949,1.034,1.445,1.525c-0.714,0.875-1.351,1.989-1.41,3.078
		c-0.078,1.313,0.742,2.476,1.839,3.129c1.852,1.104,4.278,0.701,5.471-1.124c0.081,0.064,0.165,0.132,0.246,0.196
		c-0.087,0.254-0.306,0.53-0.415,0.752c-0.105,0.211-0.189,0.429-0.271,0.65c-0.202,0.543-0.229,1.119-0.131,1.684
		c0.169,0.969,0.983,1.924,1.847,2.362c1.478,0.753,3.286,0.34,4.527-0.706c0.091,0.089,0.181,0.179,0.271,0.269
		c-0.638,0.428-1.118,1.143-1.295,1.863c-0.232,0.956,0.165,1.956,0.723,2.725c1.206,1.653,3.554,2.552,5.489,1.777
		c0.166,0.297,0.328,0.595,0.483,0.896c-1.427-0.014-2.111,1.705-1.91,3.019c0.158,1.034,0.998,1.927,1.866,2.437
		c0.634,0.372,1.567,0.699,2.379,0.645c0.185,0.706,0.337,1.423,0.467,2.142c-1.349-0.35-2.396,1.383-2.529,2.666
		c-0.199,1.92,1.379,2.938,2.934,3.599c-0.02,0.354-0.048,0.708-0.082,1.057c-1.405-0.395-2.731,0.28-3.086,1.864
		c-0.176,0.809-0.033,1.679,0.305,2.428c0.255,0.563,0.765,1.224,1.385,1.453c-0.184,0.459-0.382,0.918-0.6,1.367
		s-0.457,0.892-0.712,1.326c-0.946-0.864-2.484-0.142-3.354,0.73c-0.541,0.539-0.973,1.323-1.005,2.096
		c-0.021,0.525,0.192,1.172,0.601,1.56c-0.577,0.434-1.192,0.816-1.853,1.127c-5.306,2.509-11.528-0.621-14.417-5.281
		c-1.074-1.734-1.333-3.907-1.275-5.907c0.061-2.191,0.627-4.43,1.719-6.337c0.963-1.686,2.477-3.045,4.453-3.305
		c2.22-0.29,4.097,0.712,5.068,2.715c0.524,1.081,0.771,2.416,0.431,3.583c-0.356,1.228-1.479,0.937-2.397,0.474
		c-0.331-0.17-0.885,0.204-0.869,0.564c0.053,1.248,0.329,2.611,1.535,3.227c0.376,0.189,0.838,0.301,1.378,0.249
		c0.722-0.069,1.426-0.4,2.038-0.766c1.167-0.705,2.32-1.713,3.187-2.991c0.776-1.144,1.306-2.45,1.555-3.807
		c0.503-2.747-0.379-5.51-2.513-7.336c-2.393-2.05-5.762-2.565-8.79-2.054c-6.133,1.048-11.509,5.9-12.399,12.156
		c-0.888,6.251,2.571,12.48,7.556,16.058c5.307,3.803,12.226,4.286,18.258,2.054c6.313-2.335,11.137-7.563,14.368-13.322
		c3.391-6.039,5.145-12.864,6.034-19.69c0.305-2.35,0.448-4.704,0.441-7.057c0.592,0.739,1.512,1.125,2.573,0.658
		c0.935-0.412,1.188-1.509,1.167-2.425c-0.009-0.432-0.312-1.152-0.137-1.568c0.086-0.204,0.376-0.358,0.542-0.486
		c0.368-0.276,0.747-0.532,1.106-0.818C144.084,148.881,144.477,147.477,143.516,146.432z"/>
	
		<radialGradient id="SVGID_7_" cx="121.9082" cy="67.1382" r="75.6425" gradientTransform="matrix(0.9879 0.1549 -0.1549 0.9879 11.3329 -34.838)" gradientUnits="userSpaceOnUse">
		<stop  offset="0" style="stop-color:#F4F5CB"/>
		<stop  offset="0.411" style="stop-color:#F9EE43"/>
		<stop  offset="1" style="stop-color:#F7BB17"/>
	</radialGradient>
	<path fill="url(#SVGID_7_)" d="M121.198,67.527c0.076,0.059,0.154,0.114,0.229,0.163c0.908,0.59,2.069,0.361,2.806-0.385
		c0.888-0.894,0.837-2.22,2.059-2.866c1.236-0.655,2.801,0.457,3.13,1.665c0.4,1.468-1.084,2.369-1.997,3.211
		c-0.849,0.779-1.615,1.782-1.199,2.979c0.491,1.425,4.755,3.527,2.126,5.009c-1.266,0.71-3.396,1.005-2.828,2.981
		c0.256,0.894,0.873,1.649,1.263,2.484c0.173,0.371,0.346,0.884,0.059,1.24c-0.402,0.501-1.517,0.565-2.107,0.624
		c-1.367,0.13-2.5-0.853-2.808-2.133c-0.307-1.277,0.335-2.221,0.723-3.376c0.316-0.94,0.028-1.752-0.873-2.201
		c-0.698-0.349-1.624-0.13-2.339,0.306C119.591,73.918,120.094,70.617,121.198,67.527z"/>
	
		<radialGradient id="SVGID_8_" cx="121.9082" cy="67.1343" r="75.6456" gradientTransform="matrix(0.9879 0.1549 -0.1549 0.9879 11.3329 -34.838)" gradientUnits="userSpaceOnUse">
		<stop  offset="0" style="stop-color:#F4F5CB"/>
		<stop  offset="0.411" style="stop-color:#F9EE43"/>
		<stop  offset="1" style="stop-color:#F7BB17"/>
	</radialGradient>
	<path fill="url(#SVGID_8_)" d="M122.817,102.028c-0.386-1.385-0.747-2.786-1.081-4.196c0.417-0.054,0.935-0.298,1.137-0.437
		c0.953-0.649,0.856-1.875,0.743-2.881c-0.063-0.551-0.157-1.15,0.078-1.67c0.299-0.663,1.371-0.788,2.013-0.76
		c0.809,0.035,0.962,0.652,0.979,1.346c0.035,1.411-0.524,3.284,1.039,4.093c0.99,0.51,2.268,0.199,3.333,0.393
		c1.442,0.264,2.212,2.024,1.969,3.366c-0.162,0.895-1.338,1.274-1.975,1.777c-0.652,0.52-1.415,1.499-1.283,2.384
		c0.111,0.761,1.104,1.014,1.716,1.184c1.08,0.3,2.046,0.615,2.295,1.865c0.278,1.389-0.911,2.188-2.176,2.125
		c-1.076-0.055-1.442-1.155-1.871-1.954s-1.032-1.358-1.978-1.4c-1.009-0.045-2.254,0.377-2.925,1.165
		C124.099,106.315,123.419,104.184,122.817,102.028z"/>
	
		<radialGradient id="SVGID_9_" cx="121.9063" cy="67.1357" r="75.6412" gradientTransform="matrix(0.9879 0.1549 -0.1549 0.9879 11.3329 -34.838)" gradientUnits="userSpaceOnUse">
		<stop  offset="0" style="stop-color:#F4F5CB"/>
		<stop  offset="0.411" style="stop-color:#F9EE43"/>
		<stop  offset="1" style="stop-color:#F7BB17"/>
	</radialGradient>
	<path fill="url(#SVGID_9_)" d="M132.663,129.075c-0.979-2.723-2.03-5.427-3.09-8.125c0.605-0.093,1.157-0.277,1.621-0.761
		c1.06-1.096,0.57-2.873,1.453-4.053c0.773-1.034,2.891-0.581,3.423,0.471c0.34,0.674-0.076,1.38-0.444,1.933
		c-0.377,0.567-0.696,1.079-0.739,1.777c-0.095,1.544,1.585,2.165,2.78,2.445c0.765,0.184,1.393,0.398,1.954,0.969
		c0.632,0.64,0.332,1.425-0.134,2.044c-0.49,0.646-2.172,1.849-1.703,2.812c0.169,0.346,0.698,0.502,0.992,0.702
		c0.6,0.411,1.33,1.18,1.246,1.968c-0.124,1.193-1.873,1.106-2.565,0.522c-0.612-0.513-1.065-1.201-1.575-1.813
		c-0.452-0.543-0.99-1.065-1.714-1.187C133.639,128.692,133.13,128.834,132.663,129.075z"/>
	
		<radialGradient id="SVGID_10_" cx="115.9004" cy="157.8525" r="64.1656" gradientTransform="matrix(0.9879 0.1549 -0.1549 0.9879 11.3329 -34.838)" gradientUnits="userSpaceOnUse">
		<stop  offset="0" style="stop-color:#7FC343"/>
		<stop  offset="1" style="stop-color:#1DBFF0"/>
	</radialGradient>
	<path fill="url(#SVGID_10_)" d="M105.549,148.981c-1.026,1.682-3.258,1.545-4.592,0.321c-0.818-0.747-1.267-1.856-1.034-2.946
		c0.145-0.671,0.519-1.25,0.851-1.845c1.586,1.522,3.296,2.912,5.017,4.29C105.688,148.839,105.597,148.901,105.549,148.981z"/>
	
		<radialGradient id="SVGID_11_" cx="115.8994" cy="157.8594" r="64.1491" gradientTransform="matrix(0.9879 0.1549 -0.1549 0.9879 11.3329 -34.838)" gradientUnits="userSpaceOnUse">
		<stop  offset="0" style="stop-color:#7FC343"/>
		<stop  offset="1" style="stop-color:#1DBFF0"/>
	</radialGradient>
	<path fill="url(#SVGID_11_)" d="M107.553,154.219c-0.827-0.528-1.399-1.431-1.5-2.398c-0.049-0.464,0.079-0.931,0.229-1.366
		c0.099-0.291,0.316-0.591,0.464-0.889c1.67,1.334,3.335,2.684,4.888,4.15C110.437,154.673,108.991,155.137,107.553,154.219z"/>
	
		<radialGradient id="SVGID_12_" cx="115.8975" cy="157.8506" r="64.1729" gradientTransform="matrix(0.9879 0.1549 -0.1549 0.9879 11.3329 -34.838)" gradientUnits="userSpaceOnUse">
		<stop  offset="0" style="stop-color:#7FC343"/>
		<stop  offset="1" style="stop-color:#1DBFF0"/>
	</radialGradient>
	<path fill="url(#SVGID_12_)" d="M112.637,158.447c-0.526-0.575-0.857-1.319-0.892-2.097c-0.031-0.758,0.383-1.228,0.861-1.681
		c0.441,0.448,0.873,0.906,1.288,1.384c1.069,1.22,2.025,2.54,2.865,3.933C115.216,160.21,113.737,159.649,112.637,158.447z"/>
	
		<radialGradient id="SVGID_13_" cx="115.9033" cy="157.8584" r="64.1519" gradientTransform="matrix(0.9879 0.1549 -0.1549 0.9879 11.3329 -34.838)" gradientUnits="userSpaceOnUse">
		<stop  offset="0" style="stop-color:#7FC343"/>
		<stop  offset="1" style="stop-color:#1DBFF0"/>
	</radialGradient>
	<path fill="url(#SVGID_13_)" d="M118.809,166.584c-0.735-0.269-1.349-0.785-1.774-1.437c-0.549-0.846-0.838-3.326,0.778-3.083
		c0.024,0,0.053,0,0.081-0.009c0.763,1.533,1.387,3.132,1.864,4.773C119.433,166.785,119.116,166.694,118.809,166.584z"/>
	
		<radialGradient id="SVGID_14_" cx="115.8945" cy="157.8496" r="64.1735" gradientTransform="matrix(0.9879 0.1549 -0.1549 0.9879 11.3329 -34.838)" gradientUnits="userSpaceOnUse">
		<stop  offset="0" style="stop-color:#7FC343"/>
		<stop  offset="1" style="stop-color:#1DBFF0"/>
	</radialGradient>
	<path fill="url(#SVGID_14_)" d="M118.838,173.442c-0.299-0.698-0.188-1.561,0.102-2.237c0.324-0.764,0.89-1.042,1.615-0.836
		c0.221,1.394,0.342,2.805,0.351,4.214c0.001,0.193,0,0.387-0.004,0.581C120.056,174.779,119.233,174.365,118.838,173.442z"/>
	
		<radialGradient id="SVGID_15_" cx="115.8877" cy="157.8633" r="64.1587" gradientTransform="matrix(0.9879 0.1549 -0.1549 0.9879 11.3329 -34.838)" gradientUnits="userSpaceOnUse">
		<stop  offset="0" style="stop-color:#7FC343"/>
		<stop  offset="1" style="stop-color:#1DBFF0"/>
	</radialGradient>
	<path fill="url(#SVGID_15_)" d="M118.898,181.216c-0.335-0.558-0.469-1.21-0.467-1.856c0.005-0.547,0.166-1.181,0.594-1.557
		c0.463-0.405,1.143-0.238,1.677-0.021c-0.193,1.465-0.53,2.908-1.019,4.302c-0.035-0.023-0.072-0.048-0.105-0.072
		C119.295,181.797,119.078,181.518,118.898,181.216z"/>
	
		<radialGradient id="SVGID_16_" cx="115.8838" cy="157.8398" r="64.1861" gradientTransform="matrix(0.9879 0.1549 -0.1549 0.9879 11.3329 -34.838)" gradientUnits="userSpaceOnUse">
		<stop  offset="0" style="stop-color:#7FC343"/>
		<stop  offset="1" style="stop-color:#1DBFF0"/>
	</radialGradient>
	<path fill="url(#SVGID_16_)" d="M114.514,188.467c-0.076-0.6,0.229-1.208,0.587-1.669c0.641-0.827,1.848-1.45,2.547-0.512
		c-0.747,1.162-1.633,2.238-2.664,3.141c-0.053-0.047-0.102-0.098-0.146-0.152C114.65,189.043,114.552,188.76,114.514,188.467z"/>
	
		<radialGradient id="SVGID_17_" cx="121.9102" cy="67.1318" r="75.6413" gradientTransform="matrix(0.9879 0.1549 -0.1549 0.9879 11.3329 -34.838)" gradientUnits="userSpaceOnUse">
		<stop  offset="0" style="stop-color:#F4F5CB"/>
		<stop  offset="0.411" style="stop-color:#F9EE43"/>
		<stop  offset="1" style="stop-color:#F7BB17"/>
	</radialGradient>
	<path fill="url(#SVGID_17_)" d="M140.881,150.714c-0.246,0.273-0.264,0.615-0.231,0.961c0.065,0.706,0.18,1.373-0.013,2.067
		c-0.278,0.996-1.228,0.82-1.852,0.255c-0.642-0.586-0.756-1.499-0.723-2.319c0.009-0.183-0.141-0.235-0.316-0.211
		c-0.174-3.236-0.619-6.46-1.307-9.642c0.098,0.052,0.21,0.094,0.354,0.115c0.491,0.072,1.049-0.483,1.203-0.9
		c0.227-0.615-0.15-1.493,0.28-2.009c0.408-0.488,1.068-0.388,1.596-0.19c1.065,0.395,1.987,1.421,2.02,2.586
		c0.037,1.229-1.688,1.64-1.377,2.998c0.32,1.412,1.965,1.654,2.604,2.819C144.088,149.001,141.783,149.704,140.881,150.714z"/>
	<path fill="#010101" d="M138.436,27.857c-0.145-0.843-1.042-1.138-1.781-1.192c-0.075-0.006-0.19,0.123-0.075,0.138
		c0.687,0.105,1.267,0.489,1.338,1.221c0.062,0.647-0.474,1.146-0.87,1.575c-0.197,0.215,0.101,0.308,0.274,0.227
		C138.06,29.474,138.572,28.69,138.436,27.857z"/>
	<path fill="#010101" d="M60.104,49.72c-0.331-0.628-0.837-1.103-1.455-1.44c-0.376-0.205-1.042-0.374-1.303,0.084
		c-0.023,0.041,0.014,0.069,0.054,0.065c0.52-0.063,1.037,0.519,1.332,0.88c0.195,0.239,0.363,0.502,0.506,0.781
		c-0.676,0.397-0.929,1.656-0.797,2.307c0.038,0.194,0.34,0.034,0.349-0.111c0.027-0.434,0.14-1.556,0.572-1.945
		c0.105,0.225,0.197,0.453,0.28,0.683c0.453,1.282,0.472,2.66,0.776,3.971c0.034,0.155,0.278,0.043,0.304-0.068
		C61.108,53.209,60.925,51.282,60.104,49.72z"/>
	<g>
		<path fill="#FFFFFF" d="M65.407,24.529c-0.993-0.221-2.013-0.066-2.943,0.327c-0.475,0.203-2.311,1.153-1.87,1.894
			c0.087,0.147,0.292,0.1,0.414,0.038c0.278-0.134,0.467-0.364,0.671-0.59c0.266-0.291,0.64-0.48,0.99-0.643
			c0.687-0.32,1.482-0.432,2.221-0.288C65.251,25.338,65.898,24.639,65.407,24.529z"/>
		<path fill="#FFFFFF" d="M60.04,28.705c0.063-0.447-0.697-0.239-0.752,0.092c-0.02,0.11-0.039,0.221-0.059,0.334
			c-0.014,0.079-0.035,0.163-0.011,0.241c0.038,0.138,0.159,0.198,0.299,0.18c0.242-0.029,0.436-0.236,0.468-0.473
			C60.005,28.953,60.022,28.83,60.04,28.705z"/>
	</g>
	<g>
		<path fill="#93D7ED" d="M63.991,74.603c-0.075,0.451-0.208,0.879-0.398,1.292c-0.299,0.644,0.398-0.545-0.015,0.026
			c-0.064,0.089-0.135,0.175-0.205,0.257c-0.164,0.199-0.349,0.377-0.543,0.546c-0.705,0.621-1.596,1.005-2.512,1.173
			c-1.937,0.354-3.966-0.44-5.182-1.974c-0.573-0.723-0.911-1.61-1.005-2.526c-0.045-0.453-0.007-0.91,0.082-1.356
			c0.041-0.224,0.109-0.44,0.185-0.653c0.037-0.105,0.082-0.208,0.127-0.31c0.045-0.097,0.09-0.192,0.14-0.285
			c-0.239,0.378-0.267,0.432-0.078,0.158c1.131-1.577,3.154-2.261,5.033-1.988C62.319,69.355,64.388,71.864,63.991,74.603
			c0.04-0.255,0.403-0.467,0.441-0.728c0.274-1.906-0.621-3.722-2.193-4.795c-1.631-1.114-3.82-1.193-5.556-0.287
			c-0.766,0.4-1.417,1.018-1.876,1.749c-0.444,0.706-0.852,1.401-1.036,2.226c-0.412,1.873,0.465,3.771,1.966,4.894
			c1.645,1.228,3.939,1.357,5.741,0.416c0.79-0.413,1.445-1.051,1.913-1.806c0.472-0.762,0.888-1.5,1.041-2.397
			C64.388,74.133,64.038,74.341,63.991,74.603z"/>
		<path fill="#FFFFFF" d="M59.976,69.515c-0.759-0.169-1.546-0.05-2.257,0.251c-0.368,0.155-1.773,0.884-1.437,1.454
			c0.067,0.111,0.223,0.075,0.32,0.03c0.212-0.104,0.354-0.281,0.514-0.453c0.204-0.224,0.491-0.37,0.759-0.496
			c0.528-0.244,1.138-0.33,1.707-0.219C59.856,70.136,60.353,69.599,59.976,69.515z"/>
		<path fill="#FFFFFF" d="M55.856,72.72c0.049-0.343-0.534-0.183-0.577,0.07c-0.014,0.085-0.03,0.172-0.043,0.257
			c-0.01,0.061-0.029,0.124-0.01,0.186c0.031,0.105,0.121,0.151,0.229,0.138c0.186-0.023,0.335-0.182,0.362-0.364
			C55.831,72.911,55.843,72.815,55.856,72.72z"/>
		<path fill="#40C1C5" d="M63.991,74.603c-0.075,0.451-0.208,0.879-0.398,1.292c-0.299,0.644,0.398-0.545-0.015,0.026
			c-0.064,0.089-0.135,0.175-0.205,0.257c-0.164,0.199-0.349,0.377-0.543,0.546c-0.705,0.621-1.596,1.005-2.512,1.173
			c-1.937,0.354-3.966-0.44-5.182-1.974c-0.573-0.723-0.911-1.61-1.005-2.526c-0.045-0.453-0.007-0.91,0.082-1.356
			c0.041-0.224,0.109-0.44,0.185-0.653c0.037-0.105,0.082-0.208,0.127-0.31c0.045-0.097,0.09-0.192,0.14-0.285
			c-0.239,0.378-0.267,0.432-0.078,0.158c1.131-1.577,3.154-2.261,5.033-1.988C62.319,69.355,64.388,71.864,63.991,74.603
			c0.04-0.255,0.403-0.467,0.441-0.728c0.274-1.906-0.621-3.722-2.193-4.795c-1.631-1.114-3.82-1.193-5.556-0.287
			c-0.766,0.4-1.417,1.018-1.876,1.749c-0.444,0.706-0.852,1.401-1.036,2.226c-0.412,1.873,0.465,3.771,1.966,4.894
			c1.645,1.228,3.939,1.357,5.741,0.416c0.79-0.413,1.445-1.051,1.913-1.806c0.472-0.762,0.888-1.5,1.041-2.397
			C64.388,74.133,64.038,74.341,63.991,74.603z"/>
	</g>
	
		<radialGradient id="SVGID_18_" cx="96.71" cy="48.5674" r="17.3417" gradientTransform="matrix(0.9879 0.1549 -0.1549 0.9879 11.3329 -34.838)" gradientUnits="userSpaceOnUse">
		<stop  offset="0" style="stop-color:#FFFFFF"/>
		<stop  offset="0.5215" style="stop-color:#FEFBDD"/>
		<stop  offset="1" style="stop-color:#FED4A3"/>
	</radialGradient>
	<path fill="url(#SVGID_18_)" d="M106.674,29.273c-0.48,3.145-2.638,5.625-5.42,6.674c-0.883-0.329-1.789-0.599-2.702-0.826
		c-1.766-0.438-3.545-0.551-5.307-0.272c-2.472-1.816-3.879-4.909-3.385-8.145c0.708-4.635,5.054-7.831,9.691-7.123
		C104.187,20.291,107.382,24.639,106.674,29.273z"/>
	
		<radialGradient id="SVGID_19_" cx="97.668" cy="48.3096" r="6.1729" gradientTransform="matrix(0.9879 0.1549 -0.1549 0.9879 11.3329 -34.838)" gradientUnits="userSpaceOnUse">
		<stop  offset="0" style="stop-color:#0E62AF"/>
		<stop  offset="1" style="stop-color:#1C1740"/>
	</radialGradient>
	<circle fill="url(#SVGID_19_)" cx="100.336" cy="28.014" r="6.173"/>
	<circle fill="#FFFFFF" cx="101.557" cy="27.262" r="3.764"/>
	<g opacity="0.5">
		
			<radialGradient id="SVGID_20_" cx="70.0981" cy="119.3262" r="158.8058" gradientTransform="matrix(0.9879 0.1549 -0.1549 0.9879 11.3329 -34.838)" gradientUnits="userSpaceOnUse">
			<stop  offset="0" style="stop-color:#F6CD18"/>
			<stop  offset="0.0532" style="stop-color:#D5C72A"/>
			<stop  offset="0.1149" style="stop-color:#B3C036"/>
			<stop  offset="0.1717" style="stop-color:#99BC3D"/>
			<stop  offset="0.2211" style="stop-color:#88B940"/>
			<stop  offset="0.2577" style="stop-color:#82B841"/>
			<stop  offset="0.6857" style="stop-color:#3871B5"/>
			<stop  offset="0.8589" style="stop-color:#336EB3"/>
			<stop  offset="1" style="stop-color:#0658A3"/>
		</radialGradient>
		<path fill="url(#SVGID_20_)" d="M111.052,172.391c-0.544-3.421-3.485-6.495-7.819-5.07c-10.167,4.081-10.736,16.761-2.086,23.767
			c8.649,7.006,22.766,0.758,25.319-14.245c3.576-25.385-20.593-32.823-12.318-35.173c8.27-2.354,9.304-11.516,4.152-9.688
			c-5.152,1.829,0.795-6.361-0.93-21.225c-3.222-27.791-16.669-32.005-15.437-37.283c1.233-5.28,4.758-12.227-5.505-17.89
			c-10.259-5.664-18.761-3.143-25.785-1.002c-7.025,2.142-4.415-0.287-6.76-0.857c-2.341-0.57-1.214,3.863-3.555,3.292
			c-2.926-1.008-4.307-4.582-4.964-7.639c-0.149,0.967-0.203,2.089-0.125,3.383c0.367,6.272,6.103,9.335,8.127,5.463
			c3.974-1.202,16.5-6.535,28.089-2.015c3.273,1.528,6.576,5.897,5.945,9.919c-0.631,4.022-6.87,11.49-10.088,13.486
			c-3.22,1.995,12.303,62.873,12.303,62.873s8.169,7.364,12.461,11.012c4.295,3.645,13.234,15.588,7.343,30.745
			c-3.104,6.001-9.27,10.842-17.12,6.64c-6.031-3.783-8.803-13.678-1.974-20.175c3.329-3.127,8.696,0.552,8.971,3.975
			c0.273,3.42-3.438,2.975-3.438,2.975s0.037,1.16,0.443,2.003C109.969,179.328,111.536,175.419,111.052,172.391z"/>
	</g>
	
		<radialGradient id="SVGID_21_" cx="94.9297" cy="101.7031" r="100.5039" gradientTransform="matrix(0.9879 0.1549 -0.1549 0.9879 11.3329 -34.838)" gradientUnits="userSpaceOnUse">
		<stop  offset="0" style="stop-color:#F4F5CB"/>
		<stop  offset="0.411" style="stop-color:#F9EE43"/>
		<stop  offset="1" style="stop-color:#F7BB17"/>
	</radialGradient>
	<path fill="url(#SVGID_21_)" d="M99.714,141.694c-0.429,0.117-0.872,0.196-1.317,0.265c0.001,0.002,0,0.005,0,0.005
		c-0.414,0.068-0.832,0.131-1.252,0.183c-0.046,0.012-0.093,0.018-0.136,0.025c-0.022,0.003-0.037,0.003-0.052,0
		c-0.857,0.106-1.717,0.176-2.589,0.204c-3.811,0.127-7.554-0.686-10.949-2.423c-1.47-0.753-2.867-1.675-4.181-2.71
		c0.87,0.354,1.781,0.595,2.736,0.761c3.583,0.619,7.501,0.152,10.946-0.944c0.095-0.027,0.161-0.197,0.015-0.173
		c-3.467,0.584-6.974,1.193-10.465,0.404c-1.664-0.373-3.26-1.078-4.651-2.054c-1.119-0.783-2.143-1.688-3.225-2.514
		c-3.039-3.694-4.961-8.104-5.902-12.748c0.487,0.48,1.02,0.92,1.547,1.345c1.743,1.412,3.616,2.591,5.71,3.411
		c4.326,1.693,9.192,1.476,13.657,0.511c0.15-0.031,0.306-0.29,0.062-0.263c-4.325,0.491-8.648,0.52-12.784-0.999
		c-2.013-0.736-3.789-1.878-5.467-3.192c-0.683-0.532-1.346-1.086-1.962-1.694c-0.379-0.373-0.718-0.934-1.137-1.328
		c-0.544-4.021-0.396-8.16,0.362-12.121c0.575,0.771,1.442,1.4,2.144,1.952c1.817,1.427,3.986,2.458,6.147,3.235
		c5.101,1.829,10.698,1.93,16.033,1.385c0.109-0.012,0.196-0.182,0.041-0.175c-5.322,0.253-10.705,0.011-15.717-1.961
		c-2.07-0.814-4.048-1.953-5.809-3.313c-0.591-0.453-1.136-0.958-1.691-1.456c-0.252-0.227-0.496-0.464-0.752-0.688
		c-0.01-0.008-0.073-0.077-0.15-0.154c0.064-0.289,0.133-0.575,0.202-0.863c0.851-3.428,2.155-6.797,3.923-9.887
		c0.633,1.08,2.241,1.596,3.31,1.958c2.002,0.676,4.173,1.005,6.23,1.441c5.881,1.245,12.182,1.155,18.124,0.382
		c0.13-0.019,0.247-0.226,0.052-0.216c-2.921,0.137-5.826,0.401-8.756,0.389c-2.837-0.01-5.671-0.244-8.453-0.81
		c-1.319-0.269-2.546-0.745-3.831-1.122c-0.712-0.208-1.428-0.392-2.135-0.62c-0.826-0.268-1.651-0.545-2.431-0.938
		c-0.6-0.3-1.306-0.719-1.572-1.371c0.783-1.278,1.651-2.503,2.606-3.655c1.33-1.607,2.976-2.938,4.618-4.225
		c0.481,1.191,1.721,1.852,2.854,2.322c1.565,0.649,3.265,0.965,4.93,1.24c1.93,0.316,3.826,0.498,5.785,0.375
		c1.286-0.079,2.566-0.275,3.829-0.532c1.25-0.254,2.562-0.542,3.739-1.038c0.175-0.074,0.22-0.312-0.023-0.251
		c-1.224,0.298-2.412,0.714-3.642,0.987c-1.185,0.258-2.385,0.433-3.593,0.53c-1.911,0.154-3.768-0.028-5.651-0.327
		c-1.591-0.252-3.177-0.571-4.7-1.09c-1.249-0.426-2.75-1.099-3.326-2.373c0.166-0.129,0.332-0.26,0.5-0.39
		c2.08-1.625,4.19-3.211,6.237-4.877c0.062,0.023,0.148,0.018,0.245-0.038c1.53-0.853,3.116-1.646,4.872-1.896
		c1.805-0.257,3.518,0.307,5.066,1.201c2.721,1.573,4.845,4.065,6.559,6.655c1.758,2.661,3.14,5.572,4.378,8.508
		c1.327,3.147,2.474,6.367,3.341,9.675c1.646,6.322,2.226,12.986,1.364,19.481c-0.42,3.172-1.227,6.302-2.461,9.254
		c-1.291,3.11-3.411,5.562-6.04,7.63c-0.132,0.104-0.156,0.202-0.114,0.273c-1.717,0.59-3.456,1.09-5.228,1.455
		C99.726,141.706,99.72,141.697,99.714,141.694z"/>
	<g>
		<path fill="none" d="M93.003,112.217c0.109-0.012,0.196-0.182,0.041-0.175c-5.322,0.253-10.705,0.011-15.717-1.961
			c-0.634-0.249-1.256-0.529-1.87-0.833c-0.052,0.311-0.102,0.622-0.148,0.93c0.55,0.238,1.106,0.453,1.662,0.654
			C82.071,112.661,87.668,112.762,93.003,112.217z"/>
		<path fill="none" d="M89.605,125.242c0.15-0.031,0.306-0.29,0.062-0.263c-4.325,0.491-8.648,0.52-12.784-0.999
			c-0.604-0.222-1.186-0.48-1.751-0.768c0.069,0.433,0.144,0.859,0.229,1.275c0.195,0.085,0.39,0.166,0.588,0.243
			C80.274,126.425,85.141,126.207,89.605,125.242z"/>
		<path fill="none" d="M100.714,97.502c0.13-0.019,0.247-0.226,0.052-0.216c-2.921,0.137-5.826,0.401-8.756,0.389
			c-2.837-0.01-5.671-0.244-8.453-0.81c-1.319-0.269-2.546-0.745-3.831-1.122c-0.092-0.026-0.183-0.052-0.274-0.078
			c-0.113,0.247-0.222,0.498-0.331,0.752c1.159,0.253,2.331,0.46,3.469,0.702C88.471,98.365,94.771,98.275,100.714,97.502z"/>
		<path fill="none" d="M94.38,88.872c1.286-0.079,2.566-0.275,3.829-0.532c1.25-0.254,2.562-0.542,3.739-1.038
			c0.175-0.074,0.22-0.312-0.023-0.251c-1.224,0.298-2.412,0.714-3.642,0.987c-1.185,0.258-2.385,0.433-3.593,0.53
			c-1.911,0.154-3.768-0.028-5.651-0.327c-1.519-0.241-3.037-0.546-4.501-1.026c-0.075,0.096-0.149,0.191-0.227,0.288
			c1.381,0.488,2.846,0.757,4.285,0.994C90.525,88.813,92.421,88.995,94.38,88.872z"/>
		<path fill="none" d="M92.934,136.887c-3.467,0.584-6.974,1.193-10.465,0.404c-0.086-0.018-0.171-0.037-0.256-0.058
			c0.348,0.327,0.705,0.643,1.069,0.946c3.213,0.321,6.607-0.155,9.638-1.12C93.014,137.032,93.08,136.862,92.934,136.887z"/>
		
			<radialGradient id="SVGID_22_" cx="94.9287" cy="101.7021" r="100.5067" gradientTransform="matrix(0.9879 0.1549 -0.1549 0.9879 11.3329 -34.838)" gradientUnits="userSpaceOnUse">
			<stop  offset="0" style="stop-color:#F4F5CB"/>
			<stop  offset="0.411" style="stop-color:#F9EE43"/>
			<stop  offset="1" style="stop-color:#F7BB17"/>
		</radialGradient>
		<path fill="url(#SVGID_22_)" d="M70.823,107.597c-0.702-0.552-1.569-1.182-2.144-1.952c-0.757,3.961-0.906,8.1-0.362,12.121
			c0.419,0.395,0.757,0.955,1.137,1.328c0.617,0.608,1.279,1.162,1.962,1.694c1.176,0.92,2.396,1.753,3.716,2.425
			c-0.593-3.746-0.583-8.065,0.177-13.035C73.715,109.497,72.173,108.652,70.823,107.597z"/>
		
			<radialGradient id="SVGID_23_" cx="94.9277" cy="101.6934" r="100.5173" gradientTransform="matrix(0.9879 0.1549 -0.1549 0.9879 11.3329 -34.838)" gradientUnits="userSpaceOnUse">
			<stop  offset="0" style="stop-color:#F4F5CB"/>
			<stop  offset="0.411" style="stop-color:#F9EE43"/>
			<stop  offset="1" style="stop-color:#F7BB17"/>
		</radialGradient>
		<path fill="url(#SVGID_23_)" d="M81.973,138.004c-0.955-0.166-1.866-0.407-2.736-0.761c1.314,1.035,2.711,1.957,4.181,2.71
			c1.943,0.993,4.001,1.686,6.122,2.069c-2.266-1.002-4.379-2.271-6.258-3.843C82.84,138.137,82.407,138.079,81.973,138.004z"/>
		
			<radialGradient id="SVGID_24_" cx="94.9282" cy="101.7021" r="100.5141" gradientTransform="matrix(0.9879 0.1549 -0.1549 0.9879 11.3329 -34.838)" gradientUnits="userSpaceOnUse">
			<stop  offset="0" style="stop-color:#F4F5CB"/>
			<stop  offset="0.411" style="stop-color:#F9EE43"/>
			<stop  offset="1" style="stop-color:#F7BB17"/>
		</radialGradient>
		<path fill="url(#SVGID_24_)" d="M83.666,87.256c-1.133-0.47-2.373-1.131-2.854-2.322c-1.643,1.286-3.289,2.618-4.618,4.225
			c-0.955,1.152-1.823,2.377-2.606,3.655c0.266,0.652,0.972,1.071,1.572,1.371c0.78,0.393,1.605,0.67,2.431,0.938
			c0.617,0.201,1.238,0.366,1.861,0.542c1.45-3.219,3.119-5.914,4.859-8.164C84.096,87.428,83.878,87.345,83.666,87.256z"/>
		
			<radialGradient id="SVGID_25_" cx="94.9307" cy="101.7012" r="100.516" gradientTransform="matrix(0.9879 0.1549 -0.1549 0.9879 11.3329 -34.838)" gradientUnits="userSpaceOnUse">
			<stop  offset="0" style="stop-color:#F4F5CB"/>
			<stop  offset="0.411" style="stop-color:#F9EE43"/>
			<stop  offset="1" style="stop-color:#F7BB17"/>
		</radialGradient>
		<path fill="url(#SVGID_25_)" d="M79.121,96.418c-0.937-0.205-1.866-0.437-2.762-0.739c-1.069-0.363-2.677-0.879-3.31-1.958
			c-1.769,3.089-3.072,6.458-3.923,9.887c-0.069,0.288-0.138,0.574-0.202,0.863c0.077,0.077,0.14,0.146,0.15,0.154
			c0.256,0.224,0.5,0.461,0.752,0.688c0.555,0.498,1.1,1.003,1.691,1.456c1.223,0.944,2.551,1.78,3.939,2.479
			c0.223-1.314,0.491-2.667,0.819-4.07C77.039,101.905,78.011,99.001,79.121,96.418z"/>
		
			<radialGradient id="SVGID_26_" cx="94.9297" cy="101.6924" r="100.5262" gradientTransform="matrix(0.9879 0.1549 -0.1549 0.9879 11.3329 -34.838)" gradientUnits="userSpaceOnUse">
			<stop  offset="0" style="stop-color:#F4F5CB"/>
			<stop  offset="0.411" style="stop-color:#F9EE43"/>
			<stop  offset="1" style="stop-color:#F7BB17"/>
		</radialGradient>
		<path fill="url(#SVGID_26_)" d="M75.36,124.488c-1.859-0.802-3.543-1.89-5.122-3.168c-0.527-0.425-1.06-0.864-1.547-1.345
			c0.94,4.645,2.863,9.054,5.902,12.748c1.082,0.826,2.106,1.73,3.225,2.514c1.321,0.927,2.824,1.608,4.395,1.996
			C78.918,134.117,76.467,129.953,75.36,124.488z"/>
		
			<radialGradient id="SVGID_27_" cx="94.9282" cy="101.7031" r="100.4946" gradientTransform="matrix(0.9879 0.1549 -0.1549 0.9879 11.3329 -34.838)" gradientUnits="userSpaceOnUse">
			<stop  offset="0" style="stop-color:#F4F5CB"/>
			<stop  offset="0.411" style="stop-color:#F9EE43"/>
			<stop  offset="1" style="stop-color:#F7BB17"/>
		</radialGradient>
		<path fill="url(#SVGID_27_)" d="M96.027,77.906c-1.008-0.337-2.068-0.485-3.161-0.329c-1.755,0.25-3.341,1.043-4.872,1.896
			c-0.097,0.056-0.183,0.061-0.245,0.038c-2.047,1.666-4.157,3.251-6.237,4.877c-0.168,0.13-0.334,0.26-0.5,0.39
			c0.576,1.274,2.077,1.947,3.326,2.373c0.065,0.023,0.133,0.043,0.199,0.064C88.595,82.085,93.015,79.324,96.027,77.906z"/>
	</g>
	<g>
		
			<radialGradient id="SVGID_28_" cx="94.9277" cy="101.7031" r="100.5077" gradientTransform="matrix(0.9879 0.1549 -0.1549 0.9879 11.3329 -34.838)" gradientUnits="userSpaceOnUse">
			<stop  offset="0" style="stop-color:#F4F5CB"/>
			<stop  offset="0.411" style="stop-color:#F9EE43"/>
			<stop  offset="1" style="stop-color:#F7BB17"/>
		</radialGradient>
		<path fill="url(#SVGID_28_)" d="M113.575,123.099c0.861-6.495,0.281-13.159-1.364-19.481c-0.867-3.308-2.014-6.528-3.341-9.675
			c-1.238-2.936-2.62-5.847-4.378-8.508c-1.227-1.854-2.666-3.657-4.382-5.108c2.832,5.028,7.843,15.886,9.339,31.824
			c1.587,16.883-3.114,27.813-14.96,30.223c0.829-0.034,1.65-0.101,2.467-0.2c0.015,0.003,0.03,0.003,0.052,0
			c0.043-0.008,0.09-0.014,0.136-0.025c0.42-0.052,0.838-0.114,1.252-0.183c0,0,0.001-0.003,0-0.005
			c0.445-0.068,0.889-0.147,1.317-0.265c0.006,0.003,0.012,0.012,0.018,0.017c1.772-0.365,3.511-0.865,5.228-1.455
			c-0.042-0.071-0.018-0.17,0.114-0.273c2.629-2.068,4.749-4.52,6.04-7.63C112.349,129.4,113.155,126.271,113.575,123.099z"/>
	</g>
	
		<radialGradient id="SVGID_29_" cx="231.0098" cy="114.4961" r="23.2397" gradientTransform="matrix(0.8993 0.4372 -0.4372 0.8993 -47.603 -165.5702)" gradientUnits="userSpaceOnUse">
		<stop  offset="0" style="stop-color:#F6CD18"/>
		<stop  offset="0.0671" style="stop-color:#D6CA2A"/>
		<stop  offset="0.145" style="stop-color:#B3C637"/>
		<stop  offset="0.2167" style="stop-color:#98C33E"/>
		<stop  offset="0.279" style="stop-color:#86C241"/>
		<stop  offset="0.3252" style="stop-color:#7FC343"/>
		<stop  offset="0.6857" style="stop-color:#3871B5"/>
		<stop  offset="0.8589" style="stop-color:#336EB3"/>
		<stop  offset="1" style="stop-color:#0658A3"/>
	</radialGradient>
	<path opacity="0.45" fill="url(#SVGID_29_)" d="M112.515,44.712c0,0,1.92-4.41,8.584-1.17
		C127.761,46.782,109.352,50.301,112.515,44.712z"/>
	<g>
		
			<radialGradient id="SVGID_30_" cx="70.0972" cy="119.3252" r="158.8085" gradientTransform="matrix(0.9879 0.1549 -0.1549 0.9879 11.3329 -34.838)" gradientUnits="userSpaceOnUse">
			<stop  offset="0" style="stop-color:#F6CD18"/>
			<stop  offset="0.0671" style="stop-color:#D6CA2A"/>
			<stop  offset="0.145" style="stop-color:#B3C637"/>
			<stop  offset="0.2167" style="stop-color:#98C33E"/>
			<stop  offset="0.279" style="stop-color:#86C241"/>
			<stop  offset="0.3252" style="stop-color:#7FC343"/>
			<stop  offset="0.6857" style="stop-color:#3871B5"/>
			<stop  offset="0.8589" style="stop-color:#336EB3"/>
			<stop  offset="1" style="stop-color:#0658A3"/>
		</radialGradient>
		<path fill="url(#SVGID_30_)" d="M62.426,50.439c0.019,4.191,2.502,2.147,2.347-0.308c3.858-0.475,16.837,0.344,22.203-5.437
			c3.564-3.767,7.34-10.605,18.146-5.399c1.651,0.576-0.364-1.789-4.807-3.23c-0.335-0.038-0.684-0.12-1.044-0.254
			c-1.629-0.526-2.516-0.462-2.516-0.462s-10.299-1.547-12.79,8.739c-0.062,0.395-3.448,3.446-19.067,4.375
			c-0.635,0.17-1.323,0.265-1.323,0.265s-1.101-3.754-3.607-4.146c-0.314-0.05-0.629-0.056-0.94-0.019
			C60.536,45.375,62.139,47.038,62.426,50.439z"/>
	</g>
	<g>
		
			<radialGradient id="SVGID_31_" cx="70.0972" cy="119.3262" r="158.8084" gradientTransform="matrix(0.9879 0.1549 -0.1549 0.9879 11.3329 -34.838)" gradientUnits="userSpaceOnUse">
			<stop  offset="0" style="stop-color:#F6CD18"/>
			<stop  offset="0.0671" style="stop-color:#D6CA2A"/>
			<stop  offset="0.145" style="stop-color:#B3C637"/>
			<stop  offset="0.2167" style="stop-color:#98C33E"/>
			<stop  offset="0.279" style="stop-color:#86C241"/>
			<stop  offset="0.3252" style="stop-color:#7FC343"/>
			<stop  offset="0.6857" style="stop-color:#3871B5"/>
			<stop  offset="0.8589" style="stop-color:#336EB3"/>
			<stop  offset="1" style="stop-color:#0658A3"/>
		</radialGradient>
		<path fill="url(#SVGID_31_)" d="M104.754,21.806c2.15-2.5,2.44-4.348-0.175-6.649c-2.608-2.301-3.579-4.75,0.791-2.442
			c4.368,2.306,4.44,0.966,6.61-1.668c2.171-2.63,3.164-2.07,4.459,2.592c1.298,4.663,5.01,5.11,8.015,2.337
			c3.001-2.771,4.103-4.627,8.376-3.01c-4.668-2.557-8.573,0.819-10.333,1.691c-1.408,0.792-3.04-0.004-3.872-2.026
			c-0.831-2.022-1.554-5.176-2.917-5.526c-1.363-0.347-2.787,0.104-6.059,3.309c-2.601,2.362-3.655,0.912-5.403-0.443
			c-1.746-1.356-3.884-1.082-4.618,1.439c-0.731,2.521,1.67,3.571,2.864,4.571c1.157,0.966,1.863,1.988,0.051,4.093
			C103.481,20.516,104.379,21.098,104.754,21.806z"/>
	</g>
	<g opacity="0.5">
		
			<radialGradient id="SVGID_32_" cx="70.0972" cy="119.3281" r="158.8061" gradientTransform="matrix(0.9879 0.1549 -0.1549 0.9879 11.3329 -34.838)" gradientUnits="userSpaceOnUse">
			<stop  offset="0" style="stop-color:#F6CD18"/>
			<stop  offset="0.0671" style="stop-color:#D6CA2A"/>
			<stop  offset="0.145" style="stop-color:#B3C637"/>
			<stop  offset="0.2167" style="stop-color:#98C33E"/>
			<stop  offset="0.279" style="stop-color:#86C241"/>
			<stop  offset="0.3252" style="stop-color:#7FC343"/>
			<stop  offset="0.6857" style="stop-color:#3871B5"/>
			<stop  offset="0.8589" style="stop-color:#336EB3"/>
			<stop  offset="1" style="stop-color:#0658A3"/>
		</radialGradient>
		<path fill="url(#SVGID_32_)" d="M136.869,149.285c-2.413-18.216-9.051-29.808-12.525-39.541
			c-3.473-9.734-9.956-35.617,0.273-49.148c5.989-2.844,11.256-11.884,7.944-19.633c1.568-1.375,1.954-3.41,0.851-6.286
			c-0.104-1.502,0.491-1.409,2.919-2.245c2.43-0.836,4.117-2.125,4.414-4.444s-3.651-3.005-5.498-3.294
			c-1.845-0.291-4.088-0.642-2.1-3.842c1.988-3.202,4.351-5.331-0.317-7.888c-0.115-0.063-0.227-0.12-0.342-0.175
			c1.386,1.945,2.117,4.538-0.758,6.76c-5.382,4.157,0.194,6.517,3.38,6.881c3.188,0.366,4.286,2.835-0.66,4.222
			c-4.949,1.385-4.654,4.676-3.116,6.943c1.535,2.267-2.295,3.425-6.405,2.915c-4.107-0.51-0.404,3.45,3.738,2.885
			c4.142-0.568,3.821,16.139-18.285,18.349c-5.479,0.491-0.264,4.509,6.308,2.881c2.671-0.664-0.389,8.346-0.609,16.796
			c-0.439,17.105,5.251,33.807,14.14,50.808c8.888,17.002,6.192,40.64-4.697,55.815c0.005,0.017,0.014,0.033,0.019,0.05
			C133.825,178.979,138.654,162.766,136.869,149.285z"/>
	</g>
	<g>
		
			<radialGradient id="SVGID_33_" cx="121.9043" cy="67.1392" r="75.651" gradientTransform="matrix(0.9879 0.1549 -0.1549 0.9879 11.3329 -34.838)" gradientUnits="userSpaceOnUse">
			<stop  offset="0" style="stop-color:#F4F5CB"/>
			<stop  offset="0.411" style="stop-color:#F9EE43"/>
			<stop  offset="1" style="stop-color:#F7BB17"/>
		</radialGradient>
		<path fill="url(#SVGID_33_)" d="M141.826,47.288c-0.694-1.069-0.82-2.104-0.142-3.239c0.595-0.993,2.062-2.342,0.927-3.503
			c-0.794-0.812-2.315-1.362-3.299-0.733c1.441-0.325,3.066-0.311,1.58,2.028c-2.394,3.769-1.239,5.031-0.243,6.718
			c0.997,1.689-0.524,3.342-3.194,4.276c-2.667,0.932-1.892,2.315-1.961,4.467c-0.051,1.598-1.104,2.64-2.658,2.468
			c-0.014,0.098-0.018,0.196,0,0.289c0.122,0.593,0.635,0.831,1.19,0.863c0.845,0.054,1.959-0.082,2.522-0.8
			c0.753-0.961,0.477-2.409,0.564-3.542c0.095-1.208,0.582-2.44,1.754-2.971c1.334-0.604,3.012-0.491,3.72-2.015
			C143.322,50.017,142.698,48.63,141.826,47.288z"/>
	</g>
	<g>
		
			<radialGradient id="SVGID_34_" cx="121.9063" cy="67.1382" r="75.6439" gradientTransform="matrix(0.9879 0.1549 -0.1549 0.9879 11.3329 -34.838)" gradientUnits="userSpaceOnUse">
			<stop  offset="0" style="stop-color:#F4F5CB"/>
			<stop  offset="0.411" style="stop-color:#F9EE43"/>
			<stop  offset="1" style="stop-color:#F7BB17"/>
		</radialGradient>
		<path fill="url(#SVGID_34_)" d="M126.226,72.294c-0.416-1.197,0.351-2.201,1.199-2.979c0.913-0.842,2.397-1.743,1.997-3.211
			c-0.329-1.208-1.894-2.32-3.13-1.665c-0.145,0.075-0.268,0.159-0.378,0.252c1.166,0.534,2.688,1.554,1.222,2.832
			c-2.19,1.909-2.851,4.958-1.048,6.682c1.801,1.724,1.163,2.344-1.386,3.657c-2.546,1.313,0.936,4.382-0.988,5.161
			c-0.692,0.281-1.27,0.063-1.729-0.325c0.374,1.183,1.46,2.06,2.752,1.935c0.591-0.059,1.705-0.123,2.107-0.624
			c0.287-0.356,0.114-0.87-0.059-1.24c-0.39-0.835-1.007-1.59-1.263-2.484c-0.567-1.977,1.563-2.271,2.828-2.981
			C130.98,75.822,126.717,73.719,126.226,72.294z"/>
	</g>
	<g>
		
			<radialGradient id="SVGID_35_" cx="121.9072" cy="67.1372" r="75.6415" gradientTransform="matrix(0.9879 0.1549 -0.1549 0.9879 11.3329 -34.838)" gradientUnits="userSpaceOnUse">
			<stop  offset="0" style="stop-color:#F4F5CB"/>
			<stop  offset="0.411" style="stop-color:#F9EE43"/>
			<stop  offset="1" style="stop-color:#F7BB17"/>
		</radialGradient>
		<path fill="url(#SVGID_35_)" d="M133.779,108.492c-0.249-1.25-1.215-1.565-2.295-1.865c-0.611-0.17-1.604-0.423-1.716-1.184
			c-0.132-0.885,0.631-1.864,1.283-2.384c0.637-0.503,1.813-0.883,1.975-1.777c0.243-1.342-0.526-3.102-1.969-3.366
			c-1.065-0.194-2.343,0.118-3.333-0.393c-1.563-0.81-1.004-2.682-1.039-4.093c-0.017-0.694-0.17-1.311-0.979-1.346
			c-0.642-0.028-1.714,0.097-2.013,0.76c-0.107,0.237-0.146,0.492-0.15,0.751c0.795-0.253,1.689-0.271,1.699,0.929
			c0.021,2.165,0.894,4.644,4.271,4.363c3.378-0.282,2.152,2.949,0.097,3.979c-2.052,1.031-1.552,2.999,0.038,3.791
			c1.285,0.637,2.39,2.432,0.816,3.31c0.274,0.356,0.625,0.623,1.139,0.65C132.868,110.68,134.058,109.881,133.779,108.492z"/>
	</g>
	<g>
		
			<radialGradient id="SVGID_36_" cx="121.9111" cy="67.1377" r="75.6371" gradientTransform="matrix(0.9879 0.1549 -0.1549 0.9879 11.3329 -34.838)" gradientUnits="userSpaceOnUse">
			<stop  offset="0" style="stop-color:#F4F5CB"/>
			<stop  offset="0.411" style="stop-color:#F9EE43"/>
			<stop  offset="1" style="stop-color:#F7BB17"/>
		</radialGradient>
		<path fill="url(#SVGID_36_)" d="M140.022,131.257c0.084-0.788-0.646-1.557-1.246-1.968c-0.294-0.2-0.823-0.356-0.992-0.702
			c-0.469-0.963,1.213-2.165,1.703-2.812c0.466-0.619,0.766-1.404,0.134-2.044c-0.562-0.57-1.189-0.785-1.954-0.969
			c-1.195-0.28-2.875-0.901-2.78-2.445c0.043-0.698,0.362-1.21,0.739-1.777c0.368-0.553,0.784-1.259,0.444-1.933
			c-0.532-1.052-2.649-1.505-3.423-0.471c-0.081,0.107-0.151,0.226-0.212,0.346c1.169,0.114,2.418,0.543,1.672,1.954
			c-1.28,2.411-0.541,4.6,2.067,5.188c2.61,0.591,2.227,3.054,0.824,3.372c-1.086,0.249,1.377,3.383,0.714,4.952
			C138.504,132.367,139.914,132.322,140.022,131.257z"/>
	</g>
	<g>
		
			<radialGradient id="SVGID_37_" cx="121.9199" cy="67.1436" r="75.6307" gradientTransform="matrix(0.9879 0.1549 -0.1549 0.9879 11.3329 -34.838)" gradientUnits="userSpaceOnUse">
			<stop  offset="0" style="stop-color:#F4F5CB"/>
			<stop  offset="0.411" style="stop-color:#F9EE43"/>
			<stop  offset="1" style="stop-color:#F7BB17"/>
		</radialGradient>
		<path fill="url(#SVGID_37_)" d="M143.118,147.244c-0.639-1.165-2.283-1.407-2.604-2.819c-0.311-1.358,1.414-1.77,1.377-2.998
			c-0.032-1.165-0.954-2.191-2.02-2.586c-0.51-0.19-1.142-0.287-1.551,0.146c1.341,0.393,2.661,1.172,1.158,2.635
			c-2.55,2.483-1.638,4.697,0.986,5.202c2.625,0.501,1.644,3.319-0.699,3.313c-1.477-0.007-0.325,2.193,0.017,4.316
			c0.372,0.013,0.706-0.184,0.854-0.71c0.192-0.694,0.078-1.361,0.013-2.067c-0.032-0.346-0.015-0.688,0.231-0.961
			C141.783,149.704,144.088,149.001,143.118,147.244z"/>
	</g>
	<path fill="#40C1C5" d="M70.781,31.126c-0.102,0.593-0.277,1.159-0.529,1.703c-0.396,0.849,0.524-0.721-0.019,0.035
		c-0.086,0.118-0.18,0.229-0.27,0.341c-0.216,0.259-0.464,0.495-0.716,0.717c-0.93,0.82-2.102,1.327-3.316,1.549
		c-2.552,0.466-5.231-0.585-6.834-2.605c-0.755-0.956-1.206-2.125-1.325-3.333c-0.062-0.598-0.01-1.202,0.102-1.79
		c0.059-0.293,0.149-0.581,0.248-0.861c0.048-0.142,0.107-0.274,0.166-0.411c0.059-0.126,0.12-0.251,0.187-0.374
		c-0.316,0.5-0.351,0.569-0.105,0.208c1.497-2.079,4.162-2.983,6.641-2.621C68.573,24.204,71.302,27.512,70.781,31.126
		c0.049-0.337,0.529-0.616,0.58-0.961c0.361-2.513-0.82-4.91-2.894-6.327c-2.151-1.469-5.042-1.574-7.33-0.379
		c-1.009,0.528-1.871,1.345-2.474,2.308c-0.586,0.933-1.127,1.848-1.366,2.938c-0.544,2.471,0.612,4.973,2.594,6.456
		c2.169,1.622,5.194,1.79,7.574,0.546c1.041-0.541,1.906-1.385,2.521-2.381c0.623-1.004,1.174-1.974,1.375-3.16
		C71.303,30.506,70.838,30.78,70.781,31.126z"/>
</g>
</svg>
