<?xml version="1.0" encoding="utf-8"?>
<!-- Generator: Adobe Illustrator 16.0.0, SVG Export Plug-In . SVG Version: 6.00 Build 0)  -->
<!DOCTYPE svg PUBLIC "-//W3C//DTD SVG 1.1//EN" "http://www.w3.org/Graphics/SVG/1.1/DTD/svg11.dtd">
<svg version="1.1" id="Layer_1" xmlns="http://www.w3.org/2000/svg" xmlns:xlink="http://www.w3.org/1999/xlink" x="0px" y="0px"
	 width="95px" height="95px" viewBox="0 0 95 95" enable-background="new 0 0 95 95" xml:space="preserve">
<path d="M73.629,21.295c-3.378,6.452-9.829,26.42,9.217,23.042c9.333-2.685,10.971,1.779,12.161,6.988
	c1.19,5.208-6.696,12.206-12.354,8.484c-4.764-1.489-13.693-1.639-13.246,7.145c0.446,8.781,2.382,19.795,4.315,21.877
	c-6.398,4.466-22.623,9.378-24.706,0.449c-2.082-8.931,5.209-15.033-0.743-18.31c-5.954-3.273-11.312-4.912-15.776,4.317
	c-2.827,3.571,1.488,6.847,2.38,9.376c0.893,2.531-3.571,11.164-11.014,10.271C16.42,94.044,1.984,89.577,1.24,89.577
	c-0.744,0-1.638-18.456,2.828-20.986c4.466-2.529,9.97-1.787,11.906,1.189c2.233,3.423,12.354-14.139,2.53-22.026
	c-1.934-2.232-5.357,7.144-13.84-0.596C-3.82,39.421,1.834,30.49,1.982,22.153c0,0,17.267,4.315,24.113,0
	c6.846-4.317,4.167-8.035,2.38-10.268c-1.787-2.236-3.421-7.89,4.018-9.23c7.443-1.339,16.671-0.447,12.652,6.103
	c-4.02,6.549-0.746,9.078,1.933,11.013C49.76,21.706,66.094,25.057,73.629,21.295z"/>
</svg>
