<?xml version="1.0" encoding="utf-8"?>
<!-- Generator: Adobe Illustrator 14.0.0, SVG Export Plug-In . SVG Version: 6.00 Build 43363)  -->
<!DOCTYPE svg PUBLIC "-//W3C//DTD SVG 1.1//EN" "http://www.w3.org/Graphics/SVG/1.1/DTD/svg11.dtd">
<svg version="1.1" id="Layer_1" xmlns="http://www.w3.org/2000/svg" xmlns:xlink="http://www.w3.org/1999/xlink" x="0px" y="0px"
	 width="200px" height="200px" viewBox="0 0 200 200" enable-background="new 0 0 200 200" xml:space="preserve">
<g>
	<g>
		<g>
			<linearGradient id="SVGID_1_" gradientUnits="userSpaceOnUse" x1="119.2539" y1="147.7129" x2="140.8418" y2="147.7129">
				<stop  offset="0.0618" style="stop-color:#F68B33"/>
				<stop  offset="0.7697" style="stop-color:#C96419"/>
			</linearGradient>
			<path fill="url(#SVGID_1_)" d="M140.842,139.647c-0.999,20.371-25.401,21.906-21.074,1.976L140.842,139.647z"/>
			<path opacity="0.3" fill="#CC7B29" d="M140.842,139.647c-0.164,3.332-0.955,6.155-2.144,8.469
				c0.986-3.143,0.712-5.348-0.522-5.016c-12.938,3.476-18.361,0.744-18.877,4.104c-0.121-1.628,0.015-3.482,0.469-5.581
				L140.842,139.647z"/>
			<path d="M129.586,153.401c4.093-0.825,7.542-3.661,9.976-7.253c-4.535,12.25-19.35,13.021-20.26,1.088
				C121.298,152.194,125.188,154.167,129.586,153.401z"/>
			<path fill="#FEE9DF" d="M137.326,150.333c-5.544,8.225-15.66,7.563-17.659-0.878C125.058,158.111,133.86,154.205,137.326,150.333
				z"/>
			<path opacity="0.65" fill="#CC7B29" d="M138.989,140.174c-2.137,2.171-3.433,9.145-5.678,9.708
				c1.498-1.357,3.399-8.268,1.44-8.213L138.989,140.174z"/>
			<path opacity="0.65" fill="#CC7B29" d="M133.563,141.18c-2.136,2.17-3.432,9.147-5.68,9.711c1.499-1.359,3.401-8.269,1.442-8.213
				L133.563,141.18z"/>
			<path opacity="0.65" fill="#CC7B29" d="M127.579,141.856c-1.766,1.796-2.839,7.564-4.695,8.031
				c1.238-1.123,2.811-6.84,1.192-6.792L127.579,141.856z"/>
		</g>
		<linearGradient id="SVGID_2_" gradientUnits="userSpaceOnUse" x1="99.1865" y1="40.6304" x2="113.043" y2="70.7022">
			<stop  offset="0.0618" style="stop-color:#F68B33"/>
			<stop  offset="0.7697" style="stop-color:#C96419"/>
		</linearGradient>
		<path fill="url(#SVGID_2_)" d="M144.99,63.048c-15.777-26.592-63.78-17.803-67.836-3.831c-3.007,10.356,3.605,13.297,2.704,16.452
			L144.99,63.048z"/>
		<path opacity="0.3" fill="#CC7B29" d="M144.99,63.048c-2.753-4.638-6.486-8.198-10.797-10.843c1.669,1.62,5.6,5.29,4.482,6.234
			c-1.117,0.945-26.029-9.363-52.606,9.166c-2.32,2.9-6.313,3.264-8.949,1.12c1.179,3.29,3.271,5.081,2.738,6.945L144.99,63.048z"/>
		<path d="M122.878,50.801c6.69,2.008,12.226,3.912,18.591,7.446c-18.397-20.605-60.526-12.081-64.315,0.971
			c-1.874,6.451-0.015,10.023,1.437,12.564C76.784,49.755,105.833,46.927,122.878,50.801z"/>
		<path fill="#FEE9DF" d="M78.868,59.604c10.393-16.648,46.746-15.162,62.293-1.692c-18.811-20.933-60.422-11.961-64.191,1.019
			c-2.179,7.504,0.875,11.4,2.279,14.021C77.209,68.515,76.138,63.977,78.868,59.604z"/>
		<path opacity="0.65" fill="#CC7B29" d="M134.92,59.527c-3.463-1.367-7.656-6.927-10.664-6.927c2.37,0.82,7.293,6.199,4.831,6.563
			L134.92,59.527z"/>
		<path opacity="0.65" fill="#CC7B29" d="M125.531,58.798c-3.463-1.493-7.655-7.565-10.664-7.565
			c2.371,0.896,7.292,6.77,4.832,7.167L125.531,58.798z"/>
		<path opacity="0.65" fill="#CC7B29" d="M117.295,59.49c-4.334-1.223-10.395-7.98-13.911-7.438
			c2.942,0.681,9.817,7.062,7.016,7.997L117.295,59.49z"/>
		<path opacity="0.65" fill="#CC7B29" d="M108.346,61.304c-4.438-0.768-11.163-6.863-14.605-5.96
			c2.997,0.374,10.495,6.008,7.805,7.23L108.346,61.304z"/>
		<path opacity="0.65" fill="#CC7B29" d="M100.002,64.148c-4.486-0.396-11.697-5.908-15.052-4.722
			c3.017,0.123,10.959,5.113,8.38,6.555L100.002,64.148z"/>
		<path opacity="0.65" fill="#CC7B29" d="M92.037,67.33c-3.276,0.409-9.298-2.428-11.519-1.059c2.182-0.378,8.646,1.973,7.02,3.404
			L92.037,67.33z"/>
		<g>
			<path fill="#F68B33" d="M75.801,77.923c-15.325-10.367-36.19,7.006-18.48,14.649L75.801,77.923z"/>
			<path opacity="0.3" fill="#CC7B29" d="M75.801,77.923c-2.506-1.695-5.16-2.645-7.77-3.021c3.038,0.978,4.386,2.385,3.151,3.125
				c-12.959,7.76-15.408,13.298-18.217,11.851c1.061,0.977,2.492,1.89,4.356,2.693L75.801,77.923z"/>
			<path d="M56.881,78.821c3.904-2.603,8.719-3.631,13.25-3.49c-12.403-3.298-24.956,7.34-17.189,14.528
				C51.026,85.664,52.774,81.684,56.881,78.821z"/>
			<path fill="#FEE9DF" d="M65.338,74.718c-10.351-0.348-18.076,7.561-13.68,13.659C49.856,79.63,59.772,75.192,65.338,74.718z"/>
			<path opacity="0.65" fill="#CC7B29" d="M73.926,79.02c-3.277,0.409-9.298-2.428-11.52-1.059c2.182-0.378,8.646,1.972,7.02,3.404
				L73.926,79.02z"/>
			<path opacity="0.65" fill="#CC7B29" d="M68.812,82.519c-3.277,0.409-9.298-2.428-11.52-1.059c2.182-0.378,8.647,1.973,7.02,3.404
				L68.812,82.519z"/>
			<path opacity="0.65" fill="#CC7B29" d="M63.482,86.615c-2.71,0.339-7.69-2.008-9.527-0.876c1.805-0.313,7.152,1.632,5.806,2.816
				L63.482,86.615z"/>
		</g>
		<g>
			<path fill="#F68B33" d="M79.636,134.078c-14.901,13.363-39.177-2.928-21.408-13.62L79.636,134.078z"/>
			<path opacity="0.3" fill="#CC7B29" d="M79.636,134.078c-2.438,2.187-5.125,3.573-7.838,4.327
				c3.089-1.471,4.338-3.188,2.938-3.837c-14.694-6.799-17.986-12.543-20.774-10.59c0.998-1.209,2.397-2.396,4.267-3.521
				L79.636,134.078z"/>
			<path d="M59.504,135.576c4.46,2.34,9.685,2.833,14.461,2.084c-12.705,5.238-27.333-4.765-20.025-13.657
				C52.443,128.85,54.797,132.979,59.504,135.576z"/>
			<path fill="#FEE9DF" d="M68.972,138.961c-10.907,1.738-20.082-5.91-16.204-13.165C51.97,135.61,63.023,139.172,68.972,138.961z"
				/>
			<path opacity="0.65" fill="#CC7B29" d="M77.513,133.125c-3.52-0.021-9.53,3.877-12.053,2.669
				c2.356,0.127,8.897-3.295,6.996-4.649L77.513,133.125z"/>
			<path opacity="0.65" fill="#CC7B29" d="M71.659,129.961c-3.519-0.019-9.53,3.879-12.054,2.671
				c2.356,0.127,8.898-3.293,6.996-4.648L71.659,129.961z"/>
			<path opacity="0.65" fill="#CC7B29" d="M65.501,126.174c-2.91-0.015-7.881,3.207-9.969,2.209
				c1.949,0.104,7.359-2.727,5.786-3.845L65.501,126.174z"/>
		</g>
		<g>
			<linearGradient id="SVGID_3_" gradientUnits="userSpaceOnUse" x1="104.2109" y1="149.0918" x2="127.0039" y2="149.0918">
				<stop  offset="0.0618" style="stop-color:#F68B33"/>
				<stop  offset="0.7697" style="stop-color:#C96419"/>
			</linearGradient>
			<path fill="url(#SVGID_3_)" d="M127.004,142.81c-5.311,23.332-29.481,18.957-21.01-3.027L127.004,142.81z"/>
			<path opacity="0.3" fill="#CC7B29" d="M127.004,142.81c-0.868,3.814-2.242,6.884-3.895,9.263
				c1.631-3.388,1.833-6.011,0.557-5.938c-13.382,0.761-18.101-3.769-19.318-0.01c0.229-1.916,0.755-4.029,1.646-6.342
				L127.004,142.81z"/>
			<path d="M113.079,155.895c4.175,0.075,8.148-2.338,11.291-5.882c-7.037,13.039-21.678,10.197-20.027-3.851
				C105.238,152.406,108.621,155.672,113.079,155.895z"/>
			<path fill="#FEE9DF" d="M121.296,154.293c-7.168,8.124-16.911,4.809-17.067-5.47
				C107.652,160.207,117.085,157.902,121.296,154.293z"/>
			<path opacity="0.65" fill="#CC7B29" d="M125.082,142.95c-2.549,1.974-5.3,9.722-7.614,9.81c1.753-1.194,5.083-8.718,3.156-9.146
				L125.082,142.95z"/>
			<path opacity="0.65" fill="#CC7B29" d="M119.566,142.748c-2.548,1.973-5.3,9.724-7.614,9.811
				c1.753-1.196,5.082-8.716,3.155-9.146L119.566,142.748z"/>
			<path opacity="0.65" fill="#CC7B29" d="M113.575,142.02c-2.107,1.636-4.382,8.043-6.297,8.116
				c1.449-0.988,4.203-7.211,2.611-7.563L113.575,142.02z"/>
		</g>
		<linearGradient id="SVGID_4_" gradientUnits="userSpaceOnUse" x1="6.8589" y1="104.583" x2="55.7437" y2="104.583">
			<stop  offset="0.0618" style="stop-color:#F68B33"/>
			<stop  offset="0.7697" style="stop-color:#C96419"/>
		</linearGradient>
		<path fill="url(#SVGID_4_)" d="M55.744,92.121c-9.466,1.127-25.368-15.652-34.676-12.782c-18.184,5.603-20.539,48.003,2.5,50.736
			c8.61,1.021,22.232-7.678,30.598-9.558"/>
		<path opacity="0.45" fill="#CA6C18" d="M21.067,79.339c-18.184,5.603-20.539,48.003,2.5,50.736
			c8.61,1.021,22.232-7.678,30.598-9.558l1.578-28.396C46.278,93.248,30.376,76.469,21.067,79.339z M44.46,94.812
			c-1.6,4.001-10.402-1.601-16.004-4.801c4.253,4.231,8.767,7.477,11.203,8.802c2.436,1.325,1.6,1.6,0,2.4
			c-5.601,0.8-10.402-0.801-15.204-0.801c4.801,1.601,10.402,2.4,15.204,4.801c-5.601,4.802-12.003,3.201-18.405,4.802
			c5.602,0,12.003,0,17.604,3.201c-3.201,3.201-8.301,5.392-12.302,6.992c5.601-0.801,16.402-2.674,17.103-1.392
			c3.939,5.06-21.635,15.095-28.217,0.312c-6.337-12.673,3.306-33.579,8.524-36.644C28.238,79.977,45.98,89.13,44.46,94.812z"/>
		<path d="M15.654,122.817c-9.213-12.283-5.16-35,8.612-43.76c-1.13-0.096-2.204-0.026-3.199,0.282
			c-18.184,5.603-20.539,48.003,2.5,50.736c0.782,0.092,1.606,0.103,2.463,0.048C21.701,128.732,18.454,126.552,15.654,122.817z"/>
		<path fill="#FEE9DF" d="M21.104,79.331c-0.012,0.003-0.024,0.005-0.036,0.009c-18.034,5.042-21.164,41.299-2.554,49.349
			C5.515,119.884,4.22,89.777,21.104,79.331z"/>
		<path fill="#DE772E" d="M146.115,62.598C102.169,44.569,63.406,88.29,52.363,92.121c-11.043,3.832-13.522,25.919-1.126,28.848
			c12.396,2.93,47.327,32.903,93.302,20.058L146.115,62.598z"/>
		<path opacity="0.3" fill="#CC7B29" d="M138.937,60.183c-17.383,9.565-20.751,31.272-28.861,48.231
			c-7.202,15.204-34.408,12.003-43.21-2.4c-4.805-7.476-2.837-17.086,1.855-25.033c-7.465,5.44-13.11,10.014-16.357,11.14
			c-11.043,3.832-13.522,25.919-1.126,28.848c12.396,2.93,47.327,32.903,93.302,20.058l1.577-78.428
			C143.705,61.609,141.313,60.816,138.937,60.183z"/>
		<path opacity="0.4" fill="#974A07" d="M111.676,130.02c-17.604,17.604-44.811-6.401-64.015-18.404
			c-2.648-1.589-3.888-4.582-4.196-7.815c-1.604,7.299,0.569,15.467,7.771,17.169c12.396,2.93,47.327,32.903,93.302,20.058
			l0.838-41.632C131.274,105.503,121.992,119.058,111.676,130.02z"/>
		<path fill="#FFFFFF" d="M101.272,119.617c-5.385-23.078,4.766-45.416,21.2-61.326c-11.399,0.356-22.086,3.991-31.585,8.767
			c0.099,3.771,0.577,8.094-1.617,11.75c-10.258,17.097-14.661,38.283-7.735,56.569c10.193,4.325,22.288,8.085,35.863,8.73
			C109.258,137.693,104.055,128.656,101.272,119.617z"/>
		<path opacity="0.6" fill="#BCBEC0" d="M78.198,115.322c-0.127,6.84,0.903,13.627,3.337,20.055
			c10.193,4.325,22.288,8.085,35.863,8.73c-8.141-6.414-13.344-15.451-16.126-24.49c-0.292-1.253-0.53-2.502-0.732-3.75
			C92.979,118.196,85.054,118.967,78.198,115.322z"/>
		<path opacity="0.7" fill="#9D9FA2" d="M117.398,144.107c-4.186-3.297-7.588-7.289-10.29-11.617
			c-8.799,2.498-18.349,1.208-26.931-1.285c0.394,1.405,0.838,2.798,1.358,4.172C91.728,139.702,103.823,143.462,117.398,144.107z"
			/>
		<path d="M92.471,78.808c2.113-4.226,1.126-8.451,0.314-12.677c-0.638,0.305-1.271,0.612-1.898,0.928
			c0.099,3.771,0.577,8.094-1.617,11.75c-10.258,17.097-14.661,38.283-7.735,56.569c1.059,0.448,2.14,0.891,3.239,1.325
			C78.999,117.543,80.188,96.871,92.471,78.808z"/>
		<path d="M101.272,119.617c-5.385-23.078,4.766-45.416,21.2-61.326c-1.46,0.045-2.908,0.147-4.343,0.295
			c-22.935,22.417-29.17,62.399-4.929,85.212c1.384,0.133,2.78,0.242,4.197,0.309C109.258,137.693,104.055,128.656,101.272,119.617z
			"/>
		<path fill="#FFFFFF" d="M64.673,83.964c-5.472,4.066-9.68,7.245-12.31,8.157c-11.043,3.832-13.522,25.919-1.126,28.848
			c2.953,0.698,7.187,2.933,12.543,5.755C55.495,113.36,57.732,97.749,64.673,83.964z"/>
		<path opacity="0.6" fill="#C7C8CA" d="M64.673,83.964c-5.472,4.066-9.68,7.245-12.31,8.157
			c-11.043,3.832-13.522,25.919-1.126,28.848c2.953,0.698,7.187,2.933,12.543,5.755C55.495,113.36,57.732,97.749,64.673,83.964z"/>
		<path opacity="0.6" fill="#9D9FA2" d="M52.374,92.118c-0.003,0-0.007,0.003-0.011,0.003c-11.043,3.832-13.522,25.919-1.126,28.848
			c2.953,0.698,7.187,2.933,12.543,5.755c-0.997-1.608-1.838-3.25-2.54-4.915C48.646,116.883,46.852,103.011,52.374,92.118z"/>
		<path d="M52.405,92.105c-0.013,0.004-0.028,0.012-0.042,0.016c-10.521,3.651-13.258,23.861-2.772,28.296
			C44.541,110.982,44.137,100.079,52.405,92.105z"/>
		<path d="M64.673,83.964c-0.829,0.616-1.625,1.209-2.394,1.778c-5.49,12.309-7.566,26.179-3.163,38.552
			c1.447,0.737,2.993,1.549,4.663,2.43C55.495,113.36,57.732,97.749,64.673,83.964z"/>
		<g>
			<linearGradient id="SVGID_5_" gradientUnits="userSpaceOnUse" x1="89.791" y1="126.2891" x2="125.5283" y2="126.2891">
				<stop  offset="0.0618" style="stop-color:#F68B33"/>
				<stop  offset="0.7697" style="stop-color:#C96419"/>
			</linearGradient>
			<path fill="url(#SVGID_5_)" d="M122.6,119.864c-6.535-0.676-16.685-22.77-27.333-12.239c-14.6,14.438,2.604,57.521,21.022,32.522
				c3.778-5.129,5.859-10.368,9.239-10.592L122.6,119.864z"/>
			<path opacity="0.3" fill="#CC7B29" d="M122.6,119.864c-6.535-0.676-16.685-22.77-27.333-12.239
				c-14.6,14.438,2.604,57.521,21.022,32.522c3.778-5.129,5.859-10.368,9.239-10.592L122.6,119.864z M120.294,130.534
				c-5.848,7.145-7.517,18.786-17.119,11.585c-10.402-7.201-8.54-28.01-4.486-32.389c6.256-4.692,13.735,5.496,19.299,10.442
				c-5.589-0.342-8.879-3.998-15.068-6.32c6.401,3.201,7.773,7.08,14.975,8.681c-7.201-0.8-11.135,0.125-17.536-2.276
				c6.401,4.002,11.134,3.076,18.336,4.677c-7.202,1.601-13.099,0.813-20.3,2.413c7.202,0.799,14.431-1.025,21.1-0.013
				c-6.4,0.801-12.003,4.001-17.604,7.202c6.4-1.601,12.003-4.801,18.404-5.602c-4.002,2.4-7.201,5.602-10.403,9.603
				C113.893,136.137,117.863,131.188,120.294,130.534z"/>
			<path d="M94.688,134.536c-4.15-13.51-2.614-26.49,7.062-29.736c-2.122-0.126-4.291,0.657-6.482,2.825
				c-12.47,12.332-1.736,45.555,13.136,39.406C101.706,146.437,96.762,141.289,94.688,134.536z"/>
			<path fill="#FEE9DF" d="M95.488,140.137c-6.122-11.479-6.402-28.76,3.408-34.911c-1.2,0.431-2.657,0.915-3.928,2.064
				c-12.334,11.159-3.313,42.664,10.665,40.45C101.428,147.026,97.696,145.104,95.488,140.137z"/>
		</g>
		<g>
			<path fill="#9E0032" d="M190.905,110.994c-12.864,11.077,2.087,10.65,2.087,10.65s-16.023,18.474-43.497,7.888
				c-15.324-8.789-5.633-22.536-5.633-22.536S193.049,107.243,190.905,110.994z"/>
			<path fill="#790018" d="M184.492,120.417c-2.047-4.091-0.018-8.754,3.595-11.036c-10.234-2.214-44.225-2.385-44.225-2.385
				s-9.022,12.808,4.131,21.601c10.775-5.82,24.254-5.817,34.799,0.381c3.307-1.609,5.849-3.435,7.569-4.861
				C187.874,124.01,185.687,123.205,184.492,120.417z"/>
			<path fill="#F7955B" d="M195.021,109.292c0,0-28.846,20.24-50.256,1.761c-8.341,28.846,38.815,21.382,49.129,9.916
				c0.942-0.147,2.479,1.577-0.451,3.831c-9.465,11.268-40.792,20.959-61.75,13.522c-20.959-7.438-10.818-45.299-10.818-45.299
				s8.79-31.552,24.116-30.875C188.484,68.458,195.021,109.292,195.021,109.292z"/>
			<path opacity="0.3" fill="#CC7B29" d="M193.894,120.969c-10.313,11.466-57.47,18.93-49.129-9.916
				c21.41,18.479,50.256-1.761,50.256-1.761s-1.058-6.593-5.14-14.886c5.263,15.287-20.863,18.62-33.395,16.408
				c-16.232-2.318-27.235-19.57-27.966-35.887c-4.971,8.496-7.646,18.096-7.646,18.096s-10.141,37.861,10.818,45.299
				c20.958,7.437,52.285-2.255,61.75-13.522C196.373,122.546,194.836,120.821,193.894,120.969z"/>
			<path opacity="0.3" fill="#CC7B29" d="M194.77,121.313c-12.087,11.462-31.525,18.249-48.687,15.908
				c-9.073-1.602-18.498-3.564-24.959-9.201c1.992,4.635,5.296,8.432,10.568,10.303c20.958,7.437,52.285-2.255,61.75-13.522
				C195.488,123.227,195.355,121.913,194.77,121.313z"/>
			<path fill="#FFFFFF" d="M134.08,125.218c-3.016-22.624,2.503-46.667,21.234-60.747c-3.188-0.992-6.62-1.785-10.324-2.322
				c-15.326-0.678-24.116,30.875-24.116,30.875s-10.141,37.861,10.818,45.299c4.156,1.475,8.724,2.266,13.444,2.515
				C139.495,137.038,135.157,131.675,134.08,125.218z"/>
			<path opacity="0.6" fill="#BCBEC0" d="M127.545,76.659c-4.345,8.016-6.671,16.365-6.671,16.365s-10.141,37.861,10.818,45.299
				c4.156,1.475,8.724,2.266,13.444,2.515c-5.642-3.799-9.979-9.162-11.057-15.619c-1.276-9.58-1.016-19.412,1.122-28.638
				C129.298,92.268,127.409,84.078,127.545,76.659z"/>
			<path opacity="0.6" fill="#9D9FA2" d="M137.895,134.021c-8.756-2.342-17.317-9.575-19.377-18.256
				c0.554,9.53,3.658,19.179,13.175,22.557c4.156,1.475,8.724,2.266,13.444,2.515C142.315,138.937,139.818,136.646,137.895,134.021z
				"/>
			<g>
				<g>
					<path fill="#FFFFFF" d="M166.854,90.3c1.957,5.996,7.734,9.485,12.898,7.8c5.168-1.688,6.849-7.911,4.891-13.909
						c-1.955-5.992-6.807-9.486-11.974-7.8C167.503,78.077,164.898,84.307,166.854,90.3z"/>
					<g>
						<path fill="#00427A" d="M170.251,94.146c1.129,3.459,4.85,5.353,8.313,4.223c3.46-1.129,5.349-4.854,4.22-8.313
							c-1.13-3.462-4.852-5.353-8.313-4.224C171.009,86.962,169.12,90.685,170.251,94.146z"/>
						<circle fill="#00427A" cx="176.709" cy="92.038" r="3.441"/>
						<circle fill="#FFFFFF" cx="177.453" cy="89.163" r="3.093"/>
						<path fill="#FFFFFF" d="M172.693,94.796c0.229,0.705,0.987,1.089,1.69,0.86c0.703-0.23,1.092-0.988,0.86-1.693
							c-0.229-0.704-0.99-1.09-1.694-0.859C172.849,93.332,172.462,94.092,172.693,94.796z"/>
					</g>
				</g>
			</g>
			<g>
				<g>
					<path fill="#FFFFFF" d="M145.141,95.739c1.957,5.997,7.735,9.485,12.9,7.8c5.168-1.687,6.847-7.912,4.891-13.906
						c-1.955-5.994-6.808-9.488-11.976-7.801C145.791,83.518,143.186,89.747,145.141,95.739z"/>
					<g>
						<path fill="#00427A" d="M148.538,99.587c1.13,3.459,4.851,5.353,8.313,4.222c3.461-1.129,5.35-4.854,4.22-8.313
							c-1.129-3.462-4.85-5.354-8.311-4.224C149.296,92.402,147.409,96.125,148.538,99.587z"/>
						<circle fill="#00427A" cx="154.996" cy="97.478" r="3.442"/>
						<circle fill="#FFFFFF" cx="155.741" cy="94.603" r="3.092"/>
						<path fill="#FFFFFF" d="M150.98,100.236c0.229,0.706,0.988,1.089,1.69,0.86c0.704-0.229,1.091-0.989,0.861-1.693
							c-0.23-0.704-0.99-1.089-1.695-0.86C151.136,98.772,150.75,99.532,150.98,100.236z"/>
					</g>
				</g>
			</g>
			<path d="M133.281,128.419c1.06,4.241,3.882,8.477,7.522,12.02c1.426,0.186,2.87,0.321,4.333,0.398
				c-5.642-3.799-9.979-9.162-11.057-15.619c-3.016-22.624,2.503-46.667,21.234-60.747c-0.45-0.14-0.917-0.266-1.377-0.398
				C134.351,78.846,125.506,106.652,133.281,128.419z"/>
			<path d="M144.106,62.149c-14.78,0.539-23.232,30.875-23.232,30.875s-8.626,32.209,6.479,43.047
				C111.677,115.759,125.713,70.454,144.106,62.149z"/>
		</g>
		<g>
			
				<ellipse transform="matrix(0.8996 0.4366 -0.4366 0.8996 46.7506 -62.7661)" fill="#DE772E" cx="159.914" cy="70.316" rx="5.94" ry="2.493"/>
			
				<ellipse transform="matrix(0.8996 0.4367 -0.4367 0.8996 49.0333 -65.7754)" fill="#DE772E" cx="167.593" cy="73.771" rx="1.725" ry="1.393"/>
		</g>
	</g>
	<path opacity="0.4" fill="#F68B33" d="M42.484,91.348c-9.638-6.679-18.345-7.524-18.345-7.524S30.479,81.88,42.484,91.348z"/>
	<path opacity="0.4" fill="#F68B33" d="M37.581,99.125c-9.638-6.679-18.345-7.524-18.345-7.524S25.576,89.656,37.581,99.125z"/>
	<path opacity="0.4" fill="#F68B33" d="M34.63,103.966c-11.515-2.213-19.82,0.534-19.82,0.534S19.823,100.158,34.63,103.966z"/>
	<path opacity="0.4" fill="#F68B33" d="M36.397,112.65c-7.186-0.084-21.557,1.015-21.557,1.015S25.576,111.467,36.397,112.65z"/>
	<path opacity="0.4" fill="#F68B33" d="M42.483,119.16c-9.637,0.845-20.035,5.664-20.035,5.664S28.873,120.005,42.483,119.16z"/>
</g>
</svg>
