<?xml version="1.0" encoding="utf-8"?>
<!-- Generator: Adobe Illustrator 16.0.0, SVG Export Plug-In . SVG Version: 6.00 Build 0)  -->
<!DOCTYPE svg PUBLIC "-//W3C//DTD SVG 1.1//EN" "http://www.w3.org/Graphics/SVG/1.1/DTD/svg11.dtd">
<svg version="1.1" id="Layer_1" xmlns="http://www.w3.org/2000/svg" xmlns:xlink="http://www.w3.org/1999/xlink" x="0px" y="0px"
	 width="95px" height="95px" viewBox="0 0 95 95" enable-background="new 0 0 95 95" xml:space="preserve">
<path d="M87.396,40.118c-3.237,0.719-6.045,0.161-8.111-1.431c-2.069-1.59-3.978-3.18-6.523,0.637
	c-2.544,3.818-3.022,11.135,1.592,14c4.614,2.862,4.135-3.023,12.725-1.115c8.59,1.909,8.274,6.203,7.64,9.387
	c-0.64,3.182-3.15,13.587-6.366,17.974c-4.817,6.573-35.156,4.137-35.156,4.137l-30.521-5.167c0,0,7.775-13.92,5.39-19.488
	c-2.389-5.57-9.862-7.16-14.316-2.547c-4.456,4.614-12.816-0.811-13.364-9.387c-0.478-7.475,10.659-11.451,13.522-6.52
	c2.227,3.34,7.316,0.956,9.543,0.16c2.226-0.796,6.841-12.886-1.589-27.203c8.111-2.545,14.314-4.772,20.201-2.227
	c5.886,2.545,4.454,11.454,2.068,14.954c-2.386,3.499,3.499,5.248,6.044,5.089c2.547-0.159,15.431-0.796,12.249-7.635
	c-3.181-6.84-1.431-12.408,6.522-13.043c7.953-0.637,19.886,1.113,21.477,2.385C95.192,24.21,96.938,36.301,87.396,40.118z"/>
</svg>
