<?xml version="1.0" encoding="utf-8"?>
<!-- Generator: Adobe Illustrator 14.0.0, SVG Export Plug-In . SVG Version: 6.00 Build 43363)  -->
<!DOCTYPE svg PUBLIC "-//W3C//DTD SVG 1.1//EN" "http://www.w3.org/Graphics/SVG/1.1/DTD/svg11.dtd">
<svg version="1.1" id="Layer_1" xmlns="http://www.w3.org/2000/svg" xmlns:xlink="http://www.w3.org/1999/xlink" x="0px" y="0px"
	 width="200px" height="200px" viewBox="0 0 200 200" enable-background="new 0 0 200 200" xml:space="preserve">
<g>
	<linearGradient id="SVGID_1_" gradientUnits="userSpaceOnUse" x1="57.9922" y1="26.6479" x2="141.6149" y2="172.2828">
		<stop  offset="0" style="stop-color:#9BC63F"/>
		<stop  offset="0.1811" style="stop-color:#91BA3E"/>
		<stop  offset="0.4619" style="stop-color:#7BA13B"/>
		<stop  offset="0.8056" style="stop-color:#5C7E36"/>
		<stop  offset="1" style="stop-color:#496931"/>
	</linearGradient>
	<path fill="url(#SVGID_1_)" d="M33.672,165.418c18.244,7.609,34.558,8.301,42.436,8.301c5.805,0,13.13-4.422,8.017-10.781
		c-3.774-4.691-11.338-21.707,15.614-21.707c26.951,0,19.387,17.016,15.613,21.707c-5.113,6.359,2.211,10.781,8.018,10.781
		c7.877,0,24.189-0.691,42.436-8.301c-7.609-18.244-8.301-34.557-8.301-42.436c0-5.805,4.424-13.129,10.782-8.016
		c4.69,3.773,21.706,11.338,21.706-15.615c0-26.951-17.016-19.389-21.706-15.613c-6.358,5.113-10.782-2.213-10.782-8.018
		c0-7.877,0.691-24.19,8.301-42.435c-18.244-7.608-34.559-8.3-42.436-8.3c-5.805,0-13.131,4.422-8.018,10.779
		c3.775,4.693,11.338,21.708-15.613,21.707c-26.952,0-19.389-17.014-15.614-21.707c5.113-6.357-2.212-10.779-8.017-10.779
		c-7.878,0-24.191,0.691-42.436,8.299c7.608,18.244,8.3,34.559,8.3,42.438c0,5.805-4.423,13.129-10.78,8.016
		C26.499,79.965,9.484,72.4,9.484,99.354c0,26.951,17.015,19.389,21.708,15.613c6.357-5.113,10.78,2.213,10.78,8.018
		C41.972,130.861,41.28,147.174,33.672,165.418z"/>
	<g opacity="0.5">
		<path opacity="0.95" fill="#010101" d="M82.124,33.766c-2.657,3.304-7.176,12.709-0.222,17.99
			c-3.931-5.393-0.125-13.072,2.222-15.99c3.004-3.735,1.712-6.801-1.04-8.696C84.223,28.858,84.23,31.147,82.124,33.766z"/>
		<path opacity="0.95" fill="#010101" d="M184.275,81.516c2.221,2.923,3.717,7.859,3.717,15.836
			c0,26.953-17.016,19.389-21.707,15.615c-6.357-5.113-10.781,2.211-10.781,8.016c0,7.879,0.691,24.191,8.301,42.436
			c-18.246,7.609-34.559,8.301-42.436,8.301c-2.395,0-5.045-0.753-6.977-2.083c1.626,2.554,5.563,4.083,8.977,4.083
			c7.877,0,24.189-0.691,42.436-8.301c-7.609-18.244-8.301-34.557-8.301-42.436c0-5.805,4.424-13.129,10.782-8.016
			c4.69,3.773,21.706,11.338,21.706-15.615C189.992,89.158,187.558,83.907,184.275,81.516z"/>
		<path opacity="0.95" fill="#010101" d="M155.504,73.721c0,3.414,1.531,7.35,4.084,8.977c-1.33-1.932-2.084-4.583-2.084-6.977
			c0-7.877,0.691-24.19,8.301-42.435c-0.811-0.338-1.611-0.646-2.413-0.957C156.186,50.148,155.504,65.995,155.504,73.721z"/>
		<path opacity="0.95" fill="#010101" d="M37.888,114.008c-1.895-2.753-4.961-4.045-8.696-1.041
			c-2.917,2.348-10.597,6.154-15.991,2.223c5.281,6.954,14.687,2.436,17.991-0.223C33.81,112.861,36.099,112.868,37.888,114.008z"/>
		<path opacity="0.95" fill="#010101" d="M99.738,141.23c7.977,0,12.912,1.497,15.836,3.717c-2.391-3.281-7.643-5.717-17.836-5.717
			c-26.952,0-19.389,17.016-15.614,21.707c5.113,6.359-2.212,10.781-8.017,10.781c-7.528,0-22.764-0.646-40.022-7.343
			c-0.141,0.349-0.268,0.692-0.414,1.042c18.244,7.609,34.558,8.301,42.436,8.301c5.805,0,13.13-4.422,8.017-10.781
			C80.35,158.246,72.786,141.23,99.738,141.23z"/>
	</g>
	<g opacity="0.5">
		<path fill="#FFFFFF" d="M98.738,58.473c-7.918,0-13.694-1.447-17.282-4.295c3.211,4.18,9.681,6.295,19.282,6.295
			c10.965,0,17.845-2.759,20.451-8.201c2.794-5.833-0.43-13.219-3.279-16.76c-1.851-2.302-1.228-3.603-1.022-4.031
			c0.923-1.927,4.279-3.495,7.481-3.495c13.096,0,25.66,2.18,37.418,6.484c0.138-0.361,0.271-0.724,0.412-1.083
			c-12.445-4.912-25.834-7.401-39.83-7.401c-3.202,0-6.559,1.568-7.481,3.495c-0.205,0.428-0.828,1.729,1.022,4.031
			c2.85,3.541,6.073,10.927,3.279,16.76C116.583,55.713,109.703,58.473,98.738,58.473z"/>
		<path fill="#FFFFFF" d="M159.158,85.131c1.59,2.153,3.676,3.332,5.965,3.332c1.807,0,3.629-0.729,5.416-2.167
			c1.498-1.206,5.356-3.484,9.244-3.484c1.633,0,2.975,0.459,4.098,1.228c-1.389-1.97-3.346-3.228-6.098-3.228
			c-3.888,0-7.746,2.279-9.244,3.484c-1.787,1.438-3.609,2.167-5.416,2.167C161.699,86.463,160.357,85.994,159.158,85.131z"/>
		<path fill="#FFFFFF" d="M117.91,165.191c2.85-3.541,6.073-10.928,3.279-16.76c-0.724-1.512-1.791-2.809-3.17-3.904
			c0.455,0.593,0.846,1.228,1.17,1.904c2.794,5.832-0.43,13.219-3.279,16.76c-1.852,2.303-1.228,3.605-1.022,4.033
			c0.354,0.74,1.07,1.426,1.996,1.991C116.675,168.781,116.069,167.48,117.91,165.191z"/>
		<path fill="#FFFFFF" d="M12.484,100.354c0-8.002,1.598-17.54,9.209-17.54c3.886,0,7.747,2.278,9.245,3.483
			c1.788,1.438,3.61,2.167,5.416,2.167c5.155,0,8.618-6.071,8.618-11.741c0-14.516-2.588-28.412-7.694-41.336
			c12.445-4.911,25.835-7.4,39.83-7.4c1.972,0,4,0.596,5.485,1.503c-0.001-0.002-0.003-0.006-0.004-0.008
			c-0.923-1.927-4.279-3.495-7.481-3.495c-13.995,0-27.385,2.489-39.83,7.4c5.106,12.925,7.694,26.82,7.694,41.336
			c0,5.67-3.463,11.741-8.618,11.741c-1.806,0-3.628-0.729-5.416-2.167c-1.498-1.205-5.358-3.483-9.245-3.483
			c-7.612,0-9.209,9.538-9.209,17.54c0,6.285,1,13.498,5.112,16.312C13.144,111.186,12.484,105.463,12.484,100.354z"/>
		<path fill="#FFFFFF" d="M44.972,123.984c0-4.061-1.782-8.313-4.683-10.409c1.695,2.27,2.683,5.392,2.683,8.409
			c0,14.514-2.588,28.408-7.694,41.333c0.8,0.315,1.605,0.621,2.413,0.917C42.519,151.617,44.972,138.095,44.972,123.984z"/>
	</g>
</g>
</svg>
