<?xml version="1.0" encoding="utf-8"?>
<!-- Generator: Adobe Illustrator 14.0.0, SVG Export Plug-In . SVG Version: 6.00 Build 43363)  -->
<!DOCTYPE svg PUBLIC "-//W3C//DTD SVG 1.1//EN" "http://www.w3.org/Graphics/SVG/1.1/DTD/svg11.dtd">
<svg version="1.1" id="Layer_1" xmlns="http://www.w3.org/2000/svg" xmlns:xlink="http://www.w3.org/1999/xlink" x="0px" y="0px"
	 width="200px" height="200px" viewBox="0 0 200 200" enable-background="new 0 0 200 200" xml:space="preserve">
<g>
	<path opacity="0.31" fill="#231F20" d="M180.811,77.931c-1.103-4.362-3.355-8.219-6.339-10.854
		c-3.403-3.006-7.537-4.177-11.341-3.214c-0.583,0.147-1.157,0.343-1.708,0.585c-6.396,2.81-9.408,11.303-7.159,20.196
		c0.028,0.111,0.057,0.222,0.086,0.331l-5.756-0.664c-9.239-8.403-25.004-13.168-43.783-13.22
		c-5.514-5.285-13.666-8.473-22.626-8.878l-1.761-6.967l6.545-1.656c0.538-0.136,1.069-0.318,1.576-0.542
		c4.497-1.977,6.888-6.869,5.684-11.631l-0.087-0.344c-1.354-5.357-6.816-8.615-12.176-7.261l-20.054,5.072
		c-0.542,0.136-1.073,0.318-1.583,0.542c-4.496,1.974-6.884,6.867-5.677,11.649l4.134,16.346
		c-9.139,4.75-15.719,12.152-18.151,20.439C17.235,101.143,5.25,119.116,9.286,135.078c2.914,11.526,13.642,20.113,30.204,24.175
		c15.583,3.822,34.772,3.246,54.029-1.624c7.395-1.87,14.538-4.31,21.234-7.25c22.991-10.102,38.955-25.479,42.271-40.537
		l3.076-2.152c0.048,0.221,0.102,0.443,0.157,0.662c2.472,9.772,10.236,15.952,17.681,14.07c0.583-0.147,1.158-0.346,1.709-0.587
		l0,0c6.396-2.811,9.407-11.304,7.158-20.197C185.898,98.046,181.697,81.434,180.811,77.931z"/>
	<path fill="#FFFFFF" d="M177.58,74.235c-1.103-4.364-3.355-8.22-6.339-10.856c-3.403-3.005-7.538-4.177-11.343-3.213
		c-0.581,0.147-1.157,0.344-1.707,0.586c-6.395,2.809-9.404,11.302-7.159,20.194c0.029,0.11,0.057,0.221,0.088,0.332l-5.757-0.665
		c-9.239-8.402-25.003-13.167-43.783-13.22c-5.514-5.285-13.666-8.473-22.625-8.878l-1.762-6.967l6.543-1.656
		c0.54-0.135,1.071-0.318,1.578-0.542c4.499-1.977,6.886-6.869,5.682-11.631l-0.085-0.344c-1.355-5.357-6.816-8.614-12.176-7.259
		L58.68,35.188c-0.542,0.137-1.074,0.318-1.583,0.542c-4.495,1.975-6.884,6.869-5.676,11.649l4.134,16.346
		c-9.139,4.75-15.718,12.153-18.151,20.439C14.003,97.447,2.02,115.421,6.055,131.381c2.915,11.528,13.642,20.114,30.205,24.175
		c15.583,3.822,34.773,3.247,54.03-1.623c7.394-1.871,14.538-4.31,21.233-7.251c22.991-10.101,38.954-25.479,42.271-40.537
		l3.078-2.151c0.049,0.222,0.101,0.442,0.157,0.663c2.473,9.771,10.237,15.95,17.68,14.069c0.583-0.148,1.157-0.347,1.709-0.588l0,0
		c6.396-2.811,9.408-11.304,7.159-20.196C182.667,94.351,178.466,77.737,177.58,74.235z"/>
	<g>
		<g>
			<g>
				<defs>
					<path id="SVGID_1_" d="M173.729,74.84c-1.859-7.245-7.382-12.088-12.334-10.815c-4.953,1.271-7.459,8.174-5.601,15.417
						c0.67,2.611,1.816,4.911,3.239,6.723l-2.673-0.296l-12.501-1.396c-8.575-8.559-24.629-13.194-43.718-12.856
						C94.864,65.7,85.877,62.384,75.9,62.798l-3.742-14.583l10.831-2.779c2.991-0.767,4.793-3.816,4.026-6.805l-0.086-0.341
						c-0.767-2.99-3.815-4.792-6.806-4.025l-20.038,5.143c-2.992,0.768-4.793,3.816-4.027,6.806l0.09,0.34
						c0.003,0.018,0.009,0.03,0.014,0.05c0.004,0.015,0.006,0.033,0.012,0.05l4.993,19.453
						c-10.382,4.375-17.696,12.411-19.442,20.987c-21.699,11.929-34.48,28.676-30.727,43.301
						c5.229,20.369,40.563,28.901,78.919,19.057c33.192-8.518,57.767-28.008,60.398-46.301l8.879-6.254l2.369-1.669
						c-0.467,2.386-0.404,5.118,0.312,7.901c1.859,7.244,7.381,12.086,12.333,10.813c4.952-1.271,7.461-8.173,5.604-15.417
						c-1.328-5.17-4.521-9.11-8.042-10.485l0.194-0.432C174.211,84.673,175.012,79.84,173.729,74.84z"/>
				</defs>
				<clipPath id="SVGID_2_">
					<use xlink:href="#SVGID_1_"  overflow="visible"/>
				</clipPath>
				<g clip-path="url(#SVGID_2_)">
					
						<rect x="146.39" y="3.835" transform="matrix(-0.9606 0.2781 -0.2781 -0.9606 306.7708 -19.1372)" fill="none" width="16.705" height="16.706"/>
					
						<rect x="146.391" y="3.837" transform="matrix(0.9606 -0.2781 0.2781 0.9606 2.7143 43.5139)" fill="#F37A8B" width="16.705" height="16.704"/>
					
						<rect x="145.394" y="5.164" transform="matrix(0.9606 -0.278 0.278 0.9606 3.2998 41.9489)" fill="#C95973" width="8.352" height="8.35"/>
					
						<rect x="155.74" y="10.862" transform="matrix(0.9606 -0.278 0.278 0.9606 2.1221 45.0445)" fill="#F69FAF" width="8.353" height="8.352"/>
				</g>
				<g clip-path="url(#SVGID_2_)">
					
						<rect x="151.037" y="19.883" transform="matrix(-0.9605 0.2782 -0.2782 -0.9605 320.3411 11.0133)" fill="none" width="16.704" height="16.703"/>
					
						<rect x="151.037" y="19.881" transform="matrix(0.9605 -0.2782 0.2782 0.9605 -1.5625 45.4548)" fill="#F37A8B" width="16.704" height="16.705"/>
					
						<rect x="150.04" y="21.208" transform="matrix(0.9606 -0.2781 0.2781 0.9606 -0.9763 43.8853)" fill="#C95973" width="8.353" height="8.353"/>
					
						<rect x="160.386" y="26.908" transform="matrix(0.9605 -0.2783 0.2783 0.9605 -2.1499 47.0205)" fill="#F69FAF" width="8.352" height="8.352"/>
				</g>
				<g clip-path="url(#SVGID_2_)">
					
						<rect x="155.684" y="35.926" transform="matrix(-0.9605 0.2782 -0.2782 -0.9605 333.9142 41.1835)" fill="none" width="16.703" height="16.706"/>
					
						<rect x="155.684" y="35.927" transform="matrix(0.9605 -0.2782 0.2782 0.9605 -5.8431 47.3741)" fill="#F37A8B" width="16.703" height="16.705"/>
					
						<rect x="154.686" y="37.253" transform="matrix(0.9605 -0.2783 0.2783 0.9605 -5.2537 45.8431)" fill="#C95973" width="8.352" height="8.352"/>
					
						<rect x="165.032" y="42.951" transform="matrix(0.9605 -0.2782 0.2782 0.9605 -6.4313 48.9274)" fill="#F69FAF" width="8.352" height="8.354"/>
				</g>
				<g clip-path="url(#SVGID_2_)">
					
						<rect x="160.328" y="51.972" transform="matrix(-0.9606 0.2781 -0.2781 -0.9606 347.4844 71.3576)" fill="none" width="16.706" height="16.704"/>
					
						<rect x="160.33" y="51.973" transform="matrix(0.9606 -0.2781 0.2781 0.9606 -10.1221 49.2912)" fill="#F37A8B" width="16.706" height="16.703"/>
					
						<rect x="159.333" y="53.299" transform="matrix(0.9606 -0.2781 0.2781 0.9606 -9.5335 47.7394)" fill="#C95973" width="8.354" height="8.351"/>
					
						<rect x="169.679" y="58.998" transform="matrix(0.9606 -0.278 0.278 0.9606 -10.7097 50.831)" fill="#F69FAF" width="8.354" height="8.352"/>
				</g>
				<g clip-path="url(#SVGID_2_)">
					
						<rect x="164.976" y="68.017" transform="matrix(-0.9605 0.2781 -0.2781 -0.9605 361.058 101.5161)" fill="none" width="16.704" height="16.704"/>
					
						<rect x="164.975" y="68.017" transform="matrix(0.9605 -0.2781 0.2781 0.9605 -14.4018 51.2219)" fill="#F37A8B" width="16.704" height="16.705"/>
					
						<rect x="163.979" y="69.343" transform="matrix(0.9605 -0.2781 0.2781 0.9605 -13.8135 49.6716)" fill="#C95973" width="8.351" height="8.353"/>
					
						<rect x="174.324" y="75.044" transform="matrix(0.9605 -0.2781 0.2781 0.9605 -14.9897 52.7677)" fill="#F69FAF" width="8.352" height="8.351"/>
				</g>
				<g clip-path="url(#SVGID_2_)">
					
						<rect x="169.622" y="84.062" transform="matrix(-0.9605 0.2781 -0.2781 -0.9605 374.628 131.6835)" fill="none" width="16.703" height="16.704"/>
					
						<rect x="169.622" y="84.062" transform="matrix(0.9605 -0.2781 0.2781 0.9605 -18.6808 53.145)" fill="#F37A8B" width="16.703" height="16.704"/>
					
						<rect x="168.625" y="85.388" transform="matrix(0.9605 -0.2783 0.2783 0.9605 -18.0984 51.6246)" fill="#C95973" width="8.35" height="8.353"/>
					
						<rect x="178.969" y="91.088" transform="matrix(0.9605 -0.2782 0.2782 0.9605 -19.2733 54.7154)" fill="#F69FAF" width="8.352" height="8.353"/>
				</g>
				<g clip-path="url(#SVGID_2_)">
					
						<rect x="174.268" y="100.107" transform="matrix(-0.9605 0.2781 -0.2781 -0.9605 388.1984 161.852)" fill="none" width="16.704" height="16.704"/>
					
						<rect x="174.268" y="100.107" transform="matrix(0.9605 -0.2781 0.2781 0.9605 -22.9591 55.0671)" fill="#F37A8B" width="16.704" height="16.704"/>
					
						<rect x="173.272" y="101.434" transform="matrix(0.9606 -0.278 0.278 0.9606 -22.3636 53.4889)" fill="#C95973" width="8.351" height="8.351"/>
					
						<rect x="183.617" y="107.134" transform="matrix(0.9606 -0.2781 0.2781 0.9606 -23.5446 56.6063)" fill="#F69FAF" width="8.352" height="8.351"/>
				</g>
				<g clip-path="url(#SVGID_2_)">
					
						<rect x="178.915" y="116.154" transform="matrix(-0.9605 0.2782 -0.2782 -0.9605 401.7812 191.9863)" fill="none" width="16.703" height="16.703"/>
					
						<rect x="178.914" y="116.151" transform="matrix(0.9605 -0.2782 0.2782 0.9605 -27.2477 57.0231)" fill="#F37A8B" width="16.703" height="16.705"/>
					
						<rect x="177.917" y="117.479" transform="matrix(0.9606 -0.278 0.278 0.9606 -26.6439 55.4227)" fill="#C95973" width="8.353" height="8.352"/>
					
						<rect x="188.262" y="123.178" transform="matrix(0.9605 -0.2784 0.2784 0.9605 -27.8482 58.612)" fill="#F69FAF" width="8.352" height="8.352"/>
				</g>
				<g clip-path="url(#SVGID_2_)">
					
						<rect x="130.346" y="8.483" transform="matrix(-0.9605 0.2781 -0.2781 -0.9605 276.6051 -5.5717)" fill="none" width="16.704" height="16.704"/>
					
						<rect x="130.346" y="8.482" transform="matrix(0.9605 -0.2781 0.2781 0.9605 0.7905 39.2411)" fill="#F37A8B" width="16.704" height="16.704"/>
					
						<rect x="129.35" y="9.809" transform="matrix(0.9606 -0.278 0.278 0.9606 1.3764 37.6758)" fill="#C95973" width="8.351" height="8.352"/>
					
						<rect x="139.695" y="15.509" transform="matrix(0.9605 -0.2782 0.2782 0.9605 0.2025 40.7964)" fill="#F69FAF" width="8.352" height="8.352"/>
				</g>
				<g clip-path="url(#SVGID_2_)">
					
						<rect x="134.993" y="24.528" transform="matrix(-0.9605 0.2782 -0.2782 -0.9605 290.1773 24.5908)" fill="none" width="16.703" height="16.705"/>
					
						<rect x="134.992" y="24.527" transform="matrix(0.9605 -0.2782 0.2782 0.9605 -3.4888 41.1689)" fill="#F37A8B" width="16.703" height="16.705"/>
					
						<rect x="133.995" y="25.853" transform="matrix(0.9605 -0.2784 0.2784 0.9605 -2.8974 39.6555)" fill="#C95973" width="8.352" height="8.353"/>
					
						<rect x="144.341" y="31.552" transform="matrix(0.9606 -0.2781 0.2781 0.9606 -4.0778 42.7048)" fill="#F69FAF" width="8.352" height="8.353"/>
				</g>
				<g clip-path="url(#SVGID_2_)">
					
						<rect x="139.639" y="40.572" transform="matrix(-0.9606 0.2781 -0.2781 -0.9606 303.7494 54.7663)" fill="none" width="16.704" height="16.705"/>
					
						<rect x="139.639" y="40.573" transform="matrix(0.9606 -0.2781 0.2781 0.9606 -7.7681 43.0835)" fill="#F37A8B" width="16.704" height="16.704"/>
					
						<rect x="138.642" y="41.899" transform="matrix(0.9605 -0.2781 0.2781 0.9605 -7.1799 41.5403)" fill="#C95973" width="8.353" height="8.352"/>
					
						<rect x="148.987" y="47.6" transform="matrix(0.9606 -0.278 0.278 0.9606 -8.3559 44.6193)" fill="#F69FAF" width="8.354" height="8.351"/>
				</g>
				<g clip-path="url(#SVGID_2_)">
					
						<rect x="144.286" y="56.619" transform="matrix(-0.9605 0.2782 -0.2782 -0.9605 317.3237 84.9119)" fill="none" width="16.703" height="16.703"/>
					
						<rect x="144.285" y="56.617" transform="matrix(0.9605 -0.2782 0.2782 0.9605 -12.0491 45.0293)" fill="#F37A8B" width="16.703" height="16.705"/>
					
						<rect x="143.288" y="57.944" transform="matrix(0.9605 -0.2782 0.2782 0.9605 -11.4601 43.4745)" fill="#C95973" width="8.353" height="8.352"/>
					
						<rect x="153.633" y="63.643" transform="matrix(0.9605 -0.2782 0.2782 0.9605 -12.6387 46.5884)" fill="#F69FAF" width="8.351" height="8.353"/>
				</g>
				<g clip-path="url(#SVGID_2_)">
					
						<rect x="148.929" y="72.663" transform="matrix(-0.9606 0.2781 -0.2781 -0.9606 330.889 115.095)" fill="none" width="16.705" height="16.705"/>
					
						<rect x="148.93" y="72.664" transform="matrix(0.9606 -0.2781 0.2781 0.9606 -16.3257 46.9351)" fill="#F37A8B" width="16.705" height="16.703"/>
					
						<rect x="147.934" y="73.99" transform="matrix(0.9605 -0.2782 0.2782 0.9605 -15.7413 45.4058)" fill="#C95973" width="8.352" height="8.351"/>
					
						<rect x="158.28" y="79.688" transform="matrix(0.9605 -0.2781 0.2781 0.9605 -16.9145 48.4889)" fill="#F69FAF" width="8.352" height="8.353"/>
				</g>
				<g clip-path="url(#SVGID_2_)">
					
						<rect x="153.577" y="88.708" transform="matrix(-0.9605 0.2782 -0.2782 -0.9605 344.4654 145.2479)" fill="none" width="16.704" height="16.704"/>
					
						<rect x="153.576" y="88.707" transform="matrix(0.9605 -0.2782 0.2782 0.9605 -20.6078 48.873)" fill="#F37A8B" width="16.704" height="16.705"/>
					
						<rect x="152.579" y="90.034" transform="matrix(0.9605 -0.2781 0.2781 0.9605 -20.0184 47.3174)" fill="#C95973" width="8.351" height="8.354"/>
					
						<rect x="162.925" y="95.735" transform="matrix(0.9605 -0.2782 0.2782 0.9605 -21.1966 50.4244)" fill="#F69FAF" width="8.352" height="8.351"/>
				</g>
				<g clip-path="url(#SVGID_2_)">
					
						<rect x="158.222" y="104.754" transform="matrix(-0.9605 0.2782 -0.2782 -0.9605 358.0397 175.4055)" fill="none" width="16.705" height="16.704"/>
					
						<rect x="158.223" y="104.753" transform="matrix(0.9605 -0.2782 0.2782 0.9605 -24.8902 50.8065)" fill="#F37A8B" width="16.705" height="16.705"/>
					
						<rect x="157.226" y="106.08" transform="matrix(0.9606 -0.278 0.278 0.9606 -24.2905 49.2207)" fill="#C95973" width="8.353" height="8.352"/>
					
						<rect x="167.572" y="111.78" transform="matrix(0.9605 -0.2783 0.2783 0.9605 -25.4835 52.3724)" fill="#F69FAF" width="8.352" height="8.352"/>
				</g>
				<g clip-path="url(#SVGID_2_)">
					
						<rect x="162.869" y="120.798" transform="matrix(-0.9606 0.2781 -0.2781 -0.9606 371.6043 205.5908)" fill="none" width="16.705" height="16.705"/>
					
						<rect x="162.869" y="120.8" transform="matrix(0.9606 -0.2781 0.2781 0.9606 -29.1622 52.71)" fill="#F37A8B" width="16.705" height="16.703"/>
					
						<rect x="161.872" y="122.125" transform="matrix(0.9605 -0.2783 0.2783 0.9605 -28.59 51.2012)" fill="#C95973" width="8.351" height="8.352"/>
					
						<rect x="172.218" y="127.824" transform="matrix(0.9605 -0.2781 0.2781 0.9605 -29.7536 54.2692)" fill="#F69FAF" width="8.353" height="8.353"/>
				</g>
				<g clip-path="url(#SVGID_2_)">
					
						<rect x="114.301" y="13.129" transform="matrix(-0.9605 0.2782 -0.2782 -0.9605 246.4398 7.9932)" fill="none" width="16.704" height="16.704"/>
					
						<rect x="114.301" y="13.128" transform="matrix(0.9605 -0.2782 0.2782 0.9605 -1.1341 34.9687)" fill="#F37A8B" width="16.704" height="16.705"/>
					
						<rect x="113.304" y="14.454" transform="matrix(0.9605 -0.2782 0.2782 0.9605 -0.5454 33.4177)" fill="#C95973" width="8.351" height="8.353"/>
					
						<rect x="123.649" y="20.155" transform="matrix(0.9606 -0.2781 0.2781 0.9606 -1.7244 36.5019)" fill="#F69FAF" width="8.352" height="8.352"/>
				</g>
				<g clip-path="url(#SVGID_2_)">
					
						<rect x="118.946" y="29.173" transform="matrix(-0.9605 0.2781 -0.2781 -0.9605 260.012 38.1668)" fill="none" width="16.705" height="16.705"/>
					
						<rect x="118.947" y="29.175" transform="matrix(0.9605 -0.2781 0.2781 0.9605 -5.4144 36.8851)" fill="#F37A8B" width="16.705" height="16.704"/>
					
						<rect x="117.95" y="30.501" transform="matrix(0.9605 -0.2781 0.2781 0.9605 -4.8258 35.3365)" fill="#C95973" width="8.351" height="8.35"/>
					
						<rect x="128.296" y="36.198" transform="matrix(0.9605 -0.2781 0.2781 0.9605 -6.0027 38.4378)" fill="#F69FAF" width="8.353" height="8.353"/>
				</g>
				<g clip-path="url(#SVGID_2_)">
					
						<rect x="123.593" y="45.219" transform="matrix(-0.9605 0.2781 -0.2781 -0.9605 273.585 68.3312)" fill="none" width="16.705" height="16.704"/>
					
						<rect x="123.593" y="45.219" transform="matrix(0.9605 -0.2781 0.2781 0.9605 -9.6934 38.8104)" fill="#F37A8B" width="16.705" height="16.704"/>
					
						<rect x="122.597" y="46.546" transform="matrix(0.9606 -0.278 0.278 0.9606 -9.1033 37.2424)" fill="#C95973" width="8.352" height="8.351"/>
					
						<rect x="132.942" y="52.245" transform="matrix(0.9605 -0.2782 0.2782 0.9605 -10.2824 40.3669)" fill="#F69FAF" width="8.354" height="8.352"/>
				</g>
				<g clip-path="url(#SVGID_2_)">
					
						<rect x="128.24" y="61.263" transform="matrix(-0.9606 0.2781 -0.2781 -0.9606 287.155 98.5055)" fill="none" width="16.704" height="16.705"/>
					
						<rect x="128.24" y="61.264" transform="matrix(0.9606 -0.2781 0.2781 0.9606 -13.9707 40.7254)" fill="#F37A8B" width="16.704" height="16.704"/>
					
						<rect x="127.243" y="62.589" transform="matrix(0.9605 -0.2783 0.2783 0.9605 -13.3882 39.2071)" fill="#C95973" width="8.352" height="8.353"/>
					
						<rect x="137.589" y="68.29" transform="matrix(0.9606 -0.278 0.278 0.9606 -14.5573 42.2673)" fill="#F69FAF" width="8.352" height="8.353"/>
				</g>
				<g clip-path="url(#SVGID_2_)">
					
						<rect x="132.886" y="77.311" transform="matrix(-0.9605 0.2782 -0.2782 -0.9605 300.7314 128.6488)" fill="none" width="16.703" height="16.703"/>
					
						<rect x="132.886" y="77.308" transform="matrix(0.9605 -0.2782 0.2782 0.9605 -18.2554 42.6748)" fill="#F37A8B" width="16.703" height="16.705"/>
					
						<rect x="131.889" y="78.635" transform="matrix(0.9605 -0.2781 0.2781 0.9605 -17.664 41.1127)" fill="#C95973" width="8.351" height="8.352"/>
					
						<rect x="142.233" y="84.334" transform="matrix(0.9605 -0.2783 0.2783 0.9605 -18.8486 44.2427)" fill="#F69FAF" width="8.351" height="8.353"/>
				</g>
				<g clip-path="url(#SVGID_2_)">
					
						<rect x="137.531" y="93.354" transform="matrix(-0.9605 0.2782 -0.2782 -0.9605 314.3002 158.8198)" fill="none" width="16.704" height="16.705"/>
					
						<rect x="137.532" y="93.354" transform="matrix(0.9605 -0.2782 0.2782 0.9605 -22.5336 44.5935)" fill="#F37A8B" width="16.704" height="16.705"/>
					
						<rect x="136.535" y="94.682" transform="matrix(0.9606 -0.2779 0.2779 0.9606 -21.9326 43.0056)" fill="#C95973" width="8.352" height="8.351"/>
					
						<rect x="146.881" y="100.381" transform="matrix(0.9606 -0.2781 0.2781 0.9606 -23.1156 46.1253)" fill="#F69FAF" width="8.352" height="8.351"/>
				</g>
				<g clip-path="url(#SVGID_2_)">
					
						<rect x="142.179" y="109.399" transform="matrix(-0.9606 0.2781 -0.2781 -0.9606 327.8669 189.0008)" fill="none" width="16.703" height="16.705"/>
					
						<rect x="142.178" y="109.401" transform="matrix(0.9606 -0.2781 0.2781 0.9606 -26.8067 46.502)" fill="#F37A8B" width="16.703" height="16.703"/>
					
						<rect x="141.181" y="110.726" transform="matrix(0.9605 -0.2783 0.2783 0.9605 -26.235 44.9925)" fill="#C95973" width="8.351" height="8.353"/>
					
						<rect x="151.527" y="116.426" transform="matrix(0.9606 -0.2781 0.2781 0.9606 -27.3963 48.0557)" fill="#F69FAF" width="8.351" height="8.352"/>
				</g>
				<g clip-path="url(#SVGID_2_)">
					
						<rect x="146.824" y="125.446" transform="matrix(-0.9605 0.2782 -0.2782 -0.9605 341.4449 219.1501)" fill="none" width="16.704" height="16.703"/>
					
						<rect x="146.824" y="125.444" transform="matrix(0.9605 -0.2782 0.2782 0.9605 -31.093 48.4447)" fill="#F37A8B" width="16.704" height="16.705"/>
					
						<rect x="145.827" y="126.77" transform="matrix(0.9605 -0.2783 0.2783 0.9605 -30.5139 46.9137)" fill="#C95973" width="8.352" height="8.354"/>
					
						<rect x="156.172" y="132.47" transform="matrix(0.9605 -0.2783 0.2783 0.9605 -31.6914 50.0175)" fill="#F69FAF" width="8.352" height="8.353"/>
				</g>
				<g clip-path="url(#SVGID_2_)">
					
						<rect x="98.257" y="17.774" transform="matrix(-0.9606 0.2781 -0.2781 -0.9606 216.2771 21.5747)" fill="none" width="16.703" height="16.705"/>
					
						<rect x="98.257" y="17.776" transform="matrix(0.9606 -0.2781 0.2781 0.9606 -3.0606 30.6781)" fill="#F37A8B" width="16.703" height="16.704"/>
					
						<rect x="97.26" y="19.102" transform="matrix(0.9605 -0.2781 0.2781 0.9605 -2.4717 29.1317)" fill="#C95973" width="8.351" height="8.351"/>
					
						<rect x="107.605" y="24.8" transform="matrix(0.9606 -0.2781 0.2781 0.9606 -3.649 32.2275)" fill="#F69FAF" width="8.351" height="8.353"/>
				</g>
				<g clip-path="url(#SVGID_2_)">
					
						<rect x="102.903" y="33.821" transform="matrix(-0.9605 0.2782 -0.2782 -0.9605 229.8487 51.7349)" fill="none" width="16.703" height="16.704"/>
					
						<rect x="102.903" y="33.82" transform="matrix(0.9605 -0.2782 0.2782 0.9605 -7.3398 32.6098)" fill="#F37A8B" width="16.703" height="16.705"/>
					
						<rect x="101.906" y="35.146" transform="matrix(0.9605 -0.2781 0.2781 0.9605 -6.7511 31.0572)" fill="#C95973" width="8.351" height="8.352"/>
					
						<rect x="112.251" y="40.845" transform="matrix(0.9605 -0.2782 0.2782 0.9605 -7.9291 34.1694)" fill="#F69FAF" width="8.352" height="8.353"/>
				</g>
				<g clip-path="url(#SVGID_2_)">
					
						<rect x="107.548" y="49.865" transform="matrix(-0.9605 0.2782 -0.2782 -0.9605 243.4205 81.8973)" fill="none" width="16.704" height="16.704"/>
					
						<rect x="107.549" y="49.865" transform="matrix(0.9605 -0.2782 0.2782 0.9605 -11.6196 34.5369)" fill="#F37A8B" width="16.704" height="16.704"/>
					
						<rect x="106.552" y="51.191" transform="matrix(0.9605 -0.2782 0.2782 0.9605 -11.0323 32.9924)" fill="#C95973" width="8.352" height="8.352"/>
					
						<rect x="116.897" y="56.89" transform="matrix(0.9605 -0.2781 0.2781 0.9605 -12.2066 36.0807)" fill="#F69FAF" width="8.352" height="8.352"/>
				</g>
				<g clip-path="url(#SVGID_2_)">
					
						<rect x="112.195" y="65.91" transform="matrix(-0.9605 0.2782 -0.2782 -0.9605 256.9942 112.0576)" fill="none" width="16.704" height="16.704"/>
					
						<rect x="112.195" y="65.909" transform="matrix(0.9605 -0.2782 0.2782 0.9605 -15.9004 36.4664)" fill="#F37A8B" width="16.704" height="16.705"/>
					
						<rect x="111.198" y="67.236" transform="matrix(0.9605 -0.2781 0.2781 0.9605 -15.3088 34.9038)" fill="#C95973" width="8.352" height="8.352"/>
					
						<rect x="121.543" y="72.935" transform="matrix(0.9605 -0.2782 0.2782 0.9605 -16.491 38.0252)" fill="#F69FAF" width="8.353" height="8.353"/>
				</g>
				<g clip-path="url(#SVGID_2_)">
					
						<rect x="116.842" y="81.955" transform="matrix(-0.9605 0.2782 -0.2782 -0.9605 270.5684 142.2205)" fill="none" width="16.703" height="16.705"/>
					
						<rect x="116.841" y="81.955" transform="matrix(0.9605 -0.2782 0.2782 0.9605 -20.1817 38.3946)" fill="#F37A8B" width="16.703" height="16.706"/>
					
						<rect x="115.844" y="83.282" transform="matrix(0.9605 -0.2782 0.2782 0.9605 -19.5908 36.8368)" fill="#C95973" width="8.352" height="8.352"/>
					
						<rect x="126.189" y="88.981" transform="matrix(0.9605 -0.2782 0.2782 0.9605 -20.768 39.9394)" fill="#F69FAF" width="8.352" height="8.353"/>
				</g>
				<g clip-path="url(#SVGID_2_)">
					
						<rect x="121.486" y="98" transform="matrix(-0.9606 0.2781 -0.2781 -0.9606 284.1312 172.4032)" fill="none" width="16.705" height="16.705"/>
					
						<rect x="121.487" y="98.002" transform="matrix(0.9606 -0.2781 0.2781 0.9606 -24.4546 40.3027)" fill="#F37A8B" width="16.705" height="16.703"/>
					
						<rect x="120.491" y="99.328" transform="matrix(0.9606 -0.2781 0.2781 0.9606 -23.8636 38.7458)" fill="#C95973" width="8.352" height="8.351"/>
					
						<rect x="130.835" y="105.028" transform="matrix(0.9606 -0.278 0.278 0.9606 -25.0381 41.8419)" fill="#F69FAF" width="8.353" height="8.351"/>
				</g>
				<g clip-path="url(#SVGID_2_)">
					
						<rect x="126.132" y="114.046" transform="matrix(-0.9605 0.2781 -0.2781 -0.9605 297.7074 202.5592)" fill="none" width="16.705" height="16.703"/>
					
						<rect x="126.132" y="114.045" transform="matrix(0.9605 -0.2781 0.2781 0.9605 -28.7376 42.2366)" fill="#F37A8B" width="16.705" height="16.704"/>
					
						<rect x="125.137" y="115.372" transform="matrix(0.9606 -0.2781 0.2781 0.9606 -28.1416 40.6704)" fill="#C95973" width="8.352" height="8.353"/>
					
						<rect x="135.483" y="121.072" transform="matrix(0.9605 -0.2783 0.2783 0.9605 -29.3393 43.8154)" fill="#F69FAF" width="8.351" height="8.352"/>
				</g>
				<g clip-path="url(#SVGID_2_)">
					
						<rect x="130.78" y="130.09" transform="matrix(-0.9605 0.2782 -0.2782 -0.9605 311.2839 232.7178)" fill="none" width="16.703" height="16.705"/>
					
						<rect x="130.779" y="130.09" transform="matrix(0.9605 -0.2782 0.2782 0.9605 -33.0203 44.1677)" fill="#F37A8B" width="16.703" height="16.705"/>
					
						<rect x="129.782" y="131.417" transform="matrix(0.9605 -0.2782 0.2782 0.9605 -32.4302 42.6135)" fill="#C95973" width="8.352" height="8.353"/>
					
						<rect x="140.128" y="137.117" transform="matrix(0.9605 -0.2782 0.2782 0.9605 -33.6105 45.722)" fill="#F69FAF" width="8.351" height="8.352"/>
				</g>
				<g clip-path="url(#SVGID_2_)">
					
						<rect x="82.211" y="22.421" transform="matrix(-0.9605 0.2781 -0.2781 -0.9605 186.1115 35.1444)" fill="none" width="16.705" height="16.704"/>
					
						<rect x="82.211" y="22.421" transform="matrix(0.9605 -0.2781 0.2781 0.9605 -4.9855 26.4018)" fill="#F37A8B" width="16.705" height="16.703"/>
					
						<rect x="81.215" y="23.747" transform="matrix(0.9605 -0.2782 0.2782 0.9605 -4.3973 24.8598)" fill="#C95973" width="8.352" height="8.352"/>
					
						<rect x="91.56" y="29.446" transform="matrix(0.9605 -0.2782 0.2782 0.9605 -5.5745 27.963)" fill="#F69FAF" width="8.352" height="8.353"/>
				</g>
				<g clip-path="url(#SVGID_2_)">
					
						<rect x="86.857" y="38.466" transform="matrix(-0.9605 0.2781 -0.2781 -0.9605 199.6836 65.3089)" fill="none" width="16.705" height="16.705"/>
					
						<rect x="86.857" y="38.466" transform="matrix(0.9605 -0.2781 0.2781 0.9605 -9.2646 28.3269)" fill="#F37A8B" width="16.705" height="16.705"/>
					
						<rect x="85.861" y="39.791" transform="matrix(0.9605 -0.2783 0.2783 0.9605 -8.6795 26.7959)" fill="#C95973" width="8.351" height="8.352"/>
					
						<rect x="96.206" y="45.49" transform="matrix(0.9606 -0.2781 0.2781 0.9606 -9.8521 29.873)" fill="#F69FAF" width="8.353" height="8.353"/>
				</g>
				<g clip-path="url(#SVGID_2_)">
					
						<rect x="91.504" y="54.511" transform="matrix(-0.9605 0.2782 -0.2782 -0.9605 213.2572 95.4693)" fill="none" width="16.704" height="16.704"/>
					
						<rect x="91.503" y="54.511" transform="matrix(0.9605 -0.2782 0.2782 0.9605 -13.5453 30.2571)" fill="#F37A8B" width="16.704" height="16.705"/>
					
						<rect x="90.507" y="55.838" transform="matrix(0.9606 -0.278 0.278 0.9606 -12.9515 28.6876)" fill="#C95973" width="8.352" height="8.351"/>
					
						<rect x="100.852" y="61.537" transform="matrix(0.9605 -0.2782 0.2782 0.9605 -14.1338 31.8084)" fill="#F69FAF" width="8.352" height="8.352"/>
				</g>
				<g clip-path="url(#SVGID_2_)">
					
						<rect x="96.15" y="70.556" transform="matrix(-0.9605 0.2781 -0.2781 -0.9605 226.8277 125.6371)" fill="none" width="16.704" height="16.705"/>
					
						<rect x="96.15" y="70.556" transform="matrix(0.9605 -0.2781 0.2781 0.9605 -17.8238 32.1794)" fill="#F37A8B" width="16.704" height="16.704"/>
					
						<rect x="95.153" y="71.883" transform="matrix(0.9605 -0.2782 0.2782 0.9605 -17.2366 30.6314)" fill="#C95973" width="8.352" height="8.352"/>
					
						<rect x="105.498" y="77.582" transform="matrix(0.9605 -0.2781 0.2781 0.9605 -18.4121 33.73)" fill="#F69FAF" width="8.353" height="8.352"/>
				</g>
				<g clip-path="url(#SVGID_2_)">
					
						<rect x="100.796" y="86.601" transform="matrix(-0.9606 0.278 -0.278 -0.9606 240.393 155.8152)" fill="none" width="16.705" height="16.706"/>
					
						<rect x="100.796" y="86.602" transform="matrix(0.9606 -0.278 0.278 0.9606 -22.0972 34.0917)" fill="#F37A8B" width="16.705" height="16.704"/>
					
						<rect x="99.799" y="87.928" transform="matrix(0.9606 -0.2781 0.2781 0.9606 -21.5097 32.5429)" fill="#C95973" width="8.352" height="8.351"/>
					
						<rect x="110.145" y="93.628" transform="matrix(0.9606 -0.2779 0.2779 0.9606 -22.6777 35.6245)" fill="#F69FAF" width="8.352" height="8.352"/>
				</g>
				<g clip-path="url(#SVGID_2_)">
					
						<rect x="105.443" y="102.648" transform="matrix(-0.9605 0.2782 -0.2782 -0.9605 253.975 185.9626)" fill="none" width="16.703" height="16.703"/>
					
						<rect x="105.442" y="102.646" transform="matrix(0.9605 -0.2782 0.2782 0.9605 -26.3859 36.0361)" fill="#F37A8B" width="16.703" height="16.705"/>
					
						<rect x="104.445" y="103.973" transform="matrix(0.9606 -0.2779 0.2779 0.9606 -25.7798 34.4524)" fill="#C95973" width="8.352" height="8.352"/>
					
						<rect x="114.791" y="109.674" transform="matrix(0.9605 -0.2782 0.2782 0.9605 -26.976 37.59)" fill="#F69FAF" width="8.351" height="8.351"/>
				</g>
				<g clip-path="url(#SVGID_2_)">
					
						<rect x="110.087" y="118.692" transform="matrix(-0.9605 0.2782 -0.2782 -0.9605 267.5435 216.1285)" fill="none" width="16.704" height="16.704"/>
					
						<rect x="110.088" y="118.692" transform="matrix(0.9605 -0.2782 0.2782 0.9605 -30.6646 37.9596)" fill="#F37A8B" width="16.704" height="16.704"/>
					
						<rect x="109.092" y="120.018" transform="matrix(0.9605 -0.2783 0.2783 0.9605 -30.0886 36.4291)" fill="#C95973" width="8.351" height="8.352"/>
					
						<rect x="119.437" y="125.717" transform="matrix(0.9606 -0.2781 0.2781 0.9606 -31.2428 39.4935)" fill="#F69FAF" width="8.352" height="8.352"/>
				</g>
				<g clip-path="url(#SVGID_2_)">
					
						<rect x="114.734" y="134.736" transform="matrix(-0.9606 0.2781 -0.2781 -0.9606 281.1087 246.304)" fill="none" width="16.705" height="16.705"/>
					
						<rect x="114.734" y="134.737" transform="matrix(0.9606 -0.2781 0.2781 0.9606 -34.937 39.8738)" fill="#F37A8B" width="16.705" height="16.704"/>
					
						<rect x="113.738" y="136.064" transform="matrix(0.9606 -0.2781 0.2781 0.9606 -34.3445 38.3168)" fill="#C95973" width="8.352" height="8.352"/>
					
						<rect x="124.083" y="141.764" transform="matrix(0.9606 -0.278 0.278 0.9606 -35.5179 41.4131)" fill="#F69FAF" width="8.353" height="8.351"/>
				</g>
				<g clip-path="url(#SVGID_2_)">
					
						<rect x="66.167" y="27.067" transform="matrix(-0.9605 0.2781 -0.2781 -0.9605 155.9476 48.7158)" fill="none" width="16.704" height="16.703"/>
					
						<rect x="66.166" y="27.068" transform="matrix(0.9605 -0.2781 0.2781 0.9605 -6.9105 22.1215)" fill="#F37A8B" width="16.704" height="16.703"/>
					
						<rect x="65.17" y="28.393" transform="matrix(0.9605 -0.2783 0.2783 0.9605 -6.3244 20.5857)" fill="#C95973" width="8.351" height="8.352"/>
					
						<rect x="75.515" y="34.092" transform="matrix(0.9605 -0.2781 0.2781 0.9605 -7.4991 23.6738)" fill="#F69FAF" width="8.351" height="8.353"/>
				</g>
				<g clip-path="url(#SVGID_2_)">
					
						<rect x="70.812" y="43.112" transform="matrix(-0.9605 0.2782 -0.2782 -0.9605 169.5192 78.8766)" fill="none" width="16.704" height="16.705"/>
					
						<rect x="70.812" y="43.111" transform="matrix(0.9605 -0.2782 0.2782 0.9605 -11.191 24.0516)" fill="#F37A8B" width="16.704" height="16.706"/>
					
						<rect x="69.816" y="44.438" transform="matrix(0.9606 -0.278 0.278 0.9606 -10.598 22.486)" fill="#C95973" width="8.352" height="8.352"/>
					
						<rect x="80.161" y="50.137" transform="matrix(0.9605 -0.2782 0.2782 0.9605 -11.7817 25.61)" fill="#F69FAF" width="8.352" height="8.353"/>
				</g>
				<g clip-path="url(#SVGID_2_)">
					
						<rect x="75.459" y="59.157" transform="matrix(-0.9605 0.2782 -0.2782 -0.9605 183.0929 109.0408)" fill="none" width="16.704" height="16.705"/>
					
						<rect x="75.459" y="59.157" transform="matrix(0.9605 -0.2782 0.2782 0.9605 -15.4713 25.9781)" fill="#F37A8B" width="16.704" height="16.705"/>
					
						<rect x="74.462" y="60.485" transform="matrix(0.9606 -0.278 0.278 0.9606 -14.8741 24.4065)" fill="#C95973" width="8.351" height="8.351"/>
					
						<rect x="84.807" y="66.183" transform="matrix(0.9605 -0.2782 0.2782 0.9605 -16.0613 27.5329)" fill="#F69FAF" width="8.353" height="8.352"/>
				</g>
				<g clip-path="url(#SVGID_2_)">
					
						<rect x="80.105" y="75.202" transform="matrix(-0.9605 0.2781 -0.2781 -0.9605 196.6623 139.2098)" fill="none" width="16.705" height="16.704"/>
					
						<rect x="80.105" y="75.203" transform="matrix(0.9605 -0.2781 0.2781 0.9605 -19.7487 27.8992)" fill="#F37A8B" width="16.705" height="16.703"/>
					
						<rect x="79.108" y="76.529" transform="matrix(0.9605 -0.2783 0.2783 0.9605 -19.1691 26.3648)" fill="#C95973" width="8.352" height="8.351"/>
					
						<rect x="89.453" y="82.227" transform="matrix(0.9606 -0.278 0.278 0.9606 -20.3308 29.4378)" fill="#F69FAF" width="8.353" height="8.352"/>
				</g>
				<g clip-path="url(#SVGID_2_)">
					
						<rect x="84.751" y="91.248" transform="matrix(-0.9605 0.2782 -0.2782 -0.9605 210.2376 169.3696)" fill="none" width="16.704" height="16.704"/>
					
						<rect x="84.751" y="91.247" transform="matrix(0.9605 -0.2782 0.2782 0.9605 -24.031 29.8295)" fill="#F37A8B" width="16.704" height="16.705"/>
					
						<rect x="83.754" y="92.574" transform="matrix(0.9606 -0.278 0.278 0.9606 -23.4332 28.2629)" fill="#C95973" width="8.352" height="8.351"/>
					
						<rect x="94.1" y="98.273" transform="matrix(0.9605 -0.2783 0.2783 0.9605 -24.6293 31.3977)" fill="#F69FAF" width="8.351" height="8.353"/>
				</g>
				<g clip-path="url(#SVGID_2_)">
					
						<rect x="89.398" y="107.292" transform="matrix(-0.9605 0.2782 -0.2782 -0.9605 223.8108 199.5336)" fill="none" width="16.703" height="16.705"/>
					
						<rect x="89.398" y="107.292" transform="matrix(0.9605 -0.2782 0.2782 0.9605 -28.3118 31.7564)" fill="#F37A8B" width="16.703" height="16.705"/>
					
						<rect x="88.401" y="108.619" transform="matrix(0.9605 -0.2781 0.2781 0.9605 -27.718 30.1971)" fill="#C95973" width="8.35" height="8.352"/>
					
						<rect x="98.746" y="114.32" transform="matrix(0.9606 -0.2779 0.2779 0.9606 -28.8799 33.2759)" fill="#F69FAF" width="8.352" height="8.35"/>
				</g>
				<g clip-path="url(#SVGID_2_)">
					
						<rect x="94.044" y="123.338" transform="matrix(-0.9605 0.2782 -0.2782 -0.9605 237.3829 229.6987)" fill="none" width="16.703" height="16.704"/>
					
						<rect x="94.044" y="123.338" transform="matrix(0.9605 -0.2782 0.2782 0.9605 -32.5919 33.6822)" fill="#F37A8B" width="16.703" height="16.704"/>
					
						<rect x="93.047" y="124.664" transform="matrix(0.9605 -0.2783 0.2783 0.9605 -32.0125 32.1432)" fill="#C95973" width="8.352" height="8.352"/>
					
						<rect x="103.392" y="130.364" transform="matrix(0.9606 -0.2781 0.2781 0.9606 -33.1707 35.2199)" fill="#F69FAF" width="8.351" height="8.352"/>
				</g>
				<g clip-path="url(#SVGID_2_)">
					
						<rect x="98.689" y="139.383" transform="matrix(-0.9605 0.2782 -0.2782 -0.9605 250.9521 259.8653)" fill="none" width="16.704" height="16.704"/>
					
						<rect x="98.689" y="139.383" transform="matrix(0.9605 -0.2782 0.2782 0.9605 -36.87 35.6055)" fill="#F37A8B" width="16.704" height="16.704"/>
					
						<rect x="97.694" y="140.711" transform="matrix(0.9606 -0.2778 0.2778 0.9606 -36.2443 34.0078)" fill="#C95973" width="8.351" height="8.35"/>
					
						<rect x="108.039" y="146.41" transform="matrix(0.9605 -0.2782 0.2782 0.9605 -37.4623 37.1618)" fill="#F69FAF" width="8.351" height="8.351"/>
				</g>
				<g clip-path="url(#SVGID_2_)">
					
						<rect x="50.122" y="31.714" transform="matrix(-0.9605 0.2782 -0.2782 -0.9605 125.7864 62.2795)" fill="none" width="16.704" height="16.703"/>
					
						<rect x="50.121" y="31.712" transform="matrix(0.9605 -0.2782 0.2782 0.9605 -8.8383 17.8511)" fill="#F37A8B" width="16.704" height="16.705"/>
					
						<rect x="49.125" y="33.039" transform="matrix(0.9605 -0.2782 0.2782 0.9605 -8.2488 16.297)" fill="#C95973" width="8.351" height="8.352"/>
					
						<rect x="59.47" y="38.737" transform="matrix(0.9605 -0.2783 0.2783 0.9605 -9.4282 19.4069)" fill="#F69FAF" width="8.352" height="8.353"/>
				</g>
				<g clip-path="url(#SVGID_2_)">
					
						<rect x="54.768" y="47.757" transform="matrix(-0.9605 0.2782 -0.2782 -0.9605 139.3554 92.4486)" fill="none" width="16.703" height="16.706"/>
					
						<rect x="54.768" y="47.759" transform="matrix(0.9605 -0.2782 0.2782 0.9605 -13.1164 19.7711)" fill="#F37A8B" width="16.703" height="16.704"/>
					
						<rect x="53.771" y="49.085" transform="matrix(0.9606 -0.2781 0.2781 0.9606 -12.5243 18.2128)" fill="#C95973" width="8.352" height="8.351"/>
					
						<rect x="64.116" y="54.785" transform="matrix(0.9606 -0.278 0.278 0.9606 -13.7005 21.3128)" fill="#F69FAF" width="8.352" height="8.351"/>
				</g>
				<g clip-path="url(#SVGID_2_)">
					
						<rect x="59.413" y="63.803" transform="matrix(-0.9606 0.2781 -0.2781 -0.9606 152.9222 122.6216)" fill="none" width="16.705" height="16.705"/>
					
						<rect x="59.414" y="63.804" transform="matrix(0.9606 -0.2781 0.2781 0.9606 -17.3915 21.6893)" fill="#F37A8B" width="16.705" height="16.703"/>
					
						<rect x="58.418" y="65.13" transform="matrix(0.9605 -0.2781 0.2781 0.9605 -16.8059 20.1432)" fill="#C95973" width="8.351" height="8.351"/>
					
						<rect x="68.763" y="70.829" transform="matrix(0.9606 -0.2781 0.2781 0.9606 -17.9792 23.2388)" fill="#F69FAF" width="8.352" height="8.353"/>
				</g>
				<g clip-path="url(#SVGID_2_)">
					
						<rect x="64.061" y="79.849" transform="matrix(-0.9605 0.2781 -0.2781 -0.9605 166.4998 152.7799)" fill="none" width="16.704" height="16.703"/>
					
						<rect x="64.06" y="79.848" transform="matrix(0.9605 -0.2781 0.2781 0.9605 -21.6749 23.6213)" fill="#F37A8B" width="16.704" height="16.705"/>
					
						<rect x="63.063" y="81.174" transform="matrix(0.9605 -0.2781 0.2781 0.9605 -21.0841 22.0669)" fill="#C95973" width="8.352" height="8.352"/>
					
						<rect x="73.409" y="86.874" transform="matrix(0.9605 -0.2782 0.2782 0.9605 -22.2648 25.1746)" fill="#F69FAF" width="8.352" height="8.352"/>
				</g>
				<g clip-path="url(#SVGID_2_)">
					
						<rect x="68.706" y="95.894" transform="matrix(-0.9605 0.2782 -0.2782 -0.9605 180.0724 182.9428)" fill="none" width="16.704" height="16.705"/>
					
						<rect x="68.706" y="95.893" transform="matrix(0.9605 -0.2782 0.2782 0.9605 -25.9561 25.549)" fill="#F37A8B" width="16.704" height="16.705"/>
					
						<rect x="67.709" y="97.22" transform="matrix(0.9605 -0.2782 0.2782 0.9605 -25.3676 23.9975)" fill="#C95973" width="8.352" height="8.353"/>
					
						<rect x="78.054" y="102.919" transform="matrix(0.9605 -0.2783 0.2783 0.9605 -26.5524 27.1106)" fill="#F69FAF" width="8.353" height="8.353"/>
				</g>
				<g clip-path="url(#SVGID_2_)">
					
						<rect x="73.353" y="111.938" transform="matrix(-0.9606 0.278 -0.278 -0.9606 193.6338 213.1199)" fill="none" width="16.704" height="16.705"/>
					
						<rect x="73.353" y="111.94" transform="matrix(0.9606 -0.278 0.278 0.9606 -30.2249 27.4612)" fill="#F37A8B" width="16.704" height="16.703"/>
					
						<rect x="72.356" y="113.266" transform="matrix(0.9606 -0.2781 0.2781 0.9606 -29.6387 25.9129)" fill="#C95973" width="8.351" height="8.351"/>
					
						<rect x="82.701" y="118.965" transform="matrix(0.9606 -0.278 0.278 0.9606 -30.8094 29.007)" fill="#F69FAF" width="8.353" height="8.352"/>
				</g>
				<g clip-path="url(#SVGID_2_)">
					
						<rect x="77.999" y="127.985" transform="matrix(-0.9605 0.2782 -0.2782 -0.9605 207.2195 243.2724)" fill="none" width="16.704" height="16.704"/>
					
						<rect x="77.999" y="127.983" transform="matrix(0.9605 -0.2782 0.2782 0.9605 -34.5166 29.4013)" fill="#F37A8B" width="16.704" height="16.706"/>
					
						<rect x="77.002" y="129.31" transform="matrix(0.9606 -0.2781 0.2781 0.9606 -33.9171 27.8377)" fill="#C95973" width="8.351" height="8.353"/>
					
						<rect x="87.347" y="135.011" transform="matrix(0.9606 -0.2781 0.2781 0.9606 -35.0923 30.9372)" fill="#F69FAF" width="8.352" height="8.351"/>
				</g>
				<g clip-path="url(#SVGID_2_)">
					
						<rect x="82.645" y="144.029" transform="matrix(-0.9606 0.2781 -0.2781 -0.9606 220.775 273.4505)" fill="none" width="16.704" height="16.704"/>
					
						<rect x="82.645" y="144.031" transform="matrix(0.9606 -0.2781 0.2781 0.9606 -38.7821 31.3113)" fill="#F37A8B" width="16.704" height="16.702"/>
					
						<rect x="81.648" y="145.357" transform="matrix(0.9606 -0.2781 0.2781 0.9606 -38.1937 29.7607)" fill="#C95973" width="8.352" height="8.351"/>
					
						<rect x="91.993" y="151.055" transform="matrix(0.9605 -0.2782 0.2782 0.9605 -39.3842 32.8771)" fill="#F69FAF" width="8.352" height="8.352"/>
				</g>
				<g clip-path="url(#SVGID_2_)">
					
						<rect x="34.076" y="36.358" transform="matrix(-0.9606 0.2781 -0.2781 -0.9606 95.6166 75.8592)" fill="none" width="16.705" height="16.705"/>
					
						<rect x="34.077" y="36.358" transform="matrix(0.9606 -0.2781 0.2781 0.9606 -10.7601 13.5629)" fill="#F37A8B" width="16.705" height="16.705"/>
					
						<rect x="33.08" y="37.683" transform="matrix(0.9605 -0.2783 0.2783 0.9605 -10.1774 12.0214)" fill="#C95973" width="8.352" height="8.353"/>
					
						<rect x="43.425" y="43.385" transform="matrix(0.9606 -0.2779 0.2779 0.9606 -11.3426 15.1029)" fill="#F69FAF" width="8.352" height="8.352"/>
				</g>
				<g clip-path="url(#SVGID_2_)">
					
						<rect x="38.722" y="52.404" transform="matrix(-0.9606 0.2781 -0.2781 -0.9606 109.1871 106.0262)" fill="none" width="16.705" height="16.704"/>
					
						<rect x="38.722" y="52.404" transform="matrix(0.9606 -0.2781 0.2781 0.9606 -15.0378 15.486)" fill="#F37A8B" width="16.705" height="16.704"/>
					
						<rect x="37.726" y="53.731" transform="matrix(0.9606 -0.2781 0.2781 0.9606 -14.4488 13.9345)" fill="#C95973" width="8.352" height="8.352"/>
					
						<rect x="48.072" y="59.431" transform="matrix(0.9606 -0.278 0.278 0.9606 -15.623 17.0323)" fill="#F69FAF" width="8.352" height="8.351"/>
				</g>
				<g clip-path="url(#SVGID_2_)">
					
						<rect x="43.37" y="68.45" transform="matrix(-0.9605 0.2782 -0.2782 -0.9605 122.7686 136.1817)" fill="none" width="16.703" height="16.703"/>
					
						<rect x="43.369" y="68.448" transform="matrix(0.9605 -0.2782 0.2782 0.9605 -19.3251 17.4215)" fill="#F37A8B" width="16.703" height="16.706"/>
					
						<rect x="42.372" y="69.774" transform="matrix(0.9605 -0.2782 0.2782 0.9605 -18.7385 15.8722)" fill="#C95973" width="8.351" height="8.353"/>
					
						<rect x="52.717" y="75.474" transform="matrix(0.9605 -0.2783 0.2783 0.9605 -19.9183 18.979)" fill="#F69FAF" width="8.352" height="8.353"/>
				</g>
				<g clip-path="url(#SVGID_2_)">
					
						<rect x="48.015" y="84.495" transform="matrix(-0.9605 0.2782 -0.2782 -0.9605 136.34 166.3459)" fill="none" width="16.704" height="16.705"/>
					
						<rect x="48.015" y="84.494" transform="matrix(0.9605 -0.2782 0.2782 0.9605 -23.606 19.3482)" fill="#F37A8B" width="16.704" height="16.705"/>
					
						<rect x="47.018" y="85.82" transform="matrix(0.9605 -0.2783 0.2783 0.9605 -23.0242 17.8036)" fill="#C95973" width="8.353" height="8.352"/>
					
						<rect x="57.364" y="91.52" transform="matrix(0.9606 -0.278 0.278 0.9606 -24.1764 20.8791)" fill="#F69FAF" width="8.352" height="8.352"/>
				</g>
				<g clip-path="url(#SVGID_2_)">
					
						<rect x="52.662" y="100.539" transform="matrix(-0.9606 0.2781 -0.2781 -0.9606 149.8985 196.523)" fill="none" width="16.704" height="16.705"/>
					
						<rect x="52.662" y="100.541" transform="matrix(0.9606 -0.2781 0.2781 0.9606 -27.8721 21.2593)" fill="#F37A8B" width="16.704" height="16.702"/>
					
						<rect x="51.665" y="101.867" transform="matrix(0.9605 -0.2781 0.2781 0.9605 -27.2919 19.7166)" fill="#C95973" width="8.353" height="8.351"/>
					
						<rect x="62.01" y="107.566" transform="matrix(0.9606 -0.2781 0.2781 0.9606 -28.4603 22.81)" fill="#F69FAF" width="8.352" height="8.352"/>
				</g>
				<g clip-path="url(#SVGID_2_)">
					
						<rect x="57.306" y="116.586" transform="matrix(-0.9605 0.2782 -0.2782 -0.9605 163.4841 226.6763)" fill="none" width="16.705" height="16.703"/>
					
						<rect x="57.307" y="116.583" transform="matrix(0.9605 -0.2782 0.2782 0.9605 -32.1653 23.1987)" fill="#F37A8B" width="16.705" height="16.706"/>
					
						<rect x="56.311" y="117.91" transform="matrix(0.9606 -0.2781 0.2781 0.9606 -31.5616 21.6331)" fill="#C95973" width="8.352" height="8.353"/>
					
						<rect x="66.656" y="123.611" transform="matrix(0.9605 -0.2782 0.2782 0.9605 -32.7583 24.7544)" fill="#F69FAF" width="8.353" height="8.352"/>
				</g>
				<g clip-path="url(#SVGID_2_)">
					
						<rect x="61.953" y="132.628" transform="matrix(-0.9606 0.278 -0.278 -0.9606 177.0362 256.8571)" fill="none" width="16.705" height="16.706"/>
					
						<rect x="61.953" y="132.631" transform="matrix(0.9606 -0.278 0.278 0.9606 -36.4257 25.1059)" fill="#F37A8B" width="16.705" height="16.703"/>
					
						<rect x="60.956" y="133.956" transform="matrix(0.9605 -0.2784 0.2784 0.9605 -35.8802 23.5933)" fill="#C95973" width="8.352" height="8.352"/>
					
						<rect x="71.303" y="139.655" transform="matrix(0.9606 -0.2779 0.2779 0.9606 -37.0016 26.6448)" fill="#F69FAF" width="8.352" height="8.353"/>
				</g>
				<g clip-path="url(#SVGID_2_)">
					
						<rect x="66.6" y="148.676" transform="matrix(-0.9605 0.2782 -0.2782 -0.9605 190.625 287.0085)" fill="none" width="16.704" height="16.702"/>
					
						<rect x="66.599" y="148.674" transform="matrix(0.9605 -0.2782 0.2782 0.9605 -40.7209 27.0459)" fill="#F37A8B" width="16.704" height="16.704"/>
					
						<rect x="65.603" y="150.002" transform="matrix(0.9606 -0.2779 0.2779 0.9606 -40.1038 25.4699)" fill="#C95973" width="8.352" height="8.352"/>
					
						<rect x="75.948" y="155.701" transform="matrix(0.9605 -0.2784 0.2784 0.9605 -41.3413 28.6266)" fill="#F69FAF" width="8.352" height="8.352"/>
				</g>
				<g clip-path="url(#SVGID_2_)">
					
						<rect x="18.032" y="41.004" transform="matrix(-0.9605 0.2781 -0.2781 -0.9605 65.4547 89.4268)" fill="none" width="16.704" height="16.705"/>
					
						<rect x="18.032" y="41.004" transform="matrix(0.9605 -0.2781 0.2781 0.9605 -12.6871 9.2861)" fill="#F37A8B" width="16.704" height="16.705"/>
					
						<rect x="17.035" y="42.33" transform="matrix(0.9605 -0.2781 0.2781 0.9605 -12.097 7.7337)" fill="#C95973" width="8.352" height="8.352"/>
					
						<rect x="27.38" y="48.03" transform="matrix(0.9606 -0.2781 0.2781 0.9606 -13.2725 10.8338)" fill="#F69FAF" width="8.351" height="8.353"/>
				</g>
				<g clip-path="url(#SVGID_2_)">
					
						<rect x="22.678" y="57.05" transform="matrix(-0.9605 0.2781 -0.2781 -0.9605 79.0258 119.5922)" fill="none" width="16.704" height="16.704"/>
					
						<rect x="22.678" y="57.05" transform="matrix(0.9605 -0.2781 0.2781 0.9605 -16.9667 11.2115)" fill="#F37A8B" width="16.704" height="16.704"/>
					
						<rect x="21.681" y="58.376" transform="matrix(0.9605 -0.2781 0.2781 0.9605 -16.3763 9.6588)" fill="#C95973" width="8.352" height="8.352"/>
					
						<rect x="32.027" y="64.076" transform="matrix(0.9605 -0.2783 0.2783 0.9605 -17.5635 12.7708)" fill="#F69FAF" width="8.352" height="8.352"/>
				</g>
				<g clip-path="url(#SVGID_2_)">
					
						<rect x="27.323" y="73.094" transform="matrix(-0.9605 0.2781 -0.2781 -0.9605 92.5962 149.759)" fill="none" width="16.705" height="16.706"/>
					
						<rect x="27.324" y="73.095" transform="matrix(0.9605 -0.2781 0.2781 0.9605 -21.2446 13.1358)" fill="#F37A8B" width="16.705" height="16.705"/>
					
						<rect x="26.327" y="74.42" transform="matrix(0.9605 -0.2784 0.2784 0.9605 -20.6735 11.5978)" fill="#C95973" width="8.351" height="8.354"/>
					
						<rect x="36.673" y="80.121" transform="matrix(0.9606 -0.2779 0.2779 0.9606 -21.8167 14.6719)" fill="#F69FAF" width="8.351" height="8.352"/>
				</g>
				<g clip-path="url(#SVGID_2_)">
					
						<rect x="31.97" y="89.14" transform="matrix(-0.9606 0.278 -0.278 -0.9606 106.1626 179.9294)" fill="none" width="16.704" height="16.705"/>
					
						<rect x="31.97" y="89.142" transform="matrix(0.9606 -0.278 0.278 0.9606 -25.5178 15.0559)" fill="#F37A8B" width="16.704" height="16.704"/>
					
						<rect x="30.974" y="90.467" transform="matrix(0.9606 -0.2781 0.2781 0.9606 -24.9311 13.5067)" fill="#C95973" width="8.351" height="8.35"/>
					
						<rect x="41.319" y="96.166" transform="matrix(0.9606 -0.278 0.278 0.9606 -26.104 16.6048)" fill="#F69FAF" width="8.353" height="8.353"/>
				</g>
				<g clip-path="url(#SVGID_2_)">
					
						<rect x="36.617" y="105.187" transform="matrix(-0.9605 0.2782 -0.2782 -0.9605 119.7512 210.0828)" fill="none" width="16.704" height="16.702"/>
					
						<rect x="36.616" y="105.184" transform="matrix(0.9605 -0.2782 0.2782 0.9605 -29.8133 16.9942)" fill="#F37A8B" width="16.704" height="16.705"/>
					
						<rect x="35.62" y="106.512" transform="matrix(0.9606 -0.2779 0.2779 0.9606 -29.1942 15.4204)" fill="#C95973" width="8.352" height="8.351"/>
					
						<rect x="45.965" y="112.211" transform="matrix(0.9605 -0.2783 0.2783 0.9605 -30.4067 18.5499)" fill="#F69FAF" width="8.352" height="8.352"/>
				</g>
				<g clip-path="url(#SVGID_2_)">
					
						<rect x="41.263" y="121.229" transform="matrix(-0.9606 0.2781 -0.2781 -0.9606 133.3057 240.257)" fill="none" width="16.703" height="16.706"/>
					
						<rect x="41.263" y="121.232" transform="matrix(0.9606 -0.2781 0.2781 0.9606 -34.0766 18.907)" fill="#F37A8B" width="16.703" height="16.703"/>
					
						<rect x="40.266" y="122.557" transform="matrix(0.9605 -0.2783 0.2783 0.9605 -33.5127 17.3737)" fill="#C95973" width="8.352" height="8.353"/>
					
						<rect x="50.611" y="128.257" transform="matrix(0.9606 -0.2781 0.2781 0.9606 -34.6669 20.4591)" fill="#F69FAF" width="8.351" height="8.352"/>
				</g>
				<g clip-path="url(#SVGID_2_)">
					
						<rect x="45.908" y="137.277" transform="matrix(-0.9605 0.2782 -0.2782 -0.9605 146.8942 270.4121)" fill="none" width="16.704" height="16.703"/>
					
						<rect x="45.908" y="137.275" transform="matrix(0.9605 -0.2782 0.2782 0.9605 -38.3737 20.8458)" fill="#F37A8B" width="16.704" height="16.706"/>
					
						<rect x="44.912" y="138.601" transform="matrix(0.9605 -0.2782 0.2782 0.9605 -37.7782 19.2894)" fill="#C95973" width="8.352" height="8.353"/>
					
						<rect x="55.257" y="144.302" transform="matrix(0.9605 -0.2782 0.2782 0.9605 -38.9574 22.3935)" fill="#F69FAF" width="8.352" height="8.352"/>
				</g>
				<g clip-path="url(#SVGID_2_)">
					
						<rect x="50.554" y="153.321" transform="matrix(-0.9605 0.2782 -0.2782 -0.9605 160.4654 300.5757)" fill="none" width="16.705" height="16.704"/>
					
						<rect x="50.554" y="153.321" transform="matrix(0.9605 -0.2782 0.2782 0.9605 -42.6534 22.771)" fill="#F37A8B" width="16.705" height="16.704"/>
					
						<rect x="49.558" y="154.648" transform="matrix(0.9606 -0.2781 0.2781 0.9606 -42.0496 21.2087)" fill="#C95973" width="8.35" height="8.352"/>
					
						<rect x="59.904" y="160.347" transform="matrix(0.9605 -0.2782 0.2782 0.9605 -43.2398 24.321)" fill="#F69FAF" width="8.351" height="8.351"/>
				</g>
				<g clip-path="url(#SVGID_2_)">
					
						<rect x="1.989" y="45.649" transform="matrix(-0.9606 0.2781 -0.2781 -0.9606 35.29 102.998)" fill="none" width="16.702" height="16.705"/>
					
						<rect x="1.987" y="45.651" transform="matrix(0.9606 -0.2781 0.2781 0.9606 -14.6107 5.0056)" fill="#F37A8B" width="16.702" height="16.704"/>
					
						<rect x="0.99" y="46.977" transform="matrix(0.9605 -0.2781 0.2781 0.9605 -14.0223 3.4548)" fill="#C95973" width="8.352" height="8.352"/>
					
						<rect x="11.336" y="52.677" transform="matrix(0.9605 -0.2781 0.2781 0.9605 -15.2002 6.5573)" fill="#F69FAF" width="8.351" height="8.352"/>
				</g>
				<g clip-path="url(#SVGID_2_)">
					
						<rect x="6.633" y="61.696" transform="matrix(-0.9605 0.2782 -0.2782 -0.9605 48.865 133.1629)" fill="none" width="16.704" height="16.704"/>
					
						<rect x="6.633" y="61.695" transform="matrix(0.9605 -0.2782 0.2782 0.9605 -18.8949 6.9339)" fill="#F37A8B" width="16.704" height="16.705"/>
					
						<rect x="5.637" y="63.022" transform="matrix(0.9605 -0.2781 0.2781 0.9605 -18.3033 5.3809)" fill="#C95973" width="8.351" height="8.353"/>
					
						<rect x="15.981" y="68.722" transform="matrix(0.9605 -0.2782 0.2782 0.9605 -19.4855 8.4863)" fill="#F69FAF" width="8.352" height="8.352"/>
				</g>
				<g clip-path="url(#SVGID_2_)">
					
						<rect x="11.279" y="77.741" transform="matrix(-0.9605 0.2781 -0.2781 -0.9605 62.4332 163.3293)" fill="none" width="16.704" height="16.705"/>
					
						<rect x="11.279" y="77.742" transform="matrix(0.9605 -0.2781 0.2781 0.9605 -23.1712 8.8572)" fill="#F37A8B" width="16.704" height="16.705"/>
					
						<rect x="10.283" y="79.068" transform="matrix(0.9605 -0.2781 0.2781 0.9605 -22.5828 7.3062)" fill="#C95973" width="8.351" height="8.351"/>
					
						<rect x="20.628" y="84.767" transform="matrix(0.9605 -0.2781 0.2781 0.9605 -23.7574 10.407)" fill="#F69FAF" width="8.352" height="8.353"/>
				</g>
				<g clip-path="url(#SVGID_2_)">
					
						<rect x="15.925" y="93.787" transform="matrix(-0.9605 0.2782 -0.2782 -0.9605 76.0074 193.4938)" fill="none" width="16.704" height="16.704"/>
					
						<rect x="15.925" y="93.787" transform="matrix(0.9605 -0.2782 0.2782 0.9605 -27.4531 10.784)" fill="#F37A8B" width="16.704" height="16.704"/>
					
						<rect x="14.928" y="95.114" transform="matrix(0.9606 -0.278 0.278 0.9606 -26.853 9.2268)" fill="#C95973" width="8.352" height="8.351"/>
					
						<rect x="25.274" y="100.812" transform="matrix(0.9605 -0.2783 0.2783 0.9605 -28.052 12.3418)" fill="#F69FAF" width="8.352" height="8.353"/>
				</g>
				<g clip-path="url(#SVGID_2_)">
					
						<rect x="20.572" y="109.831" transform="matrix(-0.9605 0.2781 -0.2781 -0.9605 89.5741 223.6609)" fill="none" width="16.704" height="16.705"/>
					
						<rect x="20.572" y="109.832" transform="matrix(0.9605 -0.2781 0.2781 0.9605 -31.727 12.7063)" fill="#F37A8B" width="16.704" height="16.704"/>
					
						<rect x="19.574" y="111.157" transform="matrix(0.9605 -0.2784 0.2784 0.9605 -31.1676 11.1707)" fill="#C95973" width="8.353" height="8.353"/>
					
						<rect x="29.92" y="116.857" transform="matrix(0.9606 -0.2779 0.2779 0.9606 -32.2921 14.243)" fill="#F69FAF" width="8.353" height="8.352"/>
				</g>
				<g clip-path="url(#SVGID_2_)">
					
						<rect x="25.218" y="125.877" transform="matrix(-0.9605 0.2782 -0.2782 -0.9605 103.1528 253.8225)" fill="none" width="16.704" height="16.703"/>
					
						<rect x="25.218" y="125.876" transform="matrix(0.9605 -0.2782 0.2782 0.9605 -36.0125 14.6354)" fill="#F37A8B" width="16.704" height="16.704"/>
					
						<rect x="24.221" y="127.203" transform="matrix(0.9605 -0.2782 0.2782 0.9605 -35.424 13.0841)" fill="#C95973" width="8.352" height="8.352"/>
					
						<rect x="34.566" y="132.902" transform="matrix(0.9605 -0.2783 0.2783 0.9605 -36.6127 16.194)" fill="#F69FAF" width="8.353" height="8.353"/>
				</g>
				<g clip-path="url(#SVGID_2_)">
					
						<rect x="29.865" y="141.921" transform="matrix(-0.9605 0.2781 -0.2781 -0.9605 116.7208 283.9893)" fill="none" width="16.702" height="16.706"/>
					
						<rect x="29.864" y="141.922" transform="matrix(0.9605 -0.2781 0.2781 0.9605 -40.2883 16.5584)" fill="#F37A8B" width="16.702" height="16.705"/>
					
						<rect x="28.867" y="143.248" transform="matrix(0.9606 -0.2781 0.2781 0.9606 -39.6912 15.0025)" fill="#C95973" width="8.351" height="8.352"/>
					
						<rect x="39.212" y="148.948" transform="matrix(0.9606 -0.2781 0.2781 0.9606 -40.8683 18.104)" fill="#F69FAF" width="8.351" height="8.352"/>
				</g>
				<g clip-path="url(#SVGID_2_)">
					
						<rect x="34.509" y="157.967" transform="matrix(-0.9606 0.2781 -0.2781 -0.9606 130.2779 314.1621)" fill="none" width="16.704" height="16.704"/>
					
						<rect x="34.51" y="157.968" transform="matrix(0.9606 -0.2781 0.2781 0.9606 -44.5558 18.4768)" fill="#F37A8B" width="16.704" height="16.703"/>
					
						<rect x="33.514" y="159.295" transform="matrix(0.9606 -0.278 0.278 0.9606 -43.9534 16.9183)" fill="#C95973" width="8.351" height="8.351"/>
					
						<rect x="43.859" y="164.994" transform="matrix(0.9605 -0.2782 0.2782 0.9605 -45.1684 20.0423)" fill="#F69FAF" width="8.351" height="8.352"/>
				</g>
				<g clip-path="url(#SVGID_2_)">
					
						<rect x="-14.059" y="50.297" transform="matrix(-0.9605 0.2782 -0.2782 -0.9605 5.1311 116.5706)" fill="none" width="16.706" height="16.704"/>
					
						<rect x="-14.058" y="50.296" transform="matrix(0.9605 -0.2782 0.2782 0.9605 -16.5429 0.7284)" fill="#F37A8B" width="16.706" height="16.705"/>
					
						<rect x="-15.055" y="51.622" transform="matrix(0.9605 -0.2783 0.2783 0.9605 -15.96 -0.823)" fill="#C95973" width="8.352" height="8.353"/>
					
						<rect x="-4.71" y="57.321" transform="matrix(0.9605 -0.2782 0.2782 0.9605 -17.1279 2.279)" fill="#F69FAF" width="8.354" height="8.353"/>
				</g>
				<g clip-path="url(#SVGID_2_)">
					
						<rect x="-9.412" y="66.341" transform="matrix(-0.9606 0.2781 -0.2781 -0.9606 18.694 146.7356)" fill="none" width="16.705" height="16.705"/>
					
						<rect x="-9.412" y="66.343" transform="matrix(0.9606 -0.2781 0.2781 0.9606 -20.814 2.6517)" fill="#F37A8B" width="16.705" height="16.703"/>
					
						<rect x="-10.409" y="67.67" transform="matrix(0.9606 -0.278 0.278 0.9606 -20.2164 1.099)" fill="#C95973" width="8.353" height="8.35"/>
					
						<rect x="-0.063" y="73.368" transform="matrix(0.9605 -0.2781 0.2781 0.9605 -21.4047 4.2034)" fill="#F69FAF" width="8.351" height="8.352"/>
				</g>
				<g clip-path="url(#SVGID_2_)">
					
						<rect x="-4.766" y="82.387" transform="matrix(-0.9606 0.2781 -0.2781 -0.9606 32.2652 176.9022)" fill="none" width="16.704" height="16.705"/>
					
						<rect x="-4.766" y="82.387" transform="matrix(0.9606 -0.2781 0.2781 0.9606 -25.0933 4.5767)" fill="#F37A8B" width="16.704" height="16.705"/>
					
						<rect x="-5.763" y="83.713" transform="matrix(0.9605 -0.2782 0.2782 0.9605 -24.5116 3.0275)" fill="#C95973" width="8.352" height="8.353"/>
					
						<rect x="4.583" y="89.413" transform="matrix(0.9606 -0.278 0.278 0.9606 -25.6741 6.1247)" fill="#F69FAF" width="8.351" height="8.352"/>
				</g>
				<g clip-path="url(#SVGID_2_)">
					
						<rect x="-0.12" y="98.433" transform="matrix(-0.9605 0.2781 -0.2781 -0.9605 45.8374 207.0672)" fill="none" width="16.704" height="16.704"/>
					
						<rect x="-0.12" y="98.433" transform="matrix(0.9605 -0.2781 0.2781 0.9605 -29.373 6.5021)" fill="#F37A8B" width="16.704" height="16.704"/>
					
						<rect x="-1.117" y="99.758" transform="matrix(0.9605 -0.2783 0.2783 0.9605 -28.8026 4.957)" fill="#C95973" width="8.352" height="8.352"/>
					
						<rect x="9.229" y="105.457" transform="matrix(0.9606 -0.2781 0.2781 0.9606 -29.9573 8.0514)" fill="#F69FAF" width="8.351" height="8.353"/>
				</g>
				<g clip-path="url(#SVGID_2_)">
					
						<rect x="4.527" y="114.477" transform="matrix(-0.9605 0.2781 -0.2781 -0.9605 59.4093 237.2318)" fill="none" width="16.704" height="16.704"/>
					
						<rect x="4.527" y="114.477" transform="matrix(0.9605 -0.2781 0.2781 0.9605 -33.652 8.4274)" fill="#F37A8B" width="16.704" height="16.704"/>
					
						<rect x="3.53" y="115.804" transform="matrix(0.9606 -0.2779 0.2779 0.9606 -33.0426 6.8688)" fill="#C95973" width="8.352" height="8.351"/>
					
						<rect x="13.875" y="121.503" transform="matrix(0.9605 -0.2783 0.2783 0.9605 -34.2581 9.9865)" fill="#F69FAF" width="8.353" height="8.353"/>
				</g>
				<g clip-path="url(#SVGID_2_)">
					
						<rect x="9.173" y="130.523" transform="matrix(-0.9605 0.2782 -0.2782 -0.9605 72.9959 267.3922)" fill="none" width="16.704" height="16.704"/>
					
						<rect x="9.173" y="130.522" transform="matrix(0.9605 -0.2782 0.2782 0.9605 -37.9453 10.3588)" fill="#F37A8B" width="16.704" height="16.706"/>
					
						<rect x="8.176" y="131.849" transform="matrix(0.9605 -0.2781 0.2781 0.9605 -37.3475 8.8035)" fill="#C95973" width="8.353" height="8.353"/>
					
						<rect x="18.521" y="137.549" transform="matrix(0.9605 -0.2781 0.2781 0.9605 -38.5225 11.905)" fill="#F69FAF" width="8.353" height="8.352"/>
				</g>
				<g clip-path="url(#SVGID_2_)">
					
						<rect x="13.819" y="146.567" transform="matrix(-0.9606 0.2781 -0.2781 -0.9606 86.5511 297.5627)" fill="none" width="16.704" height="16.705"/>
					
						<rect x="13.819" y="146.569" transform="matrix(0.9606 -0.2781 0.2781 0.9606 -42.2091 12.2773)" fill="#F37A8B" width="16.704" height="16.703"/>
					
						<rect x="12.822" y="147.895" transform="matrix(0.9605 -0.2783 0.2783 0.9605 -41.6477 10.7375)" fill="#C95973" width="8.352" height="8.351"/>
					
						<rect x="23.168" y="153.593" transform="matrix(0.9605 -0.2781 0.2781 0.9605 -42.8042 13.8315)" fill="#F69FAF" width="8.353" height="8.354"/>
				</g>
				<g clip-path="url(#SVGID_2_)">
					
						<rect x="18.465" y="162.614" transform="matrix(-0.9605 0.2782 -0.2782 -0.9605 100.1317 327.7238)" fill="none" width="16.704" height="16.703"/>
					
						<rect x="18.465" y="162.613" transform="matrix(0.9605 -0.2782 0.2782 0.9605 -46.4978 14.2067)" fill="#F37A8B" width="16.704" height="16.704"/>
					
						<rect x="17.468" y="163.94" transform="matrix(0.9606 -0.278 0.278 0.9606 -45.8894 12.6469)" fill="#C95973" width="8.352" height="8.352"/>
					
						<rect x="27.814" y="169.639" transform="matrix(0.9605 -0.2783 0.2783 0.9605 -47.1067 15.7683)" fill="#F69FAF" width="8.352" height="8.352"/>
				</g>
			</g>
		</g>
		<g>
			<g>
				<defs>
					
						<ellipse id="SVGID_3_" transform="matrix(0.9686 -0.2486 0.2486 0.9686 -25.2942 23.4874)" cx="80.346" cy="111.891" rx="54.766" ry="30.497"/>
				</defs>
				<clipPath id="SVGID_4_">
					<use xlink:href="#SVGID_3_"  overflow="visible"/>
				</clipPath>
				<g clip-path="url(#SVGID_4_)">
					
						<rect x="109.409" y="26.025" transform="matrix(-0.9605 0.2781 -0.2781 -0.9605 318.1433 93.0412)" fill="none" width="86.126" height="86.127"/>
					
						<rect x="109.408" y="26.024" transform="matrix(0.9605 -0.2781 0.2781 0.9605 -13.1999 45.1354)" fill="#FAC6D1" width="86.126" height="86.128"/>
					
						<rect x="111.016" y="37.357" transform="matrix(0.9605 -0.2783 0.2783 0.9605 -17.9015 34.7114)" fill="#FCE3E9" width="4.636" height="86.128"/>
					
						<rect x="120.224" y="34.69" transform="matrix(0.9605 -0.2784 0.2784 0.9605 -16.8042 37.1966)" fill="#FCE3E9" width="4.636" height="86.13"/>
					
						<rect x="129.432" y="32.024" transform="matrix(0.9605 -0.2781 0.2781 0.9605 -15.686 39.6082)" fill="#FCE3E9" width="4.638" height="86.128"/>
					
						<rect x="138.641" y="29.358" transform="matrix(0.9606 -0.278 0.278 0.9606 -14.5768 42.0417)" fill="#FCE3E9" width="4.637" height="86.128"/>
					
						<rect x="147.85" y="26.692" transform="matrix(0.9606 -0.278 0.278 0.9606 -13.4726 44.4967)" fill="#FCE3E9" width="4.637" height="86.127"/>
					
						<rect x="157.057" y="24.025" transform="matrix(0.9605 -0.2783 0.2783 0.9605 -12.3736 46.9961)" fill="#FCE3E9" width="4.636" height="86.128"/>
					
						<rect x="166.265" y="21.356" transform="matrix(0.9605 -0.2783 0.2783 0.9605 -11.2689 49.4685)" fill="#FCE3E9" width="4.638" height="86.13"/>
					
						<rect x="175.475" y="18.692" transform="matrix(0.9606 -0.2781 0.2781 0.9606 -10.1603 51.872)" fill="#FCE3E9" width="4.636" height="86.128"/>
					
						<rect x="184.682" y="16.025" transform="matrix(0.9605 -0.2781 0.2781 0.9605 -9.0562 54.3441)" fill="#FCE3E9" width="4.638" height="86.128"/>
				</g>
				<g clip-path="url(#SVGID_4_)">
					
						<rect x="133.362" y="108.754" transform="matrix(-0.9605 0.2781 -0.2781 -0.9605 388.1179 248.5724)" fill="none" width="86.128" height="86.128"/>
					
						<rect x="133.363" y="108.753" transform="matrix(0.9605 -0.2781 0.2781 0.9605 -35.2652 55.063)" fill="#FAC6D1" width="86.128" height="86.128"/>
					
						<rect x="134.971" y="120.087" transform="matrix(0.9606 -0.278 0.278 0.9606 -39.9444 44.5981)" fill="#FCE3E9" width="4.637" height="86.128"/>
					
						<rect x="144.18" y="117.422" transform="matrix(0.9606 -0.2781 0.2781 0.9606 -38.8469 47.0637)" fill="#FCE3E9" width="4.636" height="86.126"/>
					
						<rect x="153.388" y="114.754" transform="matrix(0.9606 -0.278 0.278 0.9606 -37.7358 49.5077)" fill="#FCE3E9" width="4.637" height="86.128"/>
					
						<rect x="162.596" y="112.086" transform="matrix(0.9605 -0.2783 0.2783 0.9605 -36.6583 52.015)" fill="#FCE3E9" width="4.636" height="86.129"/>
					
						<rect x="171.804" y="109.42" transform="matrix(0.9605 -0.2781 0.2781 0.9605 -35.5412 54.4476)" fill="#FCE3E9" width="4.638" height="86.128"/>
					
						<rect x="181.014" y="106.755" transform="matrix(0.9606 -0.2781 0.2781 0.9606 -34.4284 56.885)" fill="#FCE3E9" width="4.636" height="86.127"/>
					
						<rect x="190.22" y="104.088" transform="matrix(0.9605 -0.2782 0.2782 0.9605 -33.3366 59.3726)" fill="#FCE3E9" width="4.637" height="86.128"/>
					
						<rect x="199.431" y="101.421" transform="matrix(0.9606 -0.2781 0.2781 0.9606 -32.2192 61.7957)" fill="#FCE3E9" width="4.636" height="86.129"/>
					
						<rect x="208.637" y="98.755" transform="matrix(0.9605 -0.2781 0.2781 0.9605 -31.1214 64.2715)" fill="#FCE3E9" width="4.638" height="86.128"/>
				</g>
				<g clip-path="url(#SVGID_4_)">
					
						<rect x="26.68" y="49.98" transform="matrix(-0.9605 0.2781 -0.2781 -0.9605 162.6132 163.0174)" fill="none" width="86.127" height="86.128"/>
					
						<rect x="26.679" y="49.98" transform="matrix(0.9605 -0.2781 0.2781 0.9605 -23.1269 23.0694)" fill="#FAC6D1" width="86.127" height="86.128"/>
					
						<rect x="28.287" y="61.313" transform="matrix(0.9606 -0.2781 0.2781 0.9606 -27.8159 12.6261)" fill="#FCE3E9" width="4.636" height="86.128"/>
					
						<rect x="37.495" y="58.645" transform="matrix(0.9605 -0.2782 0.2782 0.9605 -26.726 15.0929)" fill="#FCE3E9" width="4.637" height="86.129"/>
					
						<rect x="46.703" y="55.978" transform="matrix(0.9605 -0.2781 0.2781 0.9605 -25.6133 17.5432)" fill="#FCE3E9" width="4.638" height="86.129"/>
					
						<rect x="55.911" y="53.312" transform="matrix(0.9606 -0.278 0.278 0.9606 -24.4974 19.9871)" fill="#FCE3E9" width="4.637" height="86.128"/>
					
						<rect x="65.121" y="50.646" transform="matrix(0.9605 -0.2783 0.2783 0.9605 -23.414 22.4684)" fill="#FCE3E9" width="4.636" height="86.129"/>
					
						<rect x="74.329" y="47.98" transform="matrix(0.9605 -0.2783 0.2783 0.9605 -22.3101 24.9284)" fill="#FCE3E9" width="4.635" height="86.128"/>
					
						<rect x="83.536" y="45.313" transform="matrix(0.9605 -0.2784 0.2784 0.9605 -21.2129 27.4011)" fill="#FCE3E9" width="4.636" height="86.129"/>
					
						<rect x="92.746" y="42.647" transform="matrix(0.9605 -0.2783 0.2783 0.9605 -20.0951 29.8367)" fill="#FCE3E9" width="4.636" height="86.128"/>
					
						<rect x="101.953" y="39.981" transform="matrix(0.9605 -0.2781 0.2781 0.9605 -18.9837 32.2791)" fill="#FCE3E9" width="4.638" height="86.128"/>
				</g>
				<g clip-path="url(#SVGID_4_)">
					
						<rect x="50.635" y="132.709" transform="matrix(-0.9605 0.2781 -0.2781 -0.9605 232.5865 318.5498)" fill="none" width="86.127" height="86.128"/>
					
						<rect x="50.635" y="132.709" transform="matrix(0.9605 -0.2781 0.2781 0.9605 -45.1902 32.9952)" fill="#FAC6D1" width="86.127" height="86.127"/>
					
						<rect x="52.243" y="144.042" transform="matrix(0.9606 -0.2779 0.2779 0.9606 -49.8414 22.5285)" fill="#FCE3E9" width="4.636" height="86.127"/>
					
						<rect x="61.45" y="141.376" transform="matrix(0.9606 -0.278 0.278 0.9606 -48.7609 24.9984)" fill="#FCE3E9" width="4.637" height="86.128"/>
					
						<rect x="70.659" y="138.708" transform="matrix(0.9605 -0.2782 0.2782 0.9605 -47.6832 27.4742)" fill="#FCE3E9" width="4.638" height="86.129"/>
					
						<rect x="79.867" y="136.041" transform="matrix(0.9604 -0.2785 0.2785 0.9604 -46.6256 29.9713)" fill="#FCE3E9" width="4.636" height="86.13"/>
					
						<rect x="89.077" y="133.377" transform="matrix(0.9606 -0.2779 0.2779 0.9606 -45.4275 32.3434)" fill="#FCE3E9" width="4.636" height="86.127"/>
					
						<rect x="98.284" y="130.71" transform="matrix(0.9606 -0.278 0.278 0.9606 -44.3438 34.8178)" fill="#FCE3E9" width="4.637" height="86.128"/>
					
						<rect x="107.493" y="128.044" transform="matrix(0.9606 -0.2781 0.2781 0.9606 -43.2475 37.2816)" fill="#FCE3E9" width="4.636" height="86.128"/>
					
						<rect x="116.701" y="125.377" transform="matrix(0.9605 -0.2783 0.2783 0.9605 -42.1687 39.7694)" fill="#FCE3E9" width="4.636" height="86.128"/>
					
						<rect x="125.908" y="122.71" transform="matrix(0.9605 -0.2782 0.2782 0.9605 -41.056 42.2163)" fill="#FCE3E9" width="4.637" height="86.128"/>
				</g>
				<g clip-path="url(#SVGID_4_)">
					
						<rect x="-56.051" y="73.935" transform="matrix(-0.9605 0.2781 -0.2781 -0.9605 7.0804 232.9931)" fill="none" width="86.128" height="86.128"/>
					
						<rect x="-56.05" y="73.935" transform="matrix(0.9605 -0.2781 0.2781 0.9605 -33.0535 1.0046)" fill="#FAC6D1" width="86.128" height="86.128"/>
					
						<rect x="-54.442" y="85.268" transform="matrix(0.9606 -0.2778 0.2778 0.9606 -37.7034 -9.4289)" fill="#FCE3E9" width="4.637" height="86.128"/>
					
						<rect x="-45.234" y="82.602" transform="matrix(0.9607 -0.2777 0.2777 0.9607 -36.5811 -6.9749)" fill="#FCE3E9" width="4.635" height="86.126"/>
					
						<rect x="-36.025" y="79.936" transform="matrix(0.9606 -0.278 0.278 0.9606 -35.5227 -4.522)" fill="#FCE3E9" width="4.637" height="86.126"/>
					
						<rect x="-26.817" y="77.269" transform="matrix(0.9605 -0.2782 0.2782 0.9605 -34.4432 -2.0653)" fill="#FCE3E9" width="4.637" height="86.127"/>
					
						<rect x="-17.609" y="74.602" transform="matrix(0.9605 -0.2782 0.2782 0.9605 -33.3413 0.3916)" fill="#FCE3E9" width="4.637" height="86.128"/>
					
						<rect x="-8.4" y="71.936" transform="matrix(0.9606 -0.2778 0.2778 0.9606 -32.1904 2.8379)" fill="#FCE3E9" width="4.636" height="86.127"/>
					
						<rect x="0.808" y="69.269" transform="matrix(0.9606 -0.2781 0.2781 0.9606 -31.1151 5.3)" fill="#FCE3E9" width="4.635" height="86.128"/>
					
						<rect x="10.017" y="66.603" transform="matrix(0.9605 -0.2783 0.2783 0.9605 -30.037 7.7667)" fill="#FCE3E9" width="4.635" height="86.128"/>
					
						<rect x="19.225" y="63.936" transform="matrix(0.9605 -0.2784 0.2784 0.9605 -28.9361 10.2274)" fill="#FCE3E9" width="4.637" height="86.129"/>
				</g>
				<g clip-path="url(#SVGID_4_)">
					
						<rect x="-32.094" y="156.665" transform="matrix(-0.9605 0.2781 -0.2781 -0.9605 77.0596 388.5234)" fill="none" width="86.128" height="86.127"/>
					
						<rect x="-32.095" y="156.663" transform="matrix(0.9605 -0.2781 0.2781 0.9605 -55.1205 10.9324)" fill="#FAC6D1" width="86.128" height="86.128"/>
					
						<rect x="-30.487" y="167.997" transform="matrix(0.9606 -0.2778 0.2778 0.9606 -59.7494 0.4835)" fill="#FCE3E9" width="4.636" height="86.128"/>
					
						<rect x="-21.278" y="165.329" transform="matrix(0.9606 -0.2781 0.2781 0.9606 -58.6933 2.9462)" fill="#FCE3E9" width="4.636" height="86.13"/>
					
						<rect x="-12.07" y="162.663" transform="matrix(0.9605 -0.2784 0.2784 0.9605 -57.6698 5.4207)" fill="#FCE3E9" width="4.636" height="86.129"/>
					
						<rect x="-2.862" y="159.998" transform="matrix(0.9605 -0.2783 0.2783 0.9605 -56.524 7.868)" fill="#FCE3E9" width="4.636" height="86.129"/>
					
						<rect x="6.347" y="157.331" transform="matrix(0.9605 -0.2784 0.2784 0.9605 -55.4512 10.3363)" fill="#FCE3E9" width="4.637" height="86.129"/>
					
						<rect x="15.556" y="154.664" transform="matrix(0.9605 -0.2781 0.2781 0.9605 -54.2861 12.7716)" fill="#FCE3E9" width="4.635" height="86.13"/>
					
						<rect x="24.763" y="151.999" transform="matrix(0.9605 -0.2782 0.2782 0.9605 -53.1967 15.2342)" fill="#FCE3E9" width="4.637" height="86.129"/>
					
						<rect x="33.973" y="149.334" transform="matrix(0.9606 -0.2778 0.2778 0.9606 -52.0208 17.6553)" fill="#FCE3E9" width="4.637" height="86.127"/>
					
						<rect x="43.18" y="146.667" transform="matrix(0.9606 -0.2779 0.2779 0.9606 -50.9419 20.1222)" fill="#FCE3E9" width="4.638" height="86.127"/>
				</g>
			</g>
		</g>
		<g>
			<g>
				<path fill="#FFFFFF" d="M49.231,108.554c-5.238,1.371-8.331,6.61-6.992,11.825c0.645,2.513,2.23,4.625,4.463,5.945
					c2.232,1.322,4.847,1.694,7.359,1.049c0.099-0.025,0.196-0.052,0.292-0.079c5.071-1.47,8.016-6.628,6.704-11.744
					c-0.646-2.513-2.23-4.626-4.464-5.946C54.359,108.281,51.745,107.909,49.231,108.554z"/>
				<path fill="#F37A8B" d="M55.738,127.185L55.738,127.185c-0.413,0.182-0.845,0.337-1.281,0.465
					c-0.102,0.028-0.201,0.056-0.304,0.082c-2.609,0.669-5.321,0.282-7.64-1.089c-2.319-1.372-3.963-3.563-4.633-6.172
					c-1.233-4.805,1.164-9.739,5.7-11.732c0.499-0.219,1.023-0.402,1.556-0.541c2.612-0.67,5.326-0.283,7.645,1.088
					c2.318,1.371,3.964,3.564,4.634,6.172C62.648,120.266,60.261,125.197,55.738,127.185z M47.878,109.416
					c-4.205,1.846-6.424,6.417-5.281,10.871c0.62,2.417,2.146,4.448,4.292,5.72c2.147,1.271,4.663,1.628,7.08,1.008
					c0.097-0.023,0.19-0.05,0.282-0.076c0.405-0.116,0.806-0.262,1.188-0.432c4.192-1.84,6.403-6.41,5.26-10.864
					c-0.621-2.419-2.146-4.451-4.294-5.722c-2.149-1.271-4.664-1.63-7.083-1.007C48.829,109.043,48.342,109.212,47.878,109.416z"/>
			</g>
			<g>
				<path fill="#FFFFFF" d="M75.774,101.607c-5.253,1.348-8.333,6.609-6.995,11.825c0.645,2.511,2.23,4.623,4.464,5.945
					c2.233,1.319,4.846,1.692,7.36,1.047c0.098-0.023,0.194-0.051,0.292-0.078c5.073-1.469,8.016-6.628,6.702-11.745
					c-0.645-2.514-2.23-4.625-4.463-5.945C80.902,101.335,78.288,100.964,75.774,101.607z"/>
				<path fill="#F37A8B" d="M82.28,120.237C82.28,120.237,82.28,120.237,82.28,120.237c-0.414,0.182-0.845,0.337-1.283,0.464
					c-0.1,0.03-0.2,0.057-0.303,0.083c-2.607,0.67-5.32,0.282-7.64-1.089c-2.318-1.372-3.964-3.564-4.634-6.171
					c-1.233-4.81,1.15-9.741,5.671-11.727c0.509-0.224,1.045-0.407,1.59-0.549c2.61-0.669,5.322-0.282,7.641,1.089
					c2.318,1.371,3.964,3.564,4.632,6.172C89.189,113.317,86.803,118.25,82.28,120.237z M74.389,102.475
					c-4.188,1.84-6.396,6.408-5.251,10.866c0.62,2.417,2.145,4.448,4.293,5.718c2.149,1.272,4.664,1.63,7.081,1.01
					c0.094-0.023,0.187-0.05,0.28-0.076c0.407-0.119,0.808-0.264,1.191-0.432c4.191-1.842,6.402-6.412,5.258-10.867
					c-0.621-2.418-2.146-4.449-4.293-5.719c-2.148-1.271-4.663-1.629-7.083-1.01C75.359,102.096,74.861,102.267,74.389,102.475z"/>
			</g>
			<g>
				<path fill="#FFFFFF" d="M103.264,94.54c-5.251,1.353-8.332,6.61-6.994,11.824c0.646,2.514,2.23,4.624,4.463,5.946
					c2.233,1.32,4.848,1.692,7.359,1.048c0.1-0.025,0.196-0.052,0.293-0.079c5.072-1.47,8.015-6.627,6.704-11.746
					C113.755,96.346,108.45,93.208,103.264,94.54z"/>
				<path fill="#F37A8B" d="M109.769,113.169C109.769,113.169,109.769,113.169,109.769,113.169
					c-0.412,0.182-0.845,0.338-1.281,0.465c-0.101,0.029-0.2,0.057-0.304,0.083c-2.606,0.67-5.319,0.283-7.64-1.088
					c-2.316-1.371-3.963-3.563-4.633-6.172c-1.234-4.809,1.151-9.741,5.675-11.727c0.507-0.224,1.041-0.408,1.585-0.548
					c5.385-1.382,10.892,1.874,12.275,7.261C116.68,106.252,114.293,111.182,109.769,113.169z M101.884,95.407
					c-4.189,1.84-6.4,6.41-5.257,10.866c0.621,2.418,2.146,4.45,4.294,5.72c2.148,1.271,4.663,1.63,7.08,1.008
					c0.097-0.023,0.188-0.049,0.284-0.076c0.402-0.117,0.804-0.262,1.186-0.43c4.19-1.842,6.403-6.412,5.26-10.869
					c-1.284-4.991-6.386-8.008-11.375-6.726C102.85,95.03,102.355,95.199,101.884,95.407z"/>
			</g>
		</g>
	</g>
</g>
</svg>
