<?xml version="1.0" encoding="utf-8"?>
<!-- Generator: Adobe Illustrator 16.0.0, SVG Export Plug-In . SVG Version: 6.00 Build 0)  -->
<!DOCTYPE svg PUBLIC "-//W3C//DTD SVG 1.1//EN" "http://www.w3.org/Graphics/SVG/1.1/DTD/svg11.dtd">
<svg version="1.1" id="Layer_1" xmlns="http://www.w3.org/2000/svg" xmlns:xlink="http://www.w3.org/1999/xlink" x="0px" y="0px"
	 width="95px" height="95px" viewBox="0 0 95 95" enable-background="new 0 0 95 95" xml:space="preserve">
<path d="M57.179,74.129c4.476,0.59,8.872,4.125,11.388,7.68c0.212-3.619-1.029-5.289-3.61-7.635
	c2.131-0.324,4.514,0.643,5.954,2.217c-0.074-1.248-0.957-2.559-1.58-3.629c4.65-0.785,7.377,3.553,9.07,6.768
	c4.997-3.523,4.04-12.416,1.261-16.904c2.827-0.732,7.092,0.461,9.503,2.08c-0.067-2.686,0.556-5.602-1.171-7.85
	c-1.566-2.039-3.982-2.689-5.876-3.955c2.869-3.006,8.919-4.14,12.828-3.075c-1.563-7.402-8.121-10.507-14.828-10.979
	c2.568-1.953,4.712-2.341,7.787-2.567c-1.513-1.097-3.316-0.426-4.743-1.178c2.251-1.977,5.823-2.623,8.761-2.555
	c-6.271-7.992-17.495-6.026-25.644-2.988"/>
<path d="M38.447,74.166c-4.462,0.691-8.778,4.324-11.213,7.934c-0.294-3.613,0.911-5.311,3.438-7.713
	c-2.139-0.277-4.499,0.744-5.902,2.352c0.045-1.252,0.898-2.582,1.497-3.664c-4.667-0.682-7.295,3.717-8.916,6.967
	c-5.075-3.41-4.317-12.32-1.64-16.871c-2.842-0.67-7.079,0.619-9.453,2.293c0.008-2.686-0.682-5.588,0.995-7.875
	c1.521-2.072,3.921-2.777,5.786-4.086c-2.937-2.939-9.009-3.938-12.893-2.786c1.396-7.435,7.883-10.686,14.578-11.309
	c-2.613-1.896-4.763-2.235-7.842-2.391c1.488-1.131,3.306-0.5,4.714-1.285c-2.294-1.924-5.879-2.49-8.815-2.357
	c6.092-8.13,17.357-6.416,25.57-3.562"/>
<path d="M31.05,39.175c5.395,0.759,10.343-2.72,11.054-7.767c0.709-5.05-1.852-8.393-6.623-11.022
	c-4.978-2.743-12.979-0.971-12.912,8.274C22.594,32.11,25.655,38.416,31.05,39.175z"/>
<path d="M66.616,39.175c-5.394,0.759-10.343-2.72-11.052-7.767c-0.711-5.05,1.853-8.393,6.623-11.022
	c4.978-2.743,12.979-0.971,12.91,8.274C75.072,32.11,72.011,38.416,66.616,39.175z"/>
<ellipse cx="48.833" cy="51.004" rx="31.142" ry="26.125"/>
<path d="M47.999,20.116c0-2.78-0.77-4.711-2.851-6.652c-2.319-2.165-4.398-2.156-7.354-2.854c4.203,1.109,5.322,5.385,6.222,8.869
	c-2.692-2.713-5.779-5.776-10.062-5.036c1.424,2.835,1.751,5.98,3.192,8.875c-2.402-1.139-5.593-0.593-7.759,0.842
	c1.953,0.887,5.392,2.595,5.854,5.051c-2.113,0.12-4.236,2.327-5.037,4.238c2.166-1.64,4.805-2.875,7.527-2.176
	c-3.477,2.208-4.521,5.227-4.334,9.363c1.292-1.799,1.888-4.036,3.77-5.546c1.584-1.271,3.717-2.314,5.628-2.792
	c-1.127,1.261-0.853,3.232-0.891,4.865c2.464-3.41,5.351-7.067,9.901-5.12c4.451,1.902,6.327,4.951,8.364,9.112
	c0.605-2.243,0.168-7.188-2.225-8.512c2.496,0.993,4.339,4.073,5.308,6.463c2.213-3.286-0.445-8.317-3.043-10.637
	c2.939,0.042,5.129,0.838,7.718,1.758c0.419-2.068-2.69-5.628-4.504-6.453c-1.771-0.806-3.65-0.53-5.521-0.656
	c1.848-2.541,2.865-6.019,6.281-6.424c-3.521-1.817-7.203,1.456-10.444,2.833c-0.304-1.767,0.758-3.439,1.602-4.898
	c-1.166,0.361-2.46,1.335-3.332,2.255c-0.169-2.455,1.724-4.407,2.813-6.435c-3.867-0.618-5.908,6.402-6.632,8.715"/>
</svg>
