<?xml version="1.0" encoding="utf-8"?>
<!-- Generator: Adobe Illustrator 16.0.0, SVG Export Plug-In . SVG Version: 6.00 Build 0)  -->
<!DOCTYPE svg PUBLIC "-//W3C//DTD SVG 1.1//EN" "http://www.w3.org/Graphics/SVG/1.1/DTD/svg11.dtd">
<svg version="1.1" id="Layer_1" xmlns="http://www.w3.org/2000/svg" xmlns:xlink="http://www.w3.org/1999/xlink" x="0px" y="0px"
	 width="95px" height="95px" viewBox="0 0 95 95" enable-background="new 0 0 95 95" xml:space="preserve">
<g>
	<defs>
		<path id="SVGID_1_" d="M95.013,48.561c0,10.916-5.618,19.859-12.759,20.717v2.833c0,4.815-3.058,8.722-6.828,8.722H19.957
			c-3.771,0-6.827-3.906-6.827-8.722v-2.793C5.813,68.734,0,59.664,0,48.561c0-11.103,5.813-20.171,13.13-20.757v-1.704
			c0-4.817,3.057-8.723,6.827-8.723h55.469c3.771,0,6.828,3.906,6.828,8.723v1.746C89.395,28.702,95.013,37.646,95.013,48.561z"/>
	</defs>
	<use xlink:href="#SVGID_1_"  overflow="visible"/>
	<clipPath id="SVGID_2_">
		<use xlink:href="#SVGID_1_"  overflow="visible"/>
	</clipPath>
	<g clip-path="url(#SVGID_2_)">
		<polygon points="40.193,12.925 35.908,10.451 31.623,12.925 31.623,17.873 35.908,20.348 40.193,17.873 		"/>
		<polygon points="48.729,12.925 44.443,10.451 40.157,12.925 40.157,17.873 44.443,20.348 48.729,17.873 		"/>
		<polygon points="57.264,12.925 52.978,10.451 48.693,12.925 48.693,17.873 52.978,20.348 57.264,17.873 		"/>
		<polygon points="65.8,12.925 61.514,10.451 57.228,12.925 57.228,17.873 61.514,20.348 65.8,17.873 		"/>
		<polygon points="74.334,12.925 70.049,10.451 65.763,12.925 65.763,17.873 70.049,20.348 74.334,17.873 		"/>
		<polygon points="82.869,12.925 78.584,10.451 74.297,12.925 74.297,17.873 78.584,20.348 82.869,17.873 		"/>
		<polygon points="91.404,12.925 87.119,10.451 82.833,12.925 82.833,17.873 87.119,20.348 91.404,17.873 		"/>
		<polygon points="6.053,12.925 1.767,10.451 -2.519,12.925 -2.519,17.873 1.767,20.348 6.053,17.873 		"/>
		<polygon points="14.588,12.925 10.302,10.451 6.017,12.925 6.017,17.873 10.302,20.348 14.588,17.873 		"/>
		<polygon points="23.123,12.925 18.837,10.451 14.552,12.925 14.552,17.873 18.837,20.348 23.123,17.873 		"/>
		<polygon points="31.659,12.925 27.373,10.451 23.087,12.925 23.087,17.873 27.373,20.348 31.659,17.873 		"/>
		<polygon points="44.533,20.518 40.248,18.044 35.961,20.518 35.961,25.467 40.248,27.941 44.533,25.467 		"/>
		<polygon points="53.068,20.518 48.782,18.044 44.497,20.518 44.497,25.467 48.782,27.941 53.068,25.467 		"/>
		<polygon points="61.603,20.518 57.317,18.044 53.032,20.518 53.032,25.467 57.317,27.941 61.603,25.467 		"/>
		<polygon points="70.138,20.518 65.853,18.044 61.566,20.518 61.566,25.467 65.853,27.941 70.138,25.467 		"/>
		<polygon points="78.673,20.518 74.388,18.044 70.103,20.518 70.103,25.467 74.388,27.941 78.673,25.467 		"/>
		<polygon points="87.208,20.518 82.924,18.044 78.638,20.518 78.638,25.467 82.924,27.941 87.208,25.467 		"/>
		<polygon points="95.745,20.518 91.458,18.044 87.173,20.518 87.173,25.467 91.458,27.941 95.745,25.467 		"/>
		<polygon points="10.392,20.518 6.106,18.044 1.821,20.518 1.821,25.467 6.106,27.941 10.392,25.467 		"/>
		<polygon points="18.927,20.518 14.642,18.044 10.356,20.518 10.356,25.467 14.642,27.941 18.927,25.467 		"/>
		<polygon points="27.462,20.518 23.176,18.044 18.892,20.518 18.892,25.467 23.176,27.941 27.462,25.467 		"/>
		<polygon points="35.998,20.518 31.712,18.044 27.426,20.518 27.426,25.467 31.712,27.941 35.998,25.467 		"/>
		<polygon points="40.193,28.112 35.908,25.638 31.623,28.112 31.623,33.061 35.908,35.536 40.193,33.061 		"/>
		<polygon points="48.729,28.112 44.443,25.638 40.157,28.112 40.157,33.061 44.443,35.536 48.729,33.061 		"/>
		<polygon points="57.264,28.112 52.978,25.638 48.693,28.112 48.693,33.061 52.978,35.536 57.264,33.061 		"/>
		<polygon points="65.8,28.112 61.514,25.638 57.228,28.112 57.228,33.061 61.514,35.536 65.8,33.061 		"/>
		<polygon points="74.334,28.112 70.049,25.638 65.763,28.112 65.763,33.061 70.049,35.536 74.334,33.061 		"/>
		<polygon points="82.869,28.112 78.584,25.638 74.297,28.112 74.297,33.061 78.584,35.536 82.869,33.061 		"/>
		<polygon points="91.404,28.112 87.119,25.638 82.833,28.112 82.833,33.061 87.119,35.536 91.404,33.061 		"/>
		<polygon points="6.053,28.112 1.767,25.638 -2.519,28.112 -2.519,33.061 1.767,35.536 6.053,33.061 		"/>
		<polygon points="14.588,28.112 10.302,25.638 6.017,28.112 6.017,33.061 10.302,35.536 14.588,33.061 		"/>
		<polygon points="23.123,28.112 18.837,25.638 14.552,28.112 14.552,33.061 18.837,35.536 23.123,33.061 		"/>
		<polygon points="31.659,28.112 27.373,25.638 23.087,28.112 23.087,33.061 27.373,35.536 31.659,33.061 		"/>
		<polygon points="44.533,35.488 40.248,33.015 35.961,35.488 35.961,40.438 40.248,42.911 44.533,40.438 		"/>
		<polygon points="53.068,35.488 48.782,33.015 44.497,35.488 44.497,40.438 48.782,42.911 53.068,40.438 		"/>
		<polygon points="61.603,35.488 57.317,33.015 53.032,35.488 53.032,40.438 57.317,42.911 61.603,40.438 		"/>
		<polygon points="70.138,35.488 65.853,33.015 61.566,35.488 61.566,40.438 65.853,42.911 70.138,40.438 		"/>
		<polygon points="78.673,35.488 74.388,33.015 70.103,35.488 70.103,40.438 74.388,42.911 78.673,40.438 		"/>
		<polygon points="87.208,35.488 82.924,33.015 78.638,35.488 78.638,40.438 82.924,42.911 87.208,40.438 		"/>
		<polygon points="95.745,35.488 91.458,33.015 87.173,35.488 87.173,40.438 91.458,42.911 95.745,40.438 		"/>
		<polygon points="10.392,35.488 6.106,33.015 1.821,35.488 1.821,40.438 6.106,42.911 10.392,40.438 		"/>
		<polygon points="18.927,35.488 14.642,33.015 10.356,35.488 10.356,40.438 14.642,42.911 18.927,40.438 		"/>
		<polygon points="27.462,35.488 23.176,33.015 18.892,35.488 18.892,40.438 23.176,42.911 27.462,40.438 		"/>
		<polygon points="35.998,35.488 31.712,33.015 27.426,35.488 27.426,40.438 31.712,42.911 35.998,40.438 		"/>
		<polygon points="40.193,43.009 35.908,40.534 31.623,43.009 31.623,47.958 35.908,50.433 40.193,47.958 		"/>
		<polygon points="48.729,43.009 44.443,40.534 40.157,43.009 40.157,47.958 44.443,50.433 48.729,47.958 		"/>
		<polygon points="57.264,43.009 52.978,40.534 48.693,43.009 48.693,47.958 52.978,50.433 57.264,47.958 		"/>
		<polygon points="65.8,43.009 61.514,40.534 57.228,43.009 57.228,47.958 61.514,50.433 65.8,47.958 		"/>
		<polygon points="74.334,43.009 70.049,40.534 65.763,43.009 65.763,47.958 70.049,50.433 74.334,47.958 		"/>
		<polygon points="82.869,43.009 78.584,40.534 74.297,43.009 74.297,47.958 78.584,50.433 82.869,47.958 		"/>
		<polygon points="91.404,43.009 87.119,40.534 82.833,43.009 82.833,47.958 87.119,50.433 91.404,47.958 		"/>
		<polygon points="6.053,43.009 1.767,40.534 -2.519,43.009 -2.519,47.958 1.767,50.433 6.053,47.958 		"/>
		<polygon points="14.588,43.009 10.302,40.534 6.017,43.009 6.017,47.958 10.302,50.433 14.588,47.958 		"/>
		<polygon points="23.123,43.009 18.837,40.534 14.552,43.009 14.552,47.958 18.837,50.433 23.123,47.958 		"/>
		<polygon points="31.659,43.009 27.373,40.534 23.087,43.009 23.087,47.958 27.373,50.433 31.659,47.958 		"/>
		<polygon points="44.388,50.243 40.102,47.768 35.817,50.243 35.817,55.191 40.102,57.664 44.388,55.191 		"/>
		<polygon points="52.923,50.243 48.638,47.768 44.353,50.243 44.353,55.191 48.638,57.664 52.923,55.191 		"/>
		<polygon points="61.459,50.243 57.173,47.768 52.888,50.243 52.888,55.191 57.173,57.664 61.459,55.191 		"/>
		<polygon points="69.994,50.243 65.707,47.768 61.423,50.243 61.423,55.191 65.707,57.664 69.994,55.191 		"/>
		<polygon points="78.528,50.243 74.243,47.768 69.958,50.243 69.958,55.191 74.243,57.664 78.528,55.191 		"/>
		<polygon points="87.063,50.243 82.778,47.768 78.492,50.243 78.492,55.191 82.778,57.664 87.063,55.191 		"/>
		<polygon points="95.599,50.243 91.313,47.768 87.027,50.243 87.027,55.191 91.313,57.664 95.599,55.191 		"/>
		<polygon points="10.248,50.243 5.962,47.768 1.676,50.243 1.676,55.191 5.962,57.664 10.248,55.191 		"/>
		<polygon points="18.782,50.243 14.497,47.768 10.211,50.243 10.211,55.191 14.497,57.664 18.782,55.191 		"/>
		<polygon points="27.318,50.243 23.032,47.768 18.746,50.243 18.746,55.191 23.032,57.664 27.318,55.191 		"/>
		<polygon points="35.853,50.243 31.567,47.768 27.282,50.243 27.282,55.191 31.567,57.664 35.853,55.191 		"/>
		<polygon points="40.193,57.475 35.907,54.999 31.623,57.475 31.623,62.423 35.907,64.897 40.193,62.423 		"/>
		<polygon points="48.729,57.475 44.443,54.999 40.157,57.475 40.157,62.423 44.443,64.897 48.729,62.423 		"/>
		<polygon points="57.264,57.475 52.978,54.999 48.692,57.475 48.692,62.423 52.978,64.897 57.264,62.423 		"/>
		<polygon points="65.798,57.475 61.513,54.999 57.228,57.475 57.228,62.423 61.513,64.897 65.798,62.423 		"/>
		<polygon points="74.334,57.475 70.049,54.999 65.763,57.475 65.763,62.423 70.049,64.897 74.334,62.423 		"/>
		<polygon points="82.869,57.475 78.584,54.999 74.297,57.475 74.297,62.423 78.584,64.897 82.869,62.423 		"/>
		<polygon points="91.404,57.475 87.119,54.999 82.832,57.475 82.832,62.423 87.119,64.897 91.404,62.423 		"/>
		<polygon points="6.052,57.475 1.767,54.999 -2.519,57.475 -2.519,62.423 1.767,64.897 6.052,62.423 		"/>
		<polygon points="14.588,57.475 10.302,54.999 6.017,57.475 6.017,62.423 10.302,64.897 14.588,62.423 		"/>
		<polygon points="23.123,57.475 18.837,54.999 14.551,57.475 14.551,62.423 18.837,64.897 23.123,62.423 		"/>
		<polygon points="31.658,57.475 27.373,54.999 23.087,57.475 23.087,62.423 27.373,64.897 31.658,62.423 		"/>
		<polygon points="44.243,64.85 39.958,62.377 35.672,64.85 35.672,69.798 39.958,72.273 44.243,69.798 		"/>
		<polygon points="52.778,64.85 48.492,62.377 44.207,64.85 44.207,69.798 48.492,72.273 52.778,69.798 		"/>
		<polygon points="61.313,64.85 57.028,62.377 52.742,64.85 52.742,69.798 57.028,72.273 61.313,69.798 		"/>
		<polygon points="69.849,64.85 65.563,62.377 61.278,64.85 61.278,69.798 65.563,72.273 69.849,69.798 		"/>
		<polygon points="78.384,64.85 74.098,62.377 69.813,64.85 69.813,69.798 74.098,72.273 78.384,69.798 		"/>
		<polygon points="86.918,64.85 82.633,62.377 78.348,64.85 78.348,69.798 82.633,72.273 86.918,69.798 		"/>
		<polygon points="95.453,64.85 91.168,62.377 86.883,64.85 86.883,69.798 91.168,72.273 95.453,69.798 		"/>
		<polygon points="10.102,64.85 5.816,62.377 1.531,64.85 1.531,69.798 5.816,72.273 10.102,69.798 		"/>
		<polygon points="18.638,64.85 14.352,62.377 10.067,64.85 10.067,69.798 14.352,72.273 18.638,69.798 		"/>
		<polygon points="27.172,64.85 22.887,62.377 18.602,64.85 18.602,69.798 22.887,72.273 27.172,69.798 		"/>
		<polygon points="35.708,64.85 31.422,62.377 27.137,64.85 27.137,69.798 31.422,72.273 35.708,69.798 		"/>
		<polygon points="40.049,72.372 35.763,69.898 31.477,72.372 31.477,77.319 35.763,79.795 40.049,77.319 		"/>
		<polygon points="48.584,72.372 44.298,69.898 40.013,72.372 40.013,77.319 44.298,79.795 48.584,77.319 		"/>
		<polygon points="57.119,72.372 52.833,69.898 48.548,72.372 48.548,77.319 52.833,79.795 57.119,77.319 		"/>
		<polygon points="65.654,72.372 61.369,69.898 57.083,72.372 57.083,77.319 61.369,79.795 65.654,77.319 		"/>
		<polygon points="74.189,72.372 69.903,69.898 65.618,72.372 65.618,77.319 69.903,79.795 74.189,77.319 		"/>
		<polygon points="82.726,72.372 78.438,69.898 74.153,72.372 74.153,77.319 78.438,79.795 82.726,77.319 		"/>
		<polygon points="91.261,72.372 86.974,69.898 82.688,72.372 82.688,77.319 86.974,79.795 91.261,77.319 		"/>
		<polygon points="5.908,72.372 1.622,69.898 -2.663,72.372 -2.663,77.319 1.622,79.795 5.908,77.319 		"/>
		<polygon points="14.443,72.372 10.157,69.898 5.872,72.372 5.872,77.319 10.157,79.795 14.443,77.319 		"/>
		<polygon points="22.978,72.372 18.692,69.898 14.407,72.372 14.407,77.319 18.692,79.795 22.978,77.319 		"/>
		<polygon points="31.513,72.372 27.228,69.898 22.942,72.372 22.942,77.319 27.228,79.795 31.513,77.319 		"/>
		<polygon points="44.388,79.749 40.102,77.274 35.817,79.749 35.817,84.697 40.102,87.173 44.388,84.697 		"/>
		<polygon points="52.923,79.749 48.637,77.274 44.353,79.749 44.353,84.697 48.637,87.173 52.923,84.697 		"/>
		<polygon points="61.459,79.749 57.172,77.274 52.888,79.749 52.888,84.697 57.172,87.173 61.459,84.697 		"/>
		<polygon points="69.994,79.749 65.707,77.274 61.423,79.749 61.423,84.697 65.707,87.173 69.994,84.697 		"/>
		<polygon points="78.528,79.749 74.242,77.274 69.958,79.749 69.958,84.697 74.242,87.173 78.528,84.697 		"/>
		<polygon points="87.063,79.749 82.778,77.274 78.492,79.749 78.492,84.697 82.778,87.173 87.063,84.697 		"/>
		<polygon points="95.599,79.749 91.313,77.274 87.027,79.749 87.027,84.697 91.313,87.173 95.599,84.697 		"/>
		<polygon points="10.247,79.749 5.961,77.274 1.676,79.749 1.676,84.697 5.961,87.173 10.247,84.697 		"/>
		<polygon points="18.782,79.749 14.497,77.274 10.211,79.749 10.211,84.697 14.497,87.173 18.782,84.697 		"/>
		<polygon points="27.317,79.749 23.032,77.274 18.746,79.749 18.746,84.697 23.032,87.173 27.317,84.697 		"/>
		<polygon points="35.853,79.749 31.567,77.274 27.281,79.749 27.281,84.697 31.567,87.173 35.853,84.697 		"/>
	</g>
</g>
</svg>
