<?xml version="1.0" encoding="utf-8"?>
<!-- Generator: Adobe Illustrator 14.0.0, SVG Export Plug-In . SVG Version: 6.00 Build 43363)  -->
<!DOCTYPE svg PUBLIC "-//W3C//DTD SVG 1.1//EN" "http://www.w3.org/Graphics/SVG/1.1/DTD/svg11.dtd">
<svg version="1.1" id="Layer_1" xmlns="http://www.w3.org/2000/svg" xmlns:xlink="http://www.w3.org/1999/xlink" x="0px" y="0px"
	 width="200px" height="200px" viewBox="0 0 200 200" enable-background="new 0 0 200 200" xml:space="preserve">
<path fill="#FFD594" d="M69.969,108.486c-0.218,0.163-0.826,0.334-0.498-0.133c0.182-0.262-0.204-0.574-0.387-0.312
	c-0.218,0.31-0.335,0.753,0.028,1.01c0.356,0.253,0.837,0.071,1.148-0.165C70.515,108.693,70.223,108.293,69.969,108.486z"/>
<path fill="#FFD594" d="M76.026,110.199c-0.215,0.111-0.465,0.196-0.7,0.091c-0.214-0.094-0.056-0.395,0.018-0.526
	c0.158-0.278-0.3-0.473-0.456-0.195c-0.205,0.363-0.247,0.817,0.111,1.101c0.342,0.268,0.852,0.177,1.206-0.008
	C76.486,110.518,76.311,110.052,76.026,110.199z"/>
<path fill="#FFD594" d="M64.678,110.454c-0.297,0.091-0.993,0.074-0.764-0.4c0.139-0.288-0.317-0.483-0.457-0.195
	c-0.166,0.343-0.11,0.714,0.207,0.946c0.34,0.248,0.81,0.231,1.193,0.113C65.164,110.823,64.983,110.36,64.678,110.454z"/>
<path fill="#FFD594" d="M69.12,111.615c-0.083,0.026-0.273,0.089-0.297-0.023c-0.034-0.161,0.058-0.336,0.129-0.475
	c0.145-0.284-0.312-0.48-0.457-0.195c-0.145,0.28-0.27,0.679-0.077,0.971c0.204,0.303,0.569,0.28,0.881,0.187
	C69.605,111.984,69.425,111.523,69.12,111.615z"/>
<path fill="#FFD594" d="M61.006,112.998c-0.167,0.098-0.399,0.201-0.592,0.118c-0.136-0.056,0.044-0.334,0.085-0.394
	c0.178-0.262-0.207-0.574-0.388-0.31c-0.229,0.336-0.365,0.773-0.02,1.083c0.338,0.301,0.877,0.095,1.207-0.096
	C61.576,113.24,61.279,112.841,61.006,112.998z"/>
<path fill="#FFD594" d="M66.305,114.102c-0.078,0.068-0.276,0.27-0.394,0.18c-0.116-0.089-0.05-0.379-0.029-0.489
	c0.062-0.315-0.429-0.386-0.49-0.074c-0.066,0.34-0.055,0.75,0.244,0.977c0.312,0.236,0.711,0.029,0.96-0.192
	C66.834,114.294,66.544,113.89,66.305,114.102z"/>
<path fill="#FFD594" d="M56.004,116.573c-0.249,0.05-0.508,0.063-0.739-0.052c-0.202-0.102,0.072-0.357,0.152-0.438
	c0.226-0.229-0.164-0.536-0.387-0.311c-0.285,0.292-0.49,0.736-0.149,1.07c0.297,0.292,0.796,0.299,1.178,0.224
	C56.371,117.004,56.319,116.511,56.004,116.573z"/>
<path fill="#FFD594" d="M58.327,118.652c-0.129,0.029-0.291,0.071-0.419,0.023c-0.063-0.021,0.01-0.249,0.024-0.297
	c0.082-0.309-0.409-0.379-0.492-0.072c-0.074,0.275-0.069,0.545,0.146,0.752c0.2,0.189,0.556,0.14,0.795,0.088
	C58.693,119.08,58.64,118.588,58.327,118.652z"/>
<path fill="#FFD594" d="M54.477,120.764c-0.124,0.056-0.309,0.145-0.435,0.05c-0.105-0.085,0.034-0.343,0.072-0.421
	c0.142-0.288-0.315-0.483-0.456-0.195c-0.151,0.307-0.224,0.705,0.044,0.973c0.257,0.255,0.653,0.191,0.952,0.056
	C54.944,121.093,54.767,120.631,54.477,120.764z"/>
<path fill="#FFD594" d="M51.332,122.641c-0.12,0.035-0.448,0.139-0.514-0.031c-0.068-0.179,0.198-0.444,0.301-0.552
	c0.223-0.23-0.167-0.539-0.388-0.31c-0.268,0.276-0.513,0.681-0.361,1.077c0.174,0.462,0.771,0.385,1.142,0.279
	C51.819,123.016,51.637,122.555,51.332,122.641z"/>
<path fill="#FFD594" d="M52.671,126.213c-0.098,0.017-0.333,0.075-0.415-0.019c-0.089-0.102,0.054-0.342,0.1-0.43
	c0.146-0.286-0.31-0.479-0.455-0.196c-0.135,0.263-0.249,0.615-0.068,0.885c0.198,0.297,0.577,0.308,0.893,0.253
	C53.04,126.652,52.988,126.157,52.671,126.213z"/>
<path fill="#FFD594" d="M52.448,129.768c-0.077,0.03-0.27,0.126-0.355,0.072c-0.081-0.052,0.004-0.297,0.021-0.361
	c0.083-0.309-0.41-0.377-0.491-0.072c-0.07,0.262-0.096,0.597,0.13,0.796c0.25,0.216,0.594,0.138,0.874,0.031
	C52.926,130.115,52.747,129.653,52.448,129.768z"/>
<path fill="#FFD594" d="M48.799,130.534c-0.173,0.081-0.444,0.209-0.534-0.031c-0.078-0.211,0.082-0.467,0.237-0.591
	c0.25-0.199-0.04-0.602-0.291-0.402c-0.357,0.284-0.532,0.724-0.411,1.168c0.148,0.541,0.776,0.51,1.177,0.317
	C49.265,130.859,49.088,130.396,48.799,130.534z"/>
<path fill="#FFD594" d="M50.33,134.072c-0.129,0.087-0.336,0.224-0.5,0.157c-0.119-0.05,0.06-0.41,0.087-0.465
	c0.138-0.286-0.318-0.483-0.457-0.196c-0.166,0.342-0.246,0.75,0.052,1.04c0.306,0.299,0.823,0.055,1.108-0.133
	C50.889,134.296,50.595,133.896,50.33,134.072z"/>
<path fill="#FFD594" d="M46.239,136.614c-0.147-0.011-0.507-0.029-0.548-0.229c-0.04-0.194,0.245-0.358,0.381-0.427
	c0.285-0.144,0.106-0.605-0.179-0.463c-0.37,0.185-0.737,0.489-0.695,0.945c0.042,0.465,0.582,0.635,0.97,0.664
	C46.485,137.13,46.56,136.639,46.239,136.614z"/>
<path fill="#FFD594" d="M49.124,139.119c-0.13,0.114-0.283,0.263-0.46,0.301c-0.028,0.006-0.034,0.004-0.039,0.004
	c-0.038-0.085-0.003-0.208,0.014-0.295c0.06-0.314-0.431-0.386-0.49-0.072c-0.062,0.313-0.046,0.67,0.277,0.825
	c0.338,0.164,0.756-0.153,0.989-0.36C49.651,139.31,49.361,138.905,49.124,139.119z"/>
<path fill="#FFD594" d="M53.479,137.331c-0.127,0.094-0.286,0.208-0.455,0.203c-0.146-0.008-0.133-0.198-0.125-0.303
	c0.023-0.318-0.467-0.392-0.491-0.072c-0.024,0.338,0.048,0.685,0.39,0.829c0.331,0.138,0.712-0.062,0.971-0.257
	C54.026,137.539,53.735,137.137,53.479,137.331z"/>
<path fill="#FFD594" d="M45.103,142.435c-0.054,0.035-0.481,0.313-0.511,0.143c-0.044-0.236,0.221-0.458,0.402-0.547
	c0.284-0.142,0.107-0.609-0.178-0.463c-0.413,0.206-0.846,0.657-0.695,1.164c0.183,0.617,0.903,0.348,1.274,0.105
	C45.662,142.66,45.369,142.261,45.103,142.435z"/>
<path fill="#FFD594" d="M50.51,142.612c-0.19,0.112-0.416,0.204-0.632,0.119c-0.207-0.083-0.24-0.359-0.25-0.548
	c-0.02-0.319-0.512-0.264-0.494,0.056c0.025,0.402,0.178,0.757,0.547,0.946c0.362,0.188,0.803,0.019,1.12-0.171
	C51.077,142.848,50.782,142.449,50.51,142.612z"/>
<path fill="#FFD594" d="M48.024,146.569c-0.226,0.164-0.508,0.294-0.779,0.162c-0.238-0.112-0.096-0.467,0.002-0.62
	c0.166-0.268-0.219-0.581-0.388-0.31c-0.26,0.419-0.369,0.952,0.058,1.307c0.412,0.34,1.018,0.143,1.398-0.137
	C48.573,146.782,48.281,146.379,48.024,146.569z"/>
<path fill="#FFD594" d="M55.515,145.742c-0.183,0.17-0.448,0.353-0.71,0.257c-0.27-0.102-0.116-0.456-0.023-0.628
	c0.153-0.282-0.305-0.476-0.456-0.195c-0.213,0.392-0.265,0.931,0.156,1.207c0.427,0.284,0.98,0.081,1.326-0.238
	C56.039,145.931,55.75,145.528,55.515,145.742z"/>
<path fill="#FFD594" d="M52.781,148.899c-0.163,0.175-0.372,0.271-0.609,0.225c-0.266-0.048-0.284-0.367-0.251-0.576
	c0.049-0.317-0.442-0.389-0.49-0.073c-0.07,0.452,0.07,0.896,0.51,1.095c0.439,0.195,0.927-0.035,1.228-0.36
	C53.386,148.975,52.997,148.666,52.781,148.899z"/>
<path fill="#FFD594" d="M51.491,152.388c-0.214,0.183-0.491,0.371-0.701,0.091c-0.167-0.224-0.163-0.578-0.087-0.831
	c0.09-0.303-0.365-0.504-0.456-0.195c-0.14,0.465-0.125,1.021,0.211,1.404c0.382,0.436,0.937,0.264,1.322-0.066
	C52.023,152.583,51.733,152.179,51.491,152.388z"/>
<path fill="#FFD594" d="M56.704,152.637c-0.432,0.157-0.608-0.317-0.59-0.672c0.015-0.317-0.478-0.393-0.491-0.072
	c-0.034,0.729,0.44,1.505,1.26,1.21C57.183,152.993,57.004,152.53,56.704,152.637z"/>
<path fill="#FFD594" d="M62.145,150.802c-0.316,0.255-0.608,0.257-0.84-0.094c-0.179-0.266-0.578,0.025-0.403,0.292
	c0.378,0.568,1.016,0.625,1.534,0.204C62.684,151.002,62.392,150.601,62.145,150.802z"/>
<path fill="#FFD594" d="M57.207,157.08c-0.219,0.085-0.448,0.1-0.663,0c-0.235-0.107-0.151-0.344-0.054-0.517
	c0.159-0.279-0.298-0.473-0.455-0.198c-0.208,0.366-0.192,0.779,0.137,1.062c0.326,0.283,0.836,0.261,1.213,0.116
	C57.685,157.431,57.506,156.968,57.207,157.08z"/>
<path fill="#FFD594" d="M61.796,154.957c-0.414,0.253-0.871,0.019-0.942-0.452c-0.049-0.315-0.542-0.262-0.492,0.056
	c0.128,0.856,0.992,1.25,1.725,0.799C62.361,155.193,62.067,154.793,61.796,154.957z"/>
<path fill="#FFD594" d="M67.884,155.762c-0.367,0.394-0.78,0.143-0.719-0.361c0.039-0.315-0.454-0.39-0.491-0.07
	c-0.054,0.434,0.083,0.846,0.481,1.062c0.396,0.216,0.844-0.026,1.115-0.319C68.489,155.838,68.098,155.529,67.884,155.762z"/>
<path fill="#FFD594" d="M63.851,158.175c-0.125,0.104-0.344,0.268-0.511,0.153c-0.18-0.124-0.068-0.417,0.005-0.567
	c0.137-0.289-0.319-0.485-0.458-0.199c-0.183,0.384-0.199,0.811,0.111,1.126c0.323,0.329,0.846,0.132,1.143-0.108
	C64.39,158.376,64.099,157.974,63.851,158.175z"/>
<path fill="#FFD594" d="M65.923,161.951c-0.175,0.197-0.458,0.421-0.741,0.319c-0.277-0.096-0.192-0.467-0.112-0.666
	c0.115-0.299-0.341-0.497-0.457-0.197c-0.189,0.483-0.165,1.027,0.331,1.301c0.481,0.268,1.053-0.09,1.365-0.448
	C66.522,162.021,66.134,161.713,65.923,161.951z"/>
<path fill="#FFD594" d="M72.076,159.181c-0.15,0.149-0.383,0.334-0.555,0.122c-0.176-0.218-0.155-0.551-0.098-0.805
	c0.07-0.313-0.421-0.383-0.49-0.072c-0.095,0.427-0.053,0.98,0.296,1.288c0.414,0.367,0.902,0.113,1.235-0.225
	C72.688,159.262,72.298,158.954,72.076,159.181z"/>
<path fill="#FFD594" d="M77.706,157.992c-0.143,0.191-0.33,0.382-0.576,0.417c-0.262,0.039-0.274-0.305-0.265-0.481
	c0.017-0.318-0.474-0.394-0.49-0.074c-0.021,0.419,0.081,0.949,0.57,1.039c0.464,0.087,0.887-0.241,1.149-0.591
	C78.285,158.049,77.898,157.735,77.706,157.992z"/>
<path fill="#FFD594" d="M76.639,161.71c-0.262,0.404-0.96,0.716-0.925-0.032c0.016-0.317-0.475-0.393-0.489-0.071
	c-0.023,0.471,0.127,0.913,0.626,1.031c0.464,0.111,0.94-0.256,1.175-0.618C77.198,161.754,76.813,161.442,76.639,161.71z"/>
<path fill="#FFD594" d="M71.072,164.314c-0.235,0.199-0.525,0.369-0.832,0.238c-0.283-0.122-0.263-0.495-0.206-0.737
	c0.072-0.31-0.417-0.382-0.49-0.071c-0.11,0.459-0.003,0.993,0.445,1.234c0.469,0.251,0.996,0.062,1.372-0.264
	C71.603,164.508,71.313,164.105,71.072,164.314z"/>
<path fill="#FFD594" d="M84.117,158.73c-0.167,0.317-0.404,0.616-0.688,0.836c-0.032,0.027-0.216,0.17-0.263,0.139
	c-0.135-0.087-0.101-0.441-0.1-0.57c0.003-0.321-0.492-0.263-0.494,0.054c-0.004,0.517,0.19,1.183,0.842,0.958
	c0.512-0.178,0.921-0.765,1.16-1.221C84.723,158.644,84.267,158.448,84.117,158.73z"/>
<path fill="#FFD594" d="M81.454,163.376c-0.092,0.062-0.22,0.155-0.333,0.107c-0.114-0.044-0.108-0.33-0.112-0.421
	c-0.016-0.319-0.508-0.264-0.492,0.054c0.013,0.305,0.088,0.633,0.367,0.799c0.285,0.172,0.61,0.032,0.861-0.136
	C82.012,163.602,81.718,163.201,81.454,163.376z"/>
<path fill="#FFD594" d="M77.869,165.92c-0.267,0.133-0.545,0.232-0.845,0.176c-0.303-0.058-0.289-0.412-0.25-0.645
	c0.055-0.315-0.437-0.388-0.49-0.072c-0.08,0.462,0.017,0.879,0.433,1.126c0.395,0.236,0.956,0.066,1.329-0.123
	C78.329,166.239,78.152,165.774,77.869,165.92z"/>
<path fill="#FFD594" d="M89.126,157.56c-0.13,0.167-0.292,0.327-0.518,0.29c-0.194-0.029-0.304-0.264-0.362-0.423
	c-0.108-0.301-0.572-0.121-0.462,0.18c0.13,0.357,0.371,0.641,0.751,0.734c0.39,0.096,0.756-0.188,0.979-0.471
	C89.712,157.617,89.325,157.307,89.126,157.56z"/>
<path fill="#FFD594" d="M87.458,161.719c-0.159,0.249-0.368,0.456-0.647,0.564c-0.342,0.135-0.421-0.166-0.433-0.446
	c-0.014-0.321-0.507-0.264-0.494,0.054c0.021,0.459,0.247,0.934,0.773,0.921c0.492-0.013,0.935-0.386,1.189-0.781
	C88.017,161.763,87.631,161.449,87.458,161.719z"/>
<path fill="#FFD594" d="M84.8,166.09c-0.14,0.187-0.312,0.38-0.557,0.408c-0.214,0.025-0.301-0.263-0.333-0.419
	c-0.062-0.311-0.556-0.261-0.492,0.055c0.079,0.404,0.278,0.777,0.717,0.854c0.428,0.077,0.818-0.275,1.051-0.587
	C85.379,166.146,84.992,165.833,84.8,166.09z"/>
<path fill="#FFD594" d="M94.675,155.574c-0.2,0.293-0.699,0.747-0.821,0.158c-0.064-0.312-0.559-0.26-0.494,0.054
	c0.076,0.365,0.274,0.734,0.696,0.74c0.424,0.009,0.78-0.313,1.007-0.641C95.241,155.622,94.854,155.31,94.675,155.574z"/>
<path fill="#FFD594" d="M92.852,159.674c-0.107,0.096-0.249,0.236-0.406,0.225c-0.138-0.011-0.2-0.229-0.237-0.33
	c-0.106-0.303-0.57-0.122-0.463,0.177c0.098,0.277,0.269,0.565,0.577,0.634c0.313,0.068,0.596-0.102,0.82-0.303
	C93.379,159.863,93.089,159.461,92.852,159.674z"/>
<path fill="#FFD594" d="M99.423,151.247c-0.158,0.131-0.353,0.275-0.571,0.247c-0.183-0.023-0.07-0.334-0.035-0.425
	c0.117-0.297-0.339-0.494-0.454-0.197c-0.133,0.34-0.183,0.803,0.179,1.021c0.392,0.236,0.856,0.019,1.173-0.243
	C99.961,151.448,99.671,151.044,99.423,151.247z"/>
<path fill="#FFD594" d="M103.836,147.332c-0.116,0.087-0.281,0.229-0.389,0.072c-0.104-0.153-0.051-0.42-0.018-0.584
	c0.061-0.315-0.432-0.388-0.491-0.072c-0.068,0.35-0.077,0.811,0.213,1.073c0.301,0.271,0.688,0.129,0.975-0.087
	C104.383,147.54,104.091,147.138,103.836,147.332z"/>
<path fill="#FFD594" d="M103.813,143.23c-0.094,0.073-0.413,0.34-0.518,0.142c-0.122-0.225-0.018-0.524,0.085-0.734
	c0.139-0.29-0.316-0.485-0.456-0.197c-0.186,0.386-0.266,0.869-0.016,1.246c0.297,0.444,0.87,0.199,1.194-0.056
	C104.358,143.436,104.066,143.034,103.813,143.23z"/>
<path fill="#FFD594" d="M107.546,139.878c-0.123,0.066-0.332,0.192-0.473,0.095c-0.129-0.093-0.106-0.35-0.097-0.482
	c0.025-0.315-0.466-0.393-0.49-0.072c-0.029,0.348,0.008,0.694,0.277,0.941c0.268,0.246,0.684,0.128,0.963-0.018
	C108.005,140.193,107.828,139.729,107.546,139.878z"/>
<path fill="#FFD594" d="M105.806,135.804c-0.194,0.176-0.495,0.397-0.683,0.109c-0.158-0.242,0.005-0.556,0.181-0.728
	c0.229-0.223-0.161-0.531-0.386-0.31c-0.368,0.357-0.458,0.93-0.174,1.362c0.336,0.511,0.982,0.305,1.353-0.031
	C106.332,135.994,106.042,135.59,105.806,135.804z"/>
<path fill="#FFD594" d="M108.968,132.491c-0.263,0.073-0.514,0.051-0.585-0.25c-0.072-0.306-0.568-0.254-0.493,0.056
	c0.151,0.635,0.657,0.823,1.256,0.659C109.455,132.869,109.272,132.407,108.968,132.491z"/>
<path fill="#FFD594" d="M104.054,130.302c-0.415,0.158-0.705,0.083-0.86-0.351c-0.106-0.301-0.57-0.124-0.462,0.177
	c0.246,0.69,0.839,0.888,1.502,0.637C104.532,130.65,104.353,130.188,104.054,130.302z"/>
<path fill="#FFD594" d="M106.013,126.609c-0.126,0.062-0.253,0.124-0.393,0.143c-0.056,0.007-0.04-0.194-0.039-0.259
	c0.003-0.319-0.49-0.262-0.495,0.054c-0.002,0.24,0.046,0.539,0.292,0.649c0.271,0.122,0.566-0.005,0.813-0.123
	C106.478,126.935,106.3,126.472,106.013,126.609z"/>
<path fill="#FFD594" d="M100.378,124.38c-0.184,0.159-0.507,0.406-0.753,0.224c-0.244-0.182-0.042-0.593,0.083-0.775
	c0.181-0.261-0.205-0.572-0.388-0.309c-0.273,0.397-0.465,0.993-0.083,1.396c0.417,0.436,1.036,0.209,1.433-0.135
	C100.91,124.572,100.62,124.17,100.378,124.38z"/>
<path fill="#FFD594" d="M104.195,122.657c-0.075,0.024-0.24,0.087-0.316,0.037c-0.074-0.048-0.027-0.26-0.019-0.326
	c0.04-0.316-0.45-0.39-0.491-0.07c-0.034,0.257-0.042,0.566,0.17,0.757c0.234,0.21,0.559,0.147,0.832,0.066
	C104.68,123.03,104.499,122.567,104.195,122.657z"/>
<path fill="#FFD594" d="M86.722,113.886c-0.192,0.161-0.536,0.386-0.787,0.211c-0.242-0.17,0.026-0.53,0.151-0.676
	c0.211-0.244-0.178-0.552-0.387-0.311c-0.337,0.39-0.518,0.945-0.105,1.348c0.401,0.392,1.058,0.129,1.418-0.17
	C87.258,114.085,86.968,113.683,86.722,113.886z"/>
<path fill="#FFD594" d="M81.361,113.537c-0.157,0.059-0.418,0.162-0.575,0.05c-0.124-0.089,0.155-0.371,0.203-0.421
	c0.222-0.232-0.167-0.541-0.387-0.311c-0.264,0.273-0.453,0.655-0.229,1.012c0.24,0.383,0.826,0.263,1.166,0.133
	C81.838,113.886,81.659,113.423,81.361,113.537z"/>
<path fill="#FFD594" d="M92.323,118.588c-0.198,0.142-0.441,0.286-0.696,0.245c-0.205-0.031-0.07-0.371-0.029-0.475
	c0.117-0.299-0.338-0.496-0.457-0.197c-0.159,0.404-0.189,0.871,0.239,1.107c0.39,0.216,0.92-0.052,1.232-0.28
	C92.873,118.8,92.582,118.397,92.323,118.588z"/>
<path fill="#FFD594" d="M99.3,119.92c-0.35,0.12-0.766,0.187-1.125,0.064c-0.425-0.146-0.175-0.563,0.01-0.815
	c0.19-0.259-0.197-0.57-0.388-0.313c-0.324,0.445-0.585,1.106-0.02,1.48c0.485,0.323,1.183,0.224,1.702,0.047
	C99.782,120.278,99.602,119.816,99.3,119.92z"/>
<g>
	
		<path fill="#F26B66" stroke="#67171F" stroke-width="2.8859" stroke-linecap="round" stroke-linejoin="round" stroke-miterlimit="10" d="
		M11.703,70.169c0,0-0.465,13.031,6.36,17.685s15.356,3.102,22.028-7.137c6.67-10.237,11.643-28.313,29.939-39.09
		c19.183-11.299,39.247-12.411,58.638-3.258c19.391,9.153,30.561,26.216,34.747,38.781c4.19,12.565,5.275,18.616,10.085,18.305
		c4.808-0.309,5.584-4.188,5.584-4.188s-1.241-4.965,0.466-5.585c1.706-0.62,1.706,3.412,1.706,3.412s1.085-2.947,3.102-2.481
		c2.018,0.466-0.466,4.031-0.466,4.031s2.637-1.705,2.794,0c0.154,1.708-5.895,2.175-5.895,2.175s-2.172,5.43-5.74,6.824
		c-3.568,1.396-6.671,0-6.671,0s-0.684,6.558-2.063,15.938c-1.379,9.38-1.472,23.634,0.92,27.312
		c2.391,3.679,3.954,0.645,5.427,1.195c1.47,0.553-0.185,3.22-0.185,3.22s1.286,0,1.38,1.473c0.092,1.47-1.748,2.391-1.748,2.391
		s1.472,1.193-0.458,3.217c-1.934,2.024-3.771,5.887-12.784,4.507c-9.013-1.38-13.06-8.92-13.06-8.92s1.289,14.806,0.094,16.093
		c-1.195,1.288-2.668-0.184-2.668-0.184s-0.736,1.288-2.113,1.288c-1.381,0-1.75-1.563-1.75-1.563s-1.654,1.287-3.033,1.012
		c-1.379-0.276-2.668,0.184-5.15-6.162c-2.482-6.345-4.966-19.68-4.966-19.68s-11.311,1.563-24.186,1.379
		c-12.875-0.184-21.979-1.287-22.808-0.551c-0.827,0.735-2.848,1.839-3.217,6.437c-0.368,4.599,2.207,11.312,2.667,13.703
		c0.46,2.391-1.472,2.482-2.207,2.299c-0.736-0.185-0.736-0.185-0.736-0.185s0.736,1.38-0.92,2.575
		c-1.656,1.196-3.311-0.275-3.311-0.275s-0.092,1.471-1.562,1.93c-1.472,0.462-5.702-3.493-7.909-9.195s-2.392-8.552-2.392-8.552
		s-1.378,5.241-1.746,10.3c-0.369,5.057-0.186,6.068-1.656,6.437c-1.472,0.369-2.023-1.104-2.023-1.104s0,1.563-1.747,1.747
		s-2.298-1.563-2.298-1.563s-0.001,0.919-1.288,1.012c-1.288,0.091-2.758,0.275-4.782-10.024c-2.023-10.299-2.3-35.036-2.023-40.647
		c0.277-5.609,0.459-12.047,0.459-12.047s-11.128,2.943-20.139-0.92C13.385,99.67,9.707,94.43,7.592,84.956
		c-2.115-9.471-0.185-14.254-1.196-15.357c-1.011-1.103-2.39-1.379-2.023-3.125c0.367-1.749,5.242-1.657,7.357-1.288
		c2.115,0.368,1.931,0.92,1.748,2.115c-0.186,1.195-1.288,1.288-1.656,1.839C11.454,69.691,11.703,70.169,11.703,70.169z"/>
	<path fill="#FFF2DF" d="M66.426,69.684c-0.161-0.082-0.328-0.158-0.506-0.229c-1.786-0.705-3.526,0.313-4.387,1.874
		c-0.042,0.079-0.045,0.154-0.023,0.22c-0.005,0.014-0.013,0.028-0.02,0.041c-1.372,1.977,0.462,5.071,2.848,4.774
		c0.128,0.012,0.249,0.027,0.389,0.03c2.203,0.031,3.746-1.587,3.815-3.733C68.591,71.21,67.647,70.149,66.426,69.684z
		 M64.675,73.47c-0.016-0.121-0.032-0.239-0.047-0.362c-0.024-0.192-0.202-0.234-0.349-0.179c-0.087-0.083-0.224-0.085-0.329-0.022
		c-0.01-0.033-0.019-0.066-0.03-0.101c0.458-0.114,0.521-0.451,0.381-0.738c0.108-0.408-0.242-0.894-0.698-1.031
		c-0.034-0.01-0.07-0.01-0.108-0.007c-0.086-0.079-0.181-0.145-0.295-0.172c-0.015-0.065-0.034-0.128-0.054-0.188
		c0.071,0.033,0.153,0.041,0.234-0.005c0.695-0.394,1.827-0.14,2.426,0.484C66.018,72.222,65.467,72.925,64.675,73.47z"/>
	<path fill="#FFF2DF" d="M63.317,70.271c-0.298,0.032-0.554,0.219-0.556,0.545c-0.004,0.275,0.246,0.592,0.545,0.559
		c0.408-0.046,0.747,0.771,0.429,1.048c-0.537,0.47,0.229,1.265,0.762,0.798C65.496,72.351,64.716,70.116,63.317,70.271z"/>
	<path fill="#4D2E57" d="M65.308,69.35c-0.126-0.071-0.245-0.057-0.346-0.005c-0.543-0.128-1.131-0.11-1.641,0.032
		c-1.209,0.34-2.075,1.636-1.874,2.885c0.189,1.163,1.173,1.968,2.303,2.157c0.69,0.114,1.332-0.052,1.819-0.439
		c0.82-0.223,1.479-1.07,1.598-1.92C67.348,70.772,66.328,69.919,65.308,69.35z M62.77,72.667c-0.036-0.083-0.075-0.161-0.098-0.255
		c-0.088-0.361-0.046-0.801,0.101-1.194c0.204-0.177,0.47-0.32,0.734-0.427c0.854,0.062,1.214,0.869,1.058,1.538
		C64.146,72.982,63.282,73.146,62.77,72.667z"/>
	<path fill="#4D2E57" d="M68.534,71.17c-0.281-0.797-0.864-1.404-1.578-1.813c-1.559-0.946-3.54-0.771-4.866,0.267
		c-0.024,0.01-0.047,0.019-0.069,0.028c-0.087,0.031-0.134,0.098-0.161,0.169c-0.777,0.712-1.277,1.753-1.218,3.071
		c0.002,0.058,0.022,0.102,0.049,0.142c0.008,0.658,0.179,1.333,0.533,1.979c1.114,2.035,3.943,2.366,5.769,1.166
		C68.592,75.131,69.152,72.921,68.534,71.17z M67.047,75.43c-1.405,1.397-3.824,1.108-5.077-0.305
		c-1.404-1.586-0.738-3.994,0.883-5.091c0.053-0.035,0.082-0.081,0.102-0.129c1.279-0.408,2.644-0.632,3.718-0.071
		c0.311,0.188,0.603,0.426,0.864,0.718c0.143,0.178,0.276,0.377,0.395,0.606C68.658,72.566,68.113,74.372,67.047,75.43z"/>
	<path fill="#4D2E57" d="M70.366,65.741c-1.679-2.472-4.306-3.127-6.811-1.395c-0.29,0.201-0.025,0.685,0.268,0.482
		c2.234-1.547,4.543-1.053,6.062,1.18C70.082,66.301,70.566,66.037,70.366,65.741z"/>
	<path fill="#4D2E57" d="M35.743,87.766c-0.161-0.319-0.642-0.05-0.483,0.267c0.921,1.829,1.153,4.061,0.667,6.044
		c-0.085,0.345,0.445,0.498,0.53,0.151C36.979,92.1,36.73,89.726,35.743,87.766z"/>
	<path fill="#4D2E57" d="M30.511,90.347c-0.253-0.251-0.652,0.13-0.398,0.381c2.346,2.328,1,6.611,0.164,9.344
		c-0.105,0.341,0.426,0.49,0.529,0.151C31.704,97.295,33.025,92.842,30.511,90.347z"/>
	<path fill="#4D2E57" d="M26.09,90.772c-0.206-0.285-0.69-0.021-0.483,0.268c1.816,2.544-0.278,6.535-1.511,8.919
		c-0.164,0.315,0.307,0.603,0.471,0.288C25.895,97.679,28.046,93.515,26.09,90.772z"/>
	<path fill="#4D2E57" d="M20.526,90.015c-0.293,2.527-1.268,4.598-3.041,6.424c-0.248,0.255,0.134,0.654,0.382,0.399
		c1.881-1.937,2.901-4.139,3.211-6.817C21.119,89.667,20.567,89.664,20.526,90.015z"/>
	<path fill="#4D2E57" d="M15.88,87.516c-0.729,2.122-1.705,3.813-3.612,5.071c-0.238,0.158-0.024,0.549,0.215,0.391
		c2.011-1.325,3.055-3.101,3.825-5.339C16.402,87.366,15.973,87.244,15.88,87.516z"/>
	<path fill="#4D2E57" d="M12.953,82.435c-0.94,1.671-2.122,3.01-4.018,3.556c-0.34,0.098-0.207,0.634,0.137,0.534
		c2.032-0.584,3.34-2.002,4.351-3.801C13.598,82.413,13.127,82.126,12.953,82.435z"/>
	<path fill="#E31D42" d="M81.606,89.782c-0.065-1.09-1.238-1.704-2.275-1.922c0.724-0.389,1.322-0.807,1.208-1.821
		c-0.127-1.141-1.149-1.707-2.184-1.842c0.392-0.763,0.397-1.597-0.164-2.337c-0.331-0.44-0.856-0.685-1.389-0.753
		c-0.479-0.063-0.971,0.151-1.432,0.333c0.16-3.202-4.241-3.718-5.767-1.118c-0.577-0.974-1.334-1.83-2.6-1.597
		c-1.063,0.193-1.417,1.465-1.521,2.451c-0.763-0.604-1.711-0.937-2.601-0.312c-0.683,0.479-0.664,1.232-0.52,1.957
		c-0.781-0.344-1.75-0.302-2.307,0.401c-0.455,0.576-0.339,1.627,0.128,2.263c-1.054,0.219-2.06,0.849-2.449,1.899
		c-0.519,1.396,0.102,2.524,1.136,3.385c-0.976,0.667-1.394,1.817-1.113,2.999c0.299,1.254,1.467,1.832,2.648,1.888
		c-1.671,2.014,1.061,5.157,3.292,3.817c0.101,0.917,0.755,1.616,1.703,1.963c1.248,0.458,2.346-0.157,3.01-1.154
		c0.619,0.822,1.173,1.48,2.399,1.411c0.998-0.056,1.833-0.762,2.119-1.673c0.839,0.642,2.086,0.747,2.979,0.155
		c0.894-0.593,1.078-1.643,0.918-2.629c0.931,0.413,2.115-0.127,2.801-0.978c1.036-1.288,0.797-2.663-0.225-3.57
		C80.729,92.551,81.693,91.211,81.606,89.782z"/>
	<path fill="#F04E51" d="M73.769,83.906c0.09-0.72-0.239-1.473-1.146-1.721c-3.88-1.053-7.401,0.859-9.553,4.093
		c-1.731,2.604-2.757,7.422-0.035,9.731c1.008,0.854,2.323,0.287,2.774-0.593c0-0.001,0.001-0.003,0.002-0.004l0,0
		c0.17-0.248,0.262-0.569,0.232-0.968c-0.158-2.155,0.259-4.08,1.486-5.875c1.447-2.119,3.948-1.734,5.717-3.22
		C73.76,84.918,73.887,84.39,73.769,83.906z"/>
	<path fill="#FFF2DF" d="M70.553,83.694c-0.344-0.621-1.214-1.035-1.919-0.808c-0.322-0.032-0.655,0.028-0.957,0.192
		c-0.727,0.398-1.379,0.707-1.859,1.428c-0.733,1.1,0.193,2.453,1.396,2.519c0.995,0.057,1.917-0.526,2.692-1.081
		C70.642,85.42,71.026,84.549,70.553,83.694z"/>
	
		<path fill="#D82F58" stroke="#75263B" stroke-width="2.8859" stroke-linecap="round" stroke-linejoin="round" stroke-miterlimit="10" d="
		M80.087,46.941c0,0,5.646,8.313,6.056,22.683c0.411,14.37-0.718,24.736-0.718,24.736s2.566,0.616,4.825,0.924
		c2.256,0.309,17.449,2.259,27.097-2.771c9.648-5.03,16.217-16.012,15.5-29.048c-0.72-13.037-9.854-20.118-18.889-22.89
		c-9.03-2.771-17.858-1.745-23.812,0.309S80.087,46.941,80.087,46.941z"/>
	<path fill="#781338" d="M42.184,104.02c0,0,4.328-0.833,7.115-4.327c2.789-3.493,3.204-6.857,3.204-6.857s2.084,6.857-1.249,10.575
		c-3.333,3.718-7.853,2.051-8.558,1.539C41.992,104.435,42.184,104.02,42.184,104.02z"/>
	<g>
		<path fill="#991F4F" d="M129.582,68.945c0.144-0.297,0.277-0.596,0.389-0.894c0.501-1.36,0.366-2.567-0.178-3.526
			c2.215-2.125,2.297-6.729-1.256-7.114c0.035-0.382,0.047-0.762,0.008-1.137c-0.082-0.775-0.339-1.363-0.708-1.808
			c0.887-2.651,0.637-5.76-2.742-6.024c-0.056-0.004-0.097,0.01-0.144,0.019c-0.067-0.204-0.149-0.404-0.252-0.605
			c-0.959-1.871-3.107-1.607-4.864-1.154c0.132-0.88,0.061-1.771-0.274-2.554c-0.922-2.171-3.75-1.635-5.592-1.053
			c0.067-0.819-0.23-1.625-1.084-2.268c-0.57-0.429-1.139,0.519-0.575,0.943c1.712,1.287-0.54,3.612-1.968,4.103
			c-1.633-2.784-5.193-2.355-7.975-1.925c-0.412-1.183-1.462-2.018-2.553-2.541c-1.732-0.83-3.637-0.187-5.361,0.301
			c-0.071,0.021-0.127,0.054-0.177,0.09c-0.422-0.536-0.968-0.998-1.649-1.333c-0.635-0.313-1.213,0.628-0.576,0.941
			c2.657,1.305,2.948,5.156,0.681,6.746c-0.495,0.109-0.984,0.274-1.459,0.505c-0.059,0.029-0.099,0.068-0.139,0.107
			c-0.711-0.418-1.515-0.636-2.375-0.731c1.437-1.829-0.252-5.091-2.584-5.45c-0.693-0.109-1.007,0.952-0.304,1.061
			c1.68,0.259,3.46,3.091,1.481,4.14c-0.082,0.045-0.143,0.102-0.188,0.164c-0.544-0.008-1.096-0.005-1.644-0.013
			c-0.253-0.004-0.416,0.136-0.489,0.317c-0.917-0.74-2.116-1.17-3.284-0.953c-0.7,0.129-0.424,1.199,0.273,1.07
			c2.202-0.41,5.093,2.81,2.428,4.211c-0.089,0.046-0.152,0.108-0.197,0.175c-0.59,0.148-0.576,1.116,0.096,1.077
			c2.064-0.121,3.752,0.938,4.335,2.958c0.714,2.468-1.456,4.164-3.363,5.156c-0.51,0.264-0.257,0.93,0.188,1.012
			c1.753,0.78,3.835,0.951,4.926,2.73c1.474,2.412-1.691,4.798-3.676,5.208c-0.697,0.143-0.424,1.212,0.272,1.068
			c0.089-0.018,0.176-0.042,0.263-0.063c1.626,0.435,3.027,1.396,3.83,2.901c1.45,2.716-2.228,4.08-4.219,4.444
			c-0.65,0.117-0.455,1.034,0.133,1.066c0.055,0.058,0.125,0.108,0.215,0.143c1.572,0.602,2.916,1.803,2.995,3.576
			c0.091,1.963-1.843,2.92-3.489,3.202c-0.169,0.027-0.278,0.113-0.34,0.223c-0.505,0.14-0.451,1.026,0.181,1.08
			c1.409,0.122,3.563,1.204,3.738,2.784c0.214,1.94-2.382,2.344-3.726,1.87c-0.672-0.237-0.971,0.824-0.304,1.061
			c1.87,0.659,4.857-0.045,5.109-2.381c0.002-0.03,0.003-0.059,0.003-0.087c1.965,0.399,3.739,1.368,3.565,3.675
			c-0.054,0.709,1.05,0.718,1.103,0.011c0.004-0.049,0.003-0.095,0.006-0.141c0.051,0.016,0.101,0.033,0.164,0.034
			c2.253,0.013,5.839-1.646,5.622-4.345c-0.002-0.041-0.014-0.08-0.021-0.121c2.327-0.248,7.478,0.878,6.872,3.98
			c-0.137,0.692,0.924,1.001,1.061,0.304c0.074-0.378,0.086-0.731,0.055-1.065c0.043,0.007,0.082,0.02,0.136,0.013
			c2.647-0.294,6.253-1.363,7.754-3.774c0.432-0.694,0.479-1.257,0.284-1.713c2.422-0.859,5.582-1.814,5.908-4.799
			c0.066-0.596-0.089-1.113-0.378-1.556c2.343-0.926,5.768-2.533,5.717-5.312c-0.007-0.418-0.069-0.8-0.174-1.147
			c0.003-0.002,0.006-0.002,0.009-0.005C131.101,74.244,132.785,69.724,129.582,68.945z M129.111,63.645
			c-0.789-0.774-1.908-1.274-3.148-1.393c1.143-0.938,1.996-2.306,2.382-3.755C131.011,58.722,130.564,62.109,129.111,63.645z
			 M96.617,59.286c1.512,0.11,3.596,0.286,5.157,1.033c0.046,0.344,0.373,0.637,0.732,0.438c0.842,0.595,1.412,1.44,1.428,2.673
			c0.045,3.064-4.335,4.132-6.74,4.714c-0.109-0.002-0.209,0.021-0.292,0.07c-0.524-1.467-1.84-2.396-3.311-2.697
			C95.634,64.235,96.846,61.759,96.617,59.286z M99.141,50.602c0.961-0.108,1.914-0.273,2.879-0.348
			c1.717-0.136,3.168,0.918,4.239,2.124c0.07,0.081,0.135,0.158,0.196,0.238c-0.012,0.239,0.15,0.493,0.396,0.582
			c1.56,2.793-2.101,4.82-4.349,6.253c-1.496-0.73-3.391-1.034-4.932-1.187C99.502,56.202,100.965,53.151,99.141,50.602z
			 M108.01,53.32c1.929,0.004,5.277-0.018,5.504,2.516c0.212,2.368-3.074,4.12-4.814,4.944c-0.146,0.07-0.225,0.175-0.262,0.29
			c-0.997-0.857-2.344-1.379-3.834-1.645C106.832,57.991,108.893,56.311,108.01,53.32z M117.546,51.382
			c1.411,0.12,2.867,1.015,3.645,2.163c1.33,1.964-0.286,4.011-1.744,5.425c-0.732-1.492-2.222-2.411-3.923-2.635
			C116.934,55.113,117.713,53.235,117.546,51.382z M122.699,54.606c2.15-0.486,4.762-0.512,4.786,2.425
			c0.015,1.841-1.301,3.9-2.875,4.822c-0.776-1.41-2.315-2.235-3.958-2.541C121.904,57.985,122.902,56.408,122.699,54.606z
			 M110.148,65.523c0.008-0.146,0.009-0.287,0.01-0.428c2.669,0.653,5.52,2.364,3.768,5.524c-1.207,2.175-3.848,3.182-6.094,3.855
			c-0.095-0.23-0.197-0.459-0.314-0.676c-0.494-0.934-1.216-1.356-2.012-1.727C108.299,71.08,109.962,68.625,110.148,65.523z
			 M103.98,71.337c-0.009-0.005-0.018-0.01-0.025-0.017c-0.191-0.11-0.373-0.09-0.521-0.007c-0.678-1.393-2.296-2.199-3.911-2.675
			c2.792-0.89,5.555-2.403,5.51-5.643c-0.017-1.091-0.444-1.925-1.11-2.571c2.998,0.388,5.086,1.739,5.122,5.089
			C109.078,68.575,106.875,70.79,103.98,71.337z M115.532,69.573c0.153-0.585,0.163-1.117,0.067-1.604
			c2.391,0.684,4.666,2.731,3.461,5.415c-1.07,2.38-4.475,3.358-6.826,3.443c-0.031-0.044-0.058-0.087-0.089-0.13
			c-0.653-0.861-1.821-1.192-2.878-1.536C112.021,74.175,114.74,72.563,115.532,69.573z M116.383,67.05
			c2.228-1.303,3.723-3.617,3.529-6.312c-0.01-0.147-0.034-0.286-0.059-0.425c5.586,0.518,5.099,7.14,0.378,8.984
			c-0.22,0.085-0.329,0.265-0.361,0.453C119.15,68.504,117.859,67.558,116.383,67.05z M118.768,60.477
			c0.607,2.631-1.513,5.146-3.82,6.067c-1.089-1.428-3.212-2.251-4.881-2.598c-0.153-0.854-0.48-1.573-0.947-2.17
			c0.039-0.009,0.075-0.011,0.114-0.028c1.618-0.766,4.278-2.349,5.146-4.365c0.012,0,0.018,0.005,0.028,0.004
			C116.603,57.294,118.261,58.282,118.768,60.477z M97.128,69.278c0.022-0.002,0.043,0.005,0.067-0.002l0.099-0.024
			c2.259,0.379,5.108,1.001,5.37,3.736c0.249,2.597-2.665,3.976-4.894,4.536c-0.161,0.006-0.324,0.015-0.487,0.032
			c-0.013,0.002-0.02,0.009-0.03,0.011c-0.637-1.882-2.62-2.985-4.584-3.336C95.12,73.648,97.355,71.919,97.128,69.278z
			 M97.461,79.031c0.004-0.104-0.002-0.205-0.006-0.306c0.141-0.028,0.282-0.059,0.425-0.091c2.161,0.021,4.042,1.512,3.671,3.938
			c-0.33,2.136-3.152,3.124-4.995,3.19c-0.122,0.003-0.214,0.048-0.295,0.104c-0.357-0.828-1.027-1.536-1.845-2.004
			C96.13,82.844,97.385,81.189,97.461,79.031z M99.984,77.938c2.02-0.916,3.643-2.489,3.782-4.938
			c0.013-0.187,0.005-0.363-0.011-0.536c0.008,0.001,0.016,0.001,0.023,0.001c0.574,0.271,1.177,0.448,1.747,0.747
			c1.091,0.571,1.556,2.093,1.646,3.218c0.205,2.542-2.172,4.001-4.467,3.816c-0.152-0.087-0.302-0.094-0.43-0.047
			C101.816,79.172,101.008,78.382,99.984,77.938z M108.217,77.409c0.088-0.485,0.089-0.973,0.023-1.45
			c1.543,0.604,3.041,0.894,3.748,2.688c0.98,2.487-1.75,6.439-4.611,5.758c-0.09-0.021-0.172-0.021-0.248-0.005
			c-0.442-1.266-1.635-2.314-2.828-3.141C106.242,80.876,107.837,79.497,108.217,77.409z M113.216,80.695
			c0.035-0.286,0.046-0.565,0.04-0.837c2.24,0.292,4.37,1.91,3.084,4.425c-0.625,1.218-1.893,2.146-3.22,2.713
			c-0.003,0-0.005,0.001-0.007,0.001c-0.113,0.011-0.201,0.055-0.279,0.111c-0.377,0.145-0.758,0.267-1.126,0.351
			c-0.701-1.203-1.925-1.648-3.218-1.953C110.786,85.183,112.936,82.945,113.216,80.695z M113.111,78.733
			c-0.07-0.286-0.154-0.569-0.271-0.843c2.824-0.256,6.527-1.607,7.416-4.504c0.119-0.381,0.184-0.753,0.207-1.111
			c3.068,0.151,3.14,3.633,1.916,5.635c-0.792,1.294-2.125,2.267-3.564,2.819c-0.08,0.022-0.156,0.049-0.232,0.078
			c-0.393,0.138-0.787,0.252-1.182,0.325c-0.002,0-0.004,0.002-0.007,0.002C116.619,79.676,114.928,78.905,113.111,78.733z
			 M120.445,71.167c-0.018-0.001-0.028,0.007-0.043,0.007c-0.053-0.276-0.127-0.545-0.229-0.803c0.096,0.034,0.202,0.046,0.33-0.006
			c2.796-1.092,4.832-3.636,4.626-6.741c-0.007-0.101-0.021-0.196-0.032-0.293c7.061-0.363,3.283,9.149-1.845,9.211
			C122.564,71.752,121.592,71.216,120.445,71.167z M125.168,49.558c2.307,0.235,2.256,2.388,1.743,4.175
			c-0.864-0.437-1.959-0.521-3.026-0.427C124.709,52.192,125.248,50.886,125.168,49.558z M119.52,47.928
			c1.242-0.376,2.825-0.904,3.895,0.038c1.698,1.5,0.174,4.13-1.04,5.421c-0.72-1.628-2.707-2.823-4.466-3.077
			C118.614,49.702,119.175,48.854,119.52,47.928z M113.607,44.326c0.065,0.005,0.137,0,0.215-0.026
			c1.359-0.467,3.379-1.195,4.542,0.011c1.278,1.325-0.078,4.405-1.313,5.288c-0.002,0.001-0.002,0.001-0.003,0.001
			c-1.06-2.122-3.493-2.607-5.723-2.965C112.27,46.136,113.135,45.279,113.607,44.326z M110.838,47.661
			c1.936,0.277,3.787,0.462,5.064,2.223c1.318,1.816,0.365,4.43-1.273,5.751c-0.018-0.125-0.033-0.249-0.068-0.375
			c-0.723-2.596-3.523-2.975-5.902-3.032C109.906,51.081,110.864,49.312,110.838,47.661z M102.588,45.023
			c2.129-0.33,5.21-0.866,6.667,1.145c1.318,1.814-0.268,4.581-1.964,5.727c-0.664-0.891-1.615-1.598-2.537-2.138
			c-1.193-0.695-2.516-0.658-3.833-0.496C102.039,48.127,102.728,46.626,102.588,45.023z M94.854,42.74
			c2.363-0.659,4.994-1.144,6.406,1.409c1.234,2.232-1,4.658-2.893,5.574c-1.113-1.062-2.53-1.652-4.008-1.716
			C95.454,46.513,95.638,44.427,94.854,42.74z M93.087,49.187c1.807-0.363,3.63,0.289,4.928,1.732
			c2.069,2.303,0.05,5.419-1.772,7.113c0,0,0,0.002,0,0.003c-0.882-1.673-3.119-2.544-5.092-2.603
			c1.432-1.196,2.65-2.913,1.771-4.705c-0.21-0.433-0.456-0.79-0.722-1.097C92.522,49.513,92.813,49.358,93.087,49.187z
			 M85.918,52.856c1.082-1.122,0.812-2.645-0.11-3.823c1.64-0.006,3.313-0.239,4.794,0.623c2.982,1.738,0.726,4.486-1.259,5.717
			C88.666,54.056,87.363,53.176,85.918,52.856z M86.853,62.33c2-1.291,3.368-3.108,2.919-5.684c0.031-0.002,0.058,0.005,0.089-0.003
			c2.181-0.509,5.454,0.554,5.696,3.066c0.24,2.493-1.717,4.959-4.057,5.497C90.708,63.581,88.578,62.98,86.853,62.33z
			 M88.859,71.295c1.687-0.914,2.923-2.547,2.958-4.578c0.002-0.047-0.004-0.092-0.004-0.137c1.906-0.382,3.664,0.595,4.187,2.508
			c0.679,2.472-2.277,3.895-4.232,4.203c-0.08,0.013-0.146,0.041-0.2,0.075C90.879,72.474,89.888,71.767,88.859,71.295z
			 M88.682,79.938c2.072-0.663,4.049-1.991,3.79-4.423c-0.009-0.074-0.029-0.145-0.042-0.217c2.174,0.334,4,1.669,3.914,4.082
			c-0.088,2.538-2.749,4.023-4.984,4.438C91.32,82.134,90.105,80.777,88.682,79.938z M91.292,90.649
			c-0.389-1.248-1.558-2.205-2.84-2.746c1.342-0.536,2.395-1.503,2.771-2.951c0.65-0.084,1.29-0.246,1.903-0.475
			c0.026,0.013,0.045,0.033,0.077,0.043c1.864,0.585,2.763,2.398,1.764,4.149C94.254,89.919,92.671,90.459,91.292,90.649z
			 M96.268,94.257c-0.092,0-0.17,0.018-0.239,0.05c-0.276-1.49-1.338-2.482-2.7-3.079c1.255-0.496,2.332-1.329,2.918-2.656
			c0.16-0.361,0.243-0.722,0.276-1.075c1.521,0.543,3.068,1.381,3.953,2.774C101.947,92.593,97.965,94.269,96.268,94.257z
			 M101.644,89.193c-0.167,0.033-0.276,0.122-0.339,0.234c-0.81-1.225-2.321-2.109-3.679-2.683c2.323-0.415,4.997-1.881,5.067-4.419
			c0.008-0.29-0.019-0.563-0.056-0.831c1.284,0.802,2.536,1.715,3.307,3.043C107.371,87.001,103.444,88.825,101.644,89.193z
			 M109.82,92.449c-0.078,0.073-0.119,0.153-0.146,0.235c-0.088,0.02-0.176,0.039-0.262,0.065l-0.002,0.001
			c-1.033-1.802-3.688-2.744-5.977-2.939c1.658-0.646,3.293-1.816,3.742-3.468c1.135,0.222,2.332,0.361,3.205,1.179
			C111.92,88.962,111.146,91.228,109.82,92.449z M116.115,90.574c-1.32,1.237-3.339,1.974-5.183,2.308
			c1.131-1.229,1.634-2.786,1.204-4.384c0.395-0.099,0.813-0.243,1.236-0.418C115.086,87.996,118.305,88.522,116.115,90.574z
			 M122.475,84.824c-0.992,1.756-3.277,2.218-5.002,2.844c-0.093,0.034-0.162,0.084-0.222,0.144
			c-0.557-0.354-1.313-0.579-2.06-0.707c1.411-0.955,2.558-2.285,2.641-3.84c0.02-0.389-0.006-0.748-0.07-1.083
			c0.543-0.105,1.074-0.268,1.583-0.476C121.149,81.272,123.578,82.872,122.475,84.824z M127.842,77.963
			c-0.892,1.87-3.318,2.783-5.137,3.476c-0.469-0.324-1.025-0.56-1.605-0.698c1.299-0.925,2.339-2.2,2.942-3.702
			c0.386-0.968,0.386-1.996,0.095-2.919C126.315,73.979,129.123,75.274,127.842,77.963z M128.59,74.794
			c-0.672-0.951-1.783-1.498-3.012-1.695c1.396-0.649,2.574-1.816,3.424-3.139C131.563,70.229,129.828,73.567,128.59,74.794z"/>
		<path fill="#991F4F" d="M112.927,40.919c-1.656-0.649-3.388-0.469-5.11-0.251c-0.074,0.01-0.128,0.035-0.182,0.063
			c-0.219-0.45-0.525-0.833-0.908-1.061c-0.154-0.093-0.307-0.102-0.437-0.057c-0.903-0.331-1.901-0.236-2.876-0.016
			c-1.215,0.272-2.746,0.777-3.649,1.656c-0.512,0.498,0.253,1.296,0.762,0.8c1.267-1.234,4.521-2.172,6.017-1.044
			c0.539,0.807,0.619,2.311-0.444,2.439c-0.704,0.083-0.425,1.153,0.273,1.069c1.38-0.167,1.802-1.521,1.583-2.788
			c0.043,0.003,0.086,0.016,0.134,0.009c1.536-0.194,3.06-0.336,4.535,0.24C113.287,42.24,113.584,41.176,112.927,40.919z"/>
		<path fill="#991F4F" d="M99.482,39.474c-0.532-0.466-1.333,0.292-0.798,0.763c0.29,0.257-0.022,0.663-0.228,0.895
			c-0.468,0.532,0.293,1.333,0.762,0.799C99.807,41.262,100.291,40.185,99.482,39.474z"/>
		<path fill="#991F4F" d="M126.269,80.357c-0.585-0.407-1.156,0.538-0.573,0.941c1.146,0.799-1.186,2.499-1.965,2.597
			c-0.705,0.09-0.425,1.158,0.272,1.069C125.852,84.732,128.377,81.823,126.269,80.357z"/>
	</g>
	<path fill="#991F4F" d="M108.555,93.596c-2.318,0.746-5.711,0.769-7.832-0.452c-0.617-0.354-1.191,0.587-0.574,0.941
		c1.185,0.684,2.347,1.039,3.723,1.059c1.592,0.024,3.432,0.012,4.956-0.479C109.501,94.449,109.233,93.377,108.555,93.596z"/>
	
		<path fill="none" stroke="#67171F" stroke-width="2.8859" stroke-linecap="round" stroke-linejoin="round" stroke-miterlimit="10" d="
		M147.68,152.458c0,0-1.229-1.351-3.802-6.255c-2.574-4.904-6.253-14.713-6.253-14.713"/>
	
		<path fill="none" stroke="#67171F" stroke-width="2.8859" stroke-linecap="round" stroke-linejoin="round" stroke-miterlimit="10" d="
		M60.254,154.296c0,0-1.47-6.621-2.697-12.139c-1.227-5.519-2.453-11.648-2.453-11.648"/>
	<path fill="#DC533C" d="M34.344,91.648c-0.055-0.352-0.588-0.213-0.535,0.136c0.124,0.801,0.129,1.605,0.129,2.412
		c0,0.356,0.553,0.361,0.553,0.007C34.491,93.347,34.475,92.496,34.344,91.648z"/>
	<path fill="#DB3B39" d="M79.959,108.484c-0.494,0.458-1.067,0.436-1.665,0.21c-0.334-0.126-0.483,0.406-0.153,0.53
		c0.784,0.295,1.569,0.246,2.198-0.343C80.601,108.64,80.219,108.24,79.959,108.484z"/>
	<path fill="#DB3B39" d="M89.155,100.814c-0.173,0.295-0.364,0.586-0.66,0.771c-0.354,0.227-0.712-0.021-0.973-0.267
		c-0.258-0.244-0.659,0.138-0.399,0.382c0.376,0.354,0.79,0.594,1.319,0.498c0.542-0.096,0.927-0.661,1.186-1.097
		C89.809,100.796,89.337,100.508,89.155,100.814z"/>
	<path fill="#DB3B39" d="M63.462,124.166c-0.427,0.311-0.918,0.56-1.446,0.628c-0.052-0.288-0.037-0.563,0.052-0.86
		c0.102-0.343-0.429-0.493-0.53-0.151c-0.139,0.463-0.142,0.919-0.002,1.385c0.034,0.114,0.137,0.211,0.264,0.207
		c0.704-0.02,1.366-0.316,1.93-0.724C64.014,124.444,63.751,123.959,63.462,124.166z"/>
	<path fill="#DB3B39" d="M92.472,110.888c-0.019,0.452-0.348,0.958-0.65,1.274c-0.246,0.257,0.135,0.656,0.381,0.399
		c0.41-0.43,0.795-1.062,0.821-1.669C93.04,110.538,92.489,110.533,92.472,110.888z"/>
	<path fill="#DB3B39" d="M75.004,119.599c-0.18,0.238-0.434,0.29-0.669,0.091c-0.273-0.23-0.35-0.544-0.22-0.871
		c0.263-0.661-0.8-0.958-1.062-0.305c-0.318,0.801,0.064,1.636,0.717,2.127c0.75,0.562,1.665,0.214,2.176-0.467
		C76.375,119.604,75.427,119.035,75.004,119.599z"/>
	<path fill="#FFF2DF" d="M65.426,116.221c-0.063-0.637-0.735-1.347-1.429-1.078c-1.095,0.42-0.442,2.633,0.023,3.325
		c0.042,0.063,0.093,0.108,0.148,0.139c0.106,0.36,0.725,0.429,0.796,0.006C65.096,117.808,65.508,117.058,65.426,116.221z"/>
	<path fill="#FFF2DF" d="M71.924,44.602c-0.761-0.412-1.507,0.39-1.939,0.919c-0.466,0.571-0.911,1.203-1.225,1.871
		c-0.268,0.569,0.449,1.085,0.821,0.736c0.036-0.017,0.071-0.036,0.108-0.062c0.717-0.506,1.573-0.749,2.253-1.327
		C72.573,46.205,72.768,45.058,71.924,44.602z"/>
	<path fill="#FFF2DF" d="M76.864,49.096c-0.967-0.229-1.942,0.073-2.913,0.039c-0.459-0.016-0.623,0.436-0.493,0.766
		c-0.027,0.149,0.003,0.31,0.136,0.453c0.792,0.855,3.499,1.886,4.281,0.581C78.374,50.105,77.651,49.284,76.864,49.096z"/>
	<path fill="#FFF2DF" d="M65.549,135.292c-0.128,0.329-0.378,1.179-0.778,1.297c-0.176,0.05-0.633-1.003-0.691-1.137
		c-0.288-0.651-1.251-0.11-0.966,0.534c0.313,0.709,0.808,1.712,1.719,1.699c1.003-0.014,1.485-1.333,1.777-2.089
		C66.866,134.932,65.803,134.634,65.549,135.292z"/>
	<path fill="#FFF2DF" d="M89.424,125.664c-0.314,0.303-0.682,0.63-1.141,0.645c-0.407,0.012-0.623-0.482-0.753-0.787
		c-0.283-0.654-1.246-0.114-0.966,0.532c0.29,0.67,0.815,1.294,1.594,1.349c0.796,0.058,1.48-0.411,2.029-0.939
		C90.701,125.969,89.936,125.172,89.424,125.664z"/>
	<path fill="#FFF2DF" d="M49.697,119.043c-0.347,0.34-0.623,0.476-0.999,0.335v-1.31c0-0.71-1.104-0.724-1.104-0.01v1.503
		c0,0.56,0.392,0.745,0.866,0.924c0.75,0.282,1.475-0.133,1.999-0.643C50.971,119.345,50.206,118.548,49.697,119.043z"/>
	<path fill="#FFF2DF" d="M47.872,136.266v1.104c0,0.71,1.103,0.725,1.103,0.01v-1.103C48.974,135.566,47.872,135.553,47.872,136.266
		z"/>
	<path fill="#FFF2DF" d="M49.457,144.006c-0.3-0.648-1.264-0.107-0.965,0.533c0.167,0.362,0.18,0.737,0.012,1.101
		c-0.128,0.272-0.095,0.589,0.183,0.759c0.235,0.144,0.632,0.091,0.759-0.183C49.792,145.467,49.806,144.757,49.457,144.006z"/>
	<path fill="#FFF2DF" d="M50.078,154.475v1.379c0,0.71,1.104,0.725,1.104,0.011v-1.379
		C51.181,153.774,50.078,153.761,50.078,154.475z"/>
	<path fill="#FFF2DF" d="M59.743,127.789c-0.384,0.18-0.686,0.114-0.99-0.175c-0.517-0.488-1.315,0.273-0.797,0.761
		c0.681,0.646,1.473,0.777,2.32,0.38C60.921,128.449,60.383,127.486,59.743,127.789z"/>
	<path fill="#FFF2DF" d="M94.225,101.235h-1.104c-0.71,0-0.724,1.104-0.01,1.104h1.103
		C94.924,102.339,94.939,101.235,94.225,101.235z"/>
	<path fill="#FFF2DF" d="M77.837,40.692c-0.245,0.225-0.577,0.323-0.827,0.551c-0.528,0.484,0.237,1.278,0.762,0.799
		c0.244-0.223,0.576-0.322,0.829-0.552C79.126,41.009,78.361,40.213,77.837,40.692z"/>
	<path fill="#FFF2DF" d="M80.222,61.645c-0.692-0.553-1.606,0.154-1.78,0.843c-0.217,0.858,0.178,1.701,0.273,2.541
		c0.003,0.024,0.014,0.044,0.019,0.067c-0.294,0.476,0.375,1.103,0.859,0.669c0.548-0.491,0.831-1.348,1.014-2.035
		C80.802,63,80.864,62.159,80.222,61.645z"/>
	<path fill="#FFF2DF" d="M111.099,111.534c-0.048,0.078-0.086,0.139-0.152,0.2c0.018-0.015,0.005-0.011-0.019,0.003
		c-0.009,0-0.021,0-0.04-0.001c0.052,0.001-0.034-0.034-0.043-0.042c-0.082-0.072-0.131-0.156-0.181-0.251
		c-0.335-0.63-1.299-0.095-0.965,0.533c0.237,0.446,0.609,0.787,1.121,0.857c0.529,0.07,0.971-0.296,1.22-0.726
		C112.397,111.491,111.453,110.917,111.099,111.534z"/>
	<path fill="#FFF2DF" d="M98.311,128.572c-0.533,0.581-1.152,0.643-1.772,0.149c-0.557-0.443-1.125,0.505-0.577,0.941
		c0.982,0.782,2.278,0.617,3.11-0.293C99.553,128.847,98.791,128.048,98.311,128.572z"/>
	<path fill="#FFF2DF" d="M92.239,118.673c-0.579-0.146-1.14-0.056-1.588,0.353c-0.527,0.482,0.238,1.277,0.763,0.799
		c0.152-0.141,0.325-0.141,0.521-0.092C92.625,119.907,92.93,118.847,92.239,118.673z"/>
	<path fill="#FFF2DF" d="M100.476,115.141c-0.171,0.159-0.362,0.257-0.588,0.31c-0.693,0.159-0.422,1.229,0.272,1.067
		c0.404-0.094,0.775-0.297,1.078-0.579C101.759,115.451,100.995,114.655,100.476,115.141z"/>
	<path fill="#FFF2DF" d="M111.635,100.516c-0.581,0.258-1.186,0.445-1.813,0.558c-0.699,0.127-0.424,1.194,0.274,1.07
		c0.72-0.13,1.405-0.366,2.071-0.661C112.82,101.191,112.279,100.229,111.635,100.516z"/>
	<path fill="#FFF2DF" d="M119.682,98.073c-0.492,0.327-0.99,0.651-1.59,0.725c-0.297,0.037-0.466,0.408-0.397,0.673
		c0.081,0.316,0.372,0.434,0.67,0.396c0.686-0.084,1.289-0.454,1.853-0.829C120.806,98.647,120.275,97.677,119.682,98.073z"/>
	<path fill="#FFF2DF" d="M121.152,107.224c-0.156-0.285-0.472-0.329-0.75-0.215c-0.546,0.226-1.056,0.504-1.645,0.614
		c-0.699,0.132-0.423,1.201,0.273,1.069c0.676-0.128,1.277-0.459,1.908-0.718C121.217,107.86,121.285,107.465,121.152,107.224z"/>
	<path fill="#FFF2DF" d="M128.119,105.233c-0.695,0.431-1.408,0.641-2.225,0.651c-0.709,0.01-0.726,1.114-0.012,1.105
		c0.999-0.015,1.92-0.263,2.77-0.792C129.256,105.823,128.724,104.857,128.119,105.233z"/>
	<path fill="#FFF2DF" d="M118.318,121.23c-0.068-0.269-0.386-0.501-0.67-0.398c-0.451,0.165-0.921,0.273-1.389,0.39
		c-0.689,0.172-0.418,1.241,0.274,1.068c0.466-0.115,0.935-0.223,1.387-0.389C118.203,121.8,118.4,121.543,118.318,121.23z"/>
	<path fill="#FFF2DF" d="M127.063,118.248c-0.818,0.611-1.708,1.288-2.779,1.236c-0.709-0.035-0.721,1.068-0.01,1.102
		c1.377,0.067,2.498-0.752,3.551-1.539C128.393,118.621,127.623,117.827,127.063,118.248z"/>
	<path fill="#FFF2DF" d="M122.477,133.099c-0.155,0.049-0.305,0.089-0.469,0.094c-0.707,0.024-0.725,1.128-0.01,1.104
		c0.256-0.009,0.508-0.052,0.752-0.128C123.426,133.954,123.157,132.884,122.477,133.099z"/>
	<path fill="#FFF2DF" d="M129.693,130.436c-0.959,0.32-1.958,0.453-2.943,0.665c-0.695,0.149-0.422,1.219,0.273,1.069
		c0.984-0.211,1.984-0.345,2.941-0.666C130.635,131.279,130.369,130.207,129.693,130.436z"/>
	<path fill="#DB3B39" d="M104.601,106.721c-0.237,0.23-0.532,0.421-0.84,0.54c-0.112,0.044-0.261,0.101-0.384,0.081
		c-0.107-0.02-0.063-0.223-0.035-0.347c0.072-0.346-0.457-0.499-0.53-0.15c-0.11,0.523,0.035,1.09,0.678,1.045
		c0.544-0.036,1.109-0.4,1.491-0.771C105.238,106.871,104.855,106.475,104.601,106.721z"/>
	<path fill="#DB3B39" d="M108.923,117.827c-0.337,0.329-0.742,0.587-1.165,0.787c-0.174,0.081-0.41,0.182-0.604,0.137
		c-0.188-0.044-0.035-0.55-0.009-0.648c0.085-0.345-0.445-0.497-0.531-0.151c-0.163,0.651-0.07,1.485,0.805,1.344
		c0.693-0.111,1.395-0.588,1.887-1.068C109.561,117.977,109.178,117.579,108.923,117.827z"/>
	<path fill="#DB3B39" d="M98.591,123.474c-0.102,0.13-0.276,0.291-0.458,0.255c-0.207-0.04-0.27-0.308-0.305-0.478
		c-0.073-0.348-0.609-0.211-0.535,0.137c0.083,0.398,0.307,0.799,0.738,0.882c0.43,0.082,0.781-0.193,1.031-0.508
		C99.285,123.483,98.811,123.199,98.591,123.474z"/>
	<path fill="#DB3B39" d="M80.299,123.791c-0.121,0.145-0.501,0.621-0.728,0.399c-0.228-0.225-0.076-0.713,0.036-0.951
		c0.151-0.319-0.318-0.609-0.471-0.288c-0.24,0.509-0.354,1.155,0.037,1.62c0.46,0.549,1.178,0.01,1.507-0.381
		C80.909,123.92,80.529,123.52,80.299,123.791z"/>
	<path fill="#DB3B39" d="M75.007,132.064c-0.203,0.173-0.489,0.339-0.767,0.294c-0.306-0.048-0.342-0.355-0.332-0.614
		c0.016-0.354-0.536-0.36-0.55-0.005c-0.024,0.504,0.166,0.973,0.674,1.137c0.478,0.153,1.002-0.11,1.356-0.412
		C75.661,132.231,75.277,131.836,75.007,132.064z"/>
	<path fill="#DB3B39" d="M89.525,133.364c-0.698,0.353-1.67,0.359-2.159-0.339c-0.203-0.289-0.688-0.024-0.483,0.267
		c0.67,0.956,1.916,1.058,2.91,0.557C90.111,133.686,89.841,133.204,89.525,133.364z"/>
	<path fill="#DB3B39" d="M99.979,134.973c-0.359,0.289-0.755,0.477-1.205,0.272c-0.352-0.161-0.621-0.496-0.865-0.786
		c-0.229-0.273-0.625,0.108-0.398,0.381c0.355,0.425,0.738,0.812,1.271,0.997c0.574,0.202,1.145-0.119,1.578-0.467
		C100.637,135.147,100.254,134.752,99.979,134.973z"/>
	<path fill="#DB3B39" d="M109.4,126.529c-0.145,0.199-0.33,0.407-0.577,0.471c-0.2,0.051-0.239-0.271-0.253-0.397
		c-0.035-0.351-0.588-0.36-0.551-0.007c0.045,0.462,0.219,0.899,0.729,0.958c0.467,0.056,0.883-0.404,1.124-0.736
		C110.081,126.528,109.608,126.244,109.4,126.529z"/>
	<path fill="#DB3B39" d="M66.912,143.004c-0.244,0.324-0.577,0.481-0.906,0.176c-0.26-0.241-0.659,0.139-0.399,0.382
		c0.61,0.567,1.31,0.35,1.777-0.271C67.598,143.006,67.125,142.722,66.912,143.004z"/>
	<path fill="#DB3B39" d="M67.329,152.116c-0.105,0.12-0.214,0.235-0.334,0.343c-0.047,0.042-0.106,0.087-0.165,0.11
		c-0.003,0.001-0.002,0.004-0.004,0.005c-0.001-0.007-0.002-0.016-0.008-0.029c-0.126-0.327-0.664-0.195-0.534,0.138
		c0.098,0.249,0.262,0.466,0.56,0.442c0.36-0.029,0.646-0.358,0.867-0.609C67.943,152.249,67.564,151.848,67.329,152.116z"/>
	<path fill="#DB3B39" d="M72.13,147.625c-0.094,0.204-0.169,0.265-0.367,0.132c-0.296-0.2-0.581,0.272-0.288,0.471
		c0.43,0.29,0.908,0.157,1.125-0.314C72.748,147.593,72.277,147.303,72.13,147.625z"/>
	<path fill="#DB3B39" d="M68.39,160.474c-0.311-0.334-0.418-0.784-0.306-1.225c0.087-0.343-0.443-0.497-0.531-0.151
		c-0.159,0.63-0.007,1.28,0.439,1.758C68.235,161.116,68.634,160.733,68.39,160.474z"/>
	<path fill="#DB3B39" d="M73.431,157.009c-0.02,0.185-0.061,0.396-0.191,0.537c-0.123,0.131-0.282-0.14-0.333-0.222
		c-0.191-0.298-0.675-0.033-0.483,0.268c0.204,0.319,0.534,0.658,0.949,0.509c0.437-0.159,0.565-0.677,0.611-1.085
		C74.023,156.66,73.47,156.658,73.431,157.009z"/>
	<path fill="#DB3B39" d="M54.259,159.652c-0.233,0.061-0.535,0.152-0.702-0.073c-0.213-0.287-0.608,0.098-0.399,0.382
		c0.291,0.392,0.821,0.337,1.238,0.226C54.739,160.095,54.603,159.562,54.259,159.652z"/>
	<path fill="#DB3B39" d="M54.807,149.135c-0.066,0.068-0.311,0.358-0.415,0.206c-0.119-0.167-0.072-0.419-0.024-0.603
		c0.092-0.342-0.438-0.494-0.529-0.151c-0.106,0.393-0.119,0.901,0.215,1.194c0.378,0.332,0.846,0.057,1.134-0.247
		C55.434,149.276,55.053,148.877,54.807,149.135z"/>
	<path fill="#DB3B39" d="M47.874,131.022c-0.251,0.194-0.567,0.289-0.854,0.117c-0.293-0.172-0.268-0.557-0.135-0.819
		c0.158-0.316-0.311-0.605-0.471-0.287c-0.252,0.504-0.254,1.115,0.213,1.499c0.504,0.413,1.153,0.261,1.629-0.112
		C48.535,131.2,48.151,130.803,47.874,131.022z"/>
	<path fill="#DB3B39" d="M52.391,133.999c-0.356-0.017-0.392-0.493-0.397-0.765c-0.006-0.353-0.559-0.36-0.551-0.004
		c0.01,0.607,0.24,1.287,0.944,1.322C52.741,134.569,52.747,134.018,52.391,133.999z"/>
	<path fill="#DB3B39" d="M51.601,124.833c-0.126,0.12-0.3,0.264-0.476,0.161c-0.196-0.113-0.187-0.441-0.176-0.629
		c0.023-0.354-0.528-0.359-0.551-0.005c-0.027,0.427,0.082,0.843,0.44,1.104c0.374,0.273,0.853,0.041,1.144-0.231
		C52.243,124.988,51.86,124.592,51.601,124.833z"/>
	<path fill="#DB3B39" d="M81.044,136.91c-0.165,0.156-0.413,0.354-0.627,0.166c-0.193-0.17-0.241-0.467-0.248-0.71
		c-0.008-0.354-0.56-0.361-0.551-0.005c0.011,0.469,0.157,0.929,0.547,1.215c0.419,0.305,0.938,0.036,1.261-0.269
		C81.685,137.062,81.303,136.665,81.044,136.91z"/>
	<path fill="#DB3B39" d="M110.443,131.748c-0.159,0.214-0.385,0.391-0.66,0.401c-0.309,0.011-0.43-0.296-0.477-0.549
		c-0.064-0.352-0.6-0.213-0.535,0.135c0.088,0.472,0.381,0.889,0.884,0.955c0.521,0.066,0.966-0.257,1.259-0.655
		C111.127,131.748,110.654,131.464,110.443,131.748z"/>
	<path fill="#DB3B39" d="M118.092,127.269c-0.082,0.263-0.225,0.632-0.508,0.744c-0.294,0.117-0.455-0.305-0.525-0.514
		c-0.112-0.334-0.646-0.2-0.533,0.139c0.159,0.474,0.501,1.047,1.094,0.935c0.549-0.105,0.853-0.663,1.004-1.152
		C118.729,127.079,118.197,126.929,118.092,127.269z"/>
	<path fill="#DB3B39" d="M115.289,136.296c-0.086,0.177-0.217,0.439-0.443,0.461c-0.229,0.023-0.396-0.207-0.496-0.378
		c-0.18-0.308-0.664-0.039-0.484,0.268c0.21,0.354,0.5,0.622,0.921,0.664c0.453,0.043,0.798-0.366,0.974-0.729
		C115.914,136.265,115.443,135.975,115.289,136.296z"/>
	<path fill="#DB3B39" d="M105.121,138.027c-0.301,0.263-0.646,0.498-1.026,0.627c-0.481,0.162-0.55-0.14-0.52-0.573
		c0.026-0.354-0.524-0.358-0.552-0.006c-0.043,0.599,0.173,1.226,0.878,1.178c0.595-0.04,1.167-0.447,1.603-0.826
		C105.772,138.192,105.39,137.796,105.121,138.027z"/>
	<path fill="#DB3B39" d="M126.246,124.666c-0.301,0.605-0.951,0.693-1.312,0.085c-0.183-0.307-0.664-0.039-0.483,0.268
		c0.557,0.938,1.771,0.932,2.266-0.064C126.875,124.637,126.404,124.348,126.246,124.666z"/>
	<path fill="#DB3B39" d="M129.974,94.03c-0.073,0.111-0.163,0.268-0.301,0.309c-0.043,0.013-0.157-0.285-0.167-0.307
		c-0.118-0.332-0.654-0.2-0.532,0.137c0.11,0.305,0.291,0.695,0.669,0.717c0.367,0.021,0.619-0.29,0.801-0.567
		C130.639,94.02,130.168,93.733,129.974,94.03z"/>
	<path fill="#DB3B39" d="M137.428,88.664c-0.07,0.145-0.174,0.39-0.365,0.386c-0.171-0.003-0.286-0.343-0.325-0.461
		c-0.108-0.336-0.644-0.202-0.534,0.137c0.121,0.37,0.33,0.75,0.732,0.859c0.446,0.121,0.79-0.279,0.963-0.635
		C138.053,88.634,137.583,88.343,137.428,88.664z"/>
	<path fill="#DB3B39" d="M168.674,96.517c-0.218-0.08-0.411-0.214-0.603-0.343c-0.298-0.198-0.583,0.275-0.288,0.472
		c0.237,0.157,0.472,0.303,0.738,0.403C168.855,97.173,169.004,96.642,168.674,96.517z"/>
	<path fill="#DB3B39" d="M172.626,95.984h-0.148c-0.356,0-0.365,0.553-0.006,0.553h0.148
		C172.975,96.537,172.981,95.984,172.626,95.984z"/>
	<path fill="#DB3B39" d="M174.576,97.361c-0.548,0.281-1.081,0.68-1.728,0.637c-0.354-0.025-0.359,0.526-0.006,0.552
		c0.749,0.05,1.363-0.379,2-0.705C175.16,97.682,174.894,97.198,174.576,97.361z"/>
	<path fill="#DB3B39" d="M178.053,94.851c-0.242,0.386-0.571,0.7-0.925,0.988c-0.276,0.225,0.107,0.621,0.382,0.398
		c0.389-0.315,0.746-0.673,1.014-1.1C178.712,94.836,178.241,94.55,178.053,94.851z"/>
	<path fill="#DB3B39" d="M152.561,86.799c-0.268,0.399-1.145,1.777-1.611,0.979c-0.18-0.306-0.664-0.039-0.482,0.269
		c0.803,1.366,2.041-0.181,2.563-0.96C153.229,86.792,152.758,86.506,152.561,86.799z"/>
	<path fill="#DB3B39" d="M147.652,99.68c-0.236-0.26-0.588-0.199-0.891-0.108c-0.286,0.087-0.231,0.483-0.001,0.538
		c-0.382,0.062-0.78-0.076-1.071-0.387c-0.245-0.258-0.643,0.123-0.398,0.382c0.572,0.608,1.439,0.754,2.166,0.332
		C147.742,100.274,147.91,99.962,147.652,99.68z"/>
	<path fill="#DB3B39" d="M140.08,110.225c-0.37,0.429-0.819,0.928-1.447,0.828c-0.346-0.056-0.502,0.475-0.151,0.529
		c0.854,0.138,1.449-0.345,1.981-0.958C140.693,110.356,140.314,109.956,140.08,110.225z"/>
	<path fill="#DB3B39" d="M143.54,69.432c-0.187,0.392-0.538,0.691-0.962,0.431c-0.303-0.188-0.591,0.283-0.288,0.47
		c0.673,0.415,1.402,0.056,1.722-0.612C144.163,69.4,143.692,69.112,143.54,69.432z"/>
	<path fill="#DB3B39" d="M146.269,122.2c-0.068,0.188-0.274,0.874-0.569,0.601c-0.298-0.272-0.434-0.738-0.539-1.115
		c-0.096-0.343-0.629-0.208-0.535,0.136c0.148,0.536,0.38,1.236,0.896,1.529c0.673,0.383,1.1-0.509,1.275-0.999
		C146.921,122.018,146.389,121.868,146.269,122.2z"/>
	<path fill="#DB3B39" d="M150.176,142.705c-0.139,0.24-0.321,0.486-0.592,0.585c-0.311,0.114-0.466-0.182-0.547-0.434
		c-0.107-0.338-0.643-0.205-0.535,0.136c0.146,0.462,0.439,0.879,0.971,0.875c0.516-0.003,0.935-0.46,1.172-0.875
		C150.821,142.685,150.352,142.396,150.176,142.705z"/>
	<path fill="#DB3B39" d="M157.852,136.967c-0.461,0.644-1.018,0.164-1.137-0.448c-0.068-0.348-0.604-0.21-0.535,0.139
		c0.102,0.51,0.389,0.939,0.877,1.141c0.506,0.207,0.986-0.156,1.268-0.545C158.53,136.963,158.057,136.678,157.852,136.967z"/>
	<path fill="#DB3B39" d="M159.791,120.492c-0.077,0.124-0.152,0.248-0.276,0.329c-0.134,0.086-0.254-0.063-0.333-0.152
		c-0.239-0.265-0.637,0.117-0.399,0.383c0.192,0.213,0.453,0.395,0.757,0.338c0.335-0.063,0.555-0.333,0.721-0.609
		C160.445,120.476,159.974,120.188,159.791,120.492z"/>
	<path fill="#DB3B39" d="M162.817,145.978c-0.082,0.213-0.242,0.527-0.505,0.547c-0.267,0.02-0.354-0.346-0.372-0.542
		c-0.034-0.35-0.585-0.36-0.55-0.006c0.045,0.487,0.268,1.034,0.821,1.094c0.576,0.063,0.951-0.466,1.135-0.939
		C163.474,145.799,162.942,145.649,162.817,145.978z"/>
	<path fill="#DB3B39" d="M157.777,152.171c-0.129,0.247-0.4,0.754-0.756,0.671c-0.354-0.084-0.322-0.715-0.298-0.971
		c0.032-0.354-0.521-0.356-0.552-0.006c-0.051,0.536,0.058,1.287,0.651,1.489c0.647,0.224,1.159-0.389,1.424-0.895
		C158.413,152.146,157.941,151.855,157.777,152.171z"/>
	<path fill="#DB3B39" d="M166.768,153.209c-0.063,0.255-0.192,0.606-0.499,0.641c-0.299,0.035-0.51-0.24-0.634-0.476
		c-0.17-0.313-0.652-0.045-0.483,0.268c0.23,0.436,0.646,0.813,1.172,0.753c0.542-0.062,0.854-0.541,0.974-1.035
		C167.381,153.017,166.852,152.861,166.768,153.209z"/>
	<path fill="#DB3B39" d="M131.286,138.077c-0.071,0.226-0.175,0.495-0.45,0.481c-0.231-0.014-0.431-0.287-0.535-0.464
		c-0.18-0.309-0.664-0.041-0.481,0.267c0.226,0.388,0.557,0.686,1.011,0.748c0.527,0.073,0.852-0.454,0.984-0.88
		C131.922,137.889,131.391,137.737,131.286,138.077z"/>
	<path fill="#DB3B39" d="M136.533,145.836c-0.24,0.391-0.531,0.375-0.889,0.132c-0.295-0.2-0.58,0.272-0.287,0.471
		c0.606,0.413,1.256,0.327,1.646-0.315C137.188,145.819,136.718,145.532,136.533,145.836z"/>
	<path fill="#DB3B39" d="M137.023,140.313c-0.039,0.128-0.089,0.325-0.201,0.42c-0.008-0.006-0.013-0.011-0.025-0.023
		c-0.076-0.08-0.118-0.207-0.159-0.305c-0.142-0.327-0.622-0.056-0.483,0.268c0.127,0.294,0.375,0.713,0.764,0.621
		c0.375-0.089,0.533-0.501,0.637-0.828C137.664,140.126,137.134,139.976,137.023,140.313z"/>
	<path fill="#DB3B39" d="M134.072,151.724c-0.109,0.237-0.283,0.592-0.563,0.35c-0.247-0.213-0.366-0.559-0.424-0.869
		c-0.065-0.351-0.601-0.212-0.534,0.137c0.091,0.49,0.342,1.041,0.801,1.288c0.532,0.286,0.979-0.158,1.193-0.616
		C134.691,151.692,134.223,151.403,134.072,151.724z"/>
	<path fill="#DB3B39" d="M140.826,149.78c-0.055,0.181-0.164,0.323-0.288,0.459c-0.147-0.107-0.292-0.221-0.397-0.368
		c-0.207-0.284-0.691-0.021-0.482,0.269c0.206,0.287,0.477,0.5,0.769,0.697c0.099,0.067,0.25,0.048,0.335-0.036
		c0.254-0.257,0.489-0.516,0.595-0.867C141.459,149.592,140.93,149.44,140.826,149.78z"/>
	<path fill="#DB3B39" d="M139.962,156.346c-0.374,0.507-1.147,0.707-1.287-0.072c-0.062-0.352-0.597-0.213-0.534,0.135
		c0.094,0.532,0.436,0.91,0.987,0.954c0.525,0.04,1.01-0.331,1.305-0.729C140.646,156.348,140.171,156.063,139.962,156.346z"/>
	<path fill="#DB3B39" d="M135.879,160.769c-0.301,0.084-0.365-0.233-0.41-0.471c-0.064-0.35-0.599-0.212-0.533,0.136
		c0.104,0.553,0.461,1.042,1.082,0.871C136.358,161.21,136.225,160.673,135.879,160.769z"/>
	<path fill="#DB3B39" d="M142.646,161.937c-0.139,0.305-0.361,0.786-0.758,0.565c-0.307-0.171-0.496-0.545-0.63-0.852
		c-0.143-0.328-0.624-0.057-0.483,0.266c0.213,0.491,0.551,0.983,1.075,1.169c0.606,0.216,1.053-0.386,1.265-0.86
		C143.26,161.903,142.791,161.613,142.646,161.937z"/>
	<path fill="#DB3B39" d="M144.255,158.825c-0.294,0.333-0.573,0.392-0.933,0.112c-0.279-0.219-0.564,0.256-0.287,0.471
		c0.541,0.423,1.158,0.317,1.602-0.185C144.871,158.958,144.49,158.558,144.255,158.825z"/>
	<path fill="#FFF2DF" d="M81.191,111.954c-0.229,0.131-0.502,0.221-0.772,0.176c-0.297-0.05-0.592,0.065-0.682,0.379
		c-0.077,0.264,0.08,0.632,0.377,0.682c0.566,0.097,1.108,0.013,1.612-0.271C82.346,112.569,81.811,111.604,81.191,111.954z"/>
	<path fill="#FFF2DF" d="M135.85,96.794c-0.119,0.225-0.257,0.415-0.484,0.538c-0.168,0.093-0.268-0.065-0.358-0.186
		c-0.185-0.238-0.581-0.208-0.781-0.018c-0.235,0.226-0.2,0.541-0.018,0.781c0.79,1.033,2.073,0.418,2.583-0.542
		C137.127,96.741,136.184,96.164,135.85,96.794z"/>
	<path fill="#FFF2DF" d="M144.124,105.292c-0.155,0.247-0.319,0.465-0.538,0.661c-0.254,0.227-0.468,0.159-0.717-0.025
		c-0.572-0.424-1.141,0.522-0.574,0.941c1.098,0.814,2.172-0.034,2.77-1.003C145.441,105.261,144.499,104.687,144.124,105.292z"/>
	<path fill="#FFF2DF" d="M138.365,117.918c-0.354,0.208-0.805,0.367-1.123,0.026c-0.488-0.521-1.285,0.243-0.799,0.762
		c0.667,0.712,1.668,0.645,2.457,0.178C139.512,118.521,138.977,117.555,138.365,117.918z"/>
	<path fill="#FFF2DF" d="M137.824,128.077c-0.018,0.019-0.043,0.021-0.074,0.009c-0.035,0.001-0.049,0.003-0.057,0.004
		c0.006-0.002,0.008-0.007-0.045-0.024c0.053,0.018-0.036-0.053-0.023-0.033c-0.119-0.173-0.146-0.388-0.174-0.601
		c-0.037-0.299-0.407-0.465-0.67-0.397c-0.318,0.081-0.437,0.371-0.398,0.67c0.051,0.412,0.188,0.81,0.473,1.117
		c0.323,0.349,0.8,0.409,1.243,0.325C138.797,129.016,138.522,127.946,137.824,128.077z"/>
	<path fill="#FFF2DF" d="M131.826,142.263c-0.236,0.386-0.303,0.805-0.214,1.245c0.14,0.697,1.21,0.423,1.069-0.273
		c-0.029-0.148,0.008-0.269,0.085-0.396C133.139,142.231,132.195,141.657,131.826,142.263z"/>
	<path fill="#FFF2DF" d="M138.549,152.886c-0.156,0.144-0.262,0.086-0.412-0.057c-0.518-0.486-1.317,0.275-0.798,0.763
		c0.587,0.551,1.351,0.66,1.972,0.094C139.838,153.201,139.072,152.405,138.549,152.886z"/>
	<path fill="#FFF2DF" d="M151.367,129.11c-0.28-0.172-0.57-0.052-0.758,0.183c-0.291,0.364-0.797,0.597-1.144,0.204
		c-0.474-0.535-1.267,0.231-0.798,0.764c0.869,0.984,2.173,0.501,2.885-0.392C151.739,129.633,151.602,129.252,151.367,129.11z"/>
	<path fill="#FFF2DF" d="M147.494,138.499c-0.202,0.193-0.784,0.624-0.947,0.188c-0.107-0.281-0.355-0.479-0.672-0.398
		c-0.268,0.068-0.504,0.39-0.398,0.671c0.222,0.585,0.602,0.939,1.232,1.011c0.566,0.065,1.158-0.302,1.547-0.673
		C148.771,138.805,148.008,138.008,147.494,138.499z"/>
	<path fill="#FFF2DF" d="M157.705,147.295c-0.482,0.458-1.115,0.697-1.777,0.539c-0.69-0.162-0.997,0.897-0.305,1.062
		c1.045,0.246,2.071-0.069,2.846-0.803C158.985,147.604,158.223,146.807,157.705,147.295z"/>
	<path fill="#FFF2DF" d="M160.932,130.911c-0.089,0.021-0.121,0.025-0.188,0.025c-0.01-0.002-0.012-0.004-0.029-0.007
		c-0.008-0.004-0.008-0.004-0.02-0.013c0.036,0.021-0.032-0.032-0.053-0.063c-0.041-0.068-0.062-0.139-0.083-0.218
		c-0.187-0.684-1.259-0.415-1.068,0.274c0.222,0.811,0.87,1.284,1.714,1.067C161.893,131.803,161.623,130.733,160.932,130.911z"/>
	<path fill="#FFF2DF" d="M152.9,118.886c-0.059,0.027-0.112,0.044-0.175,0.058c0.004,0-0.179-0.013-0.101,0.004
		c-0.041-0.008-0.08-0.034-0.059-0.018c-0.074-0.063-0.067-0.064-0.102-0.121c-0.127-0.211-0.115-0.518-0.033-0.778
		c0.209-0.682-0.854-0.984-1.061-0.304c-0.189,0.614-0.125,1.317,0.277,1.833c0.45,0.574,1.174,0.577,1.787,0.292
		C154.081,119.551,153.542,118.587,152.9,118.886z"/>
	<path fill="#FFF2DF" d="M154.224,108.945c-0.083-0.319-0.373-0.435-0.67-0.397c-0.31,0.036-0.587-0.085-0.807-0.295
		c-0.515-0.492-1.313,0.271-0.798,0.763c0.533,0.51,1.15,0.688,1.875,0.601C154.123,109.58,154.291,109.208,154.224,108.945z"/>
	<path fill="#FFF2DF" d="M161.68,105.069c-0.072-0.274-0.387-0.492-0.674-0.397c-0.17,0.056-0.346,0.124-0.528,0.131
		c-0.707,0.033-0.724,1.136-0.011,1.104c0.284-0.013,0.545-0.078,0.813-0.166C161.564,105.646,161.756,105.376,161.68,105.069z"/>
	<path fill="#FFF2DF" d="M132.361,84.458c-0.381,0.378-0.79,0.761-1.32,0.908c-0.684,0.19-0.414,1.262,0.273,1.068
		c0.717-0.199,1.29-0.665,1.809-1.179C133.63,84.755,132.867,83.957,132.361,84.458z"/>
	<path fill="#FFF2DF" d="M143.514,90.628c-0.137-0.245-0.504-0.386-0.752-0.216c-0.113,0.078-0.202,0.148-0.338,0.087
		c-0.273-0.125-0.589-0.098-0.759,0.183c-0.143,0.233-0.092,0.634,0.183,0.758c0.49,0.225,0.986,0.255,1.449-0.063
		C143.546,91.208,143.668,90.908,143.514,90.628z"/>
	<path fill="#FFF2DF" d="M153.682,93.029c-0.344,0.364-0.684,0.295-1.01-0.056c-0.486-0.521-1.281,0.242-0.799,0.763
		c0.717,0.77,1.822,0.886,2.568,0.092C154.931,93.312,154.169,92.514,153.682,93.029z"/>
	<path fill="#FFF2DF" d="M162.088,94.856c-0.428,0.576-0.789,1.191-1.326,1.677c-0.527,0.479,0.236,1.275,0.764,0.798
		c0.604-0.549,1.023-1.249,1.505-1.898C163.455,94.858,162.507,94.289,162.088,94.856z"/>
	<path fill="#FFF2DF" d="M158.995,82.309c-0.296,0.076-0.417,0.004-0.614-0.221c-0.24-0.276-0.43-0.583-0.715-0.817
		c-0.232-0.191-0.543-0.243-0.779-0.019c-0.198,0.188-0.253,0.591-0.02,0.78c0.345,0.283,0.558,0.675,0.873,0.985
		c0.418,0.411,0.969,0.502,1.527,0.361C159.957,83.205,159.686,82.136,158.995,82.309z"/>
	<path fill="#FFF2DF" d="M142.283,77.211c-0.467-0.304-1.081-0.175-1.534,0.082c-0.618,0.352-0.084,1.316,0.536,0.965
		c0.072-0.042,0.219-0.11,0.26-0.116c0.005,0,0.098,0.003,0.115,0c0.025,0.011,0.053,0.021,0.067,0.026
		c0.026,0.019,0.036,0.034,0.046,0.055c0.047,0.122,0.041,0.238,0.033,0.368c-0.041,0.709,1.063,0.72,1.104,0.01
		C142.942,78.052,142.757,77.521,142.283,77.211z"/>
	<path fill="#FFF2DF" d="M138.754,52.386c-0.182-0.395-0.834-0.374-1.199-0.377c-0.71-0.007-0.724,1.096-0.011,1.104
		c0.077,0.001,0.155,0.007,0.232,0.011c0.13,0.098,0.298,0.141,0.472,0.112c0.211-0.034,0.367-0.118,0.495-0.293
		C138.862,52.776,138.834,52.558,138.754,52.386z"/>
	<path fill="#FFF2DF" d="M147.229,60.684c-0.352-0.43-0.637-0.907-0.985-1.335c-0.192-0.233-0.575-0.214-0.78-0.018
		c-0.231,0.219-0.208,0.548-0.019,0.779c0.35,0.43,0.634,0.906,0.984,1.335c0.189,0.234,0.575,0.214,0.78,0.02
		C147.438,61.244,147.416,60.917,147.229,60.684z"/>
	<path fill="#FFF2DF" d="M139.602,67.049c-0.104,0.048-0.198,0.065-0.295,0.063c0.075,0.003-0.093-0.027-0.096-0.027
		c0.094,0.031-0.068-0.064-0.002-0.005c-0.088-0.075-0.086-0.087-0.115-0.173c-0.044-0.138-0.029-0.273-0.01-0.423
		c0.044-0.299-0.272-0.554-0.545-0.558c-0.328-0.003-0.517,0.249-0.557,0.547c-0.071,0.503,0.076,1.067,0.475,1.407
		c0.493,0.423,1.115,0.398,1.68,0.136C140.782,67.713,140.243,66.749,139.602,67.049z"/>
	<path fill="#FFF2DF" d="M153.554,70.524c-0.432-0.39-0.666-0.9-0.849-1.442c-0.228-0.668-1.299-0.403-1.069,0.273
		c0.241,0.712,0.55,1.418,1.118,1.932C153.28,71.761,154.081,71,153.554,70.524z"/>
	<path fill="#FFF2DF" d="M123.92,40.06c-0.491-0.065-0.982-0.071-1.477-0.071c-0.71,0-0.725,1.104-0.012,1.104
		c0.493,0,0.985,0.005,1.477,0.069c0.299,0.041,0.555-0.272,0.558-0.545C124.47,40.29,124.217,40.101,123.92,40.06z"/>
	<path fill="#FFF2DF" d="M101.366,34.295c-0.226,0.109-0.458,0.203-0.712,0.212c-0.707,0.025-0.725,1.128-0.012,1.103
		c0.451-0.015,0.857-0.153,1.258-0.35C102.541,34.947,102.003,33.984,101.366,34.295z"/>
	<path fill="#FFF2DF" d="M17.803,89.103c-0.463,0.793-0.925,1.574-1.668,2.138c-0.567,0.43,0.203,1.222,0.763,0.799
		c0.813-0.617,1.34-1.495,1.847-2.36C19.104,89.063,18.161,88.488,17.803,89.103z"/>
	<path fill="#FFF2DF" d="M11.073,79.994c-0.373,0.377-0.718,0.769-1.221,0.972c-0.279,0.111-0.347,0.511-0.215,0.748
		c0.16,0.289,0.471,0.328,0.75,0.217c0.584-0.234,1.015-0.7,1.449-1.138C12.337,80.286,11.575,79.487,11.073,79.994z"/>
	<path fill="#FFF2DF" d="M13.726,85.867c-0.512,0.704-1.342,0.969-2.046,1.423c-0.595,0.385-0.063,1.354,0.535,0.966
		c0.894-0.578,1.804-0.92,2.453-1.812C15.088,85.867,14.142,85.3,13.726,85.867z"/>
	<path fill="#FFF2DF" d="M22.734,92.189c-0.219,1.425-0.596,2.784-1.487,3.941c-0.436,0.564,0.512,1.132,0.942,0.575
		c0.945-1.227,1.375-2.7,1.605-4.212C23.899,91.802,22.84,91.489,22.734,92.189z"/>
	<path fill="#FFF2DF" d="M29.702,91.362c-0.178-0.688-1.248-0.417-1.069,0.272c0.297,1.146,0.301,2.222,0.005,3.366
		c-0.179,0.688,0.881,0.995,1.06,0.305C30.043,93.979,30.048,92.69,29.702,91.362z"/>
	<path fill="#FFF2DF" d="M34.219,89.264c-0.322-0.636-1.286-0.1-0.965,0.534c0.692,1.367,0.628,3.015,0.564,4.507
		c-0.031,0.711,1.073,0.722,1.103,0.011C34.995,92.62,35.002,90.811,34.219,89.264z"/>
</g>
</svg>
