<?xml version="1.0" encoding="utf-8"?>
<!-- Generator: Adobe Illustrator 16.0.0, SVG Export Plug-In . SVG Version: 6.00 Build 0)  -->
<!DOCTYPE svg PUBLIC "-//W3C//DTD SVG 1.1//EN" "http://www.w3.org/Graphics/SVG/1.1/DTD/svg11.dtd">
<svg version="1.1" id="Layer_1" xmlns="http://www.w3.org/2000/svg" xmlns:xlink="http://www.w3.org/1999/xlink" x="0px" y="0px"
	 width="95px" height="95px" viewBox="0 0 95 95" enable-background="new 0 0 95 95" xml:space="preserve">
<g>
	<defs>
		<path id="SVGID_1_" d="M85.64,54.722c6.28-1.996,10.271-8.379,9.096-15.046c-1.18-6.695-7.156-11.336-13.77-11.026
			c3.526-5.565,2.48-13.02-2.706-17.373c-5.207-4.369-12.767-4.083-17.635,0.407c-0.876-6.532-6.467-11.57-13.238-11.57
			c-6.798,0-12.406,5.077-13.249,11.646c-4.869-4.439-12.39-4.705-17.578-0.354c-5.208,4.371-6.24,11.865-2.662,17.439
			C7.313,28.573,1.381,33.205,0.205,39.873c-1.18,6.694,2.847,13.101,9.169,15.069c-5.218,4.025-6.786,11.386-3.4,17.248
			c3.4,5.889,10.601,8.208,16.712,5.653c-1.412,6.437,2.12,13.082,8.482,15.398c6.388,2.324,13.395-0.528,16.433-6.412
			c3.057,5.838,10.034,8.66,16.396,6.343c6.39-2.325,9.923-9.016,8.468-15.476c6.094,2.506,13.253,0.185,16.638-5.681
			C92.501,66.13,90.908,58.734,85.64,54.722z"/>
	</defs>
	<use xlink:href="#SVGID_1_"  overflow="visible"/>
	<clipPath id="SVGID_2_">
		<use xlink:href="#SVGID_1_"  overflow="visible"/>
	</clipPath>
	<g opacity="0.5" clip-path="url(#SVGID_2_)">
		<g>
			<rect x="37.38" y="15.303" transform="matrix(0.7071 -0.7071 0.7071 0.7071 -1.6498 35.2065)" width="8.585" height="8.584"/>
			<rect x="49.529" y="15.303" transform="matrix(0.7071 -0.7071 0.7071 0.7071 1.9094 43.799)" width="8.585" height="8.584"/>
			<rect x="25.233" y="15.303" transform="matrix(0.707 -0.7072 0.7072 0.707 -5.2074 26.6192)" width="8.585" height="8.584"/>
			<rect x="13.084" y="15.303" transform="matrix(0.707 -0.7072 0.7072 0.707 -8.7663 18.0293)" width="8.584" height="8.584"/>
			<rect x="0.936" y="15.302" transform="matrix(0.707 -0.7072 0.7072 0.707 -12.3259 9.4388)" width="8.584" height="8.585"/>
			<rect x="-11.213" y="15.302" transform="matrix(0.707 -0.7072 0.7072 0.707 -15.8839 0.8466)" width="8.585" height="8.585"/>
		</g>
		<g>
			<rect x="61.772" y="39.694" transform="matrix(0.7072 -0.707 0.707 0.7072 -11.7552 59.5873)" width="8.582" height="8.583"/>
			<rect x="73.921" y="39.694" transform="matrix(0.7071 -0.7071 0.7071 0.7071 -8.1961 68.1835)" width="8.582" height="8.584"/>
			<rect x="49.624" y="39.695" transform="matrix(0.7072 -0.707 0.707 0.7072 -15.3126 50.9933)" width="8.583" height="8.582"/>
		</g>
		<g>
			<rect x="98.19" y="39.695" transform="matrix(0.7073 -0.7069 0.7069 0.7073 -1.0981 85.3197)" width="8.584" height="8.582"/>
			<rect x="110.339" y="39.695" transform="matrix(0.7072 -0.707 0.707 0.7072 2.4656 93.9252)" width="8.582" height="8.582"/>
			<rect x="86.042" y="39.694" transform="matrix(0.7072 -0.707 0.707 0.7072 -4.6487 76.7468)" width="8.582" height="8.584"/>
		</g>
		<g>
			<rect x="104.201" y="45.829" transform="matrix(0.707 -0.7072 0.7072 0.707 -3.661 91.4047)" width="8.583" height="8.584"/>
			<rect x="92.053" y="45.829" transform="matrix(0.707 -0.7072 0.7072 0.707 -7.2196 82.8145)" width="8.583" height="8.584"/>
		</g>
		<g>
			<rect x="104.201" y="58.146" transform="matrix(0.707 -0.7072 0.7072 0.707 -12.3688 95.0228)" width="8.583" height="8.585"/>
			<rect x="92.053" y="58.146" transform="matrix(0.707 -0.7072 0.7072 0.707 -15.9281 86.4319)" width="8.583" height="8.585"/>
		</g>
		<g>
			<rect x="104.603" y="70.065" transform="matrix(0.7073 -0.7069 0.7069 0.7073 -20.6895 98.7469)" width="8.583" height="8.582"/>
			<rect x="92.455" y="70.065" transform="matrix(0.7072 -0.707 0.707 0.7072 -24.2431 90.1782)" width="8.581" height="8.583"/>
		</g>
		<g>
			
				<rect x="110.494" y="64.309" transform="matrix(0.7073 -0.7069 0.7069 0.7073 -14.8978 101.2163)" width="8.583" height="8.581"/>
			<rect x="98.346" y="64.308" transform="matrix(0.7072 -0.707 0.707 0.7072 -18.4495 92.648)" width="8.582" height="8.583"/>
		</g>
		<g>
			<rect x="98.443" y="76.222" transform="matrix(0.707 -0.7072 0.7072 0.707 -26.8389 96.2473)" width="8.583" height="8.584"/>
			<rect x="86.295" y="76.221" transform="matrix(0.707 -0.7072 0.7072 0.707 -30.3988 87.6466)" width="8.584" height="8.585"/>
		</g>
		<g>
			<rect x="104.602" y="82.383" transform="matrix(0.7072 -0.707 0.707 0.7072 -29.3959 102.3636)" width="8.583" height="8.583"/>
			<rect x="92.455" y="82.382" transform="matrix(0.7071 -0.7071 0.7071 0.7071 -32.9515 93.7956)" width="8.582" height="8.584"/>
		</g>
		<g>
			<rect x="110.448" y="51.898" transform="matrix(0.7069 -0.7073 0.7073 0.7069 -6.116 97.6206)" width="8.584" height="8.585"/>
			<rect x="98.301" y="51.898" transform="matrix(0.707 -0.7072 0.7072 0.707 -9.6811 89.0112)" width="8.585" height="8.585"/>
		</g>
		<g>
			<rect x="104.38" y="33.514" transform="matrix(0.7072 -0.707 0.707 0.7072 5.0908 87.9027)" width="8.584" height="8.583"/>
			<rect x="92.231" y="33.513" transform="matrix(0.7071 -0.7071 0.7071 0.7071 1.537 79.3211)" width="8.583" height="8.584"/>
		</g>
		<g>
			<rect x="104.38" y="21.374" transform="matrix(0.7072 -0.707 0.707 0.7072 13.6738 84.3481)" width="8.584" height="8.583"/>
			<rect x="92.231" y="21.374" transform="matrix(0.7071 -0.7071 0.7071 0.7071 10.1206 75.7658)" width="8.583" height="8.584"/>
		</g>
		<g>
			<rect x="104.648" y="9.056" transform="matrix(0.7072 -0.707 0.707 0.7072 22.4613 80.9308)" width="8.584" height="8.584"/>
			<rect x="92.5" y="9.056" transform="matrix(0.7071 -0.7071 0.7071 0.7071 18.9136 72.3542)" width="8.582" height="8.584"/>
		</g>
		<g>
			<rect x="110.606" y="15.214" transform="matrix(0.7071 -0.7071 0.7071 0.7071 19.8622 86.9615)" width="8.582" height="8.584"/>
			<rect x="98.458" y="15.215" transform="matrix(0.7071 -0.7071 0.7071 0.7071 16.2991 78.3643)" width="8.583" height="8.583"/>
		</g>
		<g>
			<rect x="110.448" y="27.442" transform="matrix(0.707 -0.7072 0.7072 0.707 11.1788 90.4492)" width="8.584" height="8.585"/>
			<rect x="98.301" y="27.442" transform="matrix(0.7071 -0.7071 0.7071 0.7071 7.6113 81.843)" width="8.585" height="8.584"/>
		</g>
		<g>
			<rect x="67.797" y="58.17" transform="matrix(0.7071 -0.7071 0.7071 0.7071 -23.0529 69.2692)" width="8.583" height="8.583"/>
			<rect x="79.945" y="58.17" transform="matrix(0.7071 -0.7071 0.7071 0.7071 -19.4949 77.8591)" width="8.583" height="8.584"/>
			<rect x="55.648" y="58.17" transform="matrix(0.7071 -0.7071 0.7071 0.7071 -26.6112 60.6786)" width="8.583" height="8.584"/>
		</g>
		<g>
			<rect x="73.82" y="64.193" transform="matrix(0.707 -0.7072 0.7072 0.707 -25.5467 75.3097)" width="8.585" height="8.585"/>
			<rect x="85.969" y="64.193" transform="matrix(0.707 -0.7072 0.7072 0.707 -21.9871 83.9013)" width="8.585" height="8.585"/>
			<rect x="61.673" y="64.193" transform="matrix(0.707 -0.7072 0.7072 0.707 -29.1057 66.7114)" width="8.585" height="8.585"/>
		</g>
		<g>
			<rect x="67.797" y="70.354" transform="matrix(0.707 -0.7072 0.7072 0.707 -31.6688 72.8463)" width="8.584" height="8.584"/>
			<rect x="79.945" y="70.354" transform="matrix(0.707 -0.7072 0.7072 0.707 -28.1101 81.4369)" width="8.584" height="8.585"/>
			<rect x="55.648" y="70.354" transform="matrix(0.707 -0.7072 0.7072 0.707 -35.2279 64.255)" width="8.584" height="8.585"/>
		</g>
		<g>
			<rect x="61.771" y="76.379" transform="matrix(0.7071 -0.7071 0.7071 0.7071 -37.6935 70.3415)" width="8.583" height="8.584"/>
			<rect x="73.92" y="76.379" transform="matrix(0.707 -0.7072 0.7072 0.707 -34.1355 78.9408)" width="8.583" height="8.585"/>
			<rect x="49.624" y="76.379" transform="matrix(0.7072 -0.707 0.707 0.7072 -41.2499 61.7443)" width="8.584" height="8.583"/>
		</g>
		<g>
			<rect x="67.798" y="82.406" transform="matrix(0.7072 -0.707 0.707 0.7072 -40.1882 76.3495)" width="8.582" height="8.582"/>
			<rect x="79.946" y="82.406" transform="matrix(0.7072 -0.707 0.707 0.7072 -36.6315 84.938)" width="8.582" height="8.583"/>
			<rect x="55.649" y="82.406" transform="matrix(0.7072 -0.707 0.707 0.7072 -43.7452 67.7603)" width="8.582" height="8.583"/>
		</g>
		<g>
			<rect x="67.797" y="45.762" transform="matrix(0.707 -0.7072 0.7072 0.707 -14.2777 65.6419)" width="8.584" height="8.584"/>
			<rect x="79.945" y="45.761" transform="matrix(0.707 -0.7072 0.7072 0.707 -10.719 74.2325)" width="8.584" height="8.585"/>
			<rect x="55.648" y="45.761" transform="matrix(0.707 -0.7072 0.7072 0.707 -17.8368 57.0506)" width="8.584" height="8.585"/>
		</g>
		<g>
			<rect x="73.777" y="51.923" transform="matrix(0.7071 -0.7071 0.7071 0.7071 -16.8839 71.6683)" width="8.585" height="8.583"/>
			<rect x="85.926" y="51.923" transform="matrix(0.707 -0.7072 0.7072 0.707 -13.3238 80.2669)" width="8.584" height="8.584"/>
			<rect x="61.629" y="51.923" transform="matrix(0.7072 -0.707 0.707 0.7072 -20.4425 63.0715)" width="8.585" height="8.583"/>
		</g>
		<g>
			<rect x="80.029" y="33.557" transform="matrix(0.707 -0.7072 0.7072 0.707 -2.0621 70.7198)" width="8.583" height="8.584"/>
			<rect x="67.882" y="33.556" transform="matrix(0.707 -0.7072 0.7072 0.707 -5.621 62.1293)" width="8.583" height="8.585"/>
			<rect x="55.732" y="33.556" transform="matrix(0.7071 -0.7071 0.7071 0.7071 -9.1829 53.5265)" width="8.584" height="8.584"/>
		</g>
		<g>
			<rect x="80.029" y="21.239" transform="matrix(0.707 -0.7072 0.7072 0.707 6.6507 67.1141)" width="8.583" height="8.584"/>
			<rect x="67.882" y="21.238" transform="matrix(0.707 -0.7072 0.7072 0.707 3.0914 58.5232)" width="8.583" height="8.585"/>
			<rect x="55.732" y="21.238" transform="matrix(0.7071 -0.7071 0.7071 0.7071 -0.4722 49.9215)" width="8.585" height="8.585"/>
		</g>
		<g>
			<rect x="86.188" y="15.215" transform="matrix(0.7071 -0.7071 0.7071 0.7071 12.7059 69.6892)" width="8.583" height="8.584"/>
			<rect x="74.041" y="15.215" transform="matrix(0.7071 -0.7071 0.7071 0.7071 9.1515 61.1052)" width="8.582" height="8.584"/>
			<rect x="61.892" y="15.215" transform="matrix(0.7071 -0.7071 0.7071 0.7071 5.5903 52.5097)" width="8.583" height="8.583"/>
		</g>
		<g>
			<rect x="31.356" y="9.144" transform="matrix(0.7071 -0.7071 0.7071 0.7071 0.941 29.1436)" width="8.584" height="8.584"/>
			<rect x="43.504" y="9.144" transform="matrix(0.7071 -0.7071 0.7071 0.7071 4.4985 37.7325)" width="8.585" height="8.584"/>
			<rect x="19.208" y="9.144" transform="matrix(0.7071 -0.7071 0.7071 0.7071 -2.6176 20.5525)" width="8.585" height="8.584"/>
			<rect x="7.059" y="9.144" transform="matrix(0.707 -0.7072 0.7072 0.707 -6.1761 11.9633)" width="8.584" height="8.584"/>
			<rect x="-5.089" y="9.144" transform="matrix(0.7071 -0.7071 0.7071 0.7071 -9.7344 3.3724)" width="8.584" height="8.584"/>
			<rect x="-17.237" y="9.144" transform="matrix(0.707 -0.7072 0.7072 0.707 -13.2938 -5.2184)" width="8.584" height="8.585"/>
		</g>
		<g>
			<rect x="80.163" y="9.056" transform="matrix(0.7072 -0.707 0.707 0.7072 15.288 63.6143)" width="8.584" height="8.583"/>
			<rect x="68.016" y="9.056" transform="matrix(0.7071 -0.7071 0.7071 0.7071 11.7417 55.0407)" width="8.582" height="8.583"/>
			<rect x="55.867" y="9.056" transform="matrix(0.7071 -0.7071 0.7071 0.7071 8.183 46.4498)" width="8.582" height="8.584"/>
		</g>
		<g>
			<rect x="37.604" y="3.073" transform="matrix(0.707 -0.7072 0.7072 0.707 7.0669 31.7876)" width="8.584" height="8.585"/>
			<rect x="49.752" y="3.073" transform="matrix(0.7071 -0.7071 0.7071 0.7071 10.6226 40.3743)" width="8.585" height="8.584"/>
			<rect x="25.456" y="3.073" transform="matrix(0.707 -0.7072 0.7072 0.707 3.5075 23.1963)" width="8.584" height="8.585"/>
			<rect x="13.307" y="3.073" transform="matrix(0.707 -0.7072 0.7072 0.707 -0.0522 14.6045)" width="8.584" height="8.585"/>
			<rect x="1.159" y="3.073" transform="matrix(0.707 -0.7072 0.7072 0.707 -3.6115 6.0131)" width="8.584" height="8.585"/>
			<rect x="-10.99" y="3.073" transform="matrix(0.7071 -0.7071 0.7071 0.7071 -7.1699 -2.5783)" width="8.585" height="8.585"/>
		</g>
		<g>
			<rect x="86.41" y="2.984" transform="matrix(0.707 -0.7072 0.7072 0.707 21.4278 66.2762)" width="8.584" height="8.585"/>
			<rect x="74.263" y="2.985" transform="matrix(0.7071 -0.7071 0.7071 0.7071 17.8648 57.6807)" width="8.585" height="8.584"/>
			<rect x="62.115" y="2.984" transform="matrix(0.707 -0.7072 0.7072 0.707 14.313 49.0985)" width="8.584" height="8.586"/>
		</g>
		<g>
			<rect x="86.188" y="27.397" transform="matrix(0.707 -0.7072 0.7072 0.707 4.0982 73.2711)" width="8.584" height="8.585"/>
			<rect x="74.04" y="27.397" transform="matrix(0.707 -0.7072 0.7072 0.707 0.5417 64.6864)" width="8.584" height="8.585"/>
			<rect x="61.891" y="27.397" transform="matrix(0.707 -0.7072 0.7072 0.707 -3.0202 56.0888)" width="8.584" height="8.584"/>
		</g>
		<g>
			<rect x="31.311" y="21.372" transform="matrix(0.7071 -0.7071 0.7071 0.7071 -7.7193 32.692)" width="8.583" height="8.583"/>
			<rect x="43.46" y="21.372" transform="matrix(0.7071 -0.7071 0.7071 0.7071 -4.1612 41.2822)" width="8.583" height="8.584"/>
			<rect x="19.163" y="21.372" transform="matrix(0.7071 -0.7071 0.7071 0.7071 -11.2776 24.1031)" width="8.583" height="8.584"/>
			<rect x="7.015" y="21.372" transform="matrix(0.7071 -0.7071 0.7071 0.7071 -14.8355 15.512)" width="8.583" height="8.584"/>
			<rect x="-5.133" y="21.372" transform="matrix(0.7072 -0.707 0.707 0.7072 -18.3914 6.9198)" width="8.584" height="8.584"/>
			<rect x="-17.282" y="21.372" transform="matrix(0.7072 -0.707 0.707 0.7072 -21.9497 -1.6692)" width="8.584" height="8.584"/>
		</g>
		<g>
			<rect x="37.381" y="27.441" transform="matrix(0.7071 -0.7071 0.7071 0.7071 -10.2334 38.7597)" width="8.585" height="8.584"/>
			<rect x="49.529" y="27.441" transform="matrix(0.7071 -0.7071 0.7071 0.7071 -6.6749 47.3522)" width="8.585" height="8.584"/>
			<rect x="25.233" y="27.442" transform="matrix(0.7071 -0.7071 0.7071 0.7071 -13.7913 30.1735)" width="8.584" height="8.584"/>
			<rect x="13.084" y="27.441" transform="matrix(0.707 -0.7072 0.7072 0.707 -17.3503 21.5843)" width="8.584" height="8.584"/>
			<rect x="0.936" y="27.441" transform="matrix(0.707 -0.7072 0.7072 0.707 -20.9099 12.9944)" width="8.584" height="8.585"/>
			<rect x="-11.212" y="27.441" transform="matrix(0.7071 -0.7071 0.7071 0.7071 -24.4669 4.4019)" width="8.584" height="8.585"/>
		</g>
		<g>
			<g>
				<rect x="31.312" y="33.692" transform="matrix(0.7071 -0.7071 0.7071 0.7071 -16.4304 36.2981)" width="8.583" height="8.583"/>
				<rect x="43.46" y="33.692" transform="matrix(0.7071 -0.7071 0.7071 0.7071 -12.8725 44.888)" width="8.583" height="8.584"/>
				<rect x="19.163" y="33.691" transform="matrix(0.7071 -0.7071 0.7071 0.7071 -19.9886 27.71)" width="8.583" height="8.584"/>
				<rect x="7.015" y="33.692" transform="matrix(0.7071 -0.7071 0.7071 0.7071 -23.5458 19.1189)" width="8.583" height="8.583"/>
				<rect x="-5.133" y="33.692" transform="matrix(0.7072 -0.707 0.707 0.7072 -27.1003 10.526)" width="8.584" height="8.583"/>
				<rect x="-17.282" y="33.692" transform="matrix(0.7072 -0.707 0.707 0.7072 -30.6586 1.9376)" width="8.584" height="8.583"/>
			</g>
			<g>
				<rect x="25.241" y="39.759" transform="matrix(0.7071 -0.7071 0.7071 0.7071 -22.4993 33.7875)" width="8.584" height="8.584"/>
				<rect x="37.39" y="39.759" transform="matrix(0.7071 -0.7071 0.7071 0.7071 -18.9405 42.3736)" width="8.584" height="8.584"/>
				<rect x="13.093" y="39.759" transform="matrix(0.7072 -0.707 0.707 0.7072 -26.0553 25.1922)" width="8.585" height="8.584"/>
				<rect x="0.945" y="39.759" transform="matrix(0.7071 -0.7071 0.7071 0.7071 -29.6151 16.6053)" width="8.584" height="8.585"/>
				<rect x="-11.203" y="39.759" transform="matrix(0.7071 -0.7071 0.7071 0.7071 -33.1732 8.0152)" width="8.584" height="8.584"/>
				
					<rect x="-23.352" y="39.759" transform="matrix(0.7071 -0.7071 0.7071 0.7071 -36.7315 -0.5752)" width="8.584" height="8.584"/>
			</g>
			<g>
				<rect x="31.311" y="45.829" transform="matrix(0.7071 -0.7071 0.7071 0.7071 -25.0131 39.8553)" width="8.583" height="8.583"/>
				<rect x="43.46" y="45.829" transform="matrix(0.7071 -0.7071 0.7071 0.7071 -21.4549 48.4455)" width="8.583" height="8.584"/>
				<rect x="19.163" y="45.829" transform="matrix(0.7071 -0.7071 0.7071 0.7071 -28.572 31.2671)" width="8.583" height="8.584"/>
				<rect x="7.015" y="45.829" transform="matrix(0.7071 -0.7071 0.7071 0.7071 -32.1293 22.6753)" width="8.583" height="8.584"/>
				<rect x="-5.133" y="45.829" transform="matrix(0.7072 -0.707 0.707 0.7072 -35.683 14.081)" width="8.584" height="8.584"/>
				<rect x="-17.282" y="45.829" transform="matrix(0.7072 -0.707 0.707 0.7072 -39.2421 5.4927)" width="8.584" height="8.584"/>
			</g>
		</g>
		<g>
			<g>
				<rect x="37.381" y="52.08" transform="matrix(0.7073 -0.7069 0.7069 0.7073 -27.6518 45.9583)" width="8.583" height="8.582"/>
				<rect x="49.53" y="52.08" transform="matrix(0.7073 -0.7069 0.7069 0.7073 -24.096 54.5495)" width="8.583" height="8.582"/>
				<rect x="25.234" y="52.08" transform="matrix(0.7072 -0.707 0.707 0.7072 -31.209 37.3756)" width="8.582" height="8.582"/>
				<rect x="13.085" y="52.08" transform="matrix(0.7072 -0.707 0.707 0.7072 -34.7655 28.7869)" width="8.582" height="8.582"/>
				<rect x="0.937" y="52.08" transform="matrix(0.7072 -0.707 0.707 0.7072 -38.3248 20.2021)" width="8.582" height="8.583"/>
				<rect x="-11.212" y="52.08" transform="matrix(0.7072 -0.707 0.707 0.7072 -41.8821 11.6127)" width="8.582" height="8.582"/>
			</g>
			<g>
				<rect x="31.311" y="58.146" transform="matrix(0.7071 -0.7071 0.7071 0.7071 -33.7236 43.4656)" width="8.584" height="8.584"/>
				<rect x="43.459" y="58.146" transform="matrix(0.7071 -0.7071 0.7071 0.7071 -30.1651 52.0561)" width="8.584" height="8.585"/>
				<rect x="19.163" y="58.146" transform="matrix(0.707 -0.7072 0.7072 0.707 -37.2832 34.8776)" width="8.584" height="8.585"/>
				<rect x="7.014" y="58.147" transform="matrix(0.7071 -0.7071 0.7071 0.7071 -40.8405 26.2849)" width="8.584" height="8.584"/>
				<rect x="-5.134" y="58.146" transform="matrix(0.7071 -0.7071 0.7071 0.7071 -44.3972 17.6927)" width="8.585" height="8.584"/>
				<rect x="-17.282" y="58.146" transform="matrix(0.7071 -0.7071 0.7071 0.7071 -47.9576 9.1037)" width="8.584" height="8.584"/>
			</g>
			<g>
				<rect x="37.38" y="64.216" transform="matrix(0.7071 -0.7071 0.7071 0.7071 -36.2381 49.536)" width="8.586" height="8.585"/>
				<rect x="49.529" y="64.216" transform="matrix(0.707 -0.7072 0.7072 0.707 -32.6799 58.1303)" width="8.585" height="8.585"/>
				<rect x="25.232" y="64.216" transform="matrix(0.707 -0.7072 0.7072 0.707 -39.7988 40.9512)" width="8.585" height="8.585"/>
				<rect x="13.083" y="64.216" transform="matrix(0.707 -0.7072 0.7072 0.707 -43.3581 32.3598)" width="8.585" height="8.585"/>
				<rect x="0.936" y="64.216" transform="matrix(0.707 -0.7072 0.7072 0.707 -46.9208 23.7729)" width="8.584" height="8.585"/>
				<rect x="-11.213" y="64.216" transform="matrix(0.707 -0.7072 0.7072 0.707 -50.4808 15.1807)" width="8.584" height="8.585"/>
			</g>
		</g>
		<g>
			<g>
				<rect x="31.49" y="70.289" transform="matrix(0.7072 -0.707 0.707 0.7072 -42.2505 47.1295)" width="8.582" height="8.583"/>
				<rect x="43.639" y="70.289" transform="matrix(0.7072 -0.707 0.707 0.7072 -38.6939 55.7182)" width="8.582" height="8.583"/>
				<rect x="19.342" y="70.289" transform="matrix(0.7072 -0.707 0.707 0.7072 -45.8083 38.5439)" width="8.582" height="8.582"/>
				<rect x="7.194" y="70.289" transform="matrix(0.7073 -0.7069 0.7069 0.7073 -49.3595 29.9482)" width="8.583" height="8.582"/>
				<rect x="-4.954" y="70.289" transform="matrix(0.7072 -0.707 0.707 0.7072 -52.9217 21.3667)" width="8.582" height="8.582"/>
				
					<rect x="-17.103" y="70.289" transform="matrix(0.7073 -0.7069 0.7069 0.7073 -56.4735 12.7745)" width="8.583" height="8.582"/>
			</g>
			<g>
				<rect x="25.419" y="76.356" transform="matrix(0.7071 -0.7071 0.7071 0.7071 -48.3225 44.6275)" width="8.585" height="8.584"/>
				<rect x="37.568" y="76.356" transform="matrix(0.7071 -0.7071 0.7071 0.7071 -44.7657 53.221)" width="8.585" height="8.584"/>
				<rect x="13.272" y="76.355" transform="matrix(0.7071 -0.7071 0.7071 0.7071 -51.8839 36.0433)" width="8.584" height="8.584"/>
				<rect x="1.123" y="76.355" transform="matrix(0.707 -0.7072 0.7072 0.707 -55.4468 27.4574)" width="8.584" height="8.584"/>
				<rect x="-11.025" y="76.355" transform="matrix(0.707 -0.7072 0.7072 0.707 -59.0034 18.8644)" width="8.584" height="8.585"/>
				<rect x="-23.173" y="76.355" transform="matrix(0.707 -0.7072 0.7072 0.707 -62.5652 10.2751)" width="8.584" height="8.585"/>
			</g>
			<g>
				<rect x="31.489" y="82.425" transform="matrix(0.7071 -0.7071 0.7071 0.7071 -50.8401 50.7037)" width="8.584" height="8.585"/>
				<rect x="43.638" y="82.425" transform="matrix(0.7071 -0.7071 0.7071 0.7071 -47.2815 59.2945)" width="8.584" height="8.585"/>
				<rect x="19.341" y="82.426" transform="matrix(0.707 -0.7072 0.7072 0.707 -54.4003 42.1164)" width="8.584" height="8.584"/>
				<rect x="7.193" y="82.426" transform="matrix(0.7071 -0.7071 0.7071 0.7071 -57.9526 33.5176)" width="8.585" height="8.584"/>
				<rect x="-4.955" y="82.426" transform="matrix(0.707 -0.7072 0.7072 0.707 -61.5179 24.9351)" width="8.584" height="8.584"/>
				
					<rect x="-17.104" y="82.426" transform="matrix(0.7071 -0.7071 0.7071 0.7071 -65.0711 16.3401)" width="8.585" height="8.584"/>
			</g>
		</g>
	</g>
</g>
</svg>
