<?xml version="1.0" encoding="utf-8"?>
<!-- Generator: Adobe Illustrator 14.0.0, SVG Export Plug-In . SVG Version: 6.00 Build 43363)  -->
<!DOCTYPE svg PUBLIC "-//W3C//DTD SVG 1.1//EN" "http://www.w3.org/Graphics/SVG/1.1/DTD/svg11.dtd">
<svg version="1.1" id="Layer_1" xmlns="http://www.w3.org/2000/svg" xmlns:xlink="http://www.w3.org/1999/xlink" x="0px" y="0px"
	 width="200px" height="200px" viewBox="0 0 200 200" enable-background="new 0 0 200 200" xml:space="preserve">
<g>
	<g opacity="0.31">
		<path fill="#231F20" d="M198.562,114.505l0.654-4.776l-25.898-2.381l2.237-23.016c0.788-8.086-3.476-15.408-9.914-17.031
			c-0.553-0.138-1.119-0.235-1.687-0.288l-32.731-3.006c-0.365-2.706-0.84-5.372-1.433-7.962c-0.702-3.083-1.571-6.091-2.517-8.705
			c-2.199-6.059-3.592-7.417-5.542-7.907l-0.333-0.084l-22.887-2.102c-2.637-0.241-4.407,1.35-7.586,6.808
			c-1.393,2.395-2.791,5.193-4.043,8.098c-1.042,2.422-1.996,4.94-2.851,7.521l-32.656-3.001c-3.658-0.335-7.354,1.204-10.143,4.222
			c-2.562,2.776-4.193,6.568-4.592,10.679l-2.243,23.014l-17.836-1.639l-0.277,4.813c-1.031,17.898,2.516,32.329,5.674,41.284
			c1.478,4.19,6.769,17.984,12.803,19.509c0.001-0.001,0.002-0.001,0.002-0.001c0.269,0.07,0.542,0.115,0.813,0.142l130.313,11.968
			c6.541,0.604,15.978-13.346,17.803-16.149C189.111,146.191,196.091,132.495,198.562,114.505z"/>
	</g>
	<g>
		<path fill="#FFFFFF" d="M195.247,110.216l0.657-4.777l-25.901-2.38l2.235-23.014c0.788-8.087-3.474-15.408-9.909-17.032
			c-0.556-0.138-1.123-0.235-1.689-0.287l-32.731-3.006c-0.362-2.705-0.843-5.371-1.43-7.962c-0.706-3.083-1.575-6.091-2.52-8.704
			c-2.199-6.061-3.592-7.42-5.543-7.91l-0.332-0.083l-22.887-2.102c-2.634-0.241-4.408,1.35-7.585,6.809
			c-1.393,2.394-2.792,5.192-4.041,8.096c-1.044,2.422-2,4.94-2.854,7.52L48.06,52.385c-3.655-0.338-7.351,1.203-10.14,4.222
			c-2.563,2.776-4.195,6.568-4.594,10.678l-2.24,23.013l-17.839-1.639l-0.278,4.813c-1.03,17.896,2.519,32.33,5.674,41.285
			c1.479,4.189,6.769,17.984,12.803,19.508c0-0.001,0.002,0.001,0.002,0.001c0.27,0.067,0.543,0.115,0.814,0.141l130.314,11.969
			c6.541,0.603,15.976-13.349,17.803-16.149C185.797,141.903,192.775,128.208,195.247,110.216z"/>
	</g>
	<g>
		<g>
			<g>
				<g>
					<defs>
						<path id="SVGID_1_" d="M122.164,52.886c-0.741-3.259-1.58-6.007-2.354-8.146c-1.174-3.238-2.197-5.075-2.501-5.104
							l-22.56-2.071c-0.304-0.028-1.63,1.593-3.36,4.562c-1.143,1.966-2.459,4.517-3.78,7.584c-2.8,6.498-5.61,15.287-6.758,25.614
							l43.156,3.963C124.868,68.938,123.735,59.785,122.164,52.886z"/>
					</defs>
					<clipPath id="SVGID_2_">
						<use xlink:href="#SVGID_1_"  overflow="visible"/>
					</clipPath>
					<g clip-path="url(#SVGID_2_)">
						<polygon fill="none" points="122.533,49.823 138.792,51.56 140.679,34.574 124.419,32.838 						"/>
						<polygon fill="#A3258D" points="138.792,51.56 122.533,49.823 124.419,32.838 140.679,34.574 						"/>
						<polygon fill="#672062" points="131.606,42.199 123.476,41.332 124.419,32.838 132.549,33.707 						"/>
						<polygon fill="#B95AA3" points="138.792,51.56 130.663,50.692 131.606,42.199 139.736,43.069 						"/>
					</g>
					<g clip-path="url(#SVGID_2_)">
						<polygon fill="none" points="120.65,66.809 136.907,68.546 138.792,51.56 122.533,49.823 						"/>
						<polygon fill="#A3258D" points="136.907,68.546 120.65,66.809 122.533,49.823 138.792,51.56 						"/>
						<polygon fill="#672062" points="129.72,59.185 121.592,58.317 122.533,49.823 130.663,50.692 						"/>
						<polygon fill="#B95AA3" points="136.907,68.546 128.778,67.678 129.72,59.185 137.852,60.053 						"/>
					</g>
					<g clip-path="url(#SVGID_2_)">
						<polygon fill="none" points="118.766,83.794 135.023,85.532 136.907,68.546 120.65,66.809 						"/>
						<polygon fill="#A3258D" points="135.023,85.532 118.766,83.794 120.65,66.809 136.907,68.546 						"/>
						<polygon fill="#672062" points="127.835,76.169 119.707,75.302 120.65,66.809 128.778,67.678 						"/>
						<polygon fill="#B95AA3" points="135.023,85.532 126.893,84.664 127.835,76.169 135.965,77.039 						"/>
					</g>
					<g clip-path="url(#SVGID_2_)">
						<polygon fill="none" points="106.277,48.088 122.533,49.823 124.419,32.838 108.162,31.103 						"/>
						<polygon fill="#A3258D" points="122.533,49.823 106.277,48.088 108.162,31.103 124.419,32.838 						"/>
						<polygon fill="#672062" points="115.35,40.463 107.22,39.595 108.162,31.103 116.292,31.971 						"/>
						<polygon fill="#B95AA3" points="122.533,49.823 114.405,48.955 115.35,40.463 123.476,41.332 						"/>
					</g>
					<g clip-path="url(#SVGID_2_)">
						<polygon fill="none" points="104.391,65.074 120.65,66.809 122.533,49.823 106.277,48.088 						"/>
						<polygon fill="#A3258D" points="120.65,66.809 104.391,65.074 106.277,48.088 122.533,49.823 						"/>
						<polygon fill="#672062" points="113.464,57.448 105.334,56.581 106.277,48.088 114.405,48.955 						"/>
						<polygon fill="#B95AA3" points="120.65,66.809 112.521,65.94 113.464,57.448 121.592,58.317 						"/>
					</g>
					<g clip-path="url(#SVGID_2_)">
						<polygon fill="none" points="102.508,82.058 118.766,83.794 120.65,66.809 104.391,65.074 						"/>
						<polygon fill="#A3258D" points="118.766,83.794 102.508,82.058 104.391,65.074 120.65,66.809 						"/>
						<polygon fill="#672062" points="111.579,74.435 103.449,73.565 104.391,65.074 112.521,65.94 						"/>
						<polygon fill="#B95AA3" points="118.766,83.794 110.636,82.927 111.579,74.435 119.707,75.302 						"/>
					</g>
					<g clip-path="url(#SVGID_2_)">
						<polygon fill="none" points="90.02,46.35 106.277,48.088 108.162,31.103 91.905,29.365 						"/>
						<polygon fill="#A3258D" points="106.277,48.088 90.02,46.35 91.905,29.365 108.162,31.103 						"/>
						<polygon fill="#672062" points="99.091,38.726 90.961,37.858 91.905,29.365 100.032,30.234 						"/>
						<polygon fill="#B95AA3" points="106.277,48.088 98.148,47.219 99.091,38.726 107.22,39.595 						"/>
					</g>
					<g clip-path="url(#SVGID_2_)">
						<polygon fill="none" points="88.135,63.336 104.391,65.074 106.277,48.088 90.02,46.35 						"/>
						<polygon fill="#A3258D" points="104.391,65.074 88.135,63.336 90.02,46.35 106.277,48.088 						"/>
						<polygon fill="#672062" points="97.206,55.712 89.077,54.844 90.02,46.35 98.148,47.219 						"/>
						<polygon fill="#B95AA3" points="104.391,65.074 96.261,64.205 97.206,55.712 105.334,56.581 						"/>
					</g>
					<g clip-path="url(#SVGID_2_)">
						<polygon fill="none" points="86.25,80.322 102.508,82.058 104.391,65.074 88.135,63.336 						"/>
						<polygon fill="#A3258D" points="102.508,82.058 86.25,80.322 88.135,63.336 104.391,65.074 						"/>
						<polygon fill="#672062" points="95.322,72.696 87.191,71.829 88.135,63.336 96.261,64.205 						"/>
						<polygon fill="#B95AA3" points="102.508,82.058 94.378,81.19 95.322,72.696 103.449,73.565 						"/>
					</g>
					<g clip-path="url(#SVGID_2_)">
						<polygon fill="none" points="73.762,44.615 90.02,46.35 91.905,29.365 75.647,27.629 						"/>
						<polygon fill="#A3258D" points="90.02,46.35 73.762,44.615 75.647,27.629 91.905,29.365 						"/>
						<polygon fill="#672062" points="82.833,36.99 74.705,36.122 75.647,27.629 83.777,28.497 						"/>
						<polygon fill="#B95AA3" points="90.02,46.35 81.892,45.483 82.833,36.99 90.961,37.858 						"/>
					</g>
					<g clip-path="url(#SVGID_2_)">
						<polygon fill="none" points="71.877,61.6 88.135,63.336 90.02,46.35 73.762,44.615 						"/>
						<polygon fill="#A3258D" points="88.135,63.336 71.877,61.6 73.762,44.615 90.02,46.35 						"/>
						<polygon fill="#672062" points="80.948,53.976 72.819,53.107 73.762,44.615 81.892,45.483 						"/>
						<polygon fill="#B95AA3" points="88.135,63.336 80.007,62.468 80.948,53.976 89.077,54.844 						"/>
					</g>
					<g clip-path="url(#SVGID_2_)">
						<polygon fill="none" points="69.991,78.585 86.25,80.322 88.135,63.336 71.877,61.6 						"/>
						<polygon fill="#A3258D" points="86.25,80.322 69.991,78.585 71.877,61.6 88.135,63.336 						"/>
						<polygon fill="#672062" points="79.064,70.961 70.935,70.092 71.877,61.6 80.007,62.468 						"/>
						<polygon fill="#B95AA3" points="86.25,80.322 78.121,79.454 79.064,70.961 87.191,71.829 						"/>
					</g>
				</g>
			</g>
		</g>
		<g>
			<g>
				<g>
					<defs>
						<path id="SVGID_3_" d="M164.711,111.719c-0.619,6.349-5.039,11.143-9.88,10.7L42.255,112.074
							c-4.839-0.444-8.261-5.956-7.645-12.31l3.124-32.075c0.617-6.354,5.042-11.144,9.88-10.7l112.578,10.341
							c4.837,0.444,8.256,5.957,7.64,12.309L164.711,111.719z"/>
					</defs>
					<clipPath id="SVGID_4_">
						<use xlink:href="#SVGID_3_"  overflow="visible"/>
					</clipPath>
					<g clip-path="url(#SVGID_4_)">
						<polygon fill="none" points="139.937,101.087 179.451,105.307 184.033,64.023 144.519,59.804 						"/>
						<polygon fill="#FFFFFF" points="179.451,105.307 139.937,101.087 144.519,59.804 184.033,64.023 						"/>
						<polygon fill="#F4CEDF" points="142.063,101.313 139.937,101.087 144.519,59.804 146.646,60.03 						"/>
						<polygon fill="#F4CEDF" points="146.463,101.784 144.335,101.558 148.918,60.273 151.045,60.501 						"/>
						<polygon fill="#F4CEDF" points="150.86,102.253 148.735,102.027 153.314,60.744 155.441,60.971 						"/>
						<polygon fill="#F4CEDF" points="155.26,102.724 153.131,102.496 157.714,61.213 159.84,61.44 						"/>
						<polygon fill="#F4CEDF" points="159.658,103.194 157.531,102.967 162.111,61.683 164.24,61.91 						"/>
						<polygon fill="#F4CEDF" points="164.057,103.663 161.928,103.436 166.512,62.152 168.637,62.379 						"/>
						<polygon fill="#F4CEDF" points="168.452,104.133 166.327,103.906 170.907,62.622 173.035,62.849 						"/>
						<polygon fill="#F4CEDF" points="172.854,104.603 170.724,104.375 175.306,63.092 177.434,63.318 						"/>
						<polygon fill="#F4CEDF" points="177.251,105.071 175.124,104.846 179.704,63.563 181.83,63.789 						"/>
					</g>
					<g clip-path="url(#SVGID_4_)">
						<polygon fill="none" points="135.357,142.37 174.871,146.591 179.451,105.307 139.937,101.087 						"/>
						<polygon fill="#FFFFFF" points="174.871,146.591 135.357,142.37 139.937,101.087 179.451,105.307 						"/>
						<polygon fill="#F4CEDF" points="137.484,142.597 135.357,142.37 139.937,101.087 142.063,101.313 						"/>
						<polygon fill="#F4CEDF" points="141.881,143.067 139.754,142.84 144.335,101.558 146.463,101.784 						"/>
						<polygon fill="#F4CEDF" points="146.28,143.537 144.152,143.31 148.735,102.027 150.86,102.253 						"/>
						<polygon fill="#F4CEDF" points="150.678,144.008 148.55,143.779 153.131,102.496 155.26,102.724 						"/>
						<polygon fill="#F4CEDF" points="155.075,144.478 152.948,144.25 157.531,102.967 159.658,103.194 						"/>
						<polygon fill="#F4CEDF" points="159.474,144.947 157.349,144.719 161.928,103.436 164.057,103.663 						"/>
						<polygon fill="#F4CEDF" points="163.871,145.417 161.744,145.188 166.327,103.906 168.452,104.133 						"/>
						<polygon fill="#F4CEDF" points="168.271,145.885 166.145,145.659 170.724,104.375 172.854,104.603 						"/>
						<polygon fill="#F4CEDF" points="172.67,146.356 170.541,146.13 175.124,104.846 177.251,105.071 						"/>
					</g>
					<g clip-path="url(#SVGID_4_)">
						<polygon fill="none" points="100.425,96.866 139.937,101.087 144.519,59.804 105.006,55.583 						"/>
						<polygon fill="#FFFFFF" points="139.937,101.087 100.425,96.866 105.006,55.583 144.519,59.804 						"/>
						<polygon fill="#F4CEDF" points="102.551,97.094 100.425,96.866 105.006,55.583 107.133,55.811 						"/>
						<polygon fill="#F4CEDF" points="106.949,97.564 104.822,97.336 109.402,56.053 111.529,56.28 						"/>
						<polygon fill="#F4CEDF" points="111.349,98.033 109.221,97.806 113.802,56.523 115.928,56.75 						"/>
						<polygon fill="#F4CEDF" points="115.745,98.504 113.619,98.276 118.199,56.993 120.327,57.22 						"/>
						<polygon fill="#F4CEDF" points="120.143,98.974 118.016,98.745 122.599,57.462 124.725,57.689 						"/>
						<polygon fill="#F4CEDF" points="124.541,99.442 122.415,99.216 126.996,57.932 129.124,58.159 						"/>
						<polygon fill="#F4CEDF" points="128.94,99.912 126.813,99.686 131.396,58.401 133.521,58.629 						"/>
						<polygon fill="#F4CEDF" points="133.338,100.383 131.212,100.155 135.792,58.871 137.921,59.099 						"/>
						<polygon fill="#F4CEDF" points="137.738,100.852 135.608,100.624 140.191,59.341 142.317,59.568 						"/>
					</g>
					<g clip-path="url(#SVGID_4_)">
						<polygon fill="none" points="95.842,138.149 135.357,142.37 139.937,101.087 100.425,96.866 						"/>
						<polygon fill="#FFFFFF" points="135.357,142.37 95.842,138.149 100.425,96.866 139.937,101.087 						"/>
						<polygon fill="#F4CEDF" points="97.969,138.377 95.842,138.149 100.425,96.866 102.551,97.094 						"/>
						<polygon fill="#F4CEDF" points="102.368,138.847 100.24,138.619 104.822,97.336 106.949,97.564 						"/>
						<polygon fill="#F4CEDF" points="106.766,139.317 104.638,139.089 109.221,97.806 111.349,98.033 						"/>
						<polygon fill="#F4CEDF" points="111.164,139.788 109.037,139.56 113.619,98.276 115.745,98.504 						"/>
						<polygon fill="#F4CEDF" points="115.561,140.257 113.435,140.028 118.016,98.745 120.143,98.974 						"/>
						<polygon fill="#F4CEDF" points="119.961,140.727 117.834,140.497 122.415,99.216 124.541,99.442 						"/>
						<polygon fill="#F4CEDF" points="124.359,141.196 122.233,140.969 126.813,99.686 128.94,99.912 						"/>
						<polygon fill="#F4CEDF" points="128.758,141.665 126.629,141.438 131.212,100.155 133.338,100.383 						"/>
						<polygon fill="#F4CEDF" points="133.154,142.136 131.028,141.908 135.608,100.624 137.738,100.852 						"/>
					</g>
					<g clip-path="url(#SVGID_4_)">
						<polygon fill="none" points="60.911,92.646 100.425,96.866 105.006,55.583 65.491,51.363 						"/>
						<polygon fill="#FFFFFF" points="100.425,96.866 60.911,92.646 65.491,51.363 105.006,55.583 						"/>
						<polygon fill="#F4CEDF" points="63.036,92.874 60.911,92.646 65.491,51.363 67.619,51.59 						"/>
						<polygon fill="#F4CEDF" points="67.436,93.343 65.309,93.116 69.89,51.833 72.017,52.06 						"/>
						<polygon fill="#F4CEDF" points="71.834,93.813 69.707,93.585 74.288,52.302 76.415,52.53 						"/>
						<polygon fill="#F4CEDF" points="76.232,94.283 74.104,94.055 78.687,52.771 80.815,52.999 						"/>
						<polygon fill="#F4CEDF" points="80.631,94.752 78.503,94.525 83.084,53.242 85.211,53.469 						"/>
						<polygon fill="#F4CEDF" points="85.029,95.222 82.903,94.995 87.482,53.711 89.611,53.939 						"/>
						<polygon fill="#F4CEDF" points="89.426,95.691 87.299,95.464 91.88,54.182 94.008,54.408 						"/>
						<polygon fill="#F4CEDF" points="93.825,96.162 91.697,95.935 96.279,54.651 98.406,54.878 						"/>
						<polygon fill="#F4CEDF" points="98.222,96.632 96.097,96.404 100.676,55.121 102.806,55.348 						"/>
					</g>
					<g clip-path="url(#SVGID_4_)">
						<polygon fill="none" points="56.328,133.929 95.842,138.149 100.425,96.866 60.911,92.646 						"/>
						<polygon fill="#FFFFFF" points="95.842,138.149 56.328,133.929 60.911,92.646 100.425,96.866 						"/>
						<polygon fill="#F4CEDF" points="58.456,134.157 56.328,133.929 60.911,92.646 63.036,92.874 						"/>
						<polygon fill="#F4CEDF" points="62.855,134.628 60.727,134.398 65.309,93.116 67.436,93.343 						"/>
						<polygon fill="#F4CEDF" points="67.252,135.097 65.126,134.867 69.707,93.585 71.834,93.813 						"/>
						<polygon fill="#F4CEDF" points="71.65,135.566 69.523,135.339 74.104,94.055 76.232,94.283 						"/>
						<polygon fill="#F4CEDF" points="76.049,136.037 73.92,135.809 78.503,94.525 80.631,94.752 						"/>
						<polygon fill="#F4CEDF" points="80.445,136.505 78.321,136.277 82.903,94.995 85.029,95.222 						"/>
						<polygon fill="#F4CEDF" points="84.845,136.976 82.717,136.748 87.299,95.464 89.426,95.691 						"/>
						<polygon fill="#F4CEDF" points="89.242,137.445 87.116,137.218 91.697,95.935 93.825,96.162 						"/>
						<polygon fill="#F4CEDF" points="93.642,137.914 91.515,137.688 96.097,96.404 98.222,96.632 						"/>
					</g>
					<g clip-path="url(#SVGID_4_)">
						<polygon fill="none" points="21.396,88.425 60.911,92.646 65.491,51.363 25.979,47.143 						"/>
						<polygon fill="#FFFFFF" points="60.911,92.646 21.396,88.425 25.979,47.143 65.491,51.363 						"/>
						<polygon fill="#F4CEDF" points="23.524,88.652 21.396,88.425 25.979,47.143 28.105,47.369 						"/>
						<polygon fill="#F4CEDF" points="27.923,89.122 25.794,88.895 30.376,47.612 32.503,47.839 						"/>
						<polygon fill="#F4CEDF" points="32.32,89.592 30.193,89.365 34.774,48.082 36.902,48.31 						"/>
						<polygon fill="#F4CEDF" points="36.718,90.063 34.591,89.835 39.173,48.551 41.3,48.778 						"/>
						<polygon fill="#F4CEDF" points="41.116,90.532 38.989,90.305 43.571,49.021 45.698,49.248 						"/>
						<polygon fill="#F4CEDF" points="45.514,91.001 43.388,90.774 47.969,49.491 50.097,49.717 						"/>
						<polygon fill="#F4CEDF" points="49.913,91.471 47.785,91.244 52.368,49.96 54.494,50.187 						"/>
						<polygon fill="#F4CEDF" points="54.311,91.941 52.184,91.713 56.765,50.43 58.893,50.657 						"/>
						<polygon fill="#F4CEDF" points="58.709,92.411 56.582,92.184 61.164,50.901 63.291,51.127 						"/>
					</g>
					<g clip-path="url(#SVGID_4_)">
						<polygon fill="none" points="16.815,129.708 56.328,133.929 60.911,92.646 21.396,88.425 						"/>
						<polygon fill="#FFFFFF" points="56.328,133.929 16.815,129.708 21.396,88.425 60.911,92.646 						"/>
						<polygon fill="#F4CEDF" points="18.942,129.936 16.815,129.708 21.396,88.425 23.524,88.652 						"/>
						<polygon fill="#F4CEDF" points="23.341,130.406 21.213,130.179 25.794,88.895 27.923,89.122 						"/>
						<polygon fill="#F4CEDF" points="27.737,130.875 25.612,130.648 30.193,89.365 32.32,89.592 						"/>
						<polygon fill="#F4CEDF" points="32.137,131.345 30.011,131.118 34.591,89.835 36.718,90.063 						"/>
						<polygon fill="#F4CEDF" points="36.536,131.815 34.408,131.588 38.989,90.305 41.116,90.532 						"/>
						<polygon fill="#F4CEDF" points="40.934,132.285 38.806,132.058 43.388,90.774 45.514,91.001 						"/>
						<polygon fill="#F4CEDF" points="45.331,132.755 43.204,132.527 47.785,91.244 49.913,91.471 						"/>
						<polygon fill="#F4CEDF" points="49.73,133.224 47.601,132.998 52.184,91.713 54.311,91.941 						"/>
						<polygon fill="#F4CEDF" points="54.128,133.693 52.001,133.469 56.582,92.184 58.709,92.411 						"/>
					</g>
				</g>
				<path fill="#C96FAC" d="M42.027,113.215c-5.366-0.574-9.188-6.653-8.52-13.551l3.125-32.076
					c0.323-3.332,1.625-6.384,3.666-8.593c2.107-2.282,4.744-3.404,7.428-3.156l112.694,10.353c5.364,0.572,9.185,6.65,8.513,13.549
					l-3.119,32.08c-0.684,6.978-5.658,12.248-11.095,11.749L42.027,113.215z M160.165,68.491l-0.085-0.009L47.501,58.141
					c-1.999-0.184-3.992,0.686-5.618,2.445c-1.693,1.833-2.774,4.391-3.048,7.206l-3.123,32.074
					c-0.547,5.647,2.399,10.604,6.569,11.049l0.085,0.008l112.575,10.345c4.223,0.388,8.108-3.94,8.668-9.649l3.118-32.08
					C167.278,73.891,164.333,68.936,160.165,68.491z"/>
			</g>
		</g>
		<g>
			<g>
				<path fill="#FFFFFF" d="M110.166,88.218c-0.203,2.115-2.017,3.682-4.044,3.498l-10.119-0.929
					c-2.029-0.186-3.507-2.056-3.301-4.175l0.654-6.688c0.204-2.117,2.013-3.683,4.043-3.497l10.12,0.926
					c2.027,0.188,3.505,2.057,3.297,4.174L110.166,88.218z"/>
				<path fill="#BD4D9C" d="M95.908,91.165c-2.194-0.234-3.796-2.293-3.573-4.588l0.653-6.688c0.11-1.126,0.63-2.147,1.471-2.873
					c0.843-0.727,1.898-1.072,2.978-0.973l10.118,0.925c0.001,0,0,0.001,0,0.001c2.253,0.24,3.854,2.298,3.629,4.592l-0.65,6.689
					c-0.225,2.324-2.22,4.051-4.447,3.848L95.908,91.165z M107.524,77.742l-10.161-0.931c-0.882-0.081-1.75,0.202-2.437,0.796
					c-0.686,0.594-1.115,1.429-1.205,2.35l-0.65,6.688c-0.185,1.877,1.127,3.562,2.92,3.753l-0.043,0.383l0.094-0.378l10.118,0.929
					c1.82,0.166,3.454-1.246,3.638-3.148l0.651-6.69C110.634,79.616,109.321,77.933,107.524,77.742z"/>
			</g>
		</g>
		<g>
			<g>
				<path fill="#FFFFFF" d="M147.691,91.662c-0.208,2.118-2.016,3.687-4.048,3.498l-10.118-0.927
					c-2.025-0.188-3.505-2.057-3.297-4.175l0.649-6.685c0.207-2.12,2.021-3.687,4.043-3.499l10.119,0.929
					c2.032,0.185,3.511,2.056,3.303,4.171L147.691,91.662z"/>
				<path fill="#BD4D9C" d="M133.434,94.611c-2.195-0.234-3.797-2.292-3.572-4.588l0.649-6.685c0.11-1.129,0.635-2.151,1.477-2.879
					c0.843-0.725,1.897-1.07,2.973-0.969l10.116,0.929c0.001-0.001,0.001,0,0.001,0c2.258,0.241,3.859,2.295,3.634,4.59
					l-0.651,6.686c-0.111,1.128-0.633,2.149-1.475,2.876c-0.842,0.727-1.898,1.074-2.978,0.973L133.434,94.611z M145.054,81.19
					l-10.168-0.932c-0.882-0.083-1.743,0.199-2.431,0.792c-0.69,0.595-1.118,1.432-1.208,2.355l-0.651,6.686
					c-0.184,1.877,1.126,3.56,2.922,3.753l-0.041,0.383l0.088-0.378l10.117,0.927c0.884,0.083,1.749-0.201,2.438-0.795
					s1.114-1.43,1.203-2.354l0.653-6.687C148.158,83.065,146.849,81.383,145.054,81.19z"/>
			</g>
		</g>
		<g>
			<g>
				<g>
					<defs>
						<path id="SVGID_5_" d="M17.395,93.687c-1.833,31.802,11.566,55.771,15.314,56.114l130.315,11.969
							c3.753,0.345,23.5-20.579,27.835-52.147L17.395,93.687z"/>
					</defs>
					<clipPath id="SVGID_6_">
						<use xlink:href="#SVGID_5_"  overflow="visible"/>
					</clipPath>
					<g clip-path="url(#SVGID_6_)">
						<polygon fill="none" points="175.225,118.484 196.902,120.8 199.415,98.151 177.738,95.835 						"/>
						<polygon fill="#A3258D" points="196.902,120.8 175.225,118.484 177.738,95.835 199.415,98.151 						"/>
						<polygon fill="#672062" points="187.319,108.316 176.48,107.159 177.738,95.835 188.577,96.992 						"/>
						<polygon fill="#B95AA3" points="196.902,120.8 186.063,119.64 187.319,108.316 198.159,109.475 						"/>
					</g>
					<g clip-path="url(#SVGID_6_)">
						<polygon fill="none" points="172.711,141.132 194.389,143.446 196.902,120.8 175.225,118.484 						"/>
						<polygon fill="#A3258D" points="194.389,143.446 172.711,141.132 175.225,118.484 196.902,120.8 						"/>
						<polygon fill="#672062" points="184.808,130.964 173.967,129.806 175.225,118.484 186.063,119.64 						"/>
						<polygon fill="#B95AA3" points="194.389,143.446 183.55,142.288 184.808,130.964 195.646,132.122 						"/>
					</g>
					<g clip-path="url(#SVGID_6_)">
						<polygon fill="none" points="170.199,163.78 191.876,166.095 194.389,143.446 172.711,141.132 						"/>
						<polygon fill="#A3258D" points="191.876,166.095 170.199,163.78 172.711,141.132 194.389,143.446 						"/>
						<polygon fill="#672062" points="182.293,153.612 171.454,152.454 172.711,141.132 183.55,142.288 						"/>
						<polygon fill="#B95AA3" points="191.876,166.095 181.037,164.937 182.293,153.612 193.131,154.771 						"/>
					</g>
					<g clip-path="url(#SVGID_6_)">
						<polygon fill="none" points="167.685,186.427 189.362,188.742 191.876,166.095 170.199,163.78 						"/>
						<polygon fill="#A3258D" points="189.362,188.742 167.685,186.427 170.199,163.78 191.876,166.095 						"/>
						<polygon fill="#672062" points="179.781,176.261 168.941,175.103 170.199,163.78 181.037,164.937 						"/>
						<polygon fill="#B95AA3" points="189.362,188.742 178.523,187.585 179.781,176.261 190.619,177.419 						"/>
					</g>
					<g clip-path="url(#SVGID_6_)">
						<polygon fill="none" points="153.548,116.169 175.225,118.484 177.738,95.835 156.062,93.52 						"/>
						<polygon fill="#A3258D" points="175.225,118.484 153.548,116.169 156.062,93.52 177.738,95.835 						"/>
						<polygon fill="#672062" points="165.643,106.002 154.805,104.844 156.062,93.52 166.897,94.677 						"/>
						<polygon fill="#B95AA3" points="175.225,118.484 164.388,117.325 165.643,106.002 176.48,107.159 						"/>
					</g>
					<g clip-path="url(#SVGID_6_)">
						<polygon fill="none" points="151.035,138.815 172.711,141.132 175.225,118.484 153.548,116.169 						"/>
						<polygon fill="#A3258D" points="172.711,141.132 151.035,138.815 153.548,116.169 175.225,118.484 						"/>
						<polygon fill="#672062" points="163.129,128.65 152.292,127.492 153.548,116.169 164.388,117.325 						"/>
						<polygon fill="#B95AA3" points="172.711,141.132 161.873,139.974 163.129,128.65 173.967,129.806 						"/>
					</g>
					<g clip-path="url(#SVGID_6_)">
						<polygon fill="none" points="148.521,161.464 170.199,163.78 172.711,141.132 151.035,138.815 						"/>
						<polygon fill="#A3258D" points="170.199,163.78 148.521,161.464 151.035,138.815 172.711,141.132 						"/>
						<polygon fill="#672062" points="160.616,151.296 149.777,150.141 151.035,138.815 161.873,139.974 						"/>
						<polygon fill="#B95AA3" points="170.199,163.78 159.361,162.622 160.616,151.296 171.454,152.454 						"/>
					</g>
					<g clip-path="url(#SVGID_6_)">
						<polygon fill="none" points="146.007,184.112 167.685,186.427 170.199,163.78 148.521,161.464 						"/>
						<polygon fill="#A3258D" points="167.685,186.427 146.007,184.112 148.521,161.464 170.199,163.78 						"/>
						<polygon fill="#672062" points="158.103,173.944 147.266,172.787 148.521,161.464 159.361,162.622 						"/>
						<polygon fill="#B95AA3" points="167.685,186.427 156.847,185.271 158.103,173.944 168.941,175.103 						"/>
					</g>
					<g clip-path="url(#SVGID_6_)">
						<polygon fill="none" points="131.87,113.853 153.548,116.169 156.062,93.52 134.384,91.205 						"/>
						<polygon fill="#A3258D" points="153.548,116.169 131.87,113.853 134.384,91.205 156.062,93.52 						"/>
						<polygon fill="#672062" points="143.965,103.686 133.128,102.527 134.384,91.205 145.222,92.363 						"/>
						<polygon fill="#B95AA3" points="153.548,116.169 142.709,115.01 143.965,103.686 154.805,104.844 						"/>
					</g>
					<g clip-path="url(#SVGID_6_)">
						<polygon fill="none" points="129.357,136.5 151.035,138.815 153.548,116.169 131.87,113.853 						"/>
						<polygon fill="#A3258D" points="151.035,138.815 129.357,136.5 131.87,113.853 153.548,116.169 						"/>
						<polygon fill="#672062" points="141.452,126.334 130.613,125.176 131.87,113.853 142.709,115.01 						"/>
						<polygon fill="#B95AA3" points="151.035,138.815 140.196,137.658 141.452,126.334 152.292,127.492 						"/>
					</g>
					<g clip-path="url(#SVGID_6_)">
						<polygon fill="none" points="126.844,159.148 148.521,161.464 151.035,138.815 129.357,136.5 						"/>
						<polygon fill="#A3258D" points="148.521,161.464 126.844,159.148 129.357,136.5 151.035,138.815 						"/>
						<polygon fill="#672062" points="138.939,148.982 128.103,147.824 129.357,136.5 140.196,137.658 						"/>
						<polygon fill="#B95AA3" points="148.521,161.464 137.682,160.307 138.939,148.982 149.777,150.141 						"/>
					</g>
					<g clip-path="url(#SVGID_6_)">
						<polygon fill="none" points="124.33,181.797 146.007,184.112 148.521,161.464 126.844,159.148 						"/>
						<polygon fill="#A3258D" points="146.007,184.112 124.33,181.797 126.844,159.148 148.521,161.464 						"/>
						<polygon fill="#672062" points="136.426,171.629 125.589,170.473 126.844,159.148 137.682,160.307 						"/>
						<polygon fill="#B95AA3" points="146.007,184.112 135.17,182.954 136.426,171.629 147.266,172.787 						"/>
					</g>
					<g clip-path="url(#SVGID_6_)">
						<polygon fill="none" points="110.194,111.538 131.87,113.853 134.384,91.205 112.707,88.889 						"/>
						<polygon fill="#A3258D" points="131.87,113.853 110.194,111.538 112.707,88.889 134.384,91.205 						"/>
						<polygon fill="#672062" points="122.287,101.37 111.451,100.212 112.707,88.889 123.546,90.046 						"/>
						<polygon fill="#B95AA3" points="131.87,113.853 121.031,112.693 122.287,101.37 133.128,102.527 						"/>
					</g>
					<g clip-path="url(#SVGID_6_)">
						<polygon fill="none" points="107.682,134.186 129.357,136.5 131.87,113.853 110.194,111.538 						"/>
						<polygon fill="#A3258D" points="129.357,136.5 107.682,134.186 110.194,111.538 131.87,113.853 						"/>
						<polygon fill="#672062" points="119.775,124.018 108.936,122.86 110.194,111.538 121.031,112.693 						"/>
						<polygon fill="#B95AA3" points="129.357,136.5 118.52,135.343 119.775,124.018 130.613,125.176 						"/>
					</g>
					<g clip-path="url(#SVGID_6_)">
						<polygon fill="none" points="105.167,156.834 126.844,159.148 129.357,136.5 107.682,134.186 						"/>
						<polygon fill="#A3258D" points="126.844,159.148 105.167,156.834 107.682,134.186 129.357,136.5 						"/>
						<polygon fill="#672062" points="117.263,146.666 106.425,145.508 107.682,134.186 118.52,135.343 						"/>
						<polygon fill="#B95AA3" points="126.844,159.148 116.006,157.99 117.263,146.666 128.103,147.824 						"/>
					</g>
					<g clip-path="url(#SVGID_6_)">
						<polygon fill="none" points="102.654,179.48 124.33,181.797 126.844,159.148 105.167,156.834 						"/>
						<polygon fill="#A3258D" points="124.33,181.797 102.654,179.48 105.167,156.834 126.844,159.148 						"/>
						<polygon fill="#672062" points="114.748,169.315 103.909,168.156 105.167,156.834 116.006,157.99 						"/>
						<polygon fill="#B95AA3" points="124.33,181.797 113.493,180.639 114.748,169.315 125.589,170.473 						"/>
					</g>
					<g clip-path="url(#SVGID_6_)">
						<polygon fill="none" points="88.515,109.222 110.194,111.538 112.707,88.889 91.029,86.574 						"/>
						<polygon fill="#A3258D" points="110.194,111.538 88.515,109.222 91.029,86.574 112.707,88.889 						"/>
						<polygon fill="#672062" points="100.612,99.056 89.773,97.896 91.029,86.574 101.868,87.731 						"/>
						<polygon fill="#B95AA3" points="110.194,111.538 99.355,110.38 100.612,99.056 111.451,100.212 						"/>
					</g>
					<g clip-path="url(#SVGID_6_)">
						<polygon fill="none" points="86.004,131.87 107.682,134.186 110.194,111.538 88.515,109.222 						"/>
						<polygon fill="#A3258D" points="107.682,134.186 86.004,131.87 88.515,109.222 110.194,111.538 						"/>
						<polygon fill="#672062" points="98.098,121.703 87.26,120.545 88.515,109.222 99.355,110.38 						"/>
						<polygon fill="#B95AA3" points="107.682,134.186 96.841,133.027 98.098,121.703 108.936,122.86 						"/>
					</g>
					<g clip-path="url(#SVGID_6_)">
						<polygon fill="none" points="83.489,154.517 105.167,156.834 107.682,134.186 86.004,131.87 						"/>
						<polygon fill="#A3258D" points="105.167,156.834 83.489,154.517 86.004,131.87 107.682,134.186 						"/>
						<polygon fill="#672062" points="95.586,144.35 84.747,143.194 86.004,131.87 96.841,133.027 						"/>
						<polygon fill="#B95AA3" points="105.167,156.834 94.329,155.676 95.586,144.35 106.425,145.508 						"/>
					</g>
					<g clip-path="url(#SVGID_6_)">
						<polygon fill="none" points="80.976,177.166 102.654,179.48 105.167,156.834 83.489,154.517 						"/>
						<polygon fill="#A3258D" points="102.654,179.48 80.976,177.166 83.489,154.517 105.167,156.834 						"/>
						<polygon fill="#672062" points="93.07,166.998 82.233,165.842 83.489,154.517 94.329,155.676 						"/>
						<polygon fill="#B95AA3" points="102.654,179.48 91.815,178.323 93.07,166.998 103.909,168.156 						"/>
					</g>
					<g clip-path="url(#SVGID_6_)">
						<polygon fill="none" points="66.84,106.907 88.515,109.222 91.029,86.574 69.353,84.259 						"/>
						<polygon fill="#A3258D" points="88.515,109.222 66.84,106.907 69.353,84.259 91.029,86.574 						"/>
						<polygon fill="#672062" points="78.936,96.739 68.096,95.582 69.353,84.259 80.192,85.416 						"/>
						<polygon fill="#B95AA3" points="88.515,109.222 77.677,108.063 78.936,96.739 89.773,97.896 						"/>
					</g>
					<g clip-path="url(#SVGID_6_)">
						<polygon fill="none" points="64.326,129.554 86.004,131.87 88.515,109.222 66.84,106.907 						"/>
						<polygon fill="#A3258D" points="86.004,131.87 64.326,129.554 66.84,106.907 88.515,109.222 						"/>
						<polygon fill="#672062" points="76.421,119.388 65.583,118.229 66.84,106.907 77.677,108.063 						"/>
						<polygon fill="#B95AA3" points="86.004,131.87 75.164,130.713 76.421,119.388 87.26,120.545 						"/>
					</g>
					<g clip-path="url(#SVGID_6_)">
						<polygon fill="none" points="61.813,152.202 83.489,154.517 86.004,131.87 64.326,129.554 						"/>
						<polygon fill="#A3258D" points="83.489,154.517 61.813,152.202 64.326,129.554 86.004,131.87 						"/>
						<polygon fill="#672062" points="73.908,142.036 63.069,140.878 64.326,129.554 75.164,130.713 						"/>
						<polygon fill="#B95AA3" points="83.489,154.517 72.651,153.36 73.908,142.036 84.747,143.194 						"/>
					</g>
					<g clip-path="url(#SVGID_6_)">
						<polygon fill="none" points="59.299,174.852 80.976,177.166 83.489,154.517 61.813,152.202 						"/>
						<polygon fill="#A3258D" points="80.976,177.166 59.299,174.852 61.813,152.202 83.489,154.517 						"/>
						<polygon fill="#672062" points="71.395,164.684 60.556,163.526 61.813,152.202 72.651,153.36 						"/>
						<polygon fill="#B95AA3" points="80.976,177.166 70.138,176.008 71.395,164.684 82.233,165.842 						"/>
					</g>
					<g clip-path="url(#SVGID_6_)">
						<polygon fill="none" points="45.163,104.592 66.84,106.907 69.353,84.259 47.674,81.944 						"/>
						<polygon fill="#A3258D" points="66.84,106.907 45.163,104.592 47.674,81.944 69.353,84.259 						"/>
						<polygon fill="#672062" points="57.257,94.424 46.42,93.268 47.674,81.944 58.514,83.1 						"/>
						<polygon fill="#B95AA3" points="66.84,106.907 56.001,105.748 57.257,94.424 68.096,95.582 						"/>
					</g>
					<g clip-path="url(#SVGID_6_)">
						<polygon fill="none" points="42.648,127.237 64.326,129.554 66.84,106.907 45.163,104.592 						"/>
						<polygon fill="#A3258D" points="64.326,129.554 42.648,127.237 45.163,104.592 66.84,106.907 						"/>
						<polygon fill="#672062" points="54.744,117.072 43.906,115.915 45.163,104.592 56.001,105.748 						"/>
						<polygon fill="#B95AA3" points="64.326,129.554 53.487,128.396 54.744,117.072 65.583,118.229 						"/>
					</g>
					<g clip-path="url(#SVGID_6_)">
						<polygon fill="none" points="40.135,149.887 61.813,152.202 64.326,129.554 42.648,127.237 						"/>
						<polygon fill="#A3258D" points="61.813,152.202 40.135,149.887 42.648,127.237 64.326,129.554 						"/>
						<polygon fill="#672062" points="52.23,139.72 41.393,138.563 42.648,127.237 53.487,128.396 						"/>
						<polygon fill="#B95AA3" points="61.813,152.202 50.974,151.046 52.23,139.72 63.069,140.878 						"/>
					</g>
					<g clip-path="url(#SVGID_6_)">
						<polygon fill="none" points="37.623,172.534 59.299,174.852 61.813,152.202 40.135,149.887 						"/>
						<polygon fill="#A3258D" points="59.299,174.852 37.623,172.534 40.135,149.887 61.813,152.202 						"/>
						<polygon fill="#672062" points="49.718,162.368 38.879,161.21 40.135,149.887 50.974,151.046 						"/>
						<polygon fill="#B95AA3" points="59.299,174.852 48.46,173.692 49.718,162.368 60.556,163.526 						"/>
					</g>
					<g clip-path="url(#SVGID_6_)">
						<polygon fill="none" points="23.486,102.275 45.163,104.592 47.674,81.944 25.999,79.628 						"/>
						<polygon fill="#A3258D" points="45.163,104.592 23.486,102.275 25.999,79.628 47.674,81.944 						"/>
						<polygon fill="#672062" points="35.581,92.108 24.742,90.951 25.999,79.628 36.836,80.785 						"/>
						<polygon fill="#B95AA3" points="45.163,104.592 34.323,103.434 35.581,92.108 46.42,93.268 						"/>
					</g>
					<g clip-path="url(#SVGID_6_)">
						<polygon fill="none" points="20.972,124.924 42.648,127.237 45.163,104.592 23.486,102.275 						"/>
						<polygon fill="#A3258D" points="42.648,127.237 20.972,124.924 23.486,102.275 45.163,104.592 						"/>
						<polygon fill="#672062" points="33.067,114.758 22.229,113.6 23.486,102.275 34.323,103.434 						"/>
						<polygon fill="#B95AA3" points="42.648,127.237 31.81,126.081 33.067,114.758 43.906,115.915 						"/>
					</g>
					<g clip-path="url(#SVGID_6_)">
						<polygon fill="none" points="18.459,147.572 40.135,149.887 42.648,127.237 20.972,124.924 						"/>
						<polygon fill="#A3258D" points="40.135,149.887 18.459,147.572 20.972,124.924 42.648,127.237 						"/>
						<polygon fill="#672062" points="30.554,137.405 19.715,136.248 20.972,124.924 31.81,126.081 						"/>
						<polygon fill="#B95AA3" points="40.135,149.887 29.297,148.729 30.554,137.405 41.393,138.563 						"/>
					</g>
					<g clip-path="url(#SVGID_6_)">
						<polygon fill="none" points="15.945,170.22 37.623,172.534 40.135,149.887 18.459,147.572 						"/>
						<polygon fill="#A3258D" points="37.623,172.534 15.945,170.22 18.459,147.572 40.135,149.887 						"/>
						<polygon fill="#672062" points="28.039,160.052 17.202,158.894 18.459,147.572 29.297,148.729 						"/>
						<polygon fill="#B95AA3" points="37.623,172.534 26.784,171.378 28.039,160.052 38.879,161.21 						"/>
					</g>
					<g clip-path="url(#SVGID_6_)">
						<polygon fill="none" points="1.808,99.96 23.486,102.275 25.999,79.628 4.321,77.312 						"/>
						<polygon fill="#A3258D" points="23.486,102.275 1.808,99.96 4.321,77.312 25.999,79.628 						"/>
						<polygon fill="#672062" points="13.903,89.793 3.067,88.636 4.321,77.312 15.16,78.47 						"/>
						<polygon fill="#B95AA3" points="23.486,102.275 12.646,101.117 13.903,89.793 24.742,90.951 						"/>
					</g>
					<g clip-path="url(#SVGID_6_)">
						<polygon fill="none" points="-0.706,122.609 20.972,124.924 23.486,102.275 1.808,99.96 						"/>
						<polygon fill="#A3258D" points="20.972,124.924 -0.706,122.609 1.808,99.96 23.486,102.275 						"/>
						<polygon fill="#672062" points="11.39,112.441 0.552,111.283 1.808,99.96 12.646,101.117 						"/>
						<polygon fill="#B95AA3" points="20.972,124.924 10.133,123.766 11.39,112.441 22.229,113.6 						"/>
					</g>
					<g clip-path="url(#SVGID_6_)">
						<polygon fill="none" points="-3.217,145.257 18.459,147.572 20.972,124.924 -0.706,122.609 						"/>
						<polygon fill="#A3258D" points="18.459,147.572 -3.217,145.257 -0.706,122.609 20.972,124.924 						"/>
						<polygon fill="#672062" points="8.876,135.09 -1.961,133.932 -0.706,122.609 10.133,123.766 						"/>
						<polygon fill="#B95AA3" points="18.459,147.572 7.619,146.414 8.876,135.09 19.715,136.248 						"/>
					</g>
					<g clip-path="url(#SVGID_6_)">
						<polygon fill="none" points="-5.732,167.904 15.945,170.22 18.459,147.572 -3.217,145.257 						"/>
						<polygon fill="#A3258D" points="15.945,170.22 -5.732,167.904 -3.217,145.257 18.459,147.572 						"/>
						<polygon fill="#672062" points="6.363,157.738 -4.476,156.58 -3.217,145.257 7.619,146.414 						"/>
						<polygon fill="#B95AA3" points="15.945,170.22 5.105,169.062 6.363,157.738 17.202,158.894 						"/>
					</g>
				</g>
			</g>
		</g>
		<g>
			<g>
				<path fill="#FFFFFF" d="M72.3,84.218c-0.208,2.119-2.018,3.685-4.044,3.499l-10.12-0.928c-2.028-0.185-3.504-2.057-3.297-4.175
					l0.65-6.688c0.205-2.115,2.018-3.682,4.046-3.495l10.117,0.927c2.028,0.187,3.504,2.055,3.298,4.175L72.3,84.218z"/>
				<path fill="#BD4D9C" d="M58.041,87.167c-2.193-0.234-3.794-2.292-3.571-4.586l0.651-6.69c0.107-1.124,0.63-2.144,1.47-2.87
					c0.843-0.727,1.9-1.073,2.98-0.973l10.117,0.925l0,0c2.252,0.24,3.851,2.298,3.628,4.593l-0.649,6.687
					c-0.226,2.326-2.222,4.051-4.449,3.849L58.041,87.167z M69.659,73.746l-10.162-0.931c-0.885-0.081-1.75,0.202-2.438,0.797
					c-0.688,0.595-1.115,1.428-1.204,2.348l-0.651,6.689c-0.182,1.877,1.128,3.56,2.92,3.752l-0.042,0.383l0.092-0.38l10.118,0.929
					c1.821,0.166,3.455-1.246,3.642-3.148l0.648-6.687C72.765,75.621,71.455,73.938,69.659,73.746z"/>
			</g>
		</g>
	</g>
</g>
</svg>
