<?xml version="1.0" encoding="utf-8"?>
<!-- Generator: Adobe Illustrator 16.0.0, SVG Export Plug-In . SVG Version: 6.00 Build 0)  -->
<!DOCTYPE svg PUBLIC "-//W3C//DTD SVG 1.1//EN" "http://www.w3.org/Graphics/SVG/1.1/DTD/svg11.dtd">
<svg version="1.1" id="Layer_1" xmlns="http://www.w3.org/2000/svg" xmlns:xlink="http://www.w3.org/1999/xlink" x="0px" y="0px"
	 width="95px" height="95px" viewBox="0 0 95 95" enable-background="new 0 0 95 95" xml:space="preserve">
<g>
	<path d="M49.315,0.688c7.21,0,13.055,5.845,13.055,13.053c0,7.209-5.845,13.057-13.055,13.057S36.261,20.95,36.261,13.741
		C36.261,6.533,42.105,0.688,49.315,0.688L49.315,0.688z M49.315,2.208c-6.37,0-11.534,5.165-11.534,11.533
		c0,6.37,5.164,11.535,11.534,11.535c6.369,0,11.535-5.166,11.535-11.535C60.851,7.373,55.685,2.208,49.315,2.208z"/>
	<rect x="43.297" y="20.676" width="12.037" height="7.832"/>
	<rect x="43.297" y="20.676" width="12.037" height="1.45"/>
	<path d="M49.315,26.233c19.019,0,34.443,15.425,34.443,34.444c0,19.022-15.425,34.443-34.443,34.443
		c-19.019,0-34.444-15.421-34.444-34.443C14.872,41.658,30.296,26.233,49.315,26.233L49.315,26.233z M49.315,31.148
		c-16.306,0-29.529,13.224-29.529,29.529c0,16.306,13.223,29.531,29.529,29.531c16.306,0,29.529-13.226,29.529-29.531
		C78.845,44.372,65.621,31.148,49.315,31.148z"/>
	<circle cx="49.315" cy="60.678" r="30.194"/>
	<path d="M49.315,27.811c18.149,0,32.867,14.718,32.867,32.866c0,18.15-14.718,32.869-32.867,32.869
		c-18.149,0-32.867-14.719-32.867-32.869C16.448,42.528,31.167,27.811,49.315,27.811L49.315,27.811z M49.315,32.501
		c-15.56,0-28.177,12.617-28.177,28.176c0,15.562,12.618,28.179,28.177,28.179s28.179-12.617,28.179-28.179
		C77.494,45.118,64.875,32.501,49.315,32.501z"/>
	<path d="M49.315,27.145c18.517,0,33.533,15.016,33.533,33.532c0,18.517-15.017,33.533-33.533,33.533
		c-18.516,0-33.532-15.017-33.532-33.533C15.784,42.161,30.799,27.145,49.315,27.145L49.315,27.145z M49.315,31.93
		c-15.874,0-28.748,12.874-28.748,28.747c0,15.874,12.874,28.747,28.748,28.747s28.747-12.873,28.747-28.747
		C78.063,44.804,65.189,31.93,49.315,31.93z"/>
	<polygon points="49.315,80.901 48.12,70.789 46.926,60.677 49.315,60.677 51.705,60.677 50.511,70.789 	"/>
	<polygon points="49.315,60.677 49.315,80.901 46.926,60.677 	"/>
	<polygon points="29.092,60.677 39.203,59.482 49.315,58.288 49.315,60.677 47.18,62.817 39.203,61.872 	"/>
	<polygon points="49.315,60.677 29.092,60.677 49.315,58.288 	"/>
	<polygon points="49.315,40.454 50.511,50.565 51.705,60.677 49.315,60.677 47.18,58.541 48.12,50.565 	"/>
	<polygon points="49.315,60.677 49.315,40.454 51.705,60.677 	"/>
	<polygon points="69.54,60.677 59.428,61.872 49.315,63.065 49.315,60.677 51.451,58.541 59.428,59.482 	"/>
	<polygon points="49.315,60.677 69.54,60.677 51.451,62.817 	"/>
	<g>
		<g>
			<polygon points="38.11,37.943 52.007,59.366 49.318,60.691 46.689,61.977 			"/>
			<polygon points="49.318,60.691 38.11,37.943 52.007,59.366 			"/>
			<polygon points="60.526,83.435 52.007,59.366 49.318,60.691 46.696,61.991 			"/>
			<polygon points="49.318,60.691 60.526,83.435 52.007,59.366 			"/>
		</g>
		<circle cx="49.319" cy="60.691" r="1.112"/>
	</g>
	<path d="M55.883,34.727l0.729,0.195l-1.063,3.965l-0.729-0.197L55.883,34.727L55.883,34.727z M62.379,37.311l0.653,0.377
		l-2.052,3.554l-0.653-0.377L62.379,37.311L62.379,37.311z M67.983,41.489l0.533,0.534l-2.9,2.902l-0.534-0.534L67.983,41.489
		L67.983,41.489z M72.318,46.975l0.376,0.654l-3.552,2.052l-0.378-0.653L72.318,46.975L72.318,46.975z M75.083,53.396l0.197,0.729
		l-3.963,1.063l-0.197-0.73L75.083,53.396L75.083,53.396z M75.28,67.258l-0.197,0.73l-3.963-1.064l0.197-0.728L75.28,67.258
		L75.28,67.258z M72.694,73.754l-0.376,0.654l-3.554-2.052l0.378-0.654L72.694,73.754L72.694,73.754z M68.517,79.357l-0.533,0.538
		l-2.901-2.902l0.534-0.533L68.517,79.357L68.517,79.357z M63.032,83.694l-0.653,0.375l-2.052-3.552l0.653-0.38L63.032,83.694
		L63.032,83.694z M56.611,86.459l-0.729,0.197l-1.063-3.964l0.729-0.197L56.611,86.459L56.611,86.459z M42.749,86.656l-0.729-0.197
		l1.063-3.964l0.729,0.197L42.749,86.656L42.749,86.656z M36.253,84.069l-0.654-0.375l2.052-3.557l0.654,0.38L36.253,84.069
		L36.253,84.069z M30.647,79.896l-0.534-0.538l2.901-2.897l0.534,0.533L30.647,79.896L30.647,79.896z M26.313,74.408l-0.377-0.654
		l3.553-2.052l0.378,0.654L26.313,74.408L26.313,74.408z M23.547,67.988l-0.196-0.73l3.963-1.062l0.195,0.728L23.547,67.988
		L23.547,67.988z M23.352,54.125l0.196-0.729l3.963,1.062l-0.195,0.73L23.352,54.125L23.352,54.125z M25.936,47.629l0.377-0.654
		l3.554,2.052l-0.378,0.653L25.936,47.629L25.936,47.629z M30.113,42.022l0.534-0.534l2.902,2.902l-0.534,0.534L30.113,42.022
		L30.113,42.022z M42.02,34.922l0.729-0.195l1.063,3.963l-0.729,0.197L42.02,34.922L42.02,34.922z M35.599,37.688l0.654-0.377
		l2.052,3.554l-0.654,0.377L35.599,37.688z"/>
	<polygon points="47.958,38.168 47.958,34.344 48.707,34.344 50.275,36.898 50.275,34.344 50.992,34.344 50.992,38.168 
		50.217,38.168 48.676,35.675 48.676,38.168 	"/>
	<polygon points="71.598,62.247 71.598,58.425 74.434,58.425 74.434,59.071 72.371,59.071 72.371,59.918 74.289,59.918 
		74.289,60.564 72.371,60.564 72.371,61.604 74.508,61.604 74.508,62.247 	"/>
	<polygon points="24.089,62.247 23.176,58.425 23.965,58.425 24.543,61.052 25.242,58.425 26.16,58.425 26.831,61.095 
		27.417,58.425 28.195,58.425 27.265,62.247 26.447,62.247 25.686,59.391 24.925,62.247 	"/>
	<path d="M47.753,85.626l0.752-0.073c0.043,0.253,0.135,0.436,0.275,0.555c0.137,0.116,0.324,0.176,0.559,0.176
		c0.25,0,0.436-0.053,0.563-0.157c0.126-0.106,0.189-0.229,0.189-0.369c0-0.092-0.027-0.166-0.081-0.229
		c-0.052-0.066-0.144-0.119-0.277-0.165c-0.089-0.034-0.294-0.087-0.618-0.168c-0.414-0.103-0.702-0.229-0.871-0.38
		c-0.236-0.21-0.352-0.467-0.352-0.77c0-0.192,0.055-0.376,0.167-0.544c0.109-0.173,0.27-0.299,0.477-0.39
		c0.207-0.089,0.459-0.131,0.752-0.131c0.481,0,0.842,0.103,1.086,0.313c0.242,0.211,0.369,0.492,0.381,0.844l-0.771,0.035
		c-0.036-0.197-0.106-0.337-0.215-0.426c-0.109-0.084-0.271-0.126-0.487-0.126c-0.226,0-0.401,0.042-0.527,0.137
		c-0.082,0.061-0.124,0.137-0.124,0.236c0,0.091,0.04,0.168,0.116,0.231c0.095,0.084,0.334,0.169,0.71,0.256
		c0.376,0.088,0.653,0.183,0.833,0.274c0.179,0.099,0.32,0.225,0.421,0.39c0.102,0.166,0.155,0.369,0.155,0.612
		c0,0.217-0.063,0.421-0.184,0.614c-0.122,0.19-0.295,0.334-0.516,0.425c-0.225,0.095-0.502,0.141-0.833,0.141
		c-0.485,0-0.856-0.112-1.113-0.334C47.959,86.378,47.805,86.052,47.753,85.626z"/>
	<path d="M49.315,35.672c5.816,0,11.17,1.987,15.418,5.319c-3.718-2.191-8.049-3.449-12.674-3.449
		c-13.808,0-25.005,11.197-25.005,25.007c0,7.989,3.75,15.107,9.587,19.683c-7.378-4.346-12.33-12.371-12.33-21.556
		C24.311,46.87,35.508,35.672,49.315,35.672z"/>
	<g>
		<path d="M38.294,38.228l1.602,2.47c-0.223,0.125-0.446,0.252-0.664,0.385l-1.008-2.82C38.248,38.253,38.271,38.24,38.294,38.228z"
			/>
		<path d="M39.562,40.888l-1.303-2.643l0.035-0.018l1.602,2.47C39.784,40.761,39.671,40.825,39.562,40.888z"/>
	</g>
	<path d="M24.318,60.03l0.225,1.021l0.699-2.627h0.918l0.671,2.67l0.501-2.283c-0.169,1.121-0.261,2.27-0.274,3.436h-0.612
		l-0.761-2.856l-0.76,2.856H24.36c-0.033-0.516-0.049-1.043-0.049-1.57C24.311,60.463,24.313,60.244,24.318,60.03z"/>
	<path d="M47.958,37.88v-2.171c0.237-0.012,0.476-0.021,0.718-0.028v2.092C48.434,37.805,48.194,37.842,47.958,37.88L47.958,37.88z
		 M49.523,35.674l0.752,1.225v-1.207c0.238,0.009,0.478,0.021,0.717,0.037v1.839c-0.369,0.016-0.738,0.039-1.104,0.07l-1.209-1.957
		c0.21-0.005,0.423-0.008,0.636-0.008C49.385,35.672,49.454,35.674,49.523,35.674z"/>
	<path d="M56.156,36.621l-0.323,1.207c-0.249-0.039-0.503-0.074-0.756-0.104l0.348-1.298C55.672,36.487,55.914,36.552,56.156,36.621
		L56.156,36.621z M61.497,38.836c0.222,0.125,0.438,0.25,0.653,0.379l-0.207,0.36c-0.232-0.101-0.467-0.199-0.705-0.292
		L61.497,38.836L61.497,38.836z M27.323,66.225c0.036,0.239,0.075,0.481,0.117,0.721l-2.177,0.582
		c-0.069-0.242-0.134-0.484-0.196-0.729l2.249-0.602L27.323,66.225L27.323,66.225z M28.917,72.032
		c0.097,0.235,0.196,0.468,0.3,0.699l-1.359,0.784c-0.129-0.214-0.256-0.433-0.379-0.654L28.917,72.032L28.917,72.032z
		 M31.998,77.475c0.152,0.204,0.307,0.404,0.465,0.605l-0.55,0.548c-0.181-0.176-0.359-0.352-0.535-0.534L31.998,77.475
		L31.998,77.475z M36.504,82.123c0.046,0.038,0.091,0.074,0.137,0.109c-0.05-0.028-0.098-0.057-0.148-0.088L36.504,82.123
		L36.504,82.123z M25.061,54.583c0.061-0.245,0.125-0.487,0.193-0.729l2.256,0.604l-0.195,0.73L25.061,54.583L25.061,54.583z
		 M27.467,48.514c0.123-0.222,0.249-0.439,0.377-0.655l2.023,1.169l-0.378,0.653L27.467,48.514L27.467,48.514z M31.364,43.275
		c0.176-0.181,0.354-0.359,0.535-0.535l1.65,1.651l-0.534,0.534L31.364,43.275L31.364,43.275z M36.481,39.217
		c0.216-0.13,0.434-0.257,0.654-0.379l1.17,2.027l-0.654,0.377L36.481,39.217L36.481,39.217z M42.475,36.621
		c0.243-0.068,0.485-0.133,0.731-0.195l0.606,2.264l-0.729,0.197L42.475,36.621z"/>
	<rect x="42.568" y="18.646" width="13.495" height="2.61"/>
</g>
</svg>
