<?xml version="1.0" encoding="utf-8"?>
<!-- Generator: Adobe Illustrator 14.0.0, SVG Export Plug-In . SVG Version: 6.00 Build 43363)  -->
<!DOCTYPE svg PUBLIC "-//W3C//DTD SVG 1.1//EN" "http://www.w3.org/Graphics/SVG/1.1/DTD/svg11.dtd">
<svg version="1.1" id="Layer_1" xmlns="http://www.w3.org/2000/svg" xmlns:xlink="http://www.w3.org/1999/xlink" x="0px" y="0px"
	 width="200px" height="200px" viewBox="0 0 200 200" enable-background="new 0 0 200 200" xml:space="preserve">
<g>
	<rect x="156.911" y="129.95" fill="#666666" width="15.066" height="2.24"/>
	<g>
		<path fill="#C1282D" d="M15.196,120.617c-1.995,4.698,0.547,8.54,5.65,8.54H57.19c5.103,0,9.278-4.174,9.278-9.277V86.02
			c0-5.103-4.175-9.278-9.278-9.278H43.112c-5.103,0-10.91,3.843-12.905,8.54L15.196,120.617z"/>
	</g>
	<path fill="#666666" d="M11.812,124.032c0,1.494,1.211,2.706,2.705,2.706h15.388c1.494,0,2.705-1.212,2.705-2.706v-0.407
		c0-1.494-1.211-2.706-2.705-2.706H14.517c-1.494,0-2.705,1.212-2.705,2.706V124.032z"/>
	<circle fill="#F15C27" cx="19.688" cy="110.042" r="2.658"/>
	<rect x="68.787" y="77.205" fill="#754D25" width="96.483" height="51.953"/>
	<path fill="#CCCCCC" d="M172.505,128.472c0,0.813,1.476,1.474,3.297,1.474c1.82,0,3.297-0.661,3.297-1.474
		c0-0.813-1.477-1.474-3.297-1.474C173.98,126.998,172.505,127.658,172.505,128.472"/>
	<ellipse fill="#E6E6E6" cx="181.694" cy="124.193" rx="5.331" ry="1.894"/>
	<ellipse fill="#F2F2F2" cx="188.564" cy="119.283" rx="6.911" ry="2.454"/>
	<g>
		<circle fill="#010101" cx="118.037" cy="127.886" r="12.783"/>
		<circle fill="#666666" cx="118.038" cy="129.157" r="6.026"/>
		<circle fill="#010101" cx="116.751" cy="126.602" r="1.818"/>
	</g>
	<g>
		<circle fill="#010101" cx="146.797" cy="127.886" r="12.783"/>
		<circle fill="#666666" cx="148.068" cy="127.886" r="6.026"/>
		<circle fill="#010101" cx="145.511" cy="129.171" r="1.817"/>
	</g>
	<g>
		<circle fill="#010101" cx="46.602" cy="127.886" r="12.782"/>
		<circle fill="#666666" cx="45.702" cy="128.785" r="6.026"/>
		<circle fill="#010101" cx="46.602" cy="126.068" r="1.818"/>
	</g>
	<path fill="#FFFFFF" d="M40.311,101.404c0,1.493,1.212,2.706,2.706,2.706h15.907c1.495,0,2.705-1.213,2.705-2.706V85.497
		c0-1.494-1.21-2.705-2.705-2.705H43.016c-1.494,0-2.706,1.211-2.706,2.705V101.404z"/>
	<path fill="#FFFFFF" d="M30.207,85.281c0.367-0.865,0.865-1.701,1.463-2.489h1.741c1.494,0,2.706,1.211,2.706,2.705v15.907
		c0,1.493-1.212,2.706-2.706,2.706H22.209L30.207,85.281z"/>
	<circle fill="#EC2227" cx="165.271" cy="120.345" r="2.658"/>
	<circle fill="#FBB03C" cx="165.271" cy="113.239" r="2.658"/>
</g>
</svg>
