<?xml version="1.0" encoding="utf-8"?>
<!-- Generator: Adobe Illustrator 14.0.0, SVG Export Plug-In . SVG Version: 6.00 Build 43363)  -->
<!DOCTYPE svg PUBLIC "-//W3C//DTD SVG 1.1//EN" "http://www.w3.org/Graphics/SVG/1.1/DTD/svg11.dtd">
<svg version="1.1" id="Layer_1" xmlns="http://www.w3.org/2000/svg" xmlns:xlink="http://www.w3.org/1999/xlink" x="0px" y="0px"
	 width="200px" height="200px" viewBox="0 0 200 200" enable-background="new 0 0 200 200" xml:space="preserve">
<g>
	
		<linearGradient id="SVGID_1_" gradientUnits="userSpaceOnUse" x1="101.1641" y1="-85.8438" x2="-34.8359" y2="31.6565" gradientTransform="matrix(0 -1 1 0 180.1694 194.6523)">
		<stop  offset="0" style="stop-color:#FAED24"/>
		<stop  offset="0.0869" style="stop-color:#F9E626"/>
		<stop  offset="0.2197" style="stop-color:#F7D728"/>
		<stop  offset="0.3818" style="stop-color:#F5BF2A"/>
		<stop  offset="0.5671" style="stop-color:#F19D2B"/>
		<stop  offset="0.772" style="stop-color:#EE7229"/>
		<stop  offset="0.9904" style="stop-color:#EC2827"/>
		<stop  offset="1" style="stop-color:#EC2227"/>
	</linearGradient>
	<path fill="url(#SVGID_1_)" d="M164.188,163.948c7.609-18.244,8.301-34.558,8.301-42.436c0-5.805-4.422-13.13-10.781-8.017
		C157.016,117.271,140,124.834,140,97.882s17.016-19.388,21.707-15.614c6.359,5.113,10.781-2.211,10.781-8.018
		c0-7.877-0.691-24.189-8.301-42.436c-18.244,7.609-34.557,8.301-42.436,8.301c-5.805,0-13.129-4.424-8.016-10.781
		c3.773-4.691,11.338-21.707-15.616-21.707c-26.951,0-19.389,17.016-15.613,21.707c5.113,6.357-2.213,10.781-8.018,10.781
		c-7.877,0-24.189-0.691-42.434-8.301c-7.608,18.244-8.3,34.559-8.3,42.436c0,5.805,4.422,13.131,10.78,8.018
		c4.692-3.775,21.708-11.338,21.706,15.614c0,26.952-17.014,19.389-21.706,15.614c-6.358-5.113-10.78,2.212-10.78,8.017
		c0,7.878,0.691,24.191,8.299,42.436c18.244-7.608,34.558-8.3,42.437-8.3c5.805,0,13.129,4.423,8.016,10.78
		c-3.773,4.692-11.338,21.707,15.615,21.707c26.952,0,19.389-17.015,15.614-21.707c-5.113-6.357,2.213-10.78,8.018-10.78
		C129.631,155.648,145.943,156.34,164.188,163.948z"/>
	<g opacity="0.5">
		<path fill="#010101" d="M111.736,27.334c-3.006,3.736-1.713,6.803,1.041,8.698c-1.141-1.789-1.146-4.079,0.959-6.698
			c2.656-3.303,7.176-12.708,0.223-17.99C117.889,16.737,114.082,24.417,111.736,27.334z"/>
		<path fill="#010101" d="M170.488,72.25c0,5.807-4.422,13.131-10.781,8.018C155.016,76.494,138,68.93,138,95.882
			c0,10.194,2.436,15.445,5.717,17.837c-2.221-2.924-3.717-7.86-3.717-15.837c0-26.952,17.016-19.388,21.707-15.614
			c6.359,5.113,10.781-2.211,10.781-8.018c0-7.877-0.691-24.189-8.301-42.436c-0.35,0.146-0.693,0.272-1.043,0.414
			C169.84,49.487,170.488,64.723,170.488,72.25z"/>
		<path fill="#010101" d="M168.404,112.536c1.33,1.933,2.084,4.583,2.084,6.977c0,7.878-0.691,24.191-8.301,42.436
			c-18.244-7.608-34.557-8.3-42.434-8.3c-5.805,0-13.131,4.423-8.018,10.78c3.775,4.692,11.338,21.707-15.614,21.707
			c-7.978,0-12.913-1.496-15.837-3.717c2.392,3.281,7.643,5.717,17.837,5.717c26.952,0,19.389-17.015,15.614-21.707
			c-5.113-6.357,2.213-10.78,8.018-10.78c7.877,0,24.189,0.691,42.434,8.3c7.609-18.244,8.301-34.558,8.301-42.436
			C172.488,118.1,170.959,114.162,168.404,112.536z"/>
		<path fill="#010101" d="M32.536,80.268c-2.619,2.106-4.908,2.099-6.696,0.96c1.895,2.752,4.96,4.044,8.696,1.04
			c2.917-2.347,10.597-6.153,15.99-2.223C45.245,73.091,35.839,77.609,32.536,80.268z"/>
		<path fill="#010101" d="M72.492,153.648c-7.728,0-23.575,0.682-41.394,7.887c0.311,0.802,0.619,1.603,0.957,2.413
			c18.244-7.608,34.558-8.3,42.437-8.3c2.394,0,5.044,0.754,6.977,2.084C79.841,155.18,75.906,153.648,72.492,153.648z"/>
	</g>
	<g opacity="0.5">
		<path fill="#FFFFFF" d="M152.211,120.422c4.99,0,9.732-2.746,11.75-4.367c1.059-0.852,2.039-1.284,2.908-1.284
			c0.395,0,0.771,0.104,1.133,0.278c-0.816-1.35-1.908-2.278-3.133-2.278c-0.869,0-1.85,0.433-2.908,1.284
			c-2.018,1.621-6.76,4.367-11.75,4.367c-2.658,0-5-0.803-6.939-2.312C145.49,118.922,148.559,120.422,152.211,120.422z"/>
		<path fill="#FFFFFF" d="M122.752,43.115c14.111,0,27.633-2.453,40.252-7.282c-0.295-0.808-0.602-1.613-0.918-2.413
			c-12.924,5.107-26.818,7.695-41.334,7.695c-2.797,0-6.047-0.909-8.422-2.665C114.529,41.515,119.039,43.115,122.752,43.115z"/>
		<path fill="#FFFFFF" d="M82.278,181.207c-1.981-4.135,0.658-9.877,2.788-12.525c2.984-3.711,2.23-6.771,1.514-8.266
			c-0.588-1.227-1.527-2.262-2.665-3.103c0.251,0.35,0.479,0.714,0.665,1.103c0.717,1.494,1.471,4.555-1.514,8.266
			c-2.13,2.648-4.77,8.391-2.788,12.525c0.516,1.077,1.349,2.008,2.462,2.798C82.569,181.748,82.411,181.483,82.278,181.207z"/>
		<path fill="#FFFFFF" d="M28.241,80.714c-0.917-1.517-1.485-3.569-1.485-5.464c0-13.996,2.489-27.385,7.401-39.83
			c12.925,5.107,26.819,7.695,41.333,7.695c4.138,0,9.275-1.981,11.09-5.768c0.717-1.495,1.471-4.556-1.514-8.267
			c-2.13-2.647-4.77-8.387-2.789-12.524c1.857-3.879,7.683-5.93,16.844-5.93c6.62,0,11.485,1.076,14.385,3.132
			c-2.248-3.36-7.875-5.132-16.385-5.132c-9.161,0-14.986,2.05-16.844,5.93c-1.98,4.137,0.659,9.877,2.789,12.524
			c2.984,3.71,2.23,6.772,1.514,8.267c-1.814,3.787-6.952,5.768-11.09,5.768c-14.514,0-28.408-2.588-41.333-7.695
			c-4.912,12.445-7.401,25.834-7.401,39.83C24.756,76.29,26.211,79.738,28.241,80.714z"/>
		<path fill="#FFFFFF" d="M26.756,122.513c0-3.58,2.017-7.742,4.617-7.742c0.871,0,1.85,0.433,2.909,1.284
			c2.017,1.622,6.762,4.367,11.75,4.367c0.001,0,0.001,0,0.002,0c4.933-0.001,13.208-2.801,13.208-21.54
			c0.001-7.477-1.297-13.098-3.855-16.708c-0.706-0.996-1.521-1.826-2.414-2.521c0.138,0.174,0.283,0.336,0.414,0.521
			c2.559,3.61,3.856,9.231,3.855,16.708c0,18.739-8.275,21.539-13.208,21.54c-0.001,0-0.001,0-0.002,0
			c-4.988,0-9.733-2.745-11.75-4.367c-1.059-0.852-2.038-1.284-2.909-1.284c-2.6,0-4.617,4.162-4.617,7.742
			c0,13.995,2.489,27.385,7.4,39.83c0.359-0.142,0.722-0.274,1.084-0.413C28.936,148.172,26.756,135.607,26.756,122.513z"/>
	</g>
</g>
</svg>
