<?xml version="1.0" encoding="utf-8"?>
<!-- Generator: Adobe Illustrator 16.0.0, SVG Export Plug-In . SVG Version: 6.00 Build 0)  -->
<!DOCTYPE svg PUBLIC "-//W3C//DTD SVG 1.1//EN" "http://www.w3.org/Graphics/SVG/1.1/DTD/svg11.dtd">
<svg version="1.1" id="Layer_1" xmlns="http://www.w3.org/2000/svg" xmlns:xlink="http://www.w3.org/1999/xlink" x="0px" y="0px"
	 width="95px" height="95px" viewBox="0 0 95 95" enable-background="new 0 0 95 95" xml:space="preserve">
<g>
	<path d="M79.71,36.585C75.163,23.161,62.458,13.5,47.5,13.5c-14.96,0-27.663,9.661-32.21,23.085
		C8.658,38.261,3.75,44.267,3.75,51.421c0,8.449,6.85,15.299,15.299,15.299c0.134,0,0.266-0.002,0.398-0.006
		c6.127,8.93,16.405,14.785,28.053,14.785c11.648,0,21.927-5.855,28.054-14.785c0.133,0.004,0.264,0.006,0.396,0.006
		c8.451,0,15.301-6.85,15.301-15.299C91.251,44.267,86.342,38.261,79.71,36.585z"/>
	<g>
		<g>
			<circle cx="47.5" cy="47.499" r="27.616"/>
			<circle cx="47.5" cy="47.499" r="11.796"/>
		</g>
		<g>
			<g>
				<circle cx="25.903" cy="25.903" r="1.456"/>
				<circle cx="69.098" cy="69.097" r="1.456"/>
			</g>
			<g>
				<circle cx="25.903" cy="69.097" r="1.456"/>
				<circle cx="69.098" cy="25.903" r="1.457"/>
			</g>
		</g>
	</g>
</g>
</svg>
