<?xml version="1.0" encoding="utf-8"?>
<!-- Generator: Adobe Illustrator 14.0.0, SVG Export Plug-In . SVG Version: 6.00 Build 43363)  -->
<!DOCTYPE svg PUBLIC "-//W3C//DTD SVG 1.1//EN" "http://www.w3.org/Graphics/SVG/1.1/DTD/svg11.dtd">
<svg version="1.1" id="Layer_1" xmlns="http://www.w3.org/2000/svg" xmlns:xlink="http://www.w3.org/1999/xlink" x="0px" y="0px"
	 width="200px" height="200px" viewBox="0 0 200 200" enable-background="new 0 0 200 200" xml:space="preserve">
<g>
	
		<path fill="#DE761C" stroke="#5D190F" stroke-width="1.9214" stroke-linecap="round" stroke-linejoin="round" stroke-miterlimit="10" d="
		M100.392,24.414c0,0-2.495-2.974-4.87-0.673c-2.375,2.301-0.059,4.444-0.059,4.444s-2.643-0.76-3.502,1.64
		c-0.86,2.401,1.773,5.033,1.773,5.033s-2.175-0.73-2.422,1.244c-0.248,1.973,1.54,3.262,1.54,3.262s-1.274-0.202-2.469,1.943
		c-1.195,2.145,0.647,4.374,0.647,4.374s-2.26,0.552-3.09,2.487c-0.83,1.935,1.72,4.092,1.72,4.092s-1.904,0.459-2.267,2.425
		c-0.363,1.964,1.276,3.711,1.276,3.711s-1.848-0.356-2.546,1.353c-0.698,1.71,1.044,3.697,1.044,3.697s-2.448-0.161-3.044,1.788
		c-0.597,1.951,2.045,4.465,2.045,4.465s-2.663-0.41-3.603,1.4c-0.938,1.811,2.047,4.465,2.047,4.465s-2.207-0.263-3.169,1.898
		c-0.962,2.159,2.022,4.814,2.022,4.814s-3.162,0.025-4.092,1.719c-0.932,1.694,1.968,5.63,1.968,5.63s-2.051-0.837-3.456,0.942
		c-1.405,1.78,0.874,4.504,0.874,4.504s-2.254-1.318-3.527,0.235c-1.272,1.556-0.154,4.086-0.154,4.086s-1.616-2.095-3.418-1.395
		c-1.801,0.7-1.792,4.093-1.792,4.093s-1.112-2.647-2.89-2.296c-1.778,0.351-1.776,3.861-1.776,3.861s-0.74-2.974-3.482-2.22
		c-2.741,0.756-1.737,3.279-1.737,3.279s-1.843-2.228-4.133-1.209c-2.29,1.02-1.357,2.836-1.357,2.836s-2.106-1.777-3.93-0.728
		c-1.825,1.05-1.474,2.827-1.474,2.827s-1.212-1.132-1.972-0.246c-0.761,0.886,0.265,3.061,0.265,3.061s11.12-3.596,18.616-3.687
		c7.496-0.09,14.384-1.625,17.099-9.052c2.713-7.427,8.014-39.843,9.778-48.854c1.766-9.012,5.557-20.346,6.729-22.141
		C100.774,25.726,100.392,24.414,100.392,24.414z"/>
	
		<path fill="#FAA41A" stroke="#5D190F" stroke-width="1.9214" stroke-linecap="round" stroke-linejoin="round" stroke-miterlimit="10" d="
		M108.241,18.964c0,0-4.74-4.409-9.215-4.002c-4.474,0.407-3.709,4.788-1.393,6.929c2.315,2.143,3.659,3.051,3.659,3.051
		L108.241,18.964z"/>
	
		<path fill="#F99B1C" stroke="#8A1603" stroke-width="1.9214" stroke-linecap="round" stroke-linejoin="round" stroke-miterlimit="10" d="
		M93.304,169.812c0,0,0.03,3.758-1.864,10.682c-1.895,6.923-4.951,12.471-4.657,13.649c0.292,1.179,1.536,0.611,2.034,0.088
		c0.499-0.523,0.756-0.923,0.756-0.923s-0.775,1.895,0.583,2.403c1.357,0.507,2.385-1.003,2.385-1.003s-0.436,2.384,0.973,2.104
		c1.411-0.277,4.932-3.754,7.915-12.415c2.983-8.659,3.641-15.803,3.641-15.803L93.304,169.812z"/>
	
		<path fill="#F99B1C" stroke="#8A1603" stroke-width="1.9214" stroke-linecap="round" stroke-linejoin="round" stroke-miterlimit="10" d="
		M75.917,168.386c0,0-0.049,4.958-1.966,11.509c-1.917,6.551-4.121,9.743-3.403,10.811c0.719,1.069,1.875,0.402,2.512-0.112
		c0.636-0.515,0.75-0.83,0.75-0.83s-0.744,2.131,0.669,2.501c1.413,0.371,3.032-1.655,3.032-1.655s-0.63,1.813,0.585,2.357
		c1.216,0.544,3.928-3.311,6.309-9.877c2.381-6.565,3.667-13.392,3.482-13.404C87.702,169.674,75.917,168.386,75.917,168.386z"/>
	
		<path fill="#FAA41A" stroke="#5D190F" stroke-width="1.9214" stroke-linecap="round" stroke-linejoin="round" stroke-miterlimit="10" d="
		M81.483,98.996c0,0,1.578-4.169,3.6-13.955c2.022-9.788,5.459-25.637,6.612-32.152c1.154-6.513,4.356-19.916,7.732-26.065
		c3.374-6.151,8.762-7.678,9.237-8.298s0.444-3.447-0.024-6.229c-0.467-2.782-0.355-3.354-1.309-3.201
		c-0.951,0.154-2.163-0.143-1.702-1.633c0.461-1.49,4.411-2.098,5.311-1.459c0.899,0.638,0.823,1.791-0.075,2.239
		c-0.899,0.448-1.085,3.259-0.3,5.628c0.785,2.37,2.284,2.685,4.179,2.521c1.894-0.165,8.008-0.63,9.295-0.401
		c1.29,0.231,2.174,0,1.923-0.596c-0.25-0.596-1.248-4.138-2.426-4.939c-1.178-0.803-3.195,0.15-3.124-0.932
		c0.07-1.081,1.036-1.451,2.354-1.654c1.316-0.203,3.557-0.127,4.019,0.555s-0.801,1.179-0.965,1.457
		c-0.164,0.279,0.086,0.875,0.9,2.811c0.813,1.937,1.57,4.739,2.363,4.791c0.792,0.053,2.619-1.276,4.382-2.752
		c1.764-1.477,5.536-1.589,6.686,0.731c1.152,2.321-2.235,5.355-3.499,5.853c-1.264,0.494,0.218,2.187,2.748,5.54
		c2.53,3.354,5.387,7.35,9.967,11.376c6.283,5.523,9.566,9.756,8.84,15.284c-0.728,5.528-6.79,11.791-16.961,11.192
		c-10.172-0.6-14.603-5.888-14.603-5.888s-1.833,11.32-0.475,17.06c1.359,5.736,6.191,8.229,7.322,8.666
		c1.129,0.437,1.572,0.321,1.572,0.321l0.868-0.015l2.419,8.342c0,0-2.672-0.104-5.394-0.573c-2.721-0.469-5.476-1.52-5.476-1.52
		l0.604,6.194c0,0,2.92,1.859,7.433,2.592c4.515,0.733,7.441,0.274,8.287,0.619c0.847,0.346,0.554,1.485,0.025,1.812
		s-0.528,0.327-0.528,0.327s1.634,0.47,1.63,1.628c-0.004,1.159-1.925,1.756-1.704,1.698s0.99,0.354,0.788,1.211
		c-0.201,0.855-3.526,1.867-7.79,1.73c-4.263-0.137-8.057-0.821-8.057-0.821s1.129,13.616,0.169,24.85
		c-0.958,11.233-4.305,24.627-10.905,30.274c-6.6,5.647-18.02,7.5-30.133,6.7s-23.991-2.96-33.053-10.51
		c-9.061-7.55-11.683-19.383-12.214-24.487c-0.532-5.104,0.77-14.939,1.321-16.713c0.552-1.774,1.07-3.044,1.07-3.044
		s-4.107-3.602-5.799-9.797c-1.69-6.195,0.806-10.012,0.806-10.012s-1.082-1.157-0.915-3.681s3.289-4.854,3.289-4.854
		s1.746,2.073,1.402,5.09c-0.344,3.02-2.833,3.434-2.833,3.434s-1.487,4.971,0.53,9.521c2.016,4.55,6.786,5.807,6.786,5.807
		s5.146-3.353,9.957-3.832c4.81-0.479,12.617-0.254,17.476-1.454C79.98,104.184,81.483,98.996,81.483,98.996z"/>
	<path fill="#F6891F" d="M108.947,18.98c0,0-4.246,2.415-7.52,11.155c-3.273,8.741-5.94,24.129-8.131,37.549
		c-2.19,13.42-5.905,27.522-8.537,34.478c-2.633,6.956-11.671,8.187-18.591,7.642c-6.92-0.544-15.779,0.611-17.129,1.304
		c-1.35,0.693-1.823,1.272-1.823,1.272s3.275-4.828,12.867-5.238s16.876-0.104,19.771-4.434c2.894-4.33,5.252-16.348,7.491-26.547
		c2.238-10.199,5.782-27.008,7.324-34.559s4.377-14.929,7.354-17.862C104.999,20.807,108.947,18.98,108.947,18.98z"/>
	<path fill="#E5901A" d="M76.35,169.287c0,0-0.305,5.5-2.056,10.903c-1.751,5.404-3.47,8.545-3.368,9.656
		c0.101,1.109,1.042,0.94,1.042,0.94s-0.254-0.539,0.758-2.682c1.013-2.141,4.311-8.954,5.454-13.063
		c1.143-4.107,1.114-5.446,1.114-5.446L76.35,169.287z"/>
	<path fill="#D78718" d="M93.641,170.545c0,0-0.319,5.731-2.438,12.273c-2.117,6.542-4.294,9.593-4.035,10.946
		c0.259,1.354,1.392,0.036,1.392,0.036s0.786-1.257,1.421-2.958c0.634-1.701,2.34-5.415,4.203-11.626
		c1.862-6.21,1.546-8.649,1.546-8.649L93.641,170.545z"/>
	<path fill="#FFCA3E" d="M101.024,23.131c-1.194-0.935-2.16-1.774-2.798-3.17c-0.667-1.456-0.661-3.197,0.984-3.924
		c0.26-0.114,0.115-0.482-0.146-0.45c-0.515,0.061-1.023,0.235-1.471,0.489c-0.007,0.001-0.015,0-0.022,0.002
		c-0.532,0.18-0.864,0.536-1.053,0.973c-0.39,0.594-0.492,1.318-0.102,2.085c0.021,0.105,0.046,0.208,0.073,0.307
		c0.544,1.959,2.392,3.255,3.937,4.391c0.157,0.115,0.324,0.001,0.363-0.145c0.098-0.043,0.135-0.076,0.249-0.181
		C101.159,23.402,101.149,23.228,101.024,23.131z"/>
	<path fill="#FFCA3E" d="M139.166,15.244c0.004-0.083-0.024-0.167-0.096-0.217c-0.089-0.063-0.18-0.118-0.27-0.168
		c-0.684-0.605-1.646-0.946-2.59-0.885c-2.458,0.162-4.321,2.618-6.374,3.695c-0.051,0.027-0.081,0.065-0.103,0.106
		c-0.025,0.024-0.048,0.055-0.063,0.098c-0.481,1.455,1.755,0.548,2.281,0.212c1.309-0.837,2.529-1.806,4.091-2.107
		c1.132-0.219,3.204-0.188,3.184,1.391c-0.004,0.26,0.411,0.386,0.475,0.102c0.005-0.021,0.006-0.043,0.01-0.065
		c0.002,0,0.003,0,0.004,0c0-0.007-0.001-0.012-0.001-0.019C139.873,16.562,139.633,15.823,139.166,15.244z"/>
	<path fill="#DC661E" stroke="#5D190F" stroke-width="1.0675" stroke-miterlimit="10" d="M121.063,52.743
		c0,0,1.843-4.898,9.108-10.313c7.265-5.416,16.486-6.28,16.486-6.28s2.683,2.618,5.716,5.489c3.033,2.872,6.942,7.136,5.098,13.461
		c-1.846,6.325-9.732,9.994-16.592,9.265c-6.858-0.729-11.856-3.178-15.294-6.904C122.148,53.736,121.063,52.743,121.063,52.743z"/>
	<path fill="#FDBA12" d="M131.961,19.285c0,0,1.514,0.208,4.336,4.096c2.82,3.889,6.002,8.138,7.524,9.825
		c1.523,1.687,2.511,2.762,2.511,2.762s-1.063,0.074-1.353,0.103c-0.291,0.029-0.291,0.029-0.291,0.029s-5.323-6.025-7.542-9.586
		c-2.217-3.559-3.048-4.816-4.031-5.939C132.133,19.453,131.961,19.285,131.961,19.285z"/>
	<path fill="#FFD074" d="M127.172,121.069c0.198-3.504,0.671-6.992,0.265-10.498c-0.033-0.282-0.142-0.499-0.291-0.655
		c-0.003-0.074-0.002-0.15-0.006-0.225c-0.073-1.555-2.517-1.764-2.442-0.186c0.131,2.814-0.31,5.598-0.359,8.408
		c-0.047,2.615-0.176,5.2-0.535,7.794c-0.737,5.342-2.23,10.627-4.019,15.705c-1.809,5.137-4.168,10.07-7.068,14.678
		c-2.694,4.286-5.815,6.946-10.553,8.722c-0.984,0.369-0.889,1.976,0.107,2.26c9.625,2.746,16.74-7.687,19.872-15.324
		c2.516-6.132,3.489-12.96,4.192-19.504C126.733,128.531,126.963,124.798,127.172,121.069z"/>
	<path fill="#FFD074" d="M131.603,103.323c-2.248-1.153-4.827-1.435-7.226-2.177c-2.176-0.674-4.336-1.398-6.454-2.24
		c-4.409-1.749-8.971-4.321-10.886-8.891c-0.252-0.603-0.778-0.772-1.266-0.667c-0.607-0.042-1.271,0.302-1.388,1.075
		c-0.803,5.286,3.685,8.689,7.862,10.853c5.688,2.943,11.956,3.832,18.153,5.03c0.591,0.114,0.979-0.171,1.15-0.583
		C132.415,105.455,132.701,103.888,131.603,103.323z"/>
	<path fill="#FFD074" d="M101.734,172.091c-0.188-0.786-0.916-1.051-1.529-0.914c-0.711-0.248-1.579,0.052-1.548,1.002
		c0.223,6.606-1.036,14.742-5.392,19.96c-1.025,1.227,0.973,2.563,2.001,1.411C99.917,188.341,103.396,179.057,101.734,172.091z"/>
	<path fill="#FFD074" d="M84.292,170.907c-0.297-0.206-0.691-0.251-1.117,0.007c-2.057,1.245-2.137,4.124-2.355,6.274
		c-0.418,4.104-1.838,7.821-3.498,11.58c-0.608,1.376,1.302,2.055,2.152,1.121c4.45-4.891,5.799-11.31,6.259-17.722
		C85.799,171.251,84.996,170.808,84.292,170.907z"/>
	<path fill="#FFD074" d="M128.558,82.149c-3.249-2.376-4.024-6.878-4.373-10.63c-0.369-3.962-0.066-8.288,1.176-12.083
		c0.491-1.499-1.812-2.332-2.304-0.829c-0.063,0.191-0.121,0.384-0.178,0.576c-0.01,0.022-0.021,0.04-0.028,0.065
		c-2.649,8.31-3.492,19.055,4.295,24.902C128.425,85.086,129.815,83.094,128.558,82.149z"/>
	<path fill="#FFD074" d="M121.761,49.331c-0.01-0.012-0.021-0.025-0.031-0.038c-0.021-0.101-0.054-0.203-0.111-0.305
		c-2.089-3.736-4.363-7.424-5.615-11.547c-0.409-1.344-2.175-1.271-2.426,0.13c-0.431,2.408,0.543,4.55,1.718,6.604
		c1.351,2.365,2.822,4.649,4.587,6.726C120.907,52.107,122.783,50.533,121.761,49.331z"/>
	<path fill="#FDBE4F" d="M108.939,21.512c-0.125-0.033-0.258-0.055-0.404-0.049c-3.012,0.139-5.993,2.414-7.842,4.659
		c-2.361,2.87-3.139,6.808-3.176,10.416c-0.015,1.503,2.309,1.786,2.351,0.253c0.156-5.819,4.562-10.785,9.692-13.029
		C110.839,23.204,110.138,21.355,108.939,21.512z"/>
	<path fill="#E18D19" d="M157.654,51.21c-0.364-6.122-7.003-10.404-10.854-14.363c-0.443-0.456-1.047-0.36-1.422-0.038
		c-0.207-0.081-0.446-0.101-0.701-0.014c0.243-0.082-0.53,0.163-0.763,0.367c-0.396,0.346-0.48,0.972-0.124,1.38
		c2.846,3.257,6.605,5.685,8.923,9.397c2.996,4.8,0.073,10.02-3.987,12.986c-0.903,0.66,0.066,2.149,1.046,1.638
		C154.379,60.162,157.988,56.792,157.654,51.21z"/>
	<path fill="#C57415" d="M104.108,85.822c-0.319,0.3-0.521,0.79-0.879,1.045c-0.345-0.282-0.524-0.68-0.697-1.09
		c-0.123-0.292-0.565-0.082-0.443,0.209c0.202,0.48,0.49,1.216,1.036,1.412c0.498,0.179,1.032-0.951,1.298-1.2
		C104.652,85.981,104.339,85.606,104.108,85.822z"/>
	<path fill="#C57415" d="M97.808,85.368c-0.188,0.087-0.343,0.212-0.498,0.346c-0.136,0.12-0.389,0.215-0.536,0.043
		c-0.099-0.116-0.323-0.323-0.312-0.492c0.007-0.106,0.178-0.274,0.232-0.364c0.162-0.27-0.237-0.553-0.4-0.284
		c-0.12,0.202-0.277,0.373-0.32,0.609c-0.053,0.28,0.201,0.571,0.359,0.767c0.229,0.284,0.62,0.429,0.978,0.292
		c0.272-0.104,0.443-0.354,0.706-0.474C98.304,85.68,98.095,85.236,97.808,85.368z"/>
	<path fill="#C57415" d="M97.934,79.732c-0.3,0.137-0.531,0.365-0.801,0.54c-0.148-0.361-0.28-0.733-0.268-1.128
		c0.01-0.315-0.479-0.354-0.488-0.038c-0.019,0.576,0.196,1.099,0.414,1.622c0.053,0.124,0.209,0.17,0.326,0.117
		c0.382-0.174,0.647-0.498,1.025-0.669C98.432,80.044,98.222,79.603,97.934,79.732z"/>
	<path fill="#C57415" d="M101.874,75.82c-0.432,0.25-0.814,0.502-1.281,0.575c0.144-0.424,0.215-0.874,0.429-1.271
		c0.149-0.274-0.25-0.559-0.4-0.282c-0.287,0.53-0.316,1.152-0.602,1.678c-0.084,0.154-0.024,0.375,0.182,0.386
		c0.74,0.035,1.261-0.284,1.883-0.643C102.354,76.106,102.148,75.662,101.874,75.82z"/>
	<path fill="#C57415" d="M102.419,33.241c-0.101,0.059-0.206,0.118-0.318,0.157c0.012-0.045,0.025-0.088,0.04-0.131
		c0.101-0.299-0.36-0.465-0.461-0.165c-0.09,0.263-0.143,0.538,0.082,0.744c0.234,0.214,0.661-0.039,0.865-0.162
		C102.896,33.521,102.689,33.077,102.419,33.241z"/>
	<path fill="#C57415" d="M101.972,39.254c-0.19,0.157-0.429,0.284-0.604,0.047c-0.188-0.255-0.562,0.063-0.375,0.314
		c0.341,0.463,0.9,0.337,1.294,0.015C102.53,39.428,102.215,39.054,101.972,39.254z"/>
	<path fill="#C57415" d="M105.555,47.235c-0.362,0.388-1.044,0.632-1.078-0.128c-0.015-0.311-0.503-0.353-0.488-0.037
		c0.02,0.443,0.182,0.897,0.656,1.02c0.461,0.12,0.921-0.152,1.225-0.479C106.081,47.383,105.77,47.005,105.555,47.235z"/>
	<path fill="#C57415" d="M99.926,45.878c-0.065,0.04-0.449,0.294-0.491,0.141c-0.057-0.218,0.074-0.482,0.168-0.67
		c0.144-0.28-0.318-0.443-0.46-0.166c-0.169,0.334-0.32,0.802-0.096,1.146c0.255,0.392,0.777,0.181,1.087-0.008
		C100.401,46.16,100.195,45.715,99.926,45.878z"/>
	<path fill="#C57415" d="M97.283,41.594c-0.123,0.069-0.239,0.131-0.37,0.158c-0.1-0.307-0.071-0.618,0.065-0.923
		c0.129-0.288-0.333-0.452-0.461-0.165c-0.21,0.469-0.216,0.984,0.004,1.451c0.035,0.076,0.116,0.138,0.203,0.139
		c0.287,0.008,0.521-0.078,0.769-0.216C97.766,41.884,97.56,41.439,97.283,41.594z"/>
	<path fill="#C57415" d="M93.53,57.445c-0.11,0.02-0.238,0.049-0.297-0.067c-0.072-0.143-0.021-0.355,0.008-0.5
		c0.06-0.311-0.429-0.344-0.489-0.039c-0.054,0.281-0.069,0.592,0.093,0.84c0.172,0.264,0.486,0.301,0.774,0.248
		C93.93,57.871,93.841,57.389,93.53,57.445z"/>
	<path fill="#C57415" d="M107.049,55.711c-0.168,0.161-0.396,0.38-0.651,0.362c-0.188-0.015-0.119-0.449-0.106-0.548
		c0.041-0.313-0.447-0.35-0.488-0.038c-0.052,0.4-0.005,0.867,0.415,1.042c0.408,0.168,0.873-0.183,1.146-0.443
		C107.591,55.87,107.277,55.493,107.049,55.711z"/>
	<path fill="#C57415" d="M112.094,62.495c-0.116,0.188-0.256,0.334-0.426,0.45c-0.031-0.11-0.055-0.222-0.083-0.337
		c-0.073-0.306-0.556-0.219-0.48,0.09c0.059,0.244,0.094,0.479,0.213,0.704c0.063,0.12,0.2,0.173,0.326,0.118
		c0.358-0.16,0.646-0.408,0.851-0.742C112.659,62.509,112.258,62.226,112.094,62.495z"/>
	<path fill="#C57415" d="M99.623,66.01c-0.118,0.072-0.271,0.181-0.417,0.18c0.003-0.006-0.024-0.024-0.039-0.067
		c-0.029-0.098-0.036-0.206-0.043-0.307c-0.023-0.315-0.505-0.223-0.481,0.088c0.018,0.255,0.067,0.582,0.319,0.714
		c0.293,0.154,0.612-0.009,0.87-0.165C100.1,66.292,99.894,65.847,99.623,66.01z"/>
	<path fill="#C57415" d="M110.917,67.743c-0.086,0.087-0.24,0.271-0.38,0.276c-0.104,0.004-0.143-0.288-0.155-0.353
		c-0.062-0.308-0.544-0.221-0.481,0.089c0.059,0.297,0.161,0.598,0.459,0.726c0.319,0.136,0.666-0.159,0.873-0.363
		C111.455,67.896,111.142,67.52,110.917,67.743z"/>
	<path fill="#C57415" d="M92.29,65.764c-0.127,0.059-0.287,0.139-0.431,0.094c-0.125-0.039-0.134-0.273-0.143-0.373
		c-0.031-0.314-0.514-0.223-0.481,0.09c0.026,0.269,0.115,0.55,0.359,0.696c0.285,0.169,0.627,0.065,0.903-0.063
		C92.786,66.074,92.576,65.631,92.29,65.764z"/>
	<path fill="#C57415" d="M89.909,74.3c-0.068,0.042-0.355,0.246-0.445,0.16c-0.121-0.115-0.059-0.388-0.037-0.527
		c0.051-0.313-0.438-0.348-0.489-0.039c-0.049,0.312-0.061,0.738,0.225,0.949c0.3,0.22,0.671,0.077,0.954-0.1
		C90.383,74.577,90.176,74.133,89.909,74.3z"/>
	<path fill="#C57415" d="M122.186,80.674c-0.236,0.053-0.461,0.021-0.676-0.093c-0.273-0.148-0.559,0.25-0.281,0.399
		c0.329,0.177,0.676,0.259,1.047,0.177C122.582,81.088,122.494,80.606,122.186,80.674z"/>
	<path fill="#C57415" d="M118.408,86.422c-0.18-0.214-0.329-0.451-0.47-0.692c-0.159-0.272-0.603-0.065-0.443,0.208
		c0.161,0.276,0.331,0.553,0.538,0.798C118.237,86.978,118.612,86.663,118.408,86.422z"/>
	<path fill="#C57415" d="M122.836,85.916c-0.063,0.054-0.203,0.179-0.247,0.127c-0.104-0.117-0.1-0.365-0.11-0.509
		c-0.022-0.314-0.503-0.222-0.481,0.09c0.022,0.309,0.076,0.621,0.318,0.833c0.259,0.228,0.626,0.01,0.835-0.166
		C123.395,86.089,123.08,85.714,122.836,85.916z"/>
	<path fill="#C57415" d="M116.27,73.085c-0.229-0.023-0.516-0.121-0.676-0.284c-0.221-0.225-0.598,0.089-0.376,0.313
		c0.262,0.267,0.648,0.421,1.014,0.459C116.546,73.607,116.584,73.12,116.27,73.085z"/>
	<path fill="#C57415" d="M106.302,65.425c-0.037,0.017-0.074,0.043-0.113,0.068c0.029-0.304,0.078-0.603,0.205-0.887
		c0.129-0.289-0.333-0.452-0.462-0.165c-0.184,0.413-0.224,0.865-0.254,1.312c-0.007,0.106,0.058,0.217,0.161,0.25
		c0.28,0.089,0.427-0.016,0.67-0.135C106.793,65.728,106.584,65.285,106.302,65.425z"/>
	<path fill="#C57415" d="M107.028,79.972c-0.095,0.066-0.225,0.158-0.344,0.114c-0.121-0.044-0.157-0.329-0.176-0.426
		c-0.063-0.309-0.545-0.222-0.482,0.089c0.061,0.302,0.164,0.628,0.456,0.779c0.296,0.154,0.613-0.01,0.86-0.181
		C107.603,80.167,107.285,79.794,107.028,79.972z"/>
	<path fill="#C57415" d="M111.479,91.755c-0.11,0.297-0.339,0.778-0.737,0.677c-0.385-0.097-0.538-0.576-0.59-0.916
		c-0.05-0.311-0.532-0.222-0.482,0.09c0.085,0.547,0.38,1.154,0.963,1.301c0.664,0.168,1.104-0.443,1.308-0.985
		C112.05,91.626,111.589,91.46,111.479,91.755z"/>
	<path fill="#C57415" d="M125.358,99.391c-0.061,0.126-0.136,0.301-0.263,0.378c-0.108,0.066-0.233-0.133-0.284-0.2
		c-0.193-0.252-0.567,0.065-0.375,0.314c0.18,0.235,0.411,0.426,0.725,0.38c0.337-0.05,0.53-0.437,0.658-0.708
		C125.954,99.27,125.491,99.107,125.358,99.391z"/>
	<path fill="#C57415" d="M119.544,95.855c-0.132,0.069-0.47,0.271-0.603,0.11c-0.108-0.133,0.06-0.453,0.119-0.571
		c0.142-0.282-0.322-0.445-0.461-0.166c-0.167,0.332-0.268,0.766-0.01,1.08c0.291,0.355,0.833,0.163,1.162-0.009
		C120.032,96.153,119.824,95.709,119.544,95.855z"/>
	<path fill="#C57415" d="M139.614,106.1c-0.103,0.206-0.255,0.41-0.51,0.352c-0.303-0.068-0.473,0.392-0.165,0.461
		c0.551,0.126,0.898-0.172,1.137-0.646C140.217,105.984,139.755,105.821,139.614,106.1z"/>
	<path fill="#C57415" d="M93.222,96.971c-0.15,0.177-0.377,0.392-0.632,0.317c-0.225-0.066-0.297-0.353-0.329-0.55
		c-0.05-0.313-0.531-0.223-0.481,0.089c0.066,0.41,0.275,0.814,0.699,0.938c0.458,0.135,0.865-0.185,1.144-0.511
		C93.826,97.012,93.423,96.732,93.222,96.971z"/>
	<path fill="#C57415" d="M99.435,101.6c-0.05,0.037-0.291,0.232-0.36,0.154c-0.112-0.123-0.073-0.408-0.066-0.556
		c0.018-0.314-0.472-0.354-0.488-0.038c-0.018,0.328-0.021,0.746,0.25,0.979c0.308,0.265,0.71,0.033,0.98-0.165
		C100.005,101.787,99.688,101.413,99.435,101.6z"/>
	<path fill="#C57415" d="M101.783,105.547c-0.108,0.092-0.284,0.251-0.443,0.215c-0.154-0.036-0.221-0.233-0.269-0.361
		c-0.114-0.295-0.556-0.084-0.444,0.21c0.106,0.277,0.287,0.554,0.596,0.623c0.33,0.074,0.63-0.105,0.874-0.31
		C102.339,105.72,102.024,105.346,101.783,105.547z"/>
	<path fill="#C57415" d="M104.806,98.834c-0.617,0.239-0.581-0.617-0.518-1.002c0.052-0.312-0.438-0.347-0.488-0.037
		c-0.065,0.397-0.068,0.865,0.152,1.22c0.242,0.39,0.665,0.417,1.062,0.263C105.31,99.163,105.1,98.72,104.806,98.834z"/>
	<path fill="#C57415" d="M109.557,104.68c-0.186,0.09-0.478,0.205-0.65,0.027c-0.169-0.176-0.063-0.471,0.02-0.656
		c0.129-0.287-0.332-0.451-0.461-0.166c-0.168,0.376-0.212,0.852,0.098,1.168c0.325,0.335,0.824,0.254,1.202,0.071
		C110.05,104.985,109.842,104.543,109.557,104.68z"/>
	<path fill="#C57415" d="M90.838,91.013c-0.231,0.027-0.49,0.03-0.693-0.098c-0.207-0.128-0.201-0.391-0.149-0.601
		c0.075-0.303-0.385-0.472-0.46-0.165c-0.093,0.375-0.09,0.782,0.207,1.067c0.313,0.303,0.775,0.327,1.186,0.278
		C91.242,91.458,91.151,90.977,90.838,91.013z"/>
	<path fill="#C57415" d="M85.821,105.521c-0.239,0.165-0.562,0.325-0.78,0.056c-0.186-0.231-0.161-0.629-0.103-0.897
		c0.065-0.303-0.395-0.473-0.461-0.164c-0.105,0.487-0.11,1.068,0.258,1.454c0.405,0.427,0.987,0.214,1.399-0.073
		C86.395,105.717,86.078,105.343,85.821,105.521z"/>
	<path fill="#C57415" d="M91.057,115.983c-0.566,0.371-1.359,0.176-1.204-0.612c0.061-0.308-0.428-0.343-0.488-0.036
		c-0.095,0.479,0.072,0.956,0.513,1.194c0.492,0.266,1.051,0.119,1.494-0.171C91.637,116.186,91.317,115.813,91.057,115.983z"/>
	<path fill="#C57415" d="M85.103,96.822c-0.235,0.115-0.425,0.186-0.53-0.097c-0.11-0.297-0.552-0.085-0.443,0.207
		c0.202,0.547,0.72,0.559,1.182,0.333C85.595,97.127,85.387,96.684,85.103,96.822z"/>
	<path fill="#C57415" d="M95.592,108.793c-0.185,0.038-0.428,0.083-0.563-0.081c-0.141-0.17-0.021-0.503,0.04-0.676
		c0.105-0.297-0.355-0.464-0.462-0.165c-0.126,0.355-0.206,0.789,0.022,1.121c0.236,0.344,0.68,0.359,1.052,0.282
		C95.99,109.21,95.902,108.729,95.592,108.793z"/>
	<path fill="#C57415" d="M98.114,112.626c-0.15,0.214-0.354,0.483-0.629,0.533c-0.171,0.029-0.048-0.477-0.031-0.539
		c0.08-0.304-0.38-0.473-0.461-0.166c-0.104,0.392-0.182,1.008,0.313,1.169c0.493,0.161,0.964-0.364,1.208-0.714
		C98.695,112.649,98.295,112.366,98.114,112.626z"/>
	<path fill="#C57415" d="M113.521,110.906c-0.157,0.142-0.308,0.31-0.501,0.399c-0.071-0.151-0.011-0.307,0.044-0.5
		c0.083-0.304-0.377-0.472-0.461-0.165c-0.104,0.382-0.202,0.741,0.091,1.066c0.352,0.389,0.88-0.191,1.142-0.426
		C114.07,111.071,113.757,110.695,113.521,110.906z"/>
	<path fill="#C57415" d="M115.029,105.255c-0.186,0.038-0.283-0.041-0.381-0.194c-0.17-0.266-0.544,0.054-0.376,0.314
		c0.191,0.296,0.502,0.433,0.849,0.361C115.428,105.674,115.34,105.192,115.029,105.255z"/>
	<path fill="#C57415" d="M123.407,117.96c-0.205,0.169-0.464,0.316-0.72,0.162c-0.201-0.122-0.265-0.382-0.258-0.6
		c0.009-0.314-0.479-0.354-0.489-0.037c-0.012,0.425,0.146,0.843,0.521,1.071c0.426,0.257,0.908,0.067,1.261-0.222
		C123.967,118.135,123.652,117.761,123.407,117.96z"/>
	<path fill="#FEC671" d="M103.63,35.147c0.22-0.536-0.528-0.847-0.841-0.453c-0.138,0.063-0.249,0.185-0.262,0.384l-0.015,0.217
		c-0.107,0.264-0.215,0.527-0.323,0.79c-0.239,0.585,0.684,0.915,0.922,0.333c0.104-0.256,0.209-0.511,0.313-0.766
		c0.004-0.008,0.006-0.018,0.011-0.026C103.5,35.467,103.565,35.307,103.63,35.147z"/>
	<path fill="#FEC671" d="M99.953,41.142c-0.016,0.216-0.015,0.493-0.182,0.654c-0.192,0.185-0.241,0.474-0.063,0.689
		c0.162,0.193,0.498,0.247,0.69,0.061c0.378-0.363,0.496-0.821,0.53-1.33C100.972,40.587,99.994,40.51,99.953,41.142z"/>
	<path fill="#FEC671" d="M102.32,45.082c-0.204,0.511-0.369,1.036-0.537,1.56c-0.193,0.6,0.728,0.933,0.921,0.332
		c0.169-0.523,0.333-1.048,0.538-1.559C103.478,44.827,102.555,44.497,102.32,45.082z"/>
	<path fill="#FEC671" d="M104.94,49.313c-0.171,0.563-0.233,1.15-0.402,1.712c-0.183,0.603,0.737,0.937,0.921,0.333
		c0.17-0.563,0.233-1.15,0.402-1.713C106.044,49.042,105.123,48.708,104.94,49.313z"/>
	<path fill="#FEC671" d="M101.636,51.874c-0.339,0.58-0.681,1.164-0.897,1.801c-0.203,0.598,0.719,0.93,0.921,0.331
		c0.19-0.558,0.48-1.061,0.777-1.567C102.753,51.896,101.955,51.33,101.636,51.874z"/>
	<path fill="#FEC671" d="M97.136,56.359c-0.353,0.619-0.575,1.271-0.763,1.956c-0.164,0.604,0.755,0.941,0.922,0.332
		c0.162-0.592,0.337-1.186,0.642-1.722C98.246,56.38,97.447,55.812,97.136,56.359z"/>
	<path fill="#FEC671" d="M108.386,49.527c-0.023,0.357-0.061,0.681-0.192,1.017c-0.231,0.588,0.692,0.918,0.921,0.331
		c0.162-0.412,0.22-0.835,0.249-1.273C109.404,48.972,108.429,48.894,108.386,49.527z"/>
	<path fill="#FEC671" d="M108.152,59.658l-0.086,1.299c-0.042,0.629,0.935,0.706,0.977,0.074l0.085-1.299
		C109.17,59.103,108.193,59.026,108.152,59.658z"/>
	<path fill="#FEC671" d="M103.988,65.92c-0.207,0.612-0.509,1.18-0.575,1.833c-0.063,0.627,0.914,0.703,0.978,0.075
		c0.056-0.554,0.343-1.055,0.521-1.577C105.113,65.654,104.191,65.323,103.988,65.92z"/>
	<path fill="#FEC671" d="M114.473,59.988c-0.069-0.425-0.046-0.848-0.018-1.276c0.042-0.628-0.935-0.705-0.977-0.074
		c-0.034,0.511-0.053,1.021,0.031,1.529C113.611,60.79,114.575,60.612,114.473,59.988z"/>
	<path fill="#FEC671" d="M118.414,54.411c-0.233-0.589-1.116-0.167-0.888,0.417c0.282,0.713,0.333,1.487,0.391,2.244
		c0.047,0.629,1.011,0.446,0.963-0.179C118.815,56.043,118.729,55.21,118.414,54.411z"/>
	<path fill="#FEC671" d="M114.578,68.284c-0.292-0.559-1.179-0.144-0.886,0.418c0.335,0.64,0.142,1.244-0.227,1.826
		c-0.336,0.532,0.464,1.099,0.801,0.565C114.816,70.223,115.077,69.24,114.578,68.284z"/>
	<path fill="#FEC671" d="M117.922,69.571c-0.398-0.492-1.148,0.139-0.751,0.63c0.142,0.173,0.183,0.38,0.175,0.601
		c-0.025,0.629,0.951,0.708,0.977,0.074C118.342,70.399,118.226,69.946,117.922,69.571z"/>
	<path fill="#FEC671" d="M113.412,74.278c-0.105-0.623-1.069-0.445-0.963,0.179c0.065,0.389,0.052,0.767,0.025,1.16
		c-0.042,0.629,0.935,0.706,0.977,0.075C113.482,75.216,113.491,74.749,113.412,74.278z"/>
	<path fill="#FEC671" d="M118.918,78.61c-0.298-0.602-0.456-1.235-0.529-1.902c-0.069-0.628-1.032-0.447-0.963,0.179
		c0.082,0.744,0.273,1.47,0.604,2.142C118.311,79.595,119.197,79.178,118.918,78.61z"/>
	<path fill="#FEC671" d="M125.043,84.853c-0.358-0.67-0.894-1.188-1.463-1.679c-0.204-0.174-0.541-0.084-0.683,0.118
		c-0.165,0.234-0.085,0.509,0.117,0.682c0.437,0.375,0.868,0.784,1.142,1.296C124.453,85.826,125.342,85.411,125.043,84.853z"/>
	<path fill="#FEC671" d="M120.245,83.953c-0.047-0.629-1.01-0.445-0.963,0.178c0.063,0.86,0.116,1.721,0.18,2.582
		c0.046,0.629,1.01,0.445,0.964-0.18C120.36,85.673,120.31,84.812,120.245,83.953z"/>
	<path fill="#FEC671" d="M123.216,88.468c-0.18-0.597-1.145-0.427-0.963,0.18c0.281,0.932,0.555,1.866,0.63,2.843
		c0.047,0.629,1.01,0.445,0.963-0.179C123.771,90.336,123.497,89.402,123.216,88.468z"/>
	<path fill="#FEC671" d="M96.608,63.347c-0.399,0.922-0.602,1.89-0.677,2.888c-0.047,0.629,0.93,0.706,0.977,0.075
		c0.069-0.918,0.255-1.785,0.622-2.631C97.781,63.099,96.858,62.771,96.608,63.347z"/>
	<path fill="#FEC671" d="M100.555,70.978c-0.082-0.627-1.045-0.446-0.964,0.179c0.081,0.626,0.145,1.257,0.227,1.881
		c0.081,0.628,1.044,0.447,0.962-0.177C100.699,72.233,100.636,71.604,100.555,70.978z"/>
	<path fill="#FEC671" d="M104.579,77.198c-0.042-0.63-1.005-0.446-0.963,0.178c0.051,0.742-0.013,1.471-0.159,2.199
		c-0.126,0.617,0.853,0.686,0.976,0.074C104.599,78.832,104.637,78.028,104.579,77.198z"/>
	<path fill="#FEC671" d="M95.764,81.635c-0.068-0.426-0.044-0.847-0.017-1.275c0.041-0.628-0.937-0.707-0.978-0.075
		c-0.034,0.511-0.051,1.021,0.032,1.528C94.903,82.438,95.866,82.259,95.764,81.635z"/>
	<path fill="#FEC671" d="M101.073,82.57c-0.182-0.891-0.235-1.797-0.288-2.704c-0.037-0.629-1-0.445-0.964,0.179
		c0.053,0.906,0.108,1.813,0.289,2.704C100.235,83.367,101.199,83.191,101.073,82.57z"/>
	<path fill="#FEC671" d="M106.815,82.249c-0.075-0.628-1.037-0.446-0.964,0.179c0.059,0.503,0.036,1.004,0.002,1.508
		c-0.042,0.629,0.936,0.706,0.978,0.075C106.87,83.42,106.885,82.836,106.815,82.249z"/>
	<path fill="#FEC671" d="M110.741,89.278c-0.299-0.572-0.641-1.122-0.939-1.696c-0.291-0.559-1.179-0.144-0.885,0.418
		c0.298,0.573,0.64,1.122,0.938,1.697C110.145,90.256,111.033,89.841,110.741,89.278z"/>
	<path fill="#FEC671" d="M122.031,97.783c-0.225-0.131-0.449-0.264-0.674-0.395c-0.23-0.134-0.52-0.114-0.683,0.118
		c-0.145,0.203-0.113,0.548,0.117,0.683c0.226,0.132,0.449,0.263,0.675,0.395c0.23,0.134,0.52,0.114,0.682-0.117
		C122.293,98.261,122.263,97.917,122.031,97.783z"/>
	<path fill="#FEC671" d="M129.457,100.258c-0.19-0.116-0.309-0.248-0.458-0.418c-0.416-0.475-1.167,0.154-0.75,0.629
		c0.192,0.22,0.391,0.435,0.644,0.589C129.429,101.387,129.996,100.586,129.457,100.258z"/>
	<path fill="#FEC671" d="M141.072,102.022c-0.122-0.259-0.401-0.325-0.652-0.235c-0.122,0.045-0.214-0.006-0.322-0.063
		c-0.238-0.123-0.546,0.069-0.627,0.295c-0.1,0.276,0.057,0.504,0.295,0.628c0.352,0.181,0.709,0.158,1.072,0.026
		C141.089,102.584,141.178,102.248,141.072,102.022z"/>
	<path fill="#FEC671" d="M87.133,91.816c0.185-0.192,0.246-0.469,0.061-0.689c-0.156-0.188-0.505-0.255-0.689-0.062
		c-0.168,0.174-0.226,0.403-0.387,0.558c-0.193,0.185-0.241,0.475-0.063,0.69c0.163,0.194,0.498,0.246,0.69,0.061
		c0.106-0.1,0.202-0.206,0.281-0.329c0.045-0.072,0.08-0.151,0.119-0.228C87.198,91.716,87.158,91.791,87.133,91.816z"/>
	<path fill="#FEC671" d="M92.811,87.264c-0.178,0.537-0.418,1.051-0.571,1.598c-0.172,0.604,0.748,0.94,0.921,0.331
		c0.155-0.546,0.393-1.061,0.572-1.597C93.932,86.997,93.011,86.665,92.811,87.264z"/>
	<path fill="#FEC671" d="M91.117,93.456c-0.309,0.942-0.684,1.859-1.177,2.721c-0.312,0.544,0.487,1.113,0.8,0.564
		c0.538-0.938,0.962-1.925,1.299-2.954C92.236,93.189,91.314,92.856,91.117,93.456z"/>
	<path fill="#FEC671" d="M96.313,97.886c-0.147,0.491-0.185,1.005-0.332,1.495c-0.182,0.604,0.739,0.938,0.922,0.332
		c0.147-0.491,0.184-1.005,0.332-1.496C97.416,97.614,96.495,97.28,96.313,97.886z"/>
	<path fill="#FEC671" d="M102.098,98.866c-0.103-0.623-1.065-0.444-0.962,0.179c0.063,0.387,0.05,0.769,0.024,1.159
		c-0.041,0.629,0.936,0.708,0.978,0.075C102.169,99.806,102.176,99.334,102.098,98.866z"/>
	<path fill="#FEC671" d="M97.991,104.302c-0.284,0.591-0.546,1.183-0.705,1.82c-0.15,0.608,0.77,0.945,0.922,0.332
		c0.159-0.639,0.421-1.23,0.703-1.821C99.185,104.063,98.261,103.737,97.991,104.302z"/>
	<path fill="#FEC671" d="M105.695,102.255l-0.107,1.628c-0.042,0.629,0.936,0.706,0.978,0.074l0.106-1.627
		C106.714,101.7,105.737,101.623,105.695,102.255z"/>
	<path fill="#FEC671" d="M112.496,106.908c-0.16-0.412-0.146-0.868-0.219-1.3c-0.103-0.623-1.065-0.444-0.962,0.18
		c0.085,0.525,0.1,1.034,0.295,1.537C111.838,107.915,112.724,107.494,112.496,106.908z"/>
	<path fill="#FEC671" d="M109.328,110.9c-0.212,1.166-0.596,2.29-0.909,3.43c-0.166,0.606,0.755,0.941,0.923,0.332
		c0.337-1.227,0.736-2.433,0.962-3.687C110.416,110.355,109.438,110.284,109.328,110.9z"/>
	<path fill="#FEC671" d="M116.117,107.365c-0.187,0.585-0.303,1.145-0.236,1.76c0.068,0.628,1.031,0.446,0.963-0.179
		c-0.047-0.437,0.064-0.837,0.195-1.249C117.232,107.097,116.311,106.765,116.117,107.365z"/>
	<path fill="#FEC671" d="M113.561,113.982c-0.062,0.814-0.215,1.618-0.277,2.434c-0.049,0.629,0.929,0.705,0.977,0.073
		c0.063-0.813,0.215-1.618,0.277-2.433C114.586,113.429,113.609,113.351,113.561,113.982z"/>
	<path fill="#FEC671" d="M82.576,106.502c-0.031,0.048-0.059,0.096-0.101,0.135c-0.061,0.062-0.105,0.05-0.019,0.048
		c-0.267,0.007-0.504,0.164-0.525,0.451c-0.02,0.244,0.184,0.534,0.45,0.526c0.431-0.014,0.767-0.236,0.997-0.596
		C83.716,106.535,82.916,105.97,82.576,106.502z"/>
	<path fill="#FEC671" d="M94.851,113.004c-0.205-0.145-0.546-0.111-0.683,0.118c-0.159,0.271-0.337,0.576-0.612,0.745
		c-0.229,0.138-0.358,0.391-0.235,0.651c0.105,0.223,0.424,0.373,0.651,0.234c0.437-0.264,0.739-0.631,0.998-1.066
		C95.104,113.457,95.082,113.166,94.851,113.004z"/>
	<path fill="#FEC671" d="M101.2,118.428c-0.202-0.143-0.552-0.116-0.683,0.117c-0.133,0.235-0.235,0.486-0.367,0.72
		c-0.131,0.233-0.117,0.519,0.118,0.684c0.201,0.142,0.551,0.114,0.682-0.119c0.133-0.234,0.235-0.484,0.367-0.72
		C101.448,118.877,101.434,118.592,101.2,118.428z"/>
	<path fill="#FEC671" d="M104.876,129.904c-0.247,0.33-0.457,0.688-0.705,1.018c-0.38,0.507,0.424,1.068,0.802,0.564
		c0.247-0.33,0.457-0.687,0.704-1.018C106.058,129.961,105.256,129.4,104.876,129.904z"/>
	<path fill="#FEC671" d="M115.564,129.797c-0.04,0.494-0.161,0.969-0.289,1.447c-0.164,0.604,0.757,0.941,0.922,0.331
		c0.15-0.561,0.297-1.124,0.345-1.705C116.593,129.241,115.616,129.165,115.564,129.797z"/>
	<path fill="#FEC671" d="M103.399,150.671c-0.48,0.806-1.059,1.544-1.539,2.348c-0.321,0.54,0.477,1.107,0.8,0.564
		c0.48-0.804,1.06-1.542,1.54-2.347C104.522,150.696,103.723,150.131,103.399,150.671z"/>
	<path fill="#FEC671" d="M111.93,148.056c-0.157,0.529-0.475,0.975-0.787,1.425c-0.36,0.52,0.442,1.083,0.801,0.564
		c0.358-0.518,0.728-1.048,0.907-1.657C113.03,147.784,112.11,147.45,111.93,148.056z"/>
	<path fill="#FEC671" d="M103.698,142.921c-0.284,0.382-0.437,0.811-0.476,1.283c-0.053,0.629,0.925,0.705,0.977,0.075
		c0.024-0.306,0.117-0.548,0.299-0.794C104.876,142.978,104.073,142.413,103.698,142.921z"/>
	<path fill="#FEC671" d="M87.977,132.728c-0.176,0.229-0.355,0.484-0.606,0.638c-0.229,0.139-0.358,0.392-0.235,0.652
		c0.105,0.222,0.424,0.373,0.652,0.233c0.408-0.248,0.702-0.583,0.99-0.958C89.163,132.789,88.36,132.229,87.977,132.728z"/>
	<path fill="#FEC671" d="M93.619,133.243C93.619,133.244,93.619,133.243,93.619,133.243c-0.019,0.019-0.064,0.072-0.064,0.072
		c-0.475,0.42,0.154,1.171,0.628,0.751c0.236-0.208,0.373-0.432,0.414-0.747C94.679,132.692,93.701,132.618,93.619,133.243z"/>
	<path fill="#FEC671" d="M88.549,120.842c-0.346,0.575-0.787,1.079-1.172,1.626c-0.365,0.517,0.437,1.081,0.8,0.564
		c0.386-0.547,0.827-1.051,1.173-1.626C89.673,120.867,88.874,120.302,88.549,120.842z"/>
	<path fill="#FEC671" d="M72.686,110.845c-0.25,0.058-0.458,0.049-0.698-0.042c-0.593-0.223-0.923,0.699-0.332,0.923
		c0.393,0.146,0.801,0.179,1.209,0.083C73.478,111.666,73.303,110.702,72.686,110.845z"/>
	<path fill="#FEC671" d="M73.712,115.632c-0.045-0.247-0.313-0.459-0.571-0.392c-0.394,0.104-0.778,0.214-1.1,0.474
		c-0.494,0.398,0.138,1.148,0.628,0.752c0.186-0.15,0.425-0.203,0.652-0.263C73.578,116.136,73.764,115.909,73.712,115.632z"/>
	<path fill="#FEC671" d="M88.338,109.125c-0.17,0.142-0.354,0.229-0.559,0.315c-0.583,0.245-0.164,1.13,0.417,0.886
		c0.277-0.117,0.537-0.255,0.769-0.45C89.453,109.472,88.822,108.721,88.338,109.125z"/>
	<path fill="#FEC671" d="M79.919,121.849c-0.217-0.208-0.438-0.197-0.711-0.141c-0.161,0.033-0.265,0.123-0.324,0.235
		c-0.153,0.063-0.307,0.123-0.459,0.186c-0.585,0.242-0.165,1.128,0.417,0.886c0.281-0.116,0.574-0.215,0.844-0.356
		C79.957,122.516,80.204,122.12,79.919,121.849z"/>
	<path fill="#FEC671" d="M72.611,124.801c-0.338,0.291-0.706,0.525-1.116,0.704c-0.581,0.251-0.161,1.137,0.417,0.886
		c0.481-0.209,0.931-0.498,1.328-0.839C73.72,125.139,73.09,124.389,72.611,124.801z"/>
	<path fill="#FEC671" d="M72.734,133.666c-0.045-0.244-0.314-0.467-0.571-0.394c-0.41,0.118-0.781,0.306-1.107,0.58
		c-0.485,0.408,0.145,1.158,0.628,0.752c0.193-0.162,0.415-0.299,0.658-0.368C72.598,134.162,72.788,133.947,72.734,133.666z"/>
	<path fill="#FEC671" d="M91.579,127.756c-0.264,0.23-0.526,0.462-0.79,0.692c0,0-0.001,0-0.001,0.001
		c-0.004,0.004-0.008,0.007-0.013,0.012c-0.474,0.417,0.152,1.166,0.628,0.75c0.004-0.003,0.009-0.007,0.013-0.011l0,0
		c0.265-0.229,0.527-0.462,0.791-0.691C92.684,128.091,92.055,127.341,91.579,127.756z"/>
	<path fill="#FEC671" d="M81.438,137.765c-0.409,0.174-0.8,0.384-1.208,0.559c-0.583,0.249-0.163,1.134,0.417,0.886
		c0.408-0.174,0.8-0.384,1.208-0.558C82.438,138.401,82.018,137.517,81.438,137.765z"/>
	<path fill="#FEC671" d="M87.508,141.426c-0.389,0.502-0.829,1.024-1.396,1.331c-0.554,0.3-0.14,1.188,0.417,0.886
		c0.722-0.391,1.283-1.009,1.78-1.651C88.697,141.489,87.895,140.929,87.508,141.426z"/>
	<path fill="#FEC671" d="M92.022,150.452c-0.099,0.123-0.247,0.243-0.384,0.348c-0.024,0.02-0.16,0.112-0.138,0.099
		c-0.026,0.016-0.053,0.03-0.078,0.044c-0.008,0.005-0.005,0.003-0.009,0.006c-0.251,0.04-0.413,0.327-0.368,0.563
		c0.051,0.281,0.305,0.416,0.57,0.392c0.216-0.019,0.431-0.193,0.599-0.312c0.228-0.162,0.434-0.356,0.608-0.573
		C93.22,150.524,92.416,149.965,92.022,150.452z"/>
	<path fill="#FEC671" d="M95.171,155.983c-0.443,0.662-0.92,1.298-1.405,1.931c-0.385,0.503,0.418,1.063,0.8,0.564
		c0.485-0.632,0.964-1.268,1.405-1.93C96.322,156.023,95.521,155.459,95.171,155.983z"/>
	<path fill="#FEC671" d="M97.774,165.468c-0.236-0.167-0.505-0.083-0.683,0.118c-0.314,0.355-0.734,0.599-1.15,0.814
		c-0.56,0.291-0.144,1.178,0.417,0.888c0.578-0.301,1.102-0.647,1.533-1.138C98.069,165.949,97.975,165.608,97.774,165.468z"/>
	<path fill="#FEC671" d="M104.262,157.769c-0.142,0.477-0.454,0.842-0.772,1.213c-0.174,0.203-0.084,0.54,0.118,0.683
		c0.233,0.165,0.509,0.085,0.683-0.117c0.373-0.437,0.729-0.888,0.893-1.446C105.362,157.498,104.441,157.163,104.262,157.769z"/>
	<path fill="#FEC671" d="M45.886,119.637c-0.116,0.355-0.253,0.695-0.44,1.021c-0.133,0.231-0.114,0.519,0.118,0.683
		c0.203,0.143,0.549,0.114,0.682-0.118c0.232-0.4,0.419-0.813,0.562-1.254C47.003,119.367,46.082,119.034,45.886,119.637z"/>
	<path fill="#FEC671" d="M49.187,115.581c-0.224,0.276-0.549,0.469-0.817,0.699c-0.48,0.411,0.148,1.162,0.628,0.751
		c0.34-0.291,0.706-0.534,0.989-0.886C50.386,115.654,49.582,115.094,49.187,115.581z"/>
	<path fill="#FEC671" d="M66.141,110.98c-0.046-0.247-0.312-0.462-0.57-0.392c-0.241,0.064-0.483,0.158-0.736,0.148
		c-0.628-0.022-0.707,0.955-0.074,0.978c0.35,0.012,0.656-0.073,0.989-0.162C66.006,111.482,66.194,111.259,66.141,110.98z"/>
	<path fill="#FEC671" d="M57.352,118.821c-0.9,0.337-1.606,1.003-2.21,1.73c-0.406,0.488,0.399,1.048,0.8,0.564
		c0.501-0.603,1.085-1.13,1.828-1.408C58.361,119.485,57.939,118.602,57.352,118.821z"/>
	<path fill="#FEC671" d="M64.986,117.185c-0.044-0.238-0.315-0.473-0.57-0.392c-0.543,0.17-1.109,0.26-1.638,0.471
		c-0.588,0.233-0.167,1.119,0.417,0.886c0.451-0.179,0.938-0.248,1.4-0.393C64.849,117.676,65.04,117.472,64.986,117.185z"/>
	<path fill="#FEC671" d="M68.666,120.068c-0.226,0.189-0.442,0.256-0.736,0.241c-0.628-0.032-0.708,0.945-0.075,0.978
		c0.544,0.027,1.021-0.112,1.44-0.468C69.778,120.413,69.148,119.662,68.666,120.068z"/>
	<path fill="#FEC671" d="M52.356,128.467c-0.643,0.465-1.115,1.113-1.477,1.812c-0.124,0.236-0.123,0.513,0.118,0.683
		c0.195,0.138,0.559,0.118,0.682-0.118c0.329-0.63,0.725-1.206,1.305-1.625C53.497,128.847,52.864,128.099,52.356,128.467z"/>
	<path fill="#FEC671" d="M59.583,132.818c-0.229-0.162-0.512-0.088-0.682,0.118c-0.123,0.149-0.335,0.228-0.523,0.176
		c-0.257-0.071-0.531,0.029-0.626,0.295c-0.084,0.237,0.038,0.555,0.296,0.626c0.632,0.177,1.237-0.027,1.653-0.532
		C59.872,133.295,59.789,132.964,59.583,132.818z"/>
	<path fill="#FEC671" d="M66.633,134.657c-0.316,0.13-0.638,0.229-0.969,0.315c-0.258,0.067-0.443,0.295-0.392,0.571
		c0.046,0.248,0.312,0.459,0.571,0.392c0.411-0.106,0.816-0.229,1.208-0.392C67.635,135.303,67.214,134.417,66.633,134.657z"/>
	<path fill="#FEC671" d="M51.61,135.647c-0.648-0.298-1.348-0.406-2.05-0.248c-0.613,0.141-0.438,1.104,0.179,0.965
		c0.546-0.126,1.036-0.026,1.541,0.203C51.854,136.83,52.18,135.906,51.61,135.647z"/>
	<path fill="#FEC671" d="M49.775,140.204c-0.291,0.044-0.546-0.036-0.78-0.208c-0.512-0.371-1.074,0.431-0.565,0.802
		c0.448,0.325,0.979,0.451,1.524,0.371C50.58,141.075,50.4,140.111,49.775,140.204z"/>
	<path fill="#FEC671" d="M60.889,138.263c-0.356-0.032-0.697-0.146-1.053-0.177c-0.629-0.056-0.705,0.921-0.075,0.977
		c0.355,0.032,0.698,0.145,1.053,0.176C61.443,139.295,61.519,138.318,60.889,138.263z"/>
	<path fill="#FEC671" d="M72.881,138.37c-0.627,0.265-1.257,0.528-1.865,0.835c-0.563,0.285-0.147,1.172,0.418,0.887
		c0.608-0.308,1.236-0.571,1.864-0.835C73.883,139.012,73.462,138.127,72.881,138.37z"/>
	<path fill="#FEC671" d="M68.257,143.92c-0.323,0.125-0.686,0.096-1.011-0.003c-0.602-0.181-0.937,0.74-0.331,0.922
		c0.587,0.177,1.183,0.189,1.759-0.032C69.264,144.579,68.843,143.694,68.257,143.92z"/>
	<path fill="#FEC671" d="M77.95,143.982c-0.627,0.07-1.229,0.248-1.837,0.41c-0.606,0.161-0.433,1.125,0.179,0.963
		c0.609-0.161,1.209-0.34,1.837-0.41C78.758,144.873,78.576,143.911,77.95,143.982z"/>
	<path fill="#FEC671" d="M48.86,145.046c-0.263-0.117-0.508-0.339-0.701-0.553c-0.424-0.469-1.175,0.158-0.752,0.628
		c0.315,0.35,0.691,0.655,1.123,0.846c0.245,0.108,0.541-0.058,0.626-0.295C49.251,145.407,49.104,145.153,48.86,145.046z"/>
	<path fill="#FEC671" d="M54.367,148.709c-0.343-0.138-0.696-0.25-1.039-0.389c-0.587-0.234-0.917,0.688-0.332,0.923
		c0.344,0.138,0.696,0.25,1.04,0.388C54.624,149.865,54.953,148.942,54.367,148.709z"/>
	<path fill="#FEC671" d="M53.547,142.002c-0.235-0.133-0.486-0.235-0.721-0.368c-0.233-0.131-0.519-0.115-0.684,0.118
		c-0.142,0.202-0.115,0.553,0.119,0.683c0.234,0.133,0.486,0.235,0.72,0.367c0.232,0.131,0.518,0.116,0.683-0.119
		C53.808,142.482,53.781,142.132,53.547,142.002z"/>
	<path fill="#FEC671" d="M68.809,148.899c-0.626-0.043-1.263-0.076-1.878-0.213c-0.26-0.057-0.528,0.021-0.627,0.296
		c-0.082,0.227,0.035,0.568,0.295,0.626c0.706,0.157,1.417,0.22,2.136,0.268C69.364,149.917,69.441,148.94,68.809,148.899z"/>
	<path fill="#FEC671" d="M87.065,148.687c-0.238-0.17-0.503-0.081-0.682,0.116c-0.207,0.228-0.551,0.332-0.848,0.261
		c-0.259-0.061-0.528,0.023-0.626,0.296c-0.082,0.229,0.035,0.564,0.295,0.627c0.767,0.181,1.45-0.037,1.979-0.619
		C87.364,149.171,87.264,148.824,87.065,148.687z"/>
	<path fill="#FEC671" d="M86.855,155.762c-0.383,0.336-0.766,0.699-1.236,0.909c-0.579,0.258-0.16,1.143,0.417,0.886
		c0.547-0.243,1.002-0.652,1.448-1.045C87.959,156.097,87.33,155.345,86.855,155.762z"/>
	<path fill="#FEC671" d="M67.196,154.347c-0.42-0.142-0.774-0.375-1.113-0.66c-0.205-0.171-0.539-0.086-0.683,0.119
		c-0.164,0.231-0.086,0.511,0.118,0.683c0.4,0.337,0.849,0.612,1.346,0.78C67.463,155.471,67.796,154.549,67.196,154.347z"/>
	<path fill="#FEC671" d="M75.169,157.748c-0.57-0.27-1.154-0.498-1.768-0.649c-0.606-0.15-0.944,0.77-0.331,0.922
		c0.613,0.151,1.197,0.38,1.767,0.649C75.409,158.938,75.735,158.016,75.169,157.748z"/>
	<path fill="#FEC671" d="M60.44,151.473c-0.119-0.255-0.402-0.329-0.65-0.233c-0.28,0.106-0.511-0.051-0.667-0.273
		c-0.153-0.219-0.499-0.221-0.689-0.062c-0.219,0.183-0.215,0.472-0.062,0.69c0.421,0.602,1.163,0.786,1.835,0.53
		C60.457,152.03,60.548,151.701,60.44,151.473z"/>
	<path fill="#FEC671" d="M53.171,153.549c-0.175-0.441-0.226-0.926-0.288-1.393c-0.083-0.627-1.046-0.447-0.963,0.179
		c0.074,0.556,0.156,1.106,0.364,1.631C52.518,154.554,53.403,154.133,53.171,153.549z"/>
	<path fill="#FEC671" d="M73.009,161.438c-0.699-0.348-1.422-0.613-2.184-0.783c-0.609-0.134-0.947,0.786-0.332,0.923
		c0.763,0.168,1.485,0.434,2.184,0.783C73.243,162.641,73.566,161.716,73.009,161.438z"/>
	<path fill="#FEC671" d="M69.378,164.479c-1.188-0.124-1.79-1.322-2.489-2.141c-0.412-0.481-1.162,0.147-0.751,0.628
		c0.912,1.067,1.634,2.329,3.166,2.489C69.931,165.521,70.006,164.545,69.378,164.479z"/>
	<path fill="#FEC671" d="M91.401,160.991c-0.453,0.223-0.858,0.262-1.335,0.081c-0.592-0.223-0.922,0.7-0.332,0.923
		c0.709,0.27,1.407,0.214,2.083-0.117C92.387,161.6,91.97,160.713,91.401,160.991z"/>
	<path fill="#FEC671" d="M102.728,137.953c-0.28,0.065-0.55,0.055-0.835,0.035c-0.629-0.04-0.706,0.937-0.073,0.977
		c0.363,0.024,0.729,0.033,1.087-0.049C103.519,138.773,103.345,137.809,102.728,137.953z"/>
	<path fill="#C31520" stroke="#69014C" stroke-width="1.8147" stroke-linecap="round" stroke-linejoin="round" d="M141.94,99.819
		c0,0-4.452-4.968-6.938-11.623c-2.485-6.657-0.397-12.333,2.67-13.415c3.068-1.081,5.143,1.517,5.196,3.945
		c0.055,2.43-0.113,2.812-0.113,2.812s2.595-2.906,5.426-3.346c2.77-0.431,5.464,1.572,4.632,6.032
		c-0.76,4.081-3.999,8.531-6.787,11.511C143.697,98.228,141.94,99.819,141.94,99.819z"/>
	<path fill="#FFF2DF" d="M117.325,25.119c-2.041-0.811-4.569,0.604-4.803,2.791c-0.048,0.164-0.09,0.332-0.12,0.506
		c-0.355,2.04,1.348,3.708,3.144,4.261c1.766,0.544,3.743-0.066,4.362-1.919C120.582,28.743,119.31,25.906,117.325,25.119z"/>
	<path fill="#FFF2DF" d="M132.883,24.739c-1.143-1.732-3.476-2.114-5.195-1c-0.837,0.542-1.583,1.495-1.474,2.548
		c0.013,0.137,0.042,0.269,0.081,0.397c-0.104,1.027,0.351,2.03,1.322,2.767c1.313,0.994,3.296,1.187,4.654,0.215
		C133.833,28.55,133.862,26.226,132.883,24.739z"/>
	<path fill="#EC1C29" d="M142.701,96.551c-2.152-2.743-3.934-5.64-5.075-8.917c-0.398-1.519-0.656-2.889-0.476-4.48
		c0.066-0.589,0.26-2.121,0.791-2.949c0.048-0.012,0.097-0.024,0.145-0.041c0.154-0.056,0.247-0.005,0.4,0.051
		c0.3,0.108,0.594,0.192,0.913,0.236c0.446,0.061,0.93-0.051,1.342-0.26c0.438-0.06,0.854-0.377,0.899-0.887
		c0.3-0.667,0.181-1.511-0.149-2.149c-0.479-0.923-1.452-1.645-2.517-1.641c-0.653,0.002-1.176,0.24-1.611,0.601
		c-1.524,0.667-2.178,2.809-2.438,4.267c-0.126,0.71-0.19,1.42-0.203,2.125c-0.029,0.146-0.029,0.281-0.002,0.404
		c0.054,5.46,3.221,10.748,6.479,14.898C141.982,98.806,143.479,97.543,142.701,96.551z"/>
	<path fill="#60240D" d="M117.52,27.929c-0.141-1.007-1.447-1.602-2.499-1.473c-2.123,0.26-1.831,2.996-0.628,4.125
		c0.761,0.715,1.938,0.925,2.749,0.175C117.931,30.029,117.921,28.855,117.52,27.929z"/>
	<path fill="#60240D" d="M128.127,24.743c-0.017,0.016-0.028,0.035-0.044,0.05c-1.067,0.482-0.725,2.007-0.174,2.874
		c0.3,0.471,0.799,0.925,1.379,0.968c0.745,0.057,1.196-0.604,1.421-1.223C131.229,25.971,129.738,23.161,128.127,24.743z"/>
	<path fill="#60240D" d="M113.762,21.616c-1.276,0.352-2.518,1.13-2.879,2.48c-0.161,0.606,0.759,0.942,0.922,0.332
		c0.27-1.009,1.174-1.583,2.134-1.848C114.542,22.413,114.37,21.447,113.762,21.616z"/>
	<path fill="#60240D" d="M131.559,21.285c-1.407-0.729-2.945-0.979-4.509-0.695c-0.62,0.114-0.443,1.077,0.18,0.964
		c1.407-0.257,2.735,0,3.998,0.653C131.787,22.497,132.112,21.571,131.559,21.285z"/>
	<path fill="#60240D" d="M143.134,45.075c-0.192,0.106-0.392,0.224-0.604,0.28c-0.214,0.057-0.244-0.03-0.327-0.231
		c-0.242-0.585-1.127-0.165-0.887,0.417c0.184,0.443,0.507,0.75,0.992,0.811c0.432,0.053,0.879-0.19,1.243-0.39
		C144.104,45.659,143.689,44.771,143.134,45.075z"/>
	<path fill="#60240D" d="M151.702,45.102c-0.139,0.142-0.431,0.522-0.656,0.527c-0.149,0.003-0.342-0.353-0.418-0.48
		c-0.324-0.536-1.214-0.124-0.887,0.418c0.265,0.438,0.605,0.976,1.169,1.034c0.579,0.059,1.045-0.36,1.421-0.746
		C152.769,45.404,152.143,44.65,151.702,45.102z"/>
	<path fill="#60240D" d="M139.641,60.776c-2.744-0.524-5.213-1.898-7.12-3.938c-0.975-1.042-1.499-2.327-1.744-3.709
		c-0.066-0.526-0.062-1.05,0.014-1.572c0.077-0.299,0.154-0.598,0.231-0.896c0.525-1.169,1.202-1.572,2.03-1.209
		c-0.39,0.498,0.414,1.059,0.8,0.564c0.857-1.097-0.378-1.657-1.408-1.657c-1.853-0.004-2.536,2.194-2.683,3.646
		c-0.53,5.271,5.381,8.903,9.806,9.749C140.186,61.872,140.255,60.895,139.641,60.776z"/>
	<path fill="#9C361A" d="M105.714,58.023c-0.18-0.399-0.48-0.602-0.807-0.664c-0.171-0.158-0.396-0.272-0.681-0.312
		c-1.433-0.199-3.054,0.408-4.225,1.186c-1.382,0.918-1.56,2.927-0.163,3.919C102.091,63.753,106.993,60.852,105.714,58.023z"/>
	<path fill="#9C361A" d="M121.61,62.669c-0.062-0.112-0.13-0.214-0.2-0.311c-0.151-1.224-0.843-2.249-2.346-2.294
		c-1.236-0.036-2.276,0.696-2.757,1.81c-0.416,0.966-0.192,2.109,0.156,3.053c0.699,1.898,3.013,3.463,4.629,1.548
		C121.962,65.445,122.282,63.874,121.61,62.669z"/>
	<path fill="#9C361A" d="M124.41,71.907c-0.177-0.5-0.637-0.868-1.311-0.69c-1.232,0.325-2.475,1.207-3.119,2.319
		c-0.815,1.402-0.188,3.052,1.452,3.422C124.207,77.585,126.642,73.624,124.41,71.907z"/>
	<path fill="#9C361A" d="M95.598,71.105c-0.234-0.186-0.555-0.272-0.948-0.172c-2.272,0.577-2.342,3.098-1.615,4.919
		c0.333,0.835,0.921,1.555,1.746,1.927c1.011,0.454,2.081-0.232,2.591-1.087C98.561,74.696,98.199,71.29,95.598,71.105z"/>
	<path fill="#9C361A" d="M116.074,78.58c-0.395-0.479-0.92-0.526-1.355-0.335c-0.548-0.08-1.23,0.211-1.355,0.788
		c-0.416,1.916,0.155,3.682,1.687,4.934c0.65,0.531,1.566,0.096,1.858-0.587C117.601,81.764,117.164,79.906,116.074,78.58z"/>
	<path fill="#9C361A" d="M109.963,70.736c-0.511-0.375-1.04-0.273-1.412,0.036c-1.165,0.176-2.381,1.098-2.766,2.208
		c-0.507,1.465,0.78,2.825,2.237,2.655C110.142,75.39,112.031,72.249,109.963,70.736z"/>
	<path fill="#9C361A" d="M101.796,90.234c-0.043-0.808-0.457-1.526-1.327-1.947c-1.081-0.526-2.519,0.045-3.36,0.756
		c-1.297,1.097-2.633,4.407-0.656,5.539c1.441,0.826,3.332,0.088,4.462-0.959c0.615-0.571,1.103-1.334,1.142-2.193
		C102.074,90.991,101.974,90.595,101.796,90.234z"/>
	<path fill="#9C361A" d="M117.313,96.49c0.144-1.998-1.359-4.197-3.551-4.033c-1.555,0.116-2.683,1.689-2.7,3.159
		c-0.021,1.688,0.893,3.556,2.507,4.213C115.801,100.739,117.438,98.497,117.313,96.49z"/>
	<path fill="#9C361A" d="M132.468,86.508c-0.287-0.606-0.834-1-1.431-1.26c-0.331-0.144-0.694-0.088-0.996,0.084
		c-0.164,0.044-0.321,0.12-0.456,0.235c-0.793,0.667-1.225,1.622-1.067,2.659c0.146,0.972,0.902,1.702,1.853,1.859
		c1.098,0.183,1.928-0.875,2.213-1.795C132.768,87.697,132.731,87.069,132.468,86.508z"/>
	<path fill="#9C361A" d="M93.645,101.059c-0.298-0.851-0.928-1.526-1.967-1.706c-1.387-0.241-2.751,0.695-3.46,1.822
		c-1.092,1.734-1.29,6.935,1.842,6.812c2.243-0.087,3.87-2.473,4.223-4.494C94.438,102.606,94.184,101.734,93.645,101.059z"/>
	<path fill="#9C361A" d="M106.595,107.837c-0.375-0.535-0.879-0.773-1.404-0.799c-3.765-1.626-7.384,8.8-1.424,7.86
		c1.4-0.222,2.267-1.756,2.82-2.907C107.216,110.687,107.465,109.077,106.595,107.837z"/>
	<path fill="#9C361A" d="M85.876,111.862c-1.409-1.118-3.994-0.802-5.56-0.248c-1.278,0.453-2.688,1.66-2.774,3.104
		c-0.082,1.359,1.058,2.255,2.168,2.76c2.148,0.977,5.928,0.834,6.802-1.811c0.075-0.226,0.12-0.446,0.139-0.663
		c0.073-0.111,0.142-0.23,0.207-0.362C87.336,113.665,86.624,112.458,85.876,111.862z"/>
	<path fill="#9C361A" d="M98.498,48.226c-0.345-0.535-1.037-0.858-1.661-0.884c-0.734-0.03-1.439,0.291-1.867,0.895
		c-0.226,0.313-0.326,0.66-0.352,1.016c-0.069,0.093-0.131,0.193-0.17,0.307c-0.346,0.996-0.392,2.528,0.684,3.127
		c1.28,0.714,2.508-0.193,3.081-1.346c0.021-0.043,0.036-0.09,0.055-0.134c0.189-0.139,0.342-0.333,0.433-0.566
		C99.023,49.806,98.982,48.979,98.498,48.226z"/>
	<path fill="#9C361A" d="M89.417,81.164c-1.753-0.133-2.941,1.429-3.071,3.038c-0.005,0.056,0,0.109,0.004,0.164
		c-0.322,1.121-0.283,2.338,0.59,3.104c0.803,0.704,1.918,0.236,2.626-0.333c0.814-0.655,1.572-1.631,1.909-2.629
		C92.001,82.955,91.121,81.292,89.417,81.164z"/>
	<path fill="#9C361A" d="M120.282,108.265c-1.975-0.084-3.369,2.058-3.731,3.755c-0.288,1.354,0.371,2.609,1.43,3.275
		c0.296,0.28,0.654,0.503,1.098,0.623c1.29,0.351,2.709-0.223,3.336-1.423C123.35,112.702,122.995,108.379,120.282,108.265z"/>
	<path fill="#9C361A" d="M136.644,102.514c-0.924-0.458-2.276-0.413-3.188,0.049c-1.151,0.587-1.46,1.809-0.997,2.96
		c0.139,0.348,0.452,0.569,0.802,0.654c0.168,0.106,0.347,0.188,0.529,0.239c0.908,0.249,1.867,0.014,2.669-0.446
		c0.677-0.386,1.269-0.91,1.36-1.728C137.913,103.427,137.306,102.842,136.644,102.514z"/>
	<path fill="#9C361A" d="M115.345,52.027c-0.017-0.554-0.253-1.047-0.807-1.246c-0.519-0.186-1.002-0.145-1.516-0.019
		c-0.377,0.008-0.739,0.203-1.009,0.515c-0.491,0.571-0.962,1.38-0.922,2.165c0.026,0.503,0.135,0.91,0.438,1.321
		c0.195,0.269,0.558,0.519,0.879,0.598c0.901,0.226,1.676-0.107,2.259-0.812C115.223,53.875,115.371,52.871,115.345,52.027z"/>
	<path fill="#9C361A" d="M100.424,122.837c-0.413-0.568-1.002-0.979-1.649-1.164c-0.555-0.266-1.229-0.306-1.947-0.063
		c-1.392,0.468-1.973,2.306-1.592,3.599c0.397,1.345,1.374,2.435,2.64,3.022c1.353,0.63,2.893-0.13,3.461-1.444
		S101.199,123.904,100.424,122.837z"/>
	<path fill="#9C361A" d="M115.001,119.297c-1.099-1.278-2.876-1.004-4.132-0.18c-0.444,0.291-0.775,0.688-0.995,1.138
		c-0.096,0.11-0.179,0.234-0.239,0.375c-0.432,1.004-0.516,2.195-0.036,3.131c0.179,1.266,1.422,2.154,2.718,1.918
		c1.331-0.244,2.318-1.539,2.886-2.672C115.817,121.776,115.945,120.396,115.001,119.297z"/>
	<path fill="#9C361A" d="M116.258,137.373c-0.794-0.858-2.094-0.951-3.174-0.727c-1.196,0.251-2.372,0.992-2.958,2.083
		c-0.739,1.374-0.786,3.425,0.514,4.493c2.197,1.808,5.438-0.742,5.79-3.279C116.857,139.112,116.958,138.129,116.258,137.373z"/>
	<path fill="#9C361A" d="M66.201,123.073c-0.648-0.59-1.737-0.649-2.522-0.388c-0.162,0.056-0.304,0.129-0.437,0.212
		c-0.7,0.341-1.31,0.963-1.709,1.625c-1.132,1.882-1.023,4.146-0.203,6.117c0.689,1.659,2.228,2.564,3.837,1.518
		c1.358-0.884,1.89-2.976,2.17-4.446C67.648,126.069,67.489,124.248,66.201,123.073z"/>
	<path fill="#9C361A" d="M45.604,126.513c-1.462-1.307-3.068-0.493-3.223,1.651c-0.06,0.836,0.008,1.711,0.126,2.54
		c0.143,1.001-0.064,2.058-0.028,3.069c0.037,1.074,0.582,2.316,1.877,2.311c1.257-0.005,2.086-0.747,2.637-1.838
		c0.244-0.484,0.402-0.98,0.499-1.478C48.468,130.303,48.359,127.033,45.604,126.513z"/>
	<path fill="#9C361A" d="M58.018,141.604c-0.874,0.065-1.683,0.579-2.173,1.296c-0.393,0.572-0.55,1.238-0.58,1.918
		c-0.221,0.432-0.343,0.916-0.319,1.44c0.058,1.238,0.668,2.326,1.792,2.894c2.429,1.225,4.726-2.053,4.849-4.167
		C61.706,142.967,59.969,141.458,58.018,141.604z"/>
	<path fill="#9C361A" d="M83.318,125.107c-1.261-0.247-2.451,0.423-3.323,1.394c-1.608,1.3-2.723,3.397-2.5,5.272
		c0.199,1.671,1.703,2.443,3.265,2.275c2.227-0.24,3.743-1.981,4.672-3.898C86.436,128.084,85.709,125.577,83.318,125.107z"/>
	<path fill="#9C361A" d="M98.605,140.081c-0.834-2.23-3.341-3.707-5.777-2.361c-3.979,2.199-0.853,9.79,3.379,9.223
		C99.454,146.506,99.966,142.644,98.605,140.081z"/>
	<path fill="#9C361A" d="M78.146,146.532c-0.244-0.029-0.479-0.027-0.707-0.007c-1.207-0.294-2.492,0.07-3.477,1.407
		c-1.612,2.188,0.066,5.557,1.461,7.382c0.93,1.218,2.583,2.744,4.268,2.241c1.523-0.453,2.1-1.967,2.357-3.397
		C82.554,151.336,81.516,146.936,78.146,146.532z"/>
	<path fill="#9C361A" d="M62.242,156.174c-2.899-2.243-6.306-0.431-7.642,2.544c-0.252,0.563-0.052,1.027,0.321,1.305
		c0.037,0.052,0.072,0.105,0.121,0.156c1.641,1.746,4.092,2.184,5.761,3.816c0.433,0.424,1.233,0.67,1.726,0.153
		C64.826,161.734,65.013,158.317,62.242,156.174z"/>
	<path fill="#9C361A" d="M124.464,149.377c-0.039-0.323-0.177-0.558-0.363-0.716c-0.064-0.498-0.411-0.925-1.075-0.917
		c-2.288,0.028-4.794,1.187-5.77,3.378c-0.943,2.116,0.051,4.599,2.079,5.642c1.667,0.858,3.258-0.874,3.952-2.173
		C124.116,153.038,124.677,151.149,124.464,149.377z"/>
	<path fill="#9C361A" d="M108.877,162.435c-1.629-0.858-3.377-0.592-4.781,0.326c-1.51,0.49-2.681,1.75-2.288,3.571
		c0.666,3.086,4.519,2.425,6.548,1.34c1.043-0.556,1.983-1.469,2.073-2.709C110.507,163.898,109.785,162.914,108.877,162.435z"/>
	<path fill="#9C361A" d="M88.324,162.305c-0.833-0.894-2.098-1.317-3.297-1.079c-1.123,0.223-1.884,1.021-2.346,1.987
		c-0.872,0.688-1.526,1.546-1.444,2.808c0.128,1.962,1.906,2.688,3.642,2.465C87.621,168.134,90.712,164.868,88.324,162.305z"/>
	<path fill="#9C361A" d="M62.209,111.978c-0.118-1.976-1.274-2.549-2.673-2.476c-0.194-0.081-0.421-0.117-0.682-0.07
		c-2.653,0.467-6.436,1.616-7.13,4.622c-0.296,1.282,0.044,2.886,1.295,3.537c1.217,0.637,2.531,0.354,3.772-0.053
		C58.981,116.818,62.367,114.635,62.209,111.978z"/>
	<path fill="#9C361A" d="M125.644,120.873c-0.095-0.04-0.194-0.074-0.306-0.094c-4.06-0.735-5.812,4.393-4.149,7.418
		c0.643,1.169,1.783,1.59,3.026,1.167c1.012-0.346,1.799-1.431,2.299-2.318C127.53,125.243,128.382,121.562,125.644,120.873z"/>
	<path fill="#4F0D0E" d="M137.016,22.99c-0.509-0.79-1.184-1.411-1.856-2.045c0.014-0.014,0.027-0.023,0.038-0.042
		c0.615-1.013,1.837-2.688,0.541-3.688c-1.312-1.012-3.053,0.836-4.031,1.471c-0.128,0.083-0.118,0.212-0.048,0.305
		c-0.018,0.125,0.049,0.272,0.209,0.301c0.398,0.073,0.741,0.217,1.057,0.398c0.4,0.3,0.771,0.66,1.127,0.961
		c0.75,0.636,1.408,1.345,1.932,2.18c0.089,0.143,0.258,0.146,0.37,0.079c0.099,0.128,0.198,0.254,0.288,0.392
		C136.813,23.568,137.186,23.25,137.016,22.99z"/>
	<path fill="#4F0D0E" d="M105.474,19.809c-1.018-1.326-3.069-3.334-4.858-1.966c-1.679,1.283,0.021,4.431,1.608,4.9
		c0.23,0.068,0.381-0.185,0.303-0.348c0.009-0.013,0.02-0.023,0.025-0.04c0.014-0.032,0.019-0.063,0.026-0.095
		c0.18-0.024,0.324-0.185,0.402-0.397c0.072-0.002,0.146-0.031,0.201-0.092c0.181-0.197,0.313-0.419,0.441-0.644
		c0.018-0.019,0.037-0.036,0.055-0.054c0.065,0.131,0.222,0.208,0.361,0.083c0.184-0.162,0.347-0.336,0.503-0.516
		c0.045,0.008,0.09,0.005,0.134-0.021c0.142-0.104,0.296-0.187,0.462-0.244c0.074-0.032,0.11-0.095,0.126-0.163
		C105.44,20.223,105.618,19.997,105.474,19.809z"/>
	
		<path fill="none" stroke="#6C2A14" stroke-width="2.1349" stroke-linecap="round" stroke-linejoin="round" stroke-miterlimit="10" d="
		M109.028,78.307c0,0,5.464,8.833,12.525,14.577c6.747,5.49,10.163,6.063,10.163,6.063"/>
	
		<path fill="none" stroke="#6C2A14" stroke-width="2.1349" stroke-linecap="round" stroke-linejoin="round" stroke-miterlimit="10" d="
		M102.924,93.938c0,0,4.205,7.231,15.135,11.143c10.887,3.897,13.556,3.472,13.556,3.472"/>
	
		<path fill="none" stroke="#6C2A14" stroke-width="2.1349" stroke-linecap="round" stroke-linejoin="round" stroke-miterlimit="10" d="
		M115.742,45.438c0,0,2.631,5.516,7.991,10.798c5.362,5.28,8.199,6.25,8.199,6.25"/>
	<path fill="#FDB917" d="M108.511,78.396c0,0,5.232,8.299,11.5,13.75c6.269,5.451,11.592,7.552,16.209,8.281
		c4.619,0.73,6.864,0.454,6.864,0.454s-12.224,0.412-18.254-3.007c-6.031-3.421-11.766-8.943-13.961-13.437
		C108.674,79.944,108.511,78.396,108.511,78.396z"/>
	<path fill="#9C361A" d="M75.639,184.44c-0.593-0.618-1.454-0.317-1.665,0.473c-0.123,0.46-0.048,0.929,0.207,1.266
		c0.086,0.229,0.224,0.435,0.464,0.528c0.359,0.137,0.698-0.049,0.932-0.317C76.03,185.873,76.137,184.959,75.639,184.44z"/>
	<path fill="#9C361A" d="M79.398,177.47c-0.184-0.47-0.761-0.717-1.232-0.575c-0.148,0.044-0.287,0.117-0.413,0.209
		c-0.43,0.22-0.85,0.514-1.052,0.939c-0.259,0.55,0.018,1.243,0.604,1.42C78.404,179.794,79.852,178.628,79.398,177.47z"/>
	<path fill="#9C361A" d="M82.696,172.189c-0.294-0.878-1.457-1.472-2.241-0.815c-0.214,0.18-0.323,0.436-0.346,0.705
		c-0.04,0.081-0.064,0.173-0.046,0.286c0.127,0.788,0.602,2.065,1.539,2.163C82.94,174.668,82.994,173.079,82.696,172.189z"/>
	<path fill="#9C361A" d="M79.012,183.405c-1.046,0.068-2.125,0.907-1.378,1.998c0.011,0.017,0.022,0.027,0.033,0.04
		c0.099,0.174,0.238,0.328,0.424,0.433c1.066,0.604,3.048,0.202,3.249-1.2C81.505,183.523,79.768,183.353,79.012,183.405z"/>
	<path fill="#9C361A" d="M95.714,177.389c-0.687-0.325-1.328,0.002-1.657,0.643c-0.325,0.637-0.531,2.2-0.055,3.048
		c0.108,0.464,0.369,0.832,0.916,0.861c1.136,0.059,1.558-1.175,1.731-2.092C96.836,178.871,96.682,177.848,95.714,177.389z"/>
	<path fill="#9C361A" d="M98.772,171.074c-0.552-0.137-1.169,0.13-1.67,0.543c-0.619,0.286-1.156,0.805-1.29,1.466
		c-0.21,1.033,1.034,1.387,1.782,1.147c0.76-0.244,1.69-0.892,1.817-1.742C99.494,171.949,99.404,171.229,98.772,171.074z"/>
	<path fill="#9C361A" d="M95.107,188.203c-0.176,0.02-0.323,0.081-0.45,0.167c-0.232,0.024-0.462,0.095-0.672,0.235
		c-0.675,0.453-0.524,1.28-0.069,1.829c0.377,0.455,0.956,0.787,1.558,0.71c0.482-0.063,0.831-0.479,0.999-0.905
		C96.85,189.28,96.233,188.077,95.107,188.203z"/>
	<path fill="#9C361A" d="M93.345,185.242c-0.114-0.212-0.417-0.351-0.638-0.217c-0.447,0.271-0.911,0.552-1.198,1.002
		c-0.323,0.508-0.271,1.203,0.188,1.605c0.404,0.355,1.022,0.042,1.329-0.279c0.333-0.348,0.611-0.823,0.701-1.299
		C93.804,185.652,93.62,185.373,93.345,185.242z"/>
	<path fill="#9C361A" d="M103.119,177.423c-1.081,0.05-2.092,0.66-2.59,1.638c-0.6,1.18-0.076,2.32,0.995,2.981
		c0.242,0.149,0.671,0.096,0.743-0.235c0.235-1.055,0.343-2.137,0.692-3.162c0.027-0.077,0.026-0.158,0.013-0.236
		c0.024-0.001,0.049-0.008,0.073-0.009C103.667,178.371,103.751,177.395,103.119,177.423z"/>
	<path fill="#9C361A" d="M76.504,168.964c-0.355-0.146-0.7,0.2-0.647,0.551c0.107,0.699,0.047,1.411,0.083,2.116
		c-0.441-0.08-0.809,0.566-0.365,0.888c0.887,0.64,1.82,0.071,2.163-0.85C78.156,170.552,77.572,169.404,76.504,168.964z"/>
	<path fill="#EECFB1" d="M139.334,77.312c-0.648-0.335-2.006-0.285-2.347,0.484c-0.059,0.131-0.078,0.261-0.067,0.379
		c-0.003,0.085,0.005,0.173,0.034,0.27c0.179,0.583,0.819,0.812,1.376,0.761C139.169,79.127,140.512,77.918,139.334,77.312z"/>
	<path fill="#EECFB1" d="M136.578,79.973c-0.104-0.018-0.189-0.001-0.265,0.032c-0.087-0.022-0.185-0.005-0.256,0.085
		c-0.183,0.229-0.378,0.754,0.062,0.854c0.424,0.094,0.666-0.345,0.685-0.708C136.812,80.094,136.713,79.995,136.578,79.973z"/>
	<g>
		<path fill="#B01D22" d="M111.57,33.507c-0.603-0.161-1.221-0.255-1.859-0.229c-2.152,0.089-3.771,1.538-4.936,3.228
			c-0.54,0.547-0.896,1.193-1.096,1.89c-0.011,0.022-0.023,0.046-0.035,0.068c-0.04,0.084-0.048,0.163-0.042,0.237
			c-0.501,2.318,0.637,5.095,2.564,6.591c3.663,2.843,9.524,1.231,12.169-2.176c2.427-3.125-0.246-6.587-2.943-8.27
			C114.171,34.084,112.861,33.629,111.57,33.507z"/>
		<path fill="#ED1C24" d="M105.02,38.665c-0.044-0.001-0.085,0.006-0.124,0.017c-0.279-0.137-0.581-0.066-0.729,0.482
			c-0.299,1.107,0.009,2.351,0.473,3.292c0.772,1.567,2.139,2.614,3.674,3.172c1.25,0.62,2.562,0.916,3.976,0.664
			c0.635-0.114,2.149-0.629,2.085-1.618c-0.064-0.986-1.521-0.725-2.119-0.702c-2.113,0.08-3.746-0.301-5.146-2.043
			c-0.561-0.698-1.018-1.555-1.375-2.408C105.61,39.229,105.393,38.67,105.02,38.665z"/>
		<path fill="#EECFB1" d="M107.126,37.414c-0.601,0.015-0.791,0.424-0.768,0.952c-0.01,0.031-0.026,0.058-0.031,0.095
			c-0.125,1.117,0.229,2.541,1.419,2.91c0.24,0.075,0.516-0.139,0.553-0.373C108.458,40.024,108.647,37.375,107.126,37.414z"/>
		<path fill="#EECFB1" d="M108.631,35.604c-0.114-0.047-0.245-0.055-0.363-0.027c-0.13-0.002-0.255,0.027-0.355,0.103
			c-0.162,0.121-0.198,0.323-0.139,0.509c0.039,0.124,0.124,0.195,0.225,0.251c0.014,0.026,0.032,0.051,0.059,0.073
			c0.172,0.145,0.336,0.315,0.565,0.363c0.226,0.048,0.469-0.072,0.574-0.274C109.412,36.18,108.988,35.748,108.631,35.604z"/>
	</g>
	<path fill="#EECFB1" d="M115.672,27.538c-0.303-0.3-1.027-0.428-1.034,0.185c0,0.01,0.002,0.018,0.002,0.027
		c-0.086,0.29,0.01,0.63,0.362,0.714C115.543,28.591,116.145,28.006,115.672,27.538z"/>
	<path fill="#EECFB1" d="M129.19,25.143c-0.072-0.042-0.145-0.043-0.21-0.021c-0.502-0.025-0.931,0.582-0.598,1.032
		c0.332,0.449,1.016,0.133,1.031-0.375C129.508,25.554,129.476,25.312,129.19,25.143z"/>
</g>
</svg>
