<?xml version="1.0" encoding="utf-8"?>
<!-- Generator: Adobe Illustrator 16.0.0, SVG Export Plug-In . SVG Version: 6.00 Build 0)  -->
<!DOCTYPE svg PUBLIC "-//W3C//DTD SVG 1.1//EN" "http://www.w3.org/Graphics/SVG/1.1/DTD/svg11.dtd">
<svg version="1.1" id="Layer_1" xmlns="http://www.w3.org/2000/svg" xmlns:xlink="http://www.w3.org/1999/xlink" x="0px" y="0px"
	 width="95px" height="95px" viewBox="0 0 95 95" enable-background="new 0 0 95 95" xml:space="preserve">
<g>
	<polygon points="91.695,47.5 42.251,7.867 42.251,31.762 2.242,31.762 2.242,63.237 42.25,63.237 42.25,87.132 	"/>
	<defs>
		<filter id="Adobe_OpacityMaskFilter" filterUnits="userSpaceOnUse" x="2.242" y="7.867" width="89.438" height="39.623">
			<feColorMatrix  type="matrix" values="1 0 0 0 0  0 1 0 0 0  0 0 1 0 0  0 0 0 1 0"/>
		</filter>
	</defs>
	<mask maskUnits="userSpaceOnUse" x="2.242" y="7.867" width="89.438" height="39.623" id="SVGID_1_">
		<g filter="url(#Adobe_OpacityMaskFilter)">
			<linearGradient id="SVGID_2_" gradientUnits="userSpaceOnUse" x1="44.6226" y1="9.3955" x2="44.6226" y2="53.3151">
				<stop  offset="0" style="stop-color:#FFFFFF"/>
				<stop  offset="1" style="stop-color:#000000"/>
			</linearGradient>
			<rect x="-8.727" y="6.692" fill="url(#SVGID_2_)" width="106.698" height="52.826"/>
		</g>
	</mask>
	<polygon mask="url(#SVGID_1_)" points="2.242,47.489 91.681,47.489 42.251,7.867 42.251,31.762 2.242,31.762 	"/>
	<path d="M40.289,65.197H0.28V29.801h40.008V3.781l52.633,42.188L91.695,47.5l1.227-1.531l1.907,1.531L40.289,91.22V65.197
		L40.289,65.197z M4.204,61.274h40.008v21.773L88.558,47.5L44.212,11.951v21.772L4.204,33.723V61.274L4.204,61.274z"/>
	<polygon points="7.792,37.028 47.361,37.028 47.361,18.596 81.554,47.228 87.511,47.489 44.134,12.574 44.134,33.744 5.787,33.744 
		5.787,47.674 7.792,47.674 	"/>
</g>
</svg>
