<?xml version="1.0" encoding="utf-8"?>
<!-- Generator: Adobe Illustrator 16.0.0, SVG Export Plug-In . SVG Version: 6.00 Build 0)  -->
<!DOCTYPE svg PUBLIC "-//W3C//DTD SVG 1.1//EN" "http://www.w3.org/Graphics/SVG/1.1/DTD/svg11.dtd">
<svg version="1.1" id="Layer_1" xmlns="http://www.w3.org/2000/svg" xmlns:xlink="http://www.w3.org/1999/xlink" x="0px" y="0px"
	 width="95px" height="95px" viewBox="0 0 95 95" enable-background="new 0 0 95 95" xml:space="preserve">
<g>
	<polygon points="3.414,47.5 52.858,7.867 52.858,31.762 92.867,31.762 92.867,63.237 52.859,63.237 52.859,87.132 	"/>
	<defs>
		<filter id="Adobe_OpacityMaskFilter" filterUnits="userSpaceOnUse" x="3.429" y="7.867" width="89.438" height="39.623">
			<feColorMatrix  type="matrix" values="1 0 0 0 0  0 1 0 0 0  0 0 1 0 0  0 0 0 1 0"/>
		</filter>
	</defs>
	<mask maskUnits="userSpaceOnUse" x="3.429" y="7.867" width="89.438" height="39.623" id="SVGID_1_">
		<g filter="url(#Adobe_OpacityMaskFilter)">
			
				<linearGradient id="SVGID_2_" gradientUnits="userSpaceOnUse" x1="44.6226" y1="9.396" x2="44.6226" y2="53.3143" gradientTransform="matrix(-1 0 0 1 95.1094 0)">
				<stop  offset="0" style="stop-color:#FFFFFF"/>
				<stop  offset="1" style="stop-color:#000000"/>
			</linearGradient>
			<rect x="-2.862" y="6.692" fill="url(#SVGID_2_)" width="106.698" height="52.826"/>
		</g>
	</mask>
	<polygon mask="url(#SVGID_1_)" points="92.867,47.489 3.429,47.489 52.858,7.867 52.858,31.762 92.867,31.762 	"/>
	<path d="M54.82,65.197V91.22L0.28,47.5l1.907-1.531L3.414,47.5l-1.227-1.531L54.82,3.781v26.02h40.009v35.396H54.82L54.82,65.197z
		 M90.905,61.274V33.723l-40.008,0.001V11.951L6.552,47.5l44.346,35.548V61.274H90.905L90.905,61.274z"/>
	<polygon points="87.316,37.028 47.749,37.028 47.749,18.596 13.556,47.228 7.599,47.489 50.976,12.574 50.976,33.744 
		89.322,33.744 89.322,47.674 87.316,47.674 	"/>
</g>
</svg>
