<?xml version="1.0" encoding="utf-8"?>
<!-- Generator: Adobe Illustrator 14.0.0, SVG Export Plug-In . SVG Version: 6.00 Build 43363)  -->
<!DOCTYPE svg PUBLIC "-//W3C//DTD SVG 1.1//EN" "http://www.w3.org/Graphics/SVG/1.1/DTD/svg11.dtd">
<svg version="1.1" id="Layer_1" xmlns="http://www.w3.org/2000/svg" xmlns:xlink="http://www.w3.org/1999/xlink" x="0px" y="0px"
	 width="200px" height="200px" viewBox="0 0 200 200" enable-background="new 0 0 200 200" xml:space="preserve">
<g>
	<g>
		<path fill="#079247" d="M64.118,147.755c-7.576,0-13.901-6.197-14.057-13.773c0,0-1.471-71.616,72.523-59.668
			c56.017,9.045,70.109,60.161,70.109,60.161c2.014,7.304-2.538,13.28-10.113,13.28H64.118z"/>
	</g>
	<g>
		<circle fill="#010101" cx="160.234" cy="143.759" r="18.979"/>
		<circle fill="#666666" cx="160.234" cy="145.647" r="8.947"/>
		<circle fill="#010101" cx="162.143" cy="141.851" r="2.699"/>
	</g>
	<path fill="#666666" d="M67.142,144.842H40.308v2.917h27.226C67.331,146.811,67.197,145.837,67.142,144.842z"/>
	<g>
		<circle fill="#010101" cx="86.087" cy="143.759" r="18.978"/>
		<circle fill="#666666" cx="84.102" cy="141.737" r="8.947"/>
		<circle fill="#010101" cx="86.087" cy="143.759" r="2.699"/>
	</g>
	<ellipse fill="#CCCCCC" cx="33.747" cy="144.529" rx="4.895" ry="2.187"/>
	<ellipse fill="#E6E6E6" cx="25" cy="138.177" rx="7.915" ry="2.812"/>
	<ellipse fill="#F2F2F2" cx="14.798" cy="130.887" rx="10.26" ry="3.646"/>
	<circle fill="#FBB03C" cx="51.165" cy="125.87" r="3.946"/>
	<circle fill="#FBB03C" cx="190.185" cy="131.211" r="3.946"/>
	<circle fill="#EC2227" cx="50.976" cy="134.716" r="3.946"/>
	<path fill="#A5DEF3" d="M123.236,78.576H96.832c-5.261,0-9.527,4.265-9.527,9.526v15.383c0,5.261,4.266,9.526,9.527,9.526h26.404
		c5.261,0,9.525-4.266,9.525-9.526V88.102C132.762,82.84,128.497,78.576,123.236,78.576z M78.127,79.586
		c-14.556,7.966-21.567,21.734-24.943,33.426h20.692c5.262,0,9.526-4.266,9.526-9.526V88.102
		C83.403,84.371,81.252,81.149,78.127,79.586z M141.922,79.594c-3.114,1.567-5.257,4.783-5.257,8.508v15.383
		c0,5.261,4.265,9.526,9.526,9.526h26.403c2.957,0,5.601-1.348,7.348-3.463C172.103,98.667,160,86.779,141.922,79.594z"/>
</g>
</svg>
