<?xml version="1.0" encoding="utf-8"?>
<!-- Generator: Adobe Illustrator 16.0.0, SVG Export Plug-In . SVG Version: 6.00 Build 0)  -->
<!DOCTYPE svg PUBLIC "-//W3C//DTD SVG 1.1//EN" "http://www.w3.org/Graphics/SVG/1.1/DTD/svg11.dtd">
<svg version="1.1" id="Layer_1" xmlns="http://www.w3.org/2000/svg" xmlns:xlink="http://www.w3.org/1999/xlink" x="0px" y="0px"
	 width="95px" height="95px" viewBox="0 0 95 95" enable-background="new 0 0 95 95" xml:space="preserve">
<path d="M74.454,19.526c0,0-10.313-10.458-21.499-8.862c-11.187,1.597-8.426,12.059-8.426,12.059l-2.905,6.68l-2.178-18.594
	l-16.563,1.744l-6.246,4.358c0,0-0.145,3.919-0.289,8.279c-0.146,4.358,1.451,15.834-3.922,14.819
	c-5.375-1.019-4.939-3.78-8.136-2.473c-3.195,1.308-3.777,1.742-4.212,7.99c-0.436,6.249,0.871,10.897,6.101,6.249
	c5.229-4.648,6.829-1.743,7.701,1.887c0.871,3.632,2.47,13.075,2.033,18.448c4.939,4.938,15.521,4.523,18.594,3.345
	c2.539-0.977,6.496-3.064,2.718-7.57c-3.777-4.505-3.009-11.693,3.671-10.822c6.685,0.873,9.719,3.996,6.958,10.244
	c-2.761,6.247-3.033,9.307,1.18,9.742c4.211,0.439,22.952-4.062,24.405-6.391c1.453-2.322,21.498-13.942,21.498-13.942
	l-0.725-24.551L74.454,19.526z"/>
</svg>
