<?xml version="1.0" encoding="utf-8"?>
<!-- Generator: Adobe Illustrator 16.0.0, SVG Export Plug-In . SVG Version: 6.00 Build 0)  -->
<!DOCTYPE svg PUBLIC "-//W3C//DTD SVG 1.1//EN" "http://www.w3.org/Graphics/SVG/1.1/DTD/svg11.dtd">
<svg version="1.1" id="Layer_1" xmlns="http://www.w3.org/2000/svg" xmlns:xlink="http://www.w3.org/1999/xlink" x="0px" y="0px"
	 width="95px" height="95px" viewBox="0 0 95 95" enable-background="new 0 0 95 95" xml:space="preserve">
<path d="M82.585,88.9c0.508,1.023,0.826,3.128,0.571,4.183c-0.6,2.474-9.209-0.078-12.25-0.078c-4.034,0-4.794,2.146-6.716-0.302
	c-0.595-0.757-0.881-0.065-1.42,0.271c-4.856-1.834-4.286,1.211-7.427,1.556c-0.302,0.032-3.155-4.413-3.522-4.436
	c-0.463-0.027,0.365,3.425-0.224,3.285c-0.534-0.127-0.848,0.672-1.508,0.432c-3.033-1.103-4.079-0.844-4.642-0.076
	c-0.444,0.605-3.926-0.994-4.127,0.034c-0.345-0.153-1.688-2.361-2.594-0.698c-0.188,0.346-6.856,1.069-7.395,1.083
	c-1.287,0.032-4.734,0.91-6.962,0.274c-2.208-0.63,0.475-5.237-2.645-7.895c2.743,6.466-0.786,8.413-1.092,8.38
	c-4.989-0.543-1.818-2.773-2.268-2.572c-2.054,0.924-5.227,2.267-6.54,1.869c-0.932-0.281-1.025-2.05,0.254-5.223
	c0.845-2.097,1.399-2.864,0.33-5.188c-0.642-1.396,1.368-2.43,2.097-3.369c0.239-0.309,0.201-3.134,0.25-5.403
	c0.057-2.665,1.276-1.23,2.637-1.497c1.214-0.238,2.418,0.313,4.383,1.281c-0.119-0.242-2.995-1.799-4.204-1.981
	c-1.348-0.205-2.77-0.355-2.757-0.444c0.497-3.57-2.159,0.179,1.978-4.967c2.928-5.925-0.305-5.417-2.326-11.993
	c-0.869-2.831,2.005-3.798,1.091-4.479c-4.127-2.51-6.154-6.927-0.569-7.722c2.306-0.327-1.798-8.527-0.551-10.456
	c2.588-3.999-1.539-6.473-1.12-9.993c0.191-1.606,2.219,0.372,3.981-0.657c-4.884-0.053-3.1-0.935-4.24-4.917
	c-0.671-2.343,1.1-4.007,0.246-8.91c-0.035-0.2-0.782-3.392-0.781-3.687c0.001-0.127-1.426-3.061-0.24-4.036
	c0.656-0.835,2.862,0.827,4.374,1.552c1.199,0.575,3.02,0.617,5.377,0.631c1.847,0.011,1.349-1.166,4.477-0.556
	c6.211,1.212,3.561,2.384,9.658,0.167c2.433-0.885,3.105,0.228,4.291-0.089c0.527,1.563,0.751,0.1,1.793,3.189
	c0.063,0.187,0.069,0.052,0.168,0.219c0.444-0.725-0.796-3.191,0.128-3.497c0.235,0.186,8.043-0.49,10.129-0.179
	c2.472,0.369,4.297,1.325,4.316,1.327c1.397,0.155,2.595-0.214,3.858-0.565c0.46-0.128-0.922,3.033-0.287,5.78
	c0.221,0.959-0.882,2.628-0.003,3.328c-0.55-0.993,0.659-2.686,0.456-3.547c-0.791-3.353,0.787-5.606,2.736-5.991
	c0.413-0.081,0.865,0.051,1.337,0.143c2.407,0.469,4.971-2.154,8.013-0.248c3.131,1.965,7.237-4.179,10.139-1.584
	c1.72,1.537-0.572,3.332-1.08,7.564c0.089,2.068-1.505,9.003-1.478,9.308c0.155,1.727-1.174,1.378,0.109,4.687
	c1.737,4.479-2.667,4.108-0.271,10.295c0.303,3.375,0.198,1.937,0,5.325c-0.126,2.15-0.061,4.324,0.327,5.405
	c1.492,4.15,2.352,4.677,0.82,8.905c-0.029,0.081-2.218,2.688-2.986,4.604c-0.142,0.355-3.859,1.253-3.495,1.279
	c1.209,0.089,2.516-0.873,3.676,1.262c2.438,4.483,3.39,3.466,1.708,7.8c-0.122,0.313,0.916,10.884,0.853,13.243
	c-0.119,4.426,1.999,2.729-0.853,6.248C83.802,84.467,82.384,88.517,82.585,88.9z"/>
</svg>
