<?xml version="1.0" encoding="utf-8"?>
<!-- Generator: Adobe Illustrator 14.0.0, SVG Export Plug-In . SVG Version: 6.00 Build 43363)  -->
<!DOCTYPE svg PUBLIC "-//W3C//DTD SVG 1.1//EN" "http://www.w3.org/Graphics/SVG/1.1/DTD/svg11.dtd">
<svg version="1.1" id="Layer_1" xmlns="http://www.w3.org/2000/svg" xmlns:xlink="http://www.w3.org/1999/xlink" x="0px" y="0px"
	 width="200px" height="200px" viewBox="0 0 200 200" enable-background="new 0 0 200 200" xml:space="preserve">
<path fill="#FFD594" d="M69.969,108.486c-0.218,0.163-0.826,0.334-0.498-0.133c0.182-0.262-0.204-0.574-0.387-0.312
	c-0.218,0.31-0.335,0.753,0.028,1.01c0.356,0.253,0.837,0.071,1.148-0.165C70.515,108.693,70.223,108.293,69.969,108.486z"/>
<path fill="#FFD594" d="M76.026,110.199c-0.215,0.111-0.465,0.196-0.7,0.091c-0.214-0.094-0.056-0.395,0.018-0.526
	c0.158-0.278-0.3-0.473-0.456-0.195c-0.205,0.363-0.247,0.817,0.111,1.101c0.342,0.268,0.852,0.177,1.206-0.008
	C76.486,110.518,76.311,110.052,76.026,110.199z"/>
<path fill="#FFD594" d="M64.678,110.454c-0.297,0.091-0.993,0.074-0.764-0.4c0.139-0.288-0.317-0.483-0.457-0.195
	c-0.166,0.343-0.11,0.714,0.207,0.946c0.34,0.248,0.81,0.231,1.193,0.113C65.164,110.823,64.983,110.36,64.678,110.454z"/>
<path fill="#FFD594" d="M69.12,111.615c-0.083,0.026-0.273,0.089-0.297-0.023c-0.034-0.161,0.058-0.336,0.129-0.475
	c0.145-0.284-0.312-0.48-0.457-0.195c-0.145,0.28-0.27,0.679-0.077,0.971c0.204,0.303,0.569,0.28,0.881,0.187
	C69.605,111.984,69.425,111.523,69.12,111.615z"/>
<path fill="#FFD594" d="M61.006,112.998c-0.167,0.098-0.399,0.201-0.592,0.118c-0.136-0.056,0.044-0.334,0.085-0.394
	c0.178-0.262-0.207-0.574-0.388-0.31c-0.229,0.336-0.365,0.773-0.02,1.083c0.338,0.301,0.877,0.095,1.207-0.096
	C61.576,113.24,61.279,112.841,61.006,112.998z"/>
<path fill="#FFD594" d="M66.305,114.102c-0.078,0.068-0.276,0.27-0.394,0.18c-0.116-0.089-0.05-0.379-0.029-0.489
	c0.062-0.315-0.429-0.386-0.49-0.074c-0.066,0.34-0.055,0.75,0.244,0.977c0.312,0.236,0.711,0.029,0.96-0.192
	C66.834,114.294,66.544,113.89,66.305,114.102z"/>
<path fill="#FFD594" d="M56.004,116.573c-0.249,0.05-0.508,0.063-0.739-0.052c-0.202-0.102,0.072-0.357,0.152-0.438
	c0.226-0.229-0.164-0.536-0.387-0.311c-0.285,0.292-0.49,0.736-0.149,1.07c0.297,0.292,0.796,0.299,1.178,0.224
	C56.371,117.004,56.319,116.511,56.004,116.573z"/>
<path fill="#FFD594" d="M58.327,118.652c-0.129,0.029-0.291,0.071-0.419,0.023c-0.063-0.021,0.01-0.249,0.024-0.297
	c0.082-0.309-0.409-0.379-0.492-0.072c-0.074,0.275-0.069,0.545,0.146,0.752c0.2,0.189,0.556,0.14,0.795,0.088
	C58.693,119.08,58.64,118.588,58.327,118.652z"/>
<path fill="#FFD594" d="M54.477,120.764c-0.124,0.056-0.309,0.145-0.435,0.05c-0.105-0.085,0.034-0.343,0.072-0.421
	c0.142-0.288-0.315-0.483-0.456-0.195c-0.151,0.307-0.224,0.705,0.044,0.973c0.257,0.255,0.653,0.191,0.952,0.056
	C54.944,121.093,54.767,120.631,54.477,120.764z"/>
<path fill="#FFD594" d="M51.332,122.641c-0.12,0.035-0.448,0.139-0.514-0.031c-0.068-0.179,0.198-0.444,0.301-0.552
	c0.223-0.23-0.167-0.539-0.388-0.31c-0.268,0.276-0.513,0.681-0.361,1.077c0.174,0.462,0.771,0.385,1.142,0.279
	C51.819,123.016,51.637,122.555,51.332,122.641z"/>
<path fill="#FFD594" d="M52.671,126.213c-0.098,0.017-0.333,0.075-0.415-0.019c-0.089-0.102,0.054-0.342,0.1-0.43
	c0.146-0.286-0.31-0.479-0.455-0.196c-0.135,0.263-0.249,0.615-0.068,0.885c0.198,0.297,0.577,0.308,0.893,0.253
	C53.04,126.652,52.988,126.157,52.671,126.213z"/>
<path fill="#FFD594" d="M52.448,129.768c-0.077,0.03-0.27,0.126-0.355,0.072c-0.081-0.052,0.004-0.297,0.021-0.361
	c0.083-0.309-0.41-0.377-0.491-0.072c-0.07,0.262-0.096,0.597,0.13,0.796c0.25,0.216,0.594,0.138,0.874,0.031
	C52.926,130.115,52.747,129.653,52.448,129.768z"/>
<path fill="#FFD594" d="M48.799,130.534c-0.173,0.081-0.444,0.209-0.534-0.031c-0.078-0.211,0.082-0.467,0.237-0.591
	c0.25-0.199-0.04-0.602-0.291-0.402c-0.357,0.284-0.532,0.724-0.411,1.168c0.148,0.541,0.776,0.51,1.177,0.317
	C49.265,130.859,49.088,130.396,48.799,130.534z"/>
<path fill="#FFD594" d="M50.33,134.072c-0.129,0.087-0.336,0.224-0.5,0.157c-0.119-0.05,0.06-0.41,0.087-0.465
	c0.138-0.286-0.318-0.483-0.457-0.196c-0.166,0.342-0.246,0.75,0.052,1.04c0.306,0.299,0.823,0.055,1.108-0.133
	C50.889,134.296,50.595,133.896,50.33,134.072z"/>
<path fill="#FFD594" d="M46.239,136.614c-0.147-0.011-0.507-0.029-0.548-0.229c-0.04-0.194,0.245-0.358,0.381-0.427
	c0.285-0.144,0.106-0.605-0.179-0.463c-0.37,0.185-0.737,0.489-0.695,0.945c0.042,0.465,0.582,0.635,0.97,0.664
	C46.485,137.13,46.56,136.639,46.239,136.614z"/>
<path fill="#FFD594" d="M49.124,139.119c-0.13,0.114-0.283,0.263-0.46,0.301c-0.028,0.006-0.034,0.004-0.039,0.004
	c-0.038-0.085-0.003-0.208,0.014-0.295c0.06-0.314-0.431-0.386-0.49-0.072c-0.062,0.313-0.046,0.67,0.277,0.825
	c0.338,0.164,0.756-0.153,0.989-0.36C49.651,139.31,49.361,138.905,49.124,139.119z"/>
<path fill="#FFD594" d="M53.479,137.331c-0.127,0.094-0.286,0.208-0.455,0.203c-0.146-0.008-0.133-0.198-0.125-0.303
	c0.023-0.318-0.467-0.392-0.491-0.072c-0.024,0.338,0.048,0.685,0.39,0.829c0.331,0.138,0.712-0.062,0.971-0.257
	C54.026,137.539,53.735,137.137,53.479,137.331z"/>
<path fill="#FFD594" d="M45.103,142.435c-0.054,0.035-0.481,0.313-0.511,0.143c-0.044-0.236,0.221-0.458,0.402-0.547
	c0.284-0.142,0.107-0.609-0.178-0.463c-0.413,0.206-0.846,0.657-0.695,1.164c0.183,0.617,0.903,0.348,1.274,0.105
	C45.662,142.66,45.369,142.261,45.103,142.435z"/>
<path fill="#FFD594" d="M50.51,142.612c-0.19,0.112-0.416,0.204-0.632,0.119c-0.207-0.083-0.24-0.359-0.25-0.548
	c-0.02-0.319-0.512-0.264-0.494,0.056c0.025,0.402,0.178,0.757,0.547,0.946c0.362,0.188,0.803,0.019,1.12-0.171
	C51.077,142.848,50.782,142.449,50.51,142.612z"/>
<path fill="#FFD594" d="M48.024,146.569c-0.226,0.164-0.508,0.294-0.779,0.162c-0.238-0.112-0.096-0.467,0.002-0.62
	c0.166-0.268-0.219-0.581-0.388-0.31c-0.26,0.419-0.369,0.952,0.058,1.307c0.412,0.34,1.018,0.143,1.398-0.137
	C48.573,146.782,48.281,146.379,48.024,146.569z"/>
<path fill="#FFD594" d="M55.515,145.742c-0.183,0.17-0.448,0.353-0.71,0.257c-0.27-0.102-0.116-0.456-0.023-0.628
	c0.153-0.282-0.305-0.476-0.456-0.195c-0.213,0.392-0.265,0.931,0.156,1.207c0.427,0.284,0.98,0.081,1.326-0.238
	C56.039,145.931,55.75,145.528,55.515,145.742z"/>
<path fill="#FFD594" d="M52.781,148.899c-0.163,0.175-0.372,0.271-0.609,0.225c-0.266-0.048-0.284-0.367-0.251-0.576
	c0.049-0.317-0.442-0.389-0.49-0.073c-0.07,0.452,0.07,0.896,0.51,1.095c0.439,0.195,0.927-0.035,1.228-0.36
	C53.386,148.975,52.997,148.666,52.781,148.899z"/>
<path fill="#FFD594" d="M51.491,152.388c-0.214,0.183-0.491,0.371-0.701,0.091c-0.167-0.224-0.163-0.578-0.087-0.831
	c0.09-0.303-0.365-0.504-0.456-0.195c-0.14,0.465-0.125,1.021,0.211,1.404c0.382,0.436,0.937,0.264,1.322-0.066
	C52.023,152.583,51.733,152.179,51.491,152.388z"/>
<path fill="#FFD594" d="M56.704,152.637c-0.432,0.157-0.608-0.317-0.59-0.672c0.015-0.317-0.478-0.393-0.491-0.072
	c-0.034,0.729,0.44,1.505,1.26,1.21C57.183,152.993,57.004,152.53,56.704,152.637z"/>
<path fill="#FFD594" d="M62.145,150.802c-0.316,0.255-0.608,0.257-0.84-0.094c-0.179-0.266-0.578,0.025-0.403,0.292
	c0.378,0.568,1.016,0.625,1.534,0.204C62.684,151.002,62.392,150.601,62.145,150.802z"/>
<path fill="#FFD594" d="M57.207,157.08c-0.219,0.085-0.448,0.1-0.663,0c-0.235-0.107-0.151-0.344-0.054-0.517
	c0.159-0.279-0.298-0.473-0.455-0.198c-0.208,0.366-0.192,0.779,0.137,1.062c0.326,0.283,0.836,0.261,1.213,0.116
	C57.685,157.431,57.506,156.968,57.207,157.08z"/>
<path fill="#FFD594" d="M61.796,154.957c-0.414,0.253-0.871,0.019-0.942-0.452c-0.049-0.315-0.542-0.262-0.492,0.056
	c0.128,0.856,0.992,1.25,1.725,0.799C62.361,155.193,62.067,154.793,61.796,154.957z"/>
<path fill="#FFD594" d="M67.884,155.762c-0.367,0.394-0.78,0.143-0.719-0.361c0.039-0.315-0.454-0.39-0.491-0.07
	c-0.054,0.434,0.083,0.846,0.481,1.062c0.396,0.216,0.844-0.026,1.115-0.319C68.489,155.838,68.098,155.529,67.884,155.762z"/>
<path fill="#FFD594" d="M63.851,158.175c-0.125,0.104-0.344,0.268-0.511,0.153c-0.18-0.124-0.068-0.417,0.005-0.567
	c0.137-0.289-0.319-0.485-0.458-0.199c-0.183,0.384-0.199,0.811,0.111,1.126c0.323,0.329,0.846,0.132,1.143-0.108
	C64.39,158.376,64.099,157.974,63.851,158.175z"/>
<path fill="#FFD594" d="M65.923,161.951c-0.175,0.197-0.458,0.421-0.741,0.319c-0.277-0.096-0.192-0.467-0.112-0.666
	c0.115-0.299-0.341-0.497-0.457-0.197c-0.189,0.483-0.165,1.027,0.331,1.301c0.481,0.268,1.053-0.09,1.365-0.448
	C66.522,162.021,66.134,161.713,65.923,161.951z"/>
<path fill="#FFD594" d="M72.076,159.181c-0.15,0.149-0.383,0.334-0.555,0.122c-0.176-0.218-0.155-0.551-0.098-0.805
	c0.07-0.313-0.421-0.383-0.49-0.072c-0.095,0.427-0.053,0.98,0.296,1.288c0.414,0.367,0.902,0.113,1.235-0.225
	C72.688,159.262,72.298,158.954,72.076,159.181z"/>
<path fill="#FFD594" d="M77.706,157.992c-0.143,0.191-0.33,0.382-0.576,0.417c-0.262,0.039-0.274-0.305-0.265-0.481
	c0.017-0.318-0.474-0.394-0.49-0.074c-0.021,0.419,0.081,0.949,0.57,1.039c0.464,0.087,0.887-0.241,1.149-0.591
	C78.285,158.049,77.898,157.735,77.706,157.992z"/>
<path fill="#FFD594" d="M76.639,161.71c-0.262,0.404-0.96,0.716-0.925-0.032c0.016-0.317-0.475-0.393-0.489-0.071
	c-0.023,0.471,0.127,0.913,0.626,1.031c0.464,0.111,0.94-0.256,1.175-0.618C77.198,161.754,76.813,161.442,76.639,161.71z"/>
<path fill="#FFD594" d="M71.072,164.314c-0.235,0.199-0.525,0.369-0.832,0.238c-0.283-0.122-0.263-0.495-0.206-0.737
	c0.072-0.31-0.417-0.382-0.49-0.071c-0.11,0.459-0.003,0.993,0.445,1.234c0.469,0.251,0.996,0.062,1.372-0.264
	C71.603,164.508,71.313,164.105,71.072,164.314z"/>
<path fill="#FFD594" d="M84.117,158.73c-0.167,0.317-0.404,0.616-0.688,0.836c-0.032,0.027-0.216,0.17-0.263,0.139
	c-0.135-0.087-0.101-0.441-0.1-0.57c0.003-0.321-0.492-0.263-0.494,0.054c-0.004,0.517,0.19,1.183,0.842,0.958
	c0.512-0.178,0.921-0.765,1.16-1.221C84.723,158.644,84.267,158.448,84.117,158.73z"/>
<path fill="#FFD594" d="M81.454,163.376c-0.092,0.062-0.22,0.155-0.333,0.107c-0.114-0.044-0.108-0.33-0.112-0.421
	c-0.016-0.319-0.508-0.264-0.492,0.054c0.013,0.305,0.088,0.633,0.367,0.799c0.285,0.172,0.61,0.032,0.861-0.136
	C82.012,163.602,81.718,163.201,81.454,163.376z"/>
<path fill="#FFD594" d="M77.869,165.92c-0.267,0.133-0.545,0.232-0.845,0.176c-0.303-0.058-0.289-0.412-0.25-0.645
	c0.055-0.315-0.437-0.388-0.49-0.072c-0.08,0.462,0.017,0.879,0.433,1.126c0.395,0.236,0.956,0.066,1.329-0.123
	C78.329,166.239,78.152,165.774,77.869,165.92z"/>
<path fill="#FFD594" d="M89.126,157.56c-0.13,0.167-0.292,0.327-0.518,0.29c-0.194-0.029-0.304-0.264-0.362-0.423
	c-0.108-0.301-0.572-0.121-0.462,0.18c0.13,0.357,0.371,0.641,0.751,0.734c0.39,0.096,0.756-0.188,0.979-0.471
	C89.712,157.617,89.325,157.307,89.126,157.56z"/>
<path fill="#FFD594" d="M87.458,161.719c-0.159,0.249-0.368,0.456-0.647,0.564c-0.342,0.135-0.421-0.166-0.433-0.446
	c-0.014-0.321-0.507-0.264-0.494,0.054c0.021,0.459,0.247,0.934,0.773,0.921c0.492-0.013,0.935-0.386,1.189-0.781
	C88.017,161.763,87.631,161.449,87.458,161.719z"/>
<path fill="#FFD594" d="M84.8,166.09c-0.14,0.187-0.312,0.38-0.557,0.408c-0.214,0.025-0.301-0.263-0.333-0.419
	c-0.062-0.311-0.556-0.261-0.492,0.055c0.079,0.404,0.278,0.777,0.717,0.854c0.428,0.077,0.818-0.275,1.051-0.587
	C85.379,166.146,84.992,165.833,84.8,166.09z"/>
<path fill="#FFD594" d="M94.675,155.574c-0.2,0.293-0.699,0.747-0.821,0.158c-0.064-0.312-0.559-0.26-0.494,0.054
	c0.076,0.365,0.274,0.734,0.696,0.74c0.424,0.009,0.78-0.313,1.007-0.641C95.241,155.622,94.854,155.31,94.675,155.574z"/>
<path fill="#FFD594" d="M92.852,159.674c-0.107,0.096-0.249,0.236-0.406,0.225c-0.138-0.011-0.2-0.229-0.237-0.33
	c-0.106-0.303-0.57-0.122-0.463,0.177c0.098,0.277,0.269,0.565,0.577,0.634c0.313,0.068,0.596-0.102,0.82-0.303
	C93.379,159.863,93.089,159.461,92.852,159.674z"/>
<path fill="#FFD594" d="M99.423,151.247c-0.158,0.131-0.353,0.275-0.571,0.247c-0.183-0.023-0.07-0.334-0.035-0.425
	c0.117-0.297-0.339-0.494-0.454-0.197c-0.133,0.34-0.183,0.803,0.179,1.021c0.392,0.236,0.856,0.019,1.173-0.243
	C99.961,151.448,99.671,151.044,99.423,151.247z"/>
<path fill="#FFD594" d="M103.836,147.332c-0.116,0.087-0.281,0.229-0.389,0.072c-0.104-0.153-0.051-0.42-0.018-0.584
	c0.061-0.315-0.432-0.388-0.491-0.072c-0.068,0.35-0.077,0.811,0.213,1.073c0.301,0.271,0.688,0.129,0.975-0.087
	C104.383,147.54,104.091,147.138,103.836,147.332z"/>
<path fill="#FFD594" d="M103.813,143.23c-0.094,0.073-0.413,0.34-0.518,0.142c-0.122-0.225-0.018-0.524,0.085-0.734
	c0.139-0.29-0.316-0.485-0.456-0.197c-0.186,0.386-0.266,0.869-0.016,1.246c0.297,0.444,0.87,0.199,1.194-0.056
	C104.358,143.436,104.066,143.034,103.813,143.23z"/>
<path fill="#FFD594" d="M107.546,139.878c-0.123,0.066-0.332,0.192-0.473,0.095c-0.129-0.093-0.106-0.35-0.097-0.482
	c0.025-0.315-0.466-0.393-0.49-0.072c-0.029,0.348,0.008,0.694,0.277,0.941c0.268,0.246,0.684,0.128,0.963-0.018
	C108.005,140.193,107.828,139.729,107.546,139.878z"/>
<path fill="#FFD594" d="M105.806,135.804c-0.194,0.176-0.495,0.397-0.683,0.109c-0.158-0.242,0.005-0.556,0.181-0.728
	c0.229-0.223-0.161-0.531-0.386-0.31c-0.368,0.357-0.458,0.93-0.174,1.362c0.336,0.511,0.982,0.305,1.353-0.031
	C106.332,135.994,106.042,135.59,105.806,135.804z"/>
<path fill="#FFD594" d="M108.968,132.491c-0.263,0.073-0.514,0.051-0.585-0.25c-0.072-0.306-0.568-0.254-0.493,0.056
	c0.151,0.635,0.657,0.823,1.256,0.659C109.455,132.869,109.272,132.407,108.968,132.491z"/>
<path fill="#FFD594" d="M104.054,130.302c-0.415,0.158-0.705,0.083-0.86-0.351c-0.106-0.301-0.57-0.124-0.462,0.177
	c0.246,0.69,0.839,0.888,1.502,0.637C104.532,130.65,104.353,130.188,104.054,130.302z"/>
<path fill="#FFD594" d="M106.013,126.609c-0.126,0.062-0.253,0.124-0.393,0.143c-0.056,0.007-0.04-0.194-0.039-0.259
	c0.003-0.319-0.49-0.262-0.495,0.054c-0.002,0.24,0.046,0.539,0.292,0.649c0.271,0.122,0.566-0.005,0.813-0.123
	C106.478,126.935,106.3,126.472,106.013,126.609z"/>
<path fill="#FFD594" d="M100.378,124.38c-0.184,0.159-0.507,0.406-0.753,0.224c-0.244-0.182-0.042-0.593,0.083-0.775
	c0.181-0.261-0.205-0.572-0.388-0.309c-0.273,0.397-0.465,0.993-0.083,1.396c0.417,0.436,1.036,0.209,1.433-0.135
	C100.91,124.572,100.62,124.17,100.378,124.38z"/>
<path fill="#FFD594" d="M104.195,122.657c-0.075,0.024-0.24,0.087-0.316,0.037c-0.074-0.048-0.027-0.26-0.019-0.326
	c0.04-0.316-0.45-0.39-0.491-0.07c-0.034,0.257-0.042,0.566,0.17,0.757c0.234,0.21,0.559,0.147,0.832,0.066
	C104.68,123.03,104.499,122.567,104.195,122.657z"/>
<path fill="#FFD594" d="M86.722,113.886c-0.192,0.161-0.536,0.386-0.787,0.211c-0.242-0.17,0.026-0.53,0.151-0.676
	c0.211-0.244-0.178-0.552-0.387-0.311c-0.337,0.39-0.518,0.945-0.105,1.348c0.401,0.392,1.058,0.129,1.418-0.17
	C87.258,114.085,86.968,113.683,86.722,113.886z"/>
<path fill="#FFD594" d="M81.361,113.537c-0.157,0.059-0.418,0.162-0.575,0.05c-0.124-0.089,0.155-0.371,0.203-0.421
	c0.222-0.232-0.167-0.541-0.387-0.311c-0.264,0.273-0.453,0.655-0.229,1.012c0.24,0.383,0.826,0.263,1.166,0.133
	C81.838,113.886,81.659,113.423,81.361,113.537z"/>
<path fill="#FFD594" d="M92.323,118.588c-0.198,0.142-0.441,0.286-0.696,0.245c-0.205-0.031-0.07-0.371-0.029-0.475
	c0.117-0.299-0.338-0.496-0.457-0.197c-0.159,0.404-0.189,0.871,0.239,1.107c0.39,0.216,0.92-0.052,1.232-0.28
	C92.873,118.8,92.582,118.397,92.323,118.588z"/>
<path fill="#FFD594" d="M99.3,119.92c-0.35,0.12-0.766,0.187-1.125,0.064c-0.425-0.146-0.175-0.563,0.01-0.815
	c0.19-0.259-0.197-0.57-0.388-0.313c-0.324,0.445-0.585,1.106-0.02,1.48c0.485,0.323,1.183,0.224,1.702,0.047
	C99.782,120.278,99.602,119.816,99.3,119.92z"/>
<g>
	
		<path fill="#FAA41A" stroke="#5D190F" stroke-width="2.6122" stroke-linecap="round" stroke-linejoin="round" stroke-miterlimit="10" d="
		M92.703,62.227c0,0-1.414-22.803,14.729-30.271c16.149-7.47,26.645,7.064,26.442,16.349s-2.018,12.308-2.018,12.308
		s10.694-12.307,30.068-7.465c19.377,4.844,17.962,26.438,10.902,34.107c-7.064,7.672-14.735,11.102-14.735,11.102
		s20.586,3.028,21.191,20.585c0.604,17.558-15.338,21.796-25.832,20.587c-10.494-1.213-10.494-3.434-10.494-3.434
		s9.688,10.094,4.641,22.809s-23.615,13.923-30.88,6.659c-7.266-7.265-9.89-16.147-9.89-16.147s-0.403,15.34-13.723,20.99
		c-13.32,5.652-30.276-0.203-31.687-13.118c-1.413-12.917,4.44-21.392,4.44-21.392s-16.146,15.739-27.648,9.079
		c-11.506-6.659-9.082-20.383-4.036-25.833c5.044-5.447,9.484-5.447,9.484-5.447s-19.173,0.403-22.806-14.734
		C17.222,83.822,29.937,76.76,39.827,76.76c9.888,0,15.338,3.836,15.338,3.836s-13.121-6.662-14.13-19.78
		s11.102-23.613,26.238-20.183C82.409,44.063,92.703,62.227,92.703,62.227z"/>
	<path fill="#F0DAB9" d="M77.615,89.02c0,0,6.064-14.916,25.422-15.89c21.649-1.095,33.964,14.895,35.452,29.89
		c1.493,14.998-5.759,32.871-29.098,32.477c-23.334-0.398-32.869-12.912-35.254-24.929C71.755,98.553,77.615,89.02,77.615,89.02z"/>
	<g>
		<path fill="#C31520" stroke="#69014C" stroke-width="2.01" stroke-linecap="round" stroke-linejoin="round" d="M107.777,100.389
			c0,0-2.323-9.6-10.68-10.373c-8.358-0.773-12.694,9.909-5.884,21.206c6.811,11.303,15.479,14.708,15.479,14.708
			s2.519-4.381,9.318-9.391c9.549-7.035,12.512-16.15,9.26-21.57c-3.252-5.419-9.239-4.405-13.159-1.084
			C108.306,97.109,107.777,100.389,107.777,100.389z"/>
		<path fill="#EC1C29" d="M106.937,120.264c-1.473-1.111-3.009-2.234-4.354-3.531c-0.023-0.027-0.039-0.052-0.064-0.078
			c-0.242-0.246-0.486-0.491-0.732-0.736c-0.267-0.297-0.531-0.602-0.775-0.921c-0.146-0.193-0.339-0.329-0.546-0.432
			c-2.831-2.911-5.351-5.872-6.65-9.935c-0.645-2.014-0.819-4.035-0.366-6.105c1.392-6.363,7.925-0.029,9.1,2.056
			c1.271,2.263,4.787,0.313,3.517-1.948c-1.79-3.177-4.514-6.295-8.445-6.536c-3.188-0.198-6.335,1.048-7.597,4.214
			c-3.416,8.583,3.064,16.434,8.726,22.244c1.751,1.986,4.004,3.563,6.093,5.142c0.873,0.665,2.235,0.198,2.764-0.669
			C108.216,122.022,107.805,120.926,106.937,120.264z"/>
		<path fill="#EECFB1" d="M97.226,95.762c-0.486-0.664-1.572-0.695-2.168-0.195c-0.153,0.124-0.286,0.268-0.407,0.417
			c-0.138,0.117-0.268,0.243-0.372,0.376c-0.549,0.68-0.891,1.412-1.098,2.187c-0.596,1.329-0.825,2.769-0.427,4.332
			c0.097,0.38,0.55,0.481,0.835,0.241c0.073-0.064,0.167-0.148,0.254-0.23h0.002C95.534,101.753,99.604,97.971,97.226,95.762z"/>
	</g>
	
		<path fill="none" stroke="#3B1F44" stroke-width="2.5583" stroke-linecap="round" stroke-linejoin="round" stroke-miterlimit="10" d="
		M76.759,87.602c0,0-5.151-3.088-3.398-7.412c1.75-4.327,9.577-0.617,9.577-0.617s-3.399-6.902,1.234-9.682
		c4.636-2.783,8.546,3.603,8.546,3.603s-0.924-7.62,4.635-8.237c5.561-0.619,6.902,6.076,6.902,6.076s2.059-7.416,8.649-7.005
		c6.59,0.412,6.076,9.683,6.076,9.683s3.913-6.902,10.091-4.328c6.184,2.575,1.753,12.564,1.753,12.564s5.456-4.632,10.093-0.925
		c4.633,3.705-2.885,12.563-2.885,12.563s8.963-2.883,11.33,3.089c2.368,5.972-9.166,9.887-9.166,9.887s11.429,1.136,10.399,7.725
		c-1.031,6.589-12.563,5.354-12.563,5.354s9.371,5.251,5.046,10.708c-4.327,5.458-13.489,0.619-13.489,0.619s4.531,8.037-3.09,10.61
		c-7.623,2.572-10.301-5.357-10.301-5.357s0.413,8.752-7.412,9.164c-7.827,0.412-6.49-9.473-6.49-9.473s-2.676,9.061-7.926,7.929
		c-5.255-1.134-3.917-10.713-3.917-10.713s-5.456,8.035-11.121,4.328c-5.663-3.706-0.31-13.181-0.31-13.181
		s-8.547,5.557-12.461,0.515c-3.912-5.047,5.768-13.388,5.768-13.388s-9.991,1.441-10.299-5.148
		c-0.308-6.591,9.786-6.489,9.786-6.489s-8.447-3.192-6.696-8.341C66.87,86.572,76.759,87.602,76.759,87.602z"/>
</g>
</svg>
