<?xml version="1.0" encoding="utf-8"?>
<!-- Generator: Adobe Illustrator 14.0.0, SVG Export Plug-In . SVG Version: 6.00 Build 43363)  -->
<!DOCTYPE svg PUBLIC "-//W3C//DTD SVG 1.1//EN" "http://www.w3.org/Graphics/SVG/1.1/DTD/svg11.dtd">
<svg version="1.1" id="Layer_1" xmlns="http://www.w3.org/2000/svg" xmlns:xlink="http://www.w3.org/1999/xlink" x="0px" y="0px"
	 width="200px" height="200px" viewBox="0 0 200 200" enable-background="new 0 0 200 200" xml:space="preserve">
<g>
	<g opacity="0.31">
		<g>
			<path fill="#231F20" d="M85.529,49.079c5.422,0.198,10.117-0.667,13.985-2.59c0,0,0,0,0.002,0
				c9.703-4.826,10.516-14.267,10.545-14.666l-2.822-22.366l-7.689,12.25c-2.142,3.412-4.617,5.835-7.355,7.197
				c-0.001,0,0,0-0.001,0c-5.35,2.662-10.292,0.555-10.462,0.48l-3.056-1.409l-4.566-14.973L54.965,149.23l-10.931,3.35l1.504,4.092
				c3.432,9.334,13.761,14.28,21.821,16.784c7.517,2.338,16.721,3.588,19.699,2.676l61.129-18.743
				c0.32-0.099,0.641-0.229,0.979-0.395c3.963-1.973,26.039-21.009,21.699-38.751l-1.035-4.234l-7.4,2.269L85.529,49.079z"/>
		</g>
	</g>
	<g>
		<g>
			<path fill="#FFFFFF" d="M81.026,46.519c5.421,0.197,10.116-0.668,13.984-2.59c0-0.001,0-0.001,0.002,0
				c9.703-4.826,10.516-14.267,10.546-14.667l-2.824-22.367l-7.689,12.251c-2.141,3.414-4.616,5.835-7.355,7.198
				c-0.001,0,0,0-0.001,0c-5.35,2.661-10.292,0.555-10.462,0.482l-3.057-1.412l-4.565-14.971L50.461,146.669l-10.93,3.35
				l1.503,4.093c3.433,9.334,13.761,14.279,21.822,16.785c7.516,2.337,16.72,3.586,19.698,2.673l61.128-18.742
				c0.322-0.097,0.641-0.228,0.979-0.395c3.963-1.973,26.039-21.01,21.701-38.749l-1.037-4.235l-7.398,2.269L81.026,46.519z"/>
		</g>
	</g>
	<g>
		<g>
			<g>
				<g>
					<defs>
						<path id="SVGID_1_" d="M74.893,30.657c0,0,13.705,6.324,23.57-9.395c0,0,0.188,6.447-5.774,13.849
							c0,0,5.771,0.706,8.193-5.921c0,0-1.138,15.211-22.45,13.076L74.893,30.657z"/>
					</defs>
					<clipPath id="SVGID_2_">
						<use xlink:href="#SVGID_1_"  overflow="visible"/>
					</clipPath>
					<g clip-path="url(#SVGID_2_)">
						<polygon fill="none" points="94.271,43.399 153.018,40.982 152.549,-14.87 93.803,-12.453 						"/>
						<polygon fill="#D4202A" points="153.018,40.982 94.271,43.399 93.803,-12.453 152.549,-14.87 						"/>
						<polygon fill="#EC2227" points="97.434,43.27 94.271,43.399 93.803,-12.453 96.965,-12.583 						"/>
						<polygon fill="#EC2227" points="103.973,43 100.81,43.13 100.342,-12.722 103.504,-12.852 						"/>
						<polygon fill="#EC2227" points="110.512,42.731 107.349,42.862 106.881,-12.99 110.043,-13.121 						"/>
						<polygon fill="#EC2227" points="117.05,42.462 113.888,42.592 113.42,-13.26 116.582,-13.39 						"/>
						<polygon fill="#EC2227" points="123.589,42.193 120.426,42.323 119.958,-13.529 123.121,-13.659 						"/>
						<polygon fill="#EC2227" points="130.128,41.924 126.965,42.054 126.498,-13.798 129.66,-13.928 						"/>
						<polygon fill="#EC2227" points="136.666,41.655 133.504,41.785 133.035,-14.067 136.198,-14.197 						"/>
						<polygon fill="#EC2227" points="143.205,41.386 140.043,41.516 139.574,-14.336 142.738,-14.466 						"/>
						<polygon fill="#EC2227" points="149.744,41.117 146.582,41.247 146.113,-14.605 149.277,-14.735 						"/>
					</g>
					<g clip-path="url(#SVGID_2_)">
						<polygon fill="none" points="35.526,45.817 94.271,43.399 93.803,-12.453 35.058,-10.035 						"/>
						<polygon fill="#D4202A" points="94.271,43.399 35.526,45.817 35.058,-10.035 93.803,-12.453 						"/>
						<polygon fill="#EC2227" points="38.688,45.688 35.526,45.817 35.058,-10.035 38.22,-10.165 						"/>
						<polygon fill="#EC2227" points="45.227,45.418 42.065,45.548 41.597,-10.304 44.759,-10.435 						"/>
						<polygon fill="#EC2227" points="51.766,45.148 48.604,45.279 48.135,-10.573 51.298,-10.703 						"/>
						<polygon fill="#EC2227" points="58.304,44.88 55.142,45.01 54.674,-10.842 57.836,-10.972 						"/>
						<polygon fill="#EC2227" points="64.844,44.611 61.681,44.74 61.212,-11.111 64.375,-11.242 						"/>
						<polygon fill="#EC2227" points="71.382,44.342 68.22,44.472 67.751,-11.38 70.914,-11.511 						"/>
						<polygon fill="#EC2227" points="77.921,44.073 74.758,44.203 74.29,-11.649 77.453,-11.779 						"/>
						<polygon fill="#EC2227" points="84.459,43.803 81.297,43.934 80.829,-11.918 83.991,-12.049 						"/>
						<polygon fill="#EC2227" points="90.999,43.535 87.836,43.664 87.368,-12.188 90.531,-12.317 						"/>
					</g>
				</g>
			</g>
		</g>
		<g>
			<g>
				<defs>
					<path id="SVGID_3_" d="M44.852,152.694c5.423,14.754,33.657,17.774,36.182,17.001l61.128-18.742
						c2.527-0.775,23.361-18.842,19.625-34.113L44.852,152.694z"/>
				</defs>
				<clipPath id="SVGID_4_">
					<use xlink:href="#SVGID_3_"  overflow="visible"/>
				</clipPath>
				<g clip-path="url(#SVGID_4_)">
					<g>
						<polygon fill="none" points="153.281,159.916 199.055,158.033 198.688,114.516 152.916,116.398 						"/>
					</g>
					<g>
						<polygon fill="#5C2025" points="198.688,114.516 199.053,158.032 153.281,159.916 152.918,116.398 						"/>
					</g>
					<g>
						<g>
							<polygon fill="#84393D" points="199.033,155.688 199.053,158.032 153.281,159.916 153.262,157.573 							"/>
						</g>
						<g>
							<polygon fill="#84393D" points="198.994,150.846 199.014,153.188 153.24,155.071 153.223,152.729 							"/>
						</g>
						<g>
							<polygon fill="#84393D" points="198.953,146.001 198.971,148.343 153.201,150.228 153.182,147.884 							"/>
						</g>
						<g>
							<polygon fill="#84393D" points="198.912,141.158 198.932,143.5 153.16,145.384 153.141,143.042 							"/>
						</g>
						<g>
							<polygon fill="#84393D" points="198.871,136.313 198.891,138.657 153.119,140.54 153.1,138.198 							"/>
						</g>
						<g>
							<polygon fill="#84393D" points="198.83,131.471 198.85,133.813 153.08,135.696 153.059,133.354 							"/>
						</g>
						<g>
							<polygon fill="#84393D" points="198.789,126.627 198.809,128.97 153.037,130.854 153.02,128.51 							"/>
						</g>
						<g>
							<polygon fill="#84393D" points="198.75,121.783 198.77,124.126 152.998,126.009 152.977,123.667 							"/>
						</g>
						<g>
							<polygon fill="#84393D" points="198.709,116.939 198.729,119.281 152.957,121.165 152.938,118.822 							"/>
						</g>
					</g>
				</g>
				<g clip-path="url(#SVGID_4_)">
					<g>
						<polygon fill="none" points="153.646,203.431 199.418,201.548 199.055,158.033 153.281,159.916 						"/>
					</g>
					<g>
						<polygon fill="#5C2025" points="199.055,158.033 199.418,201.548 153.646,203.431 153.281,159.916 						"/>
					</g>
					<g>
						<g>
							<polygon fill="#84393D" points="199.398,199.206 199.418,201.548 153.646,203.431 153.627,201.091 							"/>
						</g>
						<g>
							<polygon fill="#84393D" points="199.357,194.363 199.377,196.705 153.605,198.588 153.586,196.246 							"/>
						</g>
						<g>
							<polygon fill="#84393D" points="199.316,189.52 199.338,191.862 153.566,193.744 153.545,191.402 							"/>
						</g>
						<g>
							<polygon fill="#84393D" points="199.277,184.674 199.297,187.018 153.525,188.9 153.504,186.559 							"/>
						</g>
						<g>
							<polygon fill="#84393D" points="199.236,179.831 199.256,182.174 153.484,184.057 153.465,181.715 							"/>
						</g>
						<g>
							<polygon fill="#84393D" points="199.195,174.988 199.215,177.329 153.443,179.214 153.424,176.869 							"/>
						</g>
						<g>
							<polygon fill="#84393D" points="199.156,170.145 199.176,172.487 153.404,174.37 153.383,172.026 							"/>
						</g>
						<g>
							<polygon fill="#84393D" points="199.115,165.3 199.135,167.643 153.361,169.525 153.342,167.184 							"/>
						</g>
						<g>
							<polygon fill="#84393D" points="199.074,160.456 199.094,162.799 153.322,164.683 153.303,162.339 							"/>
						</g>
					</g>
				</g>
				<g clip-path="url(#SVGID_4_)">
					<g>
						<polygon fill="none" points="107.509,161.799 153.281,159.916 152.916,116.398 107.145,118.282 						"/>
					</g>
					<g>
						<polygon fill="#5C2025" points="152.916,116.398 153.281,159.915 107.51,161.799 107.145,118.282 						"/>
					</g>
					<g>
						<g>
							<polygon fill="#84393D" points="153.262,157.573 153.281,159.915 107.51,161.799 107.489,159.456 							"/>
						</g>
						<g>
							<polygon fill="#84393D" points="153.221,152.729 153.24,155.071 107.469,156.955 107.449,154.612 							"/>
						</g>
						<g>
							<polygon fill="#84393D" points="153.18,147.886 153.201,150.228 107.429,152.112 107.408,149.769 							"/>
						</g>
						<g>
							<polygon fill="#84393D" points="153.139,143.042 153.16,145.384 107.388,147.268 107.367,144.926 							"/>
						</g>
						<g>
							<polygon fill="#84393D" points="153.1,138.197 153.117,140.541 107.348,142.424 107.328,140.082 							"/>
						</g>
						<g>
							<polygon fill="#84393D" points="153.059,133.354 153.078,135.696 107.307,137.58 107.287,135.237 							"/>
						</g>
						<g>
							<polygon fill="#84393D" points="153.018,128.511 153.037,130.854 107.266,132.736 107.246,130.394 							"/>
						</g>
						<g>
							<polygon fill="#84393D" points="152.977,123.667 152.996,126.009 107.225,127.893 107.205,125.55 							"/>
						</g>
						<g>
							<polygon fill="#84393D" points="152.936,118.822 152.957,121.165 107.184,123.049 107.164,120.706 							"/>
						</g>
					</g>
				</g>
				<g clip-path="url(#SVGID_4_)">
					<g>
						<polygon fill="none" points="107.874,205.315 153.646,203.431 153.281,159.916 107.509,161.799 						"/>
					</g>
					<g>
						<polygon fill="#5C2025" points="153.281,159.916 153.646,203.431 107.875,205.316 107.51,161.799 						"/>
					</g>
					<g>
						<g>
							<polygon fill="#84393D" points="153.627,201.089 153.646,203.431 107.875,205.316 107.854,202.974 							"/>
						</g>
						<g>
							<polygon fill="#84393D" points="153.586,196.246 153.605,198.589 107.833,200.473 107.814,198.13 							"/>
						</g>
						<g>
							<polygon fill="#84393D" points="153.545,191.402 153.564,193.744 107.793,195.629 107.773,193.286 							"/>
						</g>
						<g>
							<polygon fill="#84393D" points="153.504,186.559 153.523,188.9 107.752,190.784 107.732,188.441 							"/>
						</g>
						<g>
							<polygon fill="#84393D" points="153.465,181.715 153.484,184.059 107.712,185.94 107.693,183.598 							"/>
						</g>
						<g>
							<polygon fill="#84393D" points="153.424,176.87 153.443,179.213 107.672,181.097 107.651,178.754 							"/>
						</g>
						<g>
							<polygon fill="#84393D" points="153.383,172.027 153.402,174.37 107.631,176.253 107.611,173.91 							"/>
						</g>
						<g>
							<polygon fill="#84393D" points="153.342,167.184 153.361,169.525 107.59,171.409 107.57,169.067 							"/>
						</g>
						<g>
							<polygon fill="#84393D" points="153.301,162.34 153.32,164.683 107.549,166.565 107.529,164.223 							"/>
						</g>
					</g>
				</g>
				<g clip-path="url(#SVGID_4_)">
					<g>
						<polygon fill="none" points="61.737,163.683 107.509,161.799 107.145,118.282 61.372,120.166 						"/>
					</g>
					<g>
						<polygon fill="#5C2025" points="107.145,118.282 107.509,161.798 61.737,163.683 61.373,120.166 						"/>
					</g>
					<g>
						<g>
							<polygon fill="#84393D" points="107.489,159.457 107.509,161.798 61.737,163.683 61.717,161.34 							"/>
						</g>
						<g>
							<polygon fill="#84393D" points="107.449,154.613 107.469,156.955 61.696,158.839 61.677,156.496 							"/>
						</g>
						<g>
							<polygon fill="#84393D" points="107.408,149.769 107.428,152.11 61.656,153.996 61.636,151.652 							"/>
						</g>
						<g>
							<polygon fill="#84393D" points="107.367,144.926 107.387,147.268 61.615,149.15 61.596,146.809 							"/>
						</g>
						<g>
							<polygon fill="#84393D" points="107.326,140.081 107.346,142.424 61.575,144.307 61.556,141.965 							"/>
						</g>
						<g>
							<polygon fill="#84393D" points="107.286,135.237 107.305,137.58 61.534,139.463 61.514,137.121 							"/>
						</g>
						<g>
							<polygon fill="#84393D" points="107.245,130.395 107.266,132.736 61.494,134.621 61.474,132.277 							"/>
						</g>
						<g>
							<polygon fill="#84393D" points="107.205,125.551 107.225,127.893 61.453,129.775 61.433,127.435 							"/>
						</g>
						<g>
							<polygon fill="#84393D" points="107.164,120.706 107.184,123.05 61.413,124.933 61.393,122.591 							"/>
						</g>
					</g>
				</g>
				<g clip-path="url(#SVGID_4_)">
					<g>
						<polygon fill="none" points="62.102,207.201 107.874,205.315 107.509,161.799 61.737,163.683 						"/>
					</g>
					<g>
						<polygon fill="#5C2025" points="107.509,161.799 107.873,205.313 62.102,207.199 61.737,163.683 						"/>
					</g>
					<g>
						<g>
							<polygon fill="#84393D" points="107.854,202.974 107.873,205.313 62.102,207.199 62.082,204.856 							"/>
						</g>
						<g>
							<polygon fill="#84393D" points="107.813,198.13 107.833,200.473 62.061,202.354 62.042,200.013 							"/>
						</g>
						<g>
							<polygon fill="#84393D" points="107.772,193.285 107.793,195.628 62.021,197.512 62.001,195.169 							"/>
						</g>
						<g>
							<polygon fill="#84393D" points="107.732,188.442 107.752,190.784 61.98,192.667 61.96,190.325 							"/>
						</g>
						<g>
							<polygon fill="#84393D" points="107.691,183.598 107.711,185.94 61.939,187.823 61.92,185.481 							"/>
						</g>
						<g>
							<polygon fill="#84393D" points="107.65,178.755 107.67,181.097 61.899,182.98 61.879,180.638 							"/>
						</g>
						<g>
							<polygon fill="#84393D" points="107.61,173.911 107.631,176.254 61.858,178.138 61.839,175.794 							"/>
						</g>
						<g>
							<polygon fill="#84393D" points="107.57,169.067 107.59,171.409 61.817,173.293 61.798,170.95 							"/>
						</g>
						<g>
							<polygon fill="#84393D" points="107.529,164.223 107.549,166.565 61.777,168.449 61.758,166.106 							"/>
						</g>
					</g>
				</g>
				<g clip-path="url(#SVGID_4_)">
					<g>
						<polygon fill="none" points="15.965,165.565 61.737,163.683 61.372,120.166 15.6,122.05 						"/>
					</g>
					<g>
						<polygon fill="#5C2025" points="61.372,120.166 61.737,163.682 15.965,165.565 15.601,122.05 						"/>
					</g>
					<g>
						<g>
							<polygon fill="#84393D" points="61.717,161.34 61.737,163.682 15.965,165.565 15.945,163.224 							"/>
						</g>
						<g>
							<polygon fill="#84393D" points="61.677,156.496 61.696,158.839 15.924,160.723 15.905,158.38 							"/>
						</g>
						<g>
							<polygon fill="#84393D" points="61.636,151.652 61.655,153.994 15.884,155.879 15.864,153.535 							"/>
						</g>
						<g>
							<polygon fill="#84393D" points="61.595,146.809 61.615,149.15 15.843,151.034 15.823,148.693 							"/>
						</g>
						<g>
							<polygon fill="#84393D" points="61.555,141.965 61.574,144.309 15.802,146.191 15.783,143.85 							"/>
						</g>
						<g>
							<polygon fill="#84393D" points="61.514,137.121 61.533,139.463 15.762,141.348 15.742,139.004 							"/>
						</g>
						<g>
							<polygon fill="#84393D" points="61.473,132.277 61.493,134.621 15.722,136.504 15.702,134.16 							"/>
						</g>
						<g>
							<polygon fill="#84393D" points="61.433,127.435 61.453,129.775 15.681,131.659 15.661,129.318 							"/>
						</g>
						<g>
							<polygon fill="#84393D" points="61.392,122.59 61.412,124.933 15.64,126.816 15.62,124.474 							"/>
						</g>
					</g>
				</g>
				<g clip-path="url(#SVGID_4_)">
					<g>
						<polygon fill="none" points="16.33,209.084 62.102,207.201 61.737,163.683 15.965,165.565 						"/>
					</g>
					<g>
						<polygon fill="#5C2025" points="61.737,163.683 62.102,207.199 16.33,209.084 15.965,165.565 						"/>
					</g>
					<g>
						<g>
							<polygon fill="#84393D" points="62.082,204.856 62.102,207.199 16.33,209.084 16.31,206.74 							"/>
						</g>
						<g>
							<polygon fill="#84393D" points="62.042,200.013 62.061,202.354 16.29,204.24 16.27,201.896 							"/>
						</g>
						<g>
							<polygon fill="#84393D" points="62,195.169 62.021,197.512 16.249,199.396 16.229,197.052 							"/>
						</g>
						<g>
							<polygon fill="#84393D" points="61.959,190.325 61.98,192.668 16.208,194.551 16.188,192.21 							"/>
						</g>
						<g>
							<polygon fill="#84393D" points="61.919,185.481 61.938,187.825 16.167,189.708 16.148,187.366 							"/>
						</g>
						<g>
							<polygon fill="#84393D" points="61.879,180.638 61.898,182.981 16.127,184.864 16.107,182.521 							"/>
						</g>
						<g>
							<polygon fill="#84393D" points="61.838,175.795 61.858,178.138 16.086,180.021 16.067,177.677 							"/>
						</g>
						<g>
							<polygon fill="#84393D" points="61.798,170.95 61.817,173.293 16.045,175.177 16.025,172.835 							"/>
						</g>
						<g>
							<polygon fill="#84393D" points="61.757,166.106 61.776,168.449 16.004,170.333 15.985,167.989 							"/>
						</g>
					</g>
				</g>
			</g>
		</g>
		<g>
			<g>
				<g>
					<defs>
						<polygon id="SVGID_5_" points="82.872,54.231 152.799,115.335 105.895,129.713 						"/>
					</defs>
					<clipPath id="SVGID_6_">
						<use xlink:href="#SVGID_5_"  overflow="visible"/>
					</clipPath>
					<g clip-path="url(#SVGID_6_)">
						<polygon fill="none" points="106.787,74.766 152.557,72.882 152.193,29.365 106.422,31.249 						"/>
						<polygon fill="#EF9174" points="152.193,29.365 152.559,72.881 106.787,74.766 106.422,31.249 						"/>
						<path fill="#FBC4BA" d="M118.011,37.842c0.017,2.071-1.735,3.822-3.913,3.912c-2.178,0.089-3.957-1.517-3.975-3.587
							c-0.018-2.071,1.734-3.822,3.912-3.912C116.213,34.165,117.993,35.771,118.011,37.842z"/>
						<path fill="#FBC4BA" d="M133.307,37.212c0.018,2.071-1.734,3.822-3.912,3.912s-3.957-1.516-3.975-3.587
							c-0.018-2.071,1.733-3.822,3.912-3.912C131.51,33.536,133.29,35.142,133.307,37.212z"/>
						<path fill="#FBC4BA" d="M148.604,36.583c0.018,2.071-1.734,3.822-3.912,3.912s-3.957-1.516-3.975-3.587
							s1.734-3.822,3.912-3.912C146.807,32.906,148.586,34.512,148.604,36.583z"/>
						<path fill="#FBC4BA" d="M118.134,52.532c0.017,2.07-1.735,3.822-3.913,3.911c-2.178,0.09-3.957-1.516-3.975-3.587
							c-0.018-2.071,1.734-3.822,3.912-3.912C116.336,48.855,118.115,50.461,118.134,52.532z"/>
						<path fill="#FBC4BA" d="M133.431,51.902c0.017,2.071-1.734,3.822-3.913,3.912c-2.178,0.09-3.957-1.517-3.975-3.587
							c-0.018-2.071,1.734-3.822,3.912-3.912S133.412,49.832,133.431,51.902z"/>
						<path fill="#FBC4BA" d="M148.727,51.273c0.018,2.071-1.734,3.822-3.912,3.912s-3.957-1.517-3.975-3.587
							s1.734-3.822,3.912-3.911C146.93,47.596,148.709,49.202,148.727,51.273z"/>
						<path fill="#FBC4BA" d="M118.258,67.421c0.018,2.071-1.734,3.822-3.912,3.912s-3.958-1.517-3.976-3.587
							c-0.017-2.07,1.735-3.822,3.913-3.911C116.461,63.744,118.24,65.351,118.258,67.421z"/>
						<path fill="#FBC4BA" d="M133.555,66.792c0.018,2.071-1.734,3.822-3.912,3.912s-3.958-1.517-3.975-3.588
							c-0.018-2.07,1.734-3.822,3.912-3.911C131.758,63.115,133.537,64.722,133.555,66.792z"/>
						<path fill="#FBC4BA" d="M148.852,66.162c0.018,2.071-1.734,3.822-3.912,3.912s-3.959-1.516-3.975-3.587
							c-0.018-2.071,1.734-3.822,3.912-3.912S148.834,64.092,148.852,66.162z"/>
					</g>
					<g clip-path="url(#SVGID_6_)">
						<polygon fill="none" points="107.15,118.282 152.924,116.398 152.557,72.882 106.787,74.766 						"/>
						<polygon fill="#EF9174" points="152.557,72.882 152.924,116.398 107.15,118.282 106.787,74.766 						"/>
						<path fill="#FBC4BA" d="M118.375,81.358c0.018,2.071-1.734,3.822-3.912,3.912s-3.958-1.517-3.976-3.587
							c-0.017-2.071,1.735-3.822,3.913-3.912S118.357,79.287,118.375,81.358z"/>
						<path fill="#FBC4BA" d="M133.672,80.729c0.018,2.07-1.734,3.821-3.912,3.911s-3.958-1.516-3.976-3.587
							c-0.017-2.07,1.735-3.822,3.913-3.911C131.874,77.053,133.654,78.658,133.672,80.729z"/>
						<path fill="#FBC4BA" d="M148.969,80.1c0.018,2.07-1.734,3.822-3.912,3.911c-2.178,0.09-3.959-1.516-3.977-3.586
							c-0.018-2.071,1.736-3.823,3.914-3.912C147.17,76.423,148.951,78.029,148.969,80.1z"/>
						<path fill="#FBC4BA" d="M118.498,96.049c0.019,2.07-1.734,3.822-3.911,3.912c-2.179,0.089-3.958-1.517-3.976-3.588
							s1.733-3.822,3.912-3.912C116.701,92.372,118.48,93.978,118.498,96.049z"/>
						<path fill="#FBC4BA" d="M133.795,95.419c0.018,2.071-1.734,3.822-3.912,3.913c-2.178,0.088-3.957-1.518-3.975-3.589
							c-0.018-2.069,1.732-3.821,3.912-3.911C131.998,91.742,133.777,93.349,133.795,95.419z"/>
						<path fill="#FBC4BA" d="M149.092,94.789c0.018,2.071-1.734,3.823-3.912,3.913c-2.178,0.089-3.959-1.518-3.975-3.588
							c-0.018-2.07,1.732-3.822,3.912-3.911C147.295,91.113,149.074,92.72,149.092,94.789z"/>
						<path fill="#FBC4BA" d="M118.623,110.938c0.018,2.071-1.734,3.822-3.912,3.911c-2.178,0.09-3.958-1.516-3.975-3.587
							c-0.018-2.07,1.733-3.822,3.912-3.911C116.826,107.262,118.605,108.867,118.623,110.938z"/>
						<path fill="#FBC4BA" d="M133.92,110.309c0.018,2.071-1.734,3.822-3.912,3.912s-3.958-1.517-3.976-3.588
							c-0.017-2.07,1.734-3.821,3.913-3.911C132.123,106.632,133.902,108.237,133.92,110.309z"/>
						<path fill="#FBC4BA" d="M149.217,109.68c0.018,2.07-1.734,3.822-3.912,3.911c-2.178,0.09-3.959-1.516-3.975-3.587
							c-0.02-2.071,1.732-3.822,3.91-3.912C147.42,106.003,149.199,107.608,149.217,109.68z"/>
					</g>
					<g clip-path="url(#SVGID_6_)">
						<polygon fill="none" points="107.516,161.799 153.287,159.915 152.924,116.398 107.15,118.282 						"/>
						<polygon fill="#EF9174" points="152.924,116.398 153.287,159.915 107.516,161.799 107.15,118.282 						"/>
						<path fill="#FBC4BA" d="M118.74,124.876c0.018,2.071-1.734,3.822-3.912,3.911c-2.179,0.09-3.959-1.516-3.976-3.587
							c-0.017-2.07,1.734-3.822,3.913-3.912C116.942,121.199,118.723,122.805,118.74,124.876z"/>
						<path fill="#FBC4BA" d="M134.037,124.246c0.018,2.071-1.734,3.822-3.912,3.912c-2.179,0.09-3.958-1.517-3.977-3.588
							c-0.016-2.07,1.735-3.821,3.912-3.911C132.239,120.569,134.02,122.176,134.037,124.246z"/>
						<path fill="#FBC4BA" d="M149.334,123.616c0.018,2.071-1.734,3.822-3.912,3.912c-2.18,0.09-3.959-1.517-3.977-3.587
							c-0.016-2.071,1.734-3.822,3.914-3.912C147.537,119.939,149.316,121.546,149.334,123.616z"/>
						<path fill="#FBC4BA" d="M118.863,139.565c0.017,2.071-1.734,3.822-3.912,3.912c-2.179,0.089-3.958-1.517-3.976-3.588
							c-0.017-2.07,1.735-3.822,3.913-3.911C117.066,135.889,118.846,137.495,118.863,139.565z"/>
						<path fill="#FBC4BA" d="M134.16,138.936c0.017,2.071-1.734,3.823-3.912,3.912c-2.179,0.09-3.958-1.517-3.976-3.587
							c-0.017-2.07,1.734-3.822,3.913-3.912C132.363,135.26,134.143,136.865,134.16,138.936z"/>
						<path fill="#FBC4BA" d="M149.457,138.308c0.018,2.069-1.734,3.821-3.912,3.91c-2.18,0.091-3.959-1.516-3.975-3.586
							c-0.018-2.071,1.732-3.822,3.912-3.912C147.66,134.63,149.439,136.236,149.457,138.308z"/>
						<path fill="#FBC4BA" d="M118.988,154.454c0.017,2.071-1.734,3.823-3.912,3.913c-2.179,0.089-3.959-1.517-3.975-3.587
							c-0.018-2.071,1.732-3.823,3.912-3.912C117.191,150.778,118.971,152.385,118.988,154.454z"/>
						<path fill="#FBC4BA" d="M134.285,153.826c0.017,2.069-1.734,3.822-3.913,3.911c-2.178,0.09-3.956-1.517-3.976-3.587
							c-0.016-2.071,1.735-3.822,3.914-3.912C132.488,150.149,134.268,151.755,134.285,153.826z"/>
						<path fill="#FBC4BA" d="M149.582,153.196c0.018,2.071-1.734,3.822-3.912,3.912c-2.178,0.089-3.959-1.517-3.977-3.588
							c-0.016-2.071,1.734-3.822,3.914-3.912C147.785,149.52,149.564,151.125,149.582,153.196z"/>
					</g>
					<g clip-path="url(#SVGID_6_)">
						<polygon fill="none" points="61.015,76.648 106.787,74.766 106.422,31.249 60.65,33.131 						"/>
						<polygon fill="#EF9174" points="106.422,31.249 106.786,74.765 61.015,76.648 60.65,33.131 						"/>
						<path fill="#FBC4BA" d="M72.239,39.726c0.017,2.07-1.735,3.821-3.913,3.911c-2.178,0.09-3.958-1.517-3.975-3.587
							c-0.018-2.071,1.734-3.823,3.912-3.912C70.441,36.048,72.222,37.655,72.239,39.726z"/>
						<path fill="#FBC4BA" d="M87.536,39.096c0.017,2.07-1.735,3.822-3.913,3.912c-2.178,0.089-3.958-1.517-3.975-3.588
							c-0.018-2.07,1.733-3.822,3.912-3.911C85.738,35.419,87.518,37.025,87.536,39.096z"/>
						<path fill="#FBC4BA" d="M102.832,38.466c0.018,2.071-1.734,3.823-3.912,3.912c-2.178,0.089-3.958-1.516-3.975-3.587
							c-0.018-2.071,1.734-3.822,3.912-3.911C101.035,34.79,102.814,36.396,102.832,38.466z"/>
						<path fill="#FBC4BA" d="M72.362,54.416c0.018,2.07-1.734,3.821-3.912,3.911c-2.178,0.09-3.958-1.517-3.975-3.588
							c-0.018-2.07,1.734-3.821,3.912-3.911C70.564,50.739,72.344,52.345,72.362,54.416z"/>
						<path fill="#FBC4BA" d="M87.658,53.786c0.018,2.07-1.734,3.822-3.912,3.912c-2.178,0.089-3.958-1.517-3.975-3.587
							c-0.017-2.071,1.734-3.823,3.912-3.913C85.861,50.109,87.641,51.715,87.658,53.786z"/>
						<path fill="#FBC4BA" d="M102.955,53.156c0.018,2.071-1.734,3.822-3.912,3.912c-2.178,0.09-3.958-1.517-3.976-3.587
							c-0.017-2.071,1.734-3.822,3.913-3.912C101.158,49.479,102.938,51.085,102.955,53.156z"/>
						<path fill="#FBC4BA" d="M72.487,69.305c0.018,2.07-1.734,3.822-3.912,3.912S64.617,71.7,64.6,69.63
							c-0.018-2.071,1.734-3.822,3.912-3.912S72.469,67.234,72.487,69.305z"/>
						<path fill="#FBC4BA" d="M87.784,68.676c0.018,2.07-1.734,3.822-3.913,3.911c-2.178,0.09-3.958-1.517-3.975-3.587
							c-0.018-2.071,1.734-3.822,3.912-3.911C85.986,64.999,87.767,66.604,87.784,68.676z"/>
						<path fill="#FBC4BA" d="M103.08,68.046c0.018,2.071-1.734,3.822-3.912,3.911c-2.178,0.09-3.958-1.516-3.975-3.587
							c-0.018-2.07,1.734-3.821,3.912-3.911C101.283,64.369,103.063,65.976,103.08,68.046z"/>
					</g>
					<g clip-path="url(#SVGID_6_)">
						<polygon fill="none" points="61.379,120.165 107.15,118.282 106.787,74.766 61.015,76.648 						"/>
						<polygon fill="#EF9174" points="106.787,74.766 107.15,118.281 61.379,120.165 61.015,76.648 						"/>
						<path fill="#FBC4BA" d="M72.604,83.243c0.018,2.07-1.734,3.821-3.912,3.911c-2.179,0.09-3.958-1.517-3.976-3.587
							c-0.017-2.071,1.734-3.822,3.913-3.912C70.806,79.565,72.586,81.172,72.604,83.243z"/>
						<path fill="#FBC4BA" d="M87.901,82.613c0.017,2.07-1.735,3.821-3.912,3.911c-2.178,0.09-3.958-1.517-3.976-3.587
							c-0.018-2.071,1.734-3.822,3.912-3.912S87.883,80.542,87.901,82.613z"/>
						<path fill="#FBC4BA" d="M103.197,81.983c0.018,2.071-1.734,3.822-3.912,3.911c-2.178,0.09-3.958-1.516-3.976-3.587
							c-0.017-2.07,1.734-3.821,3.913-3.911S103.18,79.912,103.197,81.983z"/>
						<path fill="#FBC4BA" d="M72.727,97.933c0.017,2.07-1.734,3.821-3.913,3.911c-2.178,0.089-3.958-1.517-3.975-3.588
							c-0.018-2.069,1.734-3.821,3.912-3.911C70.93,94.255,72.709,95.861,72.727,97.933z"/>
						<path fill="#FBC4BA" d="M88.024,97.303c0.018,2.07-1.735,3.823-3.913,3.912c-2.178,0.089-3.958-1.517-3.975-3.587
							c-0.018-2.071,1.733-3.822,3.912-3.912C86.227,93.627,88.006,95.232,88.024,97.303z"/>
						<path fill="#FBC4BA" d="M103.32,96.674c0.018,2.071-1.734,3.822-3.913,3.911c-2.178,0.09-3.958-1.516-3.975-3.587
							c-0.018-2.071,1.734-3.822,3.912-3.912C101.523,92.997,103.303,94.603,103.32,96.674z"/>
						<path fill="#FBC4BA" d="M72.852,112.821c0.018,2.071-1.734,3.822-3.912,3.912c-2.178,0.09-3.958-1.517-3.976-3.587
							c-0.018-2.071,1.734-3.822,3.912-3.912C71.054,109.146,72.834,110.751,72.852,112.821z"/>
						<path fill="#FBC4BA" d="M88.148,112.192c0.018,2.071-1.735,3.822-3.912,3.912c-2.178,0.089-3.958-1.517-3.975-3.588
							c-0.018-2.07,1.734-3.822,3.912-3.911C86.351,108.516,88.131,110.121,88.148,112.192z"/>
						<path fill="#FBC4BA" d="M103.445,111.563c0.017,2.071-1.734,3.822-3.913,3.912c-2.178,0.089-3.958-1.517-3.975-3.588
							c-0.018-2.07,1.734-3.821,3.912-3.911C101.648,107.886,103.428,109.492,103.445,111.563z"/>
					</g>
					<g clip-path="url(#SVGID_6_)">
						<polygon fill="none" points="61.745,163.683 107.516,161.799 107.15,118.282 61.379,120.165 						"/>
						<polygon fill="#EF9174" points="107.15,118.282 107.516,161.798 61.745,163.683 61.379,120.165 						"/>
						<path fill="#FBC4BA" d="M72.968,126.759c0.018,2.071-1.734,3.822-3.913,3.912c-2.178,0.09-3.958-1.517-3.975-3.587
							c-0.017-2.071,1.734-3.822,3.913-3.912C71.171,123.082,72.951,124.688,72.968,126.759z"/>
						<path fill="#FBC4BA" d="M88.266,126.13c0.017,2.07-1.735,3.822-3.912,3.911c-2.179,0.09-3.958-1.516-3.976-3.587
							s1.734-3.822,3.912-3.911C86.468,122.453,88.248,124.059,88.266,126.13z"/>
						<path fill="#FBC4BA" d="M103.563,125.5c0.018,2.07-1.734,3.822-3.913,3.912c-2.178,0.089-3.957-1.517-3.975-3.588
							c-0.018-2.069,1.734-3.822,3.912-3.911C101.765,121.823,103.545,123.429,103.563,125.5z"/>
						<path fill="#FBC4BA" d="M73.092,141.449c0.018,2.071-1.734,3.822-3.912,3.911c-2.179,0.091-3.958-1.516-3.976-3.586
							c-0.017-2.071,1.734-3.822,3.912-3.913C71.294,137.772,73.075,139.379,73.092,141.449z"/>
						<path fill="#FBC4BA" d="M88.389,140.82c0.017,2.07-1.734,3.821-3.912,3.91c-2.178,0.091-3.958-1.515-3.976-3.586
							c-0.017-2.071,1.734-3.822,3.912-3.912S88.371,138.749,88.389,140.82z"/>
						<path fill="#FBC4BA" d="M103.686,140.19c0.018,2.07-1.734,3.821-3.913,3.912c-2.178,0.089-3.957-1.517-3.975-3.588
							c-0.017-2.071,1.734-3.822,3.912-3.911C101.889,136.513,103.668,138.119,103.686,140.19z"/>
						<path fill="#FBC4BA" d="M73.217,156.339c0.017,2.071-1.734,3.822-3.912,3.911c-2.179,0.09-3.958-1.516-3.976-3.587
							c-0.017-2.07,1.734-3.822,3.912-3.912C71.419,152.662,73.199,154.268,73.217,156.339z"/>
						<path fill="#FBC4BA" d="M88.513,155.709c0.018,2.071-1.734,3.822-3.912,3.912c-2.178,0.09-3.958-1.517-3.976-3.587
							c-0.017-2.071,1.735-3.822,3.913-3.912C86.716,152.032,88.496,153.639,88.513,155.709z"/>
						<path fill="#FBC4BA" d="M103.811,155.08c0.018,2.07-1.734,3.821-3.913,3.911s-3.958-1.517-3.976-3.587
							c-0.017-2.071,1.734-3.821,3.912-3.912C102.013,151.403,103.793,153.009,103.811,155.08z"/>
					</g>
				</g>
			</g>
		</g>
		<g>
			<g>
				<g>
					<defs>
						<polygon id="SVGID_7_" points="70.845,30.685 54.667,145.811 101.568,131.43 						"/>
					</defs>
					<clipPath id="SVGID_8_">
						<use xlink:href="#SVGID_7_"  overflow="visible"/>
					</clipPath>
					<g clip-path="url(#SVGID_8_)">
						<polygon fill="none" points="86.613,35.277 103.08,34.599 102.949,18.943 86.481,19.62 						"/>
						<polygon fill="#FBBC9E" points="103.08,34.599 86.613,35.277 86.481,19.62 102.949,18.943 						"/>
						<polygon fill="#DB9579" points="94.78,27.11 86.547,27.449 86.481,19.62 94.715,19.282 						"/>
						<polygon fill="#FEE9E2" points="103.08,34.599 94.846,34.938 94.78,27.11 103.014,26.771 						"/>
					</g>
					<g clip-path="url(#SVGID_8_)">
						<polygon fill="none" points="86.744,50.934 103.211,50.256 103.08,34.599 86.613,35.277 						"/>
						<polygon fill="#FBBC9E" points="103.211,50.256 86.744,50.934 86.613,35.277 103.08,34.599 						"/>
						<polygon fill="#DB9579" points="94.912,42.767 86.678,43.105 86.613,35.277 94.846,34.938 						"/>
						<polygon fill="#FEE9E2" points="103.211,50.256 94.977,50.595 94.912,42.767 103.145,42.428 						"/>
					</g>
					<g clip-path="url(#SVGID_8_)">
						<polygon fill="none" points="86.875,66.59 103.342,65.913 103.211,50.256 86.744,50.934 						"/>
						<polygon fill="#FBBC9E" points="103.342,65.913 86.875,66.59 86.744,50.934 103.211,50.256 						"/>
						<polygon fill="#DB9579" points="95.043,58.423 86.809,58.762 86.744,50.934 94.977,50.595 						"/>
						<polygon fill="#FEE9E2" points="103.342,65.913 95.108,66.251 95.043,58.423 103.276,58.084 						"/>
					</g>
					<g clip-path="url(#SVGID_8_)">
						<polygon fill="none" points="87.006,82.246 103.473,81.568 103.342,65.913 86.875,66.59 						"/>
						<polygon fill="#FBBC9E" points="103.473,81.568 87.006,82.246 86.875,66.59 103.342,65.913 						"/>
						<polygon fill="#DB9579" points="95.174,74.08 86.941,74.418 86.875,66.59 95.108,66.251 						"/>
						<polygon fill="#FEE9E2" points="103.473,81.568 95.24,81.907 95.174,74.08 103.407,73.74 						"/>
					</g>
					<g clip-path="url(#SVGID_8_)">
						<polygon fill="none" points="87.137,97.903 103.604,97.226 103.473,81.568 87.006,82.246 						"/>
						<polygon fill="#FBBC9E" points="103.604,97.226 87.137,97.903 87.006,82.246 103.473,81.568 						"/>
						<polygon fill="#DB9579" points="95.305,89.736 87.072,90.074 87.006,82.246 95.24,81.907 						"/>
						<polygon fill="#FEE9E2" points="103.604,97.226 95.371,97.564 95.305,89.736 103.539,89.396 						"/>
					</g>
					<g clip-path="url(#SVGID_8_)">
						<polygon fill="none" points="87.269,113.56 103.736,112.882 103.604,97.226 87.137,97.903 						"/>
						<polygon fill="#FBBC9E" points="103.736,112.882 87.269,113.56 87.137,97.903 103.604,97.226 						"/>
						<polygon fill="#DB9579" points="95.436,105.392 87.203,105.731 87.137,97.903 95.371,97.564 						"/>
						<polygon fill="#FEE9E2" points="103.736,112.882 95.502,113.221 95.436,105.392 103.67,105.054 						"/>
					</g>
					<g clip-path="url(#SVGID_8_)">
						<polygon fill="none" points="87.4,129.216 103.867,128.538 103.736,112.882 87.269,113.56 						"/>
						<polygon fill="#FBBC9E" points="103.867,128.538 87.4,129.216 87.269,113.56 103.736,112.882 						"/>
						<polygon fill="#DB9579" points="95.567,121.048 87.334,121.388 87.269,113.56 95.502,113.221 						"/>
						<polygon fill="#FEE9E2" points="103.867,128.538 95.633,128.877 95.567,121.048 103.801,120.71 						"/>
					</g>
					<g clip-path="url(#SVGID_8_)">
						<polygon fill="none" points="87.531,144.872 103.998,144.194 103.867,128.538 87.4,129.216 						"/>
						<polygon fill="#FBBC9E" points="103.998,144.194 87.531,144.872 87.4,129.216 103.867,128.538 						"/>
						<polygon fill="#DB9579" points="95.699,136.705 87.466,137.044 87.4,129.216 95.633,128.877 						"/>
						<polygon fill="#FEE9E2" points="103.998,144.194 95.764,144.533 95.699,136.705 103.933,136.366 						"/>
					</g>
					<g clip-path="url(#SVGID_8_)">
						<polygon fill="none" points="70.146,35.955 86.613,35.277 86.481,19.62 70.014,20.298 						"/>
						<polygon fill="#FBBC9E" points="86.613,35.277 70.146,35.955 70.014,20.298 86.481,19.62 						"/>
						<polygon fill="#DB9579" points="78.313,27.788 70.08,28.127 70.014,20.298 78.247,19.959 						"/>
						<polygon fill="#FEE9E2" points="86.613,35.277 78.378,35.616 78.313,27.788 86.547,27.449 						"/>
					</g>
					<g clip-path="url(#SVGID_8_)">
						<polygon fill="none" points="70.276,51.611 86.744,50.934 86.613,35.277 70.146,35.955 						"/>
						<polygon fill="#FBBC9E" points="86.744,50.934 70.276,51.611 70.146,35.955 86.613,35.277 						"/>
						<polygon fill="#DB9579" points="78.444,43.444 70.21,43.783 70.146,35.955 78.378,35.616 						"/>
						<polygon fill="#FEE9E2" points="86.744,50.934 78.509,51.272 78.444,43.444 86.678,43.105 						"/>
					</g>
					<g clip-path="url(#SVGID_8_)">
						<polygon fill="none" points="70.407,67.268 86.875,66.59 86.744,50.934 70.276,51.611 						"/>
						<polygon fill="#FBBC9E" points="86.875,66.59 70.407,67.268 70.276,51.611 86.744,50.934 						"/>
						<polygon fill="#DB9579" points="78.575,59.101 70.342,59.439 70.276,51.611 78.509,51.272 						"/>
						<polygon fill="#FEE9E2" points="86.875,66.59 78.641,66.929 78.575,59.101 86.809,58.762 						"/>
					</g>
					<g clip-path="url(#SVGID_8_)">
						<polygon fill="none" points="70.539,82.925 87.006,82.246 86.875,66.59 70.407,67.268 						"/>
						<polygon fill="#FBBC9E" points="87.006,82.246 70.539,82.925 70.407,67.268 86.875,66.59 						"/>
						<polygon fill="#DB9579" points="78.707,74.757 70.473,75.096 70.407,67.268 78.641,66.929 						"/>
						<polygon fill="#FEE9E2" points="87.006,82.246 78.772,82.585 78.707,74.757 86.941,74.418 						"/>
					</g>
					<g clip-path="url(#SVGID_8_)">
						<polygon fill="none" points="70.67,98.581 87.137,97.903 87.006,82.246 70.539,82.925 						"/>
						<polygon fill="#FBBC9E" points="87.137,97.903 70.67,98.581 70.539,82.925 87.006,82.246 						"/>
						<polygon fill="#DB9579" points="78.838,90.414 70.604,90.752 70.539,82.925 78.772,82.585 						"/>
						<polygon fill="#FEE9E2" points="87.137,97.903 78.904,98.241 78.838,90.414 87.072,90.074 						"/>
					</g>
					<g clip-path="url(#SVGID_8_)">
						<polygon fill="none" points="70.801,114.236 87.269,113.56 87.137,97.903 70.67,98.581 						"/>
						<polygon fill="#FBBC9E" points="87.269,113.56 70.801,114.236 70.67,98.581 87.137,97.903 						"/>
						<polygon fill="#DB9579" points="78.969,106.07 70.735,106.408 70.67,98.581 78.904,98.241 						"/>
						<polygon fill="#FEE9E2" points="87.269,113.56 79.035,113.897 78.969,106.07 87.203,105.731 						"/>
					</g>
					<g clip-path="url(#SVGID_8_)">
						<polygon fill="none" points="70.933,129.893 87.4,129.216 87.269,113.56 70.801,114.236 						"/>
						<polygon fill="#FBBC9E" points="87.4,129.216 70.933,129.893 70.801,114.236 87.269,113.56 						"/>
						<polygon fill="#DB9579" points="79.1,121.727 70.867,122.065 70.801,114.236 79.035,113.897 						"/>
						<polygon fill="#FEE9E2" points="87.4,129.216 79.166,129.555 79.1,121.727 87.334,121.388 						"/>
					</g>
					<g clip-path="url(#SVGID_8_)">
						<polygon fill="none" points="71.064,145.551 87.531,144.872 87.4,129.216 70.933,129.893 						"/>
						<polygon fill="#FBBC9E" points="87.531,144.872 71.064,145.551 70.933,129.893 87.4,129.216 						"/>
						<polygon fill="#DB9579" points="79.231,137.383 70.999,137.722 70.933,129.893 79.166,129.555 						"/>
						<polygon fill="#FEE9E2" points="87.531,144.872 79.298,145.211 79.231,137.383 87.466,137.044 						"/>
					</g>
					<g clip-path="url(#SVGID_8_)">
						<polygon fill="none" points="53.678,36.632 70.146,35.955 70.014,20.298 53.546,20.976 						"/>
						<polygon fill="#FBBC9E" points="70.146,35.955 53.678,36.632 53.546,20.976 70.014,20.298 						"/>
						<polygon fill="#DB9579" points="61.846,28.465 53.613,28.804 53.546,20.976 61.78,20.637 						"/>
						<polygon fill="#FEE9E2" points="70.146,35.955 61.912,36.293 61.846,28.465 70.08,28.127 						"/>
					</g>
					<g clip-path="url(#SVGID_8_)">
						<polygon fill="none" points="53.809,52.289 70.276,51.611 70.146,35.955 53.678,36.632 						"/>
						<polygon fill="#FBBC9E" points="70.276,51.611 53.809,52.289 53.678,36.632 70.146,35.955 						"/>
						<polygon fill="#DB9579" points="61.977,44.122 53.744,44.46 53.678,36.632 61.912,36.293 						"/>
						<polygon fill="#FEE9E2" points="70.276,51.611 62.042,51.949 61.977,44.122 70.21,43.783 						"/>
					</g>
					<g clip-path="url(#SVGID_8_)">
						<polygon fill="none" points="53.94,67.945 70.407,67.268 70.276,51.611 53.809,52.289 						"/>
						<polygon fill="#FBBC9E" points="70.407,67.268 53.94,67.945 53.809,52.289 70.276,51.611 						"/>
						<polygon fill="#DB9579" points="62.108,59.778 53.875,60.117 53.809,52.289 62.042,51.949 						"/>
						<polygon fill="#FEE9E2" points="70.407,67.268 62.174,67.606 62.108,59.778 70.342,59.439 						"/>
					</g>
					<g clip-path="url(#SVGID_8_)">
						<polygon fill="none" points="54.072,83.602 70.539,82.925 70.407,67.268 53.94,67.945 						"/>
						<polygon fill="#FBBC9E" points="70.539,82.925 54.072,83.602 53.94,67.945 70.407,67.268 						"/>
						<polygon fill="#DB9579" points="62.239,75.435 54.006,75.773 53.94,67.945 62.174,67.606 						"/>
						<polygon fill="#FEE9E2" points="70.539,82.925 62.305,83.263 62.239,75.435 70.473,75.096 						"/>
					</g>
					<g clip-path="url(#SVGID_8_)">
						<polygon fill="none" points="54.203,99.259 70.67,98.581 70.539,82.925 54.072,83.602 						"/>
						<polygon fill="#FBBC9E" points="70.67,98.581 54.203,99.259 54.072,83.602 70.539,82.925 						"/>
						<polygon fill="#DB9579" points="62.371,91.091 54.138,91.43 54.072,83.602 62.305,83.263 						"/>
						<polygon fill="#FEE9E2" points="70.67,98.581 62.437,98.92 62.371,91.091 70.604,90.752 						"/>
					</g>
					<g clip-path="url(#SVGID_8_)">
						<polygon fill="none" points="54.334,114.915 70.801,114.236 70.67,98.581 54.203,99.259 						"/>
						<polygon fill="#FBBC9E" points="70.801,114.236 54.334,114.915 54.203,99.259 70.67,98.581 						"/>
						<polygon fill="#DB9579" points="62.501,106.748 54.269,107.086 54.203,99.259 62.437,98.92 						"/>
						<polygon fill="#FEE9E2" points="70.801,114.236 62.567,114.576 62.501,106.748 70.735,106.408 						"/>
					</g>
					<g clip-path="url(#SVGID_8_)">
						<polygon fill="none" points="54.465,130.571 70.933,129.893 70.801,114.236 54.334,114.915 						"/>
						<polygon fill="#FBBC9E" points="70.933,129.893 54.465,130.571 54.334,114.915 70.801,114.236 						"/>
						<polygon fill="#DB9579" points="62.633,122.404 54.4,122.742 54.334,114.915 62.567,114.576 						"/>
						<polygon fill="#FEE9E2" points="70.933,129.893 62.699,130.232 62.633,122.404 70.867,122.065 						"/>
					</g>
					<g clip-path="url(#SVGID_8_)">
						<polygon fill="none" points="54.597,146.228 71.064,145.551 70.933,129.893 54.465,130.571 						"/>
						<polygon fill="#FBBC9E" points="71.064,145.551 54.597,146.228 54.465,130.571 70.933,129.893 						"/>
						<polygon fill="#DB9579" points="62.764,138.061 54.531,138.399 54.465,130.571 62.699,130.232 						"/>
						<polygon fill="#FEE9E2" points="71.064,145.551 62.83,145.889 62.764,138.061 70.999,137.722 						"/>
					</g>
				</g>
			</g>
		</g>
		<g>
			<g>
				<g>
					<path fill="#EC2227" d="M73.988,158.298l-3.475,1.913c2.402,3.377,6.77,5,11.049,4.114l-1.258-3.563
						C77.864,161.077,75.446,160.143,73.988,158.298z"/>
				</g>
			</g>
			<g>
				<g>
					<path fill="#EC2227" d="M84.916,149.684l3.599-1.801c-2.425-3.179-6.646-4.695-10.792-3.858l1.091,3.59
						C81.118,147.281,83.414,148.067,84.916,149.684z"/>
				</g>
			</g>
			<g>
				<g>
					<path fill="#EC2227" d="M75.256,149.143l-1.758-3.35c-3.51,2.37-5.326,6.445-4.656,10.388l3.808-1.33
						C72.5,152.699,73.473,150.556,75.256,149.143z"/>
				</g>
			</g>
			<g>
				<g>
					<path fill="#EC2227" d="M83.929,159.253l1.893,3.249c3.558-2.454,5.34-6.673,4.495-10.692l-3.798,1.162
						C86.888,155.315,85.889,157.723,83.929,159.253z"/>
				</g>
			</g>
			<g>
				<g>
					<path fill="#FFFFFF" d="M88.515,147.883l-3.599,1.801c0.472,0.51,0.868,1.103,1.158,1.767c0.219,0.498,0.363,1.009,0.445,1.521
						l3.798-1.162c-0.132-0.639-0.334-1.274-0.605-1.897C89.391,149.178,88.986,148.501,88.515,147.883z"/>
				</g>
			</g>
			<g>
				<g>
					<path fill="#FFFFFF" d="M73.154,156.912c-0.294-0.672-0.456-1.367-0.505-2.062l-3.808,1.33c0.129,0.765,0.35,1.525,0.675,2.269
						c0.275,0.63,0.61,1.218,0.997,1.762l3.475-1.913C73.657,157.881,73.375,157.417,73.154,156.912z"/>
				</g>
			</g>
			<g>
				<g>
					<path fill="#FFFFFF" d="M76.971,148.126c0.604-0.257,1.223-0.424,1.843-0.512l-1.091-3.59c-0.754,0.152-1.503,0.38-2.239,0.69
						c-0.711,0.302-1.375,0.663-1.987,1.078l1.758,3.35C75.764,148.739,76.338,148.394,76.971,148.126z"/>
				</g>
			</g>
			<g>
				<g>
					<path fill="#FFFFFF" d="M82.257,160.236c-0.64,0.27-1.297,0.441-1.953,0.525l1.258,3.563c0.734-0.152,1.465-0.377,2.184-0.679
						c0.749-0.316,1.439-0.704,2.076-1.145l-1.893-3.249C83.432,159.642,82.873,159.976,82.257,160.236z"/>
				</g>
			</g>
		</g>
	</g>
</g>
</svg>
