<?xml version="1.0" encoding="utf-8"?>
<!-- Generator: Adobe Illustrator 14.0.0, SVG Export Plug-In . SVG Version: 6.00 Build 43363)  -->
<!DOCTYPE svg PUBLIC "-//W3C//DTD SVG 1.1//EN" "http://www.w3.org/Graphics/SVG/1.1/DTD/svg11.dtd">
<svg version="1.1" id="Layer_1" xmlns="http://www.w3.org/2000/svg" xmlns:xlink="http://www.w3.org/1999/xlink" x="0px" y="0px"
	 width="200px" height="200px" viewBox="0 0 200 200" enable-background="new 0 0 200 200" xml:space="preserve">
<g>
	<path fill="#010101" d="M191.969,85.082c-0.106-2.021-1.99-2.238-3.51-1.555c-0.131,0.061-0.253,0.217-0.322,0.385
		c-3.108,0.429-6.383-0.126-9.56-1.077c-0.196-0.305-0.515-0.359-0.812-0.252c-2.522-0.811-4.965-1.84-7.191-2.803
		c-5.493-2.372-10.768-5.212-16.296-7.504c-5.284-2.193-10.919-3.914-16.69-3.799c-2.558,0.053-5.047,0.586-7.434,1.488
		c-0.896,0.336-3.589,1.387-4.938,2.568c-0.77-3.383-2.212-6.752-3.474-9.774c-2.1-5.036-4.567-9.907-6.696-14.931
		c-2.103-4.964-3.871-10.177-4.213-15.595c-0.337-5.336,1.151-10.438,3.96-14.928c0.111-0.009,0.221-0.021,0.329-0.025
		c0.478-0.03,0.633-0.778,0.184-0.875c0.001-0.304-0.504-0.394-0.736-0.063c-0.022,0.032-0.045,0.067-0.068,0.099
		c-12.894,0.963-23.541,9.156-31.011,19.308c-7.79,10.587-12.977,23.495-14.899,36.486c0,0,0,0.001,0,0.002
		c-1.392,0.097-2.783,0.236-4.139,0.268c-2.719,0.065-5.44,0.04-8.157-0.005c-5.44-0.086-10.88-0.287-16.321-0.235
		c-10.854,0.102-21.864,1.586-31.45,6.974c-0.316,0.179-0.409,0.584-0.311,0.843c-0.033,0.034-0.065,0.063-0.096,0.098
		c-0.146,0.167,0.052,0.412,0.23,0.257c0.148-0.034,0.218-0.076,0.225-0.123c0.01-0.002,0.021-0.007,0.032-0.009
		c0.073,0.051,0.163,0.059,0.259,0.052c1.666-0.126,3.677,1.257,5.027,2.068c1.68,1.007,3.29,2.158,4.825,3.374
		c4.275,3.39,7.831,7.733,11.573,11.676c4.057,4.272,8.402,8.345,13.666,11.084c3.034,1.579,6.214,2.931,9.462,4.003
		c0.145,0.049,0.296,0.095,0.445,0.144c-9.046,7.637-12.811,19.818-13.657,31.285c-0.979,13.239,1.928,27.834,9.555,38.856
		c0.298,0.432,0.998,0.132,1.003-0.37c0.046-5.153,2.039-9.669,6.211-12.773c3.826-2.845,8.557-4.312,13.021-5.813
		c4.521-1.521,9.12-3.021,13.188-5.569c1.849-1.156,3.565-2.587,4.942-4.286c2.187-2.696,3.232-5.888,4.439-9.054
		c0.072,0.215,0.15,0.425,0.231,0.634c-0.028,0.098-0.021,0.202,0.03,0.294c0.077,0.131,0.164,0.258,0.243,0.388
		c0.196,0.47,0.387,0.901,0.526,1.24c1.337,3.269,3.588,6.171,6.002,8.708c5.247,5.515,11.48,10.624,18.396,13.87
		c6.537,3.069,13.687,3.64,20.789,2.817c3.425-0.397,6.782-1.258,9.993-2.505c2.505-0.976,5.22-2.219,7.396-3.931
		c0.17,0.203,0.463,0.302,0.792,0.132c1.306-0.677,2.852-1.747,2.826-3.381c-0.023-1.338-1.879-2.065-2.867-2.478
		c-1.805-0.759-3.655-1.111-5.357-2.126c-2.343-1.394-4.015-3.689-5.206-6.089c-2.307-4.641-2.903-10.001-3.66-15.061
		c-0.909-6.079-3.139-11.737-5.497-17.361c6.42,2.375,13.985,0.913,20.288-1.189c7.966-2.653,15.167-7.188,21.175-13.022
		c4.522-4.394,8.636-9.54,11.522-15.173C191.053,89.053,192.07,87.033,191.969,85.082z"/>
	<radialGradient id="SVGID_1_" cx="97.1079" cy="87.1885" r="87.7974" gradientUnits="userSpaceOnUse">
		<stop  offset="0" style="stop-color:#FFFFFF"/>
		<stop  offset="0.5276" style="stop-color:#F8E500"/>
		<stop  offset="1" style="stop-color:#F3C31B"/>
	</radialGradient>
	<path fill="url(#SVGID_1_)" d="M136.532,119.87c1.585,5.468,4.048,10.696,4.941,16.357c0.733,4.655,1.218,9.35,2.656,13.859
		c1.322,4.151,3.618,7.936,7.451,10.177c1.347,0.786,2.908,1.169,4.359,1.722c-1.579,0.993-3.412,1.387-5.263,1.71
		c-2.814,0.489-5.595,1.043-8.439,1.351c-6.377,0.682-13.101,0.581-19.326-1.032c-5.702-1.477-10.935-4.333-15.879-7.463
		c-2.456-1.556-4.889-3.174-7.196-4.941c-2.417-1.851-4.331-3.991-6.289-6.296c-0.06-0.073-0.133-0.108-0.209-0.12
		c-0.248-0.617-0.489-1.234-0.737-1.849c-0.006-0.021-0.015-0.04-0.023-0.062c0.021-0.139-0.034-0.248-0.119-0.307
		c-0.104-0.265-0.207-0.536-0.283-0.815h-0.001c-0.076,0.078-0.139,0.172-0.186,0.283c-0.332,0.793-0.632,1.598-0.925,2.404
		c-5.792,9.296-17.813,12.094-27.375,15.864c-4.81,1.897-8.914,4.92-11.771,9.281c-1.339,2.046-1.976,4.368-2.312,6.77
		c-0.142,1.008-0.333,2.26-0.222,3.412c-6.218-10.077-8.723-22.522-8.355-34.229c0.382-12.17,4.295-24.697,13.557-33.014
		c1.77,0.552,3.705,1.058,5.597,1.223c-2.282-0.868-4.394-2.257-6.161-3.888c-1.021-0.941-2.186-2.072-3.127-3.34
		c-1.329-1.489-2.414-3.227-3.406-4.925c-2.991-5.116-6.164-10.039-10.507-14.141c-3.987-3.764-9.173-6.502-14.522-7.658
		c-2.384-0.517-4.605-0.766-7.03-0.597c-0.762,0.053-2.339,0.333-3.708,0.308c-0.511-0.202-1.016-0.352-1.492-0.409
		c9.547-4.68,20.026-5.861,30.583-6.028c5.451-0.088,10.902,0.089,16.354,0.127c2.569,0.017,5.138-0.009,7.706-0.09
		c1.125-0.037,2.295-0.046,3.461-0.105c-0.213,0.213-0.417,0.438-0.599,0.688c-0.3,0.414-2.01,3.107-1.142,3.445
		c0.109,0.042,0.194-0.057,0.188-0.16c-0.063-1.008,1.049-2.459,1.677-3.18c1.196-1.372,3.034-1.697,4.696-2.147
		c0.253-0.068,0.297-0.525-0.011-0.522c-1.284,0.002-2.584,0.334-3.683,0.996c0.027-0.117,0.052-0.231,0.084-0.349
		c-0.012,0-0.024,0-0.038,0c2.245-12.571,7.108-24.951,14.542-35.365c7.153-10.023,17.299-18.207,29.833-19.438
		c-2.556,4.007-3.981,8.454-4.112,13.259c-0.14,5.244,1.344,10.401,3.149,15.271c1.944,5.245,4.434,10.272,6.667,15.396
		c1.118,2.571,2.158,5.174,3.033,7.839c0.564,1.711,0.929,3.44,1.278,5.177c-1.098-0.963-2.759-2.085-4.214-1.723
		c-0.224,0.052-0.297,0.466-0.01,0.44c1.419-0.124,3.161,1.436,4.091,2.353c1.052,1.037,1.29,2.35,2.027,3.54
		c0.188,0.304,0.532-0.063,0.545-0.285c0.088-1.38-0.819-2.713-1.784-3.705c0.259-0.431,0.561-0.843,0.903-1.221
		c-0.004-0.016-0.005-0.033-0.009-0.048v0c-0.005-0.019-0.006-0.031-0.007-0.046c0.04-0.007,0.088-0.023,0.132-0.036
		c0.857-0.916,1.907-1.627,2.912-1.964c0.492-0.165,0.994-0.293,1.506-0.396c0.867-0.338,1.755-0.619,2.659-0.844
		c2.605-0.659,5.319-0.731,7.984-0.488c5.696,0.515,11.154,2.742,16.319,5.075c5.061,2.284,9.968,4.903,15.119,6.98
		c1.57,0.633,3.243,1.276,4.968,1.839c0.854,5.843-0.346,10.819-3.34,15.881c-2.548,4.302-6.114,7.947-10.173,10.837
		c-6.017,4.29-13.183,6.733-20.512,7.351c-1.021,0.237-2.059,0.404-3.109,0.548c-1.307,0.178-2.622,0.45-3.936,0.55
		c-0.377,0.027-0.885-0.02-1.409-0.063C135.201,119.262,135.86,119.588,136.532,119.87z"/>
	<radialGradient id="SVGID_2_" cx="98.5898" cy="120.2813" r="26.6787" gradientUnits="userSpaceOnUse">
		<stop  offset="0" style="stop-color:#FFFFFF"/>
		<stop  offset="0.5276" style="stop-color:#F8E500"/>
		<stop  offset="1" style="stop-color:#F3C31B"/>
	</radialGradient>
	<path fill="url(#SVGID_2_)" d="M73.012,113.495c0,0-3.935,4.672,0.737,5.902c4.67,1.229,7.868-1.23,14.015-7.869
		c6.147-6.637,13.277-8.113,18.687-1.72c5.409,6.392,8.852,5.161,11.064,1.228c-2.704-1.475-1.229-7.377,3.441-7.866
		c-2.95,3.688,1.967,7.376,9.59,8.358c4.425,0.985-0.49,5.901-8.359,1.723c0,0-1.721,5.901-7.376,6.391
		c0,0-4.18,16.721-16.474,17.707c-12.294,0.981-14.015-14.755-22.13-13.525c-8.113,1.23-14.842-6.019-9.097-10.328
		C72.028,109.809,74.485,111.776,73.012,113.495z"/>
	<radialGradient id="SVGID_3_" cx="33.397" cy="95.7534" r="18.256" gradientUnits="userSpaceOnUse">
		<stop  offset="0" style="stop-color:#F8F1C7"/>
		<stop  offset="0.4847" style="stop-color:#F7BB17"/>
		<stop  offset="1" style="stop-color:#F07B25"/>
	</radialGradient>
	<path fill="url(#SVGID_3_)" d="M52.665,110.908c-3.634-1.197-7.228-2.843-10.493-4.844c-5.668-3.481-10.164-8.615-14.672-13.419
		c-3.535-3.764-7.088-7.453-11.457-10.247c-0.722-0.463-1.938-1.32-3.236-1.988c1.797,0.009,3.592-0.339,5.392-0.199
		c6.74,0.525,13.203,3.795,18.103,8.35c2.306,2.147,4.272,4.686,6.042,7.282c1.926,2.824,3.345,5.912,5.099,8.837
		c1.35,2.251,3.003,4.28,5.151,5.807c0.44,0.313,0.91,0.593,1.394,0.842C53.544,111.195,53.103,111.056,52.665,110.908z"/>
	<radialGradient id="SVGID_4_" cx="69.873" cy="164.126" r="18.5629" gradientUnits="userSpaceOnUse">
		<stop  offset="0" style="stop-color:#F8F1C7"/>
		<stop  offset="0.4847" style="stop-color:#F7BB17"/>
		<stop  offset="1" style="stop-color:#F07B25"/>
	</radialGradient>
	<path fill="url(#SVGID_4_)" d="M86.631,153.769c-1.542,1.765-3.479,3.116-5.51,4.26c-4.414,2.489-9.387,3.87-14.14,5.546
		c-4.337,1.53-8.731,3.308-12.192,6.417c-3.176,2.854-4.654,6.72-4.998,10.837c-0.021-0.032-0.041-0.068-0.063-0.098
		c-0.38-2.325,0.305-5.154,0.901-7.19c0.901-3.079,3.154-5.649,5.516-7.734c3.795-3.354,8.69-4.891,13.376-6.548
		c4.383-1.551,8.755-3.135,12.775-5.504c2.74-1.613,5.679-3.73,7.829-6.33C89.272,149.689,88.285,151.879,86.631,153.769z"/>
	<radialGradient id="SVGID_5_" cx="126.8281" cy="160.7324" r="23.7098" gradientUnits="userSpaceOnUse">
		<stop  offset="0" style="stop-color:#F8F1C7"/>
		<stop  offset="0.4847" style="stop-color:#F7BB17"/>
		<stop  offset="1" style="stop-color:#F07B25"/>
	</radialGradient>
	<path fill="url(#SVGID_5_)" d="M156.835,162.351c0.566,0.259,1.139,0.598,1.417,1.08c0.279,0.489-0.273,1.021-0.874,1.445
		c-0.082-0.046-0.19-0.056-0.319,0.013c-2.856,1.483-5.414,3.303-8.42,4.524c-3.118,1.267-6.419,2.028-9.75,2.458
		c-7.18,0.926-14.276,0.1-20.852-2.986c-6.068-2.848-11.26-7.318-16.075-11.907c-1.648-1.569-3.166-3.199-4.506-4.984
		c-0.479-0.555-0.93-1.135-1.361-1.735c-0.055-0.044-0.111-0.092-0.161-0.156c-0.223-0.278-0.422-0.567-0.604-0.866
		c2.989,3.215,6.986,5.678,10.535,7.991c5.169,3.368,10.646,6.284,16.617,7.946c6.549,1.823,13.594,1.794,20.306,1.09
		c2.932-0.307,5.853-0.84,8.732-1.467C153.371,164.393,155.533,163.829,156.835,162.351z"/>
	<radialGradient id="SVGID_6_" cx="164.2383" cy="102.2695" r="22.4817" gradientUnits="userSpaceOnUse">
		<stop  offset="0" style="stop-color:#F8F1C7"/>
		<stop  offset="0.4847" style="stop-color:#F7BB17"/>
		<stop  offset="1" style="stop-color:#F07B25"/>
	</radialGradient>
	<path fill="url(#SVGID_6_)" d="M190.225,87.063c-0.566,2.013-1.653,3.896-2.708,5.682c-3.056,5.165-7.114,9.832-11.519,13.878
		c-5.531,5.082-12.184,8.758-19.251,11.231c-5.938,2.077-12.716,3.223-18.799,1.343c9.601,0.627,19.281-2.286,27.094-7.917
		c4.185-3.018,7.725-6.878,10.384-11.293c2.694-4.473,4.784-10.311,3.624-15.597c3.348,0.911,6.813,1.371,10.065,0.69
		c0.27-0.057,0.463-0.266,0.559-0.503c0.3,0.056,0.561,0.166,0.701,0.379C190.729,85.51,190.381,86.508,190.225,87.063z"/>
	<path fill="#010101" d="M128.408,112.654c-2.676-0.294-13.064-2.959-9.561-7.186c0.124-0.148-0.023-0.367-0.181-0.214
		c-2.008,1.949-0.924,4.025,1.184,5.626c-0.15,0.146-0.259,0.338-0.266,0.553c-0.107,3.419-2.475,5.536-5.871,5.302
		c-0.376-0.026-0.743-0.092-1.104-0.182c-0.064-0.288-0.379-0.329-0.637-0.197c-2.132-0.767-3.962-2.521-5.508-4.04
		c-1.572-1.542-3.143-3.029-5.216-3.868c-2.511-1.016-5.412-0.273-7.717,0.914c-5.284,2.719-7.529,8.88-13.062,11.319
		c-2.593,1.144-5.621,1.801-8.389,0.969c-4.202-1.262-4.754-7.189-0.521-8.84c0.065-0.026,0.08-0.168-0.006-0.146
		c-2.28,0.523-3.752,2.761-3.493,5.099c0.343,3.076,2.909,4.737,5.82,5.029c2.615,0.267,5.302-0.54,7.671-1.685
		c2.513,7.11,9.265,11.14,16.741,9.82c6.812-1.203,12.646-6.249,14.122-13.049c1.418,0.33,2.901,0.295,4.353-0.244
		c2.618-0.965,3.883-3.447,4.084-6.074c2.528,1.545,5.877,2.45,7.538,1.982C128.828,113.418,128.923,112.711,128.408,112.654z"/>
	<radialGradient id="SVGID_7_" cx="97.8433" cy="100.6494" r="19.2054" gradientUnits="userSpaceOnUse">
		<stop  offset="0" style="stop-color:#FFFFFF"/>
		<stop  offset="0.5215" style="stop-color:#FEFBDD"/>
		<stop  offset="1" style="stop-color:#FED4A3"/>
	</radialGradient>
	<path fill="url(#SVGID_7_)" d="M89.954,113.41c2.681-2.821,6.462-5.138,10.477-3.986c1.947,0.557,3.474,1.996,4.932,3.504
		c-3.687,5.011-13.352,9.086-18.252,3.726C88.069,115.561,88.987,114.428,89.954,113.41z"/>
	<radialGradient id="SVGID_8_" cx="95.8779" cy="103.1748" r="26.0583" gradientUnits="userSpaceOnUse">
		<stop  offset="0" style="stop-color:#ED7C81"/>
		<stop  offset="0.6012" style="stop-color:#EB2427"/>
		<stop  offset="1" style="stop-color:#861719"/>
	</radialGradient>
	<path fill="url(#SVGID_8_)" d="M86.175,126.555c-1.684-1.534-3.035-3.501-3.919-5.804c0.114-0.056,0.227-0.116,0.337-0.177
		c1.512-0.817,2.774-2,3.949-3.281c0.628,0.775,1.344,1.383,2.124,1.843c-0.955,0.606-1.652,2.068-2.006,2.896
		C86.13,123.262,85.785,125.098,86.175,126.555z"/>
	<radialGradient id="SVGID_9_" cx="95.8765" cy="103.1709" r="26.0635" gradientUnits="userSpaceOnUse">
		<stop  offset="0.1779" style="stop-color:#ED7C81"/>
		<stop  offset="1" style="stop-color:#EB2427"/>
	</radialGradient>
	<path fill="url(#SVGID_9_)" d="M97.956,129.993c-3.95,0.627-7.656-0.332-10.581-2.456c0.015-0.058,0.021-0.114,0.006-0.168
		c-0.441-1.537-0.66-2.804-0.272-4.394c0.186-0.761,0.531-1.465,0.939-2.124c0.348-0.564,0.863-0.92,1.307-1.36
		c4.443,2.046,10.548-0.222,14.479-3.549c0.808,0.718,2.427,3.066,2.564,3.286c0.903,1.44,1.545,2.935,2.238,4.458
		C106.122,127.017,102.329,129.298,97.956,129.993z"/>
	<radialGradient id="SVGID_10_" cx="95.8813" cy="103.1631" r="26.0671" gradientUnits="userSpaceOnUse">
		<stop  offset="0" style="stop-color:#ED7C81"/>
		<stop  offset="0.6012" style="stop-color:#EB2427"/>
		<stop  offset="1" style="stop-color:#861719"/>
	</radialGradient>
	<path fill="url(#SVGID_10_)" d="M109.325,122.707c-0.244-0.607-0.621-1.202-0.892-1.705c-0.688-1.294-1.465-2.545-2.32-3.735
		c-0.249-0.353-0.967-1.37-1.668-1.866c0.604-0.567,1.149-1.154,1.61-1.755c0.783,0.818,1.56,1.618,2.387,2.268
		c0.919,0.721,1.941,1.303,3.018,1.683C111.039,119.459,110.309,121.175,109.325,122.707z"/>
	<path fill="#010101" d="M108.65,131.124c-1.984,1.006-3.669,2.616-5.635,3.709c-2.417,1.338-5.109,2.023-7.861,1.607
		c-2.193-0.331-4.593-1.651-6.189-3.182c-1.099-1.057-1.915-2.365-3.348-2.912c-0.107-0.039-0.212,0.128-0.106,0.187
		c0.62,0.36,1.172,1.364,1.599,1.912c0.601,0.767,1.205,1.566,1.976,2.176c1.983,1.563,4.321,2.701,6.842,2.985
		c2.17,0.245,4.454-0.331,6.417-1.232c2.371-1.09,5.087-2.581,6.802-4.581C109.458,131.432,109.091,130.903,108.65,131.124z"/>
	<path fill="#010101" d="M84.619,65.751c-1.812-0.329-3.966-0.188-5.17,1.382c-0.077,0.101-0.104,0.232-0.09,0.347
		c-0.116,0.148-0.232,0.305-0.335,0.481c-0.254,0.411,0.281,0.677,0.543,0.299c0.32-0.458,0.738-0.824,1.215-1.095
		c1.102-0.467,2.262-0.592,3.514-0.38C84.892,66.888,85.214,65.788,84.619,65.751z"/>
	<path fill="#010101" d="M110.662,65.898c-1.813-2.445-6.787-3.803-8.479-0.466c-0.088,0.173-0.021,0.339,0.102,0.431
		c-0.049,0.218,0.166,0.436,0.396,0.231c0.533-0.47,1.063-0.781,1.59-0.976c0.137-0.047,0.274-0.09,0.411-0.128
		c1.799-0.45,3.569,0.472,5.29,1.729C110.419,67.05,110.956,66.292,110.662,65.898z"/>
	<g>
		<radialGradient id="SVGID_11_" cx="95.8765" cy="103.1709" r="26.0635" gradientUnits="userSpaceOnUse">
			<stop  offset="0.1779" style="stop-color:#ED7C81"/>
			<stop  offset="1" style="stop-color:#EB2427"/>
		</radialGradient>
		<path fill="url(#SVGID_11_)" d="M106.399,119.229c-0.138-0.22-1.757-2.568-2.564-3.286c-3.932,3.327-10.037,5.595-14.479,3.549
			c-0.444,0.44-0.959,0.796-1.307,1.36c-0.409,0.659-0.754,1.363-0.939,2.124c-0.388,1.59-0.169,2.856,0.272,4.394
			c0.015,0.054,0.009,0.11-0.006,0.168c2.925,2.124,6.631,3.083,10.581,2.456c4.374-0.695,8.167-2.977,10.682-6.307
			C107.944,122.163,107.303,120.669,106.399,119.229z M94.894,128.126c-8.115-0.186-7.009-7.189-4.056-7.189
			c0,0,4.793,2.581,10.88-1.847C103.744,117.43,107.249,126.652,94.894,128.126z"/>
	</g>
	<path opacity="0.29" fill="#FFFFFF" d="M96.554,123.793c0,0.664-1.24,1.197-2.765,1.197c-1.529,0-2.768-0.533-2.768-1.197
		c0-0.661,1.239-1.199,2.768-1.199C95.314,122.594,96.554,123.132,96.554,123.793z"/>
	<path fill="#FFFFFF" d="M89.732,115.957c0,0,8.296-10.327,14.012-2.398C99.136,118.539,89.361,118.539,89.732,115.957z"/>
	
		<radialGradient id="SVGID_12_" cx="120.7363" cy="87.3218" r="13.5229" gradientTransform="matrix(0.9681 -0.2507 0.2507 0.9681 -19.7121 43.381)" gradientUnits="userSpaceOnUse">
		<stop  offset="0" style="stop-color:#F8F1C7"/>
		<stop  offset="0.4847" style="stop-color:#F7BB17"/>
		<stop  offset="1" style="stop-color:#F07B25"/>
	</radialGradient>
	<path fill="url(#SVGID_12_)" d="M114.592,104.902c0,0,0.991-9.907,13.103-9.236C139.807,96.34,114.944,111.161,114.592,104.902z"/>
	
		<radialGradient id="SVGID_13_" cx="70.7959" cy="97.9927" r="11.1513" gradientTransform="matrix(0.9854 0.17 -0.17 0.9854 21.0134 -2.739)" gradientUnits="userSpaceOnUse">
		<stop  offset="0" style="stop-color:#F8F1C7"/>
		<stop  offset="0.4847" style="stop-color:#F7BB17"/>
		<stop  offset="1" style="stop-color:#F07B25"/>
	</radialGradient>
	<path fill="url(#SVGID_13_)" d="M80.301,112.415c0,0-1.429-9.728-12.189-7.842C57.351,106.461,80.335,118.656,80.301,112.415z"/>
	<ellipse fill="#FFFFFF" cx="96.615" cy="134.521" rx="3.073" ry="1.106"/>
	<g>
		<radialGradient id="SVGID_14_" cx="97.106" cy="87.188" r="87.7968" gradientUnits="userSpaceOnUse">
			<stop  offset="0" style="stop-color:#F8F1C7"/>
			<stop  offset="0.4847" style="stop-color:#F7BB17"/>
			<stop  offset="1" style="stop-color:#F07B25"/>
		</radialGradient>
		<path opacity="0.5" fill="url(#SVGID_14_)" d="M75.225,71.697c0,0,0.489-34.423,30.242-49.913c0,0-1.969,18.688,7.375,35.407
			c6.885,12.294,6.841,15.403,6.841,15.403c1.455-0.362,3.116,0.76,4.214,1.723c-0.35-1.737-0.714-3.466-1.278-5.177
			c-0.875-2.665-1.915-5.268-3.033-7.839c-2.233-5.124-4.723-10.15-6.667-15.396c-1.806-4.87-3.289-10.027-3.149-15.271
			c0.131-4.806,1.557-9.252,4.112-13.259c-12.534,1.232-22.68,9.416-29.833,19.438C76.614,47.229,71.75,59.609,69.506,72.18
			c0.013,0,0.026,0,0.038,0c-0.033,0.117-0.057,0.232-0.084,0.349c1.099-0.662,2.399-0.994,3.683-0.996
			c0.174-0.002,0.233,0.145,0.207,0.283C73.952,71.706,74.575,71.662,75.225,71.697z"/>
		<radialGradient id="SVGID_15_" cx="97.1011" cy="87.1909" r="87.7847" gradientUnits="userSpaceOnUse">
			<stop  offset="0" style="stop-color:#F8F1C7"/>
			<stop  offset="0.4847" style="stop-color:#F7BB17"/>
			<stop  offset="1" style="stop-color:#F07B25"/>
		</radialGradient>
		<path fill="url(#SVGID_15_)" d="M70.842,72.707c-0.897,0.314-1.736,0.751-2.385,1.495c-0.429,0.493-1.086,1.328-1.437,2.129
			C67.925,74.903,69.237,73.574,70.842,72.707z"/>
		<radialGradient id="SVGID_16_" cx="97.1079" cy="87.1875" r="87.7979" gradientUnits="userSpaceOnUse">
			<stop  offset="0" style="stop-color:#F8F1C7"/>
			<stop  offset="0.4847" style="stop-color:#F7BB17"/>
			<stop  offset="1" style="stop-color:#F07B25"/>
		</radialGradient>
		<path opacity="0.5" fill="url(#SVGID_16_)" d="M177.039,83.789c-1.725-0.563-3.397-1.206-4.968-1.839
			c-5.151-2.078-10.059-4.697-15.119-6.98c-5.165-2.333-10.623-4.56-16.319-5.075c-2.665-0.243-5.379-0.17-7.984,0.488
			c-0.904,0.225-1.792,0.506-2.659,0.844c-0.512,0.103-1.014,0.231-1.506,0.396c-1.005,0.337-2.055,1.048-2.912,1.964
			c-0.044,0.013-0.092,0.029-0.132,0.036c0.001,0.015,0.002,0.027,0.007,0.043v0.003c0.004,0.015,0.005,0.032,0.009,0.048
			c-0.343,0.378-0.645,0.79-0.903,1.221c0.884,0.909,1.719,2.107,1.783,3.362c6.02-6.284,22.855-4.992,44.533,6.921
			c-1.474,21.637-20.406,30.489-38.848,30.735c-6.884,0.246-1.721,4.424,0.248,5.899c1.965,1.474,7.374,7.624,7.621,22.374
			c0.244,14.754,5.164,14.754,5.164,14.754s-35.407,9.099-52.864-21.391c-3.198,8.357-14.261,16.964-30.489,20.898
			c-14.863,3.604-13.638,11.123-13.328,12.363c0.031,0.111,0.05,0.178,0.05,0.178s-0.021-0.063-0.05-0.178
			c-0.811-2.913-11.38-42.604,11.114-55.392c5.161-2.95-7.869-4.181-15.735-25.571c-3.196-9.096-14.998-12.785-14.998-12.785
			s25.325-4.426,37.373,0.984c0.088-0.232,0.189-0.462,0.302-0.695c-0.409-0.652,1.032-2.921,1.306-3.3
			c0.181-0.25,0.385-0.475,0.599-0.688c-1.166,0.059-2.335,0.068-3.461,0.105c-2.567,0.081-5.137,0.107-7.706,0.09
			c-5.451-0.038-10.902-0.215-16.354-0.127c-10.557,0.167-21.037,1.349-30.583,6.028c0.476,0.057,0.981,0.207,1.492,0.409
			c1.369,0.025,2.946-0.255,3.708-0.308c2.424-0.169,4.646,0.081,7.03,0.597c5.349,1.156,10.536,3.894,14.522,7.658
			c4.343,4.102,7.516,9.025,10.507,14.141c0.992,1.698,2.077,3.436,3.406,4.925c0.941,1.268,2.106,2.398,3.127,3.34
			c1.767,1.631,3.879,3.02,6.161,3.888c-1.892-0.165-3.827-0.671-5.597-1.223c-9.261,8.316-13.174,20.844-13.557,33.014
			c-0.368,11.706,2.137,24.151,8.355,34.229c-0.111-1.152,0.08-2.404,0.222-3.412c0.336-2.401,0.973-4.724,2.312-6.77
			c2.857-4.361,6.961-7.384,11.771-9.281c9.563-3.771,21.583-6.568,27.375-15.864c0.293-0.807,0.593-1.611,0.925-2.404
			c0.046-0.111,0.11-0.205,0.186-0.283h0.001c0.077,0.279,0.179,0.551,0.283,0.815c0.085,0.059,0.14,0.168,0.119,0.307
			c0.009,0.021,0.017,0.041,0.023,0.062c0.248,0.614,0.489,1.231,0.737,1.849c0.076,0.012,0.149,0.047,0.209,0.12
			c1.958,2.305,3.872,4.445,6.289,6.296c2.307,1.768,4.74,3.386,7.196,4.941c4.944,3.13,10.177,5.986,15.879,7.463
			c6.226,1.613,12.949,1.714,19.326,1.032c2.845-0.308,5.625-0.861,8.439-1.351c1.851-0.323,3.684-0.717,5.263-1.71
			c-1.451-0.553-3.013-0.936-4.359-1.722c-3.833-2.241-6.129-6.025-7.451-10.177c-1.438-4.51-1.923-9.204-2.656-13.859
			c-0.894-5.661-3.356-10.89-4.941-16.357c-0.672-0.282-1.331-0.608-1.972-0.979c0.524,0.044,1.032,0.091,1.409,0.063
			c1.313-0.1,2.629-0.372,3.936-0.55c1.051-0.144,2.089-0.311,3.109-0.548c7.329-0.617,14.495-3.061,20.512-7.351
			c4.059-2.89,7.625-6.535,10.173-10.837C176.693,94.608,177.893,89.632,177.039,83.789z"/>
		<path fill="none" stroke="#000000" stroke-width="0.9056" stroke-linecap="round" stroke-linejoin="round" d="M119.673,73.035
			c1.419-0.124,3.161,1.436,4.091,2.353c1.052,1.037,1.29,2.35,2.027,3.54c-1.066-5.801-6.108-6.333-6.108-6.333
			C119.459,72.647,119.386,73.062,119.673,73.035z"/>
		<path fill="none" stroke="#000000" stroke-width="0.9056" stroke-linecap="round" stroke-linejoin="round" d="M66.593,77.542
			c0.109,0.042,0.194-0.057,0.188-0.16c-0.021-0.32,0.077-0.682,0.24-1.051c-0.223,0.353-0.421,0.708-0.592,1.066
			C66.467,77.46,66.516,77.513,66.593,77.542z"/>
		<path fill="none" stroke="#000000" stroke-width="0.9056" stroke-linecap="round" stroke-linejoin="round" d="M126.336,78.643
			c0.007-0.113,0.007-0.227-0.001-0.343c-0.192,0.203-0.375,0.411-0.544,0.627C125.979,79.232,126.323,78.864,126.336,78.643z"/>
		<path fill="none" stroke="#000000" stroke-width="0.9056" stroke-linecap="round" stroke-linejoin="round" d="M73.349,71.815
			c-0.896,0.164-1.734,0.475-2.507,0.892c0.755-0.266,1.551-0.446,2.311-0.652C73.262,72.027,73.33,71.923,73.349,71.815z"/>
		<radialGradient id="SVGID_17_" cx="97.6846" cy="86.4219" r="88.6608" gradientUnits="userSpaceOnUse">
			<stop  offset="0" style="stop-color:#F8F1C7"/>
			<stop  offset="0.4847" style="stop-color:#F7BB17"/>
			<stop  offset="1" style="stop-color:#F07B25"/>
		</radialGradient>
		<path fill="url(#SVGID_17_)" d="M48.373,170.855c0.029,0.114,0.05,0.178,0.05,0.178S48.404,170.967,48.373,170.855z"/>
	</g>
	<radialGradient id="SVGID_18_" cx="82.9688" cy="90.6309" r="14.9358" gradientUnits="userSpaceOnUse">
		<stop  offset="0" style="stop-color:#FFFFFF"/>
		<stop  offset="0.5276" style="stop-color:#F8E500"/>
		<stop  offset="1" style="stop-color:#F3C31B"/>
	</radialGradient>
	<path fill="url(#SVGID_18_)" d="M95.876,90.629c0,9.234-5.778,16.721-12.907,16.721c-7.13,0-12.909-7.487-12.909-16.721
		c0-9.231,5.779-16.718,12.909-16.718C90.099,73.911,95.876,81.398,95.876,90.629z"/>
	<radialGradient id="SVGID_19_" cx="108.0479" cy="87.126" r="14.936" gradientUnits="userSpaceOnUse">
		<stop  offset="0" style="stop-color:#FFFFFF"/>
		<stop  offset="0.5276" style="stop-color:#F8E500"/>
		<stop  offset="1" style="stop-color:#F3C31B"/>
	</radialGradient>
	<ellipse fill="url(#SVGID_19_)" cx="108.048" cy="87.126" rx="12.908" ry="16.719"/>
	<g>
		<path fill="#010101" d="M91.264,79.851c-1.889-2.666-4.837-4.365-9.081-4.2c-3.294,0.131-5.968,2.02-7.826,4.644
			c-3.84,5.419-4.381,14.589-0.797,20.245c0.646,1.019,1.399,1.942,2.248,2.739c-3.29-1.06-6.937-0.553-10.212,0.301
			c-0.302,0.078-0.33,0.709,0.027,0.631c3.224-0.718,6.559-1.002,9.743,0.041c1.528,0.499,2.848,1.466,3.946,2.619
			c1.398,1.47,1.913,3.31,2.82,5.057c0.299,0.582,1.083,0.083,0.998-0.462c-0.329-2.132-1.489-4.102-3.067-5.619
			c0.939,0.306,1.933,0.488,2.982,0.521c3.576,0.114,6.371-2.146,8.105-5.089C94.495,95.603,95.29,85.535,91.264,79.851z"/>
		<radialGradient id="SVGID_20_" cx="87.8862" cy="78.3369" r="23.4661" gradientUnits="userSpaceOnUse">
			<stop  offset="0" style="stop-color:#FFFFFF"/>
			<stop  offset="0.5215" style="stop-color:#FEFBDD"/>
			<stop  offset="1" style="stop-color:#FED4A3"/>
		</radialGradient>
		<path fill="url(#SVGID_20_)" d="M92.233,96.653c-0.088,0.333-0.188,0.663-0.298,0.993c-2.327,7.149-9.563,10.549-15.607,4.979
			c-6.018-5.546-5.926-18.673,0.351-24.053c4.498-3.856,9.577-1.933,12.755,2.389C92.825,85.572,93.708,91.211,92.233,96.653z"/>
		<path fill="#010101" d="M126.819,94.17c-2.789-1.505-6.348-0.579-8.951,1.13c0.094-0.251,0.184-0.502,0.267-0.752
			c1.861-5.544,1.323-11.692-1.709-16.665c-2.116-3.476-5.509-7.225-9.983-6.347c-6.265,1.231-9.707,8.458-10.083,14.125
			c-0.405,6.105,2.277,12.371,7.651,15.627c2.737,1.658,5.973,2.179,8.854,0.636c-0.419,1.49-0.485,3.074-0.066,4.686
			c0.153,0.599,0.96,0.239,0.853-0.282c-0.396-1.95-0.063-3.831,0.767-5.503c0.973-0.876,1.757-1.978,2.392-3.157
			c0.16-0.148,0.324-0.294,0.494-0.435c2.667-2.218,5.696-2.651,9.003-2.017C126.817,95.315,127.362,94.461,126.819,94.17z"/>
		<radialGradient id="SVGID_21_" cx="110.3848" cy="74.833" r="22.8726" gradientUnits="userSpaceOnUse">
			<stop  offset="0" style="stop-color:#FFFFFF"/>
			<stop  offset="0.5215" style="stop-color:#FEFBDD"/>
			<stop  offset="1" style="stop-color:#FED4A3"/>
		</radialGradient>
		<path fill="url(#SVGID_21_)" d="M106.855,101.275c-7.161-2.265-10.292-10.567-9.224-17.452c0.507-3.282,2.165-6.047,4.488-8.357
			c4.062-4.038,8.575-2.863,11.962,1.056c3.494,4.042,4.786,9.095,4.325,14.407c-0.145,1.655-0.567,3.337-1.244,4.865
			c-0.179,0.136-0.35,0.278-0.518,0.421c-1.396,1.205-2.544,2.68-3.272,4.313C111.602,101.675,109.411,102.08,106.855,101.275z"/>
		<path fill="#010101" d="M88.765,86.029c-0.799-1.431-1.947-2.669-3.457-3.587c-3.982-2.425-9.095-1.152-10.99,2.979
			c-1.548,3.373-1.757,7.671-0.502,11.162c0.842,2.335,2.363,4.565,4.589,5.77c5.804,3.137,10.197-2.726,11.381-7.742
			C90.489,91.629,90.165,88.538,88.765,86.029z"/>
		<radialGradient id="SVGID_22_" cx="81.5723" cy="92.2876" r="8.8009" gradientUnits="userSpaceOnUse">
			<stop  offset="0" style="stop-color:#0E62AF"/>
			<stop  offset="1" style="stop-color:#1C1740"/>
		</radialGradient>
		<path fill="url(#SVGID_22_)" d="M87.966,86.748c-0.711-1.278-1.733-2.385-3.072-3.208c-3.539-2.164-8.086-1.028-9.772,2.665
			c-1.376,3.016-1.56,6.857-0.444,9.978c0.747,2.087,2.1,4.084,4.078,5.157c5.159,2.807,9.063-2.435,10.117-6.919
			C89.5,91.754,89.21,88.99,87.966,86.748z"/>
		<path fill="#010101" d="M108.104,78.726c-10.1,0.436-9.672,21.716,0.514,21.372c2.541-0.085,5.53-2.919,6.582-5.489
			C117.499,89.008,114.637,78.444,108.104,78.726z"/>
		
			<radialGradient id="SVGID_23_" cx="107.0508" cy="82.9844" r="7.7022" gradientTransform="matrix(0.9986 -0.0534 0.0612 1.1454 -3.81 0.5335)" gradientUnits="userSpaceOnUse">
			<stop  offset="0" style="stop-color:#0E62AF"/>
			<stop  offset="1" style="stop-color:#1C1740"/>
		</radialGradient>
		<path fill="url(#SVGID_23_)" d="M110.486,99.188c-6.505,2.522-10.625-7.898-8.771-13.672c1.442-4.483,6.131-6.933,9.91-4.297
			c4.592,3.202,4.45,14.515-0.145,17.458C111.151,98.888,110.819,99.058,110.486,99.188z"/>
		
			<ellipse transform="matrix(0.9978 -0.0664 0.0664 0.9978 -5.7024 5.8129)" fill="#FFFFFF" cx="84.567" cy="88.663" rx="3.319" ry="4.795"/>
		<path fill="#FFFFFF" d="M113.625,85.438c0.412,2.459-0.451,4.699-1.936,5c-1.479,0.304-3.015-1.445-3.43-3.904
			c-0.414-2.458,0.452-4.697,1.935-4.999C111.675,81.229,113.213,82.977,113.625,85.438z"/>
	</g>
	
		<radialGradient id="SVGID_24_" cx="71.1021" cy="55.2349" r="129.2939" gradientTransform="matrix(0.8711 -0.4911 0.4911 0.8711 25.6397 12.2985)" gradientUnits="userSpaceOnUse">
		<stop  offset="0" style="stop-color:#FFFFFF"/>
		<stop  offset="0.5276" style="stop-color:#F8E500"/>
		<stop  offset="1" style="stop-color:#F3C31B"/>
	</radialGradient>
	<path fill="url(#SVGID_24_)" d="M88.967,54.473c-1.524,4.36-4.862,7.159-7.459,6.251c-2.596-0.905-3.465-5.178-1.942-9.538
		c1.524-4.359,4.863-7.157,7.459-6.251C89.622,45.842,90.49,50.113,88.967,54.473z"/>
	
		<radialGradient id="SVGID_25_" cx="58.9351" cy="94.7754" r="129.2833" gradientTransform="matrix(0.9958 -0.0919 0.0919 0.9958 82.1497 -75.2295)" gradientUnits="userSpaceOnUse">
		<stop  offset="0" style="stop-color:#FFFFFF"/>
		<stop  offset="0.5276" style="stop-color:#F8E500"/>
		<stop  offset="1" style="stop-color:#F3C31B"/>
	</radialGradient>
	<path fill="url(#SVGID_25_)" d="M162.63,105.18c-3.174,3.355-7.364,4.543-9.363,2.655c-1.997-1.89-1.044-6.143,2.13-9.496
		c3.174-3.356,7.364-4.543,9.363-2.656C166.757,97.575,165.803,101.825,162.63,105.18z"/>
	
		<radialGradient id="SVGID_26_" cx="12.4063" cy="3.5283" r="129.2884" gradientTransform="matrix(0.9591 0.283 -0.283 0.9591 178.6438 89.5223)" gradientUnits="userSpaceOnUse">
		<stop  offset="0" style="stop-color:#FFFFFF"/>
		<stop  offset="0.5276" style="stop-color:#F8E500"/>
		<stop  offset="1" style="stop-color:#F3C31B"/>
	</radialGradient>
	<path fill="url(#SVGID_26_)" d="M70.188,155.878c-4.19,1.941-8.524,1.496-9.679-0.998c-1.16-2.494,1.3-6.094,5.489-8.034
		c4.19-1.945,8.526-1.497,9.682,0.996C76.836,150.338,74.376,153.935,70.188,155.878z"/>
	
		<radialGradient id="SVGID_27_" cx="-32.4458" cy="57.2217" r="129.2809" gradientTransform="matrix(0.461 0.8874 -0.8874 0.461 271.834 172.3487)" gradientUnits="userSpaceOnUse">
		<stop  offset="0" style="stop-color:#FFFFFF"/>
		<stop  offset="0.5276" style="stop-color:#F8E500"/>
		<stop  offset="1" style="stop-color:#F3C31B"/>
	</radialGradient>
	<path fill="url(#SVGID_27_)" d="M114.974,157.48c-4.303-1.677-6.987-5.109-5.993-7.673c0.997-2.562,5.294-3.285,9.6-1.613
		c4.304,1.674,6.986,5.106,5.991,7.669C123.577,158.429,119.279,159.15,114.974,157.48z"/>
	
		<radialGradient id="SVGID_28_" cx="159.1748" cy="94.5176" r="11.6262" gradientTransform="matrix(0.9795 0.2016 -0.2016 0.9795 14.4762 -43.0832)" gradientUnits="userSpaceOnUse">
		<stop  offset="0" style="stop-color:#F8F1C7"/>
		<stop  offset="0.4847" style="stop-color:#F7BB17"/>
		<stop  offset="1" style="stop-color:#F07B25"/>
	</radialGradient>
	<path opacity="0.5" fill="url(#SVGID_28_)" d="M129.307,81.602c0,0,10.138-10.215,38.879,6.246
		C168.186,87.848,143.28,66.152,129.307,81.602z"/>
	
		<radialGradient id="SVGID_29_" cx="127.9824" cy="41.8623" r="11.7745" gradientTransform="matrix(0.9787 0.2054 -0.2054 0.9787 -7.45 -24.3114)" gradientUnits="userSpaceOnUse">
		<stop  offset="0" style="stop-color:#F8F1C7"/>
		<stop  offset="0.4847" style="stop-color:#F7BB17"/>
		<stop  offset="1" style="stop-color:#F07B25"/>
	</radialGradient>
	<path opacity="0.5" fill="url(#SVGID_29_)" d="M103.288,26.506c0,0-0.558,18.225,10.622,34.388
		C113.91,60.894,93.916,43.636,103.288,26.506z"/>
	
		<radialGradient id="SVGID_30_" cx="36.9219" cy="122.2021" r="12.6652" gradientTransform="matrix(0.9824 0.1865 -0.1865 0.9824 37.872 9.4058)" gradientUnits="userSpaceOnUse">
		<stop  offset="0" style="stop-color:#F8F1C7"/>
		<stop  offset="0.4847" style="stop-color:#F7BB17"/>
		<stop  offset="1" style="stop-color:#F07B25"/>
	</radialGradient>
	<path opacity="0.5" fill="url(#SVGID_30_)" d="M57.697,119.569c0,0-11.424,15.35-8.663,36.397
		C44.643,140.868,47.164,127.582,57.697,119.569z"/>
	
		<radialGradient id="SVGID_31_" cx="123.0625" cy="145.3867" r="9.8977" gradientTransform="matrix(0.9829 0.184 -0.184 0.9829 39.1177 -31.0615)" gradientUnits="userSpaceOnUse">
		<stop  offset="0" style="stop-color:#F8F1C7"/>
		<stop  offset="0.4847" style="stop-color:#F7BB17"/>
		<stop  offset="1" style="stop-color:#F07B25"/>
	</radialGradient>
	<path opacity="0.5" fill="url(#SVGID_31_)" d="M127.798,120.562c0,0,9.866,14.103,9.326,29.014
		C137.124,149.575,142.588,131.085,127.798,120.562z"/>
	
		<radialGradient id="SVGID_32_" cx="57.5024" cy="56.9766" r="6.5571" gradientTransform="matrix(0.9741 0.2262 -0.2262 0.9741 8.6529 10.3489)" gradientUnits="userSpaceOnUse">
		<stop  offset="0" style="stop-color:#F8F1C7"/>
		<stop  offset="0.4847" style="stop-color:#F7BB17"/>
		<stop  offset="1" style="stop-color:#F07B25"/>
	</radialGradient>
	<path opacity="0.5" fill="url(#SVGID_32_)" d="M61.367,81.75c0,0-6.039-4.432-22-3.089C44.183,74.226,57.688,75.847,61.367,81.75z"
		/>
	<g>
		<radialGradient id="SVGID_33_" cx="33.397" cy="95.7534" r="18.256" gradientUnits="userSpaceOnUse">
			<stop  offset="0" style="stop-color:#F8F1C7"/>
			<stop  offset="0.4847" style="stop-color:#F7BB17"/>
			<stop  offset="1" style="stop-color:#F07B25"/>
		</radialGradient>
		<path fill="url(#SVGID_33_)" d="M52.593,110.487c-2.148-1.526-3.801-3.556-5.151-5.807c-1.753-2.925-3.173-6.013-5.099-8.837
			c-1.77-2.597-3.736-5.135-6.042-7.282c-4.9-4.555-11.362-7.825-18.103-8.35c-1.8-0.141-3.595,0.208-5.392,0.199
			c1.298,0.668,2.514,1.525,3.236,1.988c4.369,2.794,7.922,6.483,11.457,10.247c4.509,4.804,9.004,9.938,14.672,13.419
			c3.265,2.001,6.859,3.646,10.493,4.844c0.438,0.147,0.879,0.287,1.323,0.421C53.503,111.08,53.033,110.801,52.593,110.487z
			 M31.457,94.318c-5.162-7.62-11.801-12.048-11.801-12.048s15.734,1.967,23.602,19.67C45.227,107.351,36.621,101.94,31.457,94.318z
			"/>
	</g>
	<g>
		<radialGradient id="SVGID_34_" cx="126.8281" cy="160.7324" r="23.7098" gradientUnits="userSpaceOnUse">
			<stop  offset="0" style="stop-color:#F8F1C7"/>
			<stop  offset="0.4847" style="stop-color:#F7BB17"/>
			<stop  offset="1" style="stop-color:#F07B25"/>
		</radialGradient>
		<path fill="url(#SVGID_34_)" d="M158.252,163.431c-0.278-0.482-0.851-0.821-1.417-1.08c-1.302,1.479-3.464,2.042-5.315,2.445
			c-2.88,0.627-5.801,1.16-8.732,1.467c-6.712,0.704-13.757,0.733-20.306-1.09c-5.972-1.662-11.448-4.578-16.617-7.946
			c-3.549-2.313-7.546-4.776-10.535-7.991c0.182,0.299,0.381,0.588,0.604,0.866c0.05,0.064,0.106,0.112,0.161,0.156
			c0.431,0.601,0.881,1.181,1.361,1.735c1.341,1.785,2.858,3.415,4.506,4.984c4.815,4.589,10.007,9.06,16.075,11.907
			c6.575,3.086,13.672,3.912,20.852,2.986c3.331-0.43,6.632-1.191,9.75-2.458c3.006-1.222,5.563-3.041,8.42-4.524
			c0.129-0.068,0.237-0.059,0.319-0.013C157.979,164.451,158.531,163.92,158.252,163.431z M113.825,163.411
			c0,0,11.556,6.146,26.307,4.424C154.887,166.116,129.807,177.914,113.825,163.411z"/>
	</g>
	<g>
		<radialGradient id="SVGID_35_" cx="164.2383" cy="102.2695" r="22.4817" gradientUnits="userSpaceOnUse">
			<stop  offset="0" style="stop-color:#F8F1C7"/>
			<stop  offset="0.4847" style="stop-color:#F7BB17"/>
			<stop  offset="1" style="stop-color:#F07B25"/>
		</radialGradient>
		<path fill="url(#SVGID_35_)" d="M190.375,84.956c-0.141-0.213-0.401-0.323-0.701-0.379c-0.096,0.237-0.289,0.446-0.559,0.503
			c-3.252,0.68-6.718,0.22-10.065-0.69c1.16,5.287-0.93,11.124-3.624,15.597c-2.659,4.416-6.199,8.276-10.384,11.293
			c-7.813,5.631-17.493,8.544-27.094,7.917c6.083,1.88,12.86,0.734,18.799-1.343c7.067-2.474,13.72-6.149,19.251-11.231
			c4.404-4.047,8.463-8.714,11.519-13.878c1.055-1.786,2.142-3.669,2.708-5.682C190.381,86.508,190.729,85.51,190.375,84.956z
			 M185.866,92.352c-5.656,12.786-21.145,22.62-13.769,14.751c10.572-11.31,9.835-17.458,9.835-17.458
			C183.407,84.975,188.57,85.958,185.866,92.352z"/>
	</g>
	<g>
		<radialGradient id="SVGID_36_" cx="69.873" cy="164.126" r="18.5629" gradientUnits="userSpaceOnUse">
			<stop  offset="0" style="stop-color:#F8F1C7"/>
			<stop  offset="0.4847" style="stop-color:#F7BB17"/>
			<stop  offset="1" style="stop-color:#F07B25"/>
		</radialGradient>
		<path fill="url(#SVGID_36_)" d="M82.297,153.754c-4.021,2.369-8.392,3.953-12.775,5.504c-4.686,1.657-9.581,3.193-13.376,6.548
			c-2.362,2.085-4.615,4.655-5.516,7.734c-0.596,2.036-1.281,4.865-0.901,7.19c0.021,0.029,0.042,0.065,0.063,0.098
			c0.344-4.117,1.822-7.983,4.998-10.837c3.461-3.109,7.855-4.887,12.192-6.417c4.753-1.676,9.727-3.057,14.14-5.546
			c2.031-1.144,3.967-2.495,5.51-4.26c1.654-1.89,2.642-4.079,3.496-6.345C87.977,150.023,85.037,152.141,82.297,153.754z
			 M76.453,159.292c-7.747,2.766-17.703,6.824-17.703,6.824C62.991,160.397,84.199,156.524,76.453,159.292z"/>
	</g>
</g>
</svg>
