<?xml version="1.0" encoding="utf-8"?>
<!-- Generator: Adobe Illustrator 14.0.0, SVG Export Plug-In . SVG Version: 6.00 Build 43363)  -->
<!DOCTYPE svg PUBLIC "-//W3C//DTD SVG 1.1//EN" "http://www.w3.org/Graphics/SVG/1.1/DTD/svg11.dtd">
<svg version="1.1" id="Layer_1" xmlns="http://www.w3.org/2000/svg" xmlns:xlink="http://www.w3.org/1999/xlink" x="0px" y="0px"
	 width="200px" height="200px" viewBox="0 0 200 200" enable-background="new 0 0 200 200" xml:space="preserve">
<g>
	<path fill="#0088C7" d="M70.678,118.135c4.215-4.789,15.438-4.492,22.29,7.33c2.15,5.318,1.267,13.281,3.449,16.777
		c3.142,5.033,13.027,7.027,10.911,9.377C87.322,161.102,61.41,131.617,70.678,118.135z"/>
	<path fill="#0087BF" d="M105.1,151.492c-10.743,1.625-26.371-7.828-29.243-16.939c3.764,2.375,13.249,2.875,17.531,2.277
		c1.188,9.904,10.886,12.254,12.109,12.742C108.156,150.635,105.1,151.492,105.1,151.492z"/>
	<path fill="#0088C7" d="M95.271,69.34c9.786-17.021,30.211-13.415,31.274-11.5c1.064,1.915-14.042,9.797-11.063,18.521
		L95.271,69.34z"/>
	<path fill="#0093D0" d="M126.545,57.84c-0.328-0.591-2.5-1.342-5.635-1.599c1.385,0.263,3.438,0.562,2.688,1.685
		c-1.362,1.304-8.287-1.718-15.427,3.157c-3.261,2.329-7.208,6.798-9.316,6.056c-0.62-0.207-1.329-0.028-0.995-1.559
		c-0.923,1.125-1.792,2.374-2.589,3.76l20.211,7.021C112.503,67.638,127.609,59.755,126.545,57.84z"/>
	<path fill="#0088C7" d="M35.247,99.125c-1.288,1.023-25.922,3.901-27.36,11.729c-3.835,16.139,34.412,7.479,40.947-2.014
		c9.891-4.219,18.374-3.754,23-0.15c19.007,12.391,38.021,8.557,46.011,6.479c48.575-16.458,46.978-46.337,50.652-50.172
		c3.675-3.834,17.416,10.227,28.762-0.798c-13.422,1.438-17.896-13.741-26.365-12.144c0.64-8.309-13.582-12.144-7.669-27.483
		c-20.932,16.777,1.277,36.751,1.277,36.751s-7.67,18.535-32.276,16.936c-8.629-1.118-30.199-12.143-51.61-11.504
		C37.793,68.671,36.534,98.101,35.247,99.125z"/>
	<path opacity="0.65" fill="#008DC7" d="M187.354,66.673c-6.986-1.864-9.184-5.714-13.938-5.813
		c-1.398-0.466-6.975,0.081-8.886-6.298s-5.59-8.851-6.987-13.508c-2.235-5.368,2.473-10.735,5.251-15.278
		c0.13-0.395,0.271-0.795,0.43-1.206c-20.932,16.777,1.277,36.751,1.277,36.751s-0.157,0.378-0.495,1.021
		c0.119,0.365,0.145,0.725,0.059,1.069c-4.191,22.824-27.481,40.059-51.702,35.866c-18.459-3.923-26.074-10.82-41.177-9.918
		c-12.763,0.762-13.442-3.059-18.716-1.883c-4.19,1.387-5.089,6.067-7.759,8.164c-3.093,2.429-9.173,2.947-7.942-1.512
		c-0.11,0.148-1.264,4.827-1.264,4.827s9.198-1.679,6.991,3.583c-1.294,3.084-5.124,2.795-6.521,2.795
		c-24.841,0-23.565,9.533-25.714,9.602c-2.149,0.066-2.283-1.406-2.638-2.092c-0.255,13.381,34.964,5.068,41.211-4.004
		c9.891-4.219,18.374-3.754,23-0.15c19.007,12.391,38.021,8.557,46.011,6.479c48.575-16.458,46.978-46.337,50.652-50.172
		c3.675-3.834,17.416,10.227,28.762-0.798c-0.225,0.023-0.439,0.031-0.659,0.046C193.992,66.371,191.015,67.798,187.354,66.673z"/>
	<path opacity="0.75" fill="#0080B6" d="M99.321,108.127c-27.358-10.825-42.978-5.867-43.934-6.823
		c-0.957-0.958-0.671-4.809-5.439-4.821c1.864,1.397-0.466,4.192-1.863,6.056c-3.769,5.256-16.457,3.965-25.772,6.76
		c-2.33,0.465-5.809,1.912-7.298,3.953c-1.942,1.941-0.966,4.529,0.761,6.416c10.737,1.301,28.758-4.582,33.058-10.828
		c9.891-4.219,18.374-3.754,23-0.15c19.007,12.391,38.021,8.557,46.011,6.479c12.304-4.168,21.386-9.199,28.151-14.448
		c-0.159-0.162-0.306-0.332-0.434-0.514C132.195,107.857,113.986,113.93,99.321,108.127z"/>
	<path fill="#720009" d="M19.712,119.928c0,0-3.745-0.326-2.605-3.42c3.582-10.094,31-5.395,33.768-15.815
		c1.303-2.769,4.866,4.419-0.995,7.349L19.712,119.928z"/>
	<path fill="#ACD9F5" d="M19.551,119.164c-1.758,11.023,16.937,2.688,23.009,4.127c6.072,1.438,33.741,20.479,67.615,12.65
		c43.087-8.154,53.744-30.494,57.23-48.074c2.525-12.736,2.654-22.973,2.05-23.51c-4.154-2.557-4.511,27.891-38.508,42.342
		c-31.384,13.342-56.25-9.717-79.732-0.158C46.103,108.137,22.433,110.688,19.551,119.164z"/>
	<g>
		<circle fill="#FFFFFF" cx="53.586" cy="89.808" r="3.694"/>
		<g>
			<circle fill="#743237" cx="54.066" cy="90.501" r="2.972"/>
			<circle fill="#743237" cx="53.975" cy="90.501" r="1.552"/>
			<circle fill="#FFFFFF" cx="53.254" cy="89.373" r="1.394"/>
			<circle fill="#FFFFFF" cx="55.477" cy="91.122" r="0.605"/>
		</g>
	</g>
	<path opacity="0.81" fill="#C7DFF4" d="M169.455,64.357c-4.154-2.557-4.511,27.891-38.508,42.342
		c-31.384,13.342-56.25-9.717-79.732-0.158c-5.113,1.596-28.783,4.146-31.665,12.623c-1.758,11.023,16.937,2.688,23.009,4.127
		c6.072,1.438,33.741,20.479,67.615,12.65c43.087-8.154,53.744-30.494,57.23-48.074c0.333-1.681,0.624-3.318,0.879-4.896
		C169.952,72.599,169.98,64.824,169.455,64.357z M52.141,122.846c-1.856-0.922-3.359-2.18-3.415-4.523
		c-2.529,3.504-7.348,2.713-11.178,3.467c-4.352,0.855-8.779,2.039-13.253,1.592c-2.794-0.465-2.737-4.156,0.501-6.402
		c3.99-2.77,9.98-3.496,14.645-4.285c4.232-0.717,10.782-3.414,10.194,3.418c1.699-7.879,10.887-6.229,16.616-5.656
		c10.012,1.002,18.364,4.711,28.274,7.053c3.237,9.023,11.588,13.197,17.084,15.523c-1.516-0.641-6.936,1.561-8.726,1.816
		c-2.771,0.396-5.571,0.531-8.368,0.576c-8.846,0.141-17.863-1.797-26.056-5.111C64.673,128.779,53.826,123.684,52.141,122.846z
		 M143.231,120.893c-6.966,4.889-14.656,8.348-22.729,10.512l-9.513-11.926c3.663-0.02,7.374-0.477,11.154-1.57
		c41.028-11.875,43.217-44.059,45.181-45.181C169.292,71.606,166.559,104.527,143.231,120.893z"/>
	<g>
		<path fill="#0088C7" d="M96.177,110.475c2.076-6.031,12.568-10.027,23.403-1.701c4.011,4.098,6.226,11.799,9.573,14.203
			c4.821,3.459,14.721,1.539,13.657,4.518C127.918,143.875,92.736,126.471,96.177,110.475z"/>
		<path opacity="0.65" fill="#008DC7" d="M129.153,122.977c-3.348-2.404-5.563-10.105-9.573-14.203
			c-10.835-8.326-21.327-4.33-23.403,1.701c-3.441,15.996,31.741,33.4,46.633,17.02
			C143.874,124.516,133.975,126.436,129.153,122.977z M140.701,128.227c-9.315,5.59-21.351,2.258-30.666-3.33
			c-5.124-3.262-11.645-8.85-9.316-14.441c2.795-6.52,11.645-4.656,17.234-1.396c4.191,2.33,5.59,8.385,8.385,12.111
			c3.238,5.09,12.686,5.143,14,5.129C143.203,126.271,140.701,128.227,140.701,128.227z"/>
	</g>
	<path opacity="0.83" fill="#0093D0" d="M100.77,70.126c-11.886-2.858-34.754-5.014-49.194,6.6
		c12.884-6.18,27.717-7.552,41.017-5.218c22.504,3.95,42.354,15.04,53.568,6.165C131.46,83.632,119.297,74.581,100.77,70.126z"/>
	<path opacity="0.57" fill="#0093D0" d="M140.516,127.59c-29.472,7.139-27.166-23.588-35.924-19.068
		C95.835,113.041,120.614,138.695,140.516,127.59z"/>
	<path opacity="0.83" fill="#0093D0" d="M9.258,109.146c-1.21,3.342,1.089,0.564,6.738-2.227c6.048-2.988,15.822-6.337,23.93-7.181
		C35.93,99.524,11.142,103.949,9.258,109.146z"/>
	<path opacity="0.83" fill="#0093D0" d="M49.265,87.013c4.657-5.534,8.627,0.004,8.977,0.457
		C58.312,84.282,51.297,79.477,49.265,87.013z"/>
	<path opacity="0.34" fill="#ACD9F5" d="M161.505,33.076c0.262,8.567,11.537,14.51,8.042,20.454
		C169.81,44.964,160.631,42.167,161.505,33.076z"/>
	<path opacity="0.34" fill="#ACD9F5" d="M170.334,53.355c5.506-2.536,14.945,13.287,22.376,11.363
		C183.707,64.806,175.84,48.461,170.334,53.355z"/>
</g>
</svg>
