<?xml version="1.0" encoding="utf-8"?>
<!-- Generator: Adobe Illustrator 14.0.0, SVG Export Plug-In . SVG Version: 6.00 Build 43363)  -->
<!DOCTYPE svg PUBLIC "-//W3C//DTD SVG 1.1//EN" "http://www.w3.org/Graphics/SVG/1.1/DTD/svg11.dtd">
<svg version="1.1" id="Layer_1" xmlns="http://www.w3.org/2000/svg" xmlns:xlink="http://www.w3.org/1999/xlink" x="0px" y="0px"
	 width="200px" height="200px" viewBox="0 0 200 200" enable-background="new 0 0 200 200" xml:space="preserve">
<g>
	<g opacity="0.31">
		<path fill="#231F20" d="M190.275,108.043l-54.527,25.187l13.287,9.38c-5.195,3.638-10.849,6.414-16.785,8.241
			c-0.903-1.916-2.033-3.818-3.382-5.69l-2.992-4.153l-5.026,0.959c-0.937,0.18-1.927,0.308-2.947,0.39l1.504-19.807l17.884-37.261
			c3.496,0.12,7.072-0.121,10.695-0.727c0.605-0.102,1.196-0.21,1.769-0.325l4.273-0.853l6.636-16.673l-10.962-4.356
			c5.869-2.477,10.581-7.137,12.931-13.042c4.205-10.589,0.266-22.591-9.588-29.192c-1.542-1.036-3.209-1.912-4.945-2.601
			c-6.174-2.459-12.911-2.501-18.972-0.119c-6.236,2.453-11.01,7.158-13.431,13.253c-2.345,5.902-2.121,12.525,0.448,18.359
			l-11.562-4.601l-6.425,16.153l2.306,3.495c2.615,3.97,5.592,7.423,8.885,10.322l-12.285,38.41l-13.04,16.087
			c-0.686-0.756-1.316-1.527-1.877-2.304l-2.993-4.151l-5.024,0.963c-2.048,0.393-3.985,0.928-5.796,1.599
			c-2.887-5.238-4.978-10.934-6.213-16.908l16.211,2.32L55.989,54.652l-37.106,47.224l17.71,2.536
			c-5.351,30.063,6.643,60.777,30.927,77.055c4.062,2.721,8.44,5.025,13.01,6.839c32.694,13.004,69.708-0.218,89.583-30.819
			l14.703,10.38L190.275,108.043z"/>
	</g>
	<g>
		<path fill="#FFFFFF" d="M185.198,102.782l-54.531,25.187l13.286,9.378c-5.195,3.64-10.851,6.415-16.785,8.244
			c-0.901-1.92-2.03-3.819-3.381-5.691l-2.993-4.153l-5.025,0.959c-0.941,0.18-1.927,0.308-2.946,0.388l1.502-19.803l17.885-37.261
			c3.498,0.119,7.074-0.124,10.694-0.728c0.606-0.104,1.198-0.211,1.766-0.327l4.282-0.853l6.632-16.672l-10.966-4.359
			c5.868-2.474,10.583-7.134,12.933-13.04c4.206-10.587,0.264-22.589-9.584-29.192c-1.545-1.035-3.212-1.91-4.949-2.603
			c-6.176-2.457-12.912-2.5-18.968-0.117c-6.238,2.454-11.012,7.158-13.437,13.25c-2.347,5.906-2.119,12.529,0.447,18.359
			l-11.555-4.599l-6.427,16.156l2.305,3.495c2.619,3.965,5.593,7.421,8.888,10.324l-12.282,38.405l-13.045,16.09
			c-0.688-0.759-1.316-1.527-1.876-2.307l-2.993-4.147l-5.024,0.958c-2.049,0.396-3.986,0.931-5.799,1.601
			c-2.884-5.235-4.976-10.933-6.212-16.912l16.211,2.326L50.908,49.389L13.8,96.617l17.711,2.536
			c-5.352,30.061,6.642,60.776,30.928,77.051c4.062,2.721,8.438,5.024,13.011,6.843c32.695,13.002,69.705-0.226,89.577-30.821
			l14.707,10.383L185.198,102.782z"/>
	</g>
	<g>
		<g>
			<defs>
				<path id="SVGID_1_" d="M172.713,147.831l1.464-16.055l1.469-16.063l-14.636,6.762l-14.636,6.759l10.501,7.417
					c-9.997,9.61-22.395,15.984-35.457,18.315c-0.394-3.487-1.936-7.105-4.433-10.57c-3.939,0.755-8.396,0.838-13.087,0.198
					l1.032-13.649l1.215-15.962l5.455-11.37l15.504-32.297c5.43,0.879,10.454,0.496,14.177-0.125
					c0.522-0.091,1.037-0.184,1.531-0.284l2.053-5.156l-12.666-5.037l4.826-10.062c5.656-0.8,10.617-4.334,12.774-9.764
					c3.293-8.283-1.196-17.851-10.041-21.365c-8.833-3.515-18.673,0.353-21.97,8.639c-2.158,5.427-0.974,11.403,2.578,15.87
					l-3.4,10.627l-13.26-5.275l-1.908,4.798c3.28,4.98,7.138,8.926,11.547,11.821L102.48,99.985l-3.598,11.237l-10.615,13.097
					l-8.623,10.63c-3.852-2.755-7.027-5.881-9.375-9.129c-3.994,0.762-7.448,2.221-10.087,4.311
					C52.596,119.6,48.15,106.729,47.49,93.183l12.847,1.841L54.34,80.052l-6-14.963l-9.964,12.678l-9.96,12.68l12.636,1.81
					c-10.228,34.313,5.457,70.559,37.074,83.136c31.624,12.573,67.925-3.015,84.056-34.998L172.713,147.831z M125.363,31.175
					c1.741-4.365,6.924-6.401,11.576-4.551c4.652,1.853,7.022,6.89,5.287,11.253c-1.738,4.369-6.921,6.407-11.575,4.554
					C125.998,40.578,123.627,35.537,125.363,31.175z"/>
			</defs>
			<clipPath id="SVGID_2_">
				<use xlink:href="#SVGID_1_"  overflow="visible"/>
			</clipPath>
			<g clip-path="url(#SVGID_2_)">
				
					<rect x="202.891" y="80.429" transform="matrix(-0.5662 -0.8242 0.8242 -0.5662 291.5266 422.1946)" fill="none" width="107.924" height="107.921"/>
				
					<rect x="202.892" y="80.427" transform="matrix(0.5662 0.8242 -0.8242 0.5662 222.1798 -153.4171)" fill="#D4202A" width="107.924" height="107.923"/>
				
					<rect x="225.038" y="38.344" transform="matrix(0.5662 0.8243 -0.8243 0.5662 174.9766 -147.8465)" fill="#EC2227" width="5.811" height="107.923"/>
				
					<rect x="231.841" y="48.245" transform="matrix(0.5663 0.8242 -0.8242 0.5663 186.0551 -149.1519)" fill="#EC2227" width="5.812" height="107.925"/>
				
					<rect x="238.643" y="58.148" transform="matrix(0.566 0.8244 -0.8244 0.566 197.2505 -150.4771)" fill="#EC2227" width="5.809" height="107.922"/>
				
					<rect x="245.445" y="68.048" transform="matrix(0.566 0.8244 -0.8244 0.566 208.3759 -151.7891)" fill="#EC2227" width="5.808" height="107.924"/>
				
					<rect x="252.247" y="77.949" transform="matrix(0.5662 0.8243 -0.8243 0.5662 219.4287 -153.0921)" fill="#EC2227" width="5.811" height="107.927"/>
				
					<rect x="259.048" y="87.851" transform="matrix(0.5661 0.8243 -0.8243 0.5661 230.5689 -154.4054)" fill="#EC2227" width="5.812" height="107.927"/>
				
					<rect x="265.853" y="97.751" transform="matrix(0.5662 0.8242 -0.8242 0.5662 241.6236 -155.7141)" fill="#EC2227" width="5.81" height="107.924"/>
				
					<rect x="272.653" y="107.653" transform="matrix(0.5664 0.8241 -0.8241 0.5664 252.6739 -157.0184)" fill="#EC2227" width="5.809" height="107.925"/>
				
					<rect x="279.456" y="117.556" transform="matrix(0.5665 0.8241 -0.8241 0.5665 263.7389 -158.3289)" fill="#EC2227" width="5.809" height="107.924"/>
			</g>
			<g clip-path="url(#SVGID_2_)">
				
					<rect x="113.937" y="141.535" transform="matrix(-0.5662 -0.8242 0.8242 -0.5662 101.8292 444.584)" fill="none" width="107.923" height="107.926"/>
				
					<rect x="113.936" y="141.536" transform="matrix(0.5662 0.8242 -0.8242 0.5662 233.9677 -53.5879)" fill="#D4202A" width="107.923" height="107.924"/>
				
					<rect x="136.083" y="99.452" transform="matrix(0.5661 0.8244 -0.8244 0.5661 186.781 -48.0031)" fill="#EC2227" width="5.807" height="107.924"/>
				
					<rect x="142.885" y="109.353" transform="matrix(0.5663 0.8242 -0.8242 0.5663 197.822 -49.332)" fill="#EC2227" width="5.808" height="107.924"/>
				
					<rect x="149.688" y="119.256" transform="matrix(0.5662 0.8242 -0.8242 0.5662 208.9608 -50.6384)" fill="#EC2227" width="5.81" height="107.924"/>
				
					<rect x="156.488" y="129.157" transform="matrix(0.5662 0.8243 -0.8243 0.5662 220.0939 -51.9429)" fill="#EC2227" width="5.811" height="107.924"/>
				
					<rect x="163.291" y="139.058" transform="matrix(0.5665 0.8241 -0.8241 0.5665 231.1116 -53.2798)" fill="#EC2227" width="5.808" height="107.922"/>
				<polygon fill="#EC2227" points="130.163,235.868 126.873,231.084 215.829,169.974 219.119,174.765 				"/>
				
					<rect x="176.896" y="158.858" transform="matrix(0.5666 0.824 -0.824 0.5666 253.2916 -55.916)" fill="#EC2227" width="5.808" height="107.929"/>
				
					<rect x="183.697" y="168.763" transform="matrix(0.5665 0.8241 -0.8241 0.5665 264.4376 -57.2177)" fill="#EC2227" width="5.808" height="107.922"/>
				
					<rect x="190.498" y="178.667" transform="matrix(0.5661 0.8243 -0.8243 0.5661 275.6872 -58.4908)" fill="#EC2227" width="5.812" height="107.923"/>
			</g>
			<g clip-path="url(#SVGID_2_)">
				
					<rect x="24.979" y="202.644" transform="matrix(-0.5662 -0.8243 0.8243 -0.5662 -87.8709 466.9698)" fill="none" width="107.924" height="107.926"/>
				
					<rect x="24.979" y="202.646" transform="matrix(0.5662 0.8243 -0.8243 0.5662 245.7539 46.2446)" fill="#D4202A" width="107.924" height="107.924"/>
				
					<rect x="47.126" y="160.562" transform="matrix(0.5661 0.8243 -0.8243 0.5661 198.5427 51.8341)" fill="#EC2227" width="5.81" height="107.924"/>
				
					<rect x="53.929" y="170.465" transform="matrix(0.5661 0.8243 -0.8243 0.5661 209.6639 50.5304)" fill="#EC2227" width="5.808" height="107.923"/>
				
					<rect x="60.731" y="180.362" transform="matrix(0.5667 0.8239 -0.8239 0.5667 220.6382 49.1013)" fill="#EC2227" width="5.809" height="107.927"/>
				
					<rect x="67.53" y="190.266" transform="matrix(0.5657 0.8246 -0.8246 0.5657 231.9808 47.9859)" fill="#EC2227" width="5.809" height="107.924"/>
				<polygon fill="#EC2227" points="34.405,287.082 31.114,282.29 120.073,221.181 123.363,225.967 				"/>
				<polygon fill="#EC2227" points="41.207,296.982 37.917,292.189 126.873,231.084 130.163,235.868 				"/>
				<polygon fill="#EC2227" points="48.009,306.883 44.718,302.091 133.674,240.985 136.965,245.771 				"/>
				<polygon fill="#EC2227" points="54.812,316.782 51.519,311.997 140.479,250.886 143.769,255.672 				"/>
				
					<rect x="101.541" y="239.775" transform="matrix(0.5661 0.8243 -0.8243 0.5661 287.4442 41.3432)" fill="#EC2227" width="5.812" height="107.924"/>
			</g>
			<g clip-path="url(#SVGID_2_)">
				
					<rect x="141.781" y="-8.528" transform="matrix(-0.5662 -0.8242 0.8242 -0.5662 269.1331 232.4978)" fill="none" width="107.924" height="107.923"/>
				
					<rect x="141.782" y="-8.529" transform="matrix(0.5662 0.8242 -0.8242 0.5662 122.3529 -141.6323)" fill="#D4202A" width="107.924" height="107.924"/>
				
					<rect x="163.929" y="-50.613" transform="matrix(0.5663 0.8242 -0.8242 0.5663 75.1236 -136.0559)" fill="#EC2227" width="5.807" height="107.924"/>
				
					<rect x="170.732" y="-40.714" transform="matrix(0.5665 0.824 -0.824 0.5665 86.1868 -137.3407)" fill="#EC2227" width="5.807" height="107.928"/>
				
					<rect x="177.532" y="-30.81" transform="matrix(0.5661 0.8244 -0.8244 0.5661 97.3853 -138.6994)" fill="#EC2227" width="5.809" height="107.923"/>
				
					<rect x="184.335" y="-20.909" transform="matrix(0.5664 0.8241 -0.8241 0.5664 108.4213 -139.9761)" fill="#EC2227" width="5.812" height="107.924"/>
				
					<rect x="191.137" y="-11.008" transform="matrix(0.566 0.8244 -0.8244 0.566 119.63 -141.3282)" fill="#EC2227" width="5.808" height="107.923"/>
				
					<rect x="197.94" y="-1.107" transform="matrix(0.5662 0.8243 -0.8243 0.5662 130.6993 -142.6217)" fill="#EC2227" width="5.806" height="107.926"/>
				
					<rect x="204.741" y="8.793" transform="matrix(0.5666 0.824 -0.824 0.5666 141.6993 -143.8982)" fill="#EC2227" width="5.812" height="107.929"/>
				<polygon fill="#EC2227" points="171.616,105.607 168.323,100.82 257.282,39.71 260.569,44.498 				"/>
				
					<rect x="218.345" y="28.598" transform="matrix(0.5666 0.824 -0.824 0.5666 163.9149 -146.5258)" fill="#EC2227" width="5.813" height="107.929"/>
			</g>
			<g clip-path="url(#SVGID_2_)">
				
					<rect x="52.827" y="52.582" transform="matrix(-0.5662 -0.8242 0.8242 -0.5662 79.4391 254.8922)" fill="none" width="107.921" height="107.924"/>
				
					<rect x="52.827" y="52.581" transform="matrix(0.5662 0.8242 -0.8242 0.5662 134.1358 -41.8047)" fill="#D4202A" width="107.921" height="107.924"/>
				
					<rect x="74.973" y="10.497" transform="matrix(0.5663 0.8242 -0.8242 0.5663 86.9083 -36.2292)" fill="#EC2227" width="5.807" height="107.924"/>
				
					<rect x="81.774" y="20.401" transform="matrix(0.5662 0.8243 -0.8243 0.5662 98.0312 -37.5387)" fill="#EC2227" width="5.808" height="107.922"/>
				
					<rect x="88.576" y="30.298" transform="matrix(0.5665 0.8241 -0.8241 0.5665 109.0948 -38.8587)" fill="#EC2227" width="5.81" height="107.926"/>
				
					<rect x="95.377" y="40.2" transform="matrix(0.566 0.8244 -0.8244 0.566 120.2836 -40.1579)" fill="#EC2227" width="5.81" height="107.924"/>
				<polygon fill="#EC2227" points="62.253,137.016 58.96,132.226 147.919,71.114 151.206,75.902 				"/>
				
					<rect x="108.982" y="60.006" transform="matrix(0.566 0.8244 -0.8244 0.566 142.5153 -42.778)" fill="#EC2227" width="5.81" height="107.923"/>
				
					<rect x="115.782" y="69.907" transform="matrix(0.5663 0.8242 -0.8242 0.5663 153.5596 -44.1019)" fill="#EC2227" width="5.812" height="107.924"/>
				
					<rect x="122.585" y="79.808" transform="matrix(0.5662 0.8243 -0.8243 0.5662 164.7071 -45.407)" fill="#EC2227" width="5.811" height="107.923"/>
				
					<rect x="129.386" y="89.711" transform="matrix(0.5661 0.8243 -0.8243 0.5661 175.8335 -46.7141)" fill="#EC2227" width="5.811" height="107.922"/>
			</g>
			<g clip-path="url(#SVGID_2_)">
				
					<rect x="-36.129" y="113.691" transform="matrix(-0.5662 -0.8242 0.8242 -0.5662 -110.2568 277.2841)" fill="none" width="107.921" height="107.924"/>
				
					<rect x="-36.129" y="113.691" transform="matrix(0.5662 0.8242 -0.8242 0.5662 145.9202 58.0224)" fill="#D4202A" width="107.921" height="107.925"/>
				
					<rect x="-13.982" y="71.607" transform="matrix(0.5663 0.8242 -0.8242 0.5663 98.6872 63.5871)" fill="#EC2227" width="5.806" height="107.925"/>
				
					<rect x="-7.182" y="81.509" transform="matrix(0.5664 0.8241 -0.8241 0.5664 109.7884 62.2598)" fill="#EC2227" width="5.81" height="107.925"/>
				
					<rect x="-0.38" y="91.409" transform="matrix(0.5666 0.824 -0.824 0.5666 120.8801 60.9256)" fill="#EC2227" width="5.808" height="107.925"/>
				
					<rect x="6.422" y="101.309" transform="matrix(0.5662 0.8243 -0.8243 0.5662 132.0371 59.6771)" fill="#EC2227" width="5.809" height="107.925"/>
				
					<rect x="13.224" y="111.211" transform="matrix(0.5666 0.824 -0.824 0.5666 143.0967 58.304)" fill="#EC2227" width="5.807" height="107.924"/>
				
					<rect x="20.025" y="121.113" transform="matrix(0.5663 0.8242 -0.8242 0.5663 154.2426 57.031)" fill="#EC2227" width="5.811" height="107.926"/>
				
					<rect x="26.827" y="131.016" transform="matrix(0.5664 0.8241 -0.8241 0.5664 165.3402 55.7067)" fill="#EC2227" width="5.81" height="107.923"/>
				
					<rect x="33.629" y="140.916" transform="matrix(0.5659 0.8245 -0.8245 0.5659 176.5307 54.4757)" fill="#EC2227" width="5.809" height="107.924"/>
				
					<rect x="40.431" y="150.819" transform="matrix(0.5659 0.8245 -0.8245 0.5659 187.6559 53.1729)" fill="#EC2227" width="5.811" height="107.922"/>
			</g>
			<g clip-path="url(#SVGID_2_)">
				
					<rect x="80.671" y="-97.484" transform="matrix(-0.5662 -0.8242 0.8242 -0.5662 246.7395 42.8057)" fill="none" width="107.924" height="107.924"/>
				
					<rect x="80.672" y="-97.486" transform="matrix(0.5662 0.8242 -0.8242 0.5662 22.5265 -129.851)" fill="#D4202A" width="107.924" height="107.926"/>
				
					<rect x="102.819" y="-139.57" transform="matrix(0.5663 0.8242 -0.8242 0.5663 -24.7053 -124.2648)" fill="#EC2227" width="5.809" height="107.926"/>
				
					<rect x="109.621" y="-129.667" transform="matrix(0.566 0.8244 -0.8244 0.566 -13.5739 -125.6263)" fill="#EC2227" width="5.81" height="107.923"/>
				
					<rect x="116.423" y="-119.765" transform="matrix(0.5664 0.8241 -0.8241 0.5664 -2.4901 -126.8724)" fill="#EC2227" width="5.811" height="107.924"/>
				
					<rect x="123.226" y="-109.865" transform="matrix(0.5665 0.824 -0.824 0.5665 8.6077 -128.1688)" fill="#EC2227" width="5.81" height="107.926"/>
				
					<rect x="130.028" y="-99.963" transform="matrix(0.5664 0.8241 -0.8241 0.5664 19.7282 -129.4993)" fill="#EC2227" width="5.809" height="107.924"/>
				
					<rect x="136.829" y="-90.062" transform="matrix(0.5663 0.8242 -0.8242 0.5663 30.8468 -130.8215)" fill="#EC2227" width="5.809" height="107.926"/>
				
					<rect x="143.63" y="-80.161" transform="matrix(0.5664 0.8241 -0.8241 0.5664 41.945 -132.1223)" fill="#EC2227" width="5.811" height="107.926"/>
				
					<rect x="150.433" y="-70.26" transform="matrix(0.5664 0.8242 -0.8242 0.5664 53.0615 -133.4418)" fill="#EC2227" width="5.809" height="107.924"/>
				
					<rect x="157.235" y="-60.356" transform="matrix(0.5662 0.8243 -0.8243 0.5662 64.1971 -134.7719)" fill="#EC2227" width="5.811" height="107.923"/>
			</g>
			<g clip-path="url(#SVGID_2_)">
				
					<rect x="-8.287" y="-36.374" transform="matrix(-0.5662 -0.8242 0.8242 -0.5662 57.0436 65.195)" fill="none" width="107.926" height="107.924"/>
				
					<rect x="-8.285" y="-36.375" transform="matrix(0.5662 0.8242 -0.8242 0.5662 34.3098 -30.0204)" fill="#D4202A" width="107.926" height="107.926"/>
				
					<rect x="13.863" y="-78.46" transform="matrix(0.5666 0.824 -0.824 0.5666 -12.9186 -24.4332)" fill="#EC2227" width="5.808" height="107.926"/>
				
					<rect x="20.665" y="-68.558" transform="matrix(0.5663 0.8242 -0.8242 0.5663 -1.8072 -25.7561)" fill="#EC2227" width="5.809" height="107.926"/>
				
					<rect x="27.467" y="-58.656" transform="matrix(0.5667 0.8239 -0.8239 0.5667 9.2939 -27.0592)" fill="#EC2227" width="5.811" height="107.925"/>
				
					<rect x="34.269" y="-48.755" transform="matrix(0.5664 0.8241 -0.8241 0.5664 20.4096 -28.3774)" fill="#EC2227" width="5.809" height="107.925"/>
				
					<rect x="41.071" y="-38.852" transform="matrix(0.5658 0.8245 -0.8245 0.5658 31.5497 -29.6983)" fill="#EC2227" width="5.808" height="107.922"/>
				
					<rect x="47.871" y="-28.95" transform="matrix(0.5662 0.8243 -0.8243 0.5662 42.6436 -31.004)" fill="#EC2227" width="5.812" height="107.922"/>
				
					<rect x="54.673" y="-19.051" transform="matrix(0.5663 0.8242 -0.8242 0.5663 53.7436 -32.3148)" fill="#EC2227" width="5.809" height="107.924"/>
				
					<rect x="61.476" y="-9.149" transform="matrix(0.5661 0.8243 -0.8243 0.5661 64.8749 -33.6268)" fill="#EC2227" width="5.809" height="107.925"/>
				
					<rect x="68.279" y="0.752" transform="matrix(0.5662 0.8243 -0.8243 0.5662 75.9761 -34.9396)" fill="#EC2227" width="5.81" height="107.925"/>
			</g>
			<g clip-path="url(#SVGID_2_)">
				
					<rect x="-97.243" y="24.735" transform="matrix(-0.5662 -0.8242 0.8242 -0.5662 -132.6512 87.5858)" fill="none" width="107.928" height="107.925"/>
				
					<rect x="-97.243" y="24.737" transform="matrix(0.5662 0.8242 -0.8242 0.5662 46.0939 69.81)" fill="#D4202A" width="107.928" height="107.923"/>
				
					<rect x="-75.095" y="-17.348" transform="matrix(0.5664 0.8241 -0.8241 0.5664 -1.1273 75.3696)" fill="#EC2227" width="5.81" height="107.923"/>
				
					<rect x="-68.293" y="-7.445" transform="matrix(0.5662 0.8243 -0.8243 0.5662 9.9759 74.0785)" fill="#EC2227" width="5.813" height="107.923"/>
				
					<rect x="-61.49" y="2.456" transform="matrix(0.5661 0.8243 -0.8243 0.5661 21.0867 72.7722)" fill="#EC2227" width="5.809" height="107.922"/>
				
					<rect x="-54.688" y="12.356" transform="matrix(0.5662 0.8243 -0.8243 0.5662 32.1997 71.4557)" fill="#EC2227" width="5.808" height="107.924"/>
				<polygon fill="#EC2227" points="-87.814,109.17 -91.103,104.379 -2.146,43.269 1.141,48.058 				"/>
				
					<rect x="-41.085" y="32.157" transform="matrix(0.5663 0.8242 -0.8242 0.5663 54.4219 68.8197)" fill="#EC2227" width="5.812" height="107.925"/>
				
					<rect x="-34.282" y="42.061" transform="matrix(0.5659 0.8244 -0.8244 0.5659 65.5462 67.5491)" fill="#EC2227" width="5.81" height="107.923"/>
				
					<rect x="-27.481" y="51.962" transform="matrix(0.5661 0.8244 -0.8244 0.5661 76.656 66.2253)" fill="#EC2227" width="5.811" height="107.924"/>
				
					<rect x="-20.679" y="61.863" transform="matrix(0.5661 0.8243 -0.8243 0.5661 87.7657 64.904)" fill="#EC2227" width="5.813" height="107.923"/>
			</g>
			<g clip-path="url(#SVGID_2_)">
				
					<rect x="141.781" y="-8.528" transform="matrix(-0.5662 -0.8242 0.8242 -0.5662 269.1331 232.4978)" fill="none" width="107.924" height="107.923"/>
				
					<rect x="141.782" y="-8.529" transform="matrix(0.5662 0.8242 -0.8242 0.5662 122.3529 -141.6323)" fill="#D4202A" width="107.924" height="107.924"/>
				
					<rect x="163.929" y="-50.613" transform="matrix(0.5663 0.8242 -0.8242 0.5663 75.1236 -136.0559)" fill="#EC2227" width="5.807" height="107.924"/>
				
					<rect x="170.732" y="-40.714" transform="matrix(0.5665 0.824 -0.824 0.5665 86.1868 -137.3407)" fill="#EC2227" width="5.807" height="107.928"/>
				
					<rect x="177.532" y="-30.81" transform="matrix(0.5661 0.8244 -0.8244 0.5661 97.3853 -138.6994)" fill="#EC2227" width="5.809" height="107.923"/>
				
					<rect x="184.335" y="-20.909" transform="matrix(0.5664 0.8241 -0.8241 0.5664 108.4213 -139.9761)" fill="#EC2227" width="5.812" height="107.924"/>
				
					<rect x="191.137" y="-11.008" transform="matrix(0.566 0.8244 -0.8244 0.566 119.63 -141.3282)" fill="#EC2227" width="5.808" height="107.923"/>
				
					<rect x="197.94" y="-1.107" transform="matrix(0.5662 0.8243 -0.8243 0.5662 130.6993 -142.6217)" fill="#EC2227" width="5.806" height="107.926"/>
				
					<rect x="204.741" y="8.793" transform="matrix(0.5666 0.824 -0.824 0.5666 141.6993 -143.8982)" fill="#EC2227" width="5.812" height="107.929"/>
				<polygon fill="#EC2227" points="171.616,105.607 168.323,100.82 257.282,39.71 260.569,44.498 				"/>
				
					<rect x="218.345" y="28.598" transform="matrix(0.5666 0.824 -0.824 0.5666 163.9149 -146.5258)" fill="#EC2227" width="5.813" height="107.929"/>
			</g>
			<g clip-path="url(#SVGID_2_)">
				
					<rect x="52.827" y="52.582" transform="matrix(-0.5662 -0.8242 0.8242 -0.5662 79.4391 254.8922)" fill="none" width="107.921" height="107.924"/>
				
					<rect x="52.827" y="52.581" transform="matrix(0.5662 0.8242 -0.8242 0.5662 134.1358 -41.8047)" fill="#D4202A" width="107.921" height="107.924"/>
				
					<rect x="74.973" y="10.497" transform="matrix(0.5663 0.8242 -0.8242 0.5663 86.9083 -36.2292)" fill="#EC2227" width="5.807" height="107.924"/>
				
					<rect x="81.774" y="20.401" transform="matrix(0.5662 0.8243 -0.8243 0.5662 98.0312 -37.5387)" fill="#EC2227" width="5.808" height="107.922"/>
				
					<rect x="88.576" y="30.298" transform="matrix(0.5665 0.8241 -0.8241 0.5665 109.0948 -38.8587)" fill="#EC2227" width="5.81" height="107.926"/>
				
					<rect x="95.377" y="40.2" transform="matrix(0.566 0.8244 -0.8244 0.566 120.2836 -40.1579)" fill="#EC2227" width="5.81" height="107.924"/>
				<polygon fill="#EC2227" points="62.253,137.016 58.96,132.226 147.919,71.114 151.206,75.902 				"/>
				
					<rect x="108.982" y="60.006" transform="matrix(0.566 0.8244 -0.8244 0.566 142.5153 -42.778)" fill="#EC2227" width="5.81" height="107.923"/>
				
					<rect x="115.782" y="69.907" transform="matrix(0.5663 0.8242 -0.8242 0.5663 153.5596 -44.1019)" fill="#EC2227" width="5.812" height="107.924"/>
				
					<rect x="122.585" y="79.808" transform="matrix(0.5662 0.8243 -0.8243 0.5662 164.7071 -45.407)" fill="#EC2227" width="5.811" height="107.923"/>
				
					<rect x="129.386" y="89.711" transform="matrix(0.5661 0.8243 -0.8243 0.5661 175.8335 -46.7141)" fill="#EC2227" width="5.811" height="107.922"/>
			</g>
			<g clip-path="url(#SVGID_2_)">
				
					<rect x="80.671" y="-97.484" transform="matrix(-0.5662 -0.8242 0.8242 -0.5662 246.7395 42.8057)" fill="none" width="107.924" height="107.924"/>
				
					<rect x="80.672" y="-97.486" transform="matrix(0.5662 0.8242 -0.8242 0.5662 22.5265 -129.851)" fill="#D4202A" width="107.924" height="107.926"/>
				
					<rect x="102.819" y="-139.57" transform="matrix(0.5663 0.8242 -0.8242 0.5663 -24.7053 -124.2648)" fill="#EC2227" width="5.809" height="107.926"/>
				
					<rect x="109.621" y="-129.667" transform="matrix(0.566 0.8244 -0.8244 0.566 -13.5739 -125.6263)" fill="#EC2227" width="5.81" height="107.923"/>
				
					<rect x="116.423" y="-119.765" transform="matrix(0.5664 0.8241 -0.8241 0.5664 -2.4901 -126.8724)" fill="#EC2227" width="5.811" height="107.924"/>
				
					<rect x="123.226" y="-109.865" transform="matrix(0.5665 0.824 -0.824 0.5665 8.6077 -128.1688)" fill="#EC2227" width="5.81" height="107.926"/>
				
					<rect x="130.028" y="-99.963" transform="matrix(0.5664 0.8241 -0.8241 0.5664 19.7282 -129.4993)" fill="#EC2227" width="5.809" height="107.924"/>
				
					<rect x="136.829" y="-90.062" transform="matrix(0.5663 0.8242 -0.8242 0.5663 30.8468 -130.8215)" fill="#EC2227" width="5.809" height="107.926"/>
				
					<rect x="143.63" y="-80.161" transform="matrix(0.5664 0.8241 -0.8241 0.5664 41.945 -132.1223)" fill="#EC2227" width="5.811" height="107.926"/>
				
					<rect x="150.433" y="-70.26" transform="matrix(0.5664 0.8242 -0.8242 0.5664 53.0615 -133.4418)" fill="#EC2227" width="5.809" height="107.924"/>
				
					<rect x="157.235" y="-60.356" transform="matrix(0.5662 0.8243 -0.8243 0.5662 64.1971 -134.7719)" fill="#EC2227" width="5.811" height="107.923"/>
			</g>
			<g clip-path="url(#SVGID_2_)">
				
					<rect x="-8.287" y="-36.374" transform="matrix(-0.5662 -0.8242 0.8242 -0.5662 57.0436 65.195)" fill="none" width="107.926" height="107.924"/>
				
					<rect x="-8.285" y="-36.375" transform="matrix(0.5662 0.8242 -0.8242 0.5662 34.3098 -30.0204)" fill="#D4202A" width="107.926" height="107.926"/>
				
					<rect x="13.863" y="-78.46" transform="matrix(0.5666 0.824 -0.824 0.5666 -12.9186 -24.4332)" fill="#EC2227" width="5.808" height="107.926"/>
				
					<rect x="20.665" y="-68.558" transform="matrix(0.5663 0.8242 -0.8242 0.5663 -1.8072 -25.7561)" fill="#EC2227" width="5.809" height="107.926"/>
				
					<rect x="27.467" y="-58.656" transform="matrix(0.5667 0.8239 -0.8239 0.5667 9.2939 -27.0592)" fill="#EC2227" width="5.811" height="107.925"/>
				
					<rect x="34.269" y="-48.755" transform="matrix(0.5664 0.8241 -0.8241 0.5664 20.4096 -28.3774)" fill="#EC2227" width="5.809" height="107.925"/>
				
					<rect x="41.071" y="-38.852" transform="matrix(0.5658 0.8245 -0.8245 0.5658 31.5497 -29.6983)" fill="#EC2227" width="5.808" height="107.922"/>
				
					<rect x="47.871" y="-28.95" transform="matrix(0.5662 0.8243 -0.8243 0.5662 42.6436 -31.004)" fill="#EC2227" width="5.812" height="107.922"/>
				
					<rect x="54.673" y="-19.051" transform="matrix(0.5663 0.8242 -0.8242 0.5663 53.7436 -32.3148)" fill="#EC2227" width="5.809" height="107.924"/>
				
					<rect x="61.476" y="-9.149" transform="matrix(0.5661 0.8243 -0.8243 0.5661 64.8749 -33.6268)" fill="#EC2227" width="5.809" height="107.925"/>
				
					<rect x="68.279" y="0.752" transform="matrix(0.5662 0.8243 -0.8243 0.5662 75.9761 -34.9396)" fill="#EC2227" width="5.81" height="107.925"/>
			</g>
		</g>
	</g>
</g>
</svg>
