<?xml version="1.0" encoding="utf-8"?>
<!-- Generator: Adobe Illustrator 14.0.0, SVG Export Plug-In . SVG Version: 6.00 Build 43363)  -->
<!DOCTYPE svg PUBLIC "-//W3C//DTD SVG 1.1//EN" "http://www.w3.org/Graphics/SVG/1.1/DTD/svg11.dtd">
<svg version="1.1" id="Layer_1" xmlns="http://www.w3.org/2000/svg" xmlns:xlink="http://www.w3.org/1999/xlink" x="0px" y="0px"
	 width="200px" height="200px" viewBox="0 0 200 200" enable-background="new 0 0 200 200" xml:space="preserve">
<g>
	<path fill="#010101" d="M180.12,111.918l0.586-0.01l-0.02-1.162l-0.585,0.013c0-0.045,0-0.087,0-0.125l0.581-0.043l-0.078-1.157
		l-0.575,0.039c-0.006-0.046-0.006-0.084-0.011-0.126l0.579-0.065l-0.131-1.156l-0.58,0.064c-0.007-0.038-0.013-0.08-0.013-0.123
		l0.567-0.093l-0.185-1.146l-0.573,0.096c-0.006-0.043-0.013-0.082-0.025-0.123l0.568-0.126l-0.243-1.135l-0.57,0.125
		c-0.003-0.042-0.024-0.08-0.028-0.121l0.561-0.154l-0.299-1.12l-0.561,0.152c-0.013-0.04-0.025-0.08-0.043-0.123l0.564-0.179
		l-0.361-1.104l-0.551,0.181c-0.016-0.041-0.033-0.081-0.047-0.119l0.544-0.207l-0.413-1.085l-0.543,0.203
		c-0.018-0.036-0.037-0.075-0.049-0.111l0.532-0.235l-0.461-1.064l-0.538,0.234c-0.016-0.036-0.029-0.076-0.052-0.114l0.526-0.261
		l-0.521-1.043l-0.521,0.263c-0.023-0.036-0.044-0.071-0.061-0.107l0.513-0.289l-0.566-1.013l-0.52,0.286
		c-0.007-0.006-0.007-0.021-0.019-0.029c-0.011-0.027-0.022-0.051-0.043-0.076l0.498-0.314l-0.617-0.981l-0.5,0.313
		c-0.02-0.039-0.042-0.069-0.068-0.107l0.48-0.334l-0.665-0.953l-0.479,0.337c-0.022-0.033-0.051-0.07-0.076-0.103l0.462-0.356
		l-0.713-0.918l-0.465,0.36c-0.018-0.035-0.049-0.068-0.072-0.1l0.442-0.38l-0.758-0.879l-0.438,0.377
		c-0.037-0.027-0.061-0.06-0.092-0.089l0.426-0.403l-0.803-0.84l-0.424,0.4c-0.029-0.03-0.052-0.06-0.091-0.088l0.402-0.42
		l-0.837-0.802l-0.398,0.419c-0.038-0.029-0.068-0.057-0.096-0.084l0.38-0.439l-0.884-0.756l-0.383,0.439
		c-0.03-0.026-0.06-0.054-0.096-0.081l0.359-0.457l-0.92-0.711l-0.353,0.458c-0.038-0.023-0.072-0.05-0.103-0.072l0.334-0.479
		l-0.949-0.668l-0.341,0.48c-0.029-0.024-0.066-0.045-0.103-0.069l0.311-0.493l-0.985-0.616l-0.308,0.489
		c-0.035-0.02-0.075-0.042-0.11-0.062l0.288-0.507l-1.019-0.569l-0.283,0.508c-0.034-0.019-0.07-0.038-0.111-0.057l0.257-0.522
		l-1.042-0.517l-0.249,0.525c-0.044-0.018-0.079-0.032-0.121-0.054l0.233-0.536l-1.063-0.462l-0.233,0.535
		c-0.035-0.013-0.069-0.028-0.114-0.044l0.204-0.548l-1.089-0.413l-0.202,0.55c-0.042-0.011-0.086-0.026-0.119-0.041l0.179-0.557
		l-1.112-0.358l-0.174,0.56c-0.036-0.01-0.077-0.021-0.118-0.034l0.15-0.568l-1.124-0.302l-0.151,0.571
		c-0.04-0.012-0.077-0.02-0.119-0.03l0.119-0.574l-1.129-0.247l-0.126,0.575c-0.04-0.006-0.086-0.016-0.125-0.02l0.096-0.58
		l-1.148-0.189l-0.089,0.58c-0.049-0.005-0.091-0.012-0.131-0.018l0.071-0.582l-1.156-0.128l-0.064,0.58
		c-0.04,0-0.085-0.006-0.126-0.009l0.037-0.583l-1.16-0.071l-0.036,0.582c-0.04-0.002-0.085-0.002-0.127-0.002l0.006-0.587
		l-1.16-0.011l-0.012,0.583c-0.033,0-0.075,0-0.117,0.003l-0.024-0.586l-1.158,0.048l0.022,0.576
		c-0.042,0.003-0.092,0.01-0.127,0.01l-0.052-0.581l-1.161,0.104l0.055,0.578c-0.041,0.006-0.078,0.008-0.127,0.014l-0.077-0.573
		l-1.148,0.157l0.079,0.574c-0.044,0.007-0.084,0.015-0.12,0.021l-0.113-0.568l-1.136,0.215l0.101,0.572
		c-0.041,0.008-0.077,0.017-0.119,0.026l-0.138-0.566l-1.13,0.276l0.139,0.561c-0.045,0.012-0.079,0.027-0.127,0.037l-0.161-0.561
		l-1.111,0.329l0.16,0.561c-0.035,0.012-0.077,0.027-0.12,0.038l-0.19-0.549l-1.091,0.385l0.196,0.55
		c-0.045,0.019-0.084,0.03-0.122,0.048l-0.221-0.541l-1.076,0.436l0.223,0.544c-0.036,0.017-0.072,0.032-0.114,0.051l-0.25-0.53
		l-1.048,0.49l0.245,0.533c-0.036,0.019-0.072,0.036-0.108,0.057l-0.279-0.521l-1.03,0.545l0.278,0.521
		c-0.038,0.017-0.067,0.037-0.104,0.057l-0.306-0.503l-0.998,0.598l0.299,0.502c-0.037,0.021-0.071,0.044-0.102,0.068l-0.323-0.491
		l-0.969,0.643l0.323,0.491c-0.037,0.021-0.065,0.044-0.102,0.069l-0.354-0.47l-0.924,0.69l0.346,0.473
		c-0.038,0.021-0.072,0.051-0.102,0.075l-0.371-0.448l-0.897,0.731l0.371,0.454c-0.03,0.028-0.067,0.051-0.096,0.08l-0.388-0.43
		l-0.866,0.779l0.395,0.431c-0.031,0.029-0.065,0.057-0.091,0.087l-0.413-0.41l-0.818,0.824l0.406,0.407
		c-0.022,0.032-0.06,0.062-0.084,0.091l-0.435-0.392l-0.779,0.865l0.43,0.388c-0.022,0.034-0.05,0.063-0.077,0.096l-0.447-0.365
		l-0.729,0.9l0.441,0.367c-0.024,0.031-0.046,0.063-0.07,0.098l-0.47-0.345l-0.69,0.936l0.465,0.343
		c-0.023,0.038-0.046,0.074-0.064,0.107l-0.483-0.323l-0.646,0.971l0.483,0.319c-0.016,0.037-0.04,0.072-0.064,0.108l-0.504-0.299
		l-0.582,1l0.499,0.3c-0.024,0.033-0.042,0.073-0.064,0.107l-0.516-0.273l-0.536,1.029l0.513,0.272
		c-0.018,0.035-0.037,0.075-0.054,0.111l-0.532-0.245l-0.483,1.055l0.524,0.245c-0.018,0.04-0.028,0.078-0.046,0.117l-0.544-0.222
		l-0.438,1.076l0.544,0.221c-0.018,0.039-0.032,0.078-0.041,0.116l-0.556-0.19l-0.383,1.097l0.555,0.192
		c-0.011,0.041-0.023,0.08-0.042,0.12l-0.555-0.166l-0.337,1.116l0.569,0.164c-0.006,0.04-0.022,0.082-0.03,0.119l-0.573-0.135
		l-0.114,0.489l-7.884-1.55l-0.456-3.067c0.76-0.255,1.286-0.556,1.696-0.895c0.722-0.042,2.022-0.316,3.799-1.521
		c2.767-1.882,4.035-3.793,3.008-4.461c-1.027-0.666-4.341,0.757-8.622,1.179c-4.278,0.422-9.35,0.518-11.919,2.272
		c-2.578,1.761-1.742,3.838,0.142,3.279c1.698-0.502,4.376-1.536,7.611-1.235c0.388,0.735,1.008,1.512,1.933,1.718l0.244,1.653
		l-46.891,11.261l-0.22-1.858c4.568-0.299,7.038-1.938,9.099-5.722c2.063-3.781,8.33-13.538,8.33-13.538l0.556,0.173
		c0.711-1.086,3.544-1.642,4.59-1.813c-0.018,0.814,0.795,1.559,0.843,2.242c0.049,0.688,0.411,1.473,1.124,1.252
		c0.712-0.22,0.718-1.255,0.581-1.753c-0.132-0.503,0.131-1.053,0.131-1.053s0.127,0.896,1.075,1.055
		c0.95,0.161,1.31-0.958,1.31-0.958s0.388,0.857,1.148,1c0.754,0.14,1.051-1.093,1.051-1.093s0.36,0.651,1.245,0.651
		c0.874,0,0.98-1.681,0.98-1.681s0.89,0.628,1.905,0.718c0.822,0.073,1.005-0.737,1.173-1.631l1.789-0.172
		c1.117-1.411,0.023-3.328,0.023-3.328s-0.277,0.033-0.736,0.081c0.019-0.142,0.036-0.283,0.042-0.443
		c0.097-1.647-1.487-3.022-1.9-3.42c-0.42-0.393-0.629-0.505-0.743-1.244c-0.123-0.734-0.447-1.974-0.898-3.432
		c-0.47-1.456-1.48-6.293-1.675-7.707c-0.204-1.415-0.821-4.498-1.324-5.809c-0.5-1.307-2.224-4.582-3.106-6.543
		c-0.873-1.962-0.671-2.607-1.185-3.896c-0.515-1.292-1.482-2.568-2.434-3.387c-0.95-0.823-0.748-1.152-2.844-3.973
		c-2.104-2.825-3.671-6.462-3.671-6.462s0.191-0.389-0.224-0.959c-0.411-0.567-0.837-1.214-1.337-2.225
		c-0.507-1.01-0.8-1.189-1.525-2.639c-0.728-1.45-1.243-2.729-4.177-7.276c-2.942-4.549-6.708-6.385-6.708-6.385
		c0.144-3.416-0.633-4.349-2.166-6.357c-1.529-2.012-4.28-2.26-6.302-3.212c-2.02-0.95-4.166-0.549-5.799,0.301
		c-1.635,0.845-3.292,2.525-4.417,4.447c-1.124,1.917-0.844,2.003-0.844,2.003c-2.016,0.852-10.514,1.638-15.807,3.341
		c-5.288,1.697-6.975,5.401-7.746,6.574c-0.771,1.171-2.751,5.976-3.569,6.968c-0.826,0.989-3.389,6.608-4.041,8.775
		c-0.658,2.167-0.654,6.146-0.654,6.146s-0.56,1.663-0.919,2.748c-0.372,1.088-1.547,4.158-1.566,6.471
		c-0.03,2.309,1.507,6.279,2.272,7.795c0.758,1.52,3.348,5.812,5.118,7.958c1.769,2.15,4.47,6.028,5.009,6.842
		c0.544,0.818,0.449,2.229-0.269,3.057c-0.711,0.823,0.389,3.242,0.698,4.186c0.304,0.944,0.533,2.846,1.299,3.237
		c0.759,0.394,2.003-0.225,2.003-0.225c0.651,1.68,2.252,0.596,2.252,0.596s0.112,0.951,0.112,2.105
		c0,1.152,0.509,1.738,1.013,2.941c0.502,1.198,0.676,2.585,0.848,3.787c0.172,1.201,0.261,3.122-0.055,4.692
		c-0.315,1.579,0.174,4.995,0.167,6.598c0,1.605,0,6.903,0.598,8.912c0.598,2.013,1.67,9.16,2.26,10.982
		c0.593,1.825,1.119,5.989,1.914,7.077c0.789,1.085,1.329,1.861,1.83,3.738c0.502,1.884-0.304,0.704-0.151,2.095
		c0.151,1.395-1.194,3.165-0.425,3.783c0.779,0.621,1.538,0.489,1.538,0.489s-0.042,1.205-0.688,2.122
		c-0.645,0.918-1.447,1.388-0.686,3.232c0.756,1.848,1.075,1.777,1.708,2.418c0.633,0.636,0.288,0.523,0.425,1.819
		c0.144,1.302,3.07,0.993,7.089,0.76c0.527-0.029,0.994-0.086,1.399-0.164c0.455,14.982,4.633,26.75,9.691,26.738
		c5.153-0.016,9.327-12.257,9.535-27.644l6.74-0.192c0,0,1.647-0.96,0.256-3.713l-7.025-0.01
		c-0.169-5.496-0.832-10.557-1.866-14.768c0.031-2.729,0.013-5.147-0.125-6.479c-0.447-4.438-5.402-8.403-5.402-8.403l-0.074-0.855
		l0.491,0.057v-1.208l-0.359-0.575l48.408,2.862c-0.091,0.032-0.182,0.049-0.271,0.039c0.024,0.157,0.05,0.316,0.085,0.477
		c0.018-0.014,0.054-0.008,0.078-0.017c0.013,0.022,0.013,0.055,0.028,0.077c0.102,0.192,0.342,0.266,0.534,0.164
		c0.036-0.016,0.054-0.045,0.083-0.07c0.053,0.055,0.09,0.116,0.118,0.185c-0.114-0.055-0.246-0.063-0.362,0.001
		c-0.192,0.104-0.259,0.342-0.157,0.535c0.072,0.126,0.196,0.196,0.333,0.203c-0.075,0.062-0.165,0.11-0.267,0.129
		c0.07,0.146,0.137,0.292,0.216,0.435c0.022-0.021,0.051-0.032,0.072-0.045c0.005,0.035,0.018,0.083,0.033,0.122
		c0.104,0.18,0.324,0.249,0.511,0.167l-1.558,1.911c0,0-2.228,2.34-4.026,3.765c-0.191,0.107-0.365,0.239-0.515,0.391
		c-0.339,0.248-0.657,0.453-0.929,0.567c-0.286,0.134-0.509,0.279-0.679,0.435c-0.444-0.146-0.927-0.146-1.391,0.044
		c-1.015,0.425-1.499,1.591-1.08,2.606c0.424,1.021,1.59,1.5,2.607,1.077c0.491-0.2,0.855-0.578,1.058-1.023
		c0.21,0.003,0.425-0.038,0.63-0.123c0.201-0.087,0.381-0.206,0.531-0.36c0.453,0.174,0.984,0.186,1.464-0.02
		c1.021-0.425,1.506-1.588,1.08-2.604c-0.046-0.122-0.114-0.229-0.174-0.334c0.999-0.968,2.812-2.767,4.426-4.39
		c0.138,0.088,0.28,0.17,0.421,0.241c0.016-0.067,0.057-0.119,0.093-0.177c0.044-0.01,0.084-0.018,0.126-0.038
		c0.09-0.053,0.153-0.136,0.185-0.229c0.079-0.025,0.163-0.04,0.242-0.035c-0.151,0.119-0.205,0.321-0.11,0.494
		c0.104,0.191,0.342,0.266,0.531,0.159c0.079-0.039,0.129-0.1,0.163-0.171c0.042,0.161,0.025,0.325-0.049,0.464
		c0.156,0.042,0.315,0.077,0.479,0.109c-0.007-0.049,0.02-0.095,0.024-0.146c0.091,0.016,0.173,0.011,0.257-0.036
		c0.168-0.09,0.237-0.284,0.186-0.455c0.047-0.014,0.097-0.014,0.144-0.016c-0.086,0.119-0.102,0.275-0.031,0.405
		c0.109,0.193,0.348,0.264,0.539,0.161c0.049-0.029,0.097-0.067,0.124-0.109c0.031,0.101,0.044,0.199,0.018,0.299
		c0.172-0.002,0.323-0.013,0.485-0.028c-0.022-0.071-0.016-0.142-0.016-0.213c0.11,0.067,0.257,0.081,0.388,0.016
		c0.189-0.105,0.264-0.348,0.162-0.54c-0.019-0.032-0.05-0.06-0.08-0.087c0.069-0.016,0.132-0.017,0.191-0.016
		c-0.023,0.1-0.016,0.204,0.039,0.299c0.1,0.193,0.339,0.264,0.524,0.162c0.011,0.041,0.035,0.073,0.035,0.111
		c0.154-0.052,0.306-0.108,0.455-0.174c-0.085-0.112-0.107-0.25-0.101-0.393c0.005,0.013,0.005,0.025,0.01,0.037
		c0.102,0.192,0.348,0.262,0.539,0.158c0.125-0.066,0.192-0.195,0.196-0.327l0.289-0.136c0.118,0.106,0.29,0.137,0.447,0.055
		c0.148-0.078,0.222-0.249,0.192-0.412l0.226-0.131c0.113,0.073,0.263,0.086,0.39,0.021c0.137-0.077,0.217-0.224,0.21-0.37
		l0.232-0.125c0.119,0.089,0.28,0.107,0.424,0.034c0.137-0.077,0.216-0.225,0.203-0.376l0.227-0.123
		c0.121,0.095,0.288,0.114,0.426,0.04c0.143-0.074,0.22-0.225,0.208-0.374l0.233-0.123c0.113,0.092,0.287,0.113,0.424,0.036
		c0.139-0.074,0.211-0.221,0.211-0.374l0.228-0.121c0.119,0.093,0.279,0.111,0.423,0.038c0.137-0.074,0.223-0.226,0.203-0.374
		l0.234-0.122c0.118,0.09,0.285,0.112,0.431,0.038c0.137-0.077,0.21-0.225,0.202-0.373l0.228-0.122
		c0.095,0.066,0.209,0.09,0.316,0.066l0.472,0.667l0.479-0.336c0.025,0.034,0.048,0.069,0.071,0.105l-0.461,0.357l0.719,0.914
		l0.453-0.361c0.031,0.035,0.055,0.064,0.085,0.098l-0.435,0.384l0.751,0.875l0.443-0.377c0.028,0.032,0.055,0.061,0.082,0.089
		l-0.417,0.406l0.802,0.836l0.424-0.397c0.023,0.027,0.055,0.058,0.082,0.087l-0.397,0.421l0.842,0.799l0.398-0.422
		c0.038,0.027,0.068,0.057,0.098,0.084l-0.377,0.44l0.878,0.755l0.382-0.439c0.031,0.026,0.062,0.055,0.096,0.081l-0.358,0.457
		l0.921,0.711l0.353-0.459c0.037,0.024,0.072,0.047,0.104,0.073l-0.337,0.477l0.958,0.663l0.334-0.475
		c0.038,0.021,0.073,0.044,0.103,0.068l-0.304,0.493l0.976,0.616l0.313-0.497c0.034,0.026,0.074,0.045,0.107,0.063l-0.281,0.51
		l1.011,0.57l0.286-0.513c0.037,0.017,0.077,0.036,0.116,0.059l-0.264,0.521l1.039,0.516l0.256-0.525
		c0.05,0.02,0.085,0.032,0.119,0.052l-0.23,0.538l1.063,0.463l0.233-0.54c0.042,0.015,0.08,0.032,0.122,0.047l-0.21,0.552
		l1.087,0.404l0.209-0.55c0.035,0.016,0.072,0.031,0.113,0.042l-0.178,0.561l1.104,0.354l0.185-0.56
		c0.037,0.01,0.079,0.02,0.123,0.035l-0.151,0.563l1.117,0.301l0.149-0.567c0.042,0.006,0.084,0.017,0.119,0.028l-0.119,0.577
		l1.137,0.24l0.119-0.579c0.042,0.011,0.089,0.021,0.131,0.026l-0.095,0.581l1.141,0.184l0.097-0.576
		c0.042,0.002,0.077,0.005,0.128,0.012l-0.067,0.586l1.16,0.125l0.06-0.579c0.042,0,0.083,0.006,0.125,0.008l-0.037,0.587
		l1.161,0.065l0.035-0.582c0.04,0.002,0.084,0.006,0.119,0.006v0.582l1.16,0.013l0.005-0.584c0.044,0,0.086,0,0.127,0l0.025,0.579
		l1.158-0.045l-0.026-0.582c0.045,0,0.086-0.005,0.128-0.009l0.055,0.58l1.153-0.102l-0.056-0.584
		c0.042-0.004,0.091-0.008,0.133-0.014l0.076,0.58l1.149-0.164l-0.077-0.579c0.041-0.001,0.082-0.011,0.119-0.02l0.113,0.572
		l1.142-0.219l-0.111-0.573c0.034-0.008,0.082-0.019,0.123-0.026l0.138,0.564l1.125-0.277l-0.134-0.56
		c0.037-0.013,0.079-0.026,0.114-0.039l0.174,0.561l1.112-0.332l-0.169-0.558c0.043-0.015,0.081-0.028,0.116-0.038l0.197,0.548
		l1.094-0.388l-0.191-0.549c0.041-0.017,0.076-0.032,0.114-0.042l0.219,0.537l1.078-0.444l-0.222-0.54
		c0.042-0.017,0.08-0.032,0.113-0.053l0.246,0.534l1.058-0.494l-0.251-0.532c0.023-0.013,0.049-0.025,0.071-0.039l0.276,0.521
		l1.027-0.544l-0.275-0.521c0.025-0.015,0.055-0.032,0.079-0.045l0.304,0.506l0.999-0.595l-0.3-0.503
		c0.023-0.02,0.053-0.04,0.078-0.055l0.327,0.489l0.971-0.645l-0.324-0.485c0.03-0.027,0.066-0.049,0.104-0.072l0.352,0.471
		l0.931-0.689l-0.35-0.472c0.037-0.023,0.07-0.046,0.099-0.075l0.373,0.45l0.897-0.733l-0.367-0.451
		c0.032-0.027,0.063-0.055,0.097-0.077l0.389,0.425l0.86-0.775l-0.389-0.435c0.03-0.025,0.061-0.052,0.091-0.081l0.412,0.412
		l0.826-0.823l-0.419-0.41c0.03-0.032,0.058-0.061,0.087-0.093l0.439,0.393l0.771-0.864l-0.424-0.392
		c0.021-0.032,0.054-0.061,0.076-0.093l0.449,0.369l0.735-0.9l-0.447-0.366c0.028-0.035,0.055-0.068,0.075-0.101l0.467,0.348
		l0.692-0.937l-0.472-0.347c0.03-0.032,0.055-0.065,0.08-0.102l0.483,0.321l0.632-0.968l-0.476-0.322
		c0.018-0.036,0.04-0.069,0.065-0.106l0.501,0.297l0.592-0.999l-0.501-0.295c0.019-0.036,0.041-0.073,0.061-0.112l0.512,0.273
		l0.546-1.024l-0.515-0.274c0.019-0.038,0.034-0.072,0.055-0.111l0.538,0.25l0.48-1.056l-0.528-0.249
		c0.016-0.036,0.029-0.079,0.048-0.111l0.542,0.219l0.443-1.076l-0.543-0.222c0.011-0.037,0.028-0.077,0.038-0.115l0.56,0.192
		l0.384-1.093l-0.557-0.198c0.016-0.039,0.022-0.08,0.032-0.119l0.569,0.168l0.328-1.117l-0.566-0.163
		c0.018-0.041,0.026-0.084,0.035-0.12l0.568,0.138l0.276-1.134l-0.57-0.134c0.008-0.04,0.019-0.081,0.026-0.122l0.572,0.108
		l0.216-1.143l-0.573-0.106c0.006-0.045,0.011-0.084,0.016-0.126l0.588,0.081l0.16-1.151l-0.586-0.08
		c0.006-0.043,0.006-0.082,0.019-0.121l0.581,0.049l0.102-1.156l-0.58-0.05c0-0.043,0-0.086,0.005-0.128l0.585,0.022l0.041-1.161
		l-0.577-0.023C180.12,112.002,180.12,111.96,180.12,111.918z M126.752,125.537c-0.576,0.116-1.136-0.148-1.43-0.613l2.519-0.999
		C127.977,124.666,127.499,125.386,126.752,125.537z M124.461,119.03c0.126-0.04,0.209-0.136,0.244-0.25l0.335-0.11
		c0.098,0.07,0.223,0.103,0.347,0.064c0.132-0.039,0.209-0.142,0.251-0.259l0.33-0.106c0.095,0.074,0.229,0.106,0.351,0.065
		c0.128-0.038,0.212-0.145,0.244-0.258l0.332-0.108c0.102,0.08,0.226,0.108,0.358,0.067c0.118-0.04,0.209-0.145,0.25-0.265
		l0.316-0.102c0.104,0.075,0.229,0.108,0.358,0.065c0.127-0.038,0.218-0.142,0.253-0.266l0.188-0.06l0.068,0.319l0.563-0.122
		c0.011,0.041,0.024,0.082,0.036,0.122l-0.562,0.155l0.154,0.576c-0.401,0.388-0.657,0.627-0.657,0.627
		c-0.581,0.503-1.226,1.013-1.865,1.495c-0.316,0-0.592-0.223-0.641-0.548c-0.023-0.171,0.026-0.335,0.119-0.464
		c-0.137-0.067-0.273-0.136-0.418-0.196c-0.049,0.179-0.165,0.335-0.356,0.418c-0.319,0.145-0.699,0.004-0.845-0.317
		c-0.067-0.155-0.07-0.328-0.016-0.48c-0.109-0.022-0.213-0.035-0.319-0.052l0.229-0.07
		C124.211,119.04,124.337,119.072,124.461,119.03z M166.524,127.215l-5.118-8.313l7.49,6.114
		C168.18,125.801,167.392,126.542,166.524,127.215z M130.027,120.292l-0.09,0.035c0.018-0.024,0.046-0.048,0.077-0.073
		C130.015,120.271,130.02,120.282,130.027,120.292z M134.784,108.686l12.418,2.438l-0.208,0.064
		c-0.103-0.109-0.265-0.162-0.415-0.113c-0.142,0.052-0.242,0.18-0.261,0.321l-0.316,0.115c-0.102-0.102-0.251-0.146-0.396-0.098
		c-0.155,0.046-0.252,0.177-0.268,0.321l-0.254,0.081c-0.101-0.104-0.256-0.155-0.407-0.104c-0.152,0.049-0.249,0.177-0.268,0.324
		l-0.251,0.078c-0.102-0.105-0.264-0.154-0.411-0.105c-0.061,0.019-0.109,0.054-0.151,0.09l-6.821-1.041
		c-0.129-0.124-0.28-0.234-0.446-0.315c-0.564-0.271-1.179-0.254-1.7-0.016l-0.046-0.008
		C134.619,110.041,134.685,109.358,134.784,108.686z M141.607,96.525l6.963,7.466l1.921,4.336l-4.03-2.129l-7.029-7.538
		C140.089,97.902,140.825,97.186,141.607,96.525z M155.048,92.908l-0.063-0.005l-0.088,1.038l0.692,0.062l0.09-1.037l-0.054-0.006
		l0.087-1.018c0.487,0.038,0.954,0.086,1.431,0.151l-2.452,9.517l-0.799-9.713c0.417-0.007,0.831-0.009,1.243,0.011L155.048,92.908z
		 M174.047,113.006l-10.105-0.164l-4.455-1.629l4.331-1.423l10.205,0.168C174.106,110.977,174.115,111.995,174.047,113.006z
		 M173.531,116.345l-9.171-3.351l9.679,0.157C173.956,114.231,173.782,115.299,173.531,116.345z M172.521,119.381l-9.487-3.471
		l-3.673-2.997l4.556,0.073l9.573,3.504C173.244,117.476,172.921,118.443,172.521,119.381z M172.462,119.517
		c-0.424,0.984-0.927,1.94-1.513,2.854l-7.567-6.176L172.462,119.517z M161.797,129.967c-0.958,0.384-1.932,0.696-2.914,0.928
		l-2.809-9.728l0.22-4.185l3.289,5.342L161.797,129.967z M159.87,122.791l3.855,6.258c-0.585,0.319-1.189,0.606-1.798,0.857
		L159.87,122.791z M148.864,130.656c-0.98-0.277-1.929-0.638-2.862-1.065l3.833-9.415l3.13-3.565l-0.237,4.557L148.864,130.656z
		 M152.703,121.612l-0.516,9.698c-1.076-0.12-2.141-0.326-3.185-0.616L152.703,121.612z M143.367,120.282l-0.26,0.146
		c-0.119-0.074-0.261-0.092-0.395-0.023c-0.139,0.074-0.209,0.216-0.209,0.365l-0.122,0.066l-0.11,0.065
		c-0.12-0.091-0.281-0.113-0.426-0.032c-0.138,0.07-0.21,0.213-0.203,0.363l-0.24,0.126c-0.11-0.087-0.275-0.108-0.411-0.033
		c-0.146,0.075-0.215,0.218-0.21,0.364l-0.238,0.125c-0.114-0.087-0.276-0.103-0.421-0.033c-0.13,0.076-0.207,0.221-0.207,0.369
		l-0.235,0.129c-0.116-0.091-0.28-0.113-0.417-0.036c-0.138,0.071-0.214,0.215-0.202,0.364l-0.245,0.125
		c-0.112-0.087-0.275-0.104-0.412-0.032c-0.14,0.074-0.217,0.22-0.211,0.364l-0.006,0.003c-0.238-0.339-0.472-0.683-0.687-1.036
		c-0.3-0.479-0.563-0.969-0.813-1.462l0.908-0.521l12.122-4.811l-2.483,2.831c-0.074-0.001-0.151,0.005-0.217,0.039
		c-0.082,0.048-0.143,0.121-0.181,0.202l-0.405,0.231c-0.09-0.017-0.181-0.011-0.263,0.032c-0.098,0.053-0.161,0.131-0.198,0.229
		l-0.358,0.203c-0.102-0.032-0.214-0.026-0.317,0.025c-0.103,0.056-0.167,0.157-0.191,0.264l-0.329,0.187
		c-0.102-0.045-0.233-0.051-0.339,0.005c-0.115,0.066-0.181,0.178-0.199,0.298l-0.292,0.168c-0.023-0.01-0.049-0.026-0.071-0.032
		c-0.104-0.032-0.216-0.026-0.311,0.023C143.442,120.016,143.372,120.144,143.367,120.282z M146.821,111.828
		c0.147-0.049,0.246-0.172,0.267-0.313l0.265-0.084c0.104,0.098,0.25,0.139,0.394,0.095c0.119-0.035,0.21-0.134,0.245-0.25
		l1.082,0.215l-3.061,0.56c0.059-0.061,0.097-0.139,0.108-0.222l0.301-0.107C146.516,111.828,146.67,111.876,146.821,111.828z
		 M151.417,102.511l0.39,4.729l-3.109-3.334l-4.166-9.405c0.896-0.518,1.816-0.954,2.753-1.31L151.417,102.511z M147.425,93.137
		c1.026-0.386,2.078-0.678,3.144-0.882l0.808,9.811L147.425,93.137z M163.529,94.166c0.898,0.469,1.759,1.013,2.582,1.623
		l-5.606,8.455l-3.771,2.881l1.134-4.417L163.529,94.166z M157.974,102.271l2.422-9.418c1.029,0.333,2.034,0.741,3.004,1.242
		L157.974,102.271z M149.463,111.567l1.441,0.76l-1.233,0.704l-4.453-0.684L149.463,111.567z M155.264,108.43l1.223-0.932
		l-0.331,1.287l-0.786,0.261c-0.018-0.04-0.042-0.076-0.067-0.106L155.264,108.43z M157.289,111.674
		c-0.023-0.067-0.063-0.115-0.107-0.163c0.017,0,0.027-0.008,0.045-0.011c-0.005-0.049-0.011-0.1-0.023-0.15
		c-0.021,0.005-0.047,0.002-0.076,0c0.017-0.011,0.024-0.023,0.035-0.042l0.448,0.366l-0.311,0.101
		C157.3,111.741,157.3,111.709,157.289,111.674z M155.488,109.158l0.621-0.205l-0.101,0.394c-0.091-0.152-0.274-0.233-0.448-0.179
		c-0.036,0.009-0.055,0.03-0.083,0.049C155.483,109.194,155.483,109.176,155.488,109.158z M156.976,110.449l0.449,0.164
		l-0.309,0.238c-0.031-0.028-0.061-0.055-0.097-0.075c0.006-0.008,0.013-0.013,0.023-0.014c-0.018-0.046-0.036-0.097-0.061-0.142
		c-0.012,0.002-0.017,0.002-0.027,0.009C156.976,110.572,156.988,110.514,156.976,110.449z M156.649,110.063
		c-0.02-0.026-0.037-0.051-0.063-0.077c0.008-0.055,0-0.106-0.011-0.164c-0.023-0.06-0.06-0.113-0.109-0.155l0.444,0.007
		L156.649,110.063z M156.63,113.457c0.024-0.004,0.047,0,0.071-0.01c0.123-0.035,0.21-0.131,0.254-0.238l0.153,0.535l-0.448-0.162
		c0.017-0.019,0.029-0.038,0.041-0.057C156.677,113.508,156.654,113.483,156.63,113.457z M157.227,112.407l0.205,0.327l-0.305-0.012
		C157.209,112.644,157.246,112.526,157.227,112.407z M157.209,111.161c0.007-0.055,0.007-0.11-0.011-0.164
		c0-0.01-0.007-0.01-0.014-0.016l0.401-0.306l1.454,0.527l-1.268,0.415L157.209,111.161z M157.569,110.508l-0.653-0.234
		c-0.028-0.055-0.075-0.104-0.137-0.138l0.306-0.46l1.536,0.027L157.569,110.508z M157.007,109.53l-0.884-0.016l0.153-0.613
		l1.466-0.481L157.007,109.53z M154.294,114.455c0.016-0.004,0.036-0.01,0.053-0.01c0.012,0,0.024,0.006,0.035,0.006l-0.047,0.026
		C154.322,114.468,154.31,114.462,154.294,114.455z M152.416,115.319l0.488-0.281c-0.04,0.069-0.064,0.147-0.064,0.229l-0.228,0.122
		C152.554,115.349,152.48,115.324,152.416,115.319z M153.229,114.857l0.592-0.34c-0.077,0.079-0.112,0.183-0.112,0.288l-0.232,0.129
		C153.402,114.876,153.318,114.857,153.229,114.857z M153.217,114.69l0.007-0.154c0.029,0.013,0.053,0.022,0.082,0.029
		c0.048-0.152,0.208-0.243,0.367-0.203c0.021,0.006,0.045,0.022,0.063,0.034L153.217,114.69z M153.061,114.78l-1.337,0.757
		l0.435-1.065l0.926-0.094L153.061,114.78z M151.332,112.388l-0.119-0.065l0.119-0.066V112.388z M151.732,109.996l0.302-0.103
		l0.006,0.125c-0.006-0.004-0.006-0.004-0.006-0.004c-0.013,0.016-0.021,0.026-0.025,0.037l-0.276-0.053V109.996z M152.208,110.09
		c0,0-0.007-0.004-0.021-0.007l-0.006-0.097c0.06,0.026,0.132,0.028,0.196,0.018c-0.017,0.027-0.04,0.048-0.058,0.069
		c-0.02,0.01-0.034,0.013-0.056,0.017H152.208z M153.944,108.934c-0.021,0-0.038,0.004-0.064,0.006
		c-0.028-0.028-0.06-0.055-0.095-0.073l0.268-0.401l0.12,0.275C154.074,108.774,153.994,108.847,153.944,108.934z M153.192,109.139
		c-0.018,0.006-0.035,0.014-0.06,0.02c-0.049-0.051-0.119-0.09-0.196-0.101l0.077-0.308l0.232,0.252
		C153.224,109.04,153.204,109.09,153.192,109.139z M152.779,109.059c-0.012,0.005-0.018,0-0.034,0.005
		c-0.115,0.034-0.191,0.118-0.231,0.218c-0.093-0.049-0.189-0.063-0.29-0.039l-0.107-0.058l-0.125-1.532l0.908,0.972
		L152.779,109.059z M151.931,109.568l-0.315,0.111c-0.102-0.1-0.244-0.147-0.395-0.1l-0.008,0.01l-0.418-0.934l1.178,0.621
		l0.014,0.139C151.957,109.464,151.938,109.515,151.931,109.568z M151.322,111.93l0.006,0.159l-0.271,0.151l-1.093-0.58
		L151.322,111.93z M151.066,112.407l0.165,0.094l-1.063,0.412L151.066,112.407z M151.479,114.538l0.513-0.051l-0.478,1.169
		l-1.872,1.063c-0.013,0.009-0.022,0.009-0.042,0.014c-0.018,0.009-0.023,0.025-0.042,0.035l-0.669,0.38
		c-0.047,0.006-0.101,0.015-0.15,0.045c-0.055,0.028-0.093,0.066-0.13,0.115l-0.534,0.302c-0.064,0-0.138,0.007-0.197,0.041
		c-0.068,0.037-0.119,0.096-0.149,0.16l-0.13,0.07l2.426-2.764L151.479,114.538z M147.668,118.007v0.006l-0.147,0.083
		L147.668,118.007z M148.267,117.669l0.27-0.151c0,0.016-0.005,0.024,0,0.041l-0.245,0.125
		C148.284,117.678,148.28,117.675,148.267,117.669z M149.103,117.198l0.3-0.168c0,0.021-0.006,0.043-0.006,0.068l-0.239,0.126
		C149.14,117.211,149.114,117.204,149.103,117.198z M149.94,116.722l0.329-0.187c-0.012,0.035-0.012,0.069-0.012,0.105l-0.239,0.127
		C149.994,116.749,149.965,116.737,149.94,116.722z M150.771,116.248l0.363-0.206c-0.009,0.045-0.018,0.091-0.009,0.142
		l-0.242,0.123C150.855,116.28,150.813,116.261,150.771,116.248z M151.627,115.785l0.005-0.026l0.39-0.219
		c-0.03,0.062-0.041,0.116-0.041,0.185l-0.239,0.128C151.705,115.822,151.669,115.801,151.627,115.785z M151.332,116.509
		c0.109,0.054,0.247,0.064,0.366,0.004c0.14-0.074,0.208-0.216,0.205-0.361l0.243-0.127c0.118,0.086,0.274,0.103,0.411,0.03
		c0.14-0.073,0.204-0.215,0.204-0.358l0.246-0.134c0.006,0.005,0.006,0.005,0.011,0.009l-0.041,0.803l-2.972,3.384L151.332,116.509z
		 M153.17,115.627c0.083,0.017,0.173,0.012,0.248-0.032c0.141-0.07,0.209-0.216,0.209-0.36l0.242-0.127
		c0.048,0.037,0.105,0.057,0.165,0.069l-0.901,1.019L153.17,115.627z M155.323,114.433c0.028,0.032,0.06,0.067,0.069,0.116
		c0.019-0.004,0.025-0.011,0.036-0.013l-0.19,0.454l-0.148-0.248C155.219,114.688,155.302,114.565,155.323,114.433z
		 M155.656,114.371c0.019-0.003,0.043,0,0.07-0.009c0.031-0.008,0.05-0.026,0.072-0.036l0.472,0.38l-0.095,1.797l-0.844-1.357
		L155.656,114.371z M155.913,114.227c0.029-0.038,0.054-0.084,0.064-0.133c0.031,0.021,0.06,0.053,0.086,0.085
		c0.039-0.031,0.075-0.064,0.119-0.094c-0.027-0.032-0.049-0.07-0.06-0.11c0.053,0.008,0.116,0.01,0.179-0.009
		c0.005,0,0.005,0,0.005,0l-0.03,0.558L155.913,114.227z M156.458,113.865c0.055-0.045,0.083-0.101,0.101-0.166l0.598,0.221
		l0.502,1.727l-1.242-1.006L156.458,113.865z M157.025,112.936c0.007-0.02,0.018-0.042,0.023-0.061l0.471,0.006l0.813,1.313
		l-1.058-0.385L157.025,112.936z M157.227,112.127c0-0.01,0-0.013,0-0.019h-0.005l-0.03-0.045c0.035-0.036,0.067-0.082,0.084-0.126
		l0.467-0.154l1.195,0.972l-1.327-0.02L157.227,112.127z M157.908,111.729l1.354-0.442l4.23,1.546l-4.321-0.07L157.908,111.729z
		 M157.73,110.568l1.13-0.862l4.507,0.078l-4.105,1.349L157.73,110.568z M158.813,109.56l-1.631-0.027l0.787-1.185l4.275-1.409
		L158.813,109.56z M157.874,108.219l-1.555,0.512l0.357-1.377l3.583-2.732L157.874,108.219z M156.546,107.267l-1.304,0.99
		l-0.112-1.416l2.486-3.76L156.546,107.267z M155.149,108.843c-0.078-0.028-0.168-0.038-0.252-0.013
		c-0.066,0.021-0.114,0.059-0.16,0.107c-0.031-0.004-0.067-0.009-0.104-0.014c0,0,0-0.007-0.005-0.007l0.49-0.376L155.149,108.843z
		 M154.526,108.805c-0.06-0.045-0.122-0.077-0.196-0.087l-0.18-0.396l0.849-1.282l0.105,1.324L154.526,108.805z M154.075,108.161
		l-0.578-1.301l1.118-4.363l0.366,4.303L154.075,108.161z M153.983,108.308l-0.342,0.507c-0.06-0.01-0.12-0.01-0.18,0.01
		c-0.044,0.016-0.084,0.038-0.119,0.061l-0.288-0.303l0.381-1.489L153.983,108.308z M152.937,108.454l-0.964-1.04l-0.376-4.491
		l1.746,3.949L152.937,108.454z M151.829,107.475l0.128,1.626l-1.257-0.66l-1.819-4.121L151.829,107.475z M151.083,109.661
		c-0.053,0.051-0.091,0.115-0.113,0.187l-1.351-0.268l-2.848-3.053l3.822,2.02L151.083,109.661z M149.373,109.532l-5.495-1.084
		l-7.89-4.164c0.384-0.945,0.837-1.857,1.357-2.735l9.024,4.77L149.373,109.532z M145.546,112.137l-0.384,0.067
		c0.014-0.015,0.021-0.038,0.021-0.061l0.262-0.086C145.474,112.089,145.511,112.114,145.546,112.137z M143.985,112.762
		c0.114-0.039,0.198-0.126,0.247-0.229l0.428-0.082c0.08,0.031,0.175,0.038,0.254,0.015c0.011-0.006,0.018-0.009,0.018-0.009
		l4.531,0.693l-0.253,0.144l-6.843,2.682l-6.993,1.284c-0.009-0.01-0.015-0.019-0.015-0.034c0.048-0.071,0.102-0.149,0.145-0.232
		c0.229-0.477,0.258-0.998,0.106-1.467c0.124-0.107,0.229-0.236,0.318-0.381l0.245-0.081c0.093,0.09,0.238,0.128,0.375,0.087
		c0.139-0.043,0.227-0.16,0.258-0.293l0.288-0.093c0.1,0.089,0.245,0.13,0.388,0.084c0.137-0.043,0.232-0.16,0.256-0.294
		l0.287-0.093c0.102,0.093,0.245,0.135,0.383,0.09c0.137-0.046,0.233-0.165,0.264-0.3l0.274-0.09
		c0.109,0.097,0.251,0.136,0.388,0.09c0.146-0.045,0.234-0.164,0.264-0.302l0.282-0.09c0.101,0.1,0.242,0.141,0.387,0.092
		c0.144-0.045,0.24-0.166,0.266-0.302l0.272-0.091c0.103,0.098,0.246,0.142,0.388,0.098c0.151-0.048,0.249-0.169,0.264-0.306
		l0.278-0.091c0.099,0.098,0.249,0.143,0.399,0.098c0.138-0.043,0.233-0.171,0.257-0.31l0.273-0.091
		c0.102,0.103,0.246,0.147,0.396,0.103c0.144-0.048,0.244-0.174,0.261-0.318l0.271-0.084
		C143.694,112.762,143.844,112.807,143.985,112.762z M140.345,113.244l0.361-0.064c-0.008,0.021-0.021,0.039-0.021,0.064
		l-0.239,0.076C140.418,113.287,140.381,113.264,140.345,113.244z M143.479,112.34l-0.251,0.078
		c-0.103-0.11-0.258-0.159-0.413-0.112c-0.15,0.05-0.25,0.183-0.269,0.332l-0.246,0.082c-0.103-0.113-0.262-0.16-0.409-0.114
		c-0.128,0.041-0.211,0.137-0.255,0.249l-0.381,0.074c-0.091-0.044-0.196-0.058-0.298-0.027c-0.067,0.024-0.114,0.065-0.163,0.114
		l-3.726,0.684c0.067-0.091,0.126-0.188,0.181-0.293c0.358-0.738,0.215-1.588-0.287-2.175l6.546,1.004
		C143.491,112.272,143.483,112.301,143.479,112.34z M139.843,113.334c-0.047,0.063-0.082,0.133-0.088,0.21l-0.236,0.077
		c-0.1-0.116-0.267-0.17-0.423-0.119c-0.155,0.048-0.256,0.188-0.269,0.345l-0.241,0.073c-0.102-0.115-0.262-0.17-0.418-0.119
		c-0.159,0.051-0.262,0.19-0.273,0.347l-0.233,0.075c-0.102-0.12-0.269-0.176-0.425-0.125c-0.155,0.05-0.258,0.193-0.274,0.352
		l-0.23,0.074c-0.099-0.121-0.266-0.178-0.428-0.123c-0.06,0.019-0.114,0.058-0.162,0.105c0.009-0.034,0.014-0.07,0.02-0.105
		c0.287-0.112,0.544-0.292,0.758-0.525L139.843,113.334z M135.407,117.404l6.243-1.149l-5.849,2.292
		C135.652,118.167,135.525,117.789,135.407,117.404z M146.533,119.271c0.137-0.07,0.209-0.216,0.209-0.361l0.244-0.128
		c0.114,0.077,0.265,0.094,0.395,0.025c0.14-0.073,0.217-0.219,0.211-0.364l0.239-0.13c0.12,0.089,0.279,0.107,0.418,0.034
		c0.137-0.074,0.214-0.22,0.202-0.363l0.239-0.127c0.12,0.087,0.281,0.104,0.418,0.03c0.139-0.068,0.213-0.217,0.205-0.36
		l0.244-0.129c0.122,0.082,0.277,0.103,0.412,0.032c0.139-0.071,0.209-0.22,0.209-0.361l0.241-0.128
		c0.119,0.084,0.28,0.102,0.413,0.032c0.137-0.075,0.213-0.22,0.209-0.365l0.112-0.061l-1.445,3.551l-6.775,7.715
		c-0.829-0.58-1.614-1.227-2.35-1.941l5.753-6.56C146.407,119.313,146.474,119.304,146.533,119.271z M149.54,120.515l-3.67,9.009
		c-0.976-0.461-1.92-1.002-2.816-1.623L149.54,120.515z M153.127,116.435l1.076-1.226l0.395,1.364l-1.698,4.173L153.127,116.435z
		 M154.33,115.107c0.074-0.058,0.13-0.129,0.148-0.215l0.173-0.192c0,0.01,0.006,0.022,0.006,0.034
		c0.018-0.006,0.034-0.009,0.06-0.011c0.066,0.041,0.144,0.057,0.223,0.057l0.233,0.377l-0.486,1.195L154.33,115.107z
		 M155.268,115.314l0.89,1.453l-0.211,3.966l-1.193-4.15L155.268,115.314z M156.048,121.612l2.698,9.315
		c-1.063,0.243-2.141,0.401-3.208,0.466L156.048,121.612z M156.307,116.728l0.103-1.903l1.315,1.076l1.705,5.893L156.307,116.728z
		 M157.33,113.979l1.13,0.417l2.355,3.839l-2.959-2.422L157.33,113.979z M157.7,112.885l1.419,0.024l3.489,2.847l-4.053-1.483
		L157.7,112.885z M174.01,109.807l-9.763-0.162l9.202-3.021C173.723,107.678,173.908,108.74,174.01,109.807z M173.406,106.483
		l-9.613,3.158l-4.741-0.079l3.622-2.763l9.703-3.192C172.795,104.55,173.142,105.508,173.406,106.483z M163.034,106.524
		l7.706-5.875c0.142,0.209,0.279,0.425,0.42,0.643c0.435,0.711,0.823,1.441,1.158,2.183L163.034,106.524z M170.655,100.522
		l-8.052,6.146l-4.509,1.476l2.521-3.795l8.139-6.209C169.437,98.874,170.077,99.671,170.655,100.522z M160.868,103.976l5.364-8.098
		c0.849,0.643,1.659,1.363,2.422,2.155L160.868,103.976z M160.252,92.806l-2.521,9.839l-2.626,3.956l-0.375-4.538l2.56-9.944
		C158.292,92.272,159.285,92.503,160.252,92.806z M154.58,102.048l-1.178,4.598l-1.847-4.17l-0.848-10.25
		c1.007-0.187,2.02-0.293,3.035-0.321L154.58,102.048z M143.958,94.829c0.142-0.087,0.297-0.17,0.447-0.257l3.986,9.005
		l-6.665-7.143C142.42,95.857,143.167,95.318,143.958,94.829z M146.066,105.99l-8.644-4.567c0.554-0.927,1.194-1.817,1.911-2.647
		L146.066,105.99z M135.933,104.421l7.439,3.927l-8.187-1.613C135.395,105.948,135.635,105.175,135.933,104.421z M138.773,123.399
		c0.137-0.071,0.216-0.219,0.203-0.367l0.246-0.126c0.111,0.087,0.273,0.106,0.41,0.032c0.137-0.073,0.21-0.217,0.205-0.36
		l0.239-0.129c0.124,0.087,0.278,0.105,0.418,0.029c0.138-0.067,0.216-0.216,0.211-0.364l0.238-0.126
		c0.119,0.085,0.28,0.104,0.416,0.036c0.133-0.074,0.211-0.222,0.206-0.367l0.237-0.125c0.12,0.083,0.276,0.103,0.412,0.028
		c0.143-0.071,0.215-0.213,0.211-0.361l0.244-0.129c0.118,0.087,0.277,0.107,0.413,0.033c0.138-0.071,0.208-0.215,0.208-0.361
		l0.235-0.124c0.035,0.022,0.069,0.044,0.117,0.055c0.095,0.028,0.203,0.024,0.3-0.026c0.139-0.076,0.215-0.219,0.207-0.362
		l0.242-0.131c0.113,0.087,0.279,0.104,0.41,0.032c0.146-0.072,0.216-0.216,0.206-0.358l0.252-0.131
		c0.111,0.085,0.269,0.1,0.405,0.032c0.144-0.075,0.209-0.216,0.209-0.361l0.238-0.128c0.024,0.013,0.04,0.026,0.066,0.035
		l-5.702,6.491c-0.737-0.721-1.413-1.51-2.04-2.356C138.545,123.452,138.659,123.46,138.773,123.399z M152.871,121.196l1.786-4.395
		l1.27,4.379l-0.54,10.219c-1.022,0.059-2.038,0.027-3.049-0.077L152.871,121.196z M163.859,128.98l-4.137-6.718l-1.793-6.199
		l3.125,2.549l5.352,8.692c-0.54,0.421-1.107,0.818-1.705,1.185C164.42,128.663,164.145,128.824,163.859,128.98z M161.168,118.515
		l-2.487-4.037l4.275,1.564l7.909,6.454c-0.558,0.842-1.178,1.649-1.867,2.412L161.168,118.515z M123.484,119.545l-0.022-0.142
		c0.048,0,0.101-0.013,0.15-0.036c0.018-0.009,0.034-0.028,0.054-0.039c-0.036,0.075-0.078,0.144-0.145,0.201
		C123.51,119.539,123.493,119.54,123.484,119.545z M123.762,120.002c0.754,0.111,1.278,0.809,1.172,1.568
		c-0.013,0.059-0.032,0.115-0.043,0.174c-0.346,0.242-0.675,0.463-0.956,0.657l-0.375-2.405
		C123.624,119.996,123.689,119.993,123.762,120.002z M129.549,120.691l0.101,0.266l-0.665,0.26
		C129.178,121.039,129.364,120.869,129.549,120.691z M128.874,107.529c-0.006,0.029-0.006,0.056-0.014,0.084l-0.579-0.08
		l-0.155,1.149l0.579,0.078c-0.006,0.046-0.012,0.086-0.019,0.124l-0.578-0.045l-0.102,1.152l0.58,0.053
		c0,0.041,0,0.083-0.007,0.125l-0.587-0.023l-0.041,1.161l0.585,0.021c0,0.044,0,0.084-0.004,0.125l-0.581,0.01l0.018,1.162
		l0.58-0.01c0.006,0.042,0.006,0.086,0.006,0.126l-0.579,0.037l0.071,1.157l0.579-0.035c0.007,0.039,0.015,0.081,0.02,0.126
		l-0.58,0.064l0.133,1.152l0.577-0.064c0.008,0.042,0.012,0.084,0.018,0.122l-0.572,0.095l0.191,1.148l0.568-0.094
		c0.009,0.039,0.018,0.08,0.028,0.122l-0.574,0.126l0.107,0.479l-0.167,0.056c-0.1-0.14-0.268-0.2-0.441-0.149
		c-0.167,0.055-0.269,0.21-0.269,0.378l-0.214,0.073c-0.104-0.138-0.277-0.209-0.443-0.151c-0.167,0.055-0.27,0.212-0.27,0.377
		l-0.221,0.073c-0.095-0.138-0.277-0.208-0.445-0.151c-0.167,0.053-0.267,0.214-0.267,0.38l-0.216,0.072
		c-0.096-0.139-0.274-0.21-0.442-0.151c-0.168,0.051-0.27,0.212-0.27,0.381l-0.22,0.072c-0.091-0.142-0.271-0.212-0.443-0.154
		c-0.167,0.051-0.275,0.214-0.265,0.383l-0.226,0.07c-0.096-0.099-0.245-0.138-0.384-0.103l-1.983-12.577L128.874,107.529z
		 M121.321,123.322c0,0,0,0,0,0.006l-2.749-0.212c0.005-0.193,0.061-0.377,0.151-0.562c0.351-0.674,1.182-0.939,1.857-0.588
		c0.306,0.157,0.519,0.405,0.634,0.696L121.321,123.322z M76.505,108.043c-2.159,2.36-6.315,2.481-9.777,2.155
		c-3.463-0.327-4.825-1.284-5.697-2.926c-0.8-1.509-2.231-4.397-4.209-8.862l25.965-0.374
		C81.382,100.541,78.327,106.046,76.505,108.043z M70.494,171.355l-0.142,0.339l0.148,0.88l0.013-0.03l0.143,0.862
		c-0.095,0.241-0.193,0.467-0.292,0.677l-1.058-8.94l1.71,7.271c-0.08,0.238-0.155,0.478-0.24,0.694l-0.145-0.846l0.014-0.028
		L70.494,171.355z M68.565,166.023l-0.139-4.617l0.802,3.4l1.104,9.342c-0.215,0.442-0.435,0.816-0.669,1.122L68.565,166.023z
		 M69.623,175.313c-0.251,0.312-0.502,0.554-0.766,0.695l-0.274-9.546L69.623,175.313z M67.309,137.701l-0.048,9.511l-0.742-9.227
		C66.776,137.807,67.045,137.707,67.309,137.701z M68.138,137.951c0.269,0.168,0.54,0.423,0.802,0.771l-0.842,8.664L68.138,137.951z
		 M68.058,147.781l-0.414,4.18l-0.35-4.322l0.055-9.946c0.162,0,0.33,0.034,0.498,0.099c0.088,0.037,0.17,0.082,0.254,0.133
		L68.058,147.781z M70.734,148.356l-1.18,2.416l1.317-5.804C70.818,146.107,70.775,147.255,70.734,148.356z M70.722,148.538
		c-0.053,1.388-0.102,2.682-0.137,3.765l-0.671,1.36l-1.146,0.593l0.723-3.172L70.722,148.538z M70.543,153.342l-0.516,0.271
		l0.544-1.129C70.561,152.788,70.548,153.077,70.543,153.342z M63.423,146.577c0.119-0.847,0.258-1.636,0.406-2.373l2.086,6.162
		l0.629,3.447l-1.478-2.4L63.423,146.577z M64.935,151.203l-1.732-2.812c0.06-0.587,0.13-1.147,0.208-1.691L64.935,151.203z
		 M66.477,138.011l0.784,9.639l-0.029,4.591l-0.678-3.754l-0.789-9.724C65.999,138.441,66.238,138.19,66.477,138.011z
		 M69.579,158.67l-0.282-0.619l0.105-0.007L69.579,158.67z M67.422,154.636l0.071-0.729l0.083,0.475l-0.032,0.172
		c-0.04,0.034-0.069,0.08-0.098,0.142L67.422,154.636z M67.219,155.064v0.388c-0.013,0.069-0.026,0.146-0.031,0.227h-0.018
		l-0.036-0.009l-0.072-0.863L67.219,155.064z M67.05,154.633l-0.1-1.223l0.276,0.811v0.694L67.05,154.633z M67.254,155.254v-0.129
		l0.017,0.029C67.267,155.184,67.267,155.222,67.254,155.254z M67.226,154.05l-0.293-0.864l-0.348-4.274l0.647,3.562L67.226,154.05z
		 M67.003,154.563l-0.395-0.651l-0.599-3.273l0.894,2.629L67.003,154.563z M67.016,154.737l0.077,0.919l-0.18-0.046l-0.268-1.482
		L67.016,154.737z M67.219,158.326l0.035,0.057c0.031,0.151,0.062,0.286,0.096,0.411v0.036l-0.21-0.057L67.219,158.326z
		 M67.38,158.982l0.036,0.009c0.043,0.107,0.077,0.206,0.128,0.287v0.026l-0.194,0.208L67.38,158.982z M67.638,154.481l-0.008-0.08
		l0.127-0.58l0.047,0.547l-0.054,0.104C67.713,154.462,67.674,154.466,67.638,154.481z M67.786,153.699l0.24-1.069l-0.008,1.288
		l-0.184,0.386L67.786,153.699z M67.847,154.527v-0.078l0.17-0.363v0.56l-0.051,0.022v-0.009
		C67.923,154.601,67.887,154.563,67.847,154.527z M68.467,155.563l0.008-0.029l0.029,0.026L68.467,155.563z M68.415,155.569
		l-0.156,0.01c-0.007-0.061-0.024-0.115-0.036-0.179l0.005-0.063l0.205,0.161L68.415,155.569z M68.211,158.931
		c0.035-0.122,0.066-0.257,0.09-0.412l0.013,0.007l0.016,0.802l-0.124-0.283L68.211,158.931z M68.355,158.11l0.078-0.003
		l0.055,0.411l-0.146-0.112l-0.005-0.128C68.349,158.223,68.349,158.166,68.355,158.11z M68.504,158.68l0.167,1.404l-0.306-0.668
		l-0.016-0.861L68.504,158.68z M68.475,158.1l0.209-0.012l0.166,0.733l-0.328-0.267L68.475,158.1z M68.665,155.543l-0.161-0.129
		l0.22-0.991l1.097-0.56l-0.807,1.651L68.665,155.543z M68.461,155.38l-0.222-0.174l0.057-0.561l0.375-0.192L68.461,155.38z
		 M68.271,154.514l-0.213,0.109v-0.612l0.327-0.669L68.271,154.514z M68.252,154.668l-0.046,0.505l-0.049-0.041
		c-0.035-0.103-0.065-0.199-0.1-0.284v-0.077L68.252,154.668z M68.032,152.4l-0.264,1.135l-0.108-1.35l0.389-3.966L68.032,152.4z
		 M67.744,153.658l-0.135,0.613l-0.104-0.521l0.133-1.352L67.744,153.658z M67.481,153.612l-0.214-1.176l0.024-4.362l0.333,4.096
		L67.481,153.612z M67.468,153.764l-0.075,0.779l-0.132-0.386l0.006-1.492L67.468,153.764z M67.38,154.674l-0.018,0.2
		c-0.024,0.055-0.036,0.118-0.053,0.178l-0.055-0.077l0.007-0.65L67.38,154.674z M66.485,148.116l-1.454-7.997
		c0.214-0.499,0.441-0.927,0.681-1.275c0.011-0.01,0.018-0.017,0.024-0.026L66.485,148.116z M66.519,148.541l0.364,4.501
		l-0.944-2.773l-1.531-8.428c0.186-0.618,0.383-1.167,0.593-1.655L66.519,148.541z M65.849,149.996l-1.996-5.897
		c0.156-0.792,0.333-1.514,0.533-2.169L65.849,149.996z M66.579,154.029l0.288,1.569l-0.42-0.116l-1.267-3.731L66.579,154.029z
		 M66.771,155.715l-0.241,0.022l-0.029-0.097L66.771,155.715z M67.135,158.185l0.047,0.083l-0.082,0.498l-0.384-0.108l0.167-0.457
		L67.135,158.185z M67.124,158.913l0.214,0.06l-0.029,0.589l-0.359,0.39L67.124,158.913z M67.338,159.678l0.206-0.226l0.016,0.616
		l-0.293,0.844L67.338,159.678z M67.613,159.38c0.042,0.06,0.088,0.099,0.137,0.116l0.007,0.024l-0.156,0.45l-0.024-0.559
		L67.613,159.38z M67.823,159.517c0.048-0.004,0.095-0.032,0.144-0.077l0.006,0.013l-0.108,0.641l-0.061-0.518L67.823,159.517z
		 M68.032,159.362c0.047-0.07,0.084-0.154,0.125-0.264v0.01l-0.042,0.765l-0.101-0.427L68.032,159.362z M68.2,159.183l0.137,0.313
		l0.043,1.502l-0.235-0.992L68.2,159.183z M68.372,159.585l0.324,0.708l0.484,4.104l-0.76-3.226L68.372,159.585z M68.547,158.716
		l0.344,0.28l0.791,3.364l-0.965-2.161L68.547,158.716z M68.73,158.088l0.502-0.032l0.467,1.055l0.149,0.508l-0.94-0.752
		L68.73,158.088z M70.508,154.249l-0.306,0.045l-0.867,1.192l-0.232,0.019l0.831-1.7l0.602-0.315
		C70.524,153.771,70.513,154.029,70.508,154.249z M68.708,154.287l-0.394,0.201l0.119-1.253l0.956-1.955L68.708,154.287z
		 M68.407,153.132l-0.345,0.713l0.005-1.382l0.707-3.136L68.407,153.132z M62.968,151.423l2.297,3.734l-2.4-0.657
		C62.873,153.471,62.908,152.444,62.968,151.423z M62.968,151.28c0.037-0.637,0.083-1.272,0.137-1.898
		c0.03-0.293,0.053-0.576,0.083-0.861l1.859,3.015l1.334,3.929l-1.004-0.271L62.968,151.28z M66.435,155.623l0.042,0.12
		l-0.716,0.064l-0.275-0.447L66.435,155.623z M65.591,158.278l1.221-0.071l-0.156,0.437l-1.116-0.307L65.591,158.278z
		 M66.667,158.793l0.407,0.105l-0.185,1.115l-1.045,1.143L66.667,158.793z M66.919,160.139l0.375-0.416l-0.075,1.324l-0.866,2.467
		L66.919,160.139z M67.254,161.136l0.311-0.894l0.043,1.382l-0.592,3.521L67.254,161.136z M67.601,160.142l0.167-0.484l0.074,0.577
		l-0.204,1.202L67.601,160.142z M67.858,160.394l0.157,1.294l-0.247,4.186l-0.124-4.203L67.858,160.394z M67.882,160.258
		l0.112-0.692l0.113,0.473l-0.09,1.428L67.882,160.258z M68.138,160.171l0.253,1.06l0.125,4.382l-0.467-3.929L68.138,160.171z
		 M69.257,164.733l-0.508-4.32l1.013,2.281l1.803,7.676c-0.166,0.712-0.339,1.365-0.524,1.957L69.257,164.733z M69.867,162.92
		l2.17,4.884c-0.13,0.883-0.28,1.707-0.449,2.466L69.867,162.92z M69.782,162.584l-0.83-3.54l0.951,0.764l0.111,0.412l0.181-0.004
		l2.178,4.877c-0.083,0.913-0.199,1.774-0.312,2.586L69.782,162.584z M70.268,160.212h0.137l2.189,1.765
		c-0.039,0.854-0.088,1.698-0.169,2.534c-0.011,0.151-0.021,0.3-0.042,0.453L70.268,160.212z M70.585,160.212l0.49-0.002l0.903-1.1
		l0.694-0.021c0,0.551-0.024,1.101-0.037,1.648c-0.018,0.366-0.018,0.733-0.028,1.102L70.585,160.212z M70.878,144.693l-1.416,6.275
		l-1.013,2.063l0.4-4.018l1.621-7.169c0.167,0.475,0.317,0.981,0.465,1.518C70.918,143.802,70.894,144.246,70.878,144.693z
		 M68.885,148.618l0.845-8.596c0.25,0.511,0.49,1.091,0.711,1.735L68.885,148.618z M68.816,148.928l-0.749,3.307l0.024-4.411
		l0.883-9.057c0.108,0.146,0.222,0.303,0.33,0.479c0.13,0.212,0.264,0.455,0.388,0.711L68.816,148.928z M50.612,81.418
		c-0.863-2.185-2.033-7.578-2.033-7.578c0.927,0.386,0.652,0.592,1.743,1.964c1.096,1.379,2.597,2.788,4.443,4.031
		c1.841,1.242,4.64,1.042,4.64,1.042s0.914,0.576,2.463,1.719c1.542,1.148,2.469,1.799,4.221,3.7
		c1.745,1.903,2.461,2.299,4.227,3.019c1.77,0.72,3.761,1.237,5.797,0.224c2.041-1.018,3.27-1.934,4.425-3.43
		c1.149-1.5,0.61-3.608,0.372-5.267c-0.233-1.666-1.083-3.41-1.656-4.363c-0.581-0.955-0.969-1.921-1.513-3.3
		c-0.544-1.383-1.489-3.055-2.375-4.625c-0.884-1.566-2.222-5.081-2.712-6.095c-0.491-1.013-3.121-4.455-3.912-5.596
		c-0.793-1.143-1.273-2.613-1.45-3.435c-0.18-0.822,0.919-2.126,1.027-3.114c0.107-0.989-1.756-1.946-1.756-1.946
		c0.458-0.634,0.435-1.366,0.435-1.366c0.066-1.819-0.892-3.704-1.267-4.546c-0.372-0.843,1.507-1.113,2.881-0.948
		c1.375,0.165,2.433-0.239,3.323-0.475c0.892-0.239,1.7-1.736,1.7-1.736s0.263,1.077,0.516,1.966c0.256,0.89,1.588,1.53,2.342,2.305
		c0.752,0.767,1.307,2.118,1.619,2.639c0.311,0.52,0.784,0.218,0.784,0.218s0.584,0.67,1.789,2.727
		c1.206,2.057,3.967,5.453,4.9,6.778c0.936,1.329,1.413,2.366,1.567,2.886c0.158,0.521,1.244,2.014,2.18,3.386
		c0.94,1.371,0.762,1.528,1.383,3.452c0.614,1.925,1.918,4.024,2.682,5.422c0.768,1.396,2.477,4.769,3.164,6.46
		c0.694,1.692,0.998,4.875,1.094,5.811c0.104,0.942-2.534,3.265-3.042,4.114c-0.055,0.08-0.097,0.179-0.146,0.282
		c-4.626,0.342-7.112,2.327-7.112,2.327l0.101,0.762c0,0-2.218,3.241-3.456,5.167l-28.063,0.407
		c-1.272-2.758-2.266-4.025-2.833-4.587c-0.072-0.857-0.148-1.629-0.229-2.173C52.625,87.939,51.467,83.605,50.612,81.418z
		 M55.891,113.641c-0.299-2.126-0.771-6.041-1.306-8.623c-0.538-2.588-1.027-5.979-1.128-7.848c-0.018-0.306-0.036-0.669-0.06-1.072
		c0.424,0.835,1.082,2.229,1.93,4.243c1.507,3.603,3.771,8.551,5.613,10.241c1.849,1.692,4.442,1.585,4.442,1.585l-0.448,0.663
		l-0.011,0.803l0.472,0.552l-0.161,8.571l-0.629,0.754v1.459l0.419-0.06l-0.072,0.691l-1.465,1.085
		c-3.718,2.711-4.477,7.085-4.638,8.898c-0.217-1.105-0.423-2.132-0.575-2.712c-0.317-1.225-1.769-8.201-1.763-10.132
		C56.515,120.801,56.195,115.763,55.891,113.641z M62.865,154.646l2.513,0.689l0.292,0.479l-2.804,0.252
		C62.86,155.589,62.86,155.116,62.865,154.646z M65.442,158.29l-0.009,0.016l-0.038-0.011L65.442,158.29z M62.925,158.447
		l2.04-0.128l0.359,0.096l-2.253,2.46C63.004,160.074,62.961,159.27,62.925,158.447z M63.082,161.017l2.355-2.569l1.178,0.323
		l-0.878,2.498l-2.38,2.596C63.248,162.94,63.158,161.986,63.082,161.017z M63.375,163.998l2.278-2.479l-1.866,5.3
		C63.631,165.914,63.494,164.974,63.375,163.998z M63.813,166.942l1.943-5.536l1.104-1.207l-0.592,3.562l-1.966,5.593
		C64.122,168.594,63.96,167.785,63.813,166.942z M64.331,169.463l1.877-5.352l-1.26,7.569
		C64.719,171.001,64.522,170.258,64.331,169.463z M64.97,171.771l1.323-7.907l0.913-2.602l-0.245,4.236l-1.333,7.979
		C65.399,172.968,65.179,172.395,64.97,171.771z M66.232,174.644c-0.196-0.319-0.388-0.693-0.568-1.092l1.271-7.638l-0.519,9
		C66.353,174.827,66.293,174.736,66.232,174.644z M66.446,174.971l0.551-9.407l0.616-3.706l0.13,4.431l-0.55,9.508
		C66.944,175.6,66.693,175.322,66.446,174.971z M67.232,175.823l0.525-9.098l0.281,9.456c-0.196-0.027-0.394-0.091-0.592-0.209
		C67.374,175.934,67.303,175.879,67.232,175.823z M67.781,166.311l0.257-4.407l0.49,4.149l0.292,9.973
		c-0.245,0.129-0.495,0.184-0.748,0.16L67.781,166.311z M68.909,119.323l-0.045-0.203l0.052-1.536l49.596-11.893l2.243,14.031
		c-0.114-0.091-0.275-0.115-0.413-0.052c-0.132,0.058-0.202,0.174-0.221,0.303c-0.041-0.051-0.077-0.105-0.102-0.168
		c-0.013,0.007-0.018,0.009-0.03,0.02c-0.124,0.075-0.252,0.152-0.364,0.231c0.03,0.029,0.041,0.074,0.072,0.111
		c-0.042,0.005-0.072,0.008-0.103,0.024c-0.2,0.097-0.286,0.328-0.191,0.524c0.048,0.104,0.138,0.174,0.233,0.206
		c-0.03,0.035-0.06,0.071-0.096,0.1c-0.006-0.029-0.006-0.064-0.026-0.096c-0.093-0.197-0.321-0.28-0.523-0.188
		c-0.107,0.05-0.186,0.152-0.21,0.266c-0.041-0.032-0.088-0.064-0.127-0.109c-0.101,0.115-0.207,0.233-0.303,0.36
		c0.055,0.028,0.096,0.074,0.146,0.118c-0.021,0.005-0.031,0.005-0.044,0.011c-0.196,0.094-0.287,0.328-0.193,0.526
		c0.061,0.133,0.198,0.214,0.336,0.22c-0.019,0.033-0.028,0.059-0.055,0.087c-0.099-0.163-0.315-0.234-0.494-0.147
		c-0.138,0.061-0.217,0.193-0.221,0.335c-0.056-0.023-0.115-0.042-0.161-0.074c-0.067,0.142-0.132,0.289-0.192,0.435
		c0.04,0.007,0.065,0.028,0.097,0.044c-0.066,0.057-0.114,0.134-0.131,0.221L68.909,119.323z M119.093,127.259
		c-0.019-0.383,0.125-0.775,0.431-1.056c0.186-0.177,0.401-0.283,0.632-0.338l0.068,0.007L119.093,127.259z M123.612,128.567
		c-0.39-0.657-0.172-1.508,0.484-1.897c0.652-0.386,1.499-0.17,1.889,0.486c0.394,0.657,0.173,1.507-0.484,1.893
		C124.851,129.439,124,129.221,123.612,128.567z M125.895,129.665c-0.077-0.074-0.179-0.111-0.278-0.105
		c0.142-0.078,0.327-0.095,0.494-0.036c0.012,0.006,0.025,0.019,0.031,0.022L125.895,129.665z M126.762,129.211
		c-0.035-0.024-0.063-0.039-0.113-0.049c-0.004-0.038-0.018-0.071-0.018-0.109c0.014-0.352,0.318-0.623,0.67-0.603
		c0.169,0.007,0.304,0.085,0.412,0.19l-0.108,0.059c-0.118-0.085-0.273-0.104-0.411-0.03c-0.15,0.081-0.229,0.246-0.205,0.403
		L126.762,129.211z M127.833,128.576c0.008-0.009,0.012-0.018,0.024-0.028c0,0.007-0.007,0.016-0.007,0.02L127.833,128.576z
		 M131.916,126.403c-0.119-0.084-0.282-0.104-0.414-0.031c-0.135,0.073-0.209,0.217-0.201,0.358l-0.244,0.13
		c-0.122-0.081-0.282-0.1-0.421-0.029c-0.131,0.073-0.202,0.216-0.197,0.357l-0.25,0.132c-0.114-0.083-0.27-0.103-0.406-0.028
		c-0.138,0.07-0.211,0.212-0.211,0.354l-0.244,0.132c-0.121-0.079-0.274-0.1-0.411-0.024c-0.132,0.07-0.204,0.212-0.204,0.35
		l-0.246,0.136c-0.121-0.083-0.273-0.102-0.412-0.028c-0.025,0.012-0.035,0.032-0.061,0.048c-0.152-0.083-0.285-0.22-0.334-0.409
		c-0.083-0.342,0.128-0.686,0.474-0.769c0.172-0.049,0.353-0.014,0.494,0.076c0.06-0.147,0.107-0.299,0.157-0.446
		c-0.197-0.021-0.371-0.13-0.484-0.307c-0.174-0.305-0.078-0.699,0.233-0.88c0.149-0.093,0.32-0.111,0.483-0.066
		c0.02-0.162,0.025-0.315,0.02-0.471c-0.188,0.032-0.385-0.021-0.54-0.158c-0.259-0.24-0.274-0.646-0.036-0.907
		c0.12-0.132,0.283-0.196,0.447-0.205c-0.017-0.065-0.033-0.13-0.054-0.193l2.154-0.857v0.007l-0.527,0.261l0.521,1.043l0.524-0.266
		c0.02,0.037,0.042,0.073,0.062,0.111l-0.512,0.286l0.571,1.014l0.508-0.289c0.022,0.039,0.042,0.071,0.066,0.105l-0.497,0.315
		l0.504,0.793c-0.043,0.07-0.073,0.148-0.066,0.226L131.916,126.403z"/>
</g>
</svg>
