<?xml version="1.0" encoding="utf-8"?>
<!-- Generator: Adobe Illustrator 14.0.0, SVG Export Plug-In . SVG Version: 6.00 Build 43363)  -->
<!DOCTYPE svg PUBLIC "-//W3C//DTD SVG 1.1//EN" "http://www.w3.org/Graphics/SVG/1.1/DTD/svg11.dtd">
<svg version="1.1" id="Layer_1" xmlns="http://www.w3.org/2000/svg" xmlns:xlink="http://www.w3.org/1999/xlink" x="0px" y="0px"
	 width="200px" height="200px" viewBox="0 0 200 200" enable-background="new 0 0 200 200" xml:space="preserve">
<g>
	<path fill="#666666" d="M46.213,125.472H32.056v1.538H46.42C46.313,126.51,46.243,125.996,46.213,125.472z"/>
	<ellipse fill="#CCCCCC" cx="28.594" cy="124.32" rx="2.582" ry="1.152"/>
	<ellipse fill="#E6E6E6" cx="23.979" cy="120.968" rx="4.176" ry="1.483"/>
	<ellipse fill="#F2F2F2" cx="18.596" cy="117.122" rx="5.413" ry="1.923"/>
	<path fill="#FBD43C" d="M182.104,95.418h-14.775V80.279c0-3.077-2.496-5.572-5.573-5.572H40.514c-3.077,0-5.572,2.495-5.572,5.572
		v38.637c0,3.077,2.495,5.571,5.572,5.571h111.674h9.566h20.349c3.077,0,5.572-2.733,5.572-6.106v-16.856
		C187.676,98.153,185.181,95.418,182.104,95.418z"/>
	<path fill="#FFFFFF" d="M56.017,93.905c0,1.171-0.949,2.119-2.119,2.119H40.332c-1.171,0-2.12-0.948-2.12-2.119V80.339
		c0-1.17,0.949-2.12,2.12-2.12h13.566c1.17,0,2.119,0.95,2.119,2.12V93.905z"/>
	<path fill="#FFFFFF" d="M77.492,93.905c0,1.171-0.949,2.119-2.119,2.119H61.807c-1.171,0-2.12-0.948-2.12-2.119V80.339
		c0-1.17,0.949-2.12,2.12-2.12h13.566c1.17,0,2.119,0.95,2.119,2.12V93.905z"/>
	<path fill="#FFFFFF" d="M98.967,93.905c0,1.171-0.948,2.119-2.119,2.119H83.281c-1.171,0-2.119-0.948-2.119-2.119V80.339
		c0-1.17,0.948-2.12,2.119-2.12h13.566c1.171,0,2.119,0.95,2.119,2.12V93.905z"/>
	<path fill="#FFFFFF" d="M120.441,93.905c0,1.171-0.948,2.119-2.119,2.119h-13.565c-1.172,0-2.119-0.948-2.119-2.119V80.339
		c0-1.17,0.947-2.12,2.119-2.12h13.565c1.171,0,2.119,0.95,2.119,2.12V93.905z"/>
	<path fill="#FFFFFF" d="M141.916,93.905c0,1.171-0.948,2.119-2.119,2.119h-13.565c-1.171,0-2.12-0.948-2.12-2.119V80.339
		c0-1.17,0.949-2.12,2.12-2.12h13.565c1.171,0,2.119,0.95,2.119,2.12V93.905z"/>
	<path fill="#FFFFFF" d="M163.392,93.905c0,1.171-0.949,2.119-2.12,2.119h-13.565c-1.171,0-2.119-0.948-2.119-2.119V80.339
		c0-1.17,0.948-2.12,2.119-2.12h13.565c1.171,0,2.12,0.95,2.12,2.12V93.905z"/>
	<g>
		<circle fill="#010101" cx="166.054" cy="122.28" r="10.013"/>
		<circle fill="#666666" cx="166.054" cy="123.276" r="4.721"/>
		<circle fill="#010101" cx="167.061" cy="121.272" r="1.424"/>
	</g>
	<g>
		<circle fill="#010101" cx="54.137" cy="122.28" r="10.013"/>
		<circle fill="#666666" cx="53.141" cy="122.279" r="4.721"/>
		<circle fill="#010101" cx="55.145" cy="123.286" r="1.424"/>
	</g>
	<g>
		<circle fill="#010101" cx="75.213" cy="122.28" r="10.013"/>
		<circle fill="#666666" cx="75.917" cy="122.984" r="4.72"/>
		<circle fill="#010101" cx="75.213" cy="120.855" r="1.424"/>
	</g>
	<path fill="#666666" d="M190.408,117.581c0,1.169-0.949,2.118-2.119,2.118H178.9c-1.17,0-2.119-0.949-2.119-2.118v-1.532
		c0-1.17,0.949-2.119,2.119-2.119h9.389c1.17,0,2.119,0.949,2.119,2.119V117.581z"/>
	<path fill="#666666" d="M43.557,117.581c0,1.169-0.949,2.118-2.119,2.118h-6.967c-1.17,0-2.119-0.949-2.119-2.118v-1.532
		c0-1.17,0.949-2.119,2.119-2.119h6.967c1.17,0,2.119,0.949,2.119,2.119V117.581z"/>
	<rect x="38.212" y="98.271" fill="#F15C27" width="96.124" height="1.504"/>
	<rect x="145.587" y="98.271" fill="#C1282D" width="5.396" height="1.504"/>
	<rect x="38.212" y="100.694" fill="#F79421" width="88.912" height="1.504"/>
	<rect x="38.212" y="103.116" fill="#FBB03C" width="80.919" height="1.504"/>
	<circle fill="#F15C27" cx="187.531" cy="110.056" r="2.082"/>
	<circle fill="#F15C27" cx="34.942" cy="110.298" r="2.082"/>
	<circle fill="#EC2227" cx="187.531" cy="104.483" r="2.082"/>
</g>
</svg>
