<?xml version="1.0" encoding="utf-8"?>
<!-- Generator: Adobe Illustrator 14.0.0, SVG Export Plug-In . SVG Version: 6.00 Build 43363)  -->
<!DOCTYPE svg PUBLIC "-//W3C//DTD SVG 1.1//EN" "http://www.w3.org/Graphics/SVG/1.1/DTD/svg11.dtd">
<svg version="1.1" id="Layer_1" xmlns="http://www.w3.org/2000/svg" xmlns:xlink="http://www.w3.org/1999/xlink" x="0px" y="0px"
	 width="200px" height="200px" viewBox="0 0 200 200" enable-background="new 0 0 200 200" xml:space="preserve">
<g>
	<path fill="#010101" d="M161.554,72.501c0.217-0.562,0.444-1.151,0.619-1.75c1.101,0.298,2.438,0.242,3.51,0.208
		c1.682-0.057,3.358-0.348,4.989-0.735c3.368-0.798,6.576-2.266,9.512-4.049c5.682-3.453,10.287-8.479,12.423-14.73
		c4.494-13.141-3.439-27.849-16.149-33.145c-0.14-0.056-0.282-0.112-0.422-0.167c-0.481-0.194-0.89,0.273-0.807,0.637
		c-1.025,0.901-1.629,2.123-2.342,3.275c-1.122,1.816-2.453,3.534-3.732,5.248c-2.616,3.508-5.389,6.905-8.025,10.396
		c-1.314-1.417-2.75-2.742-4.016-4.206c-1.813-2.103-3.411-4.358-4.807-6.744c-0.619-1.059-1.149-2.188-1.699-3.283
		c-0.371-0.739-0.729-1.482-1.035-2.249c-0.085-0.215-0.175-0.426-0.246-0.648c-0.027-0.086-0.046-0.143-0.063-0.185
		c0.079-0.176-0.081-0.421-0.334-0.375c-0.089,0.019-0.157,0.058-0.21,0.117c-2.687-0.225-4.969,1.127-7.134,2.574
		c-2.555,1.707-4.991,3.535-7.19,5.669c-4.414,4.286-7.542,9.853-7.594,16.03c-0.052,5.882,2.655,11.652,6.409,16.135
		c4.203,5.018,9.89,7.851,16.234,9.458c-0.083,0.308-0.156,0.609-0.223,0.904c-0.552,2.481-0.85,5.063-1.133,7.58
		c-0.33,2.948-0.789,6.529,0.142,9.408c-0.523,0.286-1.021,0.644-1.464,1.019c-1.702,1.441-3.218,3.227-4.773,4.814
		c-1.309,1.336-2.73,2.866-3.659,4.555c-2.196-1.69-4.539-3.198-6.958-4.518c-6.989-3.808-13.55-5.294-21.463-4.816
		c-0.291-1.528-0.864-3.165-0.732-4.668c5.059-1.006,7.98-3.048,9.897-7.801c2.76-6.838-1.119-13.67-8.633-14.912
		c-0.524-0.12-1.043-0.217-1.548-0.283c-5.482-0.722-11.038,2.348-12.409,7.721c-0.01,0.04-0.012,0.077-0.015,0.113
		c-0.973,2.855-0.746,6.099,0.803,8.917c1.735,3.154,4.817,5.254,8.237,6c-0.537,1.935,0.124,4.344,0.735,6.357
		c-5.355,0.413-10.606,1.17-15.833,2.418c-1.601,0.382-3.225,0.791-4.771,1.357c-0.308,0.113-0.947,0.292-1.386,0.583
		c-0.335-0.71-0.644-1.43-0.988-2.14c-0.58-1.191-1.059-2.408-1.439-3.674c-0.113-0.383-0.208-0.864-0.406-1.249
		c2.848-2.053,4.296-6.862,4.191-10.035c-0.188-5.542-7.582-9.989-12.546-7.082c-3.843,2.253-5.324,8.004-3.808,11.968
		c0.935,2.449,2.959,4.297,5.344,5.401c0.511,0.236,1.523,0.577,2.571,0.751c0.081,2.254,0.918,4.578,1.561,6.691
		c0.118,0.394,0.241,0.817,0.37,1.256c-0.014,0.002-0.026,0.003-0.04,0.013c-5.402,2.74-9.699,6.41-12.869,11.275
		c-1.733-1.439-3.622-2.757-5.494-4.016c-0.869-0.58-1.754-1.143-2.708-1.525c-0.016-0.062-0.04-0.117-0.076-0.179
		c-1.608-2.574-3.626-4.948-5.47-7.371c-0.361-0.475-0.742-0.958-1.139-1.434c2.727-2.112,5.352-4.376,7.095-7.361
		c1.421-2.437,1.995-5.245,1.985-8.025c-0.021-5.912-3.208-11.674-7.323-15.844c-4.462-4.523-10.631-6.927-16.984-7.356
		c-3.145-0.213-6.408,0.156-9.449,0.954c-2.51,0.657-4.649,1.912-5.942,4.138c-0.108-0.112-0.321-0.102-0.362,0.088
		c-0.427,1.976,0.063,4.129,0.48,6.074c0.44,2.05,0.989,4.074,1.436,6.123c0.418,1.916,0.828,3.829,1.503,5.676
		c0.202,0.555,0.462,1.247,0.813,1.879c-0.421-0.135-0.843-0.259-1.242-0.387c-1.602-0.513-3.271-0.929-4.948-1.119
		c-3.303-0.372-6.796-1.026-10.108-0.481c-0.076,0.013-0.13,0.047-0.175,0.093C8.013,77.85,7.942,77.9,7.91,77.994
		c-2.88,8.574,0.28,18.112,7.342,23.811c3.825,3.084,8.778,4.882,13.685,5.369c2.441,0.24,4.906-0.005,7.217-0.817
		c2.328-0.816,4.935-2.257,6.791-3.844c1.005,0.902,2.059,1.752,3.149,2.56c1.159,0.853,2.379,1.624,3.655,2.307
		c0.96,0.517,2.08,1.127,3.206,1.207c0.966,1.709,2.717,3.111,4.151,4.419c0.96,0.874,1.955,1.719,2.989,2.513
		c0.552,0.42,1.277,0.989,2.016,0.996c-0.43,1.275-0.805,2.568-1.124,3.876c-0.038-0.014-0.083-0.019-0.127-0.004
		c-1.424,0.42-3.046,0.307-4.517,0.51c-1.399,0.19-2.8,0.425-4.172,0.758c-2.592,0.63-4.898,1.601-7.111,3.064
		c-2.07,1.369-3.897,3.124-5.295,5.148c-1.397,2.031-1.636,3.729-0.831,6.026c0.083,0.235,0.394,0.252,0.548,0.085
		c1.121-1.207,2.009-2.591,3.157-3.778c1.447-1.502,3.539-2.595,5.409-3.494c3.553-1.709,7.893-2.507,11.852-1.983
		c-0.225,2.09-0.319,4.187-0.283,6.257c0.002,0.12,0.007,0.238,0.009,0.356c-0.784-0.11-1.787,0.148-2.419,0.267
		c-1.544,0.295-2.975,0.916-4.335,1.674c-2.888,1.613-5.137,4.257-6.894,6.967c-1.73,2.672-2.908,5.715-3.319,8.854
		c-0.191,1.478-0.46,4.693,1.69,4.929c0.021,0.006,0.041-0.001,0.059-0.004c0.055,0.062,0.182,0.056,0.194-0.043
		c0.002-0.028,0.007-0.052,0.012-0.08c0.042-0.071,0.054-0.153,0.03-0.228c0.512-3.753,2.5-7.415,4.767-10.431
		c2.377-3.16,6.369-7.059,10.622-7.345c0.507,3.312,1.494,6.538,3.053,9.492c-2.057-0.013-4.283,1.604-5.745,2.702
		c-2.41,1.812-4.599,4.1-6.221,6.602c-1.643,2.546-2.375,5.426-2.897,8.355c-0.229,1.287-0.321,2.681,0.21,3.9
		c0.398,0.921,1.633,0.971,2.486,1.043c0.116,0.008,0.201-0.04,0.257-0.11c0.057-0.015,0.109-0.054,0.111-0.125
		c0.116-3.501,1.721-7.16,3.414-10.192c2.149-3.855,6.014-7.716,10.693-8.194c0.089-0.013,0.167-0.036,0.231-0.068
		c0.302,0.377,0.614,0.751,0.94,1.113c1.487,1.662,3.199,3.088,5.052,4.315c-5.158,2.806-7.942,8.197-9.352,13.571
		c-0.692,2.635-2.538,9.222,2.068,9.364c0.137,0.004,0.28-0.129,0.295-0.257c0.469-4.003,1.189-7.972,3.036-11.614
		c1.667-3.281,4.216-7.248,7.729-8.845c0.021-0.009,0.037-0.021,0.056-0.033c2.932,1.436,6.07,2.503,9.191,3.306
		c6.254,1.608,12.86,2.182,19.313,2.338c6.341,0.152,12.729-0.326,18.93-1.644c6.207-1.322,12.308-3.607,17.487-7.234
		c2.408-1.688,4.536-3.659,6.36-5.861c1.03,0.176,3.455,0.611,3.801,0.684c1.948,0.405,3.742,1.118,5.496,2.047
		c5.149,2.729,9.747,8.019,9.569,13.989c-0.002,0.063,0.009,0.118,0.028,0.167c-0.017,0.016-0.033,0.026-0.049,0.039
		c-0.225,0.207-0.189,0.68,0.192,0.698c1.408,0.069,2.821-1.151,3.792-2.033c0.987-0.895,1.936-2.17,1.835-3.56
		c-0.231-3.118-2.666-6.48-4.885-8.611c-4.375-4.207-11.065-7.134-17.34-6.786c1.125-1.776,2.079-3.663,2.851-5.646
		c0.433-1.105,0.791-2.227,1.088-3.359c1.464-0.015,2.904-0.041,4.37,0.147c1.779,0.228,3.518,0.709,5.213,1.256
		c2.81,0.912,5.556,2.114,8.159,3.485c2.477,1.309,4.806,2.886,6.854,4.771c1.039,0.957,1.948,2.038,2.739,3.198
		c0.812,1.187,1.151,2.526,1.832,3.756c0.165,0.297,0.622,0.217,0.743-0.057c0.125-0.037,0.236-0.122,0.312-0.271
		c1.577-3.064,2.725-6.759,1.114-10.023c-1.476-2.997-4.986-4.647-7.923-5.934c-4.175-1.831-8.686-2.89-13.197-3.561
		c-1.981-0.295-3.981-0.623-5.98-0.723c-0.934-0.047-2.441-0.09-3.514,0.345c0.435-3.074,0.428-6.195,0.024-9.278
		c1.003-0.132,2.256-0.774,3.173-1.004c1.664-0.418,3.435-0.519,5.146-0.585c3.497-0.14,7.068,0.201,10.508,0.805
		c6.389,1.124,11.959,4.198,17.646,7.071c0.043,0.021,0.085,0.033,0.123,0.04c0.281,0.26,0.824,0.227,0.866-0.241
		c0.146-1.709,0.722-3.484,0.109-5.173c-0.526-1.446-1.519-1.985-2.847-2.66c-3.771-1.917-8.142-2.744-12.311-3.369
		c-4.495-0.673-9.1-0.619-13.589,0.045c-1.961,0.288-3.93,0.689-5.847,1.186c-1.017,0.264-2.37,0.651-3.408,1.296
		c-0.627-3.086-1.641-6.104-2.994-8.955c0.921-0.611,1.979-1.009,3.027-1.377c1.413-0.498,2.805-1.051,4.234-1.503
		c3.4-1.067,6.961-1.549,10.512-1.837c3.078-0.256,6.176-0.321,9.255-0.058c3.323,0.279,6.212,1.242,9.269,2.456
		c0.331,0.135,0.609-0.271,0.43-0.52c0.082-0.685-0.365-1.568-0.603-2.175c-0.222-0.573-0.536-1.291-1.003-1.719
		c-0.062-0.054-0.148-0.037-0.208,0.012c-5.776-2.044-12.666-1.496-18.646-0.798c-3.166,0.373-6.282,1.082-9.302,2.083
		c-1.487,0.493-2.951,1.076-4.36,1.746c-1.061,0.506-2.646,1.202-3.496,1.932c-0.836-1.558-1.773-3.064-2.813-4.49
		c-0.848-1.169-1.769-2.285-2.748-3.353c2.654-2.356,5.19-4.921,7.536-7.58c1.374-1.557,3.453-3.958,2.814-6.196
		c1.459-2.322,2.398-4.953,3.319-7.508C158.819,78.876,160.303,75.728,161.554,72.501z"/>
	<g id="XMLID_126_">
		<g>
			
				<radialGradient id="SVGID_1_" cx="133.4326" cy="93.6885" r="9.4136" gradientTransform="matrix(1.0474 0 0 1.023 4.4665 -6.3816)" gradientUnits="userSpaceOnUse">
				<stop  offset="0" style="stop-color:#F07B25"/>
				<stop  offset="1" style="stop-color:#EB2427"/>
			</radialGradient>
			<path fill="url(#SVGID_1_)" d="M153.106,89.592c-0.059,0.106-0.118,0.209-0.182,0.314c-0.236,0.394,0.108,0.722,0.463,0.722
				c-0.02,2.043-2.451,4.281-3.704,5.625c-2.06,2.213-4.106,4.438-6.327,6.496c-1.402-1.465-2.916-2.828-4.517-4.096
				c0.01-0.014,0.023-0.029,0.033-0.043c0.285-0.387,0.582-0.763,0.882-1.139c0.601-0.763,1.269-1.476,1.943-2.173
				c1.362-1.413,2.872-2.679,4.214-4.106c1.148-1.222,2.369-2.555,4.117-2.857C151.08,88.151,152.512,88.661,153.106,89.592z"/>
			
				<radialGradient id="SVGID_2_" cx="97.416" cy="130.1191" r="40.2799" gradientTransform="matrix(1.0474 0 0 1.023 4.4665 -6.3816)" gradientUnits="userSpaceOnUse">
				<stop  offset="0" style="stop-color:#F07B25"/>
				<stop  offset="1" style="stop-color:#EB2427"/>
			</radialGradient>
			<path fill="url(#SVGID_2_)" d="M149.257,113.638c6.002,12.551,4.248,27.693-5.743,37.779c-9.21,9.294-23.5,11.917-36.205,12.154
				c-6.506,0.123-13.105-0.393-19.494-1.614c-4.224-0.801-8.414-2.036-12.241-3.934c-0.077-0.085-0.178-0.144-0.296-0.156
				c-2.747-1.396-5.302-3.135-7.528-5.324c-1.5-1.471-2.727-3.108-3.732-4.858c0.052-0.059,0.023-0.157-0.071-0.187
				c-0.009,0-0.023-0.005-0.036-0.007c-1.707-3.041-2.724-6.424-3.228-9.916c0.062-0.179,0.038-0.394-0.08-0.56
				c-0.435-3.391-0.397-6.878-0.038-10.241c0.505-0.109,0.621-0.902,0.127-1.053c0.137-1.063,0.298-2.116,0.494-3.139
				c0.894-4.767,2.552-9.422,5.012-13.634c0.195-0.118,0.335-0.331,0.326-0.548c0.257-0.421,0.517-0.836,0.788-1.251
				c2.854-4.32,7.09-7.399,11.559-9.986c0,0.008,0,0.018,0.005,0.024c0.033,0.222,0.371,0.172,0.349-0.049
				c0.004-0.024,0.014-0.05,0.019-0.07c0.346,1.131,0.76,2.319,1.357,3.327c-0.521,0.328-0.872,1.46-1.041,2.343
				c-0.09,0.473-0.13,0.874-0.114,1.046c0.253,2.477,3.674,2.104,5.235,1.32c2.227-1.114,4.108-3.541,4.83-5.855
				c0.781-2.507-1.48-3.694-3.565-2.328c-0.156,0.102-0.167,0.273-0.086,0.388l-0.094,0.052c-0.331-0.543-0.69-1.079-0.992-1.622
				c-0.113-0.202-0.22-0.407-0.319-0.612c0.824-0.426,2.652-0.764,3.021-0.868c1.245-0.347,2.499-0.658,3.761-0.924
				c5.062-1.073,10.096-1.805,15.259-2.158c0.012,0.036,0.021,0.073,0.033,0.11c0.17,0.551,0.382,1.291,0.673,2.031
				c-0.484,0.02-0.97,0.493-1.317,0.833c-0.702,0.686-1.112,1.536-0.822,2.494c0.662,2.18,5.018,2.215,6.781,2.241
				c1.672,0.024,3.376-0.212,4.901-0.904c1.113-0.514,2.515-1.667,2.483-2.995c-0.081-3.744-5.816-3.64-8.459-3.65
				c-0.059,0-0.109,0.013-0.153,0.027c-0.146-0.404-0.273-0.815-0.383-1.233c8.607-1.311,17.429,2.499,24.45,7.153
				c1.055,0.699,2.077,1.445,3.068,2.225c-0.009,0.023-0.016,0.047-0.028,0.064c-0.079,0.227,0.215,0.28,0.303,0.152
				C142.749,103.504,146.659,108.203,149.257,113.638z"/>
			
				<radialGradient id="SVGID_3_" cx="75.3994" cy="100.5498" r="6.9379" gradientTransform="matrix(1.0474 0 0 1.023 4.4665 -6.3816)" gradientUnits="userSpaceOnUse">
				<stop  offset="0" style="stop-color:#F07B25"/>
				<stop  offset="1" style="stop-color:#EB2427"/>
			</radialGradient>
			<path fill="url(#SVGID_3_)" d="M88.547,97.226c0.822,0.401,0.215,1.959-0.019,2.542c-0.665,1.636-2.038,3.086-3.482,4.101
				c-1.162,0.817-3.987,1.927-4.8,0.038c-0.141-0.321-0.144-0.694-0.082-1.064c0.078-0.438,0.243-0.874,0.399-1.226
				c0.03-0.066,0.2-0.431,0.361-0.722c0.287,0.409,0.61,0.775,0.981,1.073c0.223,0.182,0.494-0.115,0.39-0.338
				c-0.505-1.048-1.194-1.969-1.654-3.057c-0.474-1.113-0.81-2.28-1.152-3.437c-0.628-2.113-1.148-4.223-1.574-6.375
				c0.782,0.06,1.523-0.01,2.031-0.334c0.329-0.104,0.638-0.244,0.938-0.411c0.038,1.051,0.592,2.974,0.63,3.08
				c0.496,1.46,1.126,2.903,1.809,4.292c0.648,1.316,1.376,2.84,2.415,3.9c0.372,0.379,0.958-0.003,0.774-0.484
				c-0.194-0.499-0.458-0.975-0.746-1.442l0.094-0.052c0.059,0.091,0.17,0.15,0.309,0.124C86.916,97.293,87.804,96.86,88.547,97.226
				z"/>
			
				<radialGradient id="SVGID_4_" cx="54.353" cy="106.3291" r="10.6139" gradientTransform="matrix(1.0474 0 0 1.023 4.4665 -6.3816)" gradientUnits="userSpaceOnUse">
				<stop  offset="0" style="stop-color:#F07B25"/>
				<stop  offset="1" style="stop-color:#EB2427"/>
			</radialGradient>
			<path fill="url(#SVGID_4_)" d="M65.49,108.892c0.025,0.02,0.048,0.034,0.067,0.044c-0.374,0.623-0.732,1.258-1.07,1.919
				c-0.819,1.598-1.528,3.256-2.132,4.951c-0.073,0.009-0.151,0.049-0.189,0.137c0.102-0.218,0.173-0.088-0.163-0.288
				c-0.293-0.175-0.567-0.364-0.839-0.574c-0.689-0.531-1.353-1.076-2.004-1.65c-1.504-1.321-2.961-2.706-4.318-4.162
				c-0.6-0.649-1.06-1.355-1.397-2.172c-0.89-2.15,0.555-4.427,3.074-4.023c1.542,0.248,3.008,1.4,4.226,2.295
				C62.336,106.536,63.931,107.692,65.49,108.892z"/>
			
				<radialGradient id="SVGID_5_" cx="42.248" cy="94.4946" r="17.7793" gradientTransform="matrix(1.0474 0 0 1.023 4.4665 -6.3816)" gradientUnits="userSpaceOnUse">
				<stop  offset="0" style="stop-color:#F07B25"/>
				<stop  offset="1" style="stop-color:#EB2427"/>
			</radialGradient>
			<path fill="url(#SVGID_5_)" d="M56.294,101.914c-0.137-0.018-0.279-0.029-0.418-0.039c-1.553-0.08-3,1.054-3.588,2.381
				c-0.487,1.09-0.26,2.287,0.187,3.361c-0.747-0.32-1.532-0.576-2.26-0.931c-1.175-0.578-2.288-1.279-3.369-2.006
				c-2.146-1.442-4.16-3.126-5.983-4.952c0.026-0.044,0.036-0.098,0.017-0.154c-0.779-2.27,0.323-4.901,1.525-6.827
				c0.581-0.928,1.332-1.81,2.434-2.112c1.131-0.311,2.359,0.448,3.204,1.09c1.714,1.3,3.021,3.128,4.245,4.853
				C53.572,98.398,54.981,100.114,56.294,101.914z"/>
		</g>
		<g>
			<path fill="none" stroke="#010101" stroke-width="0.311" stroke-linecap="round" stroke-linejoin="round" d="M52.475,107.617
				c-0.747-0.32-1.532-0.576-2.26-0.931c-1.175-0.578-2.288-1.279-3.369-2.006c-2.146-1.442-4.16-3.126-5.983-4.952
				c0.026-0.044,0.036-0.098,0.017-0.154c-0.779-2.27,0.323-4.901,1.525-6.827c0.581-0.928,1.332-1.81,2.434-2.112
				c1.131-0.311,2.359,0.448,3.204,1.09c1.714,1.3,3.021,3.128,4.245,4.853c1.284,1.819,2.693,3.536,4.006,5.335
				c-0.137-0.018-0.279-0.029-0.418-0.039c-1.553-0.08-3,1.054-3.588,2.381C51.801,105.346,52.028,106.543,52.475,107.617z"/>
			<path fill="none" stroke="#010101" stroke-width="0.311" stroke-linecap="round" stroke-linejoin="round" d="M62.003,115.654
				c-0.293-0.175-0.567-0.364-0.839-0.574c-0.689-0.531-1.353-1.076-2.004-1.65c-1.504-1.321-2.961-2.706-4.318-4.162
				c-0.6-0.649-1.06-1.355-1.397-2.172c-0.89-2.15,0.555-4.427,3.074-4.023c1.542,0.248,3.008,1.4,4.226,2.295
				c1.591,1.169,3.187,2.325,4.745,3.524c0.025,0.02,0.048,0.034,0.067,0.044c-0.374,0.623-0.732,1.258-1.07,1.919
				c-0.819,1.598-1.528,3.256-2.132,4.951c-0.073,0.009-0.151,0.049-0.189,0.137C62.268,115.725,62.339,115.854,62.003,115.654z"/>
			<path fill="none" stroke="#010101" stroke-width="0.311" stroke-linecap="round" stroke-linejoin="round" d="M149.684,96.253
				c-2.06,2.213-4.106,4.438-6.327,6.496c-1.402-1.465-2.916-2.828-4.517-4.096c0.01-0.014,0.023-0.029,0.033-0.043
				c0.285-0.387,0.582-0.763,0.882-1.139c0.601-0.763,1.269-1.476,1.943-2.173c1.362-1.413,2.872-2.679,4.214-4.106
				c1.148-1.222,2.369-2.555,4.117-2.857c1.051-0.182,2.482,0.327,3.077,1.258c-0.059,0.106-0.118,0.209-0.182,0.314
				c-0.236,0.394,0.108,0.722,0.463,0.722C153.368,92.671,150.937,94.909,149.684,96.253z"/>
		</g>
	</g>
	
		<radialGradient id="SVGID_6_" cx="96.1221" cy="130.4727" r="30.2064" gradientTransform="matrix(1.0474 0 0 1.023 4.4665 -6.3816)" gradientUnits="userSpaceOnUse">
		<stop  offset="0" style="stop-color:#F07B25"/>
		<stop  offset="1" style="stop-color:#EB2427"/>
	</radialGradient>
	<path fill="url(#SVGID_6_)" d="M72.476,114.134c0,0-8.077,8.438,14.088,14.859c22.162,6.422,39.065-5.869,42.633-13.759
		c-4.882-4.037-3.192-11.008,1.69-11.739c-3.191,3.301-3.191,12.475,10.143,10.091c3.57-0.737,1.69,3.482-5.07,3.3
		c0.188,11.007-6.385,36.506-38.878,33.568c-18.595-2.568-18.97-21.276-18.97-21.276S58.577,121.105,72.476,114.134z"/>
	<g>
		
			<radialGradient id="SVGID_7_" cx="97.5952" cy="129.2129" r="40.688" gradientTransform="matrix(1.0474 0 0 1.023 4.4665 -6.3816)" gradientUnits="userSpaceOnUse">
			<stop  offset="0" style="stop-color:#F07B25"/>
			<stop  offset="1" style="stop-color:#EB2427"/>
		</radialGradient>
		<path fill="url(#SVGID_7_)" d="M149.442,113.638c-2.597-5.435-6.505-10.129-11.227-13.911c-0.089,0.127-0.382,0.075-0.303-0.15
			c0.01-0.02,0.019-0.043,0.026-0.065c-0.989-0.78-2.012-1.527-3.069-2.226c-7.018-4.652-15.839-8.463-24.447-7.153
			c0.109,0.418,0.234,0.832,0.381,1.235c0.045-0.016,0.097-0.027,0.153-0.027c2.645,0.008,8.382-0.096,8.461,3.648
			c0.029,1.328-1.371,2.481-2.483,2.995c-1.525,0.692-3.231,0.928-4.903,0.904c-1.764-0.026-6.116-0.061-6.78-2.238
			c-0.291-0.961,0.12-1.811,0.823-2.497c0.346-0.339,0.831-0.814,1.318-0.833c-0.292-0.74-0.507-1.478-0.676-2.031
			c-0.01-0.037-0.02-0.074-0.03-0.11c-5.167,0.354-10.197,1.085-15.259,2.158c-1.263,0.267-2.522,0.577-3.762,0.924
			c-0.369,0.104-2.197,0.444-3.024,0.868c0.102,0.205,0.206,0.411,0.316,0.612c0.568,1.013,1.324,1.988,1.74,3.065
			c0.186,0.48-0.399,0.863-0.771,0.485c-1.039-1.063-1.771-2.585-2.418-3.902c-0.68-1.39-1.312-2.832-1.809-4.29
			c-0.037-0.109-0.59-2.032-0.63-3.083c-0.301,0.167-0.61,0.307-0.936,0.413c-0.508,0.322-1.248,0.394-2.032,0.334
			c0.082,0.415,0.172,0.824,0.259,1.237c0.907-0.232,2.026-0.202,2.192,1.296c0.283,2.566,2.347,6.968,3.662,8.621
			c0.996,1.25-0.377,2.287-2.038,1.127c0.105,0.193,0.209,0.387,0.307,0.585c0.104,0.223-0.169,0.521-0.39,0.34
			c-0.37-0.3-0.697-0.666-0.981-1.074c-0.161,0.292-0.333,0.659-0.361,0.721c-0.284,0.651-0.624,1.589-0.319,2.29
			c0.814,1.889,3.64,0.779,4.8-0.038c1.445-1.015,2.819-2.465,3.482-4.101c0.232-0.582,0.84-2.141,0.021-2.542
			c-0.743-0.366-1.631,0.067-2.377,0.211c-0.324,0.057-0.497-0.332-0.224-0.515c2.086-1.366,4.348-0.179,3.567,2.328
			c-0.725,2.314-2.606,4.741-4.833,5.855c-1.562,0.784-4.979,1.156-5.235-1.32c-0.046-0.486,0.357-2.88,1.158-3.389
			c-0.598-1.008-1.013-2.196-1.357-3.327c-0.007,0.022-0.015,0.047-0.022,0.071c0.022,0.22-0.313,0.27-0.349,0.051
			c-0.003-0.01-0.003-0.017-0.003-0.027c-4.472,2.587-8.707,5.667-11.56,9.986c-0.273,0.415-0.533,0.83-0.788,1.251
			c0.007,0.22-0.13,0.43-0.328,0.548c-2.46,4.212-4.115,8.867-5.009,13.634c-0.196,1.025-0.361,2.076-0.494,3.139
			c0.494,0.15,0.378,0.943-0.127,1.053c-0.361,3.363-0.397,6.851,0.038,10.241c0.115,0.166,0.142,0.381,0.078,0.563
			c0.506,3.489,1.525,6.874,3.227,9.913c0.013,0.002,0.026,0.007,0.039,0.007c0.092,0.029,0.121,0.128,0.071,0.187
			c1.003,1.75,2.233,3.388,3.732,4.858c2.224,2.189,4.781,3.929,7.528,5.324c0.118,0.013,0.218,0.071,0.295,0.156
			c3.825,1.897,8.016,3.135,12.241,3.938c6.388,1.218,12.985,1.735,19.492,1.61c12.706-0.237,26.995-2.859,36.207-12.151
			C153.692,141.331,155.446,126.188,149.442,113.638z M142.156,122.021c4.491,17.549-10.659,44.959-53.151,36.78
			c-38.597-7.432-25.074-45.953-14.369-53.933c0,0,1.97,9.63,10.707,3.854c8.732-5.78,13.803-9.08,20.002-5.78
			c6.196,3.304,12.959,0.553,15.214-1.924c0,0,4.882-4.129,7.512,1.008c2.441-4.769,14.274-1.285,16.715,6.97
			c2.441,8.254-4.131,8.44-4.131,8.44S141.405,119.087,142.156,122.021z"/>
	</g>
	<g id="XMLID_125_">
		<g>
			
				<radialGradient id="SVGID_8_" cx="160.1348" cy="128.2188" r="13.0794" gradientTransform="matrix(1.0474 0 0 1.023 4.4665 -6.3816)" gradientUnits="userSpaceOnUse">
				<stop  offset="0" style="stop-color:#F07B25"/>
				<stop  offset="1" style="stop-color:#EB2427"/>
			</radialGradient>
			<path fill="url(#SVGID_8_)" d="M189.826,124.03c1.722,1.403,0.814,3.924,0.535,5.849c-5.484-3.048-11.291-5.762-17.516-6.932
				c-6.164-1.157-13.223-1.462-19.055,1.111c-0.072-0.513-0.163-1.02-0.26-1.529c0.103-0.057,0.201-0.109,0.288-0.151
				c0.777-0.371,1.592-0.646,2.42-0.886c1.625-0.47,3.282-0.765,4.944-1.066c4.056-0.744,8.192-0.904,12.303-0.563
				c3.787,0.316,7.657,1.089,11.27,2.238C186.354,122.609,188.527,122.971,189.826,124.03z"/>
			
				<radialGradient id="SVGID_9_" cx="156.0371" cy="112.7852" r="12.531" gradientTransform="matrix(1.0474 0 0 1.023 4.4665 -6.3816)" gradientUnits="userSpaceOnUse">
				<stop  offset="0" style="stop-color:#F07B25"/>
				<stop  offset="1" style="stop-color:#EB2427"/>
			</radialGradient>
			<path fill="url(#SVGID_9_)" d="M185.831,108.278c0.113,0.378,0.163,0.816,0.25,1.237c-2.412-1.239-5.403-1.709-8.029-1.995
				c-3.293-0.356-6.639-0.238-9.935,0.019c-3.643,0.283-7.218,0.854-10.704,1.955c-1.674,0.531-3.317,1.214-4.941,1.894
				c-0.807,0.338-1.561,0.732-2.219,1.261c-0.173-0.352-0.351-0.699-0.534-1.046c2.477-1.162,4.889-2.38,7.491-3.286
				c2.803-0.978,5.713-1.605,8.65-2.019c8.732-1.221,11.682-1.546,19.456,0.729c0.045,0.014,0.091,0.019,0.133,0.016
				C185.572,107.457,185.709,107.865,185.831,108.278z"/>
			
				<radialGradient id="SVGID_10_" cx="156.8027" cy="146.2734" r="12.1677" gradientTransform="matrix(1.0474 0 0 1.023 4.4665 -6.3816)" gradientUnits="userSpaceOnUse">
				<stop  offset="0" style="stop-color:#F07B25"/>
				<stop  offset="1" style="stop-color:#EB2427"/>
			</radialGradient>
			<path fill="url(#SVGID_10_)" d="M182.847,143.102c2.184,2.77,1.204,6.311-0.124,9.25c-0.726-2.034-2.464-3.975-3.866-5.384
				c-2.103-2.109-4.688-3.757-7.318-5.167c-3.002-1.612-6.224-2.924-9.495-3.913c-1.623-0.497-3.282-0.839-4.97-1.028
				c-0.919-0.098-2.651-0.313-3.804-0.052c0.187-0.784,0.342-1.572,0.467-2.36c0.289-0.051,0.586-0.113,0.652-0.12
				c0.918-0.206,1.912-0.185,2.845-0.135c1.67,0.084,3.326,0.438,4.982,0.666c4.128,0.561,8.194,1.539,12.085,2.997
				C179.381,139.766,179.575,138.963,182.847,143.102z"/>
			
				<radialGradient id="SVGID_11_" cx="147.2383" cy="159.2803" r="10.2438" gradientTransform="matrix(1.0474 0 0 1.023 4.4665 -6.3816)" gradientUnits="userSpaceOnUse">
				<stop  offset="0" style="stop-color:#F07B25"/>
				<stop  offset="1" style="stop-color:#EB2427"/>
			</radialGradient>
			<path fill="url(#SVGID_11_)" d="M169.396,159.029c0.869,1.734,1.317,3.31,0,4.962c-0.531,0.667-1.23,1.182-1.934,1.66
				c-0.316,0.212-0.665,0.364-0.999,0.531c0.409-6.396-5.533-12.036-10.879-14.718c-2.046-1.024-4.098-1.512-6.341-1.884
				c-0.172-0.029-1.228-0.237-2.103-0.27c0.608-0.763,1.175-1.556,1.71-2.37c2.391,0.307,4.81,0.628,7.129,1.27
				c2.93,0.805,5.592,2.271,7.996,4.08C168.278,155.514,166.971,154.189,169.396,159.029z"/>
			
				<radialGradient id="SVGID_12_" cx="60.6689" cy="170.4346" r="8.6985" gradientTransform="matrix(1.0474 0 0 1.023 4.4665 -6.3816)" gradientUnits="userSpaceOnUse">
				<stop  offset="0" style="stop-color:#F07B25"/>
				<stop  offset="1" style="stop-color:#EB2427"/>
			</radialGradient>
			<path fill="url(#SVGID_12_)" d="M71.978,156.966c0.742,0.478,1.499,0.921,2.278,1.337c-3.65,2.058-6.238,6.294-7.876,9.92
				c-1.044,2.317-1.61,4.82-1.995,7.31c-0.093,0.599-0.107,3.546-0.763,3.446c-0.857-0.127-1.324-0.828-1.572-1.572
				c-0.876-2.616,0.483-5.911,1.104-8.466c0.616-2.536,1.808-4.876,3.395-6.957C68.324,159.65,70.361,158.269,71.978,156.966z"/>
			
				<radialGradient id="SVGID_13_" cx="49.8643" cy="161.3105" r="9.2805" gradientTransform="matrix(1.0474 0 0 1.023 4.4665 -6.3816)" gradientUnits="userSpaceOnUse">
				<stop  offset="0" style="stop-color:#F07B25"/>
				<stop  offset="1" style="stop-color:#EB2427"/>
			</radialGradient>
			<path fill="url(#SVGID_13_)" d="M63.327,147.843c0.466,0.841,0.978,1.66,1.538,2.448c-2.179,0.149-4.316,1.459-6,2.713
				c-1.834,1.364-3.286,3.147-4.457,5.067c-1.232,2.013-2.036,4.238-2.771,6.461c-0.374,1.122-0.678,2.323-0.719,3.506
				c-0.007,0.312,0,0.619,0.015,0.93c0,0.153,0.014,0.313,0.038,0.463c0,0.006,0,0.006,0,0.006
				c-0.521-0.033-1.029-0.063-1.527-0.237c-0.817-0.277-0.857-1.454-0.905-2.126c-0.084-1.269,0.217-2.577,0.515-3.804
				c0.689-2.86,1.65-5.338,3.452-7.726c1.355-1.801,3.07-3.418,4.835-4.84C60.225,148.387,60.83,148.377,63.327,147.843z"/>
			
				<radialGradient id="SVGID_14_" cx="43.4609" cy="131.3203" r="8.886" gradientTransform="matrix(1.0474 0 0 1.023 4.4665 -6.3816)" gradientUnits="userSpaceOnUse">
				<stop  offset="0" style="stop-color:#F07B25"/>
				<stop  offset="1" style="stop-color:#EB2427"/>
			</radialGradient>
			<path fill="url(#SVGID_14_)" d="M60.9,120.772c-0.377,1.615-0.67,3.247-0.88,4.888c-4.939-0.317-6.505-0.491-11.916,1.921
				c-1.92,0.854-3.766,2.043-5.357,3.391c-1.37,1.161-2.252,2.798-3.391,4.174c-0.37-1.208-0.437-2.28,0.167-3.531
				c0.524-1.091,1.275-2.063,2.068-2.979c1.653-1.898,3.775-3.442,5.997-4.635c2.25-1.207,4.781-1.778,7.29-2.22
				c1.152-0.203,2.326-0.387,3.492-0.486C59.3,121.216,60.093,121.193,60.9,120.772z"/>
			
				<radialGradient id="SVGID_15_" cx="44.8408" cy="147.6211" r="9.4341" gradientTransform="matrix(1.0474 0 0 1.023 4.4665 -6.3816)" gradientUnits="userSpaceOnUse">
				<stop  offset="0" style="stop-color:#F07B25"/>
				<stop  offset="1" style="stop-color:#EB2427"/>
			</radialGradient>
			<path fill="url(#SVGID_15_)" d="M59.635,133.762c0.041,1.019,0.123,2.031,0.246,3.049c-4.486,0.325-8.381,4.162-10.966,7.446
				c-2.413,3.06-4.618,7.28-4.545,11.25c-2.217-0.335-1.178-5.066-0.881-6.379c0.619-2.743,2.026-5.346,3.667-7.631
				c1.454-2.017,3.305-3.811,5.375-5.22c1.552-1.056,2.902-1.483,3.947-1.828C57.277,134.192,58.618,133.748,59.635,133.762z"/>
		</g>
	</g>
	<g id="XMLID_124_">
		<g>
			
				<radialGradient id="SVGID_16_" cx="102.6211" cy="95.3691" r="6.5788" gradientTransform="matrix(1.0474 0 0 1.023 4.4665 -6.3816)" gradientUnits="userSpaceOnUse">
				<stop  offset="0" style="stop-color:#F07B25"/>
				<stop  offset="1" style="stop-color:#EB2427"/>
			</radialGradient>
			<path fill="url(#SVGID_16_)" d="M106.084,84.555c0-0.136-0.087-0.202-0.25-0.21c0-0.002,0.007-0.002,0.01-0.004
				c0.046-0.073,0.087-0.142,0.127-0.21c0.007-0.01,0.007-0.018,0.013-0.023c0.745,0.138,1.508,0.207,2.272,0.209
				c0,0.005-0.003,0.007-0.003,0.015c-0.171,1.44,0.313,3.212,0.596,4.597c0.38,1.823,0.994,4.893,2.795,5.91
				c0.204,0.117,0.569-0.011,0.484-0.293c-0.25-0.818-0.777-1.536-1.147-2.311c-0.012-0.022-0.021-0.043-0.033-0.071
				c2.271,0.008,5.77-0.126,7.221,1.868c1.042,1.438-0.836,2.867-1.998,3.419c-0.999,0.473-2.138,0.635-3.229,0.738
				c-1.785,0.163-3.663,0.018-5.397-0.428c-1.055-0.271-2.497-1.001-2.019-2.309c0.215-0.576,1.044-1.728,1.807-1.826
				c0.484,1.141,1.161,2.22,2.146,2.529c0.246,0.082,0.478-0.179,0.359-0.409c-0.366-0.702-0.972-1.261-1.36-1.965
				c-0.536-0.961-0.875-2.028-1.202-3.068c-0.293-0.915-0.538-1.832-0.74-2.767c-0.171-0.781-0.266-1.579-0.364-2.372
				C106.131,85.235,106.104,84.897,106.084,84.555z"/>
		</g>
	</g>
	<g id="XMLID_123_">
		<g>
			
				<radialGradient id="SVGID_17_" cx="146.3438" cy="31.5547" r="47.209" gradientTransform="matrix(1.0474 0 0 1.023 4.4665 -6.3816)" gradientUnits="userSpaceOnUse">
				<stop  offset="0" style="stop-color:#F07B25"/>
				<stop  offset="1" style="stop-color:#EB2427"/>
			</radialGradient>
			<path fill="url(#SVGID_17_)" d="M175.793,19.196c12.41,5.098,19.742,18.773,15.925,31.582c-1.858,6.237-6.524,11.14-12.01,14.607
				c-2.735,1.73-5.736,3.05-8.874,3.912c-1.432,0.394-2.896,0.641-4.378,0.777c-1.358,0.129-2.762-0.09-4.106-0.03
				c0.228-1.089,0.205-2.188-0.423-3.199c-0.931-1.504-3.216-1.741-4.813-1.828c-1.785-0.092-3.765,0.007-5.281,1.016
				c-1.098,0.738-1.738,1.934-2.154,3.18c-2.995-1.166-6.114-1.872-8.944-3.444c-2.501-1.385-4.691-3.295-6.57-5.401
				c-3.674-4.125-6.118-9.427-6.502-14.9c-0.416-5.944,2.461-11.381,6.451-15.685c1.978-2.132,4.274-3.957,6.682-5.607
				c2.222-1.529,4.933-3.743,7.809-3.775c-0.218,1.351,2.136,5.643,2.452,6.271c1.1,2.162,2.518,4.178,4.006,6.096
				c1.606,2.068,3.459,4.278,5.57,5.96c0.075,0.173,0.255,0.31,0.443,0.344c0.215,0.164,0.436,0.323,0.657,0.471
				c0.354,0.24,0.837-0.174,0.553-0.531c-0.143-0.176-0.292-0.351-0.439-0.523c2.604-3.227,5.08-6.561,7.594-9.856
				c1.238-1.62,2.411-3.282,3.54-4.975C173.928,22.242,174.6,20.442,175.793,19.196z"/>
			
				<radialGradient id="SVGID_18_" cx="31.2197" cy="65.9829" r="33.4682" gradientTransform="matrix(1.0474 0 0 1.023 4.4665 -6.3816)" gradientUnits="userSpaceOnUse">
				<stop  offset="0" style="stop-color:#F07B25"/>
				<stop  offset="1" style="stop-color:#EB2427"/>
			</radialGradient>
			<path fill="url(#SVGID_18_)" d="M59.045,77.734c0.139,2.535-0.428,5.052-1.575,7.324c-1.535,3.046-4.294,5.321-6.935,7.431
				c-0.002,0.002-0.004,0.004-0.009,0.005c-1.124-1.196-2.416-2.239-3.967-2.767c-2.379-0.809-4.162,1.024-5.241,2.863
				c-1.074,1.835-2.087,4.764-1.01,6.809c-0.14,0.074-0.22,0.281-0.08,0.436c0.616,0.673,1.258,1.323,1.924,1.952
				c-2.142,0.805-3.935,2.455-6.06,3.353c-2.241,0.946-4.689,1.143-7.1,1.001c-4.604-0.27-9.19-2.012-12.877-4.687
				C8.897,96.212,5.722,86.715,8.308,78.341c3.313-0.247,6.675,0.373,9.947,0.811c1.625,0.22,3.218,0.665,4.771,1.162
				c1.367,0.438,2.691,1.175,4.097,1.468c0.456,0.098,0.645-0.556,0.307-0.794c-0.262-0.186-0.547-0.348-0.843-0.495
				c-0.283-0.408-0.651-0.761-0.928-1.182c-0.486-0.74-0.815-1.579-1.111-2.404c-0.586-1.627-0.938-3.333-1.318-5.011
				c-0.394-1.743-0.854-3.467-1.277-5.196c-0.531-2.164-0.824-4.321-1.167-6.509c0.064,0.017,0.135,0.002,0.18-0.058
				c1.708-2.357,4.582-3.354,7.38-3.821c2.717-0.456,5.46-0.631,8.214-0.405c6.105,0.497,11.906,3.242,16.063,7.62
				C56.292,67.382,58.756,72.448,59.045,77.734z"/>
		</g>
		<g>
			<path fill="none" stroke="#010101" stroke-width="0.311" stroke-linecap="round" stroke-linejoin="round" d="M140.733,65.77
				c-2.501-1.385-4.691-3.295-6.57-5.401c-3.674-4.125-6.118-9.427-6.502-14.9c-0.416-5.944,2.461-11.381,6.451-15.685
				c1.978-2.132,4.274-3.957,6.682-5.607c2.222-1.529,4.933-3.743,7.809-3.775c-0.218,1.351,2.136,5.643,2.452,6.271
				c1.1,2.162,2.518,4.178,4.006,6.096c1.606,2.068,3.459,4.278,5.57,5.96c0.075,0.173,0.255,0.31,0.443,0.344
				c0.215,0.164,0.436,0.323,0.657,0.471c0.354,0.24,0.837-0.174,0.553-0.531c-0.143-0.176-0.292-0.351-0.439-0.523
				c2.604-3.227,5.08-6.561,7.594-9.856c1.238-1.62,2.411-3.282,3.54-4.975c0.949-1.416,1.621-3.215,2.814-4.462
				c12.41,5.098,19.742,18.773,15.925,31.582c-1.858,6.237-6.524,11.14-12.01,14.607c-2.735,1.73-5.736,3.05-8.874,3.912
				c-1.432,0.394-2.896,0.641-4.378,0.777c-1.358,0.129-2.762-0.09-4.106-0.03c0.228-1.089,0.205-2.188-0.423-3.199
				c-0.931-1.504-3.216-1.741-4.813-1.828c-1.785-0.092-3.765,0.007-5.281,1.016c-1.098,0.738-1.738,1.934-2.154,3.18
				C146.683,68.047,143.563,67.341,140.733,65.77z"/>
			<path fill="none" stroke="#010101" stroke-width="0.311" stroke-linecap="round" stroke-linejoin="round" d="M36.092,105.139
				c-2.241,0.946-4.689,1.143-7.1,1.001c-4.604-0.27-9.19-2.012-12.877-4.687C8.897,96.212,5.722,86.715,8.308,78.341
				c3.313-0.247,6.675,0.373,9.947,0.811c1.625,0.22,3.218,0.665,4.771,1.162c1.367,0.438,2.691,1.175,4.097,1.468
				c0.456,0.098,0.645-0.556,0.307-0.794c-0.262-0.186-0.547-0.348-0.843-0.495c-0.283-0.408-0.651-0.761-0.928-1.182
				c-0.486-0.74-0.815-1.579-1.111-2.404c-0.586-1.627-0.938-3.333-1.318-5.011c-0.394-1.743-0.854-3.467-1.277-5.196
				c-0.531-2.164-0.824-4.321-1.167-6.509c0.064,0.017,0.135,0.002,0.18-0.058c1.708-2.357,4.582-3.354,7.38-3.821
				c2.717-0.456,5.46-0.631,8.214-0.405c6.105,0.497,11.906,3.242,16.063,7.62c3.669,3.857,6.133,8.923,6.422,14.209
				c0.139,2.535-0.428,5.052-1.575,7.324c-1.535,3.046-4.294,5.321-6.935,7.431c-0.002,0.002-0.004,0.004-0.009,0.005
				c-1.124-1.196-2.416-2.239-3.967-2.767c-2.379-0.809-4.162,1.024-5.241,2.863c-1.074,1.835-2.087,4.764-1.01,6.809
				c-0.14,0.074-0.22,0.281-0.08,0.436c0.616,0.673,1.258,1.323,1.924,1.952C40.011,102.591,38.217,104.241,36.092,105.139z"/>
		</g>
	</g>
	<g id="XMLID_122_">
		<g>
			
				<radialGradient id="SVGID_19_" cx="69.3047" cy="83.3281" r="7.7973" gradientTransform="matrix(1.0474 0 0 1.023 4.4665 -6.3816)" gradientUnits="userSpaceOnUse">
				<stop  offset="0" style="stop-color:#FFFFFF"/>
				<stop  offset="0.5215" style="stop-color:#FEFBDD"/>
				<stop  offset="1" style="stop-color:#FED4A3"/>
			</radialGradient>
			<path fill="url(#SVGID_19_)" d="M84.553,77.715c0.271,3.628-1.705,7.885-5.258,9.292c-1.032,0.412-2.092,0.5-3.111,0.344
				c-3.138-0.493-5.917-3.343-6.496-6.486c-0.657-3.524,0.823-7.862,4.028-9.773C78.27,68.377,84.215,73.165,84.553,77.715z"/>
		</g>
	</g>
	<g id="XMLID_121_">
		<g>
			
				<radialGradient id="SVGID_20_" cx="98.9131" cy="77.4546" r="10.5453" gradientTransform="matrix(1.0474 0 0 1.023 4.4665 -6.3816)" gradientUnits="userSpaceOnUse">
				<stop  offset="0" style="stop-color:#FFFFFF"/>
				<stop  offset="0.5215" style="stop-color:#FEFBDD"/>
				<stop  offset="1" style="stop-color:#FED4A3"/>
			</radialGradient>
			<path fill="url(#SVGID_20_)" d="M115.271,64.705c5.589,3.614,4.678,11.284,0.671,15.459c-4.626,4.822-12.478,4.412-16.694-0.696
				c-0.673-0.815-1.204-1.771-1.587-2.804c-1.482-3.995-0.736-9.135,2.557-11.838c1.81-1.488,4.134-2.366,6.483-2.654
				C109.729,62.01,112.769,63.09,115.271,64.705z"/>
		</g>
	</g>
	<path fill="#010101" d="M139.683,114.759c-2.508-0.082-4.908,0.484-7.331-0.475c-3.012-1.194-4.202-4.738-3.343-7.632
		c0.065,0.002,0.133-0.031,0.137-0.107c0.005-0.122,0.01-0.245,0.017-0.363c0.007-0.17-0.205-0.252-0.293-0.092
		c-1.419,2.595-0.587,5.838,1.48,7.846c0.38,0.368,0.822,0.675,1.296,0.935c-1.811,3.344-3.815,6.294-6.726,8.835
		c-2.841,2.474-6.201,4.425-9.711,5.841c-6.953,2.805-14.711,3.244-22.105,2.323c-5.65-0.704-11.101-2.2-16.113-4.85
		c-3.6-1.898-10.303-6.165-6.424-10.723c0.132-0.146,0.271-0.293,0.416-0.435c0.121-0.118-0.087-0.274-0.205-0.159
		c-5.314,5.171,2.285,10.183,8.751,13.059c0.623,5.79,4.056,11.408,8.601,15.075c5.237,4.224,12.049,5.429,18.674,4.852
		c4.946-0.435,9.463-2.085,13.18-4.949c0.049-0.028,0.092-0.062,0.124-0.104c1.547-1.208,2.956-2.626,4.193-4.264
		c2.085-2.76,3.575-5.926,4.88-9.095c1.612-3.909,2.966-7.951,3.863-12.076c0.191-0.866,0.339-1.742,0.472-2.618
		c2.028,0.508,4.335,0.392,6.152-0.054C140.055,115.433,140.171,114.775,139.683,114.759z"/>
	
		<radialGradient id="SVGID_21_" cx="93.959" cy="136.1025" r="10.1359" gradientTransform="matrix(1.0474 0 0 1.023 4.4665 -6.3816)" gradientUnits="userSpaceOnUse">
		<stop  offset="0" style="stop-color:#FFFFFF"/>
		<stop  offset="0.5215" style="stop-color:#FEFBDD"/>
		<stop  offset="1" style="stop-color:#FED4A3"/>
	</radialGradient>
	<path fill="url(#SVGID_21_)" d="M117.504,129.534c-0.26,3.151-3.231,4.639-6.157,5.366c-3.104,0.771-6.447,1.024-9.64,1.171
		c-3.938,0.174-12.362,0.651-13.453-4.41C97.958,133.838,108.525,133.54,117.504,129.534z"/>
	
		<radialGradient id="SVGID_22_" cx="98.8232" cy="144.166" r="12.5724" gradientTransform="matrix(1.0474 0 0 1.023 4.4665 -6.3816)" gradientUnits="userSpaceOnUse">
		<stop  offset="0.1779" style="stop-color:#ED7C81"/>
		<stop  offset="1" style="stop-color:#EB2427"/>
	</radialGradient>
	<path fill="url(#SVGID_22_)" d="M118.806,143.664c-2.936,2.214-6.638,3.381-10.25,3.984c-4.464,0.752-9.12,0.544-13.37-0.85
		c-0.411-0.813,2.516-2.59,3.007-2.927c1.33-0.911,2.674-1.644,4.191-2.21c5.314-1.983,12.193-1.789,16.77,1.723
		C119.038,143.477,118.926,143.574,118.806,143.664z"/>
	
		<radialGradient id="SVGID_23_" cx="94.8774" cy="124.083" r="26.0897" gradientTransform="matrix(1.0474 0 0 1.023 4.4665 -6.3816)" gradientUnits="userSpaceOnUse">
		<stop  offset="0" style="stop-color:#ED7C81"/>
		<stop  offset="0.6012" style="stop-color:#EB2427"/>
		<stop  offset="1" style="stop-color:#861719"/>
	</radialGradient>
	<path fill="url(#SVGID_23_)" d="M125.345,136.021c-1.449,2.563-3.271,4.902-5.521,6.823c-2.092-2.027-5.262-2.773-8.097-3.108
		c-3.414-0.404-6.896,0.131-10.092,1.331c-1.761,0.665-3.388,1.705-4.872,2.828c-0.761,0.576-2.336,1.749-1.88,2.8
		c-2.125-0.729-4.139-1.756-5.97-3.118c-4.939-3.667-7.43-8.904-8.918-14.609c2.219,0.958,4.259,1.659,5.542,2.014
		c0.813,0.224,1.631,0.429,2.458,0.618c0.696,5.739,10.126,5.214,14.283,5.036c3.595-0.15,7.452-0.486,10.88-1.617
		c2.801-0.924,5.021-2.933,5.171-5.87c3-1.43,5.814-3.285,8.341-5.623c2.378-2.2,4.485-4.975,5.749-7.944
		C131.36,122.604,128.862,129.829,125.345,136.021z"/>
	<g>
		<path opacity="0.48" fill="#FFFFFF" d="M101.375,73.744c-0.842-3.326,0.457-6.941,3.519-9.053
			c3.514-2.119,7.914-1.613,11.048,0.879c1.211,0.963,2.228,2.22,2.796,3.649c0.53,1.339,0.369,2.849,0.144,4.237
			c-0.189,1.16-0.66,2.236-1.354,3.192c-1.429,1.967-3.685,3.663-6.207,3.887c-3.391,0.303-6.662-1.226-8.613-3.933
			C102.065,75.707,101.622,74.739,101.375,73.744z"/>
		<g>
			
				<radialGradient id="SVGID_24_" cx="102.6563" cy="76.8462" r="5.6188" gradientTransform="matrix(1.0474 0 0 1.023 4.4665 -6.3816)" gradientUnits="userSpaceOnUse">
				<stop  offset="0" style="stop-color:#0E62AF"/>
				<stop  offset="1" style="stop-color:#1C1740"/>
			</radialGradient>
			<path fill="url(#SVGID_24_)" d="M117.426,72.853c-0.4,3.357-3.16,5.804-6.164,5.459c-3.003-0.341-5.111-3.344-4.711-6.7
				c0.402-3.358,3.165-5.804,6.166-5.461C115.721,66.494,117.83,69.494,117.426,72.853z"/>
			<ellipse fill="#FFFFFF" cx="114.032" cy="70.33" rx="2.756" ry="3.118"/>
		</g>
	</g>
	<g>
		<path opacity="0.48" fill="#FFFFFF" d="M71.679,79.22c-0.152-2.876,1.248-5.772,3.694-7.215c2.767-1.404,5.818-0.511,7.706,1.917
			c0.729,0.936,1.286,2.1,1.497,3.358c0.198,1.179-0.116,2.429-0.461,3.567c-0.284,0.953-0.762,1.806-1.38,2.535
			c-1.272,1.498-3.095,2.679-4.911,2.601c-2.441-0.109-4.554-1.741-5.576-4.22C71.913,80.942,71.728,80.082,71.679,79.22z"/>
		<g>
			
				<radialGradient id="SVGID_25_" cx="70.7725" cy="83.0562" r="5.1774" gradientTransform="matrix(1.0474 0 0 1.023 4.4665 -6.3816)" gradientUnits="userSpaceOnUse">
				<stop  offset="0" style="stop-color:#0E62AF"/>
				<stop  offset="1" style="stop-color:#1C1740"/>
			</radialGradient>
			<path fill="url(#SVGID_25_)" d="M83.603,79.155c-0.371,3.096-2.913,5.348-5.678,5.033c-2.77-0.316-4.709-3.082-4.342-6.175
				c0.374-3.093,2.913-5.347,5.681-5.031C82.031,73.298,83.974,76.061,83.603,79.155z"/>
			<ellipse fill="#FFFFFF" cx="81.303" cy="77.394" rx="2.089" ry="2.578"/>
		</g>
	</g>
	<path opacity="0.29" fill="#FFFFFF" d="M110.771,142.281c0.099,0.859-1.324,1.719-3.179,1.927
		c-1.853,0.206-3.439-0.318-3.541-1.172c-0.099-0.859,1.322-1.719,3.179-1.927C109.082,140.901,110.669,141.426,110.771,142.281z"/>
	<path fill="#FFFFFF" d="M90.695,132.799c0,0,9.297,2.337,21.27-0.826c4.931-1.376,0.703,3.576-11.129,3.576
		C89.005,135.549,90.695,132.799,90.695,132.799z"/>
	
		<radialGradient id="SVGID_26_" cx="127.0674" cy="87.2373" r="22.1991" gradientTransform="matrix(0.8245 0.6308 -0.6458 0.8053 103.4718 -47.2824)" gradientUnits="userSpaceOnUse">
		<stop  offset="0" style="stop-color:#F07B25"/>
		<stop  offset="1" style="stop-color:#EB2427"/>
	</radialGradient>
	<path fill="url(#SVGID_26_)" d="M130.229,108.142c0.888-7.487,15.357-1.572,12.406,3.244c-1.639,2.672-7.746,1.619-10.003,0.547
		C130.812,111.064,130.063,109.559,130.229,108.142z"/>
	<g>
		<g>
			
				<radialGradient id="SVGID_27_" cx="148.5293" cy="49.8896" r="28.1552" gradientTransform="matrix(1.0474 0 0 1.023 4.4665 -6.3816)" gradientUnits="userSpaceOnUse">
				<stop  offset="0" style="stop-color:#F07B25"/>
				<stop  offset="1" style="stop-color:#EB2427"/>
			</radialGradient>
			<path fill="url(#SVGID_27_)" d="M175.653,19.196c-1.194,1.247-1.864,3.046-2.817,4.462c-1.127,1.693-2.299,3.355-3.535,4.975
				c-2.518,3.295-4.991,6.629-7.601,9.856c0.151,0.174,0.301,0.347,0.441,0.523c0.289,0.357-0.198,0.771-0.553,0.531
				c-0.222-0.148-0.439-0.307-0.655-0.471c-0.188-0.034-0.367-0.171-0.444-0.344c-2.11-1.682-3.965-3.892-5.566-5.96
				c-1.493-1.918-2.909-3.935-4.007-6.096c-0.318-0.628-2.674-4.92-2.456-6.272c-2.877,0.034-5.585,2.248-7.81,3.776
				c-2.406,1.65-4.7,3.476-6.679,5.607c-3.987,4.304-6.87,9.74-6.45,15.685c0.383,5.473,2.828,10.775,6.502,14.9
				c1.877,2.106,4.07,4.016,6.567,5.401c2.831,1.572,5.949,2.278,8.946,3.444c0.417-1.246,1.055-2.442,2.155-3.18
				c1.516-1.009,3.497-1.108,5.278-1.016c1.597,0.087,3.886,0.324,4.816,1.828c0.628,1.01,0.647,2.11,0.42,3.199
				c1.35-0.057,2.752,0.159,4.106,0.03c1.483-0.136,2.946-0.383,4.382-0.777c3.136-0.861,6.137-2.182,8.87-3.912
				c5.487-3.467,10.151-8.371,12.013-14.607C195.393,37.969,188.065,24.294,175.653,19.196z M186.344,50.389
				c-4.51,15.407-20.287,18.434-22.256,14.032c-1.975-4.403-13.524-3.85-15.778,1.103c-1.691,3.025-37.754-18.438-3.664-38.249
				c0,0,8.171,13.208,16.62,17.059c10.145-9.905,17.188-17.335,17.188-17.335S190.852,34.979,186.344,50.389z"/>
		</g>
		<g>
			
				<radialGradient id="SVGID_28_" cx="27.4727" cy="85.2686" r="24.6387" gradientTransform="matrix(1.0474 0 0 1.023 4.4665 -6.3816)" gradientUnits="userSpaceOnUse">
				<stop  offset="0" style="stop-color:#F07B25"/>
				<stop  offset="1" style="stop-color:#EB2427"/>
			</radialGradient>
			<path fill="url(#SVGID_28_)" d="M59.045,77.587c-0.289-5.285-2.753-10.353-6.422-14.209c-4.158-4.378-9.958-7.12-16.063-7.62
				c-2.753-0.226-5.497-0.05-8.216,0.405c-2.795,0.469-5.67,1.465-7.377,3.822c-0.045,0.06-0.116,0.072-0.18,0.059
				c0.343,2.187,0.636,4.341,1.167,6.505c0.423,1.729,0.883,3.456,1.275,5.197c0.382,1.679,0.734,3.386,1.32,5.013
				c0.296,0.825,0.625,1.664,1.111,2.402c0.276,0.422,0.645,0.774,0.928,1.184c0.296,0.146,0.581,0.311,0.843,0.495
				c0.338,0.24,0.149,0.89-0.307,0.793c-1.41-0.292-2.73-1.027-4.097-1.467c-1.553-0.497-3.147-0.942-4.771-1.159
				c-3.272-0.442-6.634-1.061-9.947-0.812c-2.585,8.372,0.59,17.873,7.808,23.11c3.688,2.678,8.274,4.415,12.877,4.687
				c2.41,0.142,4.859-0.052,7.1-1.001c2.125-0.897,3.918-2.546,6.06-3.353c-0.666-0.627-1.308-1.278-1.924-1.952
				c-0.14-0.154-0.06-0.36,0.08-0.436c-1.077-2.044-0.064-4.971,1.01-6.81c1.079-1.837,2.862-3.67,5.241-2.861
				c1.551,0.529,2.843,1.572,3.967,2.77c0.002-0.005,0.007-0.005,0.009-0.008c2.64-2.108,5.4-4.384,6.935-7.429
				C58.618,82.639,59.184,80.122,59.045,77.587z M45.054,85.93c-5.633-1.652-10.704,5.225-8.733,11.557
				c1.972,6.328-25.076,10.18-25.92-15.133c7.607,4.126,21.13,0.825,21.13,0.825s-5.353-15.134-4.227-23.941
				c0,0,25.073-1.924,28.454,18.163C56.323,87.029,50.69,87.579,45.054,85.93z"/>
		</g>
	</g>
	<g>
		
			<radialGradient id="SVGID_29_" cx="42.3145" cy="103.1445" r="7.9206" gradientTransform="matrix(1.0474 0 0 1.023 4.4665 -6.3816)" gradientUnits="userSpaceOnUse">
			<stop  offset="0" style="stop-color:#F07B25"/>
			<stop  offset="1" style="stop-color:#EB2427"/>
		</radialGradient>
		<path fill="url(#SVGID_29_)" d="M52.613,96.625c-1.222-1.727-2.528-3.552-4.242-4.855c-0.843-0.64-2.073-1.401-3.204-1.09
			c-1.103,0.306-1.854,1.189-2.432,2.114c-1.204,1.927-2.305,4.557-1.528,6.828c0.019,0.059,0.012,0.109-0.014,0.154
			c1.822,1.824,3.834,3.509,5.98,4.952c1.082,0.728,2.196,1.426,3.37,2.002c0.727,0.357,1.513,0.614,2.259,0.933
			c-0.446-1.071-0.672-2.271-0.189-3.359c0.591-1.329,2.038-2.462,3.589-2.38c0.142,0.005,0.283,0.021,0.422,0.038
			C55.313,100.16,53.902,98.444,52.613,96.625z M49.75,101.201c-4.648-3.303-6.901-8.805-3.945-9.357
			c2.958-0.547,7.749,8.806,7.749,8.806C54.257,102.163,51.863,102.163,49.75,101.201z"/>
	</g>
	<g>
		
			<radialGradient id="SVGID_30_" cx="52.4629" cy="113.1719" r="6.1145" gradientTransform="matrix(1.0474 0 0 1.023 4.4665 -6.3816)" gradientUnits="userSpaceOnUse">
			<stop  offset="0" style="stop-color:#F07B25"/>
			<stop  offset="1" style="stop-color:#EB2427"/>
		</radialGradient>
		<path fill="url(#SVGID_30_)" d="M65.538,108.803c-1.561-1.202-3.154-2.356-4.743-3.525c-1.22-0.895-2.687-2.047-4.229-2.297
			c-2.519-0.404-3.964,1.874-3.074,4.025c0.337,0.814,0.795,1.522,1.397,2.17c1.357,1.459,2.816,2.843,4.318,4.162
			c0.649,0.573,1.315,1.122,2.004,1.65c0.271,0.207,0.546,0.396,0.836,0.573c0.338,0.201,0.267,0.068,0.166,0.291
			c0.038-0.09,0.116-0.132,0.189-0.14c0.607-1.697,1.312-3.355,2.134-4.95c0.335-0.662,0.694-1.297,1.067-1.918
			C65.583,108.831,65.561,108.819,65.538,108.803z M59.187,108.628c-4.085-2.475-5.495-5.914-2.114-4.677
			c0,0,4.791,2.752,6.058,4.816C64.399,110.831,63.273,111.106,59.187,108.628z"/>
	</g>
	<g>
		
			<radialGradient id="SVGID_31_" cx="135.2373" cy="99.5684" r="7.0042" gradientTransform="matrix(1.0474 0 0 1.023 4.4665 -6.3816)" gradientUnits="userSpaceOnUse">
			<stop  offset="0" style="stop-color:#F07B25"/>
			<stop  offset="1" style="stop-color:#EB2427"/>
		</radialGradient>
		<path fill="url(#SVGID_31_)" d="M152.925,89.861c0.063-0.104,0.123-0.209,0.182-0.314c-0.592-0.932-2.023-1.441-3.077-1.259
			c-1.748,0.304-2.969,1.637-4.117,2.857c-1.342,1.429-2.849,2.696-4.214,4.106c-0.675,0.699-1.343,1.411-1.943,2.174
			c-0.3,0.378-0.597,0.752-0.882,1.139c-0.01,0.013-0.022,0.031-0.033,0.044c1.601,1.266,3.114,2.63,4.517,4.094
			c2.224-2.057,4.268-4.285,6.327-6.494c1.253-1.344,3.685-3.582,3.704-5.626C153.033,90.582,152.688,90.254,152.925,89.861z
			 M150.891,90.469c0,0-5.776,6.743-8.874,7.843c-3.099,1.102,1.083-2.947,3.382-5.64C148.215,89.37,153.003,87.579,150.891,90.469z
			"/>
	</g>
	<g>
		
			<radialGradient id="SVGID_32_" cx="156.083" cy="112.876" r="12.5308" gradientTransform="matrix(1.0474 0 0 1.023 4.4665 -6.3816)" gradientUnits="userSpaceOnUse">
			<stop  offset="0" style="stop-color:#F07B25"/>
			<stop  offset="1" style="stop-color:#EB2427"/>
		</radialGradient>
		<path fill="url(#SVGID_32_)" d="M185.742,107.934c-5.409-1.289-21.369-4.027-35.771,4.162c0.111,0.213,0.223,0.426,0.328,0.645
			c0.66-0.528,1.412-0.92,2.22-1.26c1.623-0.681,3.265-1.36,4.942-1.895c3.486-1.1,7.061-1.671,10.701-1.954
			c3.296-0.255,6.642-0.378,9.939-0.02c2.623,0.283,5.614,0.756,8.027,1.998c-0.085-0.421-0.137-0.862-0.25-1.242
			C185.836,108.225,185.788,108.08,185.742,107.934z"/>
	</g>
	<g>
		
			<radialGradient id="SVGID_33_" cx="160.1777" cy="128.3086" r="13.0747" gradientTransform="matrix(1.0474 0 0 1.023 4.4665 -6.3816)" gradientUnits="userSpaceOnUse">
			<stop  offset="0" style="stop-color:#F07B25"/>
			<stop  offset="1" style="stop-color:#EB2427"/>
		</radialGradient>
		<path fill="url(#SVGID_33_)" d="M153.683,123.199c0.057,0.316,0.111,0.633,0.153,0.952c5.832-2.576,12.891-2.27,19.055-1.112
			c6.227,1.171,12.036,3.882,17.519,6.932c0.14-0.956,0.433-2.063,0.479-3.106C185.033,123.724,169.353,116.855,153.683,123.199z"/>
	</g>
	<g>
		
			<radialGradient id="SVGID_34_" cx="156.8477" cy="146.3643" r="12.1689" gradientTransform="matrix(1.0474 0 0 1.023 4.4665 -6.3816)" gradientUnits="userSpaceOnUse">
			<stop  offset="0" style="stop-color:#F07B25"/>
			<stop  offset="1" style="stop-color:#EB2427"/>
		</radialGradient>
		<path fill="url(#SVGID_34_)" d="M153.719,134.913c-0.116,0.665-0.246,1.328-0.402,1.985c1.152-0.261,2.886-0.046,3.804,0.052
			c1.688,0.188,3.349,0.533,4.97,1.029c3.271,0.989,6.489,2.301,9.496,3.914c2.63,1.412,5.213,3.055,7.318,5.165
			c1.403,1.412,3.141,3.353,3.864,5.389c0.516-1.141,0.976-2.371,1.224-3.61C174.306,137.036,158.877,135.193,153.719,134.913z"/>
	</g>
	<g>
		
			<radialGradient id="SVGID_35_" cx="147.2832" cy="159.3701" r="10.2435" gradientTransform="matrix(1.0474 0 0 1.023 4.4665 -6.3816)" gradientUnits="userSpaceOnUse">
			<stop  offset="0" style="stop-color:#F07B25"/>
			<stop  offset="1" style="stop-color:#EB2427"/>
		</radialGradient>
		<path fill="url(#SVGID_35_)" d="M148.235,147.999c-0.338,0.477-0.683,0.947-1.048,1.404c0.873,0.031,1.931,0.24,2.104,0.27
			c2.241,0.37,4.292,0.856,6.342,1.887c5.343,2.676,11.29,8.319,10.877,14.713c0.335-0.165,0.683-0.316,1.001-0.531
			c0.273-0.185,0.543-0.38,0.808-0.584C166.805,152.163,152.851,148.768,148.235,147.999z"/>
	</g>
	<g>
		
			<radialGradient id="SVGID_36_" cx="44.7529" cy="147.8018" r="9.434" gradientTransform="matrix(1.0474 0 0 1.023 4.4665 -6.3816)" gradientUnits="userSpaceOnUse">
			<stop  offset="0" style="stop-color:#F07B25"/>
			<stop  offset="1" style="stop-color:#EB2427"/>
		</radialGradient>
		<path fill="url(#SVGID_36_)" d="M59.789,136.997c-0.06-0.491-0.109-0.978-0.149-1.466c-4.049,0.851-14.689,4.395-16.706,18.238
			c0.114,0.998,0.481,1.789,1.344,1.921c-0.075-3.968,2.129-8.192,4.542-11.252C51.405,141.156,55.3,137.319,59.789,136.997z"/>
		
			<radialGradient id="SVGID_37_" cx="43.3706" cy="131.499" r="8.8855" gradientTransform="matrix(1.0474 0 0 1.023 4.4665 -6.3816)" gradientUnits="userSpaceOnUse">
			<stop  offset="0" style="stop-color:#F07B25"/>
			<stop  offset="1" style="stop-color:#EB2427"/>
		</radialGradient>
		<path fill="url(#SVGID_37_)" d="M48.012,127.766c5.412-2.415,6.977-2.238,11.914-1.922c0.094-0.737,0.207-1.473,0.335-2.205
			c-4.845-0.231-15.535,0.371-21.27,9.816c-0.033,0.619,0.073,1.228,0.274,1.875c1.138-1.379,2.018-3.013,3.388-4.174
			C44.244,129.806,46.09,128.62,48.012,127.766z"/>
		
			<radialGradient id="SVGID_38_" cx="49.7754" cy="161.4902" r="9.2805" gradientTransform="matrix(1.0474 0 0 1.023 4.4665 -6.3816)" gradientUnits="userSpaceOnUse">
			<stop  offset="0" style="stop-color:#F07B25"/>
			<stop  offset="1" style="stop-color:#EB2427"/>
		</radialGradient>
		<path fill="url(#SVGID_38_)" d="M63.842,149.061c-4.16,0.95-13.868,4.793-14.936,20.012c0.116,0.14,0.257,0.25,0.444,0.314
			c0.496,0.17,1.005,0.195,1.525,0.232c0,0,0,0,0-0.004c-0.023-0.15-0.035-0.31-0.035-0.468c-0.014-0.307-0.024-0.613-0.014-0.925
			c0.04-1.186,0.345-2.387,0.715-3.505c0.737-2.223,1.542-4.446,2.772-6.463c1.171-1.917,2.623-3.7,4.458-5.064
			c1.686-1.256,3.82-2.567,6.002-2.718C64.444,150.014,64.135,149.543,63.842,149.061z"/>
		
			<radialGradient id="SVGID_39_" cx="60.5806" cy="170.6162" r="8.6999" gradientTransform="matrix(1.0474 0 0 1.023 4.4665 -6.3816)" gradientUnits="userSpaceOnUse">
			<stop  offset="0" style="stop-color:#F07B25"/>
			<stop  offset="1" style="stop-color:#EB2427"/>
		</radialGradient>
		<path fill="url(#SVGID_39_)" d="M62.45,178.522c0.262,0.326,0.611,0.572,1.079,0.644c0.659,0.096,0.67-2.851,0.764-3.449
			c0.383-2.492,0.95-4.992,1.995-7.31c1.639-3.628,4.227-7.862,7.877-9.922c-0.447-0.235-0.884-0.485-1.313-0.741
			C69.495,159.464,62.45,164.714,62.45,178.522z"/>
	</g>
	
		<radialGradient id="SVGID_40_" cx="143.6328" cy="81.667" r="8.9559" gradientTransform="matrix(1.0474 0 0 1.023 4.4665 -6.3816)" gradientUnits="userSpaceOnUse">
		<stop  offset="0" style="stop-color:#F07B25"/>
		<stop  offset="1" style="stop-color:#EB2427"/>
	</radialGradient>
	<path fill="url(#SVGID_40_)" d="M149.107,87.166c0,0,3.473,0,4.696,1.47c2.63-5.047,8.732-19.168,6.948-21.371
		c-1.786-2.2-9.39-3.305-11.081,5.136C147.981,80.838,149.107,87.166,149.107,87.166z"/>
	<g>
		
			<radialGradient id="SVGID_41_" cx="143.6328" cy="81.667" r="8.9559" gradientTransform="matrix(1.0474 0 0 1.023 4.4665 -6.3816)" gradientUnits="userSpaceOnUse">
			<stop  offset="0" style="stop-color:#F07B25"/>
			<stop  offset="1" style="stop-color:#EB2427"/>
		</radialGradient>
		<path fill="url(#SVGID_41_)" d="M160.752,67.265c-1.786-2.2-9.39-3.305-11.081,5.136c-1.689,8.438-0.563,14.765-0.563,14.765
			s3.473,0,4.696,1.47C156.434,83.589,162.536,69.467,160.752,67.265z M154.647,75.518c-2.442,7.429-2.818,10.641-4.131,10.365
			c-1.314-0.275-2.255-5.503-0.378-12.473c1.879-6.974,5.166-6.696,5.166-6.696C157.37,66.347,157.09,68.091,154.647,75.518z"/>
		
			<radialGradient id="SVGID_42_" cx="143.6318" cy="81.6665" r="8.9559" gradientTransform="matrix(1.0474 0 0 1.023 4.4665 -6.3816)" gradientUnits="userSpaceOnUse">
			<stop  offset="0" style="stop-color:#F07B25"/>
			<stop  offset="1" style="stop-color:#EB2427"/>
		</radialGradient>
		<path fill="url(#SVGID_42_)" d="M155.305,66.714c0,0-3.287-0.278-5.166,6.696c-1.877,6.969-0.937,12.198,0.378,12.473
			c1.313,0.276,1.688-2.936,4.131-10.365C157.09,68.091,157.37,66.347,155.305,66.714z"/>
	</g>
	
		<radialGradient id="SVGID_43_" cx="-59.8848" cy="-351.7334" r="6.2576" gradientTransform="matrix(-0.9638 0.4005 -0.3823 -0.8776 -56.9763 -233.8515)" gradientUnits="userSpaceOnUse">
		<stop  offset="0" style="stop-color:#F07B25"/>
		<stop  offset="1" style="stop-color:#EB2427"/>
	</radialGradient>
	<path fill="url(#SVGID_43_)" d="M131.71,52.301c-1.705-3.912-1.521-7.733,0.413-8.538c1.934-0.799,4.879,1.717,6.584,5.629
		c1.705,3.913,1.519,7.733-0.413,8.537C136.36,58.732,133.412,56.211,131.71,52.301z"/>
	
		<radialGradient id="SVGID_44_" cx="49.0537" cy="80.5938" r="13.9609" gradientTransform="matrix(1.0474 0 0 1.023 4.4665 -6.3816)" gradientUnits="userSpaceOnUse">
		<stop  offset="0" style="stop-color:#F07B25"/>
		<stop  offset="1" style="stop-color:#EB2427"/>
	</radialGradient>
	<path fill="url(#SVGID_44_)" d="M35.474,63.871c0,0,16.625,5.228,16.904,20.912C56.606,74.877,49.28,62.219,35.474,63.871z"/>
	
		<radialGradient id="SVGID_45_" cx="173.5889" cy="55.4526" r="17.3548" gradientTransform="matrix(1.0474 0 0 1.023 4.4665 -6.3816)" gradientUnits="userSpaceOnUse">
		<stop  offset="0" style="stop-color:#F07B25"/>
		<stop  offset="1" style="stop-color:#EB2427"/>
	</radialGradient>
	<path fill="url(#SVGID_45_)" d="M180.284,34.704c0,0,5.635,15.959-9.86,26.69C181.693,59.742,189.863,44.334,180.284,34.704z"/>
	
		<radialGradient id="SVGID_46_" cx="133.2988" cy="-476.4219" r="6.2569" gradientTransform="matrix(-0.608 0.833 -0.6446 -0.4488 -205.0426 -228.3328)" gradientUnits="userSpaceOnUse">
		<stop  offset="0" style="stop-color:#F07B25"/>
		<stop  offset="1" style="stop-color:#EB2427"/>
	</radialGradient>
	<path fill="url(#SVGID_46_)" d="M18.805,99.548c-2.872-1.999-4.211-4.976-2.994-6.647c1.22-1.669,4.536-1.403,7.408,0.597
		c2.872,2,4.214,4.977,2.994,6.647C24.995,101.816,21.679,101.548,18.805,99.548z"/>
	
		<radialGradient id="SVGID_47_" cx="107.3018" cy="112.2334" r="24.6306" gradientTransform="matrix(1.0474 0 0 1.023 4.4665 -6.3816)" gradientUnits="userSpaceOnUse">
		<stop  offset="0" style="stop-color:#F07B25"/>
		<stop  offset="1" style="stop-color:#EB2427"/>
	</radialGradient>
	<path fill="url(#SVGID_47_)" d="M73.228,118.534c0,0,6.011,12.659,36.437,7.522c5.821-1.285-14.648,6.053-28.925-0.366
		C71.536,121.653,73.228,118.534,73.228,118.534z"/>
</g>
</svg>
