<?xml version="1.0" encoding="utf-8"?>
<!-- Generator: Adobe Illustrator 14.0.0, SVG Export Plug-In . SVG Version: 6.00 Build 43363)  -->
<!DOCTYPE svg PUBLIC "-//W3C//DTD SVG 1.1//EN" "http://www.w3.org/Graphics/SVG/1.1/DTD/svg11.dtd">
<svg version="1.1" id="Layer_1" xmlns="http://www.w3.org/2000/svg" xmlns:xlink="http://www.w3.org/1999/xlink" x="0px" y="0px"
	 width="200px" height="200px" viewBox="0 0 200 200" enable-background="new 0 0 200 200" xml:space="preserve">
<g>
	<g opacity="0.31">
		<path fill="#231F20" d="M182.643,85.152c-0.885-5.155-2.264-10.229-4.106-15.077c-2.172-5.725-5.014-11.236-8.456-16.376
			c-15.044-22.487-40.202-35.912-67.298-35.912c-3.993,0-8.022,0.301-11.968,0.896c-5.729,0.86-11.36,2.329-16.738,4.369
			c-5.222,1.981-10.249,4.505-14.937,7.5C32.711,47.423,18.333,78.419,22.51,109.52c0.83,6.177,2.359,12.23,4.544,17.997
			c1.871,4.932,4.238,9.706,7.035,14.189c14.647,23.501,40.98,38.101,68.72,38.102c0.003,0,0.003,0,0.004,0
			c4.135,0,8.305-0.321,12.399-0.96c5.57-0.875,11.055-2.323,16.301-4.312c5.437-2.061,10.697-4.739,15.635-7.966
			C174.173,148.921,188.104,116.961,182.643,85.152z M65.925,100.268c-0.481-12.057,4.97-23.6,14.586-30.882
			c2.817-2.138,5.913-3.851,9.203-5.097c3.131-1.188,6.428-1.945,9.801-2.247c1.084-0.097,2.185-0.147,3.27-0.147
			c11.007,0,21.714,5.094,28.649,13.632c2.489,3.064,4.462,6.491,5.864,10.186c1.046,2.763,1.764,5.66,2.124,8.61
			c1.614,13.108-3.972,26.155-14.565,34.047c-2.766,2.058-5.789,3.715-8.976,4.926c-3.335,1.262-6.826,2.035-10.386,2.298
			c-0.896,0.065-1.803,0.098-2.7,0.098c-12.093,0-23.423-5.918-30.3-15.83c-1.722-2.481-3.133-5.168-4.203-7.982
			C66.885,108.159,66.086,104.252,65.925,100.268z"/>
	</g>
	<g>
		<path fill="#FFFFFF" d="M172.522,80.673c-0.885-5.155-2.265-10.229-4.105-15.078c-2.172-5.726-5.018-11.236-8.458-16.375
			c-15.045-22.488-40.201-35.912-67.296-35.912c-3.995,0-8.022,0.301-11.971,0.896c-5.725,0.86-11.356,2.329-16.734,4.37
			c-5.224,1.979-10.25,4.503-14.937,7.498C22.59,42.944,8.214,73.942,12.391,105.039c0.829,6.176,2.357,12.231,4.543,17.999
			c1.872,4.931,4.239,9.706,7.034,14.189c14.649,23.502,40.982,38.1,68.721,38.103c0.001,0,0.003,0,0.004,0
			c4.134,0,8.304-0.323,12.398-0.963c5.572-0.872,11.059-2.321,16.299-4.31c5.438-2.062,10.698-4.74,15.637-7.965
			C164.052,144.439,177.985,112.482,172.522,80.673z M55.804,95.789c-0.482-12.059,4.968-23.602,14.587-30.883
			c2.817-2.136,5.911-3.85,9.204-5.096c3.129-1.187,6.427-1.944,9.8-2.248c1.083-0.097,2.185-0.146,3.272-0.146
			c11.005,0,21.713,5.096,28.645,13.633c2.491,3.063,4.464,6.492,5.865,10.186c1.046,2.763,1.764,5.661,2.127,8.611
			c1.612,13.106-3.972,26.153-14.569,34.046c-2.765,2.06-5.785,3.716-8.974,4.927c-3.332,1.262-6.828,2.035-10.387,2.296
			c-0.892,0.067-1.801,0.101-2.697,0.101c-12.098,0-23.423-5.918-30.302-15.832c-1.72-2.483-3.135-5.167-4.203-7.983
			C56.763,103.68,55.964,99.771,55.804,95.789z"/>
	</g>
	<g>
		<g>
			<g>
				<defs>
					<path id="SVGID_1_" d="M54.447,120.087L31.24,131.932c15.193,24.374,43.667,37.378,71.992,32.965l-7.635-25.187
						C79.465,140.903,63.719,133.45,54.447,120.087z"/>
				</defs>
				<clipPath id="SVGID_2_">
					<use xlink:href="#SVGID_1_"  overflow="visible"/>
				</clipPath>
				<g clip-path="url(#SVGID_2_)">
					<rect x="102.729" y="76.527" fill="none" width="122.321" height="122.326"/>
					<rect x="102.729" y="76.527" fill="#D4202A" width="122.321" height="122.326"/>
					<rect x="102.729" y="76.527" fill="#EC2227" width="6.584" height="122.326"/>
					<rect x="116.344" y="76.527" fill="#EC2227" width="6.587" height="122.326"/>
					<rect x="129.96" y="76.527" fill="#EC2227" width="6.585" height="122.326"/>
					<rect x="143.575" y="76.527" fill="#EC2227" width="6.586" height="122.326"/>
					<rect x="157.191" y="76.527" fill="#EC2227" width="6.587" height="122.326"/>
					<rect x="170.804" y="76.527" fill="#EC2227" width="6.59" height="122.326"/>
					<rect x="184.423" y="76.527" fill="#EC2227" width="6.585" height="122.326"/>
					<rect x="198.04" y="76.527" fill="#EC2227" width="6.582" height="122.326"/>
					<rect x="211.653" y="76.527" fill="#EC2227" width="6.587" height="122.326"/>
				</g>
				<g clip-path="url(#SVGID_2_)">
					<rect x="-19.594" y="76.527" fill="none" width="122.323" height="122.326"/>
					<rect x="-19.594" y="76.527" fill="#D4202A" width="122.323" height="122.326"/>
					<rect x="-19.594" y="76.527" fill="#EC2227" width="6.584" height="122.326"/>
					<rect x="-5.978" y="76.527" fill="#EC2227" width="6.585" height="122.326"/>
					<rect x="7.637" y="76.527" fill="#EC2227" width="6.586" height="122.326"/>
					<rect x="21.254" y="76.527" fill="#EC2227" width="6.584" height="122.326"/>
					<rect x="34.866" y="76.527" fill="#EC2227" width="6.587" height="122.326"/>
					<rect x="48.483" y="76.527" fill="#EC2227" width="6.585" height="122.326"/>
					<rect x="62.1" y="76.527" fill="#EC2227" width="6.584" height="122.326"/>
					<rect x="75.715" y="76.527" fill="#EC2227" width="6.584" height="122.326"/>
					<rect x="89.33" y="76.527" fill="#EC2227" width="6.585" height="122.326"/>
				</g>
			</g>
		</g>
		<g>
			<g>
				<defs>
					<path id="SVGID_3_" d="M127.925,64.828l24.02-11.028c-15.399-23.014-42.912-35.208-70.351-31.079l6.534,25.296
						C103.366,46.648,118.335,53.02,127.925,64.828z"/>
				</defs>
				<clipPath id="SVGID_4_">
					<use xlink:href="#SVGID_3_"  overflow="visible"/>
				</clipPath>
				<g clip-path="url(#SVGID_4_)">
					<rect x="102.729" y="-45.797" fill="none" width="122.321" height="122.324"/>
					<rect x="102.729" y="-45.797" fill="#D4202A" width="122.321" height="122.324"/>
					<rect x="102.729" y="-45.797" fill="#EC2227" width="6.584" height="122.324"/>
					<rect x="116.344" y="-45.797" fill="#EC2227" width="6.587" height="122.324"/>
					<rect x="129.96" y="-45.797" fill="#EC2227" width="6.585" height="122.324"/>
					<rect x="143.575" y="-45.797" fill="#EC2227" width="6.586" height="122.324"/>
					<rect x="157.191" y="-45.797" fill="#EC2227" width="6.587" height="122.324"/>
					<rect x="170.804" y="-45.797" fill="#EC2227" width="6.59" height="122.324"/>
					<rect x="184.423" y="-45.797" fill="#EC2227" width="6.585" height="122.324"/>
					<rect x="198.04" y="-45.797" fill="#EC2227" width="6.582" height="122.324"/>
					<rect x="211.653" y="-45.797" fill="#EC2227" width="6.587" height="122.324"/>
				</g>
				<g clip-path="url(#SVGID_4_)">
					<rect x="-19.594" y="-45.797" fill="none" width="122.323" height="122.324"/>
					<rect x="-19.594" y="-45.797" fill="#D4202A" width="122.323" height="122.324"/>
					<rect x="-19.594" y="-45.797" fill="#EC2227" width="6.584" height="122.324"/>
					<rect x="-5.978" y="-45.797" fill="#EC2227" width="6.585" height="122.324"/>
					<rect x="7.637" y="-45.797" fill="#EC2227" width="6.586" height="122.324"/>
					<rect x="21.254" y="-45.797" fill="#EC2227" width="6.584" height="122.324"/>
					<rect x="34.866" y="-45.797" fill="#EC2227" width="6.587" height="122.324"/>
					<rect x="48.483" y="-45.797" fill="#EC2227" width="6.585" height="122.324"/>
					<rect x="62.1" y="-45.797" fill="#EC2227" width="6.584" height="122.324"/>
					<rect x="75.715" y="-45.797" fill="#EC2227" width="6.584" height="122.324"/>
					<rect x="89.33" y="-45.797" fill="#EC2227" width="6.585" height="122.324"/>
				</g>
			</g>
		</g>
		<g>
			<g>
				<defs>
					<path id="SVGID_5_" d="M64.441,57.172L53.464,33.261c-23.524,15.019-36.21,42.512-32.505,70.087l25.303-7.675
						C45.663,80.709,52.454,66.25,64.441,57.172z"/>
				</defs>
				<clipPath id="SVGID_6_">
					<use xlink:href="#SVGID_5_"  overflow="visible"/>
				</clipPath>
				<g clip-path="url(#SVGID_6_)">
					<rect x="-19.594" y="-45.797" fill="none" width="122.323" height="122.324"/>
					<rect x="-19.594" y="-45.797" fill="#D4202A" width="122.323" height="122.324"/>
					<rect x="-19.594" y="-45.797" fill="#EC2227" width="6.584" height="122.324"/>
					<rect x="-5.978" y="-45.797" fill="#EC2227" width="6.585" height="122.324"/>
					<rect x="7.637" y="-45.797" fill="#EC2227" width="6.586" height="122.324"/>
					<rect x="21.254" y="-45.797" fill="#EC2227" width="6.584" height="122.324"/>
					<rect x="34.866" y="-45.797" fill="#EC2227" width="6.587" height="122.324"/>
					<rect x="48.483" y="-45.797" fill="#EC2227" width="6.585" height="122.324"/>
					<rect x="62.1" y="-45.797" fill="#EC2227" width="6.584" height="122.324"/>
					<rect x="75.715" y="-45.797" fill="#EC2227" width="6.584" height="122.324"/>
					<rect x="89.33" y="-45.797" fill="#EC2227" width="6.585" height="122.324"/>
				</g>
				<g clip-path="url(#SVGID_6_)">
					<rect x="-19.594" y="76.527" fill="none" width="122.323" height="122.326"/>
					<rect x="-19.594" y="76.527" fill="#D4202A" width="122.323" height="122.326"/>
					<rect x="-19.594" y="76.527" fill="#EC2227" width="6.584" height="122.326"/>
					<rect x="-5.978" y="76.527" fill="#EC2227" width="6.585" height="122.326"/>
					<rect x="7.637" y="76.527" fill="#EC2227" width="6.586" height="122.326"/>
					<rect x="21.254" y="76.527" fill="#EC2227" width="6.584" height="122.326"/>
					<rect x="34.866" y="76.527" fill="#EC2227" width="6.587" height="122.326"/>
					<rect x="48.483" y="76.527" fill="#EC2227" width="6.585" height="122.326"/>
					<rect x="62.1" y="76.527" fill="#EC2227" width="6.584" height="122.326"/>
					<rect x="75.715" y="76.527" fill="#EC2227" width="6.584" height="122.326"/>
					<rect x="89.33" y="76.527" fill="#EC2227" width="6.585" height="122.326"/>
				</g>
			</g>
		</g>
		<g>
			<g>
				<defs>
					<path id="SVGID_7_" d="M119.718,130.71l11.884,23.282c23.854-15.582,36.343-44.076,31.501-72.26l-25.218,6.52
						C139.897,104.632,132.89,120.898,119.718,130.71z"/>
				</defs>
				<clipPath id="SVGID_8_">
					<use xlink:href="#SVGID_7_"  overflow="visible"/>
				</clipPath>
				<g clip-path="url(#SVGID_8_)">
					<rect x="102.729" y="76.527" fill="none" width="122.321" height="122.326"/>
					<rect x="102.729" y="76.527" fill="#D4202A" width="122.321" height="122.326"/>
					<rect x="102.729" y="76.527" fill="#EC2227" width="6.584" height="122.326"/>
					<rect x="116.344" y="76.527" fill="#EC2227" width="6.587" height="122.326"/>
					<rect x="129.96" y="76.527" fill="#EC2227" width="6.585" height="122.326"/>
					<rect x="143.575" y="76.527" fill="#EC2227" width="6.586" height="122.326"/>
					<rect x="157.191" y="76.527" fill="#EC2227" width="6.587" height="122.326"/>
					<rect x="170.804" y="76.527" fill="#EC2227" width="6.59" height="122.326"/>
					<rect x="184.423" y="76.527" fill="#EC2227" width="6.585" height="122.326"/>
					<rect x="198.04" y="76.527" fill="#EC2227" width="6.582" height="122.326"/>
					<rect x="211.653" y="76.527" fill="#EC2227" width="6.587" height="122.326"/>
				</g>
			</g>
		</g>
		<g>
			<path fill="#FDDCC8" d="M151.944,53.8l-24.02,11.028c3.021,3.716,5.517,7.971,7.313,12.698c1.34,3.535,2.206,7.134,2.647,10.726
				l25.218-6.52c-0.773-4.487-1.97-8.971-3.646-13.39C157.473,63.112,154.93,58.258,151.944,53.8z"/>
		</g>
		<g>
			<path fill="#FDDCC8" d="M49.212,110.145c-1.808-4.768-2.756-9.646-2.95-14.472l-25.303,7.675
				c0.717,5.352,2.034,10.711,4.031,15.979c1.701,4.481,3.807,8.686,6.25,12.604l23.207-11.845
				C52.348,117.061,50.577,113.738,49.212,110.145z"/>
		</g>
		<g>
			<path fill="#FDDCC8" d="M75.914,50.82c4.024-1.527,8.131-2.435,12.214-2.802l-6.534-25.296c-4.983,0.748-9.961,2.02-14.863,3.88
				c-4.733,1.794-9.162,4.038-13.266,6.659l10.977,23.912C67.864,54.579,71.699,52.417,75.914,50.82z"/>
		</g>
		<g>
			<path fill="#FDDCC8" d="M108.534,136.847c-4.264,1.613-8.614,2.543-12.938,2.863l7.635,25.187
				c4.858-0.76,9.709-2.02,14.484-3.831c4.974-1.885,9.608-4.281,13.886-7.073l-11.884-23.282
				C116.367,133.204,112.629,135.29,108.534,136.847z"/>
		</g>
	</g>
</g>
</svg>
