<?xml version="1.0" encoding="utf-8"?>
<!-- Generator: Adobe Illustrator 16.0.0, SVG Export Plug-In . SVG Version: 6.00 Build 0)  -->
<!DOCTYPE svg PUBLIC "-//W3C//DTD SVG 1.1//EN" "http://www.w3.org/Graphics/SVG/1.1/DTD/svg11.dtd">
<svg version="1.1" id="Layer_1" xmlns="http://www.w3.org/2000/svg" xmlns:xlink="http://www.w3.org/1999/xlink" x="0px" y="0px"
	 width="95px" height="95px" viewBox="0 0 95 95" enable-background="new 0 0 95 95" xml:space="preserve">
<polygon fill="#010101" points="74.121,87.796 56.709,69.844 56.687,94.851 47.47,71.602 37.879,94.699 38.262,69.692 
	20.563,87.361 30.486,64.405 7.371,73.956 25.324,56.546 0.313,56.522 23.564,47.306 0.465,37.716 25.472,38.099 7.803,20.399 
	30.76,30.322 21.209,7.207 38.621,25.16 38.642,0.15 47.859,23.4 57.449,0.301 57.067,25.309 74.767,7.639 64.842,30.596 
	87.958,21.045 70.006,38.458 95.016,38.479 71.764,47.696 94.864,57.287 69.856,56.905 87.526,74.603 64.568,64.679 "/>
</svg>
