<?xml version="1.0" encoding="utf-8"?>
<!-- Generator: Adobe Illustrator 16.0.0, SVG Export Plug-In . SVG Version: 6.00 Build 0)  -->
<!DOCTYPE svg PUBLIC "-//W3C//DTD SVG 1.1//EN" "http://www.w3.org/Graphics/SVG/1.1/DTD/svg11.dtd">
<svg version="1.1" id="Layer_1" xmlns="http://www.w3.org/2000/svg" xmlns:xlink="http://www.w3.org/1999/xlink" x="0px" y="0px"
	 width="95px" height="95px" viewBox="0 0 95 95" enable-background="new 0 0 95 95" xml:space="preserve">
<path d="M79.414,18.568c0,0-16.886,4.447-20.336-0.587c-5.623-8.207,3.041-8.664-3.646-14.743c-7.6-5.165-18.238-5.014-14.438,6.688
	c3.8,11.702-1.976,12.614-6.535,14.589c-4.559,1.977-12.917,3.496-14.892,1.216c-1.976-2.279-7.143,2.584-7.599,11.398
	s6.991,7.749,13.069,5.927s11.551,1.368,11.399,5.016c-0.153,3.646-4.104,12.462-13.983,8.359
	c-9.877-4.104-13.525-2.432-12.614,6.534c0.913,8.967,6.399,15.349,7.144,15.501c3.18,0.657,4.866-4.023,10.79-5.014
	c3.452-0.576,15.806-3.344,14.893,6.382c-0.913,9.729-6.179,6.106-1.065,11.391c2.747,2.838,9.064,7.292,15.107-0.911
	c3.008-4.254-1.625-3.763-1.775-7.104c-0.152-3.345-1.172-11.277,5.818-11.277s17.205,5.546,19.332,8.13l10.453-19.985
	l-1.824-32.369L79.414,18.568z"/>
</svg>
