<?xml version="1.0" encoding="utf-8"?>
<!-- Generator: Adobe Illustrator 16.0.0, SVG Export Plug-In . SVG Version: 6.00 Build 0)  -->
<!DOCTYPE svg PUBLIC "-//W3C//DTD SVG 1.1//EN" "http://www.w3.org/Graphics/SVG/1.1/DTD/svg11.dtd">
<svg version="1.1" id="Layer_1" xmlns="http://www.w3.org/2000/svg" xmlns:xlink="http://www.w3.org/1999/xlink" x="0px" y="0px"
	 width="95px" height="95px" viewBox="0 0 95 95" enable-background="new 0 0 95 95" xml:space="preserve">
<path fill="#010101" d="M68.884,31.806c0.956-2.614,1.498-5.439,1.498-8.413C70.404,10.504,60.615,0.03,48.527,0.008
	c-12.088-0.022-21.91,10.413-21.926,23.313c-0.005,2.963,0.525,5.787,1.47,8.39c-11.695,0.465-21.047,10.685-21.07,23.27
	c-0.017,12.9,9.767,23.374,21.854,23.391c7.617,0.017,14.304-4.106,18.245-10.386c-0.845,4.56-2.056,10.491-3.145,13.818
	c-3.438,10.519-9.103,13.138-9.103,13.138l25.403,0.05c0,0-5.56-3.195-8.092-13.271c-0.63-2.525-1.857-8.821-2.78-13.674
	c3.924,6.257,10.602,10.38,18.18,10.396c12.099,0.021,21.915-10.413,21.938-23.309C89.512,42.683,80.396,32.519,68.884,31.806z"/>
</svg>
