<?xml version="1.0" encoding="utf-8"?>
<!-- Generator: Adobe Illustrator 16.0.0, SVG Export Plug-In . SVG Version: 6.00 Build 0)  -->
<!DOCTYPE svg PUBLIC "-//W3C//DTD SVG 1.1//EN" "http://www.w3.org/Graphics/SVG/1.1/DTD/svg11.dtd">
<svg version="1.1" id="Layer_1" xmlns="http://www.w3.org/2000/svg" xmlns:xlink="http://www.w3.org/1999/xlink" x="0px" y="0px"
	 width="95px" height="95px" viewBox="0 0 95 95" enable-background="new 0 0 95 95" xml:space="preserve">
<path d="M42.547,5.819C39.625,8.702,26.354,24.347,23.266,28.26c-2.91,3.684-5.208,6.594-3.7,10.103
	c0.397,0.924,1.027,1.707,1.869,2.347c-3.448,4.047-7.555,8.916-8.579,10.334c-1.923,2.669-2.414,5.623-1.346,8.105
	c0.759,1.767,2.247,3.099,4.134,3.744c-3.315,3.763-6.827,7.79-7.686,8.919c-1.665,2.188-2.057,4.902-1.045,7.256
	c1.242,2.89,4.269,4.661,8.096,4.74c2.711,0.057,12.721-0.237,19.23-0.444c-0.193,2.447-0.092,5.062,0.763,7.052
	c0.856,1.99,2.214,2.987,3.205,3.473c1.774,0.87,5.225,1.233,10.256,1.075l0.057-0.001c0,0,1.327-0.073,1.406-0.078
	c4.966-0.113,8.355-0.651,10.068-1.605c4.407-2.458,3.731-8.391,3.397-10.716c6.51-0.135,16.536-0.366,19.241-0.563
	c3.667-0.267,6.557-2.09,7.726-4.874c0.743-1.769,0.708-3.694-0.048-5.452c-0.305-0.709-0.727-1.391-1.263-2.022
	c-0.918-1.082-4.635-4.922-8.143-8.506c1.974-0.789,3.433-2.314,4.045-4.283c0.334-1.067,0.614-2.948-0.358-5.214
	c-0.338-0.787-0.828-1.619-1.52-2.48c-1.099-1.365-5.455-6.014-9.11-9.875c2.044-1.737,2.666-4.311,1.557-6.894
	c-0.645-1.499-1.777-2.874-4.032-5.44c-1.759-2.003-6.568-7.183-11.186-12.046C51.316,5.445,50.66,5.082,49.901,4.662
	c0,0-0.056-0.027-0.133-0.061c0.097,0.053,0.253,0.141,0.253,0.141s-1.24-0.553-1.33-0.592C46.461,3.449,44.083,4.115,42.547,5.819z
	"/>
</svg>
