<?xml version="1.0" encoding="utf-8"?>
<!-- Generator: Adobe Illustrator 16.0.0, SVG Export Plug-In . SVG Version: 6.00 Build 0)  -->
<!DOCTYPE svg PUBLIC "-//W3C//DTD SVG 1.1//EN" "http://www.w3.org/Graphics/SVG/1.1/DTD/svg11.dtd">
<svg version="1.1" id="Layer_1" xmlns="http://www.w3.org/2000/svg" xmlns:xlink="http://www.w3.org/1999/xlink" x="0px" y="0px"
	 width="95px" height="95px" viewBox="0 0 95 95" enable-background="new 0 0 95 95" xml:space="preserve">
<path d="M88.798,24.052v31v29.445H6.041V26.015V11.782c0,0,6.282,10.798,38.237,11.291c31.953,0.491,44.52-10.801,44.52-10.801
	V24.052z"/>
<path d="M88.985,12.366c0,6.679-18.574,12.093-41.48,12.093c-22.917,0-41.488-5.414-41.488-12.093
	c0-6.676,18.571-12.09,41.488-12.09C70.411,0.276,88.985,5.69,88.985,12.366z"/>
<path d="M88.985,82.635c0,6.68-18.574,12.09-41.48,12.09c-22.917,0-41.488-5.41-41.488-12.09s18.571-12.094,41.488-12.094
	C70.411,70.541,88.985,75.955,88.985,82.635z"/>
</svg>
